<svg width="276" height="43" viewBox="0 0 276 43" fill="none" xmlns="http://www.w3.org/2000/svg">
<g clip-path="url(#clip0_4_16070)">
<path d="M30 5.36805C29.1174 5.76905 28.1693 6.03999 27.1726 6.16246C28.1894 5.5382 28.9694 4.54763 29.3373 3.36848C28.386 3.94722 27.3322 4.36773 26.2107 4.59315C25.3123 3.61342 24.0333 3 22.6169 3C19.8984 3 17.6935 5.26076 17.6935 8.0504C17.6935 8.44489 17.7379 8.82855 17.8203 9.1992C13.7266 8.98786 10.1001 6.97746 7.6711 3.92338C7.2483 4.67118 7.0052 5.5382 7.0052 6.46158C7.0052 8.21296 7.8751 9.75951 9.19528 10.6645C8.38774 10.6374 7.62882 10.4109 6.96503 10.0326V10.0976C6.96503 12.5437 8.6615 14.5845 10.915 15.0483C10.5007 15.1632 10.0662 15.2239 9.61807 15.2239C9.30098 15.2239 8.99128 15.1936 8.69109 15.135C9.31789 17.14 11.1359 18.601 13.2911 18.64C11.6052 19.9947 9.48172 20.8021 7.17537 20.8021C6.77794 20.8021 6.3858 20.7783 6 20.7317C8.17951 22.1655 10.767 23 13.5469 23C22.6053 23 27.5573 15.3074 27.5573 8.63563C27.5573 8.41888 27.552 8.19996 27.5425 7.9832C28.5044 7.27008 29.3394 6.38246 29.9979 5.3713L30 5.36805Z" fill="#1E2330"/>
</g>
<g clip-path="url(#clip1_4_16070)">
<path fill-rule="evenodd" clip-rule="evenodd" d="M77.9998 1.53735C74.8864 1.53735 74.4966 1.55009 73.274 1.60613C72.0538 1.66217 71.2202 1.85576 70.4911 2.13914C69.7263 2.42694 69.0335 2.8781 68.4609 3.46117C67.878 4.03379 67.4268 4.72659 67.1389 5.49133C66.8555 6.22048 66.6613 7.05407 66.6059 8.27484C66.5505 9.49689 66.5371 9.88598 66.5371 13C66.5371 16.114 66.5498 16.5031 66.6059 17.7258C66.6619 18.9459 66.8555 19.7795 67.1389 20.5087C67.4267 21.2735 67.8779 21.9663 68.4609 22.5388C69.0977 23.1756 69.7377 23.5679 70.4911 23.8609C71.2202 24.1442 72.0538 24.3385 73.274 24.3939C74.4966 24.4493 74.8864 24.4626 77.9998 24.4626C81.1131 24.4626 81.5029 24.4499 82.7255 24.3939C83.9457 24.3378 84.7793 24.1442 85.5084 23.8609C86.2732 23.573 86.966 23.1219 87.5386 22.5388C88.1754 21.902 88.5677 21.262 88.8606 20.5087C89.144 19.7795 89.3382 18.9459 89.3936 17.7258C89.449 16.5031 89.4624 16.1134 89.4624 13C89.4624 9.88662 89.4497 9.49689 89.3936 8.27421C89.3376 7.05407 89.144 6.22048 88.8606 5.49133C88.5728 4.72653 88.1216 4.03371 87.5386 3.46117C86.966 2.87822 86.2732 2.42707 85.5084 2.13914C84.7793 1.85576 83.9457 1.66153 82.7249 1.60613C81.5029 1.55073 81.1138 1.53735 77.9998 1.53735ZM77.9992 16.8258C77.497 16.8258 76.9996 16.7269 76.5356 16.5347C76.0715 16.3425 75.6499 16.0607 75.2947 15.7056C74.9396 15.3504 74.6579 14.9288 74.4657 14.4648C74.2734 14.0007 74.1745 13.5034 74.1745 13.0011C74.1745 12.4988 74.2734 12.0015 74.4657 11.5375C74.6579 11.0734 74.9396 10.6518 75.2947 10.2966C75.6499 9.94149 76.0715 9.65976 76.5356 9.46755C76.9996 9.27534 77.497 9.17641 77.9992 9.17641C79.0136 9.17641 79.9864 9.57937 80.7037 10.2966C81.421 11.0139 81.8239 11.9867 81.8239 13.0011C81.8239 14.0155 81.421 14.9883 80.7037 15.7056C79.9864 16.4229 79.0136 16.8258 77.9992 16.8258ZM77.9992 7.10932C76.4366 7.10932 74.938 7.73006 73.8331 8.83498C72.7282 9.93991 72.1074 11.4385 72.1074 13.0011C72.1074 14.5637 72.7282 16.0623 73.8331 17.1672C74.938 18.2722 76.4366 18.8929 77.9992 18.8929C79.5618 18.8929 81.0604 18.2722 82.1654 17.1672C83.2703 16.0623 83.891 14.5637 83.891 13.0011C83.891 11.4385 83.2703 9.93991 82.1654 8.83498C81.0604 7.73006 79.5618 7.10932 77.9992 7.10932ZM85.6053 7.00233C85.6053 7.3717 85.4586 7.72594 85.1974 7.98713C84.9362 8.24831 84.582 8.39504 84.2126 8.39504C83.8432 8.39504 83.489 8.24831 83.2278 7.98713C82.9666 7.72594 82.8199 7.3717 82.8199 7.00233C82.8199 6.63296 82.9666 6.27872 83.2278 6.01753C83.489 5.75635 83.8432 5.60962 84.2126 5.60962C84.582 5.60962 84.9362 5.75635 85.1974 6.01753C85.4586 6.27872 85.6053 6.63296 85.6053 7.00233Z" fill="#1E2330"/>
</g>
<g clip-path="url(#clip2_4_16070)">
<path fill-rule="evenodd" clip-rule="evenodd" d="M149.164 3.59545C150.396 3.92727 151.364 4.89545 151.691 6.12273C152.287 8.35 152.287 13 152.287 13C152.287 13 152.287 17.65 151.691 19.8773C151.359 21.1091 150.391 22.0773 149.164 22.4045C146.937 23 138 23 138 23C138 23 129.068 23 126.837 22.4045C125.605 22.0727 124.637 21.1045 124.309 19.8773C123.714 17.65 123.714 13 123.714 13C123.714 13 123.714 8.35 124.309 6.12273C124.641 4.89091 125.609 3.92273 126.837 3.59545C129.068 3 138 3 138 3C138 3 146.937 3 149.164 3.59545ZM142.566 12.9993L135.144 17.2856V8.71289L142.566 12.9993Z" fill="#1E2330"/>
</g>
<g clip-path="url(#clip3_4_16070)">
<path d="M204.551 4.20342C203.612 3.12665 203.047 1.72263 203.047 0.187744H201.87C202.173 1.86542 203.172 3.30514 204.551 4.20342Z" fill="#1E2330"/>
<path d="M193.657 12.878C191.618 12.878 189.96 14.5378 189.96 16.5784C189.96 18.0003 190.768 19.2377 191.945 19.8564C191.505 19.2496 191.244 18.506 191.244 17.6968C191.244 15.6563 192.902 13.9964 194.941 13.9964C195.322 13.9964 195.69 14.0618 196.035 14.169V9.67142C195.678 9.62377 195.316 9.59399 194.941 9.59399C194.876 9.59399 194.816 9.59995 194.751 9.59995V13.0505C194.4 12.9434 194.038 12.878 193.657 12.878Z" fill="#1E2330"/>
<path d="M207.881 6.17993V9.6007C205.599 9.6007 203.483 8.869 201.759 7.63153V16.5851C201.759 21.0529 198.127 24.6939 193.657 24.6939C191.933 24.6939 190.328 24.1465 189.015 23.2244C190.495 24.8128 192.605 25.8123 194.941 25.8123C199.405 25.8123 203.043 22.1773 203.043 17.7035V8.74998C204.767 9.98745 206.883 10.7192 209.165 10.7192V6.31682C208.72 6.31682 208.292 6.26917 207.881 6.17993Z" fill="#1E2330"/>
<path d="M201.755 16.5837V7.63015C203.479 8.86762 205.595 9.59932 207.877 9.59932V6.17855C206.558 5.89901 205.399 5.18508 204.543 4.20342C203.164 3.30514 202.171 1.86542 201.856 0.187744H198.634L198.628 17.839C198.557 19.8141 196.928 21.4026 194.937 21.4026C193.701 21.4026 192.613 20.7898 191.935 19.8617C190.758 19.237 189.95 18.0056 189.95 16.5837C189.95 14.5432 191.608 12.8833 193.647 12.8833C194.027 12.8833 194.396 12.9487 194.741 13.0558V9.60528C190.366 9.70048 186.835 13.2938 186.835 17.7022C186.835 19.832 187.661 21.7714 189.011 23.223C190.324 24.1451 191.929 24.6925 193.653 24.6925C198.117 24.6925 201.755 21.0516 201.755 16.5837Z" fill="#1E2330"/>
</g>
<g clip-path="url(#clip4_4_16070)">
<mask id="mask0_4_16070" style="mask-type:luminance" maskUnits="userSpaceOnUse" x="240" y="0" width="36" height="26">
<path d="M276 0H240V26H276V0Z" fill="white"/>
</mask>
<g mask="url(#mask0_4_16070)">
<path d="M259.881 6.34047L264.219 1.88056L266.737 4.45942L262.187 8.79797H268.588V12.378H262.156L266.737 16.8278L264.219 19.3561L258 13.1062L251.78 19.3561L249.262 16.8379L253.843 12.3882H247.411V8.79797H253.813L249.262 4.45942L251.78 1.88056L256.119 6.34047V-0.000488281H259.881V6.34047ZM256.119 17.5054H259.881V26.0005H256.119V17.5054Z" fill="#1E2330"/>
</g>
</g>
<defs>
<clipPath id="clip0_4_16070">
<rect width="36" height="26" fill="white"/>
</clipPath>
<clipPath id="clip1_4_16070">
<rect width="36" height="26" fill="white" transform="translate(60)"/>
</clipPath>
<clipPath id="clip2_4_16070">
<rect width="36" height="26" fill="white" transform="translate(120)"/>
</clipPath>
<clipPath id="clip3_4_16070">
<rect width="36" height="26" fill="white" transform="translate(180)"/>
</clipPath>
<clipPath id="clip4_4_16070">
<rect width="36" height="26" fill="white" transform="translate(240)"/>
</clipPath>
</defs>
</svg>
