<svg width="177" height="37" viewBox="0 0 177 37" fill="none" xmlns="http://www.w3.org/2000/svg">
<g clip-path="url(#clip0_4_12918)">
<g clip-path="url(#clip1_4_12918)">
<path d="M40.7431 2.49468C41.193 3.35648 40.968 4.0822 40.6531 4.85328C40.1582 6.1233 40.2932 7.34796 41.193 8.39119C42.0929 9.47978 43.3527 9.61585 44.6575 9.3437C46.4572 8.93548 47.492 7.21189 47.2221 5.30686C47.0871 4.39971 46.5472 3.49255 47.0421 2.49468C46.5922 2.72147 46.5922 2.72147 46.0523 3.62862C45.5573 3.03897 45.1074 2.40396 44.5675 1.76895C44.1176 1.27002 43.6676 0.816441 43.9376 0C43.3977 0.272147 43.1277 0.635007 42.9477 1.08858C42.8128 1.54216 42.7228 1.99574 42.6328 2.44932C42.5428 2.9029 42.3178 3.31112 41.8679 3.58326C41.598 3.08433 41.328 2.72147 40.7431 2.49468Z" fill="#3D7FFC"/>
<path d="M2.4461 28.9267V8.00623L0 7.60004V5.66283L6.37845 4.85045L7.46216 4.69556V5.53785V12.6478C7.70987 12.3979 8.0195 12.1166 8.39106 11.8979C8.73166 11.648 9.13418 11.4292 9.53671 11.2418C9.97019 11.0543 10.4037 10.8981 10.8991 10.7731C11.3945 10.6481 11.9209 10.5856 12.4782 10.5856C13.469 10.5856 14.3979 10.7418 15.2649 11.0855C16.1319 11.4292 16.906 11.9604 17.5562 12.6791C18.2064 13.4289 18.7328 14.3663 19.1353 15.5536C19.5069 16.741 19.7236 18.147 19.7236 19.8655C19.7236 21.334 19.5069 22.6776 19.0734 23.9586C18.6399 25.2397 17.9897 26.3021 17.1537 27.2394C16.3177 28.1768 15.2959 28.8954 14.1193 29.4266C12.9117 29.9578 11.5803 30.239 10.0631 30.239C9.01033 30.239 8.05047 30.1765 7.15253 30.0827C6.28556 29.989 5.51147 29.864 4.86124 29.7078C4.21101 29.5516 3.68464 29.4266 3.28211 29.2704C2.87959 29.1141 2.56996 29.0204 2.4461 28.9267ZM10.4037 13.6164C9.72248 13.6164 9.13418 13.7414 8.63877 13.9914C8.14336 14.2413 7.74083 14.5225 7.46216 14.835V27.2082C7.61698 27.4581 7.89565 27.6769 8.32913 27.8018C8.76262 27.9581 9.289 28.0205 9.84634 28.0205C10.5895 28.0205 11.2397 27.8331 11.7661 27.4269C12.3234 27.0207 12.7569 26.4895 13.1285 25.8021C13.5 25.1147 13.7477 24.3023 13.9335 23.3962C14.1193 22.4901 14.2122 21.4903 14.2122 20.4592C14.2122 19.3968 14.1502 18.4282 13.9954 17.5533C13.8406 16.7097 13.6239 15.9911 13.2833 15.3974C12.9736 14.8037 12.5711 14.3663 12.0757 14.0539C11.6422 13.7726 11.0539 13.6164 10.4037 13.6164Z" fill="#3D7FFC"/>
<path d="M22.4268 29.682V27.4636L24.78 27.1511V14.4655L22.5506 13.7781V11.2784L28.124 10.4661H28.2169L29.0839 11.1847V12.5595L29.0529 15.1216H29.1148C29.2387 14.7779 29.4864 14.3405 29.827 13.8093C30.1676 13.2781 30.6011 12.747 31.0965 12.247C31.5919 11.7471 32.1802 11.3097 32.8304 10.966C33.4807 10.6223 34.1928 10.4348 34.9669 10.4348C35.3075 10.4348 35.5552 10.4348 35.741 10.4661C35.9268 10.4973 36.0816 10.5286 36.2054 10.5598V16.2777C36.0816 16.184 35.7719 16.0902 35.2765 15.9965C34.7811 15.9028 34.1619 15.8403 33.4807 15.8403C33.1091 15.8403 32.7066 15.8715 32.335 15.9028C31.9635 15.934 31.5919 15.9965 31.2513 16.0902C30.9107 16.1527 30.632 16.2465 30.3534 16.3402C30.0747 16.4339 29.8889 16.5277 29.7341 16.6214V27.1199L33.7903 27.526V29.682H22.4268Z" fill="#3D7FFC"/>
<path d="M39.6777 29.8642V27.6458L42.0619 27.3333V14.6477L39.8635 13.929V11.4606L45.8704 10.6483L47.1399 10.5217V11.3669V27.3021L49.4931 27.6458V29.8642H39.6777Z" fill="#3D7FFC"/>
<path d="M60.4105 23.7701C59.4808 23.7701 58.6153 23.705 57.8459 23.5749C57.6535 23.7701 57.4932 23.9977 57.365 24.2579C57.2368 24.5181 57.1727 24.8109 57.1727 25.1686C57.1727 25.5589 57.2368 25.8842 57.3971 26.1444C57.5574 26.3721 57.7818 26.5672 58.1023 26.6973C58.4229 26.8274 58.8076 26.925 59.3205 26.9575C59.8335 26.99 60.4105 27.0226 61.0837 27.0226H64.4498C66.8862 27.0226 68.6814 27.4454 69.8996 28.2585C71.0858 29.1042 71.6949 30.4702 71.6949 32.3567C71.6949 33.495 71.4063 34.5684 70.7972 35.5116C70.2202 36.4548 69.4188 37.2354 68.3929 37.9184C67.3991 38.5689 66.213 39.0893 64.8986 39.4471C63.5842 39.8049 62.2057 40 60.7631 40H60.7311C59.1282 40 57.7818 39.8699 56.6597 39.5772C55.5377 39.2845 54.608 38.8942 53.8707 38.4063C53.1334 37.9184 52.6205 37.3005 52.2678 36.6174C51.9152 35.9344 51.7549 35.1538 51.7549 34.3407C51.7549 33.8203 51.8511 33.3324 52.0434 32.8445C52.2358 32.3892 52.4922 31.9664 52.8128 31.5761C53.1334 31.1858 53.486 30.8605 53.9348 30.5678C54.3516 30.2751 54.8004 30.0474 55.2492 29.8848C54.608 29.527 54.0951 29.1042 53.7425 28.5838C53.3898 28.0634 53.2296 27.4454 53.2296 26.7298C53.2296 25.8517 53.454 25.1361 53.9028 24.5181C54.3516 23.9327 54.9286 23.3798 55.6339 22.9244C54.4798 22.404 53.6463 21.6559 53.1013 20.6802C52.5563 19.7044 52.2678 18.5661 52.2678 17.2651C52.2678 16.2243 52.4922 15.3136 52.941 14.4679C53.3898 13.6223 54.031 12.9067 54.8004 12.3213C55.6018 11.7358 56.4995 11.2805 57.5574 10.9552C58.6153 10.63 59.7373 10.4673 60.9234 10.4673H60.9555C63.7766 10.4673 65.8603 11.0203 67.2388 12.1261C67.3991 11.931 67.6235 11.7358 67.88 11.5407C68.1364 11.3455 68.457 11.1504 68.8097 10.9877C69.1623 10.8251 69.547 10.695 69.9637 10.5974C70.3805 10.4999 70.8293 10.4348 71.3102 10.4348H72.1116V14.2728H68.7776C68.9058 14.6305 69.002 15.0208 69.0661 15.4111C69.1302 15.8014 69.1623 16.2568 69.1623 16.7121C69.1623 17.7529 68.9379 18.6962 68.5211 19.5418C68.1044 20.3875 67.4953 21.1355 66.7259 21.786C65.9565 22.404 65.0268 22.8919 63.9689 23.2497C62.879 23.6074 61.7249 23.7701 60.4105 23.7701ZM59.5449 30.6979C58.8076 30.6979 58.1344 30.6328 57.5253 30.5353C57.3009 30.7955 57.0765 31.1207 56.8841 31.511C56.6918 31.9013 56.5956 32.4868 56.5956 33.1698C56.5956 33.9504 56.6918 34.6009 56.8841 35.1213C57.0765 35.6417 57.3971 36.097 57.7818 36.4223C58.1665 36.7475 58.6794 37.0077 59.2564 37.1378C59.8335 37.3005 60.5067 37.3655 61.2761 37.3655H61.3081C61.9813 37.3655 62.6546 37.3005 63.3278 37.1378C63.9689 36.9752 64.578 36.7475 65.091 36.4223C65.6039 36.097 66.0206 35.6742 66.3091 35.1863C66.6297 34.6985 66.79 34.113 66.79 33.4625C66.79 32.9746 66.7259 32.5193 66.6297 32.1615C66.5336 31.8037 66.3412 31.511 66.0527 31.2833C65.7642 31.0557 65.4115 30.893 64.9307 30.7955C64.4498 30.6979 63.8407 30.6328 63.1034 30.6328H59.5449V30.6979ZM60.8273 21.4933C61.4043 21.4933 61.8852 21.3632 62.2699 21.1355C62.6546 20.9079 62.9431 20.5826 63.1675 20.1923C63.3919 19.802 63.5201 19.3141 63.6163 18.7612C63.7125 18.2083 63.7445 17.6228 63.7445 17.0374C63.7445 15.5412 63.5201 14.4354 63.0393 13.7524C62.5584 13.0693 61.789 12.7441 60.667 12.7441H60.6349C59.577 12.7441 58.8076 13.1019 58.3268 13.7849C57.8459 14.4679 57.5894 15.4762 57.5894 16.8748C57.5894 17.5578 57.6535 18.1758 57.7497 18.7287C57.8459 19.2816 58.0382 19.7695 58.2626 20.1923C58.5191 20.5826 58.8397 20.9079 59.2564 21.1355C59.6732 21.3632 60.1861 21.4933 60.8273 21.4933Z" fill="#3D7FFC"/>
<path d="M73.9247 29.8643V27.6459L75.9373 27.3022V7.82619L73.4912 7.42V5.48279L79.8387 4.67041L80.2077 4.60791H80.8977L80.9534 10.6796L80.8977 13.0437C81.1764 12.7625 81.3559 12.7418 81.8204 12.4294C82.2848 12.1169 82.7493 11.8357 83.3066 11.5857C83.8639 11.3358 84.4832 11.1171 85.1334 10.9296C85.7837 10.7734 86.4958 10.6796 87.208 10.6796C88.2607 10.6796 89.1587 10.8359 89.8399 11.1171C90.5211 11.3983 91.0784 11.867 91.5119 12.4919C91.9454 13.1168 92.1931 13.8979 92.3789 14.8353C92.5337 15.7726 92.6266 16.8975 92.6266 18.1785V27.3022L94.9179 27.6459V29.8643H85.7837V27.7084L87.6105 27.3334V18.1473C87.6105 17.3974 87.5795 16.7412 87.4866 16.1788C87.4247 15.6164 87.2699 15.179 87.0532 14.804C86.8364 14.4291 86.5577 14.1791 86.1862 14.0229C85.8146 13.8667 85.3192 13.7729 84.7309 13.7729C84.3903 13.7729 84.0497 13.8042 83.6782 13.8979C83.3066 13.9916 82.966 14.0854 82.6564 14.1791C82.3158 14.3041 82.0061 14.4291 81.7275 14.5853C81.4488 14.7415 81.2011 14.8978 80.9843 15.054V27.3334L83.2137 27.6771V29.8956H73.9247V29.8643Z" fill="#3D7FFC"/>
<path d="M98.555 26.0393V13.9161H96.2637V12.0414C96.3566 12.0101 96.4804 11.9789 96.6662 11.9164C96.852 11.8539 97.0378 11.7602 97.2545 11.6977C97.4403 11.6352 97.6261 11.5415 97.8119 11.479C97.9976 11.4165 98.0905 11.354 98.1215 11.3227C98.493 11.0415 98.8646 10.5104 99.2671 9.72923C99.391 9.51051 99.4839 9.26054 99.6387 8.94809C99.7935 8.63564 99.8864 8.35443 100.01 8.04197C100.134 7.72952 100.257 7.41707 100.35 7.10461C100.474 6.79216 100.536 6.51095 100.629 6.26099H103.54L103.601 11.1353H108.401V13.9474H103.601V23.071C103.601 23.9459 103.601 24.6333 103.632 25.1644C103.663 25.6956 103.725 26.0706 103.818 26.3205C103.911 26.5705 104.097 26.758 104.314 26.8205C104.53 26.8829 104.84 26.9454 105.212 26.9454H105.243C105.49 26.9454 105.769 26.9142 106.079 26.8829C106.357 26.8517 106.636 26.7892 106.915 26.7267C107.193 26.6642 107.441 26.6017 107.689 26.5392C107.936 26.4768 108.122 26.4143 108.277 26.3518H108.308L109.082 28.289C108.741 28.539 108.37 28.7889 107.874 29.0389C107.379 29.2888 106.884 29.5076 106.295 29.7263C105.707 29.945 105.119 30.1012 104.468 30.2262C103.818 30.3512 103.199 30.4137 102.549 30.4137H102.518C101.806 30.4137 101.186 30.3199 100.691 30.1325C100.196 29.945 99.7625 29.6638 99.4529 29.2888C99.1433 28.9139 98.9265 28.4765 98.7717 27.914C98.6169 27.3516 98.555 26.758 98.555 26.0393Z" fill="#3D7FFC"/>
<path d="M123.237 30.3369C122.277 30.3369 121.348 30.1495 120.45 29.7745C119.552 29.3996 118.778 28.8059 118.128 28.056C117.447 27.2749 116.921 26.3063 116.518 25.1502C116.115 23.9941 115.93 22.6193 115.93 21.0258C115.93 19.5573 116.146 18.2137 116.58 16.9639C117.013 15.7141 117.664 14.6205 118.469 13.6832C119.305 12.7458 120.296 12.0271 121.472 11.496C122.649 10.9648 123.98 10.7148 125.466 10.7148C125.993 10.7148 126.488 10.7461 127.015 10.8086C127.51 10.8711 128.005 10.9336 128.47 11.0273V7.56082L125.25 7.24837V5.6861L131.257 4.96745H131.349L132.154 4.86963V27.9935H134.105V29.7433C133.641 29.8683 133.114 29.9932 132.495 30.1495C131.876 30.3057 131.226 30.3682 130.544 30.3682C130.266 30.3682 129.987 30.3369 129.77 30.3057C129.554 30.2745 129.368 30.1807 129.213 30.0557C129.058 29.9308 128.934 29.7433 128.872 29.5246C128.81 29.3058 128.749 28.9934 128.749 28.6184V27.8998C128.47 28.2123 128.129 28.4935 127.758 28.8059C127.386 29.1184 126.984 29.3683 126.519 29.5871C126.055 29.8058 125.559 29.9932 125.002 30.1495C124.476 30.2432 123.887 30.3369 123.237 30.3369ZM124.754 27.8061C125.188 27.8061 125.59 27.7436 125.993 27.6498C126.364 27.5249 126.736 27.3999 127.046 27.2437C127.355 27.0874 127.634 26.9 127.882 26.7125C128.129 26.525 128.346 26.3375 128.501 26.1501V13.5894C128.439 13.4644 128.284 13.3395 128.098 13.2145C127.882 13.0895 127.665 12.9645 127.355 12.8708C127.076 12.777 126.736 12.6833 126.395 12.6521C126.055 12.5896 125.683 12.5583 125.281 12.5583C124.537 12.5583 123.856 12.6833 123.237 12.9645C122.587 13.2457 122.029 13.6832 121.534 14.3081C121.039 14.933 120.667 15.7453 120.388 16.7452C120.11 17.7451 119.955 18.9636 119.924 20.4009C119.893 21.682 120.017 22.8068 120.265 23.7442C120.512 24.6815 120.853 25.4314 121.286 26.0563C121.72 26.65 122.246 27.1187 122.835 27.3999C123.423 27.6498 124.073 27.8061 124.754 27.8061Z" fill="#9FC0FF"/>
<path d="M134.562 25.0931C134.562 24.312 134.716 23.5933 134.995 22.9684C135.274 22.3435 135.676 21.8123 136.203 21.3124C136.729 20.8437 137.317 20.4375 137.998 20.0938C138.68 19.7501 139.423 19.5002 140.228 19.2815C141.033 19.0627 141.869 18.9065 142.736 18.8128C143.603 18.719 144.47 18.6566 145.306 18.6253V17.7504C145.306 16.9693 145.244 16.3131 145.151 15.782C145.027 15.2508 144.841 14.8134 144.594 14.4697C144.315 14.126 143.974 13.876 143.51 13.751C143.076 13.5948 142.488 13.5323 141.807 13.5323C141.219 13.5323 140.63 13.5948 140.042 13.6885C139.454 13.8135 138.896 13.9385 138.339 14.0947C137.813 14.251 137.317 14.4384 136.853 14.5947C136.388 14.7821 136.017 14.9384 135.707 15.0946H135.676L134.933 13.5011C135.15 13.3136 135.49 13.0636 136.017 12.7512C136.543 12.4387 137.162 12.1575 137.875 11.8451C138.587 11.5638 139.361 11.3139 140.166 11.0952C141.002 10.8765 141.807 10.7827 142.612 10.7827C143.758 10.7827 144.717 10.9077 145.523 11.1264C146.297 11.3764 146.947 11.7513 147.442 12.2512C147.938 12.7824 148.278 13.4386 148.495 14.2822C148.712 15.1258 148.805 16.1257 148.805 17.3442V28.2176H150.817V29.8112C150.601 29.8736 150.353 29.9361 150.074 29.9986C149.795 30.0611 149.486 30.1236 149.176 30.1861C148.867 30.2486 148.526 30.3111 148.216 30.3423C147.907 30.3736 147.566 30.4048 147.287 30.4048C146.978 30.4048 146.73 30.4048 146.482 30.3736C146.266 30.3423 146.08 30.2798 145.925 30.1549C145.77 30.0299 145.677 29.8736 145.615 29.6237C145.554 29.405 145.523 29.0925 145.523 28.6863V28.0614C145.368 28.1864 145.151 28.3739 144.841 28.6551C144.532 28.905 144.129 29.1862 143.665 29.4362C143.2 29.6862 142.674 29.9361 142.055 30.1236C141.466 30.3111 140.816 30.4048 140.135 30.4048C139.392 30.4048 138.68 30.3111 137.998 30.0924C137.317 29.8736 136.729 29.5612 136.203 29.155C135.676 28.7176 135.274 28.1864 134.964 27.499C134.654 26.8116 134.562 26.0305 134.562 25.0931ZM141.59 27.9052C141.807 27.9052 142.086 27.8739 142.395 27.8115C142.705 27.749 143.045 27.6552 143.386 27.5615C143.727 27.4365 144.067 27.3115 144.377 27.1553C144.718 26.9991 144.996 26.8116 145.275 26.6241V20.5C143.974 20.5 142.891 20.625 141.993 20.8437C141.126 21.0624 140.414 21.3749 139.887 21.7498C139.361 22.1248 138.989 22.5622 138.773 23.0622C138.556 23.5621 138.432 24.062 138.432 24.5932C138.432 25.1868 138.525 25.718 138.68 26.1242C138.834 26.5304 139.051 26.8741 139.33 27.1553C139.609 27.4053 139.949 27.624 140.321 27.7177C140.754 27.8427 141.157 27.9052 141.59 27.9052Z" fill="#9FC0FF"/>
<path d="M151.751 26.1331V13.2287H149.397V11.6664C149.738 11.5415 150.079 11.4477 150.388 11.3227C150.729 11.1978 150.977 11.104 151.1 10.979C151.472 10.7291 151.751 10.3229 152.029 9.72923C152.122 9.54175 152.215 9.26054 152.37 8.94809C152.494 8.63564 152.618 8.29194 152.742 7.94824C152.865 7.60454 152.989 7.29208 153.082 6.97963C153.175 6.66718 153.268 6.41721 153.299 6.26099H155.404V10.8228H160.885V13.2287H155.404V23.1335C155.404 24.1021 155.404 24.8832 155.435 25.4457C155.466 26.0081 155.528 26.4143 155.652 26.6642C155.776 26.9142 155.962 27.1017 156.209 27.1642C156.457 27.2266 156.798 27.2579 157.231 27.2579H157.262C157.572 27.2579 157.912 27.2266 158.253 27.1954C158.594 27.1642 158.934 27.1017 159.244 27.0392C159.584 26.9767 159.863 26.9142 160.142 26.8517C160.42 26.7892 160.637 26.7267 160.792 26.633H160.823L161.38 28.2577C161.133 28.4452 160.761 28.6639 160.297 28.8827C159.832 29.1014 159.337 29.2888 158.81 29.4763C158.284 29.6638 157.727 29.7888 157.138 29.9137C156.55 30.0387 156.024 30.1012 155.497 30.1012H155.466C154.878 30.1012 154.383 30.0387 153.918 29.9137C153.454 29.7888 153.082 29.57 152.742 29.2576C152.432 28.9451 152.184 28.5389 151.998 28.039C151.844 27.4766 151.751 26.8517 151.751 26.1331Z" fill="#9FC0FF"/>
<path d="M161.474 24.7452C161.474 23.9641 161.628 23.2454 161.907 22.6205C162.186 21.9956 162.588 21.4644 163.115 20.9645C163.641 20.4958 164.229 20.0896 164.911 19.7459C165.592 19.4022 166.335 19.1523 167.14 18.9336C167.945 18.7148 168.781 18.5586 169.648 18.4649C170.515 18.3711 171.382 18.3087 172.218 18.2774V17.4025C172.218 16.6214 172.156 15.9652 172.063 15.4341C171.939 14.9029 171.753 14.4655 171.506 14.1218C171.227 13.7781 170.886 13.5281 170.422 13.4031C169.989 13.2469 169.4 13.1844 168.719 13.1844C168.131 13.1844 167.542 13.2469 166.954 13.3406C166.366 13.4656 165.808 13.5906 165.251 13.7468C164.725 13.9031 164.229 14.0905 163.765 14.2468C163.3 14.4342 162.929 14.5905 162.619 14.7467H162.588L161.845 13.1532C162.062 12.9657 162.403 12.7157 162.929 12.4033C163.455 12.0908 164.075 11.8096 164.787 11.4972C165.499 11.2159 166.273 10.966 167.078 10.7473C167.914 10.5286 168.719 10.4348 169.524 10.4348C170.67 10.4348 171.63 10.5598 172.435 10.7785C173.209 11.0285 173.859 11.4034 174.354 11.9033C174.85 12.4345 175.19 13.0907 175.407 13.9343C175.624 14.7779 175.717 15.7778 175.717 16.9963V27.8697H177.729V29.4633C177.513 29.5257 177.265 29.5882 176.986 29.6507C176.708 29.7132 176.398 29.7757 176.088 29.8382C175.779 29.9007 175.438 29.9632 175.128 29.9944C174.819 30.0257 174.478 30.0569 174.2 30.0569C173.89 30.0569 173.642 30.0569 173.394 30.0257C173.178 29.9944 172.992 29.9319 172.837 29.807C172.682 29.682 172.589 29.5257 172.528 29.2758C172.466 29.0571 172.435 28.7446 172.435 28.3384V27.7135C172.28 27.8385 172.063 28.026 171.753 28.3072C171.444 28.5571 171.041 28.8384 170.577 29.0883C170.112 29.3383 169.586 29.5882 168.967 29.7757C168.378 29.9632 167.728 30.0569 167.047 30.0569C166.304 30.0569 165.592 29.9632 164.911 29.7445C164.229 29.5257 163.641 29.2133 163.115 28.8071C162.588 28.3697 162.186 27.8385 161.876 27.1511C161.567 26.4637 161.474 25.6826 161.474 24.7452ZM168.533 27.5573C168.75 27.5573 169.029 27.526 169.338 27.4636C169.648 27.4011 169.989 27.3073 170.329 27.2136C170.67 27.0886 171.01 26.9636 171.32 26.8074C171.661 26.6512 171.939 26.4637 172.218 26.2762V20.1521C170.917 20.1521 169.834 20.2771 168.936 20.4958C168.069 20.7145 167.357 21.027 166.83 21.4019C166.304 21.7769 165.932 22.2143 165.716 22.7143C165.499 23.2142 165.375 23.7141 165.375 24.2453C165.375 24.8389 165.468 25.3701 165.623 25.7763C165.778 26.1825 165.994 26.5262 166.273 26.8074C166.552 27.0574 166.892 27.2761 167.264 27.3698C167.697 27.4948 168.1 27.5573 168.533 27.5573Z" fill="#9FC0FF"/>
</g>
</g>
<defs>
<clipPath id="clip0_4_12918">
<rect width="177" height="37" fill="white"/>
</clipPath>
<clipPath id="clip1_4_12918">
<rect width="177" height="40" fill="white"/>
</clipPath>
</defs>
</svg>
