<svg width="40" height="40" viewBox="0 0 40 40" fill="none" xmlns="http://www.w3.org/2000/svg">
<rect width="40" height="40" rx="20" fill="#FFE5F8"/>
<g clip-path="url(#clip0_4_15391)">
<path d="M26 26.8598H25.24C24.44 26.8598 23.68 27.1698 23.12 27.7298L21.41 29.4198C20.63 30.1898 19.36 30.1898 18.58 29.4198L16.87 27.7298C16.31 27.1698 15.54 26.8598 14.75 26.8598H14C12.34 26.8598 11 25.5298 11 23.8898V12.9798C11 11.3398 12.34 10.0098 14 10.0098H26C27.66 10.0098 29 11.3398 29 12.9798V23.8898C29 25.5198 27.66 26.8598 26 26.8598Z" stroke="#FF4ECD" stroke-width="1.5" stroke-miterlimit="10" stroke-linecap="round" stroke-linejoin="round"/>
<path d="M24 23.6598C24 21.8598 22.21 20.3998 20 20.3998C17.79 20.3998 16 21.8598 16 23.6598M20 17.9998C20.306 17.9998 20.609 17.9396 20.8917 17.8225C21.1743 17.7054 21.4312 17.5338 21.6476 17.3174C21.8639 17.101 22.0355 16.8442 22.1526 16.5615C22.2697 16.2788 22.33 15.9758 22.33 15.6698C22.33 15.3639 22.2697 15.0609 22.1526 14.7782C22.0355 14.4955 21.8639 14.2386 21.6476 14.0223C21.4312 13.8059 21.1743 13.6343 20.8917 13.5172C20.609 13.4001 20.306 13.3398 20 13.3398C19.382 13.3398 18.7894 13.5853 18.3524 14.0223C17.9155 14.4592 17.67 15.0519 17.67 15.6698C17.67 16.2878 17.9155 16.8804 18.3524 17.3174C18.7894 17.7544 19.382 17.9998 20 17.9998Z" stroke="#FF4ECD" stroke-width="1.5" stroke-linecap="round" stroke-linejoin="round"/>
</g>
<defs>
<clipPath id="clip0_4_15391">
<rect width="24" height="24" fill="white" transform="translate(8 8)"/>
</clipPath>
</defs>
</svg>
