<svg width="56" height="56" viewBox="0 0 56 56" fill="none" xmlns="http://www.w3.org/2000/svg">
<g clip-path="url(#clip0_4_15951)">
<g clip-path="url(#clip1_4_15951)">
<g clip-path="url(#clip2_4_15951)">
<path d="M0 9.33333C0 4.17867 4.17867 0 9.33333 0H46.6667C51.8214 0 56 4.17867 56 9.33333V46.6667C56 51.8214 51.8214 56 46.6667 56H9.33333C4.17867 56 0 51.8214 0 46.6667V9.33333Z" fill="#2C1799"/>
<path fill-rule="evenodd" clip-rule="evenodd" d="M36.1667 16.9138H19.8333C18.2225 16.9138 16.9167 18.2197 16.9167 19.8305V36.1638C16.9167 37.7746 18.2225 39.0805 19.8333 39.0805H36.1667C37.7775 39.0805 39.0833 37.7746 39.0833 36.1638V19.8305C39.0833 18.2197 37.7775 16.9138 36.1667 16.9138ZM19.8333 15.1638C17.256 15.1638 15.1667 17.2532 15.1667 19.8305V36.1638C15.1667 38.7411 17.256 40.8305 19.8333 40.8305H36.1667C38.7439 40.8305 40.8333 38.7411 40.8333 36.1638V19.8305C40.8333 17.2532 38.7439 15.1638 36.1667 15.1638H19.8333Z" fill="white"/>
<path fill-rule="evenodd" clip-rule="evenodd" d="M19.8333 27.997C19.8333 27.3526 20.3557 26.8303 21 26.8303H35C35.6444 26.8303 36.1667 27.3526 36.1667 27.997C36.1667 28.6413 35.6444 29.1637 35 29.1637H21C20.3557 29.1637 19.8333 28.6413 19.8333 27.997Z" fill="white"/>
<path fill-rule="evenodd" clip-rule="evenodd" d="M19.8333 23.3305C19.8333 22.6861 20.3557 22.1638 21 22.1638H35C35.6444 22.1638 36.1667 22.6861 36.1667 23.3305C36.1667 23.9748 35.6444 24.4972 35 24.4972H21C20.3557 24.4972 19.8333 23.9748 19.8333 23.3305Z" fill="white"/>
<path fill-rule="evenodd" clip-rule="evenodd" d="M19.8333 32.6637C19.8333 32.0194 20.3557 31.4971 21 31.4971H25.6667C26.311 31.4971 26.8333 32.0194 26.8333 32.6637C26.8333 33.3081 26.311 33.8304 25.6667 33.8304H21C20.3557 33.8304 19.8333 33.3081 19.8333 32.6637Z" fill="white"/>
</g>
</g>
</g>
<defs>
<clipPath id="clip0_4_15951">
<rect width="56" height="56" rx="10" fill="white"/>
</clipPath>
<clipPath id="clip1_4_15951">
<rect width="56" height="56" fill="white"/>
</clipPath>
<clipPath id="clip2_4_15951">
<rect width="56" height="56" fill="white"/>
</clipPath>
</defs>
</svg>
