<svg width="56" height="56" viewBox="0 0 56 56" fill="none" xmlns="http://www.w3.org/2000/svg">
<g clip-path="url(#clip0_4_15772)">
<g clip-path="url(#clip1_4_15772)">
<g clip-path="url(#clip2_4_15772)">
<path d="M0 9.33333C0 4.17867 4.17867 0 9.33333 0H46.6667C51.8214 0 56 4.17867 56 9.33333V46.6667C56 51.8214 51.8214 56 46.6667 56H9.33333C4.17867 56 0 51.8214 0 46.6667V9.33333Z" fill="black"/>
<path d="M17.6823 43.2133C17.5899 43.1793 17.4286 43.0974 17.3237 43.0312C17.0905 42.8841 13.8563 39.6729 13.6414 39.375C13.3561 38.9798 13.2645 38.6457 13.35 38.3122C13.4188 38.0441 13.5511 37.8458 13.8432 37.573C14.1051 37.3283 14.1139 37.3225 17.2341 35.3207C20.7222 33.083 21.2263 32.7835 21.7133 32.6598C21.9928 32.5889 22.3341 32.6099 22.5489 32.7114C22.771 32.8164 23.7608 33.8056 23.8656 34.0275C23.9581 34.2235 23.987 34.5639 23.9312 34.8029C23.812 35.3142 23.5748 35.7158 21.334 39.2001C20.6709 40.2313 19.9912 41.295 19.8236 41.564C19.1661 42.6199 18.863 42.9867 18.5023 43.1631C18.2589 43.2822 17.9254 43.3026 17.6823 43.2133ZM34.7341 23.326C34.5029 23.2461 34.274 23.0613 33.7989 22.5709C33.5319 22.2953 33.3656 22.0945 33.3094 21.9793C33.2059 21.7673 33.1701 21.4702 33.2201 21.2369C33.3331 20.7107 33.5575 20.3271 35.7496 16.9142C36.4868 15.7665 37.2581 14.5586 37.4636 14.23C37.6692 13.9013 37.9293 13.5174 38.0414 13.3767C38.6667 12.5927 39.3036 12.5185 40.0709 13.1402C40.2054 13.2492 41.0135 14.0403 41.8666 14.898C43.4546 16.4948 43.633 16.6984 43.7744 17.0765C43.8695 17.3307 43.857 17.6541 43.7431 17.887C43.5517 18.2782 43.1958 18.5846 42.2011 19.2141C41.8813 19.4165 40.7988 20.1099 39.7956 20.7549C37.0789 22.5014 36.2638 23.0048 35.8472 23.1937C35.4258 23.3848 35.0378 23.4309 34.7341 23.326Z" fill="#D437FD"/>
<path d="M26.166 46.6303C25.4704 46.5291 25.0822 46.1741 25.0058 45.5697C24.9604 45.2091 25.0236 44.7792 25.3167 43.455C25.4675 42.7736 25.7097 41.6657 25.8548 40.9932C26.7905 36.6573 26.9154 36.229 27.3643 35.8235C27.6399 35.5743 27.7612 35.5482 28.6385 35.5482C29.1941 35.5482 29.4388 35.5603 29.5493 35.5936C29.7661 35.6589 30.0049 35.8474 30.1547 36.0718C30.4566 36.524 30.5728 36.9716 31.5115 41.303C31.7369 42.3432 31.986 43.4729 32.065 43.8137C32.144 44.1543 32.2321 44.5579 32.2607 44.7104C32.3225 45.0397 32.3314 45.5869 32.2782 45.7887C32.1942 46.1071 31.9839 46.35 31.6669 46.4951C31.3144 46.6565 31.1693 46.6645 28.675 46.6615C27.4018 46.66 26.2727 46.646 26.166 46.6303ZM21.8442 23.3656C21.3218 23.2661 20.8837 23.0104 17.475 20.8161C16.5695 20.2332 15.491 19.5444 15.0786 19.2857C13.9204 18.5591 13.5955 18.2907 13.4001 17.8998C13.2188 17.5369 13.2753 17.1089 13.5605 16.685C13.6961 16.4836 16.8645 13.2969 17.1327 13.0923C17.7161 12.6472 18.2251 12.6108 18.7113 12.9794C18.9911 13.1915 19.2767 13.5501 19.7072 14.2303C19.9038 14.5407 20.6019 15.6311 21.2586 16.6532C23.5077 20.154 23.7399 20.5422 23.8995 21.0675C23.9959 21.385 23.9798 21.7311 23.8575 21.9679C23.7343 22.2065 22.729 23.1961 22.5125 23.2919C22.3533 23.3622 22.0197 23.3991 21.8442 23.3656Z" fill="#01F0E5"/>
<path d="M38.6782 43.1445C38.2737 42.9424 38.0022 42.6238 37.331 41.5638C37.0926 41.1872 36.3724 40.0623 35.7303 39.064C34.4843 37.1261 33.9338 36.2508 33.6318 35.7274C33.175 34.9351 33.0849 34.4323 33.3206 33.9902C33.4597 33.7293 34.3694 32.8254 34.6096 32.7095C34.8455 32.5957 35.2001 32.5835 35.5123 32.6783C36.0155 32.8312 36.3832 33.0518 39.8592 35.2858C40.8813 35.9428 41.9726 36.6396 42.2841 36.8343C42.5956 37.0291 42.9624 37.2714 43.0992 37.373C43.9286 37.9885 44.0722 38.613 43.5508 39.3359C43.3651 39.5933 40.114 42.8357 39.8925 42.9843C39.4681 43.2692 39.0405 43.3256 38.6782 43.1445ZM10.789 31.6234C10.2985 31.4911 10.0319 31.1204 9.94186 30.4453C9.91893 30.2732 9.91124 29.3847 9.9193 27.8368C9.93281 25.2422 9.92634 25.3253 10.1479 24.9081C10.317 24.5896 10.5812 24.421 11.0033 24.3622C11.3147 24.3189 11.7132 24.3614 12.3889 24.5097C12.667 24.5707 13.9434 24.8494 15.2257 25.1291C17.8704 25.7057 19.1367 25.9934 19.5527 26.1121C20.3652 26.3436 20.7544 26.593 20.9445 27.0038C21.0087 27.1426 21.0132 27.2067 21.0132 27.9999V28.8476L20.9231 29.031C20.7521 29.3792 20.3713 29.6449 19.7896 29.8217C19.268 29.9803 18.2882 30.205 15.2909 30.8533C14.3674 31.053 13.2376 31.302 12.7802 31.4065C12.3229 31.5111 11.8433 31.6127 11.7144 31.6323C11.4106 31.6785 10.9779 31.6743 10.789 31.6234ZM27.7086 20.4073C27.2456 20.2379 26.9964 19.9167 26.7729 19.2015C26.6427 18.7848 26.3189 17.3808 25.8057 15.0066C25.5789 13.9574 25.3002 12.6883 25.1863 12.1862C24.9583 11.1809 24.8961 10.7638 24.929 10.4622C24.9909 9.89621 25.2747 9.57426 25.8574 9.40895C26.0519 9.35377 26.2452 9.34949 28.5451 9.34949C31.2361 9.34949 31.2272 9.34896 31.6154 9.5324C31.8644 9.65001 32.0877 9.88857 32.1701 10.1248C32.2172 10.2597 32.2291 10.3898 32.2272 10.7515C32.2252 11.153 32.2107 11.2709 32.1071 11.7297C32.0424 12.0167 31.7619 13.2931 31.484 14.5664C30.5261 18.9537 30.45 19.26 30.1975 19.7468C30.0565 20.0188 29.8402 20.247 29.621 20.3551C29.4625 20.4331 29.4355 20.4356 28.6428 20.4431C28.0272 20.449 27.7985 20.4402 27.7086 20.4073Z" fill="#F8005B"/>
</g>
</g>
</g>
<defs>
<clipPath id="clip0_4_15772">
<rect width="56" height="56" rx="10" fill="white"/>
</clipPath>
<clipPath id="clip1_4_15772">
<rect width="56" height="56" fill="white"/>
</clipPath>
<clipPath id="clip2_4_15772">
<rect width="56" height="56" fill="white"/>
</clipPath>
</defs>
</svg>
