<svg width="80" height="80" viewBox="0 0 80 80" fill="none" xmlns="http://www.w3.org/2000/svg">
<g clip-path="url(#clip0_4_11721)">
<path opacity="0.35" d="M40 80C62.0914 80 80 62.0914 80 40C80 17.9086 62.0914 0 40 0C17.9086 0 0 17.9086 0 40C0 62.0914 17.9086 80 40 80Z" fill="#15C1E6"/>
<path d="M39.7933 63.1413C52.043 63.1413 61.9733 53.2109 61.9733 40.9613C61.9733 28.7116 52.043 18.7812 39.7933 18.7812C27.5436 18.7812 17.6133 28.7116 17.6133 40.9613C17.6133 53.2109 27.5436 63.1413 39.7933 63.1413Z" fill="white"/>
<path d="M61.8601 43.9139C60.4507 54.7867 51.1143 63.1989 39.8302 63.1989C27.5758 63.2012 17.6133 53.2387 17.6133 40.9866C17.6133 40.0578 17.6803 39.1267 17.812 38.2302C17.8605 37.8375 17.946 37.4586 18.013 37.0727C20.2841 37.9946 22.7563 39.233 23.8491 41.1691C24.8611 42.9296 24.4128 44.9882 24.5607 46.8804C24.6739 48.5416 25.3486 50.1012 26.0971 51.5637C26.848 52.9591 29.4334 57.9058 31.76 56.977C33.0353 56.4779 33.2225 55.5815 33.5967 54.4193C34.1605 52.5594 35.7339 51.0646 36.5587 49.2717C37.1594 48.1096 37.5337 46.2173 36.5587 45.1199C35.8841 44.2905 34.7219 44.1911 33.7099 43.9578C32.5478 43.6921 31.5358 43.26 30.5609 42.6963C26.5869 40.4043 24.9743 35.9545 28.9112 32.9001C30.3367 31.805 31.6491 30.3771 31.686 28.5172C31.7207 26.4425 29.4796 24.0812 27.6497 22.4824C28.895 21.6345 30.1958 20.8859 31.5936 20.3314C31.7068 20.2852 31.8293 20.2529 31.9425 20.209C33.5829 21.1378 35.9718 21.2094 36.3739 22.0989C36.8729 23.2911 34.9137 24.8252 37.1386 25.3543C39.3959 25.9111 41.6208 22.7874 44.5435 22.2583C46.0545 21.9695 46.9879 21.0916 47.6487 20.2691C47.7157 20.2945 47.9259 20.3569 47.9953 20.3846C49.802 21.0846 51.4609 21.9926 53.0112 23.1571C51.3477 24.0697 52.1406 25.2899 50.9438 26.08C47.8155 28.2056 48.5155 29.7435 50.0265 30.9726C52.5217 32.9642 53.7713 29.8273 55.2477 32.5512C55.6705 33.3483 55.5642 34.3765 54.9311 35.0419C53.5957 36.4027 51.3107 35.5733 49.6218 35.5733C47.5817 35.5409 45.6502 36.0377 44.488 37.7658C43.4322 39.293 43.2936 41.652 44.7329 43.0128C45.9644 44.1426 47.6857 43.9762 48.9518 45.1707C50.9549 47.13 47.4408 55.5306 51.6596 54.3362C55.8784 53.107 59.4642 46.7973 60.7996 45.0044C61.1531 44.5515 61.5043 44.2027 61.8554 43.9162L61.8601 43.9139Z" fill="#98DEF4"/>
<path fill-rule="evenodd" clip-rule="evenodd" d="M51.173 36.241C49.3143 34.383 48.1646 31.8158 48.1646 28.9801C48.1646 23.31 52.761 18.7134 58.4312 18.7134C64.1013 18.7134 68.6978 23.31 68.6978 28.9801C68.6978 31.8157 67.5482 34.3828 65.6897 36.2408L65.6911 36.2421L58.4314 43.5017L51.1718 36.2421L51.173 36.241Z" fill="#15C1E6"/>
<path fill-rule="evenodd" clip-rule="evenodd" d="M36.7678 18.7158C35.935 17.8833 35.4199 16.733 35.4199 15.4624C35.4199 12.9218 37.4794 10.8623 40.02 10.8623C42.5606 10.8623 44.6202 12.9218 44.6202 15.4624C44.6202 16.733 44.1051 17.8832 43.2723 18.7157L40.0201 21.9691L36.7678 18.7158Z" fill="#15C1E6"/>
<path fill-rule="evenodd" clip-rule="evenodd" d="M28.8412 48.7514C27.5329 47.4435 26.7236 45.6364 26.7236 43.6403C26.7236 39.6491 29.9591 36.4136 33.9504 36.4136C37.9416 36.4136 41.1772 39.6491 41.1772 43.6403C41.1772 45.6364 40.368 47.4434 39.0598 48.7512L39.0607 48.7522L33.9506 53.8623L28.8405 48.7522L28.8412 48.7514Z" fill="#15C1E6"/>
</g>
<defs>
<clipPath id="clip0_4_11721">
<rect width="80" height="80" fill="white"/>
</clipPath>
</defs>
</svg>
