<svg width="160" height="160" viewBox="0 0 160 160" fill="none" xmlns="http://www.w3.org/2000/svg">
<path d="M80.0001 146.535C114.996 146.535 143.366 118.165 143.366 83.1683C143.366 48.1721 114.996 19.802 80.0001 19.802C45.0039 19.802 16.6338 48.1721 16.6338 83.1683C16.6338 118.165 45.0039 146.535 80.0001 146.535Z" fill="#F5F8FF"/>
<g filter="url(#filter0_d_4_11223)">
<path d="M21.6309 38.2174C21.6309 36.7788 22.797 35.6125 24.2356 35.6125H131.847C133.285 35.6125 134.451 36.7788 134.451 38.2174V112.127C134.451 113.565 133.285 114.731 131.847 114.731H24.2356C22.797 114.731 21.6309 113.565 21.6309 112.127V38.2174Z" fill="white"/>
</g>
<path d="M21.6309 38.4177C21.6309 36.8685 22.7943 35.6125 24.2296 35.6125H131.558C132.994 35.6125 134.157 36.8685 134.157 38.4177V45.3371H21.6309V38.4177Z" fill="#000C36"/>
<path d="M32.7448 40.4749C32.7448 41.6167 31.8028 42.5587 30.661 42.5587C29.5192 42.5587 28.5771 41.6167 28.5771 40.4749C28.5771 39.3331 29.5192 38.3911 30.661 38.3911C31.8028 38.3911 32.7448 39.3331 32.7448 40.4749Z" fill="#F66058"/>
<path d="M41.0797 40.4749C41.0797 41.6167 40.1377 42.5587 38.9959 42.5587C37.854 42.5587 36.9121 41.6167 36.9121 40.4749C36.9121 39.3331 37.854 38.3911 38.9959 38.3911C40.1663 38.3911 41.0797 39.3331 41.0797 40.4749Z" fill="#F9BD2E"/>
<path d="M49.4147 40.4749C49.4147 41.6167 48.4727 42.5587 47.3309 42.5587C46.1891 42.5587 45.2471 41.6167 45.2471 40.4749C45.2471 39.3331 46.1891 38.3911 47.3309 38.3911C48.4727 38.3911 49.4147 39.3331 49.4147 40.4749Z" fill="#3CC840"/>
<path d="M21.6309 44.8423H134.451V61.2525H21.6309V44.8423Z" fill="#EDF1F6"/>
<path d="M31.8877 68.4343H124.195V106.383H31.8877V68.4343Z" fill="#EDF1F6"/>
<path fill-rule="evenodd" clip-rule="evenodd" d="M33.9385 52.7506C33.9385 51.2161 35.1326 49.9722 36.6057 49.9722H119.142C120.615 49.9722 121.809 51.2161 121.809 52.7506C121.809 54.2851 120.615 55.5291 119.142 55.5291H36.6057C35.1326 55.5291 33.9385 54.2851 33.9385 52.7506Z" fill="white"/>
<path d="M116.135 71.5098L143.972 77.1284L144.018 106.291C144.064 125.518 131.862 135.453 116.228 141.166C100.594 135.547 88.3915 125.609 88.3448 106.384L88.2988 77.2215L116.135 71.5098Z" fill="#3D7FFC"/>
<path d="M139.417 106.343V106.344C139.436 114.557 136.85 120.711 132.637 125.432C128.483 130.086 122.685 133.415 116.048 135.886C109.414 133.454 103.616 130.146 99.453 125.502C95.2296 120.791 92.6229 114.635 92.6031 106.42L92.5635 81.6278L115.971 76.8252L139.377 81.5494L139.417 106.343Z" fill="#3D7FFC" stroke="#9FC0FF" stroke-width="2.37624"/>
<path d="M107.784 104.9L112.834 109.458L124.194 99.2017" stroke="white" stroke-width="2.37624" stroke-linecap="round"/>
<defs>
<filter id="filter0_d_4_11223" x="10.5417" y="25.3155" width="134.999" height="101.297" filterUnits="userSpaceOnUse" color-interpolation-filters="sRGB">
<feFlood flood-opacity="0" result="BackgroundImageFix"/>
<feColorMatrix in="SourceAlpha" type="matrix" values="0 0 0 0 0 0 0 0 0 0 0 0 0 0 0 0 0 0 127 0" result="hardAlpha"/>
<feOffset dy="0.792079"/>
<feGaussianBlur stdDeviation="5.54455"/>
<feComposite in2="hardAlpha" operator="out"/>
<feColorMatrix type="matrix" values="0 0 0 0 0.0354167 0 0 0 0 0.105426 0 0 0 0 0.2125 0 0 0 0.04 0"/>
<feBlend mode="normal" in2="BackgroundImageFix" result="effect1_dropShadow_4_11223"/>
<feBlend mode="normal" in="SourceGraphic" in2="effect1_dropShadow_4_11223" result="shape"/>
</filter>
</defs>
</svg>
