<svg width="6" height="7" viewBox="0 0 6 7" fill="none" xmlns="http://www.w3.org/2000/svg">
<path d="M4.62411 0.00108058H5.78876C5.82253 0.00108058 5.85086 0.0130701 5.87483 0.0370388C5.89771 0.059918 5.9086 0.0882401 5.9086 0.120925V6.88011C5.9086 6.91279 5.89771 6.94219 5.87483 6.96507C5.85195 6.98795 5.82362 6.99993 5.78876 6.99993H4.62411C4.59142 6.99993 4.56309 6.98904 4.53803 6.96507C4.51515 6.94219 4.50426 6.91279 4.50426 6.88011V2.47094C4.50426 2.44371 4.49663 2.43065 4.48465 2.43065C4.47157 2.43065 4.45741 2.44154 4.44434 2.46115L3.38863 4.12043C3.35594 4.17382 3.3091 4.20106 3.24917 4.20106H2.66085C2.60202 4.20106 2.55408 4.17382 2.5214 4.12043L1.46568 2.46115C1.45261 2.44154 1.43845 2.43282 1.42592 2.435C1.41317 2.43827 1.40609 2.45352 1.40609 2.47967V6.87901C1.40609 6.91169 1.39465 6.94002 1.37046 6.96289C1.34627 6.98577 1.31925 6.99885 1.28505 6.99885H0.119512C0.086827 6.99885 0.0582879 6.98795 0.0355177 6.96289C0.0127474 6.94002 0 6.91169 0 6.87901V0.119844C0 0.0871595 0.0113311 0.0588208 0.0355177 0.0359416C0.0582879 0.0130624 0.086827 0 0.119512 0H1.28505C1.34486 0 1.39181 0.027235 1.4245 0.0795303L2.91906 2.40993C2.93867 2.44915 2.95828 2.44915 2.97898 2.40993L4.48247 0.0795303C4.51515 0.027235 4.56309 0 4.62192 0L4.62411 0.00108058Z" fill="white"/>
</svg>
