<svg width="60" height="60" viewBox="0 0 60 60" fill="none" xmlns="http://www.w3.org/2000/svg">
<g clip-path="url(#clip0_4_14974)">
<path d="M44.6512 60.0001H15.3489C13.3325 60.0055 11.335 59.611 9.47206 58.8392C7.60914 58.0675 5.91777 56.934 4.49587 55.5042C3.06611 54.0823 1.93258 52.391 1.16087 50.5281C0.389164 48.6651 -0.00538651 46.6676 5.55379e-05 44.6512V15.3489C-0.00538651 13.3325 0.389164 11.335 1.16087 9.47206C1.93258 7.60914 3.06611 5.91778 4.49587 4.49587C5.91777 3.06612 7.60914 1.93258 9.47206 1.16087C11.335 0.389167 13.3325 -0.00538429 15.3489 5.77484e-05H44.6512C46.6679 -0.0054919 48.6656 0.389004 50.5288 1.16071C52.3919 1.93242 54.0835 3.06601 55.5056 4.49587C56.9352 5.91784 58.0685 7.60925 58.84 9.47218C59.6115 11.3351 60.0058 13.3326 60 15.3489V44.6512C60.0056 46.6677 59.6111 48.6652 58.8393 50.5281C58.0676 52.391 56.9341 54.0824 55.5042 55.5042C54.0823 56.9339 52.3909 58.0674 50.528 58.8391C48.6651 59.6108 46.6676 60.0054 44.6512 60.0001ZM15.787 17.1531V33.9433C15.7614 35.5649 16.1813 37.1625 17.001 38.5619C17.8151 39.9188 18.9834 41.0282 20.3805 41.7712C21.9276 42.5776 23.6525 42.9821 25.3968 42.9475C27.1428 42.984 28.8701 42.5815 30.4201 41.7768C31.8169 41.0355 32.9838 39.9255 33.794 38.5675C34.6124 37.1651 35.0317 35.5655 35.0066 33.9419V17.1517H32.6917V33.7815C32.7125 35.0384 32.4031 36.2787 31.7945 37.3787C31.1968 38.4292 30.3145 39.2897 29.2494 39.861C28.0634 40.4835 26.7387 40.7946 25.3996 40.7652C24.0617 40.7953 22.7383 40.4841 21.554 39.861C20.4911 39.287 19.61 38.4272 19.0103 37.3787C18.3972 36.2802 18.0853 35.0392 18.1061 33.7815V17.1517L15.787 17.1531ZM41.7405 17.1531V42.5135H44.0568V17.1531H41.7405Z" fill="black"/>
</g>
<defs>
<clipPath id="clip0_4_14974">
<rect width="60" height="60" fill="white"/>
</clipPath>
</defs>
</svg>
