<svg width="144" height="144" viewBox="0 0 144 144" fill="none" xmlns="http://www.w3.org/2000/svg">
<g clip-path="url(#clip0_5_17168)">
<path d="M144 71.2935H80.1517L143.032 60.1971L142.778 58.8002L79.8977 69.8807L139.904 48.0371L139.412 46.7036L79.4056 68.5472L134.713 36.623L133.999 35.3849L78.707 67.309L127.617 26.2728L126.696 25.1774L77.7863 66.2137L118.823 17.3035L117.727 16.3828L76.691 65.3089L108.615 10.0011L107.377 9.28674L75.4528 64.5944L97.2964 4.58781L95.9471 4.09568L74.1193 64.1023L85.1998 1.22236L83.8029 0.96836L72.7065 63.8483V0H71.2935V63.8483L60.1971 0.96836L58.8002 1.22236L69.8807 64.1023L48.0371 4.09568L46.7036 4.58781L68.5472 64.5944L36.623 9.28674L35.3849 10.0011L67.309 65.293L26.2728 16.3828L25.1774 17.3035L66.2137 66.2137L17.3035 25.1774L16.3828 26.2728L65.293 67.309L10.0011 35.3849L9.28674 36.623L64.5944 68.5472L4.58781 46.7036L4.09568 48.0371L64.1023 69.8807L1.22236 58.8002L0.96836 60.1971L63.8483 71.2935H0V72.7065H63.8483L0.96836 83.8029L1.22236 85.1998L64.1023 74.1193L4.09568 95.9471L4.58781 97.2964L64.5786 75.4528L9.28674 107.377L10.0011 108.615L65.3089 76.691L16.3828 117.727L17.3035 118.823L66.2137 77.7863L25.1774 126.696L26.2728 127.617L67.309 78.707L35.3849 133.999L36.623 134.713L68.5472 79.4056L46.7036 139.412L48.0371 139.904L69.8807 79.8977L58.8002 142.778L60.1971 143.032L71.2935 80.1517V144H72.7065V80.1517L83.8029 143.032L85.1998 142.778L74.1193 79.8977L95.9471 139.904L97.2964 139.412L75.4528 79.4056L107.377 134.713L108.615 133.999L76.691 78.707L117.727 127.617L118.823 126.696L77.7863 77.7863L126.696 118.823L127.617 117.727L78.6912 76.691L133.999 108.615L134.713 107.377L79.4214 75.4528L139.412 97.2964L139.904 95.9471L79.8977 74.1193L142.778 85.1998L143.032 83.8029L80.1517 72.7065H144V71.2935Z" fill="white"/>
</g>
<defs>
<clipPath id="clip0_5_17168">
<rect width="144" height="144" fill="white"/>
</clipPath>
</defs>
</svg>
