<svg width="8" height="11" viewBox="0 0 8 11" fill="none" xmlns="http://www.w3.org/2000/svg">
<path d="M1.49223 3.57037C1.06438 2.99919 0.493222 2.42695 0.0632244 1.85685C-0.0790305 1.71459 0.0632244 1.71461 0.0632244 1.57128C1.06224 0.713438 2.20675 0.141177 3.49135 0C4.20586 0 5.0637 1.58019e-05 5.77713 0.285603C7.06281 0.857856 7.77623 1.99911 7.63398 3.42813C7.4928 4.14263 7.20616 4.85821 6.77724 5.4283C6.20498 6.14173 5.63273 6.71293 5.06371 7.28518C4.63587 7.71303 4.20587 7.99862 3.92028 8.42862C4.06146 8.57087 4.20587 8.57086 4.34813 8.57086C5.34715 8.57086 6.49056 8.57086 7.49065 8.57086C8.06183 8.57086 7.9185 8.57086 7.9185 9.14203C7.9185 9.71429 7.9185 10.1421 7.9185 10.7144C7.9185 11 7.77623 11 7.63289 11C6.6328 11 5.63271 11 4.48929 11C3.2036 11 1.91899 11 0.633313 11C0.20547 11 0.205467 11 0.205467 10.5721C0.205467 10.1443 0.063212 9.57203 0.205467 9.14203C0.346644 8.71419 0.776644 8.4286 1.20449 8.14301C2.06233 7.14292 3.06244 6.28508 3.92028 5.28606C4.20587 5.00047 4.49144 4.71382 4.6337 4.42823C4.77595 4.14264 4.9193 3.85596 4.9193 3.57037C4.9193 3.14253 4.63372 2.85695 4.34813 2.71254C3.92029 2.57029 3.348 2.71253 2.91801 2.9992C2.20673 2.9992 1.92007 3.14037 1.49223 3.57037Z" fill="white"/>
</svg>
