<svg width="11" height="13" viewBox="0 0 11 13" fill="none" xmlns="http://www.w3.org/2000/svg">
<path d="M0.493587 9.18225C1.05727 9.46462 1.61988 9.74592 2.18144 9.88604C2.60287 10.0251 2.88418 10.0251 3.30774 10.1674C3.58904 10.1674 3.72915 10.1674 4.01046 10.1674C4.4319 10.1674 4.85546 9.88604 4.99558 9.46461C5.13571 9.04211 4.9956 8.61963 4.71429 8.1982C4.43192 7.91583 4.1506 7.63453 3.72917 7.35322C3.16655 6.78954 2.60288 6.22691 2.46276 5.38405C2.04133 3.6962 2.74513 1.86612 4.29286 0.879945C5.41915 0.176143 6.68557 -0.105187 8.09106 0.0349362C9.07617 0.17506 10.0613 0.316266 10.9052 0.879945C10.9052 1.02007 10.9052 1.02006 10.9052 1.02006C10.4838 1.7228 10.0613 2.42766 9.63983 3.27052C9.49971 3.55183 9.35746 3.55182 9.21839 3.41063C8.7959 3.12932 8.37341 2.98923 7.80973 2.84698C7.52842 2.70686 7.10699 2.70684 6.82568 2.70684C5.84057 2.70684 5.41702 3.69194 5.9807 4.39468C6.11977 4.67705 6.40213 4.8172 6.54332 5.09851C6.68344 5.23863 6.96475 5.51994 7.24712 5.66113C8.51247 6.78742 8.79485 8.05382 8.37342 9.60261C7.95198 11.0102 6.96475 11.9953 5.55927 12.5579C4.01048 13.1216 2.60286 13.1216 1.05513 12.6981C0.915011 12.6981 0.915028 12.6981 0.773843 12.5579C-0.0711448 12.2766 -0.0711388 12.2766 0.0700462 11.4316C0.21017 10.868 0.21016 10.1652 0.352407 9.60261C0.493592 9.18224 0.352402 9.18225 0.493587 9.18225Z" fill="#0E2E46"/>
</svg>
