<svg width="142" height="28" viewBox="0 0 142 28" fill="none" xmlns="http://www.w3.org/2000/svg">
<g clip-path="url(#clip0_4_11820)">
<mask id="mask0_4_11820" style="mask-type:luminance" maskUnits="userSpaceOnUse" x="0" y="0" width="142" height="28">
<path d="M0 0H142V28H0V0Z" fill="white"/>
</mask>
<g mask="url(#mask0_4_11820)">
<path d="M26.3446 -0.0798688H47.3276C48.3426 -0.0798688 48.3276 -0.0798689 48.1956 0.888131C47.7996 3.82513 47.1696 6.72613 46.7046 9.65113C46.5966 10.3451 46.6506 10.4381 47.3486 10.4411C48.4706 10.4411 49.5926 10.4081 50.7086 10.4581C51.3256 10.4851 51.5636 10.2621 51.6626 9.67213C52.1576 6.62213 52.7006 3.58013 53.1896 0.527131C53.2696 0.0301311 53.4886 -0.0888688 53.9396 -0.0858688H59.9056C60.5756 -0.0858688 60.6656 0.0421311 60.5556 0.714131C59.8006 5.27813 59.0966 9.85113 58.2796 14.4171C57.7776 17.2111 57.4196 20.0261 56.8656 22.8081C56.5936 24.1691 56.3936 25.5431 56.1696 26.9101C56.1016 27.3181 55.9346 27.5061 55.5196 27.5061H49.3716C48.8256 27.5061 48.7296 27.2321 48.8076 26.7761C49.2376 24.2501 49.6656 21.7221 50.0936 19.1921C50.1916 18.5961 50.2756 18.0301 50.3916 17.4491C50.4546 17.1161 50.3766 16.9071 49.9976 16.9071H45.9406C45.4456 16.9071 45.4636 17.3211 45.4126 17.6311C45.1326 19.3311 44.9176 21.0451 44.5826 22.7371C44.3126 24.1191 44.1086 25.5101 43.8856 26.9071C43.8106 27.3631 43.6106 27.5031 43.1786 27.5031C41.1706 27.5031 39.1626 27.4881 37.1586 27.5031C36.5616 27.5031 36.4186 27.2321 36.5046 26.7191C36.7106 25.4741 36.8776 24.2231 37.1346 22.9871C37.5846 20.8031 37.8646 18.5931 38.2476 16.4011C38.7216 13.6661 39.1426 10.9261 39.6046 8.18913C39.6346 8.00113 39.6496 7.81313 39.6846 7.62913C39.7506 7.30713 39.6466 7.15213 39.3006 7.15213H34.5446C34.1716 7.15213 34.0346 7.36313 33.9786 7.69713C33.4266 11.0371 32.9166 14.3841 32.2986 17.7121C31.7256 20.7921 31.3686 23.9071 30.7086 26.9691C30.6216 27.3741 30.4466 27.4941 30.0766 27.4941H23.9276C23.4356 27.4941 23.3316 27.2881 23.4056 26.8171C23.9846 23.5271 24.5526 20.2331 25.1096 16.9341C25.4966 14.6341 25.8606 12.3291 26.2396 10.0261C26.3626 9.30313 26.4726 8.57313 26.6456 7.86113C26.7796 7.30713 26.5976 7.14013 26.0486 7.14313H11.3416C10.7956 7.14313 10.5336 7.31313 10.4706 7.87313C10.3931 8.51929 10.2796 9.16062 10.1306 9.79413C10.0106 10.3271 10.2256 10.4441 10.7276 10.4401H18.9696C20.3506 10.4401 20.3926 10.4401 20.1186 11.7991C19.8249 13.2629 19.5801 14.736 19.3846 16.2161C19.3126 16.7341 19.0566 16.9071 18.5376 16.9041C15.5986 16.8861 12.6636 16.9041 9.72459 16.8801C9.11059 16.8801 8.82959 17.0621 8.77659 17.6601C8.72259 18.2601 8.61159 18.8261 8.50759 19.4061C8.40359 19.9871 8.53159 20.1861 9.16759 20.1781C11.9356 20.1451 14.7036 20.1781 17.4726 20.1781C18.7256 20.1781 18.6956 20.1781 18.4746 21.4231C18.1599 23.1818 17.8795 24.9465 17.6336 26.7161C17.5536 27.2911 17.3346 27.5231 16.7386 27.5231C11.3306 27.5121 5.92159 27.5121 0.509586 27.5231C-0.0874144 27.5231 -0.194414 27.2941 -0.0874144 26.7461C0.509586 23.3471 1.01959 19.9361 1.64659 16.5461C2.16859 13.7351 2.52059 10.8871 3.06059 8.09013C3.54059 5.59113 3.90159 3.07713 4.29859 0.563131C4.37859 0.0481312 4.65359 -0.0708688 5.12459 -0.0708688H13.4926L26.3446 -0.0808688V-0.0798688ZM133.235 9.98513C134.479 8.85013 135.774 8.19713 137.275 8.16213C139.503 8.10213 141.153 9.52913 141.749 11.5371C142.173 12.9671 142.048 14.4201 141.812 15.8561C141.257 19.2571 140.702 22.6591 140.058 26.0431C139.727 27.7911 140.085 27.4731 138.301 27.5031C137.385 27.5031 137.304 27.3981 137.454 26.5231C138.065 22.8731 138.692 19.2281 139.261 15.5731C139.411 14.8501 139.447 14.1081 139.366 13.3741C138.99 10.9911 137.34 10.5031 135.404 11.1881C133.739 11.7841 132.862 13.1661 132.492 14.8281C131.967 17.1661 131.598 19.5341 131.213 21.9031C130.941 23.6061 130.714 25.3131 130.348 26.9991C130.34 27.1085 130.3 27.2131 130.232 27.2989C130.163 27.3847 130.071 27.4476 129.966 27.4791C129.896 27.5 129.823 27.5068 129.751 27.4991H128.674C127.779 27.4991 127.779 27.4991 127.91 26.6061C128.543 22.7901 129.136 18.9681 129.831 15.1651C130.336 12.4121 130.676 9.63313 131.222 6.89313C131.624 4.87013 131.902 2.83013 132.236 0.798131C132.382 -0.0948689 132.382 -0.0948688 133.262 -0.0948688H133.328C135.201 -0.0948688 135.013 -0.228869 134.67 1.54913C134.136 4.30713 133.766 7.07413 133.235 9.98513ZM77.4256 21.7711C77.4646 20.5801 77.8666 18.7151 78.2036 16.8331C78.5206 15.0461 78.7796 13.2581 79.0986 11.4711C79.2306 10.7061 79.2596 9.91913 79.5346 9.18313C79.5546 9.12313 79.5586 9.05513 79.5826 8.99913C79.7106 8.67113 80.9846 8.47413 81.6886 8.67413C82.2016 8.82013 81.9866 9.19213 81.9326 9.50513C81.3366 13.0801 80.7126 16.6301 80.1606 20.2051C80.0236 21.0981 79.7736 21.9921 80.0356 22.9451C80.7306 25.4951 83.0186 25.4231 84.5526 24.5181C85.1438 24.1647 85.6514 23.6874 86.0407 23.1191C86.43 22.5509 86.6916 21.9051 86.8076 21.2261C87.3296 18.5871 87.7566 15.9271 88.2126 13.2761C88.4436 11.93 88.6613 10.5816 88.8656 9.23113C88.8649 9.14585 88.8824 9.06139 88.9171 8.98349C88.9518 8.90558 89.0029 8.83602 89.0668 8.77952C89.1306 8.72303 89.2059 8.6809 89.2875 8.65599C89.3691 8.63108 89.455 8.62397 89.5396 8.63513H90.8706C91.3066 8.63513 91.4906 8.79613 91.4136 9.23113C91.1936 10.4941 90.9776 11.7581 90.7696 13.0231C90.3786 15.4061 90.0386 17.8031 89.5996 20.1721C89.1886 22.3851 88.8716 24.6101 88.5076 26.8291C88.4276 27.3181 88.2096 27.4821 87.7566 27.4581H86.9956C86.0056 27.4581 86.0026 27.4581 86.0376 26.4901C86.0376 26.3861 86.0766 26.2661 85.9546 26.2161C85.8316 26.1661 85.7096 26.2631 85.6146 26.3381C84.9506 26.8881 84.1836 27.3011 83.3586 27.5531C81.9956 27.9111 80.1886 27.7851 79.1676 26.7461C77.8136 25.4291 77.4256 24.4851 77.4256 21.7711ZM67.5776 27.5061H62.8226C62.1006 27.5061 62.1006 27.3801 62.1026 26.6831C62.1026 25.2511 62.9986 24.3001 63.7686 23.2461C64.9946 21.5931 66.2326 19.9481 67.4616 18.2921C68.7109 16.6065 69.9569 14.9185 71.1996 13.2281C71.4346 12.9071 71.6976 12.6081 71.9156 12.2691C72.2136 11.7961 72.0706 11.7091 71.5896 11.7121H65.7576C64.8626 11.7121 64.8396 11.6801 64.9736 10.7681C65.0506 10.2501 65.1436 9.73113 65.2086 9.21013C65.2093 9.13114 65.2271 9.05323 65.2607 8.98174C65.2943 8.91026 65.343 8.84689 65.4034 8.79598C65.4638 8.74507 65.5345 8.70782 65.6107 8.68679C65.6868 8.66576 65.7666 8.66144 65.8446 8.67413H75.3516C75.9246 8.67413 75.9486 9.00213 75.8946 9.42413C75.7666 10.6791 75.2116 11.7121 74.4386 12.7011C72.6846 14.9591 71.0176 17.2851 69.3136 19.5821L66.0096 24.0301C65.9106 24.1611 65.7106 24.2691 65.7766 24.4471C65.8426 24.6261 66.1046 24.5971 66.2836 24.5971H72.6236C73.4916 24.5971 73.6136 24.7481 73.4706 25.6121C73.1716 27.5071 73.1716 27.5071 71.2536 27.5071H67.5786L67.5776 27.5061ZM114.059 21.2301C113.989 18.463 114.568 15.7181 115.748 13.2141C116.504 11.5328 117.798 10.1504 119.426 9.28413C120.786 8.57013 122.168 8.54013 123.543 8.73413C125.061 8.94513 126.117 9.99113 126.893 11.2891C126.947 11.3694 126.969 11.4666 126.956 11.5624C126.942 11.6581 126.894 11.7456 126.821 11.8081C126.386 12.2371 125.941 12.6571 125.512 13.0921C125.237 13.3681 125.094 13.2971 124.915 12.9751C124.178 11.7361 123.083 11.1021 121.634 11.3431C121.056 11.4256 120.501 11.6244 120.002 11.9274C119.503 12.2304 119.07 12.6314 118.731 13.1061C117.397 14.9591 116.917 17.1041 116.628 19.3111C116.437 20.7441 116.38 22.1531 116.983 23.5261C117.139 23.9063 117.37 24.2511 117.662 24.5399C117.955 24.8287 118.302 25.0555 118.685 25.2067C119.067 25.358 119.475 25.4306 119.886 25.4202C120.297 25.4098 120.702 25.3166 121.076 25.1461C121.924 24.7784 122.681 24.2272 123.292 23.5321C123.534 23.2761 123.671 23.3381 123.835 23.5741C124.16 24.0411 124.483 24.5091 124.811 24.9741C124.887 25.0779 124.919 25.2072 124.901 25.3347C124.883 25.4621 124.816 25.5775 124.715 25.6561C123.471 26.9811 122.03 27.9581 120.145 28.0121C119.161 28.0421 118.188 28.0511 117.248 27.5651C115.408 26.6151 114.563 25.0361 114.188 23.0971C114.076 22.4811 114.032 21.8557 114.059 21.2301ZM98.8236 10.1751C99.6766 9.55913 100.39 8.80213 101.432 8.63213C103.001 8.38213 104.498 8.40613 105.724 9.65713C106.273 10.2171 106.321 10.4821 105.745 10.9911C105.328 11.3491 105.062 11.8411 104.618 12.1831C104.388 12.3561 104.277 12.4131 104.063 12.1651C102.55 10.4141 100.9 11.0571 99.5226 12.3651C98.2956 13.5261 97.9196 15.0991 97.6516 16.6841C97.2246 19.1921 96.8696 21.7121 96.4346 24.2171C96.2736 25.1431 96.0766 26.0671 95.9476 27.0021C95.9437 27.0766 95.9244 27.1495 95.8909 27.2162C95.8575 27.2828 95.8106 27.3418 95.7532 27.3895C95.6957 27.4371 95.6291 27.4723 95.5574 27.4929C95.4857 27.5135 95.4105 27.519 95.3366 27.5091H93.9436C93.5736 27.5091 93.4186 27.3921 93.4866 26.9751C93.8236 24.9651 94.1256 22.9481 94.4506 20.9371C94.8626 18.4051 95.2466 15.8741 95.7186 13.3541C95.9716 11.9891 96.1786 10.6221 96.4166 9.25813C96.4876 8.84413 96.6666 8.66213 97.0756 8.66213H98.2686C98.7846 8.66213 98.9636 8.87413 98.8236 9.36813C98.7371 9.63019 98.7371 9.91308 98.8236 10.1751ZM107.693 27.5061C106.39 27.5061 106.354 27.5061 106.61 26.2101C107.162 23.4041 107.487 20.5501 108.027 17.7561C108.567 14.9621 108.922 12.1951 109.417 9.41613C109.531 8.80213 109.82 8.64113 110.405 8.64713C112.195 8.66513 112.058 8.56413 111.78 10.2651C110.885 15.7401 109.954 21.2091 109.039 26.6801C108.886 27.5031 108.901 27.5061 107.693 27.5061ZM112.248 -0.0718688C113.507 -0.0718688 113.51 -0.0718689 113.34 1.13813C113.248 1.78113 113.143 2.42213 113.042 3.06213C112.97 3.52113 112.744 3.77413 112.236 3.74213C111.798 3.71413 111.341 3.74213 110.912 3.74213C110.539 3.74213 110.372 3.56013 110.399 3.19313C110.506 2.21413 110.673 1.24313 110.897 0.283131C110.917 0.177842 110.976 0.0839601 111.062 0.0195361C111.148 -0.044888 111.255 -0.0753059 111.362 -0.0658688L112.248 -0.0718688ZM89.3876 3.73513C88.0336 3.73513 88.0396 3.73513 88.2806 2.42513C88.4006 1.76313 88.5016 1.09913 88.5946 0.435131C88.5941 0.360363 88.6099 0.286383 88.6409 0.218333C88.6718 0.150283 88.7173 0.0897952 88.774 0.0410728C88.8307 -0.00764966 88.8973 -0.043438 88.9693 -0.0638054C89.0412 -0.0841727 89.1168 -0.0886305 89.1906 -0.0768688H90.7716C91.1656 -0.0768688 91.3116 0.128131 91.2496 0.483131C91.0796 1.40913 90.8916 2.33313 90.7156 3.25913C90.7097 3.33254 90.6884 3.40389 90.6532 3.46859C90.618 3.53328 90.5696 3.58987 90.5112 3.63472C90.4528 3.67957 90.3856 3.71168 90.314 3.72898C90.2425 3.74627 90.168 3.74837 90.0956 3.73513C89.8506 3.72613 89.6176 3.73513 89.3876 3.73513ZM83.3376 3.73813C81.8976 3.73813 81.8466 3.67813 82.1956 2.28513C82.3406 1.75928 82.4403 1.22199 82.4936 0.679131C82.5326 0.155131 82.7266 -0.148869 83.3166 -0.0858688C83.6326 -0.0678688 83.9496 -0.0678688 84.2666 -0.0858688C85.1756 -0.0858688 85.1846 -0.0858688 85.0536 0.837131C84.9576 1.52513 84.7846 2.20413 84.7366 2.89213C84.6896 3.58013 84.3666 3.81613 83.7226 3.73513C83.5943 3.72693 83.4657 3.72794 83.3376 3.73813Z" fill="black"/>
</g>
</g>
<defs>
<clipPath id="clip0_4_11820">
<rect width="142" height="28" fill="white"/>
</clipPath>
</defs>
</svg>
