<svg width="13" height="14" viewBox="0 0 13 14" fill="none" xmlns="http://www.w3.org/2000/svg">
<path d="M3.91594 1.55803V0.519342C3.91488 0.381931 3.85983 0.250447 3.76266 0.15328C3.66549 0.0561127 3.53401 0.00105706 3.3966 0C3.25918 0.00105706 3.1277 0.0561127 3.03053 0.15328C2.93337 0.250447 2.87831 0.381931 2.87725 0.519342V1.59945C3.04933 1.57478 3.22278 1.56095 3.3966 1.55803H3.91594Z" fill="#0070F3"/>
<path d="M9.29155 1.59945V0.519342C9.29049 0.381931 9.23543 0.250447 9.13827 0.15328C9.0411 0.0561127 8.90962 0.00105706 8.7722 0C8.63479 0.00105706 8.50331 0.0561127 8.40614 0.15328C8.30898 0.250447 8.25392 0.381931 8.25286 0.519342V1.55803H8.7722C8.94602 1.56095 9.11947 1.57478 9.29155 1.59945Z" fill="#0070F3"/>
<path d="M9.28429 1.59843V2.56841C9.28429 2.7024 9.23107 2.8309 9.13632 2.92564C9.04158 3.02038 8.91308 3.07361 8.77909 3.07361C8.64511 3.07361 8.51661 3.02038 8.42187 2.92564C8.32712 2.8309 8.2739 2.7024 8.2739 2.56841V1.55802H3.89485V2.56841C3.89485 2.7024 3.84163 2.8309 3.74688 2.92564C3.65214 3.02038 3.52364 3.07361 3.38966 3.07361C3.25567 3.07361 3.12717 3.02038 3.03243 2.92564C2.93768 2.8309 2.88446 2.7024 2.88446 2.56841V1.59843C0.898025 1.7793 0.0220142 3.05542 0.0220142 4.91455V10.6202C-0.0332654 11.0753 0.0158949 11.5369 0.16576 11.9701C0.315625 12.4032 0.562251 12.7966 0.886902 13.1201C1.21155 13.4437 1.60568 13.6891 2.03935 13.8375C2.47302 13.9859 2.93482 14.0335 3.38966 13.9768H8.77909C9.23393 14.0335 9.69573 13.9859 10.1294 13.8375C10.5631 13.6891 10.9572 13.4437 11.2818 13.1201C11.6065 12.7966 11.8531 12.4032 12.003 11.9701C12.1529 11.5369 12.202 11.0753 12.1467 10.6202V4.91455C12.1467 3.05542 11.2707 1.7793 9.28429 1.59843ZM6.08438 10.4495H3.38966C3.25567 10.4495 3.12717 10.3963 3.03243 10.3015C2.93768 10.2068 2.88446 10.0783 2.88446 9.94429C2.88446 9.8103 2.93768 9.6818 3.03243 9.58706C3.12717 9.49231 3.25567 9.43909 3.38966 9.43909H6.08438C6.21836 9.43909 6.34686 9.49231 6.4416 9.58706C6.53635 9.6818 6.58957 9.8103 6.58957 9.94429C6.58957 10.0783 6.53635 10.2068 6.4416 10.3015C6.34686 10.3963 6.21836 10.4495 6.08438 10.4495ZM8.77909 7.09599H3.38966C3.25567 7.09599 3.12717 7.04276 3.03243 6.94802C2.93768 6.85327 2.88446 6.72478 2.88446 6.59079C2.88446 6.4568 2.93768 6.3283 3.03243 6.23356C3.12717 6.13882 3.25567 6.08559 3.38966 6.08559H8.77909C8.91308 6.08559 9.04158 6.13882 9.13632 6.23356C9.23107 6.3283 9.28429 6.4568 9.28429 6.59079C9.28429 6.72478 9.23107 6.85327 9.13632 6.94802C9.04158 7.04276 8.91308 7.09599 8.77909 7.09599Z" fill="#0070F3"/>
</svg>
