<svg width="18" height="18" viewBox="0 0 18 18" fill="none" xmlns="http://www.w3.org/2000/svg">
<path d="M3.7127 17.5887C3.44424 17.5885 3.18684 17.4817 2.99701 17.2919C2.80718 17.1021 2.70043 16.8447 2.7002 16.5762V1.42381C2.70008 1.24177 2.74904 1.06307 2.84192 0.906514C2.9348 0.749958 3.06818 0.62134 3.228 0.534197C3.38782 0.447055 3.56818 0.404611 3.7501 0.411336C3.93201 0.41806 4.10874 0.473703 4.2617 0.572407L16.0049 8.14861C16.147 8.2405 16.2638 8.36652 16.3447 8.51516C16.4256 8.6638 16.468 8.83033 16.468 8.99956C16.468 9.16878 16.4256 9.33531 16.3447 9.48395C16.2638 9.63259 16.147 9.75861 16.0049 9.85051L4.2617 17.4267C4.09798 17.5322 3.90743 17.5884 3.7127 17.5887Z" fill="white"/>
</svg>
