<svg width="14" height="11" viewBox="0 0 14 11" fill="none" xmlns="http://www.w3.org/2000/svg">
<path d="M8.00786 0H5.5C4.04131 0 2.64237 0.579463 1.61091 1.61091C0.579463 2.64237 0 4.04131 0 5.5C0 6.9587 0.579463 8.35764 1.61091 9.38909C2.64237 10.4205 4.04131 11 5.5 11H8.00786C9.46655 11 10.8655 10.4205 11.8969 9.38909C12.9284 8.35764 13.5079 6.9587 13.5079 5.5C13.5079 4.04131 12.9284 2.64237 11.8969 1.61091C10.8655 0.579463 9.46655 0 8.00786 0ZM5.5 8.48408C4.90893 8.48548 4.33072 8.31145 3.83861 7.98404C3.34649 7.65664 2.96259 7.19056 2.73552 6.64484C2.50845 6.09912 2.44841 5.49829 2.56301 4.91843C2.67761 4.33856 2.9617 3.80574 3.3793 3.38743C3.79691 2.96912 4.32924 2.68413 4.90891 2.56855C5.48858 2.45297 6.08951 2.51198 6.63562 2.73813C7.18172 2.96428 7.64844 3.34739 7.97669 3.83895C8.30493 4.33051 8.47993 4.90842 8.47953 5.4995C8.47953 6.29018 8.16578 7.04856 7.60715 7.60813C7.04853 8.1677 6.29069 8.48274 5.5 8.48408Z" fill="#0070F3"/>
</svg>
