<svg width="56" height="56" viewBox="0 0 56 56" fill="none" xmlns="http://www.w3.org/2000/svg">
<g clip-path="url(#clip0_4_15746)">
<g clip-path="url(#clip1_4_15746)">
<g clip-path="url(#clip2_4_15746)">
<path d="M39.2 0H16.8C7.52162 0 0 7.52162 0 16.8V39.2C0 48.4784 7.52162 56 16.8 56H39.2C48.4784 56 56 48.4784 56 39.2V16.8C56 7.52162 48.4784 0 39.2 0Z" fill="#1D9BF0"/>
<path d="M10.2994 39.5522C13.5048 41.5852 17.3071 42.7616 21.3829 42.7616C32.8337 42.7616 42.1159 33.4783 42.1159 22.0287C42.1159 21.7428 42.1099 21.4591 42.0989 21.1761C42.5131 20.8502 45.0746 18.7971 45.7025 17.4772C45.7025 17.4772 43.6223 18.3417 41.5865 18.5454C41.5824 18.5454 41.5775 18.5462 41.5734 18.5462C41.5734 18.5462 41.5775 18.5443 41.5844 18.5394C41.772 18.4139 44.3946 16.6286 44.7498 14.5015C44.7498 14.5015 43.2784 15.2867 41.2184 15.9739C40.8774 16.0871 40.5204 16.1986 40.1522 16.3017C38.8243 14.8845 36.9368 14 34.8417 14C30.8228 14 27.5663 17.2556 27.5663 21.2713C27.5663 21.838 27.6315 22.3895 27.7549 22.9191C27.1932 22.8962 18.641 22.4167 12.8229 15.3709C12.8229 15.3709 9.34575 20.1179 14.895 24.9992C14.895 24.9992 13.2081 24.932 11.7528 24.0624C11.7528 24.0624 11.2182 29.8133 17.5027 31.2837C17.5027 31.2837 16.2661 31.752 14.2933 31.4181C14.2933 31.4181 15.3965 36.0648 20.98 36.499C20.98 36.499 16.5648 40.4876 10.2974 39.5517L10.2994 39.5522Z" fill="white"/>
</g>
</g>
</g>
<defs>
<clipPath id="clip0_4_15746">
<rect width="56" height="56" rx="10" fill="white"/>
</clipPath>
<clipPath id="clip1_4_15746">
<rect width="56" height="56" fill="white"/>
</clipPath>
<clipPath id="clip2_4_15746">
<rect width="56" height="56" fill="white"/>
</clipPath>
</defs>
</svg>
