<svg width="30" height="30" viewBox="0 0 30 30" fill="none" xmlns="http://www.w3.org/2000/svg">
<path d="M12.8711 3.29001L14.5211 6.59001C14.7461 7.05001 15.3461 7.49001 15.8524 7.57501L18.8436 8.07126C20.7561 8.39001 21.2062 9.77751 19.8274 11.1463L17.5024 13.4713C17.1086 13.8663 16.8936 14.625 17.0149 15.1688L17.6811 18.0475C18.2061 20.325 16.9961 21.2063 14.9811 20.015L12.1774 18.3563C11.6711 18.0563 10.8374 18.0563 10.3211 18.3563L7.51865 20.015C5.5124 21.2063 4.29365 20.315 4.81865 18.0463L5.48365 15.1688C5.60615 14.625 5.3899 13.865 4.99615 13.4725L2.67115 11.1475C1.3024 9.77751 1.74365 8.39001 3.65615 8.07251L6.64615 7.57501C7.14365 7.49001 7.74365 7.05001 7.96865 6.59001L9.61865 3.29001C10.5186 1.50001 11.9811 1.50001 12.8711 3.29001Z" stroke="#D7DBDF" stroke-width="1.875" stroke-linecap="round" stroke-linejoin="round"/>
</svg>
