<svg width="54" height="54" viewBox="0 0 54 54" fill="none" xmlns="http://www.w3.org/2000/svg">
<g clip-path="url(#clip0_2_9202)">
<path d="M54 0H0V54H54V0Z" fill="black"/>
<path d="M26.9485 24.4422C25.1774 24.4422 23.9004 25.5988 23.9004 27.3337C23.9004 29.0686 25.3378 30.2252 27.1089 30.2252C28.179 30.2252 29.1223 29.8011 29.7063 29.0862L28.4791 28.3762C28.155 28.7312 27.6624 28.9385 27.1089 28.9385C26.3405 28.9385 25.6875 28.5369 25.4453 27.8943H29.9405C29.9759 27.7144 29.9968 27.528 29.9968 27.3321C29.9968 25.5988 28.7196 24.4422 26.9485 24.4422ZM25.4308 26.7715C25.6314 26.1306 26.1801 25.7274 26.9469 25.7274C27.7154 25.7274 28.264 26.1306 28.463 26.7715H25.4308ZM44.2238 24.4422C42.4526 24.4422 41.1756 25.5988 41.1756 27.3337C41.1756 29.0686 42.613 30.2252 44.3842 30.2252C45.4543 30.2252 46.3976 29.8011 46.9816 29.0862L45.7543 28.3762C45.4302 28.7312 44.9377 28.9385 44.3842 28.9385C43.6157 28.9385 42.9628 28.5369 42.7205 27.8943H47.2158C47.2511 27.7144 47.272 27.528 47.272 27.3321C47.272 25.5988 45.9949 24.4422 44.2238 24.4422ZM42.7077 26.7715C42.9082 26.1306 43.4569 25.7274 44.2238 25.7274C44.9922 25.7274 45.541 26.1306 45.7399 26.7715H42.7077ZM36.4461 27.3337C36.4461 28.2975 37.075 28.9401 38.0504 28.9401C38.7113 28.9401 39.2071 28.6397 39.4622 28.1498L40.6942 28.8614C40.1841 29.7127 39.2279 30.2252 38.0504 30.2252C36.2776 30.2252 35.0022 29.0686 35.0022 27.3337C35.0022 25.5988 36.2792 24.4422 38.0504 24.4422C39.2279 24.4422 40.1825 24.9547 40.6942 25.8061L39.4622 26.5177C39.2071 26.0277 38.7113 25.7274 38.0504 25.7274C37.0766 25.7274 36.4461 26.3699 36.4461 27.3337ZM49.6784 22.6752V30.0646H48.2345V22.6752H49.6784ZM10.2492 21.8721L16.1772 32.1528H4.32129L10.2492 21.8721ZM25.0699 22.6752L20.6243 30.3858L16.1788 22.6752H17.8456L20.6243 27.4943L23.403 22.6752H25.0699ZM34.5208 24.6029V26.1595C34.3604 26.1129 34.1904 26.0807 34.0075 26.0807C33.0754 26.0807 32.4032 26.7233 32.4032 27.6871V30.0646H30.9593V24.6029H32.4032V26.0807C32.4032 25.2647 33.3513 24.6029 34.5208 24.6029Z" fill="white"/>
</g>
<defs>
<clipPath id="clip0_2_9202">
<rect width="54" height="54" fill="white"/>
</clipPath>
</defs>
</svg>
