<svg width="24" height="24" viewBox="0 0 24 24" fill="none" xmlns="http://www.w3.org/2000/svg">
<path d="M11.2141 0.00645313C11.1625 0.0111406 10.9983 0.0275469 10.8504 0.0392656C7.44169 0.346578 4.24866 2.18558 2.22637 5.01214C1.10025 6.58377 0.380063 8.36652 0.107906 10.2548C0.0117188 10.9139 0 11.1086 0 12.0023C0 12.896 0.0117188 13.0908 0.107906 13.7498C0.760125 18.2559 3.96712 22.0419 8.31666 23.4446C9.09562 23.6957 9.91669 23.8669 10.8504 23.9701C11.2141 24.0099 12.7859 24.0099 13.1496 23.9701C14.7613 23.7918 16.1267 23.393 17.4733 22.7058C17.6798 22.6002 17.7197 22.5721 17.6915 22.5485C17.6727 22.5345 16.793 21.3546 15.7372 19.9284L13.8182 17.3364L11.4135 13.778C10.0903 11.8217 9.00178 10.2219 8.99241 10.2219C8.98303 10.2196 8.97366 11.8007 8.96897 13.7311C8.96184 17.1112 8.95959 17.2473 8.91731 17.327C8.85637 17.442 8.80941 17.489 8.71087 17.5405C8.63578 17.578 8.57006 17.585 8.21588 17.585H7.80994L7.70212 17.5171C7.63527 17.4752 7.58095 17.416 7.54491 17.3458L7.49559 17.2402L7.50028 12.5372L7.50731 7.83167L7.58006 7.74017C7.61756 7.69095 7.69734 7.62767 7.75369 7.59711C7.84987 7.55023 7.88737 7.54555 8.29322 7.54555C8.77181 7.54555 8.85159 7.5643 8.97591 7.70033C9.01116 7.73783 10.3132 9.69889 11.8709 12.061C13.4288 14.423 15.559 17.6484 16.6053 19.2318L18.5056 22.1099L18.6018 22.0466C19.4534 21.493 20.3542 20.7049 21.0674 19.8838C22.5853 18.141 23.5636 16.0159 23.8921 13.7499C23.9883 13.0908 24 12.896 24 12.0024C24 11.1086 23.9883 10.914 23.8921 10.2548C23.2399 5.74873 20.0329 1.96273 15.6833 0.560047C14.9161 0.311422 14.0997 0.140141 13.1847 0.0369219C12.9595 0.0134844 11.4088 -0.0122969 11.2141 0.00645313ZM16.1267 7.26402C16.2393 7.32027 16.3308 7.42827 16.3636 7.54086C16.3823 7.6018 16.387 8.90605 16.3823 11.8452L16.3754 16.0627L15.6317 14.9227L14.8856 13.7827V10.7169C14.8856 8.73477 14.895 7.62055 14.9091 7.56664C14.9466 7.4353 15.0288 7.33208 15.1414 7.27105C15.2376 7.22183 15.2727 7.21714 15.6411 7.21714C15.9883 7.21714 16.0492 7.22183 16.1267 7.26402Z" fill="#FF4ECD"/>
</svg>
