<svg width="31" height="11" viewBox="0 0 31 11" fill="none" xmlns="http://www.w3.org/2000/svg">
<path d="M2.79723 8.45184C2.77718 8.47189 2.77018 8.49194 2.77719 8.51199C2.79023 8.53205 2.81028 8.54207 2.83735 8.54207H6.77752C6.82464 8.54207 6.86474 8.55912 6.89782 8.5922C6.93793 8.62529 6.95798 8.66539 6.95798 8.71251V10.1262C6.95798 10.1733 6.93793 10.2134 6.89782 10.2465C6.86474 10.2796 6.82464 10.2966 6.77752 10.2966H0.240642C0.187505 10.2966 0.143386 10.2796 0.110301 10.2465C0.0772153 10.2134 0.0601529 10.1733 0.0601529 10.1262V8.78268C0.0601529 8.69546 0.0902576 8.62228 0.150413 8.56213C0.624638 8.10093 1.10987 7.59662 1.60415 7.04821C2.09843 6.49979 2.40922 6.1589 2.53655 6.02556C2.80424 5.70473 3.07796 5.39694 3.35868 5.10318C4.24096 4.12766 4.68211 3.40179 4.68211 2.92756C4.68211 2.58668 4.56178 2.30596 4.32116 2.08539C4.08054 1.87184 3.76673 1.76455 3.37872 1.76455C2.99072 1.76455 2.67694 1.87184 2.43632 2.08539C2.18868 2.30596 2.06533 2.5967 2.06533 2.95764V3.31857C2.06533 3.36569 2.0483 3.40581 2.01522 3.43889C1.98213 3.47198 1.94203 3.48901 1.89491 3.48901H0.180489C0.133368 3.48901 0.0932384 3.47198 0.0601529 3.43889C0.0200494 3.40581 0 3.36569 0 3.31857V2.63682C0.0330855 2.11547 0.200518 1.65127 0.501295 1.24322C0.802072 0.842181 1.2001 0.534388 1.69438 0.320836C2.19567 0.107284 2.75712 0 3.37872 0C4.0675 0 4.66505 0.130336 5.17337 0.391009C5.68168 0.644665 6.0727 0.989554 6.34641 1.42368C6.62714 1.86482 6.76748 2.34906 6.76748 2.87743C6.76748 3.28548 6.66422 3.70256 6.45668 4.13067C6.25616 4.55877 5.95237 5.01997 5.54432 5.51424C5.24354 5.88821 4.91971 6.26317 4.57181 6.63714C4.22391 7.00509 3.70658 7.53647 3.01781 8.23127L2.79723 8.45184ZM11.6802 10.457C10.6104 10.457 9.76824 10.1593 9.15365 9.56472C8.53204 8.97018 8.22125 8.15807 8.22125 7.12841V3.28849C8.22125 2.27889 8.53204 1.48082 9.15365 0.892304C9.76824 0.297769 10.6104 0 11.6802 0C12.7429 0 13.5881 0.297769 14.2167 0.892304C14.8384 1.48082 15.1491 2.27889 15.1491 3.28849V7.12841C15.1491 8.15807 14.8384 8.97018 14.2167 9.56472C13.5881 10.1593 12.7429 10.457 11.6802 10.457ZM11.6802 8.70249C12.1143 8.70249 12.4592 8.56913 12.7129 8.30144C12.9735 8.03375 13.1039 7.67684 13.1039 7.22868V3.22834C13.1039 2.7872 12.9735 2.43329 12.7129 2.1656C12.4592 1.89791 12.1143 1.76455 11.6802 1.76455C11.2521 1.76455 10.9112 1.89791 10.6575 2.1656C10.3969 2.43329 10.2665 2.7872 10.2665 3.22834V7.22868C10.2665 7.67684 10.3969 8.03375 10.6575 8.30144C10.9112 8.56913 11.2521 8.70249 11.6802 8.70249ZM19.2197 8.45184C19.1996 8.47189 19.1966 8.49194 19.2096 8.51199C19.2166 8.53205 19.2367 8.54207 19.2698 8.54207H23.21C23.2571 8.54207 23.2972 8.55912 23.3303 8.5922C23.3634 8.62529 23.3804 8.66539 23.3804 8.71251V10.1262C23.3804 10.1733 23.3634 10.2134 23.3303 10.2465C23.2972 10.2796 23.2571 10.2966 23.21 10.2966H16.663C16.6159 10.2966 16.5758 10.2796 16.5427 10.2465C16.5096 10.2134 16.4926 10.1733 16.4926 10.1262V8.78268C16.4926 8.69546 16.5197 8.62228 16.5728 8.56213C17.0541 8.10093 17.5383 7.59662 18.0266 7.04821C18.5209 6.49979 18.8316 6.1589 18.959 6.02556C19.2327 5.70473 19.5104 5.39694 19.7911 5.10318C20.6734 4.12766 21.1145 3.40179 21.1145 2.92756C21.1145 2.58668 20.9942 2.30596 20.7536 2.08539C20.506 1.87184 20.1892 1.76455 19.8011 1.76455C19.4131 1.76455 19.0993 1.87184 18.8587 2.08539C18.6181 2.30596 18.4978 2.5967 18.4978 2.95764V3.31857C18.4978 3.36569 18.4808 3.40581 18.4477 3.43889C18.4146 3.47198 18.3705 3.48901 18.3173 3.48901H16.6029C16.5558 3.48901 16.5157 3.47198 16.4826 3.43889C16.4495 3.40581 16.4325 3.36569 16.4325 3.31857V2.63682C16.4595 2.11547 16.6229 1.65127 16.9237 1.24322C17.2245 0.842181 17.6255 0.534388 18.1268 0.320836C18.6281 0.107284 19.1866 0 19.8011 0C20.4899 0 21.0875 0.130336 21.5958 0.391009C22.1101 0.644665 22.5051 0.989554 22.7788 1.42368C23.0526 1.86482 23.1899 2.34906 23.1899 2.87743C23.1899 3.28548 23.0897 3.70256 22.8891 4.13067C22.6816 4.55877 22.3748 5.01997 21.9667 5.51424C21.666 5.88821 21.3421 6.26317 20.9942 6.63714C20.6463 7.00509 20.129 7.53647 19.4402 8.23127L19.2197 8.45184ZM30.7093 5.44407C30.9028 5.88521 31.0001 6.39653 31.0001 6.97803C31.0001 7.5064 30.9129 7.99064 30.7394 8.43178C30.5058 9.05339 30.1148 9.53764 29.5664 9.88554C29.018 10.2395 28.3703 10.4169 27.6214 10.4169C26.8865 10.4169 26.2408 10.2334 25.6863 9.86548C25.1319 9.49151 24.7309 8.99022 24.4833 8.3616C24.3499 7.98763 24.2727 7.57957 24.2527 7.13843C24.2527 7.02514 24.3098 6.968 24.4231 6.968H26.1476C26.2609 6.968 26.318 7.02514 26.318 7.13843C26.3581 7.45926 26.4112 7.69688 26.4784 7.85028C26.5656 8.10394 26.709 8.30144 26.9095 8.4418C27.103 8.58217 27.3376 8.65236 27.6113 8.65236C28.1527 8.65236 28.5267 8.41473 28.7342 7.94051C28.8676 7.65277 28.9348 7.3159 28.9348 6.9279C28.9348 6.46671 28.8616 6.09275 28.7142 5.805C28.4936 5.35083 28.1226 5.12323 27.6013 5.12323C27.494 5.12323 27.3807 5.15331 27.2604 5.21346C27.1471 5.28064 27.0068 5.37088 26.8394 5.48417C26.7992 5.51124 26.7621 5.52426 26.729 5.52426C26.6689 5.52426 26.6258 5.49721 26.5987 5.44407L25.7365 4.23093C25.7164 4.20386 25.7064 4.17077 25.7064 4.13067C25.7064 4.07051 25.7265 4.02339 25.7666 3.9903L28.0725 1.96508C28.0926 1.94503 28.1026 1.92497 28.1026 1.90491C28.0956 1.88486 28.0795 1.87484 28.0525 1.87484H24.6336C24.5865 1.87484 24.5434 1.85781 24.5033 1.82472C24.4702 1.79164 24.4532 1.75152 24.4532 1.7044V0.29076C24.4532 0.243638 24.4702 0.203524 24.5033 0.170438C24.5434 0.137353 24.5865 0.120306 24.6336 0.120306H30.6893C30.7424 0.120306 30.7865 0.137353 30.8196 0.170438C30.8527 0.203524 30.8698 0.243638 30.8698 0.29076V1.89489C30.8698 1.96808 30.8367 2.04228 30.7695 2.11547L28.8646 3.85998C28.8445 3.88003 28.8375 3.89706 28.8445 3.91009C28.8445 3.93015 28.8646 3.94019 28.9047 3.94019C29.7469 4.10762 30.3484 4.60891 30.7093 5.44407Z" fill="#252530"/>
</svg>
