<svg width="141" height="21" viewBox="0 0 141 21" fill="none" xmlns="http://www.w3.org/2000/svg">
<g clip-path="url(#clip0_4_13599)">
<g clip-path="url(#clip1_4_13599)">
<path d="M77.8797 0.798912H76.2621C76.196 0.798912 76.1631 0.834077 76.1631 0.904406V15.6032C76.1631 15.6735 76.196 15.7086 76.2621 15.7086H77.8797C77.9457 15.7086 77.9788 15.6735 77.9788 15.6032V0.904406C77.9457 0.834077 77.9127 0.798912 77.8797 0.798912Z" fill="#0C2D66"/>
<path d="M107.36 5.3703H109.175C109.208 5.3703 109.274 5.44063 109.274 5.47579V7.19885C109.274 7.26919 109.241 7.30435 109.175 7.30435H107.36C107.326 7.30435 107.293 7.33951 107.293 7.37468V15.6032C107.293 15.6735 107.26 15.7086 107.194 15.7086H105.576C105.511 15.7086 105.478 15.6735 105.478 15.6032V7.37468C105.478 7.33951 105.445 7.30435 105.411 7.30435H103.629C103.563 7.30435 103.53 7.26919 103.53 7.19885V5.47579C103.53 5.40546 103.563 5.3703 103.629 5.3703H105.411C105.445 5.3703 105.478 5.33513 105.478 5.29997V0.904406C105.478 0.834077 105.511 0.798912 105.576 0.798912H107.194C107.26 0.798912 107.293 0.834077 107.293 0.904406V5.29997C107.293 5.33513 107.326 5.3703 107.36 5.3703Z" fill="#0C2D66"/>
<path d="M110.892 2.06488H112.509C112.575 2.06488 112.608 2.10005 112.608 2.17037V3.89344C112.608 3.96376 112.575 3.99893 112.509 3.99893H110.892C110.826 3.99893 110.793 3.96376 110.793 3.89344V2.17037C110.793 2.10005 110.826 2.06488 110.892 2.06488Z" fill="#0C2D66"/>
<path d="M110.892 5.37035H112.509C112.575 5.37035 112.608 5.44068 112.608 5.47584V15.6032C112.608 15.6736 112.575 15.7087 112.509 15.7087H110.892C110.826 15.7087 110.793 15.6736 110.793 15.6032V5.47584C110.793 5.40552 110.826 5.37035 110.892 5.37035Z" fill="#0C2D66"/>
<path fill-rule="evenodd" clip-rule="evenodd" d="M128.158 13.9505C127.2 13.9505 126.374 13.5285 125.781 12.8252C125.747 12.7549 125.747 12.6845 125.814 12.6494L131.36 10.1528L132.978 9.4143C133.043 9.37915 133.043 9.3439 133.043 9.30875C132.515 6.88243 130.436 5.08904 127.992 5.19453C125.418 5.30003 123.272 7.51539 123.172 10.2582C123.041 13.3176 125.318 15.8493 128.19 15.8493C130.27 15.8493 132.053 14.4779 132.812 12.5439C132.845 12.4735 132.812 12.4032 132.746 12.4032L131.129 12.0868C131.096 12.0868 131.029 12.0868 131.029 12.1571C130.436 13.212 129.379 13.9505 128.158 13.9505ZM128.158 7.12861C129.114 7.12861 129.973 7.58576 130.534 8.28905C130.567 8.35938 130.567 8.4297 130.501 8.46487C130.501 8.46487 125.154 10.8912 125.087 10.9264C125.021 10.9615 124.956 10.8912 124.956 10.8561V10.5748C124.922 8.6407 126.374 7.12861 128.158 7.12861Z" fill="#0C2D66"/>
<path d="M121.357 5.37035H122.941C123.008 5.37035 123.041 5.44068 122.974 5.51101L119.706 15.6384C119.673 15.6736 119.64 15.7087 119.607 15.7087H117.362C117.297 15.7087 117.263 15.6736 117.263 15.6384L113.995 5.51101C113.995 5.44068 114.028 5.37035 114.094 5.37035H115.679C115.745 5.37035 115.777 5.40552 115.777 5.44068L118.353 13.4933C118.419 13.6692 118.617 13.6692 118.683 13.4933L121.257 5.44068C121.29 5.40552 121.324 5.37035 121.357 5.37035Z" fill="#0C2D66"/>
<path d="M98.5788 13.9504C96.598 13.9504 95.0465 12.0515 95.4096 9.87137C95.6077 8.67575 96.7301 7.44499 97.8525 7.19885C99.0739 6.91753 100.229 7.37466 100.955 8.25378C100.989 8.28895 101.055 8.28895 101.088 8.25378L102.243 7.02302C102.276 6.98786 102.276 6.91753 102.243 6.88236C101.286 5.75709 99.866 5.08897 98.3146 5.1593C95.7727 5.29996 93.6599 7.51532 93.5279 10.223C93.3959 13.2823 95.6737 15.8142 98.5457 15.8142C99.9984 15.8142 101.319 15.146 102.243 14.0911C102.276 14.0559 102.276 14.0208 102.243 13.9856L101.088 12.7549C101.055 12.7197 100.989 12.7197 100.955 12.7549C100.395 13.5285 99.5364 13.9504 98.5788 13.9504Z" fill="#0C2D66"/>
<path fill-rule="evenodd" clip-rule="evenodd" d="M87.7832 13.9504C86.8259 13.9504 86.0006 13.5285 85.4064 12.8252C85.3733 12.7549 85.3733 12.6846 85.4394 12.6493L90.9853 10.1527L92.603 9.41421C92.669 9.37906 92.669 9.34391 92.669 9.30875C92.1408 6.88237 90.0611 5.08898 87.6181 5.19447C85.0432 5.29996 82.8974 7.51533 82.7984 10.2581C82.6664 13.3175 84.9442 15.8493 87.8162 15.8493C89.896 15.8493 91.6786 14.4779 92.4379 12.5438C92.4709 12.4735 92.4379 12.4032 92.3719 12.4032L90.7543 12.0867C90.7213 12.0867 90.6553 12.0867 90.6553 12.1571C90.0611 13.212 88.9716 13.9504 87.7832 13.9504ZM87.7833 7.12853C88.7406 7.12853 89.5989 7.58568 90.1601 8.28897C90.1932 8.35929 90.1932 8.42962 90.1271 8.46479C90.1271 8.46479 84.7792 10.8911 84.7131 10.9263C84.6471 10.9615 84.5811 10.8912 84.5811 10.856V10.5747C84.5481 8.64061 86.0006 7.12853 87.7833 7.12853Z" fill="#0C2D66"/>
<path d="M79.7943 0.798912H81.4119C81.4449 0.798912 81.5109 0.834077 81.5109 0.904406V15.6032C81.5109 15.6735 81.4779 15.7086 81.4119 15.7086H79.7943C79.7283 15.7086 79.6953 15.6735 79.6953 15.6032V0.904406C79.6953 0.834077 79.7283 0.798912 79.7943 0.798912Z" fill="#0C2D66"/>
<path fill-rule="evenodd" clip-rule="evenodd" d="M64.9395 10.5395C64.9395 7.58568 67.1843 5.1945 69.9574 5.1945C72.7304 5.1945 74.9752 7.58568 74.9752 10.5395C74.9752 13.4933 72.7304 15.8845 69.9574 15.8845C67.1843 15.8845 64.9395 13.4933 64.9395 10.5395ZM73.1595 10.5395C73.1595 8.67578 71.74 7.12853 69.9573 7.12853C68.1746 7.12853 66.7551 8.67578 66.7551 10.5395C66.7551 12.4032 68.2077 13.9505 69.9573 13.9505C71.7069 13.9505 73.1595 12.4032 73.1595 10.5395Z" fill="#0C2D66"/>
<path d="M57.5776 9.87137C57.2144 12.0515 58.766 13.9504 60.7467 13.9504C61.704 13.9504 62.5624 13.5285 63.1235 12.7549C63.1566 12.7197 63.2226 12.7197 63.2556 12.7549L64.411 13.9856C64.444 14.0208 64.444 14.0559 64.411 14.0911C63.4867 15.146 62.1662 15.8142 60.7137 15.8142C57.8416 15.8142 55.5638 13.2823 55.6959 10.223C55.8279 7.51532 57.9407 5.29996 60.4826 5.1593C62.0342 5.08897 63.4537 5.75709 64.411 6.88236C64.444 6.91753 64.444 6.98786 64.411 7.02302L63.2556 8.25378C63.2226 8.28895 63.1566 8.28895 63.1235 8.25378C62.3973 7.37466 61.2419 6.91753 60.0204 7.19885C58.898 7.44499 57.7756 8.67575 57.5776 9.87137Z" fill="#0C2D66"/>
<path d="M46.2817 5.1945C45.2253 5.1945 44.0038 5.89779 43.4427 6.74173C43.4096 6.81206 43.2776 6.7769 43.2776 6.70657V5.47581C43.2776 5.44064 43.2445 5.37032 43.1785 5.37032H41.561C41.5279 5.37032 41.4619 5.40548 41.4619 5.47581V15.6383C41.4619 15.6735 41.495 15.7439 41.561 15.7439H43.1785C43.2116 15.7439 43.2776 15.7086 43.2776 15.6383V10.5747C43.2776 8.64061 44.4991 7.26921 46.2486 7.26921C48.5595 7.26921 49.2527 8.88677 49.2527 10.7857V15.6383C49.2527 15.6735 49.2858 15.7439 49.3518 15.7439H50.9693C51.0024 15.7439 51.0684 15.7086 51.0684 15.6383V10.7857C51.1014 7.83183 49.7809 5.1945 46.2817 5.1945Z" fill="#0C2D66"/>
<path fill-rule="evenodd" clip-rule="evenodd" d="M35.6182 13.9504C34.6608 13.9504 33.8355 13.5285 33.2413 12.8252C33.2083 12.7549 33.2083 12.6846 33.2743 12.6493L38.8203 10.1527L40.4379 9.41421C40.5039 9.37906 40.5039 9.34391 40.5039 9.30875C39.9758 6.88237 37.896 5.08898 35.4531 5.19447C32.8782 5.29996 30.7324 7.51533 30.6334 10.2581C30.5013 13.3175 32.7791 15.8493 35.6512 15.8493C37.7309 15.8493 39.5136 14.4779 40.2729 12.5438C40.3058 12.4735 40.2729 12.4032 40.2068 12.4032L38.5892 12.0867C38.5562 12.0867 38.4902 12.0867 38.4902 12.1571C37.896 13.212 36.8396 13.9504 35.6182 13.9504ZM35.6182 7.12853C36.5755 7.12853 37.4338 7.58568 37.995 8.28897C38.028 8.35929 38.028 8.42962 37.962 8.46479C37.962 8.46479 32.6141 10.8911 32.5481 10.9263C32.482 10.9615 32.416 10.8912 32.416 10.856V10.5747C32.416 8.64061 33.8685 7.12853 35.6182 7.12853Z" fill="#0C2D66"/>
<path fill-rule="evenodd" clip-rule="evenodd" d="M21.721 6.53073C22.4142 5.65161 23.4046 5.12415 24.659 5.08898C27.0689 5.05382 29.2477 6.88237 29.6438 9.44936C30.238 12.8252 27.7952 15.7789 24.7251 15.7789C23.4046 15.7789 22.3812 15.2163 21.6879 14.3372C21.6219 14.2669 21.5229 14.3021 21.5229 14.4076V20.2097C21.5229 20.2801 21.4899 20.3152 21.4239 20.3152H19.8393C19.7733 20.3152 19.7402 20.2801 19.7402 20.2097V5.47579C19.7402 5.40546 19.7733 5.37029 19.8393 5.37029H21.4568C21.5229 5.37029 21.5559 5.40546 21.5559 5.47579V6.4604C21.5559 6.56589 21.655 6.60105 21.721 6.53073ZM21.5889 9.87137C21.2258 12.1921 23.1074 14.1965 25.2862 13.8098C26.6067 13.5636 27.6961 12.4383 27.8942 11.0318C28.2573 8.7109 26.3757 6.70652 24.1969 7.09334C22.8764 7.30432 21.82 8.46474 21.5889 9.87137Z" fill="#0C2D66"/>
<path fill-rule="evenodd" clip-rule="evenodd" d="M13.7981 5.1945C11.0251 5.1945 8.78027 7.58568 8.78027 10.5395C8.78027 13.4933 11.0251 15.8845 13.7981 15.8845C16.5711 15.8845 18.8159 13.4933 18.8159 10.5395C18.8159 7.58568 16.5711 5.1945 13.7981 5.1945ZM13.7981 7.12853C15.5807 7.12853 17.0002 8.67577 17.0002 10.5394C17.0002 12.4032 15.5477 13.9505 13.7981 13.9505C12.0484 13.9505 10.5959 12.4032 10.5959 10.5394C10.5959 8.67577 12.0484 7.12853 13.7981 7.12853Z" fill="#0C2D66"/>
</g>
</g>
<defs>
<clipPath id="clip0_4_13599">
<rect width="141" height="21" fill="white"/>
</clipPath>
<clipPath id="clip1_4_13599">
<rect width="125.087" height="21" fill="white" transform="translate(7.95605)"/>
</clipPath>
</defs>
</svg>
