<svg width="61" height="12" viewBox="0 0 61 12" fill="none" xmlns="http://www.w3.org/2000/svg">
<path d="M5.1636 2.57044C5.12248 2.19073 4.95189 1.89501 4.65005 1.68329C4.35171 1.47156 3.96239 1.36571 3.4847 1.36571C3.14786 1.36571 2.85914 1.41645 2.61855 1.51794C2.37795 1.61943 2.19423 1.75678 2.06649 1.93089C1.93876 2.10499 1.87314 2.30359 1.87052 2.52669C1.87052 2.71304 1.91251 2.87402 1.9965 3.00963C2.08399 3.14611 2.20123 3.26247 2.34908 3.35783C2.49694 3.45057 2.66054 3.52931 2.84077 3.59318C3.02012 3.65617 3.20123 3.71041 3.38408 3.75328L4.2196 3.96238C4.55556 4.04112 4.87927 4.14699 5.18898 4.27997C5.50219 4.41295 5.78215 4.5818 6.02887 4.78478C6.27822 4.98775 6.47507 5.23273 6.62031 5.5197C6.76554 5.80666 6.83815 6.14349 6.83815 6.52845C6.83815 7.05076 6.7043 7.51007 6.43745 7.90727C6.17061 8.30184 5.78565 8.61068 5.28084 8.83378C4.77865 9.05425 4.17149 9.1645 3.45845 9.1645C2.76554 9.1645 2.16361 9.05687 1.65354 8.84253C1.14611 8.62818 0.748026 8.31498 0.461062 7.9029C0.177597 7.4917 0.0236221 6.98951 0 6.39809H1.58793C1.61155 6.70867 1.70692 6.96676 1.8749 7.17236C2.04288 7.37796 2.26247 7.53195 2.53193 7.63344C2.80403 7.73492 3.10849 7.78566 3.44533 7.78566C3.79616 7.78566 4.10325 7.73317 4.36746 7.62906C4.63431 7.52232 4.84252 7.37359 4.99388 7.18548C5.14436 6.99388 5.22135 6.77079 5.22397 6.51532C5.22135 6.28348 5.1531 6.09275 5.02012 5.94139C4.88626 5.78828 4.69904 5.66055 4.45844 5.55907C4.22047 5.45408 3.94226 5.36134 3.6238 5.27997L2.6098 5.01925C1.87664 4.83115 1.29659 4.54506 0.870513 4.16273C0.447065 3.7769 0.235343 3.2651 0.235343 2.62731C0.235343 2.10237 0.377075 1.64305 0.661415 1.24847C0.94838 0.853896 1.33859 0.547687 1.83115 0.330714C2.32459 0.110242 2.88277 0 3.50569 0C4.13824 0 4.69204 0.110242 5.16798 0.330714C5.64567 0.547687 6.02188 0.851263 6.29397 1.23971C6.56694 1.62554 6.70779 2.06912 6.71566 2.57044H5.1636ZM9.18548 11.5354C8.97113 11.5354 8.77253 11.5179 8.58968 11.483C8.41033 11.4515 8.26598 11.413 8.15924 11.3701L8.52407 10.1435C8.75329 10.21 8.95802 10.2415 9.13737 10.2389C9.3176 10.2362 9.47595 10.1794 9.61155 10.0691C9.75066 9.96239 9.86877 9.78217 9.96414 9.5302L10.0989 9.16886L7.6763 2.34908H9.34647L10.8863 7.39458H10.9563L12.4996 2.34908H14.175L11.4996 9.83903C11.3745 10.1925 11.21 10.4952 11.0035 10.748C10.7979 11.0026 10.5459 11.1977 10.2467 11.3307C9.95102 11.4672 9.59756 11.5354 9.18548 11.5354ZM16.839 5.11549V9.02976H15.2642V2.34908H16.769V3.48381H16.8478C17.0009 3.11024 17.2459 2.81277 17.5827 2.5923C17.9222 2.37183 18.3404 2.2616 18.8399 2.2616C19.301 2.2616 19.7026 2.36046 20.0446 2.55731C20.3893 2.75504 20.6562 3.04025 20.8443 3.4147C21.0359 3.78828 21.1304 4.24235 21.1278 4.77603V9.02976H19.553V5.01925C19.553 4.57306 19.4366 4.2231 19.2048 3.97113C18.9755 3.71917 18.6579 3.59318 18.252 3.59318C17.9773 3.59318 17.7314 3.65355 17.5171 3.77516C17.3054 3.89415 17.1391 4.06649 17.0166 4.29309C16.8985 4.51881 16.839 4.79353 16.839 5.11549ZM25.6422 9.16012C24.9755 9.16012 24.4025 9.01401 23.9239 8.72092C23.4488 8.42783 23.0823 8.02363 22.8242 7.50744C22.5687 6.98863 22.441 6.39109 22.441 5.71567C22.441 5.03676 22.5713 4.43833 22.832 3.91864C23.0936 3.39721 23.462 2.99126 23.937 2.7008C24.4156 2.40858 24.9808 2.2616 25.6334 2.2616C26.1759 2.2616 26.6562 2.3622 27.0735 2.56168C27.4935 2.7594 27.8286 3.0385 28.0779 3.40158C28.3272 3.76116 28.4699 4.18111 28.504 4.66317H26.9992C26.9388 4.34121 26.7936 4.07262 26.5643 3.85828C26.3386 3.64043 26.035 3.53194 25.6553 3.53194C25.3334 3.53194 25.0508 3.61856 24.8076 3.79266C24.5635 3.96414 24.3736 4.20997 24.2371 4.53193C24.1041 4.85389 24.0376 5.23973 24.0376 5.68943C24.0376 6.14437 24.1041 6.53632 24.2371 6.86353C24.371 7.18811 24.5582 7.43921 24.7988 7.61593C25.042 7.79004 25.3281 7.87752 25.6553 7.87752C25.8872 7.87752 26.0945 7.83378 26.2774 7.74629C26.4629 7.65706 26.6177 7.52757 26.7428 7.35959C26.8671 7.19161 26.9528 6.98688 26.9992 6.74629H28.504C28.4664 7.21873 28.3272 7.6378 28.0866 8.00351C27.8461 8.36571 27.5188 8.65005 27.1041 8.85565C26.6894 9.05862 26.2021 9.16012 25.6422 9.16012ZM35.7498 9.16012C35.0832 9.16012 34.5101 9.01401 34.0315 8.72092C33.5565 8.42783 33.189 8.02363 32.9309 7.50744C32.6763 6.98863 32.5486 6.39109 32.5486 5.71567C32.5486 5.03676 32.679 4.43833 32.9397 3.91864C33.2013 3.39721 33.5687 2.99126 34.0447 2.7008C34.5232 2.40858 35.0884 2.2616 35.7411 2.2616C36.2835 2.2616 36.763 2.3622 37.1812 2.56168C37.6011 2.7594 37.9362 3.0385 38.1855 3.40158C38.4349 3.76116 38.5766 4.18111 38.6116 4.66317H37.1068C37.0455 4.34121 36.9012 4.07262 36.672 3.85828C36.4454 3.64043 36.1427 3.53194 35.7629 3.53194C35.441 3.53194 35.1584 3.61856 34.9143 3.79266C34.6711 3.96414 34.4812 4.20997 34.3447 4.53193C34.2118 4.85389 34.1444 5.23973 34.1444 5.68943C34.1444 6.14437 34.2118 6.53632 34.3447 6.86353C34.4786 7.18811 34.665 7.43921 34.9056 7.61593C35.1497 7.79004 35.4349 7.87752 35.7629 7.87752C35.9948 7.87752 36.2021 7.83378 36.385 7.74629C36.5705 7.65706 36.7253 7.52757 36.8504 7.35959C36.9747 7.19161 37.0604 6.98688 37.1068 6.74629H38.6116C38.574 7.21873 38.4349 7.6378 38.1943 8.00351C37.9537 8.36571 37.6256 8.65005 37.2109 8.85565C36.7962 9.05862 36.3098 9.16012 35.7498 9.16012ZM42.819 9.16012C42.1663 9.16012 41.6011 9.01663 41.1225 8.72967C40.644 8.4427 40.273 8.04113 40.0088 7.52494C39.7481 7.00876 39.6177 6.40509 39.6177 5.71567C39.6177 5.02538 39.7481 4.42083 40.0088 3.90114C40.273 3.38233 40.644 2.97988 41.1225 2.69204C41.6011 2.40507 42.1663 2.2616 42.819 2.2616C43.4716 2.2616 44.0368 2.40507 44.5154 2.69204C44.9939 2.97988 45.3631 3.38233 45.6247 3.90114C45.8881 4.42083 46.0202 5.02538 46.0202 5.71567C46.0202 6.40509 45.8881 7.00876 45.6247 7.52494C45.3631 8.04113 44.9939 8.4427 44.5154 8.72967C44.0368 9.01663 43.4716 9.16012 42.819 9.16012ZM42.8277 7.89852C43.1812 7.89852 43.4769 7.8014 43.7148 7.60718C43.9528 7.41033 44.1295 7.14611 44.2459 6.8154C44.3649 6.48557 44.4235 6.11724 44.4235 5.71129C44.4235 5.30184 44.3649 4.93264 44.2459 4.60193C44.1295 4.26859 43.9528 4.00264 43.7148 3.80578C43.4769 3.60893 43.1812 3.51006 42.8277 3.51006C42.4655 3.51006 42.1637 3.60893 41.9231 3.80578C41.6851 4.00264 41.5066 4.26859 41.3876 4.60193C41.2721 4.93264 41.2135 5.30184 41.2135 5.71129C41.2135 6.11724 41.2721 6.48557 41.3876 6.8154C41.5066 7.14611 41.6851 7.41033 41.9231 7.60718C42.1637 7.8014 42.4655 7.89852 42.8277 7.89852ZM49.8356 9.14699C49.3107 9.14699 48.8417 9.01226 48.427 8.74279C48.0123 8.47332 47.6842 8.08138 47.4436 7.56869C47.203 7.05513 47.0823 6.43133 47.0823 5.69817C47.0823 4.95539 47.2048 4.32897 47.448 3.81891C47.6947 3.30535 48.0263 2.91863 48.4436 2.65792C48.8618 2.3937 49.3273 2.2616 49.84 2.2616C50.2319 2.2616 50.5539 2.32808 50.8058 2.46194C51.0578 2.5923 51.2582 2.75066 51.406 2.93614C51.5539 3.11899 51.6685 3.29135 51.7498 3.4532H51.8146V0.121603H53.3938V9.02976H51.8452V7.97726H51.7498C51.6685 8.13911 51.5512 8.31235 51.3973 8.49432C51.2442 8.67455 51.0403 8.82853 50.7883 8.95539C50.5364 9.08312 50.2188 9.14699 49.8356 9.14699ZM50.2748 7.85566C50.609 7.85566 50.8924 7.76554 51.1278 7.58531C51.3623 7.40333 51.5408 7.14962 51.6624 6.82416C51.7848 6.49957 51.8452 6.12162 51.8452 5.68943C51.8452 5.25723 51.7848 4.88189 51.6624 4.56256C51.5442 4.2441 51.3666 3.99564 51.1322 3.81891C50.9003 3.64218 50.6142 3.55381 50.2748 3.55381C49.924 3.55381 49.6317 3.6448 49.3964 3.82765C49.1619 4.0105 48.9852 4.26248 48.8662 4.58444C48.7472 4.9064 48.6877 5.27473 48.6877 5.68943C48.6877 6.10675 48.7472 6.47945 48.8662 6.80754C48.9878 7.13212 49.1663 7.38846 49.4008 7.57657C49.6387 7.76292 49.9301 7.85566 50.2748 7.85566ZM58.0298 9.16012C57.3597 9.16012 56.7813 9.02101 56.294 8.74279C55.8093 8.46107 55.4375 8.06387 55.1759 7.55119C54.9152 7.035 54.7848 6.42696 54.7848 5.72879C54.7848 5.04113 54.9152 4.43833 55.1759 3.91864C55.4401 3.39721 55.8085 2.99126 56.2809 2.7008C56.7533 2.40858 57.3089 2.2616 57.9467 2.2616C58.3588 2.2616 58.7472 2.32808 59.1129 2.46194C59.4804 2.5923 59.8058 2.79527 60.0867 3.07087C60.371 3.34646 60.5941 3.69729 60.7568 4.12336C60.9187 4.54681 61.0001 5.05162 61.0001 5.63692V6.11986H55.5241V5.05862H59.4909C59.4883 4.75678 59.4227 4.48907 59.2949 4.25372C59.1681 4.01575 58.9896 3.8294 58.7603 3.69291C58.5338 3.55643 58.2704 3.48819 57.9686 3.48819C57.6466 3.48819 57.364 3.56693 57.1208 3.72354C56.8767 3.87664 56.6869 4.07962 56.5504 4.33246C56.4174 4.5818 56.3491 4.85566 56.3465 5.15399V6.08049C56.3465 6.46895 56.4174 6.80315 56.5591 7.08137C56.7017 7.35696 56.9003 7.56868 57.1549 7.71654C57.4104 7.8609 57.7087 7.93351 58.0508 7.93351C58.28 7.93351 58.4874 7.90202 58.6729 7.83815C58.8592 7.77166 59.0193 7.67454 59.1558 7.54681C59.2923 7.41907 59.3955 7.26073 59.4646 7.07262L60.9353 7.23797C60.8426 7.62643 60.665 7.96589 60.4043 8.25548C60.1462 8.54245 59.8155 8.76554 59.413 8.92564C59.0097 9.08225 58.5486 9.16012 58.0298 9.16012Z" fill="white"/>
</svg>
