<svg width="5" height="5" viewBox="0 0 5 5" fill="none" xmlns="http://www.w3.org/2000/svg">
<path d="M3.27264 0.211795C3.5924 0.353682 3.84225 0.545944 4.02013 0.791675C4.198 1.03638 4.28848 1.3109 4.28848 1.61215V4.81078C4.28848 4.84163 4.27716 4.86937 4.25454 4.89096C4.23192 4.91256 4.20622 4.92386 4.17538 4.92386H3.07525C3.04441 4.92386 3.01767 4.91358 2.99505 4.89096C2.97346 4.86937 2.96112 4.84163 2.96112 4.81078V4.49924C2.96112 4.48073 2.95494 4.4684 2.94261 4.46223C2.93027 4.45503 2.91691 4.46222 2.90458 4.48073C2.64137 4.82722 2.21878 4.99995 1.63581 4.99995C1.14743 4.99995 0.752627 4.87966 0.451375 4.64112C0.150123 4.40259 0 4.04993 0 3.58417C0 3.11944 0.16965 2.72463 0.507916 2.45628C0.846182 2.18895 1.3284 2.05633 1.95558 2.05633H2.91485C2.9457 2.05633 2.96112 2.03987 2.96112 2.00903V1.80134C2.96112 1.59365 2.8984 1.43223 2.77296 1.31605C2.64856 1.19987 2.4604 1.14228 2.20953 1.14228C2.01418 1.14228 1.85378 1.17724 1.72629 1.24612C1.59674 1.31501 1.51347 1.41268 1.47748 1.53812C1.45898 1.60701 1.41785 1.63889 1.35513 1.63272L0.217977 1.48158C0.142921 1.46924 0.107965 1.44147 0.114134 1.39623C0.139838 1.13302 0.244702 0.89347 0.429772 0.679612C0.614841 0.465754 0.859558 0.299183 1.16287 0.179916C1.4672 0.059621 1.80649 0 2.18383 0C2.59098 0 2.95496 0.0699159 3.27472 0.212831L3.27264 0.211795ZM2.68043 3.79186C2.86859 3.64791 2.96317 3.46182 2.96317 3.23562V2.8953C2.96317 2.86446 2.94672 2.848 2.91587 2.848H2.23935C1.95661 2.848 1.73555 2.9025 1.57516 3.0084C1.4158 3.11533 1.33456 3.26647 1.33456 3.46182C1.33456 3.63146 1.39419 3.76513 1.51346 3.86384C1.63272 3.96048 1.79313 4.0088 1.99362 4.0088C2.263 4.0088 2.49124 3.9358 2.6794 3.79186H2.68043Z" fill="white"/>
</svg>
