<svg width="24" height="20" viewBox="0 0 24 20" fill="none" xmlns="http://www.w3.org/2000/svg">
<path d="M21.5577 4.83757C22.4971 4.13307 23.3425 3.28767 24 2.30137C23.1546 2.6771 22.1683 2.9589 21.182 3.05284C22.2153 2.44227 22.9667 1.50294 23.3425 0.328767C22.4031 0.892368 21.3229 1.31507 20.2427 1.5499C19.3033 0.563601 18.0352 0 16.6262 0C13.9022 0 11.6947 2.20744 11.6947 4.93151C11.6947 5.30724 11.7417 5.68297 11.8356 6.05871C7.74951 5.82387 4.08611 3.85127 1.64384 0.892368C1.22114 1.59687 0.986301 2.44227 0.986301 3.3816C0.986301 5.07241 1.8317 6.57534 3.19374 7.46771C2.3953 7.42074 1.59687 7.23288 0.939335 6.85714V6.90411C0.939335 9.29941 2.63014 11.272 4.88454 11.7417C4.50881 11.8356 4.03914 11.9295 3.61644 11.9295C3.28767 11.9295 3.00587 11.8826 2.6771 11.8356C3.28767 13.8082 5.11937 15.2172 7.27984 15.2642C5.58904 16.5793 3.47554 17.3777 1.17417 17.3777C0.751468 17.3777 0.375734 17.3307 0 17.2838C2.16047 18.6928 4.74364 19.4912 7.56164 19.4912C16.6262 19.4912 21.5577 12.0235 21.5577 5.49511C21.5577 5.26027 21.5577 5.07241 21.5577 4.83757Z" fill="#8089AB"/>
</svg>
