<svg width="9" height="13" viewBox="0 0 9 13" fill="none" xmlns="http://www.w3.org/2000/svg">
<path d="M1.1877 11.8358C0.39659 11.0591 0 10.0036 0 8.6663V4.26089C0 2.93692 0.39659 1.89476 1.1877 1.13747C1.9788 0.378133 3.064 0 4.44434 0C5.82365 0 6.91502 0.382227 7.71842 1.14567C8.5208 1.91013 8.92454 2.94819 8.92454 4.26089V8.6663C8.92454 10.0036 8.52285 11.0591 7.71842 11.8358C6.91502 12.6126 5.82263 13 4.44434 13C3.06503 13 1.97983 12.6126 1.1877 11.8358ZM5.53262 9.99335C5.80213 9.71154 5.93637 9.32316 5.93637 8.82923V4.15228C5.93637 3.65938 5.80111 3.27099 5.53262 2.98714C5.26209 2.70533 4.89933 2.56289 4.44434 2.56289C3.98935 2.56289 3.64607 2.70431 3.38271 2.98714C3.11832 3.27099 2.98612 3.65938 2.98612 4.15228V8.82923C2.98612 9.32214 3.11524 9.71052 3.37348 9.99335C3.63172 10.2772 3.9873 10.4186 4.44434 10.4186C4.90035 10.4186 5.26311 10.2772 5.53262 9.99335Z" fill="#252530"/>
</svg>
