<svg width="20" height="21" viewBox="0 0 20 21" fill="none" xmlns="http://www.w3.org/2000/svg">
<path fill-rule="evenodd" clip-rule="evenodd" d="M4.37463 7.16669C3.31179 8.20835 2.3743 8.87485 2.29129 8.91636C2.16677 9.00018 2.02108 9.04172 1.87459 9.06288C1.62476 9.06288 1.39527 8.93754 1.2496 8.72921C1.0201 8.37521 1.12426 7.91704 1.45793 7.68754C1.45935 7.68612 1.47063 7.67801 1.49081 7.66349C1.77271 7.4607 3.79167 6.00836 4.95813 4.084H1.58334C1.16668 4.084 0.833008 3.75033 0.833008 3.33367C0.833008 2.917 1.16668 2.58333 1.58334 2.58333H3.83272V1.25033C3.83272 0.833667 4.16638 0.5 4.58305 0.5C4.99972 0.5 5.33338 0.833667 5.33338 1.25033V2.58333L7.60463 2.58252C8.0213 2.58252 8.35497 2.91619 8.35497 3.33285C8.35497 3.74952 8.0213 4.08319 7.60463 4.08319H6.64597C6.3123 4.81235 5.8753 5.47885 5.39597 6.06235L7.2083 7.77052C7.50046 8.06269 7.52079 8.54202 7.22946 8.83335C7.08296 8.97985 6.89579 9.06286 6.68746 9.06286C6.50029 9.06286 6.3123 9.00019 6.16663 8.85452L4.37463 7.16669ZM16.5207 13.0001L19.1461 19.2501C19.3129 19.6253 19.1248 20.0623 18.748 20.2291C18.6439 20.2706 18.5608 20.2918 18.4567 20.2918C18.1645 20.2918 17.8943 20.1249 17.769 19.8336L17.3735 18.8749H14.29L13.8945 19.8336C13.7276 20.2079 13.2906 20.3959 12.9155 20.2291C12.5411 20.0623 12.3531 19.6253 12.52 19.2501L15.1454 13.0001C15.3749 12.4378 16.2912 12.4378 16.5207 13.0001ZM15.8331 15.2089L14.9168 17.3751H16.7494L15.8331 15.2089ZM15.0836 8.24989V8.31255L14.3333 7.56221C14.042 7.27088 13.5626 7.27088 13.2705 7.56221C12.9791 7.85355 12.9791 8.33288 13.2705 8.62505L15.2911 10.6457C15.4368 10.7914 15.6248 10.8752 15.812 10.8752C16.0203 10.8752 16.2075 10.7922 16.3328 10.6457L18.3535 8.62505C18.6448 8.33371 18.6448 7.85438 18.3535 7.56221C18.0621 7.27088 17.5828 7.27088 17.2906 7.56221L16.5623 8.31255V8.22954C16.5623 5.18746 14.0835 2.70871 11.0414 2.70871C10.6248 2.70871 10.2911 3.04238 10.2911 3.45904C10.2911 3.87571 10.6248 4.20937 11.0414 4.20937C13.2712 4.20856 15.0836 6.02078 15.0836 8.24989ZM9.18755 17.3337H10.1251C10.5418 17.3337 10.8958 17.6665 10.8966 18.0831C10.8966 18.4998 10.5629 18.8335 10.1462 18.8335H9.18753C6.14544 18.8335 3.66669 16.3547 3.66669 13.3126L3.66751 12.8748L2.91717 13.6251C2.62501 13.9165 2.14567 13.9165 1.85434 13.6251C1.56301 13.333 1.56301 12.8536 1.85434 12.5623L3.87501 10.5416C4.16717 10.2706 4.66684 10.2706 4.93784 10.5416L6.95851 12.5623C7.24984 12.8545 7.24984 13.3338 6.95851 13.6251C6.81284 13.7716 6.62485 13.8546 6.43767 13.8546C6.25051 13.8546 6.06251 13.7708 5.91684 13.6251L5.16651 12.8748V13.3126C5.16651 15.5213 6.95859 17.3337 9.18755 17.3337Z" fill="#4E5052" stroke="#6E747A"/>
</svg>
