<svg width="54" height="54" viewBox="0 0 54 54" fill="none" xmlns="http://www.w3.org/2000/svg">
<g clip-path="url(#clip0_2_8996)">
<path d="M54 0H0V54H54V0Z" fill="black"/>
<path d="M48.1296 12.9727H5.76496C5.26051 12.9727 4.85156 13.3816 4.85156 13.8861V40.1139C4.85156 40.6184 5.26051 41.0273 5.76496 41.0273H48.1296C48.634 41.0273 49.043 40.6184 49.043 40.1139V13.8861C49.043 13.3816 48.634 12.9727 48.1296 12.9727Z" fill="url(#paint0_linear_2_8996)"/>
<path d="M44.0859 16.2422H32.8008C31.4611 16.2422 30.375 17.3282 30.375 18.668C30.375 20.0077 31.4611 21.0938 32.8008 21.0938H44.0859C45.4257 21.0938 46.5117 20.0077 46.5117 18.668C46.5117 17.3282 45.4257 16.2422 44.0859 16.2422Z" fill="#D9D9D9"/>
<path d="M48.1296 12.9727H44.7884C44.2839 12.9727 43.875 13.3816 43.875 13.8861V40.1139C43.875 40.6184 44.2839 41.0273 44.7884 41.0273H48.1296C48.634 41.0273 49.043 40.6184 49.043 40.1139V13.8861C49.043 13.3816 48.634 12.9727 48.1296 12.9727Z" fill="#FCA326"/>
<path d="M49.043 14.4492H43.875V16.3477H49.043V14.4492Z" fill="#242424"/>
<path d="M49.043 17.4023H43.875V19.3008H49.043V17.4023Z" fill="#242424"/>
<path d="M49.043 20.3555H43.875V22.2539H49.043V20.3555Z" fill="#242424"/>
<path d="M49.043 23.3086H43.875V25.207H49.043V23.3086Z" fill="#242424"/>
<path d="M49.043 26.2617H43.875V28.1602H49.043V26.2617Z" fill="#242424"/>
<path d="M49.043 29.2148H43.875V31.1133H49.043V29.2148Z" fill="#242424"/>
<path d="M49.043 32.168H43.875V34.0664H49.043V32.168Z" fill="#242424"/>
<path d="M49.043 35.1211H43.875V37.0195H49.043V35.1211Z" fill="#242424"/>
<path d="M49.043 38.0742H43.875V39.9727H49.043V38.0742Z" fill="#242424"/>
</g>
<defs>
<linearGradient id="paint0_linear_2_8996" x1="26.9473" y1="12.9727" x2="26.9473" y2="41.0273" gradientUnits="userSpaceOnUse">
<stop stop-color="#E55ADA"/>
<stop offset="1" stop-color="#FA140F"/>
</linearGradient>
<clipPath id="clip0_2_8996">
<rect width="54" height="54" fill="white"/>
</clipPath>
</defs>
</svg>
