<svg width="143" height="12" viewBox="0 0 143 12" fill="none" xmlns="http://www.w3.org/2000/svg">
<path d="M1.75586 0.42702L4.05592 7.38275H4.14703L6.44277 0.42702H8.20295L5.0879 9.26446H3.11158L0 0.42702H1.75586ZM14.1692 2.85641C14.1293 2.47972 13.96 2.18635 13.6606 1.97631C13.3638 1.76626 12.9784 1.66125 12.5036 1.66125C12.1704 1.66125 11.8839 1.71159 11.6452 1.81227C11.4065 1.91295 11.2243 2.04922 11.0976 2.22194C10.9709 2.39466 10.9058 2.59169 10.9032 2.81301C10.9032 2.99788 10.9448 3.15759 11.0281 3.29212C11.1149 3.42752 11.2312 3.54295 11.3779 3.63756C11.5246 3.72956 11.6869 3.80767 11.8657 3.87103C12.0436 3.93353 12.2233 3.98734 12.4047 4.02987L13.2336 4.2373C13.5669 4.31542 13.888 4.42045 14.1953 4.55238C14.506 4.6843 14.7837 4.85181 15.0285 5.05318C15.2759 5.25454 15.4711 5.49757 15.6152 5.78226C15.7593 6.06695 15.8313 6.40111 15.8313 6.783C15.8313 7.30117 15.6986 7.75683 15.4338 8.15088C15.1691 8.54232 14.7863 8.84871 14.2864 9.07004C13.7882 9.28876 13.1858 9.39813 12.4785 9.39813C11.7902 9.39813 11.1939 9.29136 10.687 9.07871C10.1836 8.86607 9.78956 8.55535 9.50487 8.14655C9.22279 7.73861 9.07092 7.24041 9.04748 6.65368H10.6228C10.6453 6.9618 10.7408 7.21784 10.9075 7.42181C11.0741 7.62577 11.2911 7.77854 11.5593 7.87922C11.8292 7.9799 12.1313 8.03024 12.4654 8.03024C12.8135 8.03024 13.1181 7.97816 13.3803 7.87488C13.645 7.76899 13.8515 7.62143 14.0017 7.43482C14.151 7.24474 14.2274 7.02343 14.23 6.76999C14.2274 6.53998 14.1597 6.35076 14.0269 6.20061C13.895 6.04872 13.7092 5.922 13.4705 5.82132C13.2344 5.71716 12.9584 5.62516 12.6425 5.54444L11.6366 5.28579C10.9092 5.09918 10.3338 4.81536 9.91109 4.43607C9.491 4.0533 9.28095 3.54556 9.28095 2.91283C9.28095 2.39206 9.42155 1.93639 9.70364 1.54494C9.98832 1.1535 10.3754 0.849722 10.8641 0.634471C11.3536 0.415749 11.9074 0.306382 12.5253 0.306382C13.1529 0.306382 13.7023 0.415749 14.1736 0.634471C14.6483 0.849722 15.0216 1.15089 15.2915 1.53626C15.5623 1.91902 15.7012 2.35908 15.7098 2.85641H14.1692ZM27.8368 3.40929H26.2224C26.1764 3.14456 26.0922 2.91022 25.9681 2.70538C25.8448 2.49881 25.6903 2.32263 25.5063 2.17941C25.3223 2.03534 25.1123 1.92771 24.8762 1.85567C24.6436 1.78103 24.3919 1.74371 24.1211 1.74371C23.6411 1.74371 23.215 1.86434 22.8444 2.10563C22.4729 2.34432 22.1821 2.69584 21.9721 3.15845C21.762 3.61933 21.657 4.18089 21.657 4.84574C21.657 5.52187 21.762 6.09125 21.9721 6.55473C22.1856 7.01475 22.4755 7.36278 22.8444 7.59886C23.215 7.83147 23.6394 7.94864 24.1168 7.94864C24.3815 7.94864 24.6288 7.91393 24.8588 7.8445C25.0923 7.77246 25.3006 7.66831 25.4846 7.52944C25.6721 7.39143 25.8283 7.22217 25.9551 7.02081C26.0844 6.81945 26.1738 6.58945 26.2224 6.32993L27.8368 6.33861C27.776 6.75869 27.645 7.15274 27.4436 7.52075C27.2457 7.88963 26.9853 8.21425 26.6624 8.49633C26.3404 8.77581 25.9637 8.99366 25.5324 9.15249C25.101 9.30786 24.6219 9.38511 24.095 9.38511C23.3191 9.38511 22.6256 9.20544 22.0155 8.84611C21.4053 8.48591 20.9253 7.96688 20.5747 7.28815C20.2231 6.60942 20.0478 5.79527 20.0478 4.84574C20.0478 3.8936 20.2249 3.07947 20.579 2.40334C20.9323 1.72461 21.414 1.20558 22.0241 0.845379C22.6343 0.486049 23.3243 0.306382 24.095 0.306382C24.5872 0.306382 25.0446 0.375817 25.4673 0.51382C25.8909 0.651824 26.2675 0.854059 26.5982 1.12225C26.9289 1.38698 27.2006 1.71159 27.4141 2.09696C27.6293 2.47972 27.7708 2.91716 27.8368 3.40929ZM32.1244 9.39378C31.4778 9.39378 30.9163 9.25144 30.4415 8.96675C29.9667 8.68206 29.5987 8.28368 29.3375 7.77159C29.0779 7.2595 28.9486 6.66062 28.9486 5.97668C28.9486 5.29187 29.0779 4.69212 29.3375 4.17656C29.5987 3.66186 29.9667 3.2626 30.4415 2.97705C30.9163 2.69236 31.4778 2.55003 32.1244 2.55003C32.7719 2.55003 33.3326 2.69236 33.8074 2.97705C34.2821 3.2626 34.6493 3.66186 34.9079 4.17656C35.1701 4.69212 35.3002 5.29187 35.3002 5.97668C35.3002 6.66062 35.1701 7.2595 34.9079 7.77159C34.6493 8.28368 34.2821 8.68206 33.8074 8.96675C33.3326 9.25144 32.7719 9.39378 32.1244 9.39378ZM32.1331 8.1422C32.4846 8.1422 32.778 8.04585 33.0132 7.85317C33.2493 7.65788 33.4246 7.39576 33.5401 7.06768C33.6581 6.74046 33.7171 6.37506 33.7171 5.97234C33.7171 5.56614 33.6581 5.19986 33.5401 4.87178C33.4246 4.54109 33.2493 4.27724 33.0132 4.08196C32.778 3.88667 32.4846 3.78858 32.1331 3.78858C31.7738 3.78858 31.4743 3.88667 31.2357 4.08196C30.9996 4.27724 30.8234 4.54109 30.7053 4.87178C30.5899 5.19986 30.5326 5.56614 30.5326 5.97234C30.5326 6.37506 30.5899 6.74046 30.7053 7.06768C30.8234 7.39576 30.9996 7.65788 31.2357 7.85317C31.4743 8.04585 31.7738 8.1422 32.1331 8.1422ZM39.0862 9.38076C38.5655 9.38076 38.0994 9.2471 37.688 8.97977C37.2766 8.71244 36.9511 8.3236 36.7124 7.81499C36.4737 7.3055 36.3548 6.68666 36.3548 5.95932C36.3548 5.22243 36.4755 4.60099 36.7167 4.09497C36.9615 3.58549 37.2913 3.20185 37.7053 2.9432C38.1193 2.68108 38.5811 2.55003 39.0906 2.55003C39.4785 2.55003 39.7979 2.61598 40.0479 2.74878C40.2987 2.8781 40.4966 3.03521 40.6433 3.21921C40.79 3.40061 40.9037 3.5716 40.9844 3.73217H41.0495V0.42702H42.6153V9.26446H41.0799V8.22032H40.9844C40.9037 8.38089 40.7874 8.55274 40.6346 8.73327C40.4827 8.91207 40.2814 9.06482 40.0306 9.19068C39.7806 9.3174 39.4655 9.38076 39.0862 9.38076ZM39.5219 8.09968C39.8526 8.09968 40.1347 8.01027 40.3673 7.83148C40.6008 7.65094 40.7779 7.39924 40.8985 7.07637C41.0192 6.75436 41.0799 6.37941 41.0799 5.95064C41.0799 5.52188 41.0192 5.14952 40.8985 4.83272C40.7805 4.51679 40.6051 4.2703 40.3717 4.09497C40.1417 3.91965 39.8587 3.83198 39.5219 3.83198C39.1739 3.83198 38.8831 3.92225 38.6505 4.10365C38.4171 4.28505 38.2417 4.53502 38.1237 4.85443C38.0057 5.17383 37.9466 5.53924 37.9466 5.95064C37.9466 6.36465 38.0057 6.7344 38.1237 7.05988C38.2443 7.38189 38.4214 7.63619 38.6549 7.8228C38.8901 8.00767 39.1791 8.09968 39.5219 8.09968ZM47.2146 9.39378C46.5497 9.39378 45.976 9.25578 45.4925 8.97977C45.0126 8.70029 44.6428 8.30624 44.3842 7.79763C44.1247 7.28554 43.9953 6.68232 43.9953 5.9897C43.9953 5.30749 44.1247 4.70948 44.3842 4.19392C44.6454 3.67662 45.0108 3.2739 45.4795 2.98574C45.9491 2.69584 46.4994 2.55003 47.1321 2.55003C47.5409 2.55003 47.9263 2.61598 48.2891 2.74878C48.6545 2.8781 48.9765 3.07947 49.2551 3.35287C49.5372 3.62627 49.7594 3.97432 49.9199 4.39701C50.0814 4.8171 50.1621 5.3179 50.1621 5.89856V6.37766H44.7288V5.32485H48.664C48.6614 5.02541 48.5963 4.75982 48.4705 4.52634C48.3438 4.29026 48.1667 4.10538 47.9393 3.96998C47.7154 3.83458 47.4532 3.76688 47.1538 3.76688C46.8344 3.76688 46.5541 3.845 46.3128 4.00036C46.0706 4.15225 45.8823 4.35361 45.7477 4.60445C45.6149 4.85181 45.5472 5.12349 45.5446 5.41946V6.33861C45.5446 6.72398 45.6149 7.05553 45.7564 7.33154C45.897 7.60494 46.094 7.81498 46.3475 7.96166C46.6 8.10487 46.8969 8.17692 47.2363 8.17692C47.4637 8.17692 47.6694 8.14567 47.8534 8.08231C48.0374 8.01635 48.1971 7.92 48.3325 7.79328C48.467 7.66656 48.5694 7.50947 48.6389 7.32286L50.097 7.4869C50.005 7.87227 49.8297 8.20904 49.5702 8.49633C49.3141 8.78102 48.9869 9.00233 48.5868 9.16117C48.1867 9.31653 47.7293 9.39378 47.2146 9.39378ZM53.3171 8.05628L53.2607 8.53104C53.2207 8.89297 53.1487 9.26185 53.0454 9.63593C52.9447 10.0126 52.838 10.3589 52.726 10.6757C52.614 10.9917 52.5229 11.2408 52.4543 11.4222H51.4015C51.4414 11.2468 51.4961 11.0082 51.5656 10.7061C51.6367 10.4041 51.7062 10.0638 51.7721 9.68715C51.8381 9.31046 51.8832 8.92769 51.9058 8.53972L51.9362 8.05628H53.3171ZM59.0117 9.26446H57.3036L60.4143 0.42702H62.3906L65.5065 9.26446H63.7975L61.4367 2.2393H61.3681L59.0117 9.26446ZM59.0681 5.79961H63.7281V7.08504H59.0681V5.79961ZM68.1633 5.38127V9.26446H66.601V2.63682H68.0939V3.76254H68.172C68.3239 3.39193 68.5669 3.09683 68.9011 2.87811C69.2378 2.65938 69.6536 2.55003 70.1483 2.55003C70.6057 2.55003 71.0041 2.64811 71.3435 2.84339C71.6854 3.03955 71.9502 3.3225 72.1376 3.69398C72.3269 4.06459 72.4206 4.51505 72.418 5.0445V9.26446H70.8557V5.28579C70.8557 4.84314 70.7402 4.49596 70.5102 4.24599C70.2828 3.99602 69.9686 3.87103 69.5659 3.87103C69.2925 3.87103 69.0495 3.93093 68.836 4.05157C68.6259 4.16961 68.461 4.3406 68.3404 4.56539C68.2223 4.78932 68.1633 5.06186 68.1633 5.38127ZM76.4652 9.38076C75.9444 9.38076 75.4784 9.2471 75.067 8.97977C74.6556 8.71244 74.3309 8.3236 74.0922 7.81499C73.8536 7.3055 73.7338 6.68666 73.7338 5.95932C73.7338 5.22243 73.8544 4.60099 74.0966 4.09497C74.3405 3.58549 74.6703 3.20185 75.0843 2.9432C75.4983 2.68108 75.9601 2.55003 76.4696 2.55003C76.8584 2.55003 77.1769 2.61598 77.4278 2.74878C77.6777 2.8781 77.8765 3.03521 78.0232 3.21921C78.1699 3.40061 78.2836 3.5716 78.3643 3.73217H78.4285V0.42702H79.9951V9.26446H78.4589V8.22032H78.3643C78.2836 8.38089 78.1673 8.55274 78.0145 8.73327C77.8617 8.91207 77.6604 9.06482 77.4104 9.19068C77.1604 9.3174 76.8454 9.38076 76.4652 9.38076ZM76.9009 8.09968C77.2316 8.09968 77.5137 8.01027 77.7472 7.83148C77.9798 7.65094 78.1569 7.39924 78.2775 7.07637C78.3981 6.75436 78.4589 6.37941 78.4589 5.95064C78.4589 5.52188 78.3981 5.14952 78.2775 4.83272C78.1595 4.51679 77.9841 4.2703 77.7515 4.09497C77.5206 3.91965 77.2377 3.83198 76.9009 3.83198C76.5529 3.83198 76.2621 3.92225 76.0295 4.10365C75.7969 4.28505 75.6207 4.53502 75.5027 4.85443C75.3855 5.17383 75.3265 5.53924 75.3265 5.95064C75.3265 6.36465 75.3855 6.7344 75.5027 7.05988C75.6242 7.38189 75.8004 7.63619 76.0338 7.8228C76.2699 8.00767 76.559 8.09968 76.9009 8.09968ZM81.6599 9.26446V2.63682H83.1744V3.74085H83.243C83.3636 3.35895 83.5711 3.06385 83.8645 2.85641C84.1613 2.64637 84.4989 2.54134 84.8782 2.54134C84.965 2.54134 85.0614 2.54568 85.1681 2.55436C85.2775 2.56044 85.3677 2.56999 85.4398 2.58474V4.02207C85.3738 3.99863 85.2688 3.97866 85.1247 3.9613C84.9832 3.94134 84.847 3.93092 84.7151 3.93092C84.4295 3.93092 84.1734 3.99255 83.9469 4.11667C83.7221 4.23731 83.5451 4.40569 83.4157 4.62181C83.2864 4.83706 83.2213 5.08616 83.2213 5.36825V9.26446H81.6599ZM89.0956 9.39378C88.4481 9.39378 87.8874 9.25144 87.4126 8.96675C86.9379 8.68206 86.5698 8.28368 86.3077 7.77159C86.0491 7.2595 85.9198 6.66062 85.9198 5.97668C85.9198 5.29187 86.0491 4.69212 86.3077 4.17656C86.5698 3.66186 86.9379 3.2626 87.4126 2.97705C87.8874 2.69236 88.4481 2.55003 89.0956 2.55003C89.7431 2.55003 90.3037 2.69236 90.7785 2.97705C91.2533 3.2626 91.6196 3.66186 91.8791 4.17656C92.1403 4.69212 92.2714 5.29187 92.2714 5.97668C92.2714 6.66062 92.1403 7.2595 91.8791 7.77159C91.6196 8.28368 91.2533 8.68206 90.7785 8.96675C90.3037 9.25144 89.7431 9.39378 89.0956 9.39378ZM89.1043 8.1422C89.4549 8.1422 89.7483 8.04585 89.9843 7.85317C90.2204 7.65788 90.3958 7.39576 90.5112 7.06768C90.6292 6.74046 90.6874 6.37506 90.6874 5.97234C90.6874 5.56614 90.6292 5.19986 90.5112 4.87178C90.3958 4.54109 90.2204 4.27724 89.9843 4.08196C89.7483 3.88667 89.4549 3.78858 89.1043 3.78858C88.7449 3.78858 88.4455 3.88667 88.2068 4.08196C87.9707 4.27724 87.7936 4.54109 87.6756 4.87178C87.561 5.19986 87.5029 5.56614 87.5029 5.97234C87.5029 6.37506 87.561 6.74046 87.6756 7.06768C87.7936 7.39576 87.9707 7.65788 88.2068 7.85317C88.4455 8.04585 88.7449 8.1422 89.1043 8.1422ZM93.5976 9.26446V2.63682H95.159V9.26446H93.5976ZM94.3822 1.69596C94.1349 1.69596 93.9222 1.61351 93.7443 1.44947C93.5655 1.28282 93.4761 1.08319 93.4761 0.84971C93.4761 0.614496 93.5655 0.414006 93.7443 0.249964C93.9222 0.083318 94.1349 0 94.3822 0C94.6331 0 94.8457 0.083318 95.021 0.249964C95.1998 0.414006 95.2884 0.614496 95.2884 0.84971C95.2884 1.08319 95.1998 1.28282 95.021 1.44947C94.8457 1.61351 94.6331 1.69596 94.3822 1.69596ZM99.2254 9.38076C98.7046 9.38076 98.2385 9.2471 97.8271 8.97977C97.4157 8.71244 97.0902 8.3236 96.8516 7.81499C96.6129 7.3055 96.4939 6.68666 96.4939 5.95932C96.4939 5.22243 96.6146 4.60099 96.8559 4.09497C97.1006 3.58549 97.4304 3.20185 97.8445 2.9432C98.2585 2.68108 98.7202 2.55003 99.2297 2.55003C99.6177 2.55003 99.9371 2.61598 100.187 2.74878C100.438 2.8781 100.636 3.03521 100.783 3.21921C100.93 3.40061 101.043 3.5716 101.124 3.73217H101.189V0.42702H102.755V9.26446H101.219V8.22032H101.124C101.043 8.38089 100.927 8.55274 100.775 8.73327C100.622 8.91207 100.421 9.06482 100.171 9.19068C99.9197 9.3174 99.6047 9.38076 99.2254 9.38076ZM99.6611 8.09968C99.9918 8.09968 100.274 8.01027 100.506 7.83148C100.74 7.65094 100.917 7.39924 101.038 7.07637C101.158 6.75436 101.219 6.37941 101.219 5.95064C101.219 5.52188 101.158 5.14952 101.038 4.83272C100.92 4.51679 100.744 4.2703 100.511 4.09497C100.281 3.91965 99.9979 3.83198 99.6611 3.83198C99.313 3.83198 99.0223 3.92225 98.7897 4.10365C98.5562 4.28505 98.3809 4.53502 98.2628 4.85443C98.1448 5.17383 98.0858 5.53924 98.0858 5.95064C98.0858 6.36465 98.1448 6.7344 98.2628 7.05988C98.3835 7.38189 98.5605 7.63619 98.794 7.8228C99.0292 8.00767 99.3183 8.09968 99.6611 8.09968ZM112.672 4.38834L111.248 4.5437C111.207 4.39962 111.137 4.26508 111.036 4.13836C110.939 4.01164 110.806 3.90923 110.64 3.83198C110.473 3.75386 110.268 3.71567 110.027 3.71567C109.701 3.71567 109.428 3.78598 109.207 3.92659C108.988 4.06807 108.88 4.25033 108.883 4.47512C108.88 4.66781 108.951 4.82404 109.095 4.94468C109.241 5.0662 109.483 5.16514 109.82 5.24239L110.95 5.48455C111.577 5.61995 112.043 5.83433 112.349 6.1277C112.656 6.42107 112.811 6.80469 112.815 7.27946C112.811 7.69694 112.689 8.06495 112.448 8.38435C112.209 8.70029 111.877 8.94766 111.451 9.12646C111.025 9.30439 110.536 9.39378 109.984 9.39378C109.173 9.39378 108.519 9.22453 108.025 8.88429C107.53 8.54232 107.235 8.0667 107.14 7.45653L108.663 7.30984C108.732 7.60928 108.879 7.83495 109.103 7.98684C109.327 8.1396 109.62 8.21598 109.979 8.21598C110.351 8.21598 110.648 8.1396 110.872 7.98684C111.1 7.83495 111.213 7.6466 111.213 7.42181C111.213 7.23173 111.141 7.0755 110.994 6.95139C110.85 6.82814 110.625 6.73266 110.32 6.6667L109.189 6.42974C108.554 6.29694 108.084 6.07388 107.779 5.76056C107.473 5.44375 107.322 5.0445 107.326 4.56105C107.322 4.15225 107.434 3.799 107.657 3.49956C107.885 3.19751 108.2 2.96403 108.603 2.80085C109.009 2.63334 109.476 2.55003 110.005 2.55003C110.782 2.55003 111.393 2.7158 111.839 3.04649C112.288 3.37717 112.566 3.82417 112.672 4.38834ZM117.412 2.63682V3.845H113.602V2.63682H117.412ZM114.543 1.04847H116.104V7.27079C116.104 7.48083 116.136 7.64226 116.2 7.75423C116.266 7.86359 116.352 7.93824 116.458 7.97817C116.565 8.01896 116.683 8.03891 116.813 8.03891C116.91 8.03891 116.999 8.03198 117.08 8.01722C117.163 8.00333 117.227 7.99032 117.27 7.97817L117.533 9.19936C117.45 9.22887 117.33 9.26012 117.174 9.29484C117.023 9.32956 116.835 9.34952 116.614 9.35473C116.222 9.36688 115.87 9.30786 115.557 9.17853C115.243 9.04574 114.994 8.84177 114.81 8.56577C114.629 8.28889 114.539 7.94432 114.543 7.52944V1.04847ZM122.943 6.47661V2.63682H124.505V9.26446H122.991V8.08666H122.921C122.772 8.45727 122.526 8.76105 122.183 8.99713C121.844 9.23321 121.426 9.35038 120.927 9.35038C120.494 9.35038 120.109 9.25405 119.776 9.06136C119.445 8.86608 119.186 8.58225 118.999 8.21164C118.812 7.83756 118.719 7.38622 118.719 6.85677V2.63682H120.281V6.61462C120.281 7.03471 120.395 7.36886 120.625 7.61622C120.856 7.86359 121.158 7.98684 121.532 7.98684C121.762 7.98684 121.985 7.9313 122.201 7.81933C122.417 7.7065 122.593 7.53984 122.731 7.31852C122.873 7.09372 122.943 6.81337 122.943 6.47661ZM128.571 9.38076C128.05 9.38076 127.584 9.2471 127.173 8.97977C126.762 8.71244 126.436 8.3236 126.198 7.81499C125.959 7.3055 125.839 6.68666 125.839 5.95932C125.839 5.22243 125.96 4.60099 126.202 4.09497C126.447 3.58549 126.776 3.20185 127.19 2.9432C127.605 2.68108 128.066 2.55003 128.575 2.55003C128.964 2.55003 129.283 2.61598 129.533 2.74878C129.783 2.8781 129.982 3.03521 130.129 3.21921C130.275 3.40061 130.389 3.5716 130.47 3.73217H130.534V0.42702H132.101V9.26446H130.564V8.22032H130.47C130.389 8.38089 130.273 8.55274 130.12 8.73327C129.967 8.91207 129.766 9.06482 129.516 9.19068C129.266 9.3174 128.951 9.38076 128.571 9.38076ZM129.006 8.09968C129.338 8.09968 129.619 8.01027 129.853 7.83148C130.085 7.65094 130.262 7.39924 130.383 7.07637C130.504 6.75436 130.564 6.37941 130.564 5.95064C130.564 5.52188 130.504 5.14952 130.383 4.83272C130.265 4.51679 130.09 4.2703 129.857 4.09497C129.627 3.91965 129.343 3.83198 129.006 3.83198C128.658 3.83198 128.368 3.92225 128.135 4.10365C127.902 4.28505 127.727 4.53502 127.609 4.85443C127.491 5.17383 127.432 5.53924 127.432 5.95064C127.432 6.36465 127.491 6.7344 127.609 7.05988C127.73 7.38189 127.907 7.63619 128.139 7.8228C128.375 8.00767 128.664 8.09968 129.006 8.09968ZM133.765 9.26446V2.63682H135.328V9.26446H133.765ZM134.551 1.69596C134.303 1.69596 134.09 1.61351 133.912 1.44947C133.733 1.28282 133.645 1.08319 133.645 0.84971C133.645 0.614496 133.733 0.414006 133.912 0.249964C134.09 0.083318 134.303 0 134.551 0C134.801 0 135.013 0.083318 135.189 0.249964C135.368 0.414006 135.457 0.614496 135.457 0.84971C135.457 1.08319 135.368 1.28282 135.189 1.44947C135.013 1.61351 134.801 1.69596 134.551 1.69596ZM139.824 9.39378C139.177 9.39378 138.616 9.25144 138.141 8.96675C137.667 8.68206 137.299 8.28368 137.037 7.77159C136.778 7.2595 136.649 6.66062 136.649 5.97668C136.649 5.29187 136.778 4.69212 137.037 4.17656C137.299 3.66186 137.667 3.2626 138.141 2.97705C138.616 2.69236 139.177 2.55003 139.824 2.55003C140.472 2.55003 141.033 2.69236 141.507 2.97705C141.982 3.2626 142.349 3.66186 142.608 4.17656C142.869 4.69212 143 5.29187 143 5.97668C143 6.66062 142.869 7.2595 142.608 7.77159C142.349 8.28368 141.982 8.68206 141.507 8.96675C141.033 9.25144 140.472 9.39378 139.824 9.39378ZM139.833 8.1422C140.185 8.1422 140.478 8.04585 140.713 7.85317C140.949 7.65788 141.125 7.39576 141.24 7.06768C141.358 6.74046 141.417 6.37506 141.417 5.97234C141.417 5.56614 141.358 5.19986 141.24 4.87178C141.125 4.54109 140.949 4.27724 140.713 4.08196C140.478 3.88667 140.185 3.78858 139.833 3.78858C139.474 3.78858 139.174 3.88667 138.936 4.08196C138.7 4.27724 138.523 4.54109 138.405 4.87178C138.29 5.19986 138.233 5.56614 138.233 5.97234C138.233 6.37506 138.29 6.74046 138.405 7.06768C138.523 7.39576 138.7 7.65788 138.936 7.85317C139.174 8.04585 139.474 8.1422 139.833 8.1422Z" fill="white"/>
</svg>
