<svg width="14" height="14" viewBox="0 0 14 14" fill="none" xmlns="http://www.w3.org/2000/svg">
<path d="M12.2503 6.41667H10.5003V2.33333C10.5003 2.17862 10.4389 2.03025 10.3295 1.92085C10.2201 1.81146 10.0717 1.75 9.91699 1.75H1.75033C1.59562 1.75 1.44724 1.81146 1.33785 1.92085C1.22845 2.03025 1.16699 2.17862 1.16699 2.33333V10.5C1.16699 11.4648 1.95216 12.25 2.91699 12.25H11.0837C12.0485 12.25 12.8337 11.4648 12.8337 10.5V7C12.8337 6.84529 12.7722 6.69692 12.6628 6.58752C12.5534 6.47812 12.405 6.41667 12.2503 6.41667ZM2.91699 11.0833C2.76228 11.0833 2.61391 11.0219 2.50451 10.9125C2.39512 10.8031 2.33366 10.6547 2.33366 10.5V2.91667H9.33366V10.5C9.33366 10.7048 9.36924 10.9013 9.43341 11.0833H2.91699ZM11.667 10.5C11.667 10.6547 11.6055 10.8031 11.4961 10.9125C11.3867 11.0219 11.2384 11.0833 11.0837 11.0833C10.9289 11.0833 10.7806 11.0219 10.6712 10.9125C10.5618 10.8031 10.5003 10.6547 10.5003 10.5V7.58333H11.667V10.5Z" fill="#003470"/>
<path d="M3.5 4.08331H8.16667V5.24998H3.5V4.08331ZM3.5 6.41665H8.16667V7.58331H3.5V6.41665ZM6.41667 8.74998H8.16667V9.91665H6.41667V8.74998Z" fill="#003470"/>
</svg>
