<svg width="9" height="10" viewBox="0 0 9 10" fill="none" xmlns="http://www.w3.org/2000/svg">
<path d="M1.74376 8.79703C0.991289 8.21647 0.481747 7.43106 0.216168 6.43977C0.071026 5.94464 0 5.39907 0 4.80615C0 4.21425 0.0782371 3.61619 0.234702 3.04694C0.512634 2.09168 1.02732 1.34538 1.77979 0.80599C2.5333 0.267627 3.44635 0 4.51793 0C5.58951 0 6.47581 0.269686 7.21078 0.80599C7.94473 1.34538 8.45735 2.08551 8.74661 3.02739C8.91439 3.57193 8.99984 4.1525 8.99984 4.76909C8.99984 5.32496 8.93395 5.85611 8.80014 6.36565C8.54794 7.38164 8.04046 8.18559 7.28284 8.77852C6.52213 9.37041 5.59466 9.66789 4.4994 9.66789C3.40312 9.66789 2.49624 9.3776 1.74376 8.79703ZM5.37746 6.75682C5.61216 6.53241 5.77789 6.22772 5.87465 5.84067C5.9467 5.52568 5.98376 5.18187 5.98376 4.80615C5.98376 4.43145 5.94053 4.09279 5.85715 3.75412C5.76039 3.3784 5.59775 3.08812 5.36923 2.88328C5.14071 2.67843 4.85145 2.5755 4.50146 2.5755C4.1525 2.5755 3.84781 2.67843 3.62546 2.88328C3.40209 3.08812 3.2415 3.38046 3.1468 3.75412C3.06136 4.0197 3.02019 4.37072 3.02019 4.80615C3.02019 5.18187 3.05622 5.52568 3.1293 5.84067C3.23739 6.22772 3.40621 6.53241 3.63473 6.75682C3.86325 6.98019 4.1525 7.0924 4.50146 7.0924C4.85145 7.0924 5.14277 6.98019 5.37849 6.75682H5.37746Z" fill="#252530"/>
</svg>
