<svg width="130" height="89" viewBox="0 0 130 89" fill="none" xmlns="http://www.w3.org/2000/svg">
<path d="M64.9998 79.5516C84.5265 79.5516 100.356 63.722 100.356 44.1953C100.356 24.6686 84.5265 8.83905 64.9998 8.83905C45.4731 8.83905 29.6436 24.6686 29.6436 44.1953C29.6436 63.722 45.4731 79.5516 64.9998 79.5516Z" fill="#E6EEFF"/>
<g filter="url(#filter0_dd_4_10730)">
<path d="M27.2219 15.9103H102.778C106.32 15.9103 109.195 18.6411 109.195 22.0045V61.0827C109.195 64.4462 106.32 67.1769 102.778 67.1769H27.2219C23.6802 67.1769 20.8047 64.4462 20.8047 61.0827V22.0045C20.8047 18.6411 23.6802 15.9103 27.2219 15.9103Z" fill="white"/>
</g>
<path d="M33.4105 23.5391C33.4105 24.8134 32.3594 25.8645 31.0851 25.8645C29.811 25.8645 28.7598 24.8134 28.7598 23.5391C28.7598 22.265 29.811 21.2137 31.0851 21.2137C32.3594 21.2137 33.4105 22.265 33.4105 23.5391Z" fill="#F66058"/>
<path d="M42.7124 23.5391C42.7124 24.8134 41.6611 25.8645 40.387 25.8645C39.1128 25.8645 38.0615 24.8134 38.0615 23.5391C38.0615 22.265 39.1128 21.2137 40.387 21.2137C41.693 21.2137 42.7124 22.265 42.7124 23.5391Z" fill="#F9BD2E"/>
<path d="M52.014 23.5391C52.014 24.8134 50.9628 25.8645 49.6887 25.8645C48.4145 25.8645 47.3633 24.8134 47.3633 23.5391C47.3633 22.265 48.4145 21.2137 49.6887 21.2137C50.9628 21.2137 52.014 22.265 52.014 23.5391Z" fill="#3CC840"/>
<path d="M85.3298 45.0792H66.7678C65.7915 45.0792 65 45.8707 65 46.847C65 47.8234 65.7915 48.6148 66.7678 48.6148H85.3298C86.3062 48.6148 87.0977 47.8234 87.0977 46.847C87.0977 45.8707 86.3062 45.0792 85.3298 45.0792Z" fill="#EDF1F6"/>
<path d="M81.7942 38.008H66.7678C65.7915 38.008 65 38.7995 65 39.7758C65 40.7521 65.7915 41.5436 66.7678 41.5436H81.7942C82.7706 41.5436 83.562 40.7521 83.562 39.7758C83.562 38.7995 82.7706 38.008 81.7942 38.008Z" fill="#EDF1F6"/>
<path d="M92.4011 30.9367H66.7678C65.7915 30.9367 65 31.7282 65 32.7045C65 33.6809 65.7915 34.4723 66.7678 34.4723H92.4011C93.3774 34.4723 94.1689 33.6809 94.1689 32.7045C94.1689 31.7282 93.3774 30.9367 92.4011 30.9367Z" fill="#E6EEFF"/>
<path d="M91.5172 52.1505H69.4195C66.9787 52.1505 65 54.1291 65 56.57C65 59.0108 66.9787 60.9895 69.4195 60.9895H91.5172C93.958 60.9895 95.9367 59.0108 95.9367 56.57C95.9367 54.1291 93.958 52.1505 91.5172 52.1505Z" fill="#3D7FFC"/>
<path d="M54.393 30.9367H32.2954C30.3427 30.9367 28.7598 32.5197 28.7598 34.4723V57.4539C28.7598 59.4066 30.3427 60.9895 32.2954 60.9895H54.393C56.3457 60.9895 57.9287 59.4066 57.9287 57.4539V34.4723C57.9287 32.5197 56.3457 30.9367 54.393 30.9367Z" fill="#E7EEFF"/>
<path d="M34.9473 54.1466C34.9508 54.9999 35.6387 55.6885 36.4838 55.6861L49.335 55.6214C50.1801 55.6166 50.861 54.921 50.8576 54.0666L48.803 40.4679L46.88 40.4761C46.8823 40.422 46.8823 40.3666 46.8823 40.3125C46.8719 38.0562 45.0466 36.2296 42.8151 36.2402C40.5836 36.252 38.777 38.0962 38.7875 40.3537C38.7875 40.4078 38.7898 40.4619 38.7922 40.5173L36.6654 40.5267L34.9473 54.1466ZM39.692 40.5126C39.6896 40.4584 39.6862 40.4032 39.6862 40.349C39.678 38.5953 41.083 37.1582 42.8198 37.1499C44.5554 37.143 45.9743 38.5635 45.9825 40.3172C45.9825 40.3713 45.9813 40.4267 45.9779 40.482L39.6907 40.5126H39.692Z" fill="#76A5FF"/>
<path d="M70.6689 54.6785V58.3378H72.0054C72.3554 58.3378 72.6789 58.2795 72.907 58.1363C73.1563 57.9772 73.3419 57.6908 73.3419 57.2931C73.3419 56.8264 73.029 56.5188 72.557 56.4127V56.4021C72.7956 56.3066 73.1244 56.0468 73.1244 55.6013C73.1244 55.1823 72.9388 54.9595 72.6524 54.8217C72.4138 54.705 72.138 54.6785 71.841 54.6785H70.6689ZM71.788 56.2059H71.3584V55.2194H71.8198C72.1751 55.2194 72.4244 55.3732 72.4244 55.6914C72.4244 55.9089 72.3501 56.0361 72.2228 56.1157C72.1115 56.1846 71.9789 56.2059 71.788 56.2059ZM71.9524 57.7969H71.3584V56.7097H71.9206C72.1327 56.7097 72.2759 56.7309 72.4138 56.8264C72.5517 56.9218 72.6418 57.0597 72.6418 57.2612C72.6418 57.4522 72.5623 57.6166 72.4403 57.6961C72.2971 57.7916 72.1274 57.7969 71.9524 57.7969ZM74.59 57.1446V55.771H73.9112V57.2931C73.9112 57.9083 74.0915 58.3856 74.8287 58.3856C75.1999 58.3856 75.4757 58.2318 75.6242 57.9772L75.6295 58.3378H76.2871V55.771H75.6083V57.0756C75.6083 57.5052 75.4545 57.8287 75.0461 57.8287C74.6537 57.8287 74.59 57.5264 74.59 57.1446ZM76.683 55.771L77.7437 58.3537L77.6324 58.6189C77.5793 58.7515 77.468 58.7886 77.3354 58.7886C77.2081 58.7886 77.0278 58.725 77.0278 58.725L76.8899 59.2447C76.8899 59.2447 77.1285 59.3508 77.4945 59.3508C77.8551 59.3508 78.0672 59.1334 78.2529 58.6826L79.4461 55.771H78.7408L78.0725 57.5901L77.3937 55.771H76.683ZM82.6917 56.9642V58.3378H83.3706V56.8158C83.3706 56.2006 83.185 55.7232 82.4478 55.7232C82.0765 55.7232 81.8167 55.8877 81.6788 56.1581H81.6629L81.6682 55.771H80.9893V58.3378H81.6682V57.0597C81.6682 56.6301 81.8114 56.2801 82.2303 56.2801C82.6228 56.2801 82.6917 56.5824 82.6917 56.9642ZM85.3246 58.3962C86.1095 58.3962 86.7141 57.8764 86.7141 57.065C86.7141 56.2536 86.1095 55.7232 85.3246 55.7232C84.5344 55.7232 83.9298 56.2536 83.9298 57.065C83.9298 57.8764 84.5344 58.3962 85.3246 58.3962ZM86.0141 57.0491C86.0141 57.4893 85.7595 57.834 85.3246 57.834C84.8791 57.834 84.6352 57.4893 84.6352 57.0491C84.6352 56.6089 84.8791 56.2695 85.3246 56.2695C85.7595 56.2695 86.0141 56.6089 86.0141 57.0491ZM88.9806 56.5983L89.6117 58.3378H90.2216L91.0701 55.771H90.3966L89.9034 57.5635L89.2723 55.771H88.7419L88.132 57.6113L87.5964 55.771H86.9228L87.7449 58.3378H88.4131L88.9806 56.5983Z" fill="#E6EEFF"/>
<defs>
<filter id="filter0_dd_4_10730" x="10.1978" y="7.07128" width="109.604" height="72.4803" filterUnits="userSpaceOnUse" color-interpolation-filters="sRGB">
<feFlood flood-opacity="0" result="BackgroundImageFix"/>
<feColorMatrix in="SourceAlpha" type="matrix" values="0 0 0 0 0 0 0 0 0 0 0 0 0 0 0 0 0 0 127 0" result="hardAlpha"/>
<feOffset dy="3.53562"/>
<feGaussianBlur stdDeviation="4.41953"/>
<feColorMatrix type="matrix" values="0 0 0 0 0.607843 0 0 0 0 0.67451 0 0 0 0 0.737255 0 0 0 0.35 0"/>
<feBlend mode="normal" in2="BackgroundImageFix" result="effect1_dropShadow_4_10730"/>
<feColorMatrix in="SourceAlpha" type="matrix" values="0 0 0 0 0 0 0 0 0 0 0 0 0 0 0 0 0 0 127 0" result="hardAlpha"/>
<feOffset dy="1.76781"/>
<feGaussianBlur stdDeviation="5.30344"/>
<feColorMatrix type="matrix" values="0 0 0 0 0.89625 0 0 0 0 0.930414 0 0 0 0 0.995833 0 0 0 0.5 0"/>
<feBlend mode="normal" in2="effect1_dropShadow_4_10730" result="effect2_dropShadow_4_10730"/>
<feBlend mode="normal" in="SourceGraphic" in2="effect2_dropShadow_4_10730" result="shape"/>
</filter>
</defs>
</svg>
