<svg width="44" height="44" viewBox="0 0 44 44" fill="none" xmlns="http://www.w3.org/2000/svg">
<path d="M33.0183 16.4817L27.5183 10.9817M6.41664 37.5833C7.93831 39.105 10.395 39.105 11.9166 37.5833L35.75 13.75C37.2716 12.2283 37.2716 9.77168 35.75 8.25001C34.2283 6.72835 31.7716 6.72835 30.25 8.25001L6.41664 32.0833C4.89497 33.605 4.89497 36.0617 6.41664 37.5833Z" stroke="#B0B0B0" stroke-width="2.75" stroke-linecap="round" stroke-linejoin="round"/>
<path d="M15.5833 4.47329L18.3333 3.66663L17.5267 6.41663L18.3333 9.16663L15.5833 8.35996L12.8333 9.16663L13.64 6.41663L12.8333 3.66663L15.5833 4.47329ZM8.25 15.4733L11 14.6666L10.1933 17.4166L11 20.1666L8.25 19.36L5.5 20.1666L6.30667 17.4166L5.5 14.6666L8.25 15.4733ZM35.75 24.64L38.5 23.8333L37.6933 26.5833L38.5 29.3333L35.75 28.5266L33 29.3333L33.8067 26.5833L33 23.8333L35.75 24.64Z" stroke="#B0B0B0" stroke-width="1.83333" stroke-linecap="round" stroke-linejoin="round"/>
</svg>
