<svg width="130" height="89" viewBox="0 0 130 89" fill="none" xmlns="http://www.w3.org/2000/svg">
<path d="M64.9998 79.5516C84.5265 79.5516 100.356 63.7221 100.356 44.1954C100.356 24.6686 84.5265 8.83911 64.9998 8.83911C45.4731 8.83911 29.6436 24.6686 29.6436 44.1954C29.6436 63.7221 45.4731 79.5516 64.9998 79.5516Z" fill="#E6EEFF"/>
<g filter="url(#filter0_dd_4_10881)">
<path d="M88.3445 43.9727C88.3449 48.7291 86.9348 53.3787 84.2926 57.3336C81.6503 61.2886 77.8945 64.3711 73.5002 66.1914C69.106 68.0117 64.2706 68.488 59.6056 67.56C54.9406 66.632 50.6556 64.3415 47.2925 60.9781C43.9294 57.6146 41.6392 53.3295 40.7117 48.6644C39.7842 43.9993 40.2609 39.164 42.0815 34.7699C43.9022 30.3757 46.9851 26.6203 50.9403 23.9784C54.8954 21.3365 59.5452 19.9267 64.3016 19.9276C70.6784 19.9282 76.7938 22.4618 81.3027 26.971C85.8115 31.4803 88.3445 37.5959 88.3445 43.9727Z" fill="white"/>
<path d="M62.6815 40.2859C62.3763 42.2622 59.1901 42.1041 58.4325 43.9245C57.8264 45.5956 59.0407 47.5675 60.2551 48.4766C63.5906 50.6 66.4716 48.9333 66.4716 54.243C66.4716 56.9724 64.0562 62.4337 67.5366 63.7973C70.4199 64.8602 75.2728 60.4617 76.6387 58.7928C77.6993 57.2755 78.0023 56.3642 79.5197 55.1521C81.3401 53.6347 81.9483 53.4832 79.9764 52.1173C78.4591 51.0567 77.3963 51.5113 76.7902 49.3878C76.485 48.325 77.5478 46.6562 77.2469 45.4353C76.7902 42.552 73.1494 42.0953 70.5691 40.8809C67.8397 39.6688 66.1774 39.6688 63.2876 39.6688L62.6815 40.2859Z" fill="#C6DBFF"/>
<path d="M80.4827 26.184C78.8205 27.0448 76.2272 27.4312 74.8108 27.9034C70.8582 29.4207 72.9882 29.2692 72.6874 32.607C73.748 32.9078 74.6636 32.4555 75.2653 31.542C76.3281 34.5789 72.5337 33.9816 71.17 33.9816C70.4102 33.9816 69.8042 33.6786 69.0444 33.9816C67.8323 34.5899 69.3496 36.7133 67.6807 35.1959C66.921 34.7414 67.5292 33.3756 66.4664 32.618C66.0119 32.3149 63.5832 32.1612 63.1287 32.4664C61.3083 33.6786 63.7347 35.6505 65.1049 36.7133C66.1656 37.6224 65.711 37.9254 67.3799 38.2307C68.2868 38.3822 69.1981 37.6224 70.1116 37.9254C71.9298 38.3822 72.6895 40.2026 74.6614 40.8108C77.077 41.5684 78.3 41.4169 79.365 43.8456C79.9711 45.3608 80.1226 47.0297 81.0339 48.6986C82.5491 50.9735 84.521 52.4908 86.0384 49.6077C86.6971 48.1429 86.3217 46.5597 88.1772 46.8166C88.2887 45.8765 88.3459 44.9306 88.3484 43.9839C88.3543 40.632 87.6573 37.3161 86.3025 34.2501C84.9477 31.1842 82.9651 28.4364 80.4827 26.184Z" fill="#C6DBFF"/>
<path d="M50.5 55.1389C50.0432 54.6843 49.7424 52.7233 49.2878 52.1063C49.1341 51.6518 48.3765 51.6518 48.0735 51.3465C47.7683 50.892 48.225 49.9806 47.6168 49.6776C46.7098 49.0716 45.7964 49.3746 44.8873 49.0716C43.3699 48.617 44.1297 49.2231 42.9109 47.8572C42.0106 46.9372 41.3518 45.1541 40.2539 44.2472C40.2945 48.0022 41.2153 51.6952 42.9426 55.0296C44.6699 58.364 47.1553 61.2467 50.1991 63.4459C50.9806 62.5718 51.8414 61.772 52.7705 61.0568C54.1364 59.8446 56.4135 59.6909 55.3507 57.416C54.4438 54.9873 51.7143 56.2017 50.5 55.1389Z" fill="#C6DBFF"/>
<path d="M50.5308 30.5947C49.0618 29.4968 47.8167 28.3483 46.3235 28.0079C43.1429 31.58 41.1054 36.0229 40.4736 40.7639C41.8483 40.7639 41.3278 43.3155 43.2471 42.4306C43.7038 42.2769 44.7645 40.0019 45.2234 39.3937C46.1325 38.4867 51.8989 36.3611 49.3187 35.0018C49.6217 34.5473 49.927 34.3958 50.533 34.2443C50.8361 35.1556 51.2906 35.7616 52.2019 35.9109C52.8058 33.1749 52.8058 32.1143 50.5308 30.5947Z" fill="#C6DBFF"/>
<path d="M49.3106 27.8941C49.6158 27.8941 51.8929 25.7707 51.8929 25.6214C51.8981 25.2853 51.8067 24.9548 51.6295 24.6691C51.4525 24.3834 51.1971 24.1545 50.8939 24.0096C49.6725 24.8308 48.5301 25.7637 47.4814 26.7962C48.0589 27.3079 48.4651 27.8941 49.3106 27.8941Z" fill="#C6DBFF"/>
<path d="M63.796 19.9388C60.7202 19.9974 57.6844 20.6476 54.8543 21.8536C55.0739 21.9876 55.2782 22.1194 55.4933 22.227C54.4679 23.9354 53.8991 24.2757 55.0366 26.3245C55.8359 28.0285 57.0832 27.8001 58.5654 29.166C59.7029 27.9143 58.785 27.4576 59.1319 26.3245C59.3516 25.1826 60.3858 24.6161 61.4091 24.1594C63.0011 23.4786 65.8448 24.2757 65.5044 21.8866C65.3946 21.0588 64.7424 20.4066 63.796 19.9388Z" fill="#C6DBFF"/>
<path d="M62.3499 25.3514C63.6016 25.1318 63.7158 26.3747 64.9674 26.0343C65.7645 28.0831 60.7579 27.6285 62.3499 25.4634V25.3514Z" fill="#C6DBFF"/>
</g>
<path d="M50.4678 36.2883C56.1604 17.281 71.1015 21.0565 87.8628 27.816" stroke="#091B36" stroke-width="1.00428" stroke-linejoin="round" stroke-dasharray="3.85 3.85"/>
<path d="M70.3454 14.5792C69.8116 15.1132 69.5117 15.8374 69.5117 16.5925C69.5117 17.3476 69.8116 18.0718 70.3454 18.6058L79.5786 27.839L75.5519 45.9589L77.5653 47.9723L85.6186 33.879L93.6719 41.9323V47.9723L95.6852 49.9856L97.6989 41.9323L105.752 39.919L103.739 37.9056H97.6989L89.6452 29.8523L103.739 21.799L101.725 19.7857L83.6053 23.8123L74.3721 14.5792C73.8381 14.0453 73.1139 13.7455 72.3588 13.7455C71.6037 13.7455 70.8795 14.0453 70.3454 14.5792Z" fill="#3D7FFC"/>
<g filter="url(#filter1_dd_4_10881)">
<path d="M55.1726 36.794C55.1726 40.5169 49.8536 44.4838 49.0374 48.0242C48.218 44.4838 42.9023 40.5169 42.9023 36.794C42.9023 33.071 45.6491 30.0529 49.0374 30.0529C52.4258 30.0529 55.1726 33.071 55.1726 36.794Z" fill="#5D5FEF"/>
</g>
<path d="M49.0595 39.6309C50.9488 39.6309 52.4804 38.0993 52.4804 36.2101C52.4804 34.3208 50.9488 32.7892 49.0595 32.7892C47.1702 32.7892 45.6387 34.3208 45.6387 36.2101C45.6387 38.0993 47.1702 39.6309 49.0595 39.6309Z" fill="white"/>
<defs>
<filter id="filter0_dd_4_10881" x="29.6431" y="11.0886" width="69.3124" height="69.3082" filterUnits="userSpaceOnUse" color-interpolation-filters="sRGB">
<feFlood flood-opacity="0" result="BackgroundImageFix"/>
<feColorMatrix in="SourceAlpha" type="matrix" values="0 0 0 0 0 0 0 0 0 0 0 0 0 0 0 0 0 0 127 0" result="hardAlpha"/>
<feOffset dy="3.53562"/>
<feGaussianBlur stdDeviation="4.41953"/>
<feColorMatrix type="matrix" values="0 0 0 0 0.607843 0 0 0 0 0.67451 0 0 0 0 0.737255 0 0 0 0.35 0"/>
<feBlend mode="normal" in2="BackgroundImageFix" result="effect1_dropShadow_4_10881"/>
<feColorMatrix in="SourceAlpha" type="matrix" values="0 0 0 0 0 0 0 0 0 0 0 0 0 0 0 0 0 0 127 0" result="hardAlpha"/>
<feOffset dy="1.76781"/>
<feGaussianBlur stdDeviation="5.30344"/>
<feColorMatrix type="matrix" values="0 0 0 0 0.89625 0 0 0 0 0.930414 0 0 0 0 0.995833 0 0 0 0.5 0"/>
<feBlend mode="normal" in2="effect1_dropShadow_4_10881" result="effect2_dropShadow_4_10881"/>
<feBlend mode="normal" in="SourceGraphic" in2="effect2_dropShadow_4_10881" result="shape"/>
</filter>
<filter id="filter1_dd_4_10881" x="39.9626" y="27.1131" width="21.5098" height="27.2107" filterUnits="userSpaceOnUse" color-interpolation-filters="sRGB">
<feFlood flood-opacity="0" result="BackgroundImageFix"/>
<feColorMatrix in="SourceAlpha" type="matrix" values="0 0 0 0 0 0 0 0 0 0 0 0 0 0 0 0 0 0 127 0" result="hardAlpha"/>
<feOffset dx="2.09985" dy="2.09985"/>
<feGaussianBlur stdDeviation="2.09985"/>
<feColorMatrix type="matrix" values="0 0 0 0 0 0 0 0 0 0.296699 0 0 0 0 0.858629 0 0 0 0.08 0"/>
<feBlend mode="normal" in2="BackgroundImageFix" result="effect1_dropShadow_4_10881"/>
<feColorMatrix in="SourceAlpha" type="matrix" values="0 0 0 0 0 0 0 0 0 0 0 0 0 0 0 0 0 0 127 0" result="hardAlpha"/>
<feOffset/>
<feGaussianBlur stdDeviation="1.46989"/>
<feComposite in2="hardAlpha" operator="out"/>
<feColorMatrix type="matrix" values="0 0 0 0 0.0354167 0 0 0 0 0.105426 0 0 0 0 0.2125 0 0 0 0.07 0"/>
<feBlend mode="normal" in2="effect1_dropShadow_4_10881" result="effect2_dropShadow_4_10881"/>
<feBlend mode="normal" in="SourceGraphic" in2="effect2_dropShadow_4_10881" result="shape"/>
</filter>
</defs>
</svg>
