<svg width="3" height="4" viewBox="0 0 3 4" fill="none" xmlns="http://www.w3.org/2000/svg">
<path d="M2.47233 1.93431C2.47233 1.94564 2.47914 1.9547 2.49387 1.96263C2.83155 2.14054 3.00039 2.44196 3.00039 2.86463C3.00039 3.24424 2.87007 3.52866 2.60831 3.71336C2.34655 3.8992 2.00423 3.99326 1.57941 3.99326H0.102214C0.0710518 3.99326 0.0473688 3.98419 0.0282184 3.96492C0.00895463 3.94566 0 3.92187 0 3.89014V0.10198C0 0.0725182 0.00895463 0.0475859 0.0282184 0.0283221C0.0473688 0.00905837 0.0710518 0 0.102214 0H1.53499C1.99686 0 2.34655 0.0872473 2.58338 0.262887C2.82021 0.438527 2.93806 0.721818 2.93806 1.11276C2.93806 1.5037 2.79076 1.74959 2.49387 1.90597C2.47914 1.91277 2.47233 1.92411 2.47233 1.93431ZM0.942903 0.849871V1.54449C0.942903 1.57168 0.956276 1.58529 0.982905 1.58529H1.53351C1.68898 1.58529 1.80887 1.55244 1.8917 1.48558C1.97465 1.41872 2.01601 1.32466 2.01601 1.20341C2.01601 1.08103 1.97465 0.980176 1.8917 0.912186C1.80887 0.844197 1.68898 0.809082 1.53351 0.809082H0.982905C0.956276 0.809082 0.942903 0.822675 0.942903 0.849871ZM1.9317 3.072C2.01454 3.00174 2.05602 2.89976 2.05602 2.76718C2.05602 2.63573 2.01454 2.53828 1.93317 2.46689C1.85181 2.39664 1.7334 2.36151 1.57793 2.36151H0.981436C0.954806 2.36151 0.941434 2.3751 0.941434 2.4023V3.13772C0.941434 3.16378 0.954806 3.17738 0.981436 3.17738H1.57793C1.72887 3.17738 1.84729 3.14225 1.93024 3.072H1.9317Z" fill="#252530"/>
</svg>
