<svg width="56" height="56" viewBox="0 0 56 56" fill="none" xmlns="http://www.w3.org/2000/svg">
<g clip-path="url(#clip0_4_15923)">
<g clip-path="url(#clip1_4_15923)">
<g clip-path="url(#clip2_4_15923)">
<path d="M0 9.33333C0 4.17867 4.17867 0 9.33333 0H46.6667C51.8214 0 56 4.17867 56 9.33333V46.6667C56 51.8214 51.8214 56 46.6667 56H9.33333C4.17867 56 0 51.8214 0 46.6667V9.33333Z" fill="black"/>
<path d="M15.024 40.5596C17.7973 36.0661 20.8878 33.9621 25.7382 35.2217C28.6882 35.9903 31.5784 37.0841 35.1408 37.0841C39.4026 37.0841 41.4103 36.2192 41.9438 35.9382C42.04 35.8893 42.097 35.7961 42.097 35.6856V27.827C42.097 27.6881 41.9516 27.595 41.8302 27.6534C41.1482 27.9817 39.1374 28.7409 35.1423 28.7409C29.801 28.7409 25.983 26.2312 21.1735 26.2312C17.1028 26.2312 14.9766 27.2114 14.4226 27.505C14.3247 27.5571 14.2679 27.6502 14.2679 27.7576V40.5344C14.2679 40.8295 14.7746 40.9605 15.024 40.5596Z" fill="white"/>
<path d="M42.0905 24.6212C42.0905 24.7254 42.0322 24.8216 41.9423 24.8705C41.4025 25.1468 39.3979 26.0132 35.1361 26.0132C29.7979 26.0132 25.9765 23.5068 21.1672 23.5068C17.3552 23.5068 15.2481 24.3623 14.541 24.7143C14.4131 24.7774 14.2679 24.6905 14.2679 24.5485V16.6867C14.2679 16.5825 14.3232 16.4894 14.4163 16.4405C14.9703 16.139 17.0965 15.1667 21.1672 15.1667C25.975 15.1667 29.7979 17.6732 35.1361 17.6732C39.131 17.6732 41.1451 16.9108 41.8207 16.5904C41.9453 16.532 42.0905 16.622 42.0905 16.7594V24.6212Z" fill="white"/>
</g>
</g>
</g>
<defs>
<clipPath id="clip0_4_15923">
<rect width="56" height="56" rx="10" fill="white"/>
</clipPath>
<clipPath id="clip1_4_15923">
<rect width="56" height="56" fill="white"/>
</clipPath>
<clipPath id="clip2_4_15923">
<rect width="56" height="56" fill="white"/>
</clipPath>
</defs>
</svg>
