<svg width="18" height="18" viewBox="0 0 18 18" fill="none" xmlns="http://www.w3.org/2000/svg">
<mask id="mask0_4_13195" style="mask-type:luminance" maskUnits="userSpaceOnUse" x="0" y="0" width="18" height="18">
<path d="M0 0H18V18H0V0Z" fill="white"/>
</mask>
<g mask="url(#mask0_4_13195)">
<path d="M17.9289 7.92019C17.8953 7.67279 17.7731 7.44599 17.5849 7.28195C17.3966 7.1179 17.1553 7.02777 16.9056 7.02829H15.9399C15.7637 7.02188 15.5935 6.9628 15.4512 6.85869C15.3089 6.75457 15.201 6.61019 15.1416 6.44419C15.0709 6.28729 15.0483 6.11298 15.0765 5.94323C15.1046 5.77347 15.1824 5.61584 15.3 5.49019L15.9786 4.81159C16.1584 4.6337 16.2668 4.39613 16.2834 4.14376C16.3 3.89139 16.2236 3.64168 16.0686 3.44179C15.6275 2.8837 15.1228 2.37899 14.5647 1.93789C14.3647 1.78331 14.115 1.70715 13.8628 1.72372C13.6105 1.7403 13.373 1.84847 13.1949 2.02789L12.5145 2.70019C12.3853 2.82133 12.2224 2.90052 12.0473 2.92735C11.8722 2.95418 11.6931 2.92738 11.5335 2.85049C11.3716 2.78959 11.2315 2.68196 11.1308 2.54128C11.0302 2.40059 10.9736 2.23318 10.9683 2.06029V1.09459C10.9691 0.845411 10.8796 0.604383 10.7162 0.41621C10.5529 0.228036 10.3268 0.105488 10.08 0.0712919C9.36314 -0.023764 8.63687 -0.023764 7.92 0.0712919C7.6726 0.104871 7.4458 0.227128 7.28176 0.415341C7.11771 0.603554 7.02758 0.844923 7.0281 1.09459V2.06029C7.02169 2.2365 6.96261 2.40673 6.8585 2.54903C6.75438 2.69133 6.61 2.79916 6.444 2.85859C6.28717 2.92961 6.11278 2.95247 5.94295 2.92427C5.77311 2.89608 5.61547 2.81809 5.49 2.70019L4.8114 2.02159C4.63331 1.84217 4.39579 1.734 4.14353 1.71742C3.89127 1.70085 3.64164 1.77701 3.4416 1.93159C2.88183 2.37298 2.37559 2.87831 1.9332 3.43729C1.77825 3.63718 1.70185 3.88689 1.71843 4.13926C1.73501 4.39163 1.84343 4.6292 2.0232 4.80709L2.7 5.49019C2.8207 5.61969 2.8996 5.78254 2.92641 5.95752C2.95322 6.1325 2.9267 6.3115 2.8503 6.47119C2.78926 6.63292 2.68157 6.77288 2.5409 6.87334C2.40022 6.9738 2.23289 7.03023 2.0601 7.03549H1.0944C0.845812 7.03473 0.605325 7.12385 0.417271 7.28644C0.229217 7.44902 0.106273 7.6741 0.0711027 7.92019C-0.0237009 8.63496 -0.0237009 9.35912 0.0711027 10.0739C0.104682 10.3213 0.226938 10.5481 0.415151 10.7121C0.603365 10.8762 0.844734 10.9663 1.0944 10.9658H2.0601C2.23631 10.9722 2.40654 11.0313 2.54884 11.1354C2.69114 11.2395 2.79897 11.3839 2.8584 11.5499C2.93149 11.7083 2.95547 11.8849 2.92724 12.057C2.899 12.2291 2.81986 12.3889 2.7 12.5156L2.0241 13.1924C1.84391 13.3702 1.73522 13.608 1.71863 13.8606C1.70204 14.1133 1.77871 14.3632 1.9341 14.5631C2.3751 15.1211 2.8791 15.6251 3.438 16.067C3.63767 16.2221 3.88727 16.2986 4.13954 16.282C4.39182 16.2654 4.62926 16.1569 4.8069 15.977L5.49 15.3002C5.61956 15.1796 5.7824 15.1008 5.95736 15.074C6.13231 15.0472 6.31128 15.0736 6.471 15.1499C6.63273 15.2109 6.77269 15.3186 6.87315 15.4593C6.97361 15.6 7.03005 15.7673 7.0353 15.9401V16.9058C7.03454 17.1544 7.12366 17.3949 7.28625 17.5829C7.44883 17.771 7.67391 17.8939 7.92 17.9291C8.63478 18.0239 9.35893 18.0239 10.0737 17.9291C10.321 17.8955 10.5477 17.7732 10.7116 17.585C10.8755 17.3967 10.9654 17.1554 10.9647 16.9058V15.9401C10.9713 15.7638 11.0306 15.5936 11.1348 15.4513C11.2391 15.309 11.3836 15.2012 11.5497 15.1418C11.708 15.0685 11.8847 15.0443 12.0569 15.0726C12.2291 15.1008 12.3888 15.1801 12.5154 15.3002L13.1931 15.9779C13.3709 16.1578 13.6085 16.2664 13.8609 16.283C14.1133 16.2996 14.3631 16.223 14.5629 16.0679C15.1209 15.6269 15.6249 15.1229 16.0668 14.564C16.2217 14.3642 16.2981 14.1147 16.2815 13.8625C16.2649 13.6103 16.1565 13.3728 15.9768 13.1951L15.3 12.5147C15.1866 12.3834 15.1119 12.2232 15.0843 12.0519C15.0567 11.8806 15.0772 11.7051 15.1436 11.5448C15.21 11.3845 15.3196 11.2458 15.4602 11.1442C15.6008 11.0426 15.7669 10.9821 15.9399 10.9694H16.9056C17.1554 10.9699 17.3969 10.8796 17.5851 10.7154C17.7734 10.5512 17.8955 10.3242 17.9289 10.0766C18.0237 9.36212 18.0237 8.63826 17.9289 7.92379V7.92019ZM10.7811 9.00019C10.7887 9.23885 10.7482 9.47661 10.6621 9.69933C10.576 9.92205 10.4461 10.1252 10.2799 10.2967C10.1138 10.4682 9.91488 10.6046 9.695 10.6977C9.47513 10.7908 9.23878 10.8388 9 10.8388C8.76122 10.8388 8.52487 10.7908 8.305 10.6977C8.08513 10.6046 7.88621 10.4682 7.72007 10.2967C7.55393 10.1252 7.42396 9.92205 7.33786 9.69933C7.25177 9.47661 7.21131 9.23885 7.2189 9.00019C7.23361 8.53762 7.42771 8.09891 7.76012 7.77689C8.09254 7.45488 8.53719 7.27482 9 7.27482C9.46281 7.27482 9.90747 7.45488 10.2399 7.77689C10.5723 8.09891 10.7664 8.53762 10.7811 9.00019Z" fill="white"/>
</g>
</svg>
