<svg width="22" height="22" viewBox="0 0 22 22" fill="none" xmlns="http://www.w3.org/2000/svg">
<path d="M4.85244 3.82872V5.87616M8.94732 3.82872V5.87616M4.85244 16.1134V18.1608M8.94732 16.1134V18.1608M13.0422 4.85244H17.1371M13.0422 17.1371H17.1371M18.4884 8.94732H3.51136C1.99626 8.94732 0.767791 7.70862 0.767791 6.20375V3.51136C0.767791 1.99626 2.00649 0.767791 3.51136 0.767791H18.4884C20.0035 0.767791 21.232 2.00649 21.232 3.51136V6.20375C21.232 7.70862 19.9933 8.94732 18.4884 8.94732ZM18.4884 21.232H3.51136C1.99626 21.232 0.767791 19.9933 0.767791 18.4884V15.796C0.767791 14.2809 2.00649 13.0524 3.51136 13.0524H18.4884C20.0035 13.0524 21.232 14.2911 21.232 15.796V18.4884C21.232 19.9933 19.9933 21.232 18.4884 21.232Z" stroke="#FF4ECD" stroke-width="1.5" stroke-linecap="round" stroke-linejoin="round"/>
</svg>
