<svg width="216" height="24" viewBox="0 0 216 24" fill="none" xmlns="http://www.w3.org/2000/svg">
<g clip-path="url(#clip0_5_20049)">
<path d="M8.29 20.2514C15.837 20.2514 19.965 13.9984 19.965 8.57645C19.965 8.39845 19.965 8.22144 19.953 8.04644C20.7562 7.46497 21.4493 6.74506 22 5.92045C21.2511 6.25245 20.4566 6.47021 19.643 6.56645C20.4996 6.0535 21.1408 5.24679 21.447 4.29645C20.6417 4.77433 19.7607 5.11117 18.842 5.29244C18.2234 4.63421 17.405 4.19828 16.5136 4.05215C15.6222 3.90602 14.7075 4.05784 13.9111 4.48411C13.1147 4.91038 12.4811 5.58732 12.1083 6.41011C11.7355 7.23289 11.6444 8.15563 11.849 9.03544C10.2176 8.95369 8.6216 8.52977 7.16465 7.79121C5.70769 7.05266 4.42233 6.01597 3.392 4.74845C2.86732 5.65165 2.70659 6.72087 2.94254 7.73841C3.17848 8.75595 3.79337 9.64532 4.662 10.2254C4.00926 10.2065 3.37063 10.0309 2.8 9.71345V9.76545C2.80039 10.7127 3.1284 11.6307 3.7284 12.3638C4.3284 13.0969 5.16347 13.5998 6.092 13.7874C5.48781 13.9522 4.85389 13.9761 4.239 13.8574C4.50116 14.6729 5.01168 15.386 5.69913 15.8971C6.38658 16.4081 7.21657 16.6914 8.073 16.7074C7.22212 17.376 6.24779 17.8703 5.20573 18.162C4.16367 18.4537 3.07432 18.5371 2 18.4074C3.8766 19.6118 6.06019 20.2505 8.29 20.2474" fill="#4C4C4C"/>
</g>
<g clip-path="url(#clip1_5_20049)">
<path fill-rule="evenodd" clip-rule="evenodd" d="M70 12C70 6.477 65.523 2 60 2C54.477 2 50 6.477 50 12C50 16.991 53.657 21.128 58.438 21.878V14.891H55.898V12H58.438V9.797C58.438 7.291 59.93 5.907 62.215 5.907C63.309 5.907 64.453 6.102 64.453 6.102V8.562H63.193C61.95 8.562 61.563 9.333 61.563 10.124V12H64.336L63.893 14.89H61.563V21.878C66.343 21.128 70 16.991 70 12Z" fill="#4C4C4C"/>
</g>
<g clip-path="url(#clip2_5_20049)">
<path fill-rule="evenodd" clip-rule="evenodd" d="M108.315 2C110.745 2 111.099 2.013 112.123 2.06C113.187 2.109 113.914 2.278 114.55 2.525C115.217 2.77587 115.822 3.16936 116.322 3.678C116.831 4.17777 117.224 4.7825 117.475 5.45C117.722 6.086 117.891 6.813 117.94 7.877C117.988 8.944 118 9.284 118 12V12.08C118 14.723 117.988 15.067 117.94 16.123C117.891 17.187 117.722 17.914 117.475 18.55C117.224 19.2175 116.831 19.8222 116.322 20.322C115.822 20.8306 115.217 21.2241 114.55 21.475C113.914 21.722 113.187 21.891 112.123 21.94C111.056 21.988 110.716 22 108 22H107.92C105.277 22 104.933 21.988 103.877 21.94C102.813 21.891 102.086 21.722 101.45 21.475C100.783 21.2241 100.178 20.8306 99.678 20.322C99.1694 19.8222 98.7759 19.2175 98.525 18.55C98.278 17.914 98.109 17.187 98.06 16.123C98.013 15.099 98 14.744 98 12.315V11.685C98 9.255 98.013 8.901 98.06 7.877C98.109 6.813 98.278 6.086 98.525 5.45C98.7759 4.7825 99.1694 4.17777 99.678 3.678C100.178 3.16936 100.783 2.77587 101.45 2.525C102.086 2.278 102.813 2.109 103.877 2.06C104.901 2.013 105.256 2 107.685 2H108.315ZM108.234 3.802H107.766C105.31 3.802 104.982 3.813 103.959 3.86C102.984 3.905 102.455 4.067 102.102 4.204C101.635 4.386 101.302 4.602 100.952 4.952C100.602 5.302 100.386 5.635 100.204 6.102C100.067 6.455 99.904 6.984 99.86 7.959C99.813 8.982 99.802 9.31 99.802 11.766V12.234C99.802 14.69 99.813 15.018 99.86 16.041C99.905 17.016 100.067 17.545 100.204 17.898C100.386 18.364 100.603 18.698 100.952 19.048C101.302 19.398 101.635 19.614 102.102 19.796C102.455 19.933 102.984 20.096 103.959 20.14C105.013 20.188 105.329 20.198 108 20.198H108.08C110.677 20.198 110.997 20.188 112.04 20.14C113.016 20.095 113.545 19.933 113.898 19.796C114.364 19.614 114.698 19.398 115.048 19.048C115.398 18.698 115.614 18.365 115.796 17.898C115.933 17.545 116.096 17.016 116.14 16.041C116.188 14.986 116.198 14.671 116.198 12V11.92C116.198 9.323 116.188 9.003 116.14 7.96C116.095 6.984 115.933 6.455 115.796 6.102C115.636 5.66757 115.38 5.2746 115.048 4.952C114.725 4.61986 114.332 4.36426 113.898 4.204C113.545 4.067 113.016 3.904 112.041 3.86C111.018 3.813 110.69 3.802 108.234 3.802ZM108 6.865C108.674 6.865 109.342 6.99782 109.965 7.25588C110.588 7.51394 111.154 7.89218 111.631 8.36901C112.108 8.84584 112.486 9.41191 112.744 10.0349C113.002 10.6579 113.135 11.3257 113.135 12C113.135 12.6743 113.002 13.3421 112.744 13.9651C112.486 14.5881 112.108 15.1542 111.631 15.631C111.154 16.1078 110.588 16.4861 109.965 16.7441C109.342 17.0022 108.674 17.135 108 17.135C106.638 17.135 105.332 16.594 104.369 15.631C103.406 14.668 102.865 13.3619 102.865 12C102.865 10.6381 103.406 9.33201 104.369 8.36901C105.332 7.40601 106.638 6.865 108 6.865ZM108 8.667C107.116 8.667 106.268 9.01815 105.643 9.64321C105.018 10.2683 104.667 11.116 104.667 12C104.667 12.884 105.018 13.7317 105.643 14.3568C106.268 14.9818 107.116 15.333 108 15.333C108.884 15.333 109.732 14.9818 110.357 14.3568C110.982 13.7317 111.333 12.884 111.333 12C111.333 11.116 110.982 10.2683 110.357 9.64321C109.732 9.01815 108.884 8.667 108 8.667ZM113.338 5.462C113.656 5.462 113.961 5.58843 114.187 5.81347C114.412 6.03852 114.538 6.34374 114.538 6.662C114.538 6.98026 114.412 7.28548 114.187 7.51053C113.961 7.73557 113.656 7.862 113.338 7.862C113.02 7.862 112.715 7.73557 112.489 7.51053C112.264 7.28548 112.138 6.98026 112.138 6.662C112.138 6.34374 112.264 6.03852 112.489 5.81347C112.715 5.58843 113.02 5.462 113.338 5.462Z" fill="#4C4C4C"/>
</g>
<g clip-path="url(#clip3_5_20049)">
<path d="M164.447 20.452H160.893V14.883C160.893 13.555 160.866 11.846 159.041 11.846C157.188 11.846 156.905 13.291 156.905 14.785V20.452H153.351V9H156.765V10.561H156.811C157.288 9.661 158.448 8.711 160.181 8.711C163.782 8.711 164.448 11.081 164.448 14.166L164.447 20.452ZM149.337 7.433C148.193 7.433 147.274 6.507 147.274 5.368C147.274 4.23 148.194 3.305 149.337 3.305C150.477 3.305 151.401 4.23 151.401 5.368C151.401 6.507 150.476 7.433 149.337 7.433ZM151.119 20.452H147.555V9H151.119V20.452ZM166.225 0H145.771C144.792 0 144 0.774 144 1.729V22.271C144 23.227 144.792 24 145.771 24H166.222C167.2 24 168 23.227 168 22.271V1.729C168 0.774 167.2 0 166.222 0H166.225Z" fill="#4C4C4C"/>
</g>
<g clip-path="url(#clip4_5_20049)">
<path d="M215.498 6.18592C215.362 5.6752 215.095 5.20906 214.723 4.83419C214.35 4.45931 213.886 4.18886 213.376 4.04992C211.505 3.54492 204 3.54492 204 3.54492C204 3.54492 196.495 3.54492 194.623 4.04992C194.113 4.18911 193.649 4.45966 193.277 4.8345C192.905 5.20935 192.638 5.67536 192.502 6.18592C192 8.06992 192 11.9999 192 11.9999C192 11.9999 192 15.9299 192.502 17.8139C192.638 18.3246 192.905 18.7908 193.277 19.1657C193.65 19.5405 194.114 19.811 194.624 19.9499C196.495 20.4549 204 20.4549 204 20.4549C204 20.4549 211.505 20.4549 213.377 19.9499C213.887 19.8111 214.351 19.5407 214.724 19.1658C215.096 18.7909 215.364 18.3247 215.499 17.8139C216 15.9299 216 11.9999 216 11.9999C216 11.9999 216 8.06992 215.498 6.18592ZM201.545 15.5679V8.43192L207.818 11.9999L201.545 15.5679Z" fill="#4C4C4C"/>
</g>
<defs>
<clipPath id="clip0_5_20049">
<rect width="24" height="24" fill="white"/>
</clipPath>
<clipPath id="clip1_5_20049">
<rect width="24" height="24" fill="white" transform="translate(48)"/>
</clipPath>
<clipPath id="clip2_5_20049">
<rect width="24" height="24" fill="white" transform="translate(96)"/>
</clipPath>
<clipPath id="clip3_5_20049">
<rect width="24" height="24" fill="white" transform="translate(144)"/>
</clipPath>
<clipPath id="clip4_5_20049">
<rect width="24" height="24" fill="white" transform="translate(192)"/>
</clipPath>
</defs>
</svg>
