<svg width="2" height="7" viewBox="0 0 2 7" fill="none" xmlns="http://www.w3.org/2000/svg">
<path d="M0.214183 1.29868C0.0710472 1.15554 0 0.973745 0 0.757475C0 0.541204 0.068944 0.352104 0.20999 0.211058C0.351036 0.0700121 0.531795 0 0.754334 0C0.976873 0 1.15866 0.0700121 1.29866 0.211058C1.43971 0.352104 1.5097 0.534936 1.5097 0.757475C1.5097 0.981058 1.43657 1.15554 1.29343 1.29868C1.1503 1.44286 0.970597 1.51495 0.753282 1.51495C0.535967 1.51495 0.357311 1.4439 0.21313 1.29868H0.214183ZM0.0992557 6.96558C0.0773153 6.94364 0.0658091 6.91648 0.0658091 6.88514V2.17733C0.0658091 2.14494 0.0762705 2.11778 0.0992557 2.0948C0.121196 2.07286 0.148356 2.06137 0.1797 2.06137H1.29761C1.32895 2.06137 1.35613 2.07286 1.37807 2.0948C1.40001 2.11674 1.41254 2.1439 1.41254 2.17733V6.88514C1.41254 6.91648 1.40106 6.94364 1.37807 6.96558C1.35508 6.98752 1.32895 7.00006 1.29761 7.00006H0.1797C0.148356 7.00006 0.121196 6.98857 0.0992557 6.96558Z" fill="white"/>
</svg>
