<svg width="35" height="35" viewBox="0 0 35 35" fill="none" xmlns="http://www.w3.org/2000/svg">
<g clip-path="url(#clip0_4_10694)">
<path d="M31.5025 0.0483398H3.49752C1.56589 0.0483398 0 1.61423 0 3.54586V31.5508C0 33.4824 1.56589 35.0483 3.49752 35.0483H31.5025C33.4341 35.0483 35 33.4824 35 31.5508V3.54586C35 1.61423 33.4341 0.0483398 31.5025 0.0483398Z" fill="white"/>
<mask id="mask0_4_10694" style="mask-type:luminance" maskUnits="userSpaceOnUse" x="7" y="7" width="21" height="21">
<path d="M27.5 7.54932H7.5V27.5493H27.5V7.54932Z" fill="white"/>
</mask>
<g mask="url(#mask0_4_10694)">
<path d="M27.4997 17.7735C27.4987 17.1397 27.4446 16.507 27.3379 15.8818H17.7168V19.6402H23.2255C23.1045 20.2454 22.8614 20.8209 22.5106 21.3331C22.1597 21.8454 21.7081 22.284 21.1821 22.6235V25.1235H24.4686C25.4702 24.1735 26.2574 23.0286 26.7794 21.7627C27.3015 20.4968 27.5468 19.1379 27.4997 17.7735Z" fill="#4285F4"/>
<path d="M17.7169 27.5484C20.2013 27.6135 22.617 26.7458 24.4687 25.1234L21.1822 22.6233C20.1512 23.2762 18.9446 23.6128 17.7169 23.59C16.4355 23.5731 15.1922 23.1614 14.1636 22.4134C13.1349 21.6654 12.3732 20.6192 11.9868 19.4233H8.58105V21.9983C9.42627 23.6631 10.7289 25.0644 12.3427 26.0448C13.9565 27.0251 15.8175 27.5458 17.7169 27.5484Z" fill="#34A853"/>
<path d="M11.9869 19.4571C11.5555 18.2199 11.5555 16.8776 11.9869 15.6404V13.0654H8.58115C7.8589 14.4542 7.48242 15.9904 7.48242 17.5488C7.48242 19.1071 7.8589 20.6433 8.58115 22.0321L11.9869 19.4571Z" fill="#FBBC05"/>
<path d="M17.7174 11.5063C19.1736 11.4833 20.5805 12.0221 21.634 13.0063L24.5459 10.1563C22.7063 8.45606 20.2644 7.52096 17.7344 7.54793C15.8386 7.54737 13.9801 8.06308 12.3667 9.03735C10.7532 10.0116 9.44858 11.406 8.59863 13.0646L12.0043 15.6396C12.3957 14.4527 13.1574 13.4156 14.1821 12.6742C15.2069 11.9328 16.4432 11.5244 17.7174 11.5063Z" fill="#EA4335"/>
</g>
</g>
<defs>
<clipPath id="clip0_4_10694">
<rect width="35" height="35" fill="white"/>
</clipPath>
</defs>
</svg>
