<svg width="56" height="56" viewBox="0 0 56 56" fill="none" xmlns="http://www.w3.org/2000/svg">
<g clip-path="url(#clip0_4_15848)">
<g clip-path="url(#clip1_4_15848)">
<g clip-path="url(#clip2_4_15848)">
<path d="M0 11.2C0 5.01441 5.01441 0 11.2 0H44.8C50.9856 0 56 5.01441 56 11.2V44.8C56 50.9856 50.9856 56 44.8 56H11.2C5.01441 56 0 50.9856 0 44.8V11.2Z" fill="white"/>
<mask id="mask0_4_15848" style="mask-type:luminance" maskUnits="userSpaceOnUse" x="10" y="10" width="36" height="36">
<path d="M45.5002 10.5H10.5002V45.5H45.5002V10.5Z" fill="white"/>
</mask>
<g mask="url(#mask0_4_15848)">
<path d="M39.5598 17.3272C39.534 17.1724 39.4078 17.0538 39.2512 17.039C39.1283 17.0187 36.4239 16.8333 36.4239 16.8333L34.3623 14.7717C34.1762 14.566 33.7651 14.6262 33.6098 14.6688C33.5895 14.6688 33.1985 14.7918 32.5587 14.9997C31.9368 13.2005 30.836 11.5511 28.8968 11.5511H28.7311C28.1754 10.8309 27.4952 10.5 26.9209 10.5C22.4059 10.5202 20.2545 16.1508 19.5742 19.028L16.4188 19.9959C15.4508 20.3043 15.4153 20.3267 15.2851 21.2499L12.6234 41.7676L32.5668 45.5L43.3748 43.1703C43.3748 43.1501 39.5794 17.523 39.5598 17.3272ZM31.4528 15.3453C30.9513 15.511 30.3793 15.6762 29.763 15.8621V15.4903C29.7812 14.5622 29.6422 13.6379 29.3518 12.7564C30.3624 12.9117 31.0411 14.0459 31.4528 15.3453ZM28.1344 12.9948C28.4642 13.9672 28.6173 14.9909 28.5862 16.0174V16.2033L25.0998 17.2768C25.7823 14.7284 27.0407 13.4695 28.1344 12.9948ZM26.7946 11.7409C27.0008 11.7452 27.2013 11.8097 27.3715 11.9263C25.9168 12.6033 24.379 14.3139 23.7195 17.7379L20.9605 18.5833C21.7388 15.9852 23.5543 11.7359 26.7929 11.7359L26.7946 11.7409Z" fill="#95BF47"/>
<path d="M39.2514 17.0389C39.1283 17.0186 36.4241 16.8333 36.4241 16.8333L34.3623 14.7716C34.2857 14.6939 34.1818 14.6497 34.0742 14.6486L32.5692 45.4999L43.377 43.1702L39.5598 17.3479C39.5475 17.2706 39.5109 17.1991 39.4556 17.1438C39.4002 17.0883 39.3288 17.0512 39.2514 17.0389Z" fill="#5E8E3E"/>
<path d="M28.8973 23.0179L27.5554 26.9784C26.7444 26.5857 25.8577 26.3747 24.9566 26.3587C22.8522 26.3587 22.7493 27.6778 22.7493 28.0092C22.7493 29.8128 27.4722 30.5053 27.4722 34.7538C27.4722 38.0952 25.3476 40.239 22.4956 40.239C19.0722 40.239 17.3183 38.1144 17.3183 38.1144L18.2289 35.0792C18.2289 35.0792 20.0227 36.6269 21.5501 36.6269C21.7326 36.6339 21.9148 36.6037 22.0853 36.5383C22.256 36.4728 22.4115 36.3735 22.5425 36.2461C22.6737 36.1188 22.7776 35.9662 22.848 35.7977C22.9184 35.6291 22.9539 35.448 22.9523 35.2653C22.9523 32.8917 19.0749 32.7895 19.0749 28.9116C19.0749 25.6512 21.4253 22.4749 26.1482 22.4749C28.0044 22.5023 28.8924 23.0162 28.8924 23.0162L28.8973 23.0179Z" fill="white"/>
</g>
<path d="M11.2 1.16671H44.8V-1.16663H11.2V1.16671ZM54.8334 11.2V44.8H57.1666V11.2H54.8334ZM44.8 54.8334H11.2V57.1667H44.8V54.8334ZM1.16668 44.8V11.2H-1.16666V44.8H1.16668ZM11.2 54.8334C5.65875 54.8334 1.16668 50.3412 1.16668 44.8H-1.16666C-1.16666 51.6299 4.37008 57.1667 11.2 57.1667V54.8334ZM54.8334 44.8C54.8334 50.3412 50.3412 54.8334 44.8 54.8334V57.1667C51.6299 57.1667 57.1666 51.6299 57.1666 44.8H54.8334ZM44.8 1.16671C50.3412 1.16671 54.8334 5.65878 54.8334 11.2H57.1666C57.1666 4.37011 51.6299 -1.16663 44.8 -1.16663V1.16671ZM11.2 -1.16663C4.37008 -1.16663 -1.16666 4.37011 -1.16666 11.2H1.16668C1.16668 5.65878 5.65875 1.16671 11.2 1.16671V-1.16663Z" fill="#EBEEF1"/>
</g>
</g>
</g>
<defs>
<clipPath id="clip0_4_15848">
<rect width="56" height="56" rx="10" fill="white"/>
</clipPath>
<clipPath id="clip1_4_15848">
<rect width="56" height="56" fill="white"/>
</clipPath>
<clipPath id="clip2_4_15848">
<rect width="56" height="56" fill="white"/>
</clipPath>
</defs>
</svg>
