<svg width="127" height="24" viewBox="0 0 127 24" fill="none" xmlns="http://www.w3.org/2000/svg">
<g clip-path="url(#clip0_4_11844)">
<path d="M125.783 1.70205V1.66205C125.762 1.36208 125.762 1.00212 125.762 0.60216V0.522168L125.678 0.542166C125.572 0.562164 125.044 0.562164 124.559 0.562164H122.997C122.681 0.562164 122.385 0.562164 122.026 0.542166H121.984C121.921 0.582162 121.9 0.662153 121.9 0.702149C121.9 0.762143 121.921 0.822137 121.963 0.862133L122.132 0.882131C122.554 0.922127 122.575 0.98212 122.575 1.82203V4.70173C122.575 5.54165 122.554 5.60164 122.132 5.64164L121.9 5.66163L121.879 5.68163C121.836 5.72163 121.815 5.80162 121.836 5.86161C121.836 5.92161 121.879 5.9616 121.921 5.9816H121.963C122.364 5.9616 122.638 5.9616 123.018 5.9616C123.356 5.9616 123.651 5.9616 124.137 5.9816H124.179C124.242 5.9616 124.263 5.88161 124.263 5.82162C124.263 5.76162 124.242 5.70163 124.2 5.66163L123.884 5.62164C123.461 5.58164 123.419 5.54165 123.419 4.68174V3.60185C123.419 3.44186 123.419 3.44186 123.63 3.44186H124.2C124.496 3.44186 124.728 3.44186 124.833 3.48186C124.96 3.52186 125.023 3.58185 125.065 3.74183L125.15 4.0818L125.171 4.1018C125.255 4.16179 125.424 4.16179 125.488 4.0818L125.509 4.0618V4.0418C125.509 3.96181 125.509 3.84182 125.488 3.74183C125.488 3.60185 125.466 3.42187 125.466 3.28188C125.466 3.1219 125.466 2.94192 125.488 2.80193C125.488 2.68194 125.509 2.56196 125.509 2.48196V2.46197L125.488 2.44197C125.445 2.38197 125.361 2.38197 125.319 2.38197C125.255 2.38197 125.192 2.40197 125.15 2.44197L125.065 2.78193C125.023 2.98191 124.96 3.00191 124.897 3.02191C124.812 3.04191 124.538 3.0619 124.2 3.0619H123.63C123.419 3.0619 123.419 3.0619 123.419 2.90192V1.2021C123.419 0.942124 123.419 0.942124 123.609 0.942124H124.116C124.475 0.942124 124.749 0.942124 124.918 0.98212C125.277 1.06211 125.382 1.30209 125.466 1.70205V1.72204L125.488 1.74204C125.53 1.76204 125.572 1.78204 125.614 1.78204C125.678 1.78204 125.762 1.76204 125.783 1.70205ZM120.106 3.26188C120.106 1.90202 119.177 0.442176 117.109 0.442176C115.357 0.442176 114.027 1.68205 114.027 3.34188C114.027 4.72173 115.082 6.12159 117.109 6.12159C118.818 6.12159 120.106 4.88172 120.106 3.26188ZM119.135 3.50186C119.135 5.16169 118.101 5.74163 117.214 5.74163C115.462 5.74163 114.998 4.0618 114.998 3.0819C114.998 1.40208 116.053 0.822137 116.961 0.822137C118.565 0.822137 119.135 2.26199 119.135 3.50186ZM112.212 17.1604C112.212 20.6201 114.935 23.6798 119.43 23.6798C123.356 23.6798 126.48 20.8601 126.48 16.9605C126.48 13.5808 124.116 10.3611 119.43 10.3611C115.272 10.3811 112.212 13.3208 112.212 17.1604ZM114.259 16.5405C114.259 12.3209 117.003 10.9611 119.114 10.9611C122.997 10.9611 124.475 14.3807 124.475 17.5604C124.475 21.34 122.153 23.0798 119.726 23.0798C115.716 23.0998 114.259 19.4002 114.259 16.5405ZM109.764 0.862133C109.806 0.822137 109.827 0.762143 109.827 0.702149C109.827 0.642156 109.785 0.582162 109.743 0.562164L109.722 0.542166H109.701C109.11 0.582162 108.751 0.582162 108.118 0.542166H108.075C108.033 0.562164 107.991 0.60216 107.991 0.662153C107.97 0.722147 107.991 0.802139 108.054 0.842135L108.075 0.862133L108.244 0.882131C108.413 0.902129 108.519 0.942124 108.54 0.962122C108.519 1.08211 108.223 1.60206 108.033 1.92202L107.991 1.98202C107.78 2.36198 107.548 2.76194 107.252 3.24189C107.02 2.86193 106.809 2.44197 106.598 2.04201L106.345 1.56206C106.281 1.44207 106.091 1.04211 106.091 0.98212C106.091 0.962122 106.134 0.942124 106.387 0.902129L106.514 0.882131L106.535 0.862133C106.577 0.822137 106.598 0.742145 106.577 0.662153C106.556 0.60216 106.535 0.562164 106.471 0.542166H106.429C106.218 0.562164 105.923 0.562164 105.522 0.562164C105.121 0.562164 104.825 0.562164 104.551 0.542166H104.508C104.466 0.562164 104.445 0.60216 104.424 0.662153C104.403 0.722147 104.424 0.802139 104.466 0.842135L104.487 0.862133L104.741 0.902129C104.973 0.942124 105.078 0.962122 105.353 1.48207L106.345 3.32188C106.577 3.76183 106.598 3.84182 106.598 4.28178V4.68174C106.598 5.54165 106.577 5.60164 106.155 5.64164L105.859 5.66163L105.838 5.68163C105.796 5.72163 105.775 5.80162 105.796 5.86161C105.817 5.92161 105.838 5.9616 105.88 5.9816H105.923C106.387 5.9616 106.682 5.9616 107.02 5.9616C107.358 5.9616 107.674 5.9616 108.16 5.9816H108.202C108.244 5.9616 108.265 5.92161 108.286 5.86161C108.286 5.80162 108.286 5.74163 108.244 5.68163L108.223 5.66163L107.885 5.64164C107.484 5.62164 107.442 5.56165 107.442 4.68174V4.26178C107.442 3.66184 107.463 3.60185 107.822 3.00191L108.35 2.122C108.392 2.04201 108.434 1.96202 108.497 1.90202C108.835 1.34208 109.067 0.962122 109.426 0.902129L109.764 0.862133ZM106.809 10.6611C106.471 10.5811 105.395 10.3811 104.234 10.3811C101.174 10.3811 99.1687 11.2811 97.7969 12.6409C96.5305 13.9008 95.9607 15.5606 95.9607 17.2004C95.9607 18.9003 96.6149 20.4201 97.8391 21.56C99.4009 23.0598 101.617 23.6998 104.023 23.6998C105.121 23.6998 106.577 23.4598 107.653 23.1998C108.033 23.0998 108.413 23.0198 108.645 23.0198C108.73 22.9598 108.73 22.8399 108.666 22.7799C108.308 22.6399 108.181 22.1799 108.181 21.42V20.3401C108.181 19.3602 108.202 18.8203 109.046 18.7203L109.363 18.6803C109.511 18.5603 109.489 18.2803 109.342 18.2003C108.666 18.2403 107.991 18.2603 107.189 18.2603C105.986 18.2603 104.867 18.2403 104.276 18.2003C104.129 18.2603 104.107 18.6003 104.276 18.6803L105.163 18.7803C106.429 18.9203 106.492 19.0402 106.492 20.6401V21.4C106.492 22.0199 106.387 22.3599 106.281 22.4999C106.049 22.8199 105.311 23.0798 104.044 23.0798C99.9708 23.0798 97.9446 20.1801 97.9446 16.4805C97.9446 13.6008 99.6753 10.9411 103.601 10.9411C105.669 10.9411 107.189 11.601 107.759 13.6808C107.885 13.8008 108.244 13.7808 108.308 13.6208C108.118 12.4609 108.012 11.461 108.012 10.8411C107.822 10.8811 107.189 10.7411 106.809 10.6611ZM103.348 0.442176V0.40218C103.327 0.342187 103.221 0.342187 103.2 0.342187C103.179 0.342187 103.158 0.342187 103.116 0.362185H103.094L103.073 0.382183C102.968 0.562164 102.926 0.582162 102.461 0.582162H98.9577C98.5778 0.582162 98.4089 0.562164 98.3667 0.382183V0.362185L98.3456 0.342187C98.3245 0.322189 98.2823 0.302191 98.219 0.302191C98.1979 0.302191 98.1346 0.302191 98.0923 0.322189L98.0712 0.342187V0.362185C98.0079 0.682151 97.8813 1.1821 97.7547 1.54206V1.56206L97.7758 1.58206C97.818 1.68205 98.0079 1.72204 98.0923 1.66205H98.1134V1.64205C98.1979 1.46207 98.2823 1.28209 98.4723 1.10211C98.6622 0.942124 99.0843 0.922127 99.4642 0.922127H99.9286C100.118 0.922127 100.118 0.922127 100.118 1.12211V4.70173C100.118 5.56165 100.076 5.60164 99.6542 5.64164L99.3587 5.66163H99.3376C99.2954 5.68163 99.2532 5.74163 99.2532 5.82162C99.2532 5.88161 99.2743 5.94161 99.3376 5.9616H99.3798C99.9074 5.94161 100.203 5.94161 100.562 5.94161C100.899 5.94161 101.174 5.94161 101.659 5.9616H101.701C101.765 5.92161 101.786 5.84162 101.786 5.80162C101.786 5.74163 101.765 5.68163 101.723 5.64164L101.427 5.60164C101.005 5.56165 100.984 5.52165 100.984 4.66174V1.06211C100.984 0.98212 100.984 0.902129 101.005 0.882131C101.026 0.862133 101.11 0.862133 101.174 0.862133H101.765C102.208 0.862133 102.525 0.922127 102.715 1.04211C102.799 1.10211 102.862 1.30209 102.904 1.58206V1.60206L102.926 1.62205C102.947 1.66205 103.01 1.68205 103.073 1.68205C103.158 1.68205 103.221 1.64205 103.242 1.60206V1.56206C103.179 1.42207 103.242 0.762143 103.348 0.442176ZM95.623 4.70173V1.84203C95.623 0.962122 95.6441 0.902129 96.0873 0.882131L96.3195 0.862133H96.3406C96.3828 0.842135 96.4039 0.782141 96.4039 0.702149C96.4039 0.682151 96.3828 0.582162 96.3195 0.542166H96.2773C95.8763 0.562164 95.5808 0.562164 95.222 0.562164C94.8632 0.562164 94.5677 0.562164 94.1667 0.542166H94.1245C94.0611 0.582162 94.04 0.662153 94.04 0.702149C94.04 0.762143 94.0611 0.822137 94.1034 0.862133H94.1245L94.3566 0.882131C94.7787 0.922127 94.821 0.962122 94.821 1.84203V4.70173C94.821 5.56165 94.7999 5.60164 94.3566 5.66163L94.1245 5.68163L94.1034 5.70163C94.0611 5.74163 94.04 5.82162 94.0612 5.88161C94.0612 5.94161 94.1034 5.9816 94.1456 6.0016H94.1878C94.6099 5.9816 94.9054 5.9816 95.2431 5.9816C95.5808 5.9816 95.8551 5.9816 96.2984 6.0016H96.3406C96.4039 5.9616 96.425 5.88161 96.425 5.84162C96.425 5.78162 96.4039 5.72163 96.3617 5.68163L96.1295 5.64164C95.6441 5.62164 95.623 5.56165 95.623 4.70173ZM94.23 22.8998C93.3647 22.7999 93.0903 22.5199 92.4993 20.8601L89.7134 13.1209C89.4179 12.2809 89.0802 11.381 88.8269 10.5411C88.7847 10.4011 88.637 10.3611 88.5314 10.3611C88.2993 10.6011 87.9616 10.9611 87.4762 11.1011C87.5395 11.401 87.4128 11.781 87.1385 12.4609L85.0701 17.6604C84.2259 19.8202 83.656 21.06 83.2761 21.9599C83.0017 22.6599 82.5374 22.8598 82.052 22.8998L81.3766 22.9598C81.25 23.0598 81.2922 23.3598 81.4188 23.4398C81.9676 23.4198 82.7063 23.3798 83.3605 23.3798C84.3103 23.3998 84.9435 23.3998 85.4711 23.4398C85.6611 23.3598 85.6611 23.0598 85.5133 22.9598L84.8379 22.8998C84.3525 22.8598 84.247 22.7399 84.247 22.5199C84.247 22.2999 84.3947 21.78 84.6902 20.92L85.4078 18.9003C85.5555 18.5003 85.6611 18.4403 86.1887 18.4403H89.249C89.8611 18.4403 89.9455 18.5003 90.0722 18.9203L90.9586 21.54C91.1275 21.9999 91.2119 22.3399 91.2119 22.5599C91.2119 22.7599 90.9375 22.8598 90.4943 22.8998L89.9033 22.9598C89.7556 23.0598 89.7767 23.3598 89.9455 23.4398C90.5365 23.4198 91.2963 23.3798 92.2883 23.3798C93.1958 23.3798 93.9134 23.3998 94.7365 23.4398C94.8421 23.3598 94.8843 23.0598 94.7365 22.9598L94.23 22.8998ZM88.9958 17.6604H86.5053C85.9354 17.6604 85.9143 17.6404 86.0832 17.2004L87.3706 13.8608C87.6028 13.2808 87.7927 12.8209 87.8561 12.7209H87.8983C88.0249 12.9609 88.1938 13.4808 88.3626 13.9408L89.4601 17.0805C89.6289 17.5804 89.5867 17.6604 88.9958 17.6604ZM89.8189 1.64205C89.8189 1.34208 89.9455 0.822137 90.7687 0.822137C91.5074 0.822137 91.7395 1.28209 91.8661 1.68205L91.8873 1.70205C91.9084 1.74204 91.9506 1.74204 92.0139 1.74204C92.0772 1.74204 92.1616 1.72204 92.2038 1.66205L92.225 1.64205C92.225 1.32209 92.1616 0.862133 92.0772 0.642156L92.0139 0.60216H91.9717C91.9084 0.60216 91.8028 0.582162 91.6973 0.562164C91.4863 0.50217 91.1697 0.462174 90.8953 0.462174C89.8189 0.462174 89.1013 1.04211 89.1013 1.90202C89.1013 2.64195 89.6923 3.1219 90.0511 3.34188L90.8531 3.80183C91.444 4.16179 91.5074 4.52175 91.5074 4.88172C91.5074 5.30167 91.1908 5.74163 90.5154 5.74163C89.65 5.74163 89.2913 5.12169 89.1224 4.58175V4.56175C89.1013 4.52175 89.0591 4.50175 88.9958 4.50175C88.9325 4.50175 88.8691 4.52175 88.8058 4.58175L88.7847 4.60174V4.62174C88.8058 4.98171 88.9113 5.58164 89.0169 5.76162V5.78162H89.038C89.2068 5.88161 89.6712 6.08159 90.3887 6.08159C91.5074 6.08159 92.2461 5.46166 92.2461 4.54175C92.2461 3.90182 91.8873 3.38187 91.1486 2.94192L90.4732 2.54196C90.2621 2.42197 89.8189 2.102 89.8189 1.64205ZM87.6872 6.0216C87.7294 6.0016 87.7505 5.94161 87.7294 5.90161C87.7294 5.86161 87.6872 5.82162 87.645 5.80162H87.6239C87.4128 5.78162 87.2229 5.70163 87.0751 5.58164C86.4842 5.12169 86.0199 4.44176 85.3867 3.46186C85.3445 3.40187 85.3445 3.36187 85.3445 3.34188C85.6189 3.22189 86.4209 2.84193 86.4209 1.96202C86.4209 1.28209 86.0199 0.942124 85.6822 0.782141C85.2601 0.562164 84.7113 0.542166 84.247 0.542166C83.4661 0.542166 82.8751 0.562164 82.3475 0.60216H82.3264C82.2841 0.622158 82.2419 0.682151 82.2419 0.742145C82.2419 0.802139 82.263 0.882131 82.3053 0.902129H82.3264L82.6218 0.942124C82.8962 0.98212 82.9384 1.02212 82.9384 1.82203V4.70173C82.9384 5.54165 82.9173 5.60164 82.4952 5.64164L82.263 5.66163L82.2419 5.68163C82.1997 5.74163 82.1997 5.80162 82.1997 5.86161C82.2208 5.92161 82.2419 5.9616 82.2841 5.9816H82.3264C82.7063 5.9616 83.0017 5.9616 83.3816 5.9616C83.7404 5.9616 84.0148 5.9616 84.3947 5.9816H84.4369C84.5003 5.9616 84.5214 5.88161 84.5214 5.84162C84.5214 5.76162 84.5003 5.70163 84.4791 5.68163L84.458 5.66163L84.2681 5.64164C83.8249 5.58164 83.8249 5.54165 83.8249 4.70173V3.68184C83.8249 3.56185 83.8249 3.56185 84.1626 3.56185C84.4791 3.56185 84.6058 3.64184 84.7113 3.78183C84.8379 3.96181 84.9857 4.18179 85.1334 4.40177C85.2812 4.62174 85.4289 4.84172 85.5344 5.0017C86.1254 5.78162 86.5475 6.04159 87.3284 6.04159C87.4339 6.06159 87.5817 6.06159 87.6872 6.0216ZM85.1334 3.04191C84.9013 3.22189 84.5636 3.24189 84.3103 3.24189C83.9304 3.24189 83.8038 3.22189 83.7827 3.22189V1.12211C83.7827 0.942124 83.7827 0.922127 84.2681 0.922127C85.2178 0.922127 85.5555 1.56206 85.5555 2.102C85.5344 2.54196 85.4078 2.84193 85.1334 3.04191ZM80.7645 4.84172V4.80172C80.7223 4.72173 80.6379 4.68174 80.5746 4.68174C80.5324 4.68174 80.4902 4.70173 80.4691 4.72173L80.448 4.74173C80.2158 5.20168 79.9836 5.44166 79.8781 5.48165C79.6881 5.56164 79.4349 5.60164 78.8228 5.60164C78.1263 5.60164 77.9364 5.52165 77.8519 5.44166C77.7253 5.32167 77.7042 5.0617 77.7042 4.64174V3.50186C77.7042 3.34188 77.7042 3.34188 77.9153 3.34188H78.4007C78.6962 3.34188 78.9072 3.34188 79.0339 3.38187C79.1605 3.40187 79.2027 3.48186 79.2449 3.64184L79.3293 3.96181L79.3504 3.98181C79.3927 4.0218 79.4349 4.0418 79.5193 4.0418C79.6037 4.0418 79.667 4.0218 79.6881 3.96181V3.92182C79.6881 3.84182 79.6881 3.74183 79.667 3.62185C79.667 3.48186 79.6459 3.30188 79.6459 3.1419C79.6459 2.98191 79.667 2.80193 79.667 2.64195C79.667 2.52196 79.6881 2.40197 79.6881 2.32198V2.28199C79.667 2.24199 79.6037 2.20199 79.5193 2.20199C79.456 2.20199 79.3927 2.22199 79.3504 2.26199L79.266 2.62195C79.2238 2.80193 79.1816 2.84193 79.0972 2.86193C79.0128 2.88192 78.7595 2.90192 78.4007 2.90192H77.9153C77.7042 2.90192 77.7042 2.90192 77.7042 2.74194V1.2021C77.7042 0.942124 77.7042 0.942124 77.8942 0.942124H78.5062C78.865 0.942124 79.1394 0.942124 79.3082 0.98212C79.6881 1.08211 79.7726 1.30209 79.8992 1.66205L79.9203 1.70205L79.9414 1.72204C79.9625 1.76204 80.0258 1.78204 80.0891 1.78204C80.1525 1.78204 80.2369 1.76204 80.258 1.70205L80.2791 1.68205L80.258 1.56206C80.2158 1.10211 80.1736 0.702149 80.1314 0.582162L80.1103 0.522168L80.0469 0.542166C79.9625 0.562164 79.4349 0.562164 78.9283 0.562164H77.3454C77.0288 0.562164 76.7333 0.562164 76.3534 0.542166H76.3112C76.2479 0.582162 76.2268 0.662153 76.2268 0.702149C76.2268 0.782141 76.2479 0.822137 76.2901 0.862133L76.459 0.882131C76.9022 0.922127 76.9233 0.98212 76.9233 1.82203V4.70173C76.9233 5.56165 76.8811 5.60164 76.459 5.64164L76.1635 5.66163L76.1424 5.68163C76.1002 5.72163 76.0791 5.80162 76.1002 5.86161C76.1002 5.92161 76.1424 5.9616 76.1846 5.9816H76.2268C76.7122 5.9616 77.0077 5.9616 77.3665 5.9616H78.1263C78.865 5.9616 79.6037 5.9616 80.3846 5.9816H80.4268L80.448 5.94161C80.4902 5.74163 80.7223 5.12169 80.7645 4.84172ZM74.9605 0.842135C75.0238 0.802139 75.0238 0.742145 75.0238 0.682151C75.0238 0.622158 74.9816 0.582162 74.9394 0.562164H74.8971C74.6228 0.582162 74.3484 0.582162 74.074 0.582162C73.7363 0.582162 73.4197 0.582162 73.2087 0.562164H73.1665C73.1243 0.582162 73.082 0.642156 73.082 0.702149C73.082 0.762143 73.1031 0.822137 73.1454 0.862133L73.1665 0.882131L73.3353 0.902129C73.6308 0.942124 73.6519 1.00212 73.6519 1.00212C73.6519 1.06211 73.6519 1.1421 73.5886 1.30209C73.4408 1.64205 73.0398 2.56196 72.8077 3.1019C72.7444 3.24189 72.6599 3.42187 72.5755 3.62185C72.4067 3.98181 72.2167 4.42176 72.0479 4.76173C71.6469 3.88182 71.2881 3.02191 70.9082 2.122C70.6549 1.54206 70.5283 1.12211 70.486 1.02212C70.5071 1.00212 70.5705 0.962122 70.8237 0.922127L70.9715 0.902129L70.9926 0.882131C71.0348 0.842135 71.0559 0.782141 71.0559 0.722147C71.0559 0.662153 71.0137 0.60216 70.9715 0.582162H70.9293C70.5494 0.60216 70.2539 0.60216 69.9162 0.60216C69.5574 0.60216 69.283 0.60216 69.0508 0.582162H69.0297L69.0086 0.60216C68.9664 0.622158 68.9242 0.682151 68.9242 0.742145C68.9242 0.802139 68.9453 0.862133 68.9875 0.902129L69.0086 0.922127L69.1775 0.942124C69.5152 0.98212 69.6207 1.12211 69.8107 1.56206L71.3092 5.0417C71.478 5.46166 71.6258 5.82162 71.6891 6.10159V6.14158L71.7102 6.16158C71.7524 6.18158 71.8157 6.18158 71.8579 6.18158C71.9001 6.18158 71.9423 6.16158 71.9846 6.14158L72.0057 6.12159V6.10159C72.1534 5.66163 72.5544 4.72173 72.8921 4.0218L73.3564 3.04191C73.7574 2.20199 74.074 1.56206 74.3062 1.2021C74.4117 1.04211 74.5172 0.962122 74.6861 0.942124L74.9605 0.842135ZM69.4519 12.001C67.9111 13.1409 66.8981 14.9607 66.8981 17.1004C66.8981 19.5802 68.1644 21.34 69.7896 22.3999C71.267 23.3398 73.0187 23.6798 74.8549 23.6798C76.1635 23.6798 77.6198 23.3998 78.063 23.2398C78.2952 23.1598 78.5273 23.0798 78.7806 23.0398C79.0761 22.6799 79.6037 21.4 79.7515 20.4001C79.667 20.2601 79.3716 20.2201 79.2238 20.3201C78.7595 21.46 77.5987 23.0798 74.9816 23.0798C71.6469 23.0798 68.9453 20.8401 68.9453 16.8005C68.9453 12.8209 71.5835 10.9611 74.6861 10.9611C77.6198 10.9611 78.5484 12.4609 78.8439 13.7608C78.9917 13.8808 79.2871 13.8608 79.3927 13.7208C79.2238 12.5409 79.1394 11.341 79.1183 10.9011C78.9283 10.9211 78.8017 10.8811 78.5484 10.8211C77.5987 10.5611 76.058 10.3611 74.9605 10.3611C72.8077 10.3811 70.9293 10.9211 69.4519 12.001ZM66.8559 4.70173V1.84203C66.8559 0.98212 66.877 0.902129 67.3202 0.882131L67.5523 0.862133H67.5734C67.6157 0.842135 67.6368 0.782141 67.6368 0.702149C67.6368 0.682151 67.6157 0.582162 67.5523 0.542166H67.5101C67.1091 0.562164 66.8136 0.562164 66.4548 0.562164C66.096 0.562164 65.8006 0.562164 65.3996 0.542166H65.3573C65.294 0.582162 65.2729 0.662153 65.2729 0.702149C65.2729 0.782141 65.294 0.822137 65.3362 0.862133H65.3573L65.5895 0.882131C66.0116 0.922127 66.0538 0.98212 66.0538 1.84203V4.70173C66.0538 5.56165 66.0327 5.60164 65.5895 5.66163L65.3573 5.68163L65.3362 5.70163C65.294 5.74163 65.2729 5.82162 65.294 5.88161C65.294 5.94161 65.3362 5.9816 65.3784 6.0016H65.4207C65.8428 5.9816 66.1383 5.9816 66.4759 5.9816C66.8136 5.9816 67.1091 5.9816 67.5312 6.0016H67.5734C67.6368 5.9616 67.6579 5.88161 67.6579 5.84162C67.6579 5.78162 67.6368 5.72163 67.5946 5.68163L67.3624 5.64164C66.877 5.62164 66.8559 5.56165 66.8559 4.70173ZM62.5925 20.4601V13.6008C62.5925 11.561 62.6347 11.2411 63.8377 11.1411L64.3443 11.1011C64.4709 11.0211 64.4287 10.6811 64.3021 10.6211C63.289 10.6611 62.5925 10.6811 61.7905 10.6811C60.9462 10.6811 60.2498 10.6611 59.2367 10.6211C59.11 10.6811 59.0678 11.0211 59.1945 11.1011L59.701 11.1411C60.904 11.2411 60.9462 11.561 60.9462 13.6008V20.4401C60.9462 22.4799 60.904 22.7399 59.701 22.8798L59.1945 22.9398C59.0678 23.0598 59.11 23.3598 59.2367 23.4198C60.2498 23.3798 60.9462 23.3598 61.7905 23.3598C62.5925 23.3598 63.289 23.3798 64.3021 23.4198C64.4287 23.3598 64.4709 23.0198 64.3443 22.9398L63.8377 22.8798C62.6347 22.7599 62.5925 22.4999 62.5925 20.4601ZM63.6478 0.842135C63.69 0.802139 63.7111 0.742145 63.7111 0.682151C63.7111 0.622158 63.6689 0.582162 63.6267 0.542166L63.6056 0.522168H63.5845C63.3101 0.542166 63.0779 0.542166 62.7191 0.542166C62.4236 0.542166 62.1493 0.542166 61.7272 0.522168H61.6849C61.6427 0.542166 61.6005 0.582162 61.5794 0.642156C61.5583 0.722147 61.5794 0.782141 61.6427 0.822137L61.6638 0.842135L61.8327 0.862133C62.1282 0.902129 62.2759 0.942124 62.3181 1.00212C62.4236 1.1621 62.487 1.74204 62.487 2.62195V4.56175C62.1915 4.28178 61.896 3.94181 61.495 3.54185L60.3131 2.28199C59.4688 1.40208 59.0045 0.802139 58.899 0.542166L58.8779 0.50217H58.8357C58.7301 0.522168 58.6035 0.522168 58.4558 0.522168C58.308 0.522168 57.8648 0.522168 57.506 0.50217H57.4638C57.4216 0.522168 57.3794 0.562164 57.3794 0.622158C57.3583 0.682151 57.3794 0.762143 57.4216 0.802139L57.4427 0.822137L57.6115 0.842135C57.8437 0.862133 58.0125 0.922127 58.097 1.02212C58.2658 1.1821 58.2658 1.34208 58.2658 1.56206V3.94181C58.2658 4.32177 58.2658 5.24168 58.1603 5.50165C58.1392 5.54165 58.0759 5.60164 57.8437 5.62164L57.5904 5.64164L57.5693 5.66163C57.5271 5.70163 57.506 5.76162 57.5271 5.82162C57.5482 5.88161 57.5693 5.94161 57.6115 5.9616L57.6326 5.9816H57.6538C57.9492 5.9616 58.1814 5.9616 58.5402 5.9616C58.8357 5.9616 59.11 5.9616 59.5322 5.9816H59.5533L59.5744 5.9616C59.6166 5.94161 59.6377 5.90161 59.6588 5.84162C59.6588 5.78162 59.6588 5.72163 59.6166 5.68163L59.5955 5.66163L59.3 5.64164C59.0889 5.62164 58.9623 5.58164 58.9201 5.52165C58.8357 5.36167 58.7724 4.78173 58.7724 3.90182V2.162C58.7724 2.02201 58.7724 1.86203 58.7935 1.76204C58.9201 1.90202 59.1523 2.162 59.3633 2.38197C59.5111 2.54196 59.6377 2.68194 59.7221 2.76194L61.6849 4.88172C62.3392 5.58164 62.6558 5.94161 62.7613 6.08159L62.7824 6.10159H62.8247C62.9302 6.10159 63.0146 6.06159 63.0568 5.9616V5.92161C63.0357 5.82162 63.0357 5.50165 63.0357 4.52175V2.50196C63.0357 2.08201 63.0357 1.24209 63.1623 0.98212C63.1623 0.962122 63.2679 0.902129 63.5845 0.842135H63.6478ZM56.0708 0.842135C56.113 0.802139 56.1341 0.742145 56.113 0.682151C56.113 0.642156 56.0708 0.582162 56.0286 0.562164H55.9864C55.6909 0.582162 55.4588 0.582162 55.1 0.582162C54.7834 0.582162 54.4668 0.582162 54.1291 0.562164H54.108L54.0869 0.582162C54.0447 0.60216 54.0236 0.662153 54.0025 0.702149C54.0025 0.762143 54.0025 0.822137 54.0447 0.862133L54.0658 0.882131L54.2979 0.902129C54.4879 0.922127 54.6145 0.962122 54.6778 1.04211C54.7834 1.2021 54.8256 1.78204 54.8256 2.66195V3.58185C54.8256 4.52175 54.5512 5.66163 53.2004 5.66163C52.0818 5.66163 51.5542 5.0017 51.5542 3.58185V1.82203C51.5542 0.962122 51.5753 0.902129 51.9974 0.882131L52.2085 0.862133H52.2296C52.2718 0.842135 52.2929 0.782141 52.2929 0.722147C52.2929 0.662153 52.2718 0.60216 52.2085 0.562164H52.1663C51.7652 0.582162 51.4909 0.582162 51.1321 0.582162C50.7944 0.582162 50.4778 0.582162 50.0768 0.562164H50.0346C49.9713 0.582162 49.9502 0.662153 49.9502 0.722147C49.9502 0.782141 49.9713 0.842135 50.0135 0.862133H50.0346L50.2667 0.882131C50.6889 0.922127 50.71 0.98212 50.71 1.82203V3.72184C50.71 4.68174 50.921 5.28167 51.3853 5.66163C51.7652 5.9616 52.314 6.12159 53.0105 6.12159C53.6859 6.12159 54.319 5.88161 54.6778 5.52165C55.0788 5.10169 55.2899 4.46176 55.2899 3.56185V2.66195C55.2899 2.26199 55.2899 1.30209 55.3954 1.06211C55.4376 0.98212 55.5854 0.922127 55.7542 0.902129L55.9864 0.882131L56.0708 0.842135ZM46.3411 11.1011C46.4677 11.0211 46.4255 10.6811 46.2989 10.6211C45.4335 10.6611 44.737 10.6811 43.935 10.6811C43.0697 10.6811 42.3732 10.6411 41.3812 10.6211C41.2546 10.6811 41.2124 11.0211 41.339 11.1011L41.8667 11.1411C42.9219 11.2211 43.0697 11.541 43.0697 13.5608V20.4801C43.0697 22.4999 43.0275 22.6999 41.8878 22.8798L41.5501 22.9398C41.4234 23.0598 41.4656 23.3598 41.5923 23.4198C42.3943 23.3998 43.0697 23.3598 43.9561 23.3598C44.7581 23.3598 45.4335 23.3798 46.531 23.4198C46.6577 23.3598 46.6999 23.0198 46.5732 22.9398L45.9823 22.8798C44.8426 22.7599 44.737 22.4999 44.737 20.4801V17.7804C44.737 17.2004 44.7792 17.1604 45.7501 17.1604H51.5542C52.5251 17.1604 52.5673 17.2004 52.5673 17.7804V20.5001C52.5673 22.5199 52.5673 22.7199 51.322 22.8998L50.9421 22.9598C50.8155 23.0798 50.8577 23.3798 50.9843 23.4398C51.8708 23.3998 52.6095 23.3798 53.4326 23.3798C54.2346 23.3798 54.91 23.3998 55.8809 23.4398C56.0075 23.3798 56.0497 23.0398 55.9231 22.9598L55.4376 22.8998C54.2557 22.7599 54.2135 22.5199 54.2135 20.5001V13.5608C54.2135 11.541 54.2557 11.2611 55.4376 11.1411L55.8598 11.1011C55.9864 11.0211 55.9442 10.6811 55.8176 10.6211C54.91 10.6611 54.2135 10.6811 53.4115 10.6811C52.5884 10.6811 51.8919 10.6611 50.9632 10.6211C50.8366 10.6811 50.7944 11.0211 50.921 11.1011L51.3009 11.1411C52.5039 11.2611 52.5462 11.541 52.5462 13.5608V15.7806C52.5462 16.3805 52.5039 16.4005 51.5331 16.4005H45.729C44.7581 16.4005 44.7159 16.3805 44.7159 15.7806V13.5608C44.7159 11.541 44.7581 11.2611 45.9401 11.1411L46.3411 11.1011ZM45.5179 4.84172V4.80172C45.4757 4.72173 45.3913 4.68174 45.328 4.68174C45.2858 4.68174 45.2436 4.70173 45.2225 4.72173L45.2014 4.74173C44.9692 5.20168 44.737 5.44166 44.6315 5.48165C44.4416 5.56164 44.1883 5.60164 43.5762 5.60164C42.8797 5.60164 42.6898 5.52165 42.6054 5.44166C42.4787 5.32167 42.4576 5.0617 42.4576 4.64174V3.50186C42.4576 3.34188 42.4576 3.34188 42.6687 3.34188H43.1541C43.4496 3.34188 43.6606 3.34188 43.7873 3.38187C43.9139 3.40187 43.9561 3.48186 43.9983 3.64184L44.0828 3.96181L44.1039 3.98181C44.125 4.0218 44.1883 4.0418 44.2727 4.0418C44.3571 4.0418 44.4205 4.0218 44.4416 3.96181V3.92182C44.4416 3.84182 44.4416 3.74183 44.4204 3.62185C44.4204 3.48186 44.3993 3.30188 44.3993 3.1419C44.3993 2.98191 44.3993 2.80193 44.4204 2.64195C44.4204 2.52196 44.4416 2.40197 44.4416 2.32198V2.28199C44.4205 2.24199 44.3571 2.20199 44.2727 2.20199C44.2094 2.20199 44.1461 2.22199 44.1039 2.26199L44.0194 2.62195C43.9772 2.80193 43.935 2.84193 43.8506 2.86193C43.7662 2.88192 43.5129 2.90192 43.1541 2.90192H42.6687C42.4576 2.90192 42.4576 2.90192 42.4576 2.74194V1.2021C42.4576 0.942124 42.4576 0.942124 42.6476 0.942124H43.2596C43.6184 0.942124 43.8928 0.942124 44.0617 0.98212C44.4416 1.08211 44.526 1.30209 44.6526 1.66205L44.6737 1.70205L44.6948 1.72204C44.7159 1.76204 44.7792 1.78204 44.8426 1.78204C44.9059 1.78204 44.9903 1.76204 45.0114 1.70205L45.0325 1.68205L45.0114 1.56206C44.9692 1.10211 44.927 0.702149 44.8848 0.582162L44.8637 0.522168L44.8004 0.542166C44.7159 0.562164 44.1883 0.562164 43.6817 0.562164H42.0988C41.7822 0.562164 41.4868 0.562164 41.1068 0.542166H41.0646C41.0013 0.582162 40.9802 0.662153 40.9802 0.702149C40.9802 0.762143 41.0013 0.822137 41.0435 0.862133L41.2124 0.882131C41.6556 0.922127 41.6767 0.98212 41.6767 1.82203V4.70173C41.6767 5.56165 41.6345 5.60164 41.2124 5.64164L40.9169 5.66163L40.8958 5.68163C40.8536 5.72163 40.8325 5.80162 40.8536 5.86161C40.8536 5.92161 40.8958 5.9616 40.938 5.9816H40.9802C41.4656 5.9616 41.7611 5.9616 42.1199 5.9616H42.8797C43.6184 5.9616 44.3571 5.9616 45.138 5.9816H45.1803L45.2014 5.94161C45.2436 5.74163 45.4546 5.12169 45.5179 4.84172ZM38.4475 4.72173V1.84203C38.4475 0.98212 38.4686 0.942124 38.8907 0.902129L39.0596 0.882131H39.0807C39.1229 0.862133 39.144 0.802139 39.144 0.722147C39.144 0.702149 39.1229 0.60216 39.0596 0.562164H39.0174C38.6164 0.582162 38.3209 0.582162 38.0254 0.582162C37.6666 0.582162 37.3711 0.582162 37.0123 0.562164H36.9701C36.9068 0.60216 36.8857 0.682151 36.8857 0.722147C36.8857 0.802139 36.9068 0.842135 36.949 0.882131L37.139 0.902129C37.5611 0.942124 37.6033 1.00212 37.6033 1.84203V2.76194C37.6033 2.96191 37.6033 2.96191 37.2445 2.96191H34.8173C34.4585 2.96191 34.4585 2.96191 34.4585 2.76194V1.84203C34.4585 0.98212 34.4796 0.942124 34.9018 0.902129L35.0706 0.882131H35.0917C35.1339 0.862133 35.155 0.802139 35.155 0.722147C35.155 0.702149 35.1339 0.60216 35.0706 0.562164H35.0284C34.6485 0.582162 34.353 0.582162 34.0575 0.582162C33.8465 0.582162 33.6354 0.582162 33.4244 0.562164C33.2977 0.562164 33.15 0.562164 32.9811 0.542166H32.9389C32.8756 0.582162 32.8545 0.662153 32.8545 0.702149C32.8545 0.782141 32.8756 0.822137 32.9178 0.862133H32.9389L33.1711 0.882131C33.551 0.902129 33.6143 0.98212 33.6143 1.82203V4.70173C33.6143 5.54165 33.5932 5.56165 33.1711 5.64164L33.0022 5.66163L32.9811 5.68163C32.9389 5.72163 32.9178 5.80162 32.9389 5.86161C32.9389 5.92161 32.9811 5.9616 33.0233 5.9816H33.0656C33.1922 5.9816 33.2977 5.9816 33.4033 5.9616C33.5932 5.9616 33.8043 5.94161 34.0364 5.94161C34.353 5.94161 34.6274 5.94161 35.1128 5.9616H35.155C35.2183 5.94161 35.2395 5.86161 35.2395 5.80162C35.2395 5.74163 35.2183 5.68163 35.1761 5.64164L34.9018 5.60164C34.5007 5.56165 34.4374 5.52165 34.4374 4.66174V3.52186C34.4374 3.32188 34.4374 3.32188 34.7962 3.32188H37.2234C37.5822 3.32188 37.5822 3.32188 37.5822 3.52186V4.66174C37.5822 5.52165 37.5822 5.54165 37.1179 5.60164L36.9279 5.62164L36.9068 5.64164C36.8646 5.68163 36.8435 5.76162 36.8646 5.82162C36.8646 5.88161 36.9068 5.92161 36.949 5.94161H36.9912C37.3922 5.92161 37.6877 5.92161 38.0043 5.92161C38.342 5.92161 38.6375 5.92161 39.0174 5.94161H39.0596C39.1229 5.90161 39.144 5.82162 39.144 5.78162C39.144 5.72163 39.1229 5.66163 39.0807 5.62164L38.8485 5.58164C38.4686 5.62164 38.4475 5.56165 38.4475 4.72173ZM31.5037 0.442176V0.422178L31.4826 0.40218C31.4404 0.342187 31.356 0.342187 31.3349 0.342187C31.3138 0.342187 31.2927 0.342187 31.2505 0.362185H31.2294L31.2083 0.382183C31.1027 0.562164 31.0605 0.582162 30.5962 0.582162H27.0926C26.7127 0.582162 26.5439 0.562164 26.5017 0.382183V0.362185L26.4806 0.342187C26.4595 0.322189 26.4173 0.302191 26.3539 0.302191C26.3328 0.302191 26.2695 0.302191 26.2273 0.322189L26.2062 0.342187V0.362185C26.1429 0.682151 26.0162 1.1821 25.8896 1.54206V1.56206L25.9107 1.58206C25.9529 1.68205 26.1429 1.72204 26.2273 1.66205H26.2484V1.64205C26.3328 1.46207 26.4173 1.28209 26.6072 1.10211C26.7972 0.942124 27.2193 0.922127 27.5992 0.922127H28.0635C28.2535 0.922127 28.2535 0.922127 28.2535 1.12211V4.70173C28.2535 5.56165 28.2112 5.60164 27.7891 5.64164L27.4936 5.66163H27.4725C27.4303 5.68163 27.3881 5.74163 27.3881 5.82162C27.3881 5.88161 27.4092 5.94161 27.4725 5.9616H27.5148C28.0424 5.94161 28.3379 5.94161 28.6967 5.94161C29.0344 5.94161 29.3087 5.94161 29.7942 5.9616H29.8364C29.8997 5.94161 29.9208 5.86161 29.9208 5.80162C29.9208 5.74163 29.8997 5.68163 29.8575 5.64164L29.562 5.60164C29.1399 5.56165 29.1188 5.52165 29.1188 4.66174V1.06211C29.1188 0.98212 29.1188 0.902129 29.1399 0.882131C29.161 0.862133 29.2454 0.862133 29.3087 0.862133H29.8997C30.3429 0.862133 30.6595 0.922127 30.8495 1.04211C30.9339 1.10211 30.9972 1.30209 31.0394 1.58206V1.60206L31.0605 1.62205C31.0816 1.66205 31.1449 1.68205 31.2083 1.68205C31.2927 1.68205 31.356 1.64205 31.3771 1.60206V1.56206C31.356 1.42207 31.3982 0.762143 31.5037 0.442176ZM25.7419 17.1004C25.7419 19.5802 27.0082 21.34 28.6334 22.3999C30.1108 23.3398 31.8625 23.6798 33.6987 23.6798C35.0073 23.6798 36.4636 23.3998 36.9068 23.2398C37.139 23.1598 37.3711 23.0798 37.6244 23.0398C37.9199 22.6799 38.4475 21.4 38.5953 20.4001C38.5108 20.2601 38.2154 20.2201 38.0676 20.3201C37.6033 21.46 36.4425 23.0798 33.8254 23.0798C30.4907 23.0798 27.7891 20.8401 27.7891 16.8005C27.7891 12.8209 30.4273 10.9611 33.5299 10.9611C36.4636 10.9611 37.3922 12.4609 37.6877 13.7608C37.8355 13.8808 38.1309 13.8608 38.2365 13.7208C38.0676 12.5409 37.9832 11.341 37.9621 10.9011C37.7721 10.9211 37.6455 10.8811 37.3922 10.8211C36.4425 10.5611 34.9018 10.3611 33.8043 10.3611C31.6937 10.3611 29.8153 10.9011 28.3168 12.001C26.7549 13.1409 25.7419 14.9807 25.7419 17.1004ZM20.4654 13.8608V0.462174C9.08944 -0.577718 0.520508 0.462174 0.520508 0.462174V13.8608C1.42805 22.9398 10.398 24.0197 10.4824 23.9997C12.0865 23.7198 19.6212 22.2999 20.4654 13.8608ZM3.72858 17.2004C3.91853 17.3204 4.12959 17.3604 4.31954 17.4404C4.5517 18.0403 4.31954 18.6403 4.19291 18.3803C3.93964 17.9804 3.85521 17.6204 3.72858 17.2004ZM3.72858 10.6211C3.68637 10.6011 2.46224 11.361 1.63911 11.0011C2.25118 10.6811 4.31954 9.42124 4.8894 9.08128C5.16377 9.14127 5.2693 9.04128 5.35372 8.98129C5.14266 9.00129 4.40396 9.10128 4.78387 8.48134C4.93161 9.02129 5.94468 8.52134 6.30348 8.44135C7.31656 8.22137 7.31656 9.24126 7.23213 9.68122C7.18992 9.8412 7.54872 9.96119 7.71757 9.92119C7.42208 10.6011 6.93665 9.96119 6.87334 10.2212C6.85223 10.3212 6.51454 10.4011 6.51454 10.6611C6.51454 11.0211 6.66228 10.8211 6.68338 11.1011C6.70449 11.361 6.55675 11.1611 6.59896 11.441C6.64117 11.901 7.44319 11.381 7.78088 11.501C7.94973 11.561 8.05526 11.701 8.2241 11.681C8.26631 11.641 8.24521 11.461 8.24521 11.401C8.2241 11.2611 7.94973 11.2411 7.80199 11.0411C7.69646 10.8611 7.92862 10.3411 8.07636 10.2012C8.26631 11.0611 9.11055 10.8011 9.25828 11.701C9.34271 11.961 8.9628 12.241 9.25828 12.6609C9.02612 12.8609 8.77285 13.8408 9.23718 14.3207C9.15276 14.5207 9.04723 15.0207 9.46934 15.3006C9.3216 15.5806 9.36381 15.9406 9.46934 16.2805C9.21607 16.2805 9.25828 14.9007 7.69646 14.8407C7.65425 14.8207 7.65425 15.0007 7.69646 15.0807C7.88641 15.4006 8.13968 15.3806 8.07636 16.1006C8.05526 16.3605 7.90752 16.0606 7.82309 15.9806C7.63314 15.8206 7.4854 15.8006 7.40098 15.2806C6.76781 15.7606 6.83112 16.3205 6.87334 16.6205C6.87334 16.6205 6.7256 16.2605 6.57786 15.8806C6.57786 15.8606 7.23213 15.1207 7.33766 14.9407C8.66732 12.6809 6.49343 15.6606 6.47233 15.6606C6.34569 15.4006 6.26127 15.1806 6.17685 15.1207C6.19795 15.0807 6.55675 14.7007 6.7256 14.3807C7.73867 12.3609 6.11353 15.0607 6.05021 15.0007C5.92358 14.9007 5.81805 14.7607 5.75473 14.8207C5.73363 15.1207 5.6492 15.0807 5.67031 15.4006C5.50146 15.6206 5.14267 15.9606 4.8894 16.1205C4.8894 16.1205 4.82608 15.5606 4.84718 15.5406C4.97382 15.4006 5.48036 14.8807 5.58589 14.7207C7.25324 12.241 4.80497 15.3206 4.80497 15.3006C4.78387 15.2006 4.65723 15.0407 4.50949 14.9007C4.50949 14.9007 5.05824 14.2007 5.18488 13.9408C6.19795 11.961 4.36175 14.8207 4.34065 14.8007C4.29844 14.7807 4.29844 14.7807 4.23512 14.7607C4.19291 14.7407 4.29844 14.1808 4.36175 13.8608C4.50949 13.2009 4.12959 13.7408 4.02406 14.7807C3.93964 14.8007 3.70747 14.8207 3.62305 14.9007C3.68637 15.1806 3.74969 14.9607 3.87632 15.2406C4.02406 15.5606 3.66526 16.0806 3.98185 16.4805C4.10848 16.6205 4.10848 16.6005 4.08738 16.7005C3.89743 16.6805 3.7919 16.6805 3.66526 16.8405C3.4331 15.8406 3.4331 15.3606 3.49642 14.3407C3.51752 13.8808 3.68637 13.1809 3.60195 13.1609C3.53863 13.1409 2.42002 15.8606 2.16676 16.3805C1.66022 16.2205 2.42002 13.8808 3.36978 12.7409C3.47531 12.4009 2.86325 13.1209 2.52555 13.4008C2.20897 13.6608 1.78685 14.0008 1.34363 13.8808C1.91349 13.3008 3.24315 12.221 3.39089 11.941C3.51752 11.701 2.48334 12.6609 1.40695 12.3009C2.08233 11.961 3.72858 11.1811 3.72858 10.6211ZM5.69141 15.7006C5.69141 15.9406 5.67031 16.1205 5.75473 16.3805C5.88137 16.7605 5.81805 16.6405 5.6492 16.5205C5.52257 16.3805 5.39593 16.2605 5.33262 16.1006C5.31151 15.9806 5.39593 15.9806 5.69141 15.7006ZM8.30853 9.62122C8.13968 9.36125 8.49848 9.12128 8.49848 9.12128C8.49848 9.8412 9.46934 9.34125 9.97588 9.58123C10.1025 9.64122 10.1869 9.74121 10.2291 9.8412C9.6804 9.48124 8.66732 10.2012 8.30853 9.62122ZM2.60998 3.86182C1.74464 3.86182 1.76575 2.62195 2.60998 2.62195C3.45421 2.64195 3.45421 3.86182 2.60998 3.86182ZM2.60998 6.32157C1.72354 6.32157 1.72354 5.08169 2.60998 5.08169C3.45421 5.10169 3.45421 6.32157 2.60998 6.32157ZM4.23512 3.66184H3.47531V2.96191H4.23512V3.66184ZM4.23512 6.12159H3.47531V5.42166H4.23512V6.12159ZM10.3558 7.34146C10.3558 7.34146 9.57487 6.9415 8.64622 6.88151C7.73867 6.80152 5.92358 7.48145 4.5306 7.40145V1.60206C4.5306 1.60206 6.11353 1.80204 6.76781 1.56206C8.98391 0.742145 10.3558 1.66205 10.3558 1.66205V7.34146ZM11.8754 8.28136C11.9176 8.50134 11.7066 8.56133 11.7066 8.56133C12.0442 8.64132 12.192 8.44135 12.2553 8.32136C12.3819 8.82131 11.8543 8.8613 11.6854 8.8813C11.6854 8.8813 11.9598 8.96129 11.9809 9.12128C12.0231 9.54123 12.2975 9.50124 12.3608 9.48124C12.3608 9.54123 12.2553 9.78121 11.9387 9.56123C11.8754 9.62122 12.0231 9.70122 12.0653 9.90119C12.1076 10.1612 12.0865 10.4211 12.4241 10.5811C12.2342 10.7411 11.9809 10.3411 11.9598 10.3811C11.9387 10.4411 12.2342 10.5811 11.8965 11.321C11.7488 11.2411 11.8332 11.2611 11.6643 11.0611C11.5377 10.9611 11.4744 10.9211 11.5799 11.1011C11.7699 11.341 11.8121 11.861 11.7488 12.001C11.5799 11.941 11.6221 11.821 11.4322 11.641C11.4111 11.721 11.4955 12.061 11.6854 12.221C12.0231 12.5009 12.1498 12.8609 12.1498 12.9209C12.1709 13.1809 12.0865 13.5408 12.0653 13.8808C11.8965 13.8608 11.7699 13.4208 11.7277 13.4408C11.6854 13.4608 11.7488 13.8608 12.0653 14.1408C12.2131 14.5607 12.1498 14.7807 12.1076 14.7807C12.0653 14.8007 11.8965 14.3607 11.791 14.4407C12.2342 15.5006 11.9176 15.8606 11.8121 16.1805C11.7277 15.8406 11.6854 15.6006 11.5588 15.2206C11.3266 15.4006 11.2633 15.6606 10.9678 15.9006C10.9678 15.4806 10.7146 14.4407 10.5035 14.2007C10.5035 14.1807 10.1236 15.1207 9.95477 15.5406C9.74372 16.0806 9.70151 16.7605 9.95477 17.2804C9.40602 16.5605 9.36381 15.2006 9.82814 15.0207C9.87035 14.9207 9.80703 14.6007 9.7015 14.6407C9.6804 14.8007 9.7015 14.9207 9.55376 15.0807C9.19497 14.9807 9.36381 14.5607 9.38492 14.4407C9.84925 13.9208 9.55377 13.8008 9.53266 13.8008C9.49045 13.9208 9.44824 14.0608 9.3005 14.1208C9.00502 13.6408 9.19497 12.8809 9.76482 12.3009C9.78593 12.081 9.51155 12.4609 9.34271 12.4409C9.3005 12.041 9.44824 11.321 10.2503 11.301C10.1025 11.2611 10.0181 11.2411 9.97588 11.1211C10.208 11.0811 10.9678 11.0411 10.8412 10.4611C10.7779 10.5211 10.7568 10.6211 10.5457 10.7411C10.4191 10.8211 10.2714 10.8211 10.1869 10.7211C10.5457 10.6211 10.4191 10.2012 9.95477 10.3212C9.80703 10.3611 9.61708 10.2212 9.59598 10.0612C9.7015 10.1612 9.91256 10.0812 10.0181 10.0212C10.5246 9.70122 10.8412 10.1612 10.9256 10.2612C10.9467 10.2612 11.1578 9.80121 10.4191 9.68122C10.3558 9.52123 10.1869 9.24126 9.7015 9.26126C9.53266 8.72132 9.04723 8.98129 9.06833 9.24126C8.54069 8.8813 9.06833 8.42135 9.27939 8.34136C9.42713 8.36135 9.38492 8.80131 9.65929 8.72132C9.72261 8.70132 9.44824 8.42135 9.55376 8.28136C9.78593 8.16138 9.78593 8.44135 9.91256 8.34136C9.97588 8.14138 10.208 8.04139 10.398 8.02139C10.9467 7.98139 11.3689 8.54134 11.8754 8.28136ZM16.7086 7.42145C15.5478 7.50144 13.1206 6.86151 12.5086 6.86151C11.2422 6.86151 10.6302 7.32146 10.6302 7.32146V1.66205C10.6302 1.66205 12.2975 0.922127 13.5216 1.34208C14.999 1.86203 16.7297 1.62205 16.7297 1.62205L16.7086 7.42145ZM18.2493 5.18168C18.8825 5.10169 18.988 5.82162 18.988 5.82162C18.8192 5.70163 18.5026 5.64164 18.2915 5.78162C17.5739 6.22158 16.9197 6.22158 16.9197 6.22158V5.12169C16.9408 5.12169 17.0674 5.36167 18.2493 5.18168ZM19.0091 3.68184C19.0091 3.64184 18.988 3.60185 18.988 3.52186C18.9669 3.40187 18.6292 3.34188 18.3971 3.44186C18.0594 3.58185 17.2363 4.0218 16.9408 3.94181V2.84193C17.6795 3.1419 17.975 2.86193 18.2071 2.86193C18.9458 2.86193 18.9669 3.50186 18.9669 3.50186C19.0091 3.60185 19.0091 3.66184 19.0091 3.68184ZM18.186 15.0607C17.975 15.1207 17.4051 15.3206 17.2574 15.5406C17.3207 14.3607 16.9408 13.2208 16.8141 12.9409C16.5609 12.4009 16.9197 14.2007 16.9408 14.6207C16.9408 14.6407 14.8935 12.121 16.1388 14.0608C16.4553 14.5607 16.9619 14.9007 16.9619 14.9007C16.9619 15.2406 16.9408 15.5006 16.8775 15.7006C16.7508 15.8006 14.0915 12.3409 15.5689 14.7407C15.7589 15.0407 16.8141 15.9406 16.8141 15.9606C16.7508 16.1006 16.6242 16.3005 16.4553 16.4405C16.4342 16.4205 15.8433 16.0006 15.8433 15.9806C15.8011 15.7206 15.8011 15.4606 15.4423 15.6406C15.4423 15.6406 14.1337 14.2007 14.7458 15.2006C15.0202 15.6406 15.189 15.7006 15.2523 15.7806C15.2523 15.7806 15.0413 16.0406 14.9779 16.3205C14.9568 16.4405 13.8382 15.1606 14.2815 15.9606C14.4292 16.2205 14.9357 16.5005 14.9146 16.5205C14.8724 16.6805 14.8091 16.8405 14.7458 16.9605C14.6825 17.1004 13.6905 17.8404 13.6905 17.8404C13.6905 17.8404 13.8804 17.2604 14.3026 16.9605C14.5347 16.8005 14.5347 16.8405 14.7036 16.7405C14.7036 16.6605 14.6191 16.5205 14.4925 16.4805C14.3448 16.4405 13.8804 16.5205 13.8804 16.5205C13.9227 16.3005 13.7116 15.8206 13.7327 15.3006C13.5639 15.3206 13.2473 15.5806 13.184 15.7206C13.1206 16.5805 12.9307 16.3205 12.7407 16.9405C12.5297 16.6805 12.7618 16.3005 12.5508 16.0606C12.2764 15.7206 12.2342 15.5006 12.192 15.0807C12.2553 15.0407 12.5297 14.7607 12.2764 14.1608C12.2342 13.2009 12.6774 12.8409 11.8754 12.181C11.9387 12.161 12.002 11.681 12.002 11.681C12.593 11.981 12.4664 11.341 12.6985 11.2011C13.0573 11.0011 12.994 10.7811 12.8252 10.5211C13.8804 10.8011 12.7829 11.481 13.2473 11.501C13.585 11.501 13.8171 11.421 13.9649 11.2011C14.1337 10.9611 13.9438 10.8211 14.387 10.4611C14.4292 10.4211 14.5558 10.1812 14.197 10.1012C14.1126 10.0812 14.197 9.80121 14.197 9.80121C13.9227 10.0212 13.8171 10.3411 13.3739 10.1412C13.1417 10.0412 12.994 10.1412 12.8885 10.1812C12.8885 10.1812 12.8463 10.0012 13.0362 9.94119C13.5427 9.78121 13.6483 9.60123 13.6272 9.50124C13.5639 9.26126 13.5427 9.50124 13.5639 9.24126C13.5639 9.14127 13.6905 9.00129 13.796 8.8813C14.1337 8.50134 14.3659 8.64133 14.4503 8.68132C14.6402 8.54134 14.6825 8.54134 14.8724 8.48134C15.189 8.36135 15.8644 8.56133 16.2443 8.72132C16.4342 8.80131 16.6453 8.8413 16.8564 8.80131C16.8564 8.9013 16.7719 8.96129 16.7086 8.98129C16.582 9.02129 16.4553 8.98129 16.4553 9.06128C16.4553 9.10128 16.6242 9.12128 16.7297 9.14127C17.2996 9.28126 18.0172 9.76121 17.5317 9.66122C17.4684 9.64122 17.8694 9.94119 18.186 10.3212L19.2624 11.301C19.2202 11.361 18.8403 11.301 17.6584 10.2612C17.4895 10.4011 19.0936 11.561 19.7689 12.7809C19.7056 12.8209 18.8825 12.5409 18.587 12.241C18.1227 11.781 17.5951 10.6411 17.384 10.8011C17.3629 10.8011 18.2493 12.141 18.7137 12.9209C18.9458 13.3208 19.1147 13.9008 19.1358 14.3207C19.1991 16.4405 18.8614 16.2805 18.8614 16.2805C18.3338 14.6007 18.0805 12.6609 17.3207 11.761C17.0041 11.401 18.1438 13.3208 18.186 15.0607ZM15.8644 16.9805C15.6322 17.1804 15.4634 17.2404 15.5267 17.1404C15.59 17.0405 15.6322 16.9405 15.6533 16.8605C15.6744 16.8405 15.8644 16.9805 15.8644 16.9805ZM15.6955 16.7205C15.7377 16.5405 15.7377 16.4205 15.78 16.2605C15.8011 16.2005 15.8011 16.2005 15.8011 16.1405C15.8011 16.1205 16.3076 16.5405 16.3498 16.5605C16.2232 16.7205 16.1177 16.7605 15.991 16.8805C15.8855 16.8005 15.6955 16.7205 15.6955 16.7205ZM17.3629 17.2604C16.6453 17.9204 15.59 17.6804 14.7458 18.0403C13.986 18.3003 13.4372 18.9803 12.6352 19.1402C12.403 19.2202 12.3608 19.3202 12.5086 19.3202C12.593 19.3202 13.0784 19.8002 13.8593 19.4202C14.1126 19.3002 14.9357 18.8603 15.0624 18.8403C14.6191 19.2402 14.4081 19.5802 14.0071 19.8002C13.7749 19.9202 12.7829 20.2601 11.8121 20.0801C11.39 20.0001 11.0523 20.3801 11.1578 20.3601C11.39 20.3001 11.6432 20.3401 11.8121 20.5201C12.0865 20.7201 12.5086 21 12.8463 20.6001C12.9729 20.4801 13.5216 20.2001 14.0493 20.7001C13.5005 20.6801 13.5428 21.62 12.4875 21.52C12.0865 21.52 11.2211 20.6601 10.989 20.94C10.5457 21.4 11.9176 21.84 11.3266 22.4399C10.7779 22.9598 10.1447 22.0199 10.1447 22.0199C10.4824 22.1599 11.0945 22.2399 10.8201 21.72C10.7146 21.52 10.5035 21.34 10.5035 20.96C10.4613 20.7801 9.21607 22.4599 8.41406 21.7C8.09747 21.4 7.44319 20.7401 6.85223 20.5001C8.41405 20.3801 8.64622 20.96 8.70954 21.06C9.21607 21.7 9.65929 21.06 9.76482 20.94C9.93367 20.7601 10.1658 20.5201 10.0814 20.4801C9.46934 20.2001 8.79396 20.1601 8.26631 20.3801C9.36381 18.9403 10.2291 20.2801 10.2291 20.2801C10.3558 20.3601 10.208 19.4202 9.11054 19.3802C8.43516 19.3402 7.82309 19.9202 7.35877 19.9202C6.97886 19.9202 5.81805 19.1802 5.54367 18.5203C6.21906 19.0002 7.08439 19.2802 7.61204 18.9603C8.62511 18.4003 9.89146 19.2402 9.95477 19.1402C9.6804 18.9403 9.02612 18.1203 7.29545 18.5803C6.62007 18.9403 6.34569 18.3003 5.92358 18.3003C6.62007 17.7204 7.1055 18.0204 7.35877 18.0204C7.42209 18.0204 7.06329 17.7404 6.83112 17.7204C4.9105 17.5404 3.70747 17.0405 3.70747 17.0405C3.70747 17.0405 3.87632 16.6805 4.67834 16.9405C4.67834 16.9405 3.93964 16.5205 3.93964 15.9606C3.96074 15.6206 4.12959 15.2606 3.85521 14.9807C4.97382 14.9407 4.1718 16.4005 4.95271 16.7805C4.97382 16.7805 4.72055 16.4205 5.07935 16.1605C5.24819 16.6005 5.6281 16.8205 5.92358 16.8805C5.98689 16.8405 6.07132 16.7205 6.07132 16.7205C5.77584 16.2605 5.73363 15.7206 5.81805 15.1207H5.83915C5.90247 15.1207 6.008 15.3406 6.09242 15.4806C6.26127 15.8006 6.24016 16.2805 6.57786 16.6805C6.7467 16.9005 6.87334 17.1204 7.02108 17.2204C7.08439 17.0605 7.04218 16.8005 7.02108 16.7405C6.97886 16.5005 6.81002 16.0606 7.27434 15.6806C7.4854 16.2605 7.75978 16.0806 7.80199 16.3605C7.86531 16.7405 7.8442 16.6805 7.80199 16.9805C7.82309 17.3804 8.2241 17.5004 8.5618 17.7604C9.34271 18.1603 9.87035 18.3803 10.208 18.9003C10.3769 18.0204 7.88641 17.8604 8.203 16.1605C8.16079 15.4806 8.28742 15.4406 7.78088 15.0207C8.77285 15.0407 9.3216 16.6005 9.38492 16.8805C9.49045 17.4004 9.82814 17.4204 10.2714 18.1003C10.3347 18.1203 9.44824 16.3005 10.5035 14.7207C10.5035 14.7207 10.8623 15.5406 10.6935 16.0606C10.5879 16.3805 10.6935 16.7405 10.7146 16.9405C10.7357 17.1404 10.6724 16.2005 11.4322 15.7006C11.4744 16.0606 11.8332 16.6205 11.4955 17.2204C11.0734 17.9404 11.0523 17.6804 11.0312 18.5803C11.0734 18.5603 11.1789 17.9604 11.4744 17.6204C12.0865 16.9005 11.6432 16.5205 12.2342 15.9006C12.2764 16.2205 12.3608 16.0806 12.403 16.3605C12.4875 16.9805 11.791 17.6604 11.9387 17.6404C12.1076 17.6204 12.403 17.4804 12.4875 17.0005C12.4875 17.0005 12.7407 17.4404 12.5086 17.5804C12.0865 17.8404 12.002 18.1203 12.0653 18.4403C12.403 18.0603 12.8674 17.6404 12.7829 17.1004C12.8252 16.7805 13.184 16.6405 13.2684 15.8806C13.2895 15.7606 13.4161 15.6006 13.5428 15.5406C13.4794 15.9606 13.8382 16.4005 13.4372 16.9205C13.5216 16.9605 13.8593 16.5205 14.3448 16.6805C13.3528 16.8405 13.6483 17.8604 12.8885 18.3203C12.6563 18.4603 12.6985 18.6203 12.6352 18.6403C13.3106 18.6003 13.8382 17.8404 13.9227 17.7804C14.598 17.3404 14.7458 17.2804 15.0202 16.5805C15.1257 16.3205 15.0413 16.2005 15.4212 15.8406C15.59 16.2005 15.3367 16.9405 15.2945 17.1004C15.1679 17.4404 14.7458 17.7404 14.8302 17.7404C16.6453 16.9805 16.6242 16.4605 17.0674 15.9206C17.194 15.7206 17.8483 15.3606 18.0805 15.3206C18.0805 15.4206 17.8272 15.6006 17.8272 15.8206C17.8061 16.2005 17.6795 16.4405 17.4684 16.7405C17.5739 16.8805 17.8061 16.4805 18.0172 16.6805C17.7217 16.7605 17.5951 17.0805 17.3629 17.2604ZM17.6795 17.1604C17.5739 17.6604 17.384 18.1203 17.0674 18.5603C16.8352 18.8603 16.7508 18.2803 16.9408 17.7004C17.2151 17.5804 17.4895 17.3804 17.6795 17.1604ZM16.2865 4.42176C16.2443 4.40177 16.1599 4.38177 16.0965 4.38177C16.0332 4.38177 16.0121 4.46176 16.0754 4.48176C16.1177 4.50175 16.2021 4.50175 16.2865 4.50175C16.3498 4.52175 16.3287 4.44176 16.2865 4.42176ZM16.0754 4.66174C16.1177 4.68174 16.2021 4.68174 16.2865 4.68174C16.3287 4.68174 16.3287 4.60174 16.2865 4.58175C16.2443 4.56175 16.1599 4.56175 16.0965 4.54175C16.0332 4.58175 16.0121 4.64174 16.0754 4.66174ZM16.0754 5.76162C16.0332 5.72163 15.9277 5.64164 15.8222 5.56164C15.7589 5.60164 15.6533 5.68163 15.5689 5.72163C15.5056 5.66163 15.4423 5.58164 15.3367 5.50165C15.2734 5.54165 15.0835 5.70163 14.999 5.76162C15.1257 5.76162 15.2945 5.80162 15.2945 5.90161V6.60154C15.3578 6.62154 15.4423 6.60154 15.5478 6.60154V5.86161C15.59 5.84162 15.6322 5.82162 15.6533 5.80162C15.6955 5.82162 15.8222 5.9616 15.8855 6.0016C15.9277 5.9616 16.0543 5.86161 16.1177 5.82162C16.2021 5.76162 16.1388 5.72163 16.0754 5.76162ZM15.7589 4.90171C15.8222 4.78173 15.9277 4.60174 15.9066 4.46176C15.9066 4.28178 15.78 4.0418 15.5267 3.94181C15.189 4.0618 14.9779 4.30178 14.9779 4.60174C14.9779 4.78173 15.1257 5.14169 15.4634 5.14169C15.5478 5.0617 15.6533 4.96171 15.7589 4.90171ZM15.5478 4.96171C15.4845 4.94171 15.2523 4.76173 15.2101 4.64174C15.1468 4.46176 15.1468 4.28178 15.3367 4.16179C15.4845 4.22178 15.6744 4.36177 15.6744 4.48176C15.6955 4.66174 15.6533 4.86172 15.5478 4.96171ZM15.5478 3.62185L15.8011 3.36187C15.8011 3.36187 15.6955 3.28188 15.6322 3.20189C15.6322 3.1419 15.6322 2.64195 15.6533 2.62195C15.4634 2.46197 15.3367 2.44197 15.2523 2.46197C15.1046 2.48196 14.9568 2.66195 14.9146 2.72194C14.8724 2.76194 14.8935 2.82193 14.9146 2.84193C14.9357 2.86193 14.9779 2.88192 15.0202 2.90192C15.0202 2.90192 14.999 2.90192 14.999 2.88192C14.9357 2.94192 14.8302 3.1219 14.8302 3.24189C14.8302 3.36187 14.9568 3.54185 15.0202 3.60185C15.1046 3.54185 15.2312 3.44186 15.4212 3.40187C15.4423 3.52186 15.4845 3.58185 15.5478 3.62185ZM15.4001 3.04191C15.2734 3.00191 15.0413 2.90192 14.9568 2.82193C14.9357 2.80193 14.9357 2.80193 14.9568 2.76194C15.0202 2.68194 15.0835 2.62195 15.1257 2.62195C15.1679 2.62195 15.4001 2.74194 15.4001 2.80193V3.04191ZM15.4001 3.38187C15.3367 3.38187 15.2734 3.40187 15.2101 3.44186C15.1468 3.38187 14.9779 3.20189 15.1046 2.98191C15.0835 2.98191 15.0624 2.96191 15.0624 2.96191C15.1679 3.02191 15.3156 3.0819 15.4212 3.1019V3.30188C15.4001 3.32188 15.4001 3.36187 15.4001 3.38187ZM14.7036 2.36198C14.6402 2.36198 14.2603 2.36198 14.2603 2.34198C14.2392 2.26199 14.2181 2.162 14.2815 2.04201C14.3237 1.98202 14.2603 1.94202 14.2181 2.02201C14.197 2.08201 14.0071 2.34198 13.796 2.42197C13.6905 2.46197 13.9227 2.54196 13.9015 2.54196C13.9015 2.78193 13.9438 3.1419 13.986 3.30188C14.0282 3.38187 14.1337 3.52186 14.197 3.48186C14.2392 3.46186 14.3448 3.26188 14.3659 3.24189C14.4292 3.20189 14.3659 3.1219 14.3237 3.16189C14.2815 3.20189 14.2392 3.1419 14.2181 3.1019C14.197 3.0619 14.1548 2.52196 14.1759 2.52196C14.1759 2.52196 14.6402 2.46197 14.6825 2.46197C14.7458 2.44197 14.7458 2.36198 14.7036 2.36198ZM13.4583 3.34188L13.6483 3.1019C13.5216 3.0819 13.4583 3.0619 13.3528 2.96191V2.38197L13.1628 2.20199H13.0995L12.804 2.46197C12.7829 2.50196 12.8463 2.50196 12.8885 2.46197L13.0995 2.58195V3.1419C13.1206 3.20189 13.184 3.28188 13.2684 3.36187L13.4583 3.34188ZM13.2895 2.06201L13.395 1.98202V1.84203L13.2473 1.70205L13.0995 1.82203V1.98202L13.184 2.06201H13.2895ZM12.804 1.88203C12.7196 1.88203 12.4664 1.90202 12.3608 1.90202C12.2553 1.92202 12.2553 1.96202 12.3397 1.96202C12.4241 1.96202 12.4453 1.98202 12.4664 2.08201C12.5086 2.182 12.3186 2.64195 12.2553 2.76194C12.192 2.68194 12.002 2.26199 12.002 2.20199C12.002 2.162 12.0865 2.122 12.1287 2.102C12.2131 2.08201 12.2131 2.02201 12.1498 2.02201C11.9809 2.00201 11.4322 1.96202 11.3266 1.94202C11.2633 1.94202 11.2211 2.02201 11.3055 2.02201C11.39 2.02201 11.4955 2.00201 11.5799 2.142C11.6854 2.30198 12.0442 3.02191 12.1287 3.32188C12.1709 3.26188 12.5297 2.28199 12.5508 2.182C12.5719 2.08201 12.6563 1.98202 12.7618 1.96202C12.9096 1.94202 12.8885 1.90202 12.804 1.88203ZM11.1156 4.24178C11.1156 4.64174 11.2844 4.68174 11.4955 4.78173C11.6854 4.88172 11.9809 4.86172 12.2131 4.80172C12.2975 4.78173 12.3397 4.78173 12.3397 4.84172C12.3397 4.88172 12.403 4.88172 12.403 4.84172V4.42176C12.403 4.38177 12.3397 4.38177 12.3397 4.42176C12.3397 4.48176 12.3397 4.50175 12.2764 4.58175C12.1076 4.80172 11.7066 4.80172 11.4955 4.52175C11.4322 4.42176 11.3478 4.30178 11.4322 4.28178C11.5166 4.26178 11.7699 4.30178 11.9387 4.32177C12.0442 4.32177 12.2764 4.34177 12.2975 4.36177C12.3186 4.38177 12.3608 4.40176 12.3608 4.36177V4.1018C12.3608 4.0618 12.3186 4.0818 12.2975 4.1018C12.2764 4.12179 12.0231 4.16179 11.9176 4.18179C11.8121 4.20179 11.4955 4.22178 11.4322 4.20179C11.3478 4.18179 11.3689 4.0218 11.4533 3.92182C11.6643 3.64184 12.1076 3.66184 12.2764 3.90182C12.3397 3.98181 12.3397 4.00181 12.3397 4.0618C12.3397 4.1018 12.403 4.1018 12.403 4.0618V3.58185C12.403 3.54185 12.3397 3.54185 12.3397 3.58185C12.3397 3.60185 12.2764 3.62185 12.192 3.60185C12.0653 3.56185 11.6643 3.62185 11.4744 3.70184C11.3689 3.80183 11.1156 4.00181 11.1156 4.24178ZM11.2 4.96171C11.2 5.08169 11.2422 6.06159 11.2422 6.20158C11.2422 6.28157 11.3478 6.36156 11.4533 6.42156C11.4955 6.36156 11.601 6.22158 11.7066 6.16158C11.7488 6.12159 11.7277 6.10159 11.6854 6.10159C11.601 6.14158 11.5166 6.10159 11.5166 6.0216V4.96171C11.4322 4.9817 11.2633 4.9817 11.2 4.96171ZM12.0653 5.78162C12.002 5.84162 11.8754 6.0016 11.8754 6.12159C11.8754 6.24157 11.9387 6.36156 12.0231 6.42156C12.1498 6.34156 12.2342 6.22158 12.4453 6.14158C12.4664 6.24157 12.5508 6.24157 12.6141 6.30157C12.6563 6.24157 12.8463 6.04159 12.8885 6.0016C12.9307 5.9616 12.9096 5.92161 12.8463 5.9616C12.7829 6.0016 12.7407 5.9816 12.6563 5.88161C12.6563 5.82162 12.6563 5.40166 12.6774 5.38166C12.593 5.30167 12.5086 5.18168 12.403 5.18168C12.2553 5.20168 12.0653 5.44166 12.0231 5.50165C11.9809 5.54165 12.0231 5.72163 12.0442 5.74163C12.0442 5.78162 12.0653 5.78162 12.0653 5.78162ZM12.1709 5.86161C12.2553 5.90161 12.2975 5.88161 12.4241 5.86161V6.04159C12.3608 6.08159 12.2975 6.12159 12.2131 6.14158C12.1498 6.10159 12.0653 6.06159 12.1709 5.86161ZM12.1076 5.50165C12.1709 5.42166 12.192 5.40166 12.2342 5.40166C12.2764 5.40166 12.4241 5.50165 12.4241 5.56164V5.78162C12.3186 5.80162 12.2342 5.80162 12.1076 5.70163C12.0865 5.70163 12.0865 5.54165 12.1076 5.50165ZM13.0151 5.34167C12.9096 5.38166 13.1417 5.46166 13.1206 5.46166C13.1206 5.70163 13.0573 6.10159 13.1628 6.22158C13.2262 6.30157 13.3317 6.34156 13.4161 6.32157C13.5005 6.30157 13.6061 6.14158 13.6272 6.12159C13.6905 6.08159 13.6272 6.04159 13.585 6.08159C13.5428 6.12159 13.395 6.10159 13.395 6.04159C13.3739 6.0016 13.3739 5.46166 13.395 5.46166H13.585C13.6272 5.46166 13.6272 5.36167 13.585 5.36167C13.5216 5.36167 13.395 5.34167 13.395 5.32167C13.3739 5.28167 13.395 5.12169 13.4372 5.0417C13.4794 4.98171 13.4161 4.94171 13.3739 5.0017C13.3528 5.10169 13.184 5.26168 13.0151 5.34167ZM13.0573 4.24178C13.0573 4.46176 12.9518 4.70173 12.804 4.82172C13.0362 4.76173 13.0784 4.62174 13.2051 4.48176C13.2684 4.58175 13.4161 4.70173 13.5005 4.76173C13.5639 4.72173 13.7538 4.52175 13.796 4.48176C13.6483 4.44176 13.395 4.32177 13.3317 4.16179C13.2895 4.0618 13.2895 4.00181 13.3528 3.92182C13.395 3.98181 13.7327 4.12179 13.8804 3.88182C13.7116 3.82183 13.585 3.72184 13.5216 3.64184C13.4794 3.68184 13.3317 3.82183 13.2473 3.86182C13.2262 3.78183 13.0995 3.70184 12.994 3.68184C12.9518 3.72184 12.6985 3.90182 12.593 3.94181C12.5508 3.96181 12.5719 4.0218 12.6141 4.0218C12.6563 4.00181 12.7407 3.94181 12.8252 3.90182C12.9307 3.94181 13.0362 4.0418 13.0573 4.24178ZM14.1759 4.28178C14.197 4.14179 14.3026 4.0818 14.3448 4.0418C14.4081 4.1018 14.4714 4.18179 14.5769 4.18179C14.6825 4.18179 14.7669 4.14179 14.8091 4.1018C14.7247 4.0418 14.5558 3.86182 14.5136 3.82183C14.4292 3.86182 14.0071 4.0618 13.986 4.30178C13.9438 4.64174 14.0493 4.70173 14.197 4.90171C14.2815 5.0017 14.4292 5.0217 14.4925 5.0017C14.5558 4.96171 14.8302 4.72173 14.8513 4.68174C14.8724 4.66174 14.8302 4.62174 14.8091 4.66174C14.7669 4.68174 14.788 4.70173 14.7458 4.70173C14.7036 4.70173 14.5136 4.74173 14.4081 4.68174C14.3026 4.62174 14.1337 4.48176 14.1759 4.28178ZM13.986 5.36167C13.9227 5.42166 13.8171 5.48165 13.7327 5.58164C13.8171 5.58164 13.8804 5.60164 13.9227 5.68163C13.9649 5.76162 13.9227 6.06159 13.9438 6.18158C13.9438 6.30157 14.0282 6.32157 14.1126 6.42156C14.2181 6.40156 14.4714 6.30157 14.5558 6.24157C14.5558 6.34156 14.6825 6.44155 14.7458 6.46155C14.788 6.40156 14.8513 6.38156 14.9146 6.32157C14.8513 6.28157 14.8513 6.26157 14.8302 6.18158C14.8091 6.10159 14.8302 5.76162 14.8302 5.62164C14.7669 5.54165 14.6825 5.44166 14.5769 5.38166L14.3237 5.62164C14.4081 5.60164 14.5558 5.64164 14.5558 5.70163C14.5558 5.78162 14.5769 5.9616 14.5558 6.10159C14.5347 6.24157 14.1337 6.18158 14.1337 6.08159C14.1337 5.9816 14.1548 5.70163 14.1548 5.58164C14.1126 5.48165 14.0915 5.44166 13.986 5.36167ZM11.3689 8.72132C11.1367 8.68132 10.9678 8.52134 10.7568 8.44135C10.4613 8.34136 10.1658 8.54134 10.1658 8.58133C10.1658 8.66132 10.2503 8.70132 10.4824 8.56133C10.2925 8.76131 10.5035 8.9213 10.5035 8.9213C10.4191 8.9013 10.3136 8.8813 10.2503 8.8413C10.2291 8.9213 10.3347 8.94129 10.398 8.98129C10.7779 9.14127 11.0312 8.78131 11.3689 8.72132ZM10.7146 8.9213C10.7146 8.9213 10.8201 8.82131 10.8201 8.74132C10.8201 8.64133 10.7146 8.56133 10.7146 8.56133C10.799 8.58133 11.0101 8.70132 11.0945 8.74132L10.7146 8.9213ZM8.5829 6.12159L8.68843 6.0016C8.5618 5.9816 8.62511 5.9816 8.5618 5.92161V5.44166L8.39295 5.22168H8.32963L8.07636 5.44166C8.01305 5.50165 8.07636 5.52165 8.13968 5.46166L8.30853 5.54165V6.06159C8.32963 6.12159 8.37184 6.14158 8.45627 6.22158L8.5829 6.12159ZM8.64622 4.46176C8.73064 4.70173 8.9417 4.76173 9.08944 4.78173C9.13165 4.70173 9.21607 4.58175 9.25828 4.52175C9.3216 4.44176 9.25828 4.38177 9.21607 4.48176C9.17386 4.56175 8.98391 4.48176 8.92059 4.40177C8.81506 4.32177 8.77285 4.1018 8.83617 4.0218C8.92059 3.94181 9.02612 3.98181 9.17386 3.98181C9.25828 3.98181 9.27939 3.90182 9.3005 3.86182C9.25828 3.84182 9.19497 3.80183 9.08944 3.76183C9.00502 3.82183 8.85728 3.92181 8.79396 3.98181C8.70954 4.0218 8.5618 4.22178 8.64622 4.46176ZM9.00502 5.72163C8.92059 5.82162 8.83617 5.90161 8.83617 6.04159C8.83617 6.16158 8.87838 6.28157 9.00502 6.34156C9.11054 6.26157 9.25828 6.16158 9.40602 6.14158C9.46934 6.22158 9.57487 6.28157 9.63819 6.32157C9.6804 6.28157 9.82814 6.16158 9.87035 6.12159C9.91256 6.08159 9.87035 6.04159 9.82814 6.08159C9.80703 6.12159 9.70151 6.10159 9.6804 6.04159C9.6804 5.9816 9.63819 5.46166 9.65929 5.42166C9.57487 5.34167 9.42713 5.14169 9.34271 5.14169C9.19497 5.16169 9.00502 5.34167 8.9628 5.40166C8.92059 5.48165 8.9628 5.70163 9.00502 5.72163ZM9.38492 5.78162C9.27939 5.78162 9.19497 5.76162 9.06833 5.66163C9.04723 5.64164 9.02612 5.52165 9.04723 5.48165C9.08944 5.40166 9.08944 5.38166 9.13165 5.38166C9.17386 5.38166 9.38492 5.50165 9.36381 5.56164C9.38492 5.60164 9.38492 5.68163 9.38492 5.78162ZM9.11054 5.78162C9.21607 5.84162 9.25828 5.84162 9.38492 5.82162V5.9616C9.38492 5.9816 9.40602 6.0016 9.40602 6.04159C9.34271 6.06159 9.25828 6.08159 9.19497 6.10159C9.13165 6.06159 8.92059 5.94161 9.11054 5.78162ZM9.89146 4.80172L9.99699 4.68174C9.87035 4.66174 9.87035 4.66174 9.80703 4.60174V4.0418L9.7015 3.88182H9.63819L9.38492 4.12179C9.3216 4.18179 9.38492 4.20179 9.44824 4.14179L9.57487 4.22178V4.74173C9.59598 4.80172 9.63819 4.82172 9.72261 4.90171L9.89146 4.80172ZM9.6804 2.84193C9.63819 2.84193 9.55377 2.92192 9.84925 2.96191C9.91256 2.96191 9.97588 2.86193 9.6804 2.84193ZM9.6804 2.66195C9.63819 2.66195 9.55377 2.80193 9.84925 2.78193C9.91256 2.78193 9.95477 2.68194 9.6804 2.66195ZM9.74372 3.54185L9.61708 3.42187L9.49045 3.54185V3.70184L9.57487 3.78183H9.65929L9.76482 3.70184L9.74372 3.54185ZM9.46934 2.34198C9.38492 2.28199 9.27939 2.142 9.06833 2.142C8.85728 2.142 8.60401 2.32198 8.51958 2.44197C8.41406 2.60195 8.54069 2.74194 8.68843 2.84193C8.60401 2.92192 8.47737 3.02191 8.37184 3.1219C8.41405 3.16189 8.66732 3.28188 8.81506 3.28188C9.02612 3.28188 9.21607 3.18189 9.34271 3.0819C9.55376 2.92192 9.49045 2.74194 9.25828 2.62195C9.23718 2.60195 9.21607 2.60195 9.19497 2.60195C9.3216 2.48196 9.44824 2.38197 9.46934 2.34198ZM8.92059 2.78193C8.98391 2.82193 9.06833 2.84193 9.15276 2.88192C9.27939 2.94192 9.21607 3.0619 9.08944 3.1219C8.9628 3.18189 8.73064 3.02191 8.68843 2.96191C8.73064 2.92192 8.81506 2.86193 8.92059 2.78193ZM9.15276 2.48196C9.13165 2.50196 9.06833 2.54196 9.02612 2.58195H8.92059C8.81506 2.56196 8.75175 2.48196 8.70954 2.42197C8.66732 2.36198 8.79396 2.30198 8.85728 2.30198C8.92059 2.34198 9.06833 2.40197 9.15276 2.48196ZM8.24521 2.94192C7.92862 3.02191 7.78088 2.78193 7.73867 2.70194C7.86531 2.58195 8.09747 2.36198 8.2241 2.26199C8.13968 2.182 8.09747 2.06201 7.92862 2.04201C7.78088 2.04201 7.4643 2.20199 7.40098 2.58195C7.33766 2.96191 7.71757 3.16189 8.01305 3.16189C8.11857 3.16189 8.2241 3.04191 8.28742 3.02191C8.43516 2.96192 8.39295 2.90192 8.24521 2.94192ZM7.71757 2.64195C7.63314 2.40197 7.67535 2.30198 7.82309 2.182C7.86531 2.26199 7.94973 2.32198 8.01305 2.36198C7.92862 2.44197 7.78088 2.60195 7.71757 2.64195ZM7.33766 2.42197C7.40098 2.36198 7.33766 2.34198 7.29545 2.38197C7.25324 2.34198 7.16882 2.24199 7.1055 2.20199C7.06329 2.24199 6.93665 2.32198 6.85223 2.34198C6.81002 2.28199 6.7256 2.28199 6.62007 2.20199C6.55675 2.24199 6.43012 2.34198 6.3668 2.42197C6.49343 2.46197 6.57786 2.46197 6.59896 2.56196V3.24189C6.66228 3.26188 6.7467 3.24189 6.83112 3.24189V2.46197C6.87334 2.44197 6.89444 2.42197 6.91555 2.40197C6.95776 2.42197 7.04218 2.54196 7.08439 2.56196C7.16882 2.54196 7.29545 2.46197 7.33766 2.42197ZM6.32459 3.72184C6.17685 3.74183 5.98689 3.88182 5.92358 4.0218C5.90247 4.0818 5.92358 4.26178 5.96579 4.28178C5.98689 4.30178 6.008 4.30178 6.008 4.32177C5.92358 4.40177 5.83915 4.48176 5.83915 4.60174C5.83915 4.72173 5.94468 4.82172 6.07132 4.88172C6.13463 4.78173 6.24016 4.72173 6.3668 4.70173C6.3668 4.80172 6.40901 4.86172 6.47233 4.90171C6.51454 4.86172 6.70449 4.70173 6.7467 4.66174C6.78891 4.62174 6.7467 4.58175 6.70449 4.62174C6.68338 4.64174 6.62007 4.60174 6.59896 4.58175C6.59896 4.52175 6.59896 4.00181 6.62007 3.98181C6.49343 3.88182 6.40901 3.70184 6.32459 3.72184ZM6.34569 4.26178C6.19795 4.36177 6.13463 4.36177 6.02911 4.24178C5.96579 4.18179 5.98689 4.0818 6.008 4.0218C6.05021 3.94181 6.13463 3.88182 6.17685 3.88182C6.21906 3.88182 6.34569 4.0218 6.32459 4.1018C6.32459 4.12179 6.32459 4.20179 6.34569 4.26178ZM6.34569 4.52175V4.60174C6.32459 4.60174 6.28238 4.62174 6.24016 4.64174C6.17685 4.60174 5.90247 4.50175 6.09242 4.38177C6.19795 4.44176 6.24016 4.40177 6.34569 4.34177V4.52175ZM6.21906 3.40187C6.19795 3.38187 6.15574 3.34188 6.15574 3.30188V2.90192C6.15574 2.86193 6.07132 2.86193 6.07132 2.90192C6.07132 2.96191 6.07132 3.0619 6.02911 3.1419C5.88137 3.36187 5.58589 3.44186 5.39593 3.18189C5.33262 3.1019 5.31151 2.96191 5.31151 2.86193C5.29041 2.74194 5.39593 2.56196 5.41704 2.56196C5.67031 2.24199 6.02911 2.48196 6.05021 2.60195C6.07132 2.68194 6.09242 2.80193 6.09242 2.84193C6.09242 2.88192 6.17685 2.88192 6.17685 2.84193V2.28199C6.17685 2.24199 6.11353 2.24199 6.11353 2.28199C6.11353 2.36198 6.07132 2.36198 6.008 2.34198C5.88137 2.30198 5.58589 2.24199 5.43815 2.34198C5.29041 2.42197 5.07935 2.62195 5.07935 2.86193C5.07935 3.26188 5.24819 3.28188 5.41704 3.40187C5.58589 3.50186 5.81805 3.44186 6.02911 3.38187C6.11353 3.36187 6.13463 3.40187 6.17685 3.46186C6.19795 3.52186 6.26127 3.46186 6.21906 3.40187ZM5.05824 3.96181C4.9105 4.16179 4.82608 4.50175 5.07935 4.70173C5.20598 4.80172 5.29041 4.86172 5.54367 4.82172C5.58589 4.72173 5.60699 4.70173 5.69141 4.60174C5.52257 4.62174 5.39593 4.60174 5.2693 4.52175C5.01603 4.34177 5.10045 4.0418 5.16377 3.94181C5.29041 3.76183 5.48036 4.0218 5.52257 4.0618C5.56478 4.00181 5.6492 3.94181 5.71252 3.88182C5.6492 3.78183 5.58589 3.70184 5.52257 3.64184C5.39593 3.68184 5.16377 3.82183 5.05824 3.96181ZM5.16377 5.76162C5.10045 6.14158 5.48036 6.36156 5.67031 6.44155C5.71252 6.36156 5.79694 6.22158 5.90247 6.12159C5.96579 6.04159 5.90247 6.0216 5.83915 6.08159C5.75473 6.16158 5.50146 6.08159 5.43815 5.9816C5.56478 5.90161 5.86026 5.64164 6.008 5.54165C5.92358 5.46166 5.77584 5.26168 5.75473 5.16169C5.6281 5.20168 5.22709 5.36167 5.16377 5.76162ZM5.54367 5.34167C5.58589 5.42166 5.69141 5.60164 5.75473 5.62164C5.67031 5.70163 5.43815 5.84162 5.37483 5.88161C5.2693 5.76162 5.20598 5.54165 5.54367 5.34167ZM6.3668 5.22168C6.28238 5.28167 6.21906 5.36167 6.11353 5.44166C6.15574 5.50165 6.26127 5.56164 6.26127 5.66163V6.34156H6.47233C6.45122 6.26157 6.47233 5.66163 6.47233 5.58164C6.53564 5.54165 6.53564 5.52165 6.59896 5.48165C6.64117 5.52165 6.7467 5.54165 6.7467 5.60164C6.7467 5.66163 6.76781 5.94161 6.7467 6.06159C6.7256 6.18158 6.7256 6.28157 6.81002 6.40156C6.87334 6.34156 7.06329 6.20158 7.1266 6.16158C7.16882 6.12159 7.14771 6.10159 7.08439 6.12159C7.02108 6.14158 7.02108 6.14158 7.02108 6.10159C7.02108 6.04159 6.99997 5.72163 6.97886 5.52165C6.97886 5.32167 6.87334 5.26168 6.81002 5.24168C6.7467 5.30167 6.62007 5.38166 6.53564 5.44166C6.47233 5.40166 6.43012 5.32167 6.3668 5.22168ZM7.21103 4.72173C7.27434 4.66174 7.33766 4.58175 7.35877 4.56175C7.42209 4.52175 7.35877 4.48176 7.31656 4.52175C7.27434 4.56175 7.18992 4.48176 7.16882 4.46176C7.14771 4.42176 7.08439 3.96181 7.1055 3.96181C7.1055 3.96181 7.42208 3.92182 7.44319 3.92182C7.4643 3.92182 7.4854 3.82183 7.44319 3.82183C7.40098 3.82183 7.16882 3.86182 7.14771 3.82183C7.1266 3.78183 7.1055 3.60185 7.18992 3.46186C7.23213 3.40187 7.18992 3.34188 7.16882 3.40187C7.14771 3.46186 6.95776 3.74183 6.83112 3.80183C6.7256 3.84182 6.7467 3.86182 6.81002 3.88182C6.85223 3.88182 6.91555 3.94181 6.91555 3.94181C6.91555 4.18179 6.87334 4.46176 6.95776 4.58175C7.02108 4.70173 7.14771 4.78173 7.21103 4.72173ZM8.26631 4.84172C8.2241 4.92171 8.16079 4.98171 8.05526 5.0217C8.11857 5.08169 8.203 5.14169 8.26631 5.18168C8.32963 5.10169 8.39295 5.0417 8.47737 4.98171C8.39295 4.96171 8.30853 4.92171 8.26631 4.84172ZM7.78088 4.58175C7.88641 4.58175 8.03415 4.62174 8.203 4.62174C8.41406 4.60174 8.5829 4.30178 8.47737 4.0618C8.39295 3.84182 8.13968 3.88182 7.94973 3.82183C7.78088 3.78183 7.71757 3.68184 7.90752 3.56185C8.11857 3.44186 8.37184 3.64184 8.39295 3.68184C8.43516 3.74183 8.45627 3.74183 8.45627 3.66184C8.45627 3.48186 8.43516 3.58185 8.41406 3.40187C8.41406 3.34188 8.35074 3.34188 8.35074 3.40187C8.35074 3.46186 8.26631 3.44186 8.203 3.44186C8.13968 3.44186 7.97083 3.42187 7.82309 3.50186C7.71757 3.56185 7.50651 3.72184 7.63314 3.92182C7.69646 4.0418 8.11857 4.12179 8.2241 4.20179C8.32963 4.26178 8.35074 4.44176 8.24521 4.52175C8.11857 4.62174 7.78088 4.54175 7.71757 4.48176C7.65425 4.40177 7.61204 4.34177 7.61204 4.26178C7.59093 4.18179 7.52761 4.18179 7.52761 4.26178C7.52761 4.34177 7.54872 4.60174 7.56983 4.68174C7.59093 4.74173 7.65425 4.72173 7.65425 4.68174C7.71757 4.60174 7.73867 4.58175 7.78088 4.58175ZM7.33766 5.42166C7.25324 5.48165 7.42209 5.56164 7.42209 5.56164C7.42209 5.80162 7.40098 6.04159 7.4854 6.16158C7.54872 6.24157 7.69646 6.28157 7.73867 6.22158C7.75978 6.14158 7.88641 6.0016 7.92862 5.9816C7.97083 5.94161 7.92862 5.90161 7.88641 5.94161C7.80199 6.04159 7.73867 5.9816 7.67535 5.92161C7.63314 5.88161 7.63314 5.56165 7.65425 5.54165C7.65425 5.54165 7.82309 5.52165 7.86531 5.52165C7.88641 5.52165 7.88641 5.42166 7.86531 5.42166C7.82309 5.42166 7.67535 5.42166 7.65425 5.40166C7.63314 5.36167 7.67535 5.14169 7.69646 5.0417C7.69646 4.96171 7.65425 4.94171 7.63314 5.0217C7.59093 5.0617 7.44319 5.34167 7.33766 5.42166Z" fill="#800000"/>
</g>
<defs>
<clipPath id="clip0_4_11844">
<rect width="127" height="24" fill="white"/>
</clipPath>
</defs>
</svg>
