<svg width="24" height="24" viewBox="0 0 24 24" fill="none" xmlns="http://www.w3.org/2000/svg">
<path d="M22.3683 6.37727C21.6017 6.71805 20.7766 6.94792 19.9109 7.05079C20.7948 6.52162 21.4725 5.68342 21.7922 4.68351C20.9654 5.17416 20.0501 5.53018 19.0752 5.72237C18.295 4.89095 17.1829 4.37109 15.9523 4.37109C13.5897 4.37109 11.6741 6.28667 11.6741 8.64972C11.6741 8.98457 11.7118 9.31096 11.785 9.62465C8.229 9.44601 5.07602 7.74294 2.9657 5.15426C2.5974 5.78587 2.38658 6.52078 2.38658 7.30564C2.38658 8.78984 3.14181 10.0996 4.28989 10.8667C3.58885 10.8443 2.92887 10.6517 2.35187 10.3312C2.35145 10.349 2.35145 10.3672 2.35145 10.3854C2.35145 12.458 3.82634 14.1869 5.78383 14.5806C5.42484 14.678 5.04681 14.7305 4.65649 14.7305C4.38048 14.7305 4.11251 14.7038 3.85131 14.6534C4.39614 16.3531 5.97602 17.5905 7.848 17.6248C6.38369 18.7724 4.53923 19.4566 2.53433 19.4566C2.18931 19.4566 1.84853 19.4362 1.51367 19.3964C3.40766 20.611 5.65641 21.3188 8.07236 21.3188C15.9425 21.3188 20.2457 14.7995 20.2457 9.14544C20.2457 8.96002 20.2419 8.77502 20.2339 8.5913C21.0695 7.98932 21.7951 7.23536 22.3683 6.37727Z" fill="black"/>
</svg>
