<svg width="8" height="10" viewBox="0 0 8 10" fill="none" xmlns="http://www.w3.org/2000/svg">
<path d="M3.70049 7.86872C4.76769 7.86872 5.83389 7.86872 6.90109 7.86872C7.03386 7.86872 7.16766 7.86872 7.16766 7.86872C7.30043 7.86872 7.4352 7.86871 7.4352 8.00148C7.4352 8.66835 7.4352 9.20146 7.4352 9.86733C7.4352 10.0001 7.43521 10.0001 7.30244 10.0001C7.16967 10.0001 7.16965 10.0001 7.03487 10.0001C4.90248 10.0001 2.76807 10.0001 0.63467 10.0001C0.501899 10.0001 0.501915 10.0001 0.368137 10.0001C0.233354 10.0001 0.101574 10.0001 0.101574 9.86733C0.101574 9.33423 0.101574 8.80012 0.101574 8.4008C0.101574 8.26803 0.233354 8.13425 0.368137 8.00148C1.43534 6.93428 2.50053 5.86909 3.56874 4.80189C3.83529 4.53433 3.96805 4.26779 4.2346 4.00125C4.36737 3.73369 4.50116 3.46715 4.50116 3.2006C4.50116 2.6665 4.36837 2.39994 3.70049 2.26717C3.43394 2.26717 3.03462 2.26716 2.76807 2.39993C2.50051 2.5327 2.23398 2.66649 1.96743 2.93404C1.83465 3.06581 1.70087 3.20059 1.43332 3.33336C1.034 2.79926 0.500911 2.26617 0.0995786 1.73407C-0.0331929 1.6013 -0.0331929 1.46653 0.0995786 1.46653C1.033 0.666883 1.96543 0.132771 3.30018 0C3.83328 0 4.23258 0 4.76668 0C6.7663 0.39932 7.69972 1.86584 7.03385 3.86646C6.7663 4.53334 6.49977 5.06643 5.96668 5.60054C5.2998 6.2664 4.63191 6.9343 3.96604 7.46639C3.96805 7.60218 3.83326 7.60217 3.70049 7.86872Z" fill="white"/>
</svg>
