<svg width="108" height="42" viewBox="0 0 108 42" fill="none" xmlns="http://www.w3.org/2000/svg">
<path d="M2.05693 36.8188C1.65805 36.8188 1.39178 36.8188 0.990887 36.8188C0.85826 35.6201 0.724655 34.4214 0.592028 33.2228C0.325769 30.5592 0.193136 27.8956 0.0584989 25.232C-0.0731236 22.701 0.0584989 20.171 0.0584989 17.6401C0.191126 14.9765 0.325769 12.4445 0.592028 9.78092C0.858287 6.71843 1.3918 3.52233 1.92432 0.457835C2.05694 0.0589486 2.05695 0.0589454 2.32321 0.0589454C2.45583 0.0589454 2.59046 0.0589454 2.59046 0.0589454C36.8203 0.0589454 71.0512 0.0589454 105.282 0.0589454C105.548 0.0589454 105.815 -0.0736818 105.947 0.0589454C106.08 0.190568 106.08 0.457819 106.08 0.724078C106.479 3.12142 106.88 5.51875 107.146 7.91709C107.412 10.3164 107.678 12.8454 107.811 15.2428C107.944 18.5715 108.078 21.7686 107.944 25.0994C107.944 27.6313 107.677 30.0277 107.545 32.5596C107.279 35.6221 106.88 38.8182 106.212 41.8827C105.814 41.8827 105.546 41.8827 105.145 41.8827C105.014 41.6165 105.145 41.4838 105.145 41.2176C105.679 38.0205 106.078 34.958 106.344 31.7619C106.477 29.8971 106.611 28.0312 106.743 26.1674C106.876 23.9027 106.876 21.64 106.743 19.3753C106.743 16.0456 106.477 12.8494 106.078 9.51869C105.812 7.12135 105.544 4.72401 105.145 2.32467C105.145 2.19304 105.014 1.92578 105.014 1.79215C105.014 1.39326 104.747 1.25862 104.348 1.25862C104.216 1.25862 104.081 1.25862 103.815 1.25862C70.5167 1.25862 37.0856 1.25862 3.78713 1.25862C2.58846 1.25862 2.7211 1.25862 2.58847 2.32467C2.05495 5.38815 1.65604 8.58425 1.38978 11.7814C1.12352 14.445 1.12351 17.1086 0.990887 19.7722C0.85826 21.9032 0.990887 24.0353 0.990887 26.1654C1.12351 29.3625 1.38979 32.5596 1.79069 35.7557C2.18958 36.2852 2.32319 36.5525 2.05693 36.8188Z" fill="white"/>
</svg>
