<svg width="56" height="56" viewBox="0 0 56 56" fill="none" xmlns="http://www.w3.org/2000/svg">
<g clip-path="url(#clip0_4_15969)">
<g clip-path="url(#clip1_4_15969)">
<g clip-path="url(#clip2_4_15969)">
<path d="M0 11.2C0 5.01441 5.01441 0 11.2 0H44.8C50.9856 0 56 5.01441 56 11.2V44.8C56 50.9856 50.9856 56 44.8 56H11.2C5.01441 56 0 50.9856 0 44.8V11.2Z" fill="#2181E2"/>
<path d="M46.6666 32.676V34.6266C46.6666 34.7386 46.5981 34.8381 46.4986 34.8817C45.8889 35.143 43.8012 36.1013 42.9332 37.3084C40.7181 40.3915 39.0257 44.8 35.2426 44.8H19.4598C13.8662 44.8 9.33325 40.2515 9.33325 34.639V34.4586C9.33325 34.3093 9.45455 34.188 9.6039 34.188H18.4021C18.5763 34.188 18.7038 34.3498 18.6884 34.5209C18.6261 35.0933 18.732 35.6781 19.0026 36.2101C19.5252 37.271 20.608 37.9338 21.7777 37.9338H26.1332V34.5333H21.8275C21.6066 34.5333 21.476 34.2781 21.6035 34.0978C21.6501 34.0261 21.7031 33.9515 21.7591 33.8675C22.1666 33.2889 22.7484 32.3898 23.3271 31.3663C23.7221 30.6755 24.1048 29.9383 24.4128 29.1978C24.475 29.064 24.5248 28.927 24.5746 28.7932C24.6586 28.5569 24.7457 28.336 24.808 28.115C24.8701 27.9284 24.9198 27.7324 24.9697 27.5489C25.116 26.9204 25.1781 26.2546 25.1781 25.564C25.1781 25.2933 25.1657 25.0101 25.1409 24.7395C25.1283 24.444 25.0911 24.1484 25.0537 23.8529C25.0288 23.5915 24.9821 23.3332 24.9324 23.0626C24.8701 22.6675 24.783 22.2755 24.6835 21.8804L24.6492 21.731C24.5746 21.4604 24.5124 21.2023 24.4252 20.9315C24.1795 20.0821 23.8964 19.2546 23.5977 18.48C23.4887 18.172 23.3643 17.8764 23.2398 17.5809C23.0564 17.136 22.8697 16.7315 22.6986 16.3489C22.6115 16.1746 22.5369 16.016 22.4621 15.8541C22.3781 15.6706 22.291 15.487 22.204 15.3129C22.1417 15.179 22.0701 15.0546 22.0203 14.9301L21.4884 13.9471C21.4137 13.8133 21.5381 13.6546 21.6843 13.6951L25.0132 14.5972H25.0226C25.0288 14.5972 25.032 14.6004 25.0351 14.6004L25.4737 14.7217L25.956 14.8586L26.1332 14.9084V12.9297C26.1332 11.9746 26.8986 11.2 27.8444 11.2C28.3172 11.2 28.7466 11.3928 29.0546 11.707C29.3626 12.0213 29.5555 12.4506 29.5555 12.9297V15.8666L29.9101 15.9661C29.9381 15.9755 29.9661 15.988 29.991 16.0066C30.0781 16.072 30.2026 16.1684 30.3612 16.2866C30.4857 16.3861 30.6195 16.5075 30.7812 16.632C31.1017 16.8901 31.4844 17.223 31.9044 17.6058C32.0163 17.7021 32.1252 17.8018 32.2248 17.9013C32.7661 18.4053 33.3729 18.9964 33.9515 19.6498C34.1132 19.8333 34.272 20.02 34.4337 20.216C34.5955 20.415 34.7666 20.611 34.9158 20.807C35.112 21.0684 35.3235 21.339 35.507 21.6223C35.5941 21.756 35.6937 21.8929 35.7777 22.0266C36.0141 22.3844 36.2226 22.7547 36.4217 23.1249C36.5057 23.296 36.5927 23.4826 36.6675 23.6661C36.8883 24.1609 37.0626 24.6649 37.1746 25.1689C37.2088 25.2778 37.2337 25.396 37.2461 25.5018V25.5267C37.2835 25.676 37.296 25.8346 37.3083 25.9964C37.3581 26.5129 37.3332 27.0292 37.2212 27.5489C37.1746 27.7698 37.1124 27.9781 37.0377 28.199C36.963 28.4106 36.8883 28.6315 36.792 28.84C36.6054 29.2724 36.3843 29.7049 36.1231 30.1093C36.0391 30.2586 35.9395 30.4173 35.84 30.5667C35.7311 30.7252 35.619 30.8746 35.5195 31.0209C35.3826 31.2075 35.2364 31.4035 35.0871 31.5778C34.9532 31.7613 34.8164 31.9449 34.667 32.1066C34.4586 32.3524 34.2595 32.5858 34.0511 32.8098C33.9266 32.956 33.7929 33.1053 33.6558 33.239C33.5221 33.3884 33.3852 33.5221 33.2607 33.6466C33.0524 33.855 32.8781 34.0169 32.7318 34.1506L32.3897 34.4649C32.34 34.5084 32.2746 34.5333 32.2061 34.5333H29.5555V37.9338H32.8906C33.6372 37.9338 34.3466 37.6693 34.9191 37.184C35.115 37.0129 35.9706 36.2724 36.9817 35.1555C37.016 35.1181 37.0595 35.0901 37.1094 35.0778L46.3212 32.4147C46.4924 32.3649 46.6666 32.4955 46.6666 32.676Z" fill="white"/>
</g>
</g>
</g>
<defs>
<clipPath id="clip0_4_15969">
<rect width="56" height="56" rx="10" fill="white"/>
</clipPath>
<clipPath id="clip1_4_15969">
<rect width="56" height="56" fill="white"/>
</clipPath>
<clipPath id="clip2_4_15969">
<rect width="56" height="56" fill="white"/>
</clipPath>
</defs>
</svg>
