<svg width="30" height="30" viewBox="0 0 30 30" fill="none" xmlns="http://www.w3.org/2000/svg">
<path d="M18.525 5.3252C18.2768 5.7698 18.0555 6.22897 17.8625 6.7002C15.966 6.40026 14.0341 6.40026 12.1375 6.7002C11.9445 6.22897 11.7233 5.7698 11.475 5.3252C9.68851 5.63045 7.95177 6.17712 6.31252 6.95019C3.38119 11.1806 2.05181 16.3164 2.56252 21.4377C4.47282 22.8738 6.61684 23.969 8.90002 24.6752C9.41991 23.9884 9.8839 23.2611 10.2875 22.5002C9.54261 22.2255 8.82664 21.878 8.15002 21.4627C8.3356 21.3392 8.51114 21.2013 8.67502 21.0502C10.6481 22.0006 12.81 22.4941 15 22.4941C17.1901 22.4941 19.3519 22.0006 21.325 21.0502C21.5 21.2002 21.675 21.3377 21.85 21.4627C21.1697 21.8748 20.4545 22.2261 19.7125 22.5127C20.0994 23.2909 20.551 24.0352 21.0625 24.7377C23.3428 24.034 25.4832 22.9384 27.3875 21.5002C27.9105 16.378 26.58 11.2379 23.6375 7.0127C22.0167 6.22362 20.2971 5.65603 18.525 5.3252ZM10.85 18.5127C10.2245 18.4678 9.6407 18.1823 9.22117 17.7162C8.80164 17.25 8.57901 16.6395 8.60002 16.0127C8.57584 15.3851 8.79738 14.7728 9.21753 14.306C9.63769 13.8391 10.2233 13.5545 10.85 13.5127C11.4767 13.5545 12.0623 13.8391 12.4825 14.306C12.9027 14.7728 13.1242 15.3851 13.1 16.0127C13.1242 16.6403 12.9027 17.2526 12.4825 17.7194C12.0623 18.1863 11.4767 18.4709 10.85 18.5127ZM19.15 18.5127C18.5245 18.4678 17.9407 18.1823 17.5212 17.7162C17.1016 17.25 16.879 16.6395 16.9 16.0127C16.8758 15.3851 17.0974 14.7728 17.5175 14.306C17.9377 13.8391 18.5233 13.5545 19.15 13.5127C19.7779 13.5514 20.3654 13.8351 20.7862 14.3026C21.207 14.7702 21.4274 15.3843 21.4 16.0127C21.4274 16.6411 21.207 17.2552 20.7862 17.7228C20.3654 18.1903 19.7779 18.474 19.15 18.5127Z" fill="#7289DA"/>
</svg>
