<svg width="10" height="14" viewBox="0 0 10 14" fill="none" xmlns="http://www.w3.org/2000/svg">
<g clip-path="url(#clip0_5_16438)">
<path d="M8.38 7.665L4.944 13.306C4.872 13.421 4.743 13.5 4.592 13.5C4.442 13.5 4.312 13.421 4.24 13.306L0.79 7.665C0.295 6.932 0 6.04 0 5.085C0 2.555 2.055 0.5 4.585 0.5C7.115 0.5 9.17 2.555 9.17 5.085C9.17 6.041 8.882 6.932 8.38 7.665ZM4.577 3.31C3.527 3.31 2.679 4.158 2.679 5.207C2.679 6.257 3.527 7.104 4.577 7.104C5.626 7.104 6.467 6.256 6.467 5.207C6.467 4.157 5.619 3.31 4.577 3.31Z" fill="black"/>
</g>
<defs>
<clipPath id="clip0_5_16438">
<rect width="10" height="13" fill="white" transform="translate(0 0.5)"/>
</clipPath>
</defs>
</svg>
