<svg width="9" height="13" viewBox="0 0 9 13" fill="none" xmlns="http://www.w3.org/2000/svg">
<path d="M8.89974 8.71061C8.89974 9.32503 8.78899 9.91334 8.56955 10.4786C8.25189 11.2404 7.72211 11.8496 6.98229 12.3094C6.24247 12.7702 5.3898 13.0001 4.42323 13.0001C3.45666 13.0001 2.60608 12.7775 1.87357 12.3282C1.13898 11.8799 0.608161 11.2686 0.277961 10.4964C0.142118 10.1641 0.0512009 9.83288 0.00208873 9.50163V9.42744C0.00208873 9.24353 0.105542 9.15053 0.313485 9.15053H2.78999C2.96136 9.15053 3.08362 9.22995 3.15781 9.39087C3.17035 9.45252 3.20692 9.53194 3.26858 9.63016C3.3668 9.87572 3.51518 10.0628 3.71686 10.1923C3.91957 10.3209 4.15363 10.3846 4.42323 10.3846C4.69178 10.3846 4.90913 10.3177 5.1108 10.1819C5.31248 10.0471 5.4619 9.8705 5.56012 9.64792C5.70746 9.39087 5.77956 9.09619 5.77956 8.76495C5.80464 8.4452 5.74299 8.13276 5.5967 7.82555C5.51101 7.60506 5.36786 7.43056 5.16514 7.30099C4.96347 7.17246 4.71686 7.10768 4.42323 7.10768C3.92061 7.10768 3.54235 7.28113 3.28634 7.62283C3.22469 7.69702 3.16722 7.7524 3.11079 7.78897C3.05541 7.82554 2.9854 7.84436 2.89972 7.84436H0.331247C0.233023 7.84436 0.153619 7.81406 0.0919679 7.75241C0.0303165 7.69076 0 7.61133 0 7.51206V0.331247C0 0.231978 0.0303165 0.152567 0.0919679 0.0909156C0.153619 0.0292642 0.233023 0 0.331247 0H8.14635C8.24457 0 8.32399 0.0292642 8.38564 0.0909156C8.4473 0.152567 8.47654 0.231978 8.47654 0.331247V2.28319C8.47654 2.38141 8.4473 2.46083 8.38564 2.52248C8.32399 2.58414 8.24457 2.61444 8.14635 2.61444H3.17557C3.08989 2.61444 3.04704 2.65833 3.04704 2.74402V4.80567C3.04704 4.85479 3.05959 4.88718 3.08362 4.90703C3.1087 4.9248 3.14527 4.92167 3.19439 4.89659C3.70745 4.61446 4.26439 4.47339 4.86419 4.47339C5.73149 4.47339 6.49638 4.69387 7.15679 5.13692C7.81719 5.57893 8.29368 6.18082 8.58731 6.94154C8.79525 7.52984 8.89871 8.11918 8.89871 8.70852L8.89974 8.71061Z" fill="#252530"/>
</svg>
