<svg width="136" height="89" viewBox="0 0 136 89" fill="none" xmlns="http://www.w3.org/2000/svg">
<g clip-path="url(#clip0_4_10748)">
<path d="M65.3484 79.5516C84.8752 79.5516 100.705 63.722 100.705 44.1953C100.705 24.6686 84.8752 8.83905 65.3484 8.83905C45.8217 8.83905 29.9922 24.6686 29.9922 44.1953C29.9922 63.722 45.8217 79.5516 65.3484 79.5516Z" fill="#E6EEFF"/>
<g filter="url(#filter0_d_4_10748)">
<path d="M26.0597 22.0977H104.638C108.322 22.0977 111.312 25.1401 111.312 28.8874V58.8263C111.312 62.5735 108.322 65.6159 104.638 65.6159H26.0597C22.3764 65.6159 19.3857 62.5735 19.3857 58.8263V28.8874C19.3857 25.1401 22.3764 22.0977 26.0597 22.0977Z" fill="white"/>
</g>
<path d="M54.4182 43.3223C54.4182 46.3834 53.4779 49.219 51.8732 51.5683C51.2088 52.5485 50.4239 53.4393 49.5381 54.225C49.5186 54.2444 49.4992 54.2639 49.4797 54.2794C48.9591 54.7423 48.3957 55.1702 47.8051 55.5592C47.2883 55.8936 46.7522 56.197 46.1926 56.4732C44.2654 57.4106 42.0973 57.9396 39.8087 57.9396C39.696 57.9396 39.5834 57.9396 39.4668 57.9396C38.2157 57.9085 36.9995 57.7257 35.8456 57.395C35.6357 57.3328 35.4298 57.2745 35.2278 57.2045C33.9455 56.7805 32.7371 56.1853 31.6414 55.4424C30.8216 54.8824 30.0561 54.2444 29.3646 53.5326C29.2907 53.4587 29.213 53.3771 29.1431 53.2993C28.3116 52.4124 27.5889 51.4166 27.006 50.3431C25.8559 48.2544 25.207 45.8661 25.207 43.3223C25.207 35.2512 31.7502 28.701 39.8126 28.701C47.875 28.701 54.4182 35.2512 54.4182 43.3223Z" fill="#E7EEFF"/>
<path d="M49.5356 54.2291C49.5356 54.2291 49.4967 54.268 49.4773 54.2835C48.9567 54.7464 48.3933 55.1743 47.8026 55.5632C47.2859 55.8978 46.7497 56.2011 46.1902 56.4773C44.2629 57.4147 42.0949 57.9438 39.8063 57.9438C39.6936 57.9438 39.581 57.9438 39.4644 57.9438C38.2132 57.9127 36.997 57.7298 35.8431 57.3992C35.6333 57.337 35.4273 57.2786 35.2253 57.2085C33.9431 56.7846 32.7347 56.1895 31.639 55.4466C30.8192 54.8864 30.0537 54.2485 29.3621 53.5367C29.2883 53.4628 29.2105 53.3811 29.1406 53.3033C30.6754 52.5176 33.166 51.9964 35.9597 51.8175C38.6212 51.6464 41.5586 51.7864 44.193 52.3037C46.2485 52.7082 48.1174 53.3345 49.5394 54.2291H49.5356Z" fill="#3D7FFC"/>
<path d="M36.1044 52.4007C38.0045 54.4622 44.3883 54.155 44.1979 52.3579C44.1707 52.1362 44.1319 50.8176 44.1086 50.6154C44.093 50.4519 44.0775 50.2925 44.0619 50.1408C44.0192 49.6973 43.9842 49.3045 43.9532 48.9661C43.8676 47.9782 43.8405 47.4452 43.8405 47.4452H43.8327C43.6501 47.3947 39.547 46.2278 37.5032 45.7455C36.8193 45.5821 36.3648 45.4966 36.3725 45.5588C36.9982 50.1486 35.475 51.7278 36.0967 52.4046L36.1044 52.4007Z" fill="#FFB27D"/>
<path d="M37.293 47.0957C37.293 47.0957 39.0064 48.8383 43.9565 48.9628C43.8711 47.9748 43.8438 47.4419 43.8438 47.4419H43.8361C43.6535 47.3913 39.5504 46.2245 37.5066 45.7421C37.1452 45.8899 37.6232 46.8507 37.2891 47.0957H37.293Z" fill="#ED975D"/>
<path d="M45.099 47.1963C45.099 47.1963 43.8478 47.6475 42.2471 47.8614C39.9119 48.1765 36.8384 47.9898 35.8748 45.162C34.2507 40.4011 32.1719 37.5422 36.955 35.5973C39.5155 34.5549 41.1552 34.5005 42.2664 34.8972C43.2339 35.2395 43.8012 35.9241 44.2364 36.6048C45.165 38.0634 47.0339 46.3639 45.099 47.1963Z" fill="#FFB27D"/>
<path d="M43.8749 32.9211C45.5845 34.0452 45.025 36.6785 43.0124 37.0324C41.804 37.2464 40.7938 37.2892 40.207 37.5498C39.0181 38.0788 37.9962 38.6389 38.276 40.4865C38.3731 41.1166 38.6761 41.879 37.0637 41.5016C36.7995 41.4394 36.6091 41.4588 36.4769 41.5366C35.8086 41.9334 36.6634 43.8627 36.9199 44.2827C36.9199 44.2827 37.2929 45.6636 36.4653 46.3365C36.3642 46.4182 34.744 47.1261 30.8391 41.1438C30.2252 40.2064 29.6385 38.0905 30.5865 36.0523C31.5346 34.0141 34.1729 31.4391 39.1501 31.4391C40.444 31.4391 42.3906 31.9525 43.8711 32.925L43.8749 32.9211Z" fill="#091B36"/>
<path d="M91.1788 41.3761H88.1334C87.7962 41.3761 87.473 41.51 87.2346 41.7484C86.9962 41.9868 86.8623 42.3101 86.8623 42.6472V50.7235C86.8639 51.0596 86.9985 51.3814 87.2367 51.6185C87.4749 51.8555 87.7973 51.9886 88.1334 51.9886H91.1788C91.5159 51.9886 91.8392 51.8547 92.0776 51.6163C92.3159 51.378 92.4498 51.0547 92.4498 50.7176V42.6472C92.4498 42.3101 92.3159 41.9868 92.0776 41.7484C91.8392 41.51 91.5159 41.3761 91.1788 41.3761Z" fill="#9FC0FF"/>
<path d="M104.38 46.9494V47.0086H104.619C104.88 47.0095 105.135 47.0875 105.352 47.2328C105.569 47.3781 105.738 47.5843 105.839 47.8254C105.939 48.0666 105.966 48.3319 105.916 48.5883C105.867 48.8447 105.742 49.0806 105.558 49.2665C105.309 49.5159 104.971 49.6577 104.619 49.6612H104.38V49.7283C104.666 49.7491 104.934 49.8772 105.129 50.0873C105.325 50.2973 105.433 50.5734 105.433 50.8602C105.433 51.1471 105.325 51.4232 105.129 51.6332C104.934 51.8432 104.666 51.9715 104.38 51.9922C104.354 51.995 104.328 51.995 104.301 51.9922H95.5537C95.0563 51.9927 94.579 51.7957 94.2266 51.4445C93.8743 51.0933 93.6759 50.6166 93.6748 50.1192V42.9744C93.6748 41.8573 95.1196 39.5283 96.0432 38.4922C96.25 38.2667 96.4079 38.001 96.5069 37.7116C96.6059 37.4222 96.6448 37.1154 96.6192 36.8106C96.5405 35.8238 96.6059 34.4205 97.6065 34.3277C99.1693 34.1836 100.453 36.8935 99.712 38.9303C99.4061 39.7573 99.156 40.3671 98.9562 40.7895H104.68C105.098 40.7925 105.497 40.9562 105.797 41.2466C106.097 41.537 106.273 41.9316 106.289 42.3487C106.306 42.7656 106.161 43.1728 105.884 43.4856C105.609 43.7984 105.222 43.9928 104.806 44.0283C105.188 44.0386 105.549 44.1973 105.815 44.4704C106.081 44.7436 106.23 45.1097 106.229 45.4909C106.226 45.8772 106.071 46.2468 105.798 46.5195C105.524 46.7921 105.153 46.9459 104.767 46.9475L104.38 46.9494Z" fill="#9FC0FF"/>
<path d="M79.4907 31.8206H62.6965C61.7202 31.8206 60.9287 32.6121 60.9287 33.5884C60.9287 34.5648 61.7202 35.3562 62.6965 35.3562H79.4907C80.4671 35.3562 81.2586 34.5648 81.2586 33.5884C81.2586 32.6121 80.4671 31.8206 79.4907 31.8206Z" fill="#E6EEFF"/>
<path d="M76.839 38.8918H62.6965C61.7202 38.8918 60.9287 39.6833 60.9287 40.6597C60.9287 41.636 61.7202 42.4275 62.6965 42.4275H76.839C77.8154 42.4275 78.6068 41.636 78.6068 40.6597C78.6068 39.6833 77.8154 38.8918 76.839 38.8918Z" fill="#EDF1F6"/>
<path d="M79.4907 45.9631H62.6965C61.7202 45.9631 60.9287 46.7546 60.9287 47.7309C60.9287 48.7073 61.7202 49.4988 62.6965 49.4988H79.4907C80.4671 49.4988 81.2586 48.7073 81.2586 47.7309C81.2586 46.7546 80.4671 45.9631 79.4907 45.9631Z" fill="#EDF1F6"/>
<path d="M79.4907 53.0344H62.6965C61.7202 53.0344 60.9287 53.8258 60.9287 54.8022C60.9287 55.7785 61.7202 56.57 62.6965 56.57H79.4907C80.4671 56.57 81.2586 55.7785 81.2586 54.8022C81.2586 53.8258 80.4671 53.0344 79.4907 53.0344Z" fill="#EDF1F6"/>
</g>
<defs>
<filter id="filter0_d_4_10748" x="11.4306" y="14.1425" width="116.675" height="68.2676" filterUnits="userSpaceOnUse" color-interpolation-filters="sRGB">
<feFlood flood-opacity="0" result="BackgroundImageFix"/>
<feColorMatrix in="SourceAlpha" type="matrix" values="0 0 0 0 0 0 0 0 0 0 0 0 0 0 0 0 0 0 127 0" result="hardAlpha"/>
<feOffset dx="4.41953" dy="4.41953"/>
<feGaussianBlur stdDeviation="6.18734"/>
<feColorMatrix type="matrix" values="0 0 0 0 0 0 0 0 0 0.0898333 0 0 0 0 0.320833 0 0 0 0.07 0"/>
<feBlend mode="normal" in2="BackgroundImageFix" result="effect1_dropShadow_4_10748"/>
<feBlend mode="normal" in="SourceGraphic" in2="effect1_dropShadow_4_10748" result="shape"/>
</filter>
<clipPath id="clip0_4_10748">
<rect width="120.211" height="88.3906" fill="white" transform="translate(7.89453)"/>
</clipPath>
</defs>
</svg>
