<svg width="840" height="169" viewBox="0 0 840 169" fill="none" xmlns="http://www.w3.org/2000/svg">
<g clip-path="url(#clip0_4_16094)">
<path d="M0 18.1325H23.7263V143.13H89.3111V165.107H0V18.1325ZM112.652 18.1325C114.577 18.107 116.488 18.461 118.277 19.1743C120.065 19.8876 121.695 20.9461 123.075 22.2896C124.454 23.633 125.555 25.235 126.315 27.004C127.075 28.7731 127.479 30.6745 127.505 32.5997C127.505 36.539 125.94 40.3169 123.154 43.1024C120.369 45.8879 116.591 47.4528 112.652 47.4528C108.712 47.4528 104.934 45.8879 102.149 43.1024C99.3634 40.3169 97.7985 36.539 97.7985 32.5997C97.8066 30.6695 98.1991 28.7602 98.9533 26.9833C99.7074 25.2065 100.808 23.5977 102.191 22.2508C103.573 20.904 105.211 19.8462 107.007 19.1391C108.803 18.432 110.722 18.0898 112.652 18.1325ZM101.078 59.2195H123.84V165.107H101.078V59.2195ZM137.149 59.2195H159.911V73.8796C166.65 62.6916 178.224 56.326 193.462 56.326C218.153 56.326 233.585 75.6157 233.585 106.286V165.107H210.823V108.215C210.823 88.3468 202.143 77.1588 186.467 77.1588C169.312 77.1588 159.86 88.9255 159.86 110.144V165.107H137.098L137.149 59.2195ZM245.544 18.1325H268.306V111.109L310.743 59.2195H339.292L293.961 112.266L339.292 165.107H310.743L268.306 113.424V165.107H245.544V18.1325ZM348.165 32.2783H371.313V59.2838H398.318V78.1876H371.313V132.765C371.313 139.722 375.557 143.966 382.115 143.966H397.367V165.171H379.029C359.16 165.171 348.165 153.405 348.165 132.585V32.2783ZM408.349 59.2838H431.111V72.4007C436.705 62.3701 446.157 56.3903 457.731 56.3903C460.402 56.2686 463.075 56.5946 465.639 57.3548V78.5734C462.854 77.9614 460.002 77.7022 457.152 77.8018C440.37 77.8018 431.111 91.9476 431.111 116.188V165.171H408.349V59.2838ZM518.866 56.3903C543.942 56.3903 571.141 71.6291 571.141 114.645V117.732H489.546C491.295 136.623 502.277 147.039 520.602 147.039C533.719 147.039 544.907 139.902 547.415 130.077H570.562C568.247 151.283 546.257 168.065 520.602 168.065C487.81 168.065 467.183 146.653 467.183 112.138C467.183 81.4026 487.051 56.326 518.866 56.326V56.3903ZM546.836 98.8275C543.557 85.7106 533.333 77.416 518.866 77.416C504.977 77.416 495.152 85.9035 491.295 98.8275H546.836ZM632.868 56.3903C657.944 56.3903 685.143 71.6291 685.143 114.645V117.732H603.547C605.284 136.623 616.279 147.039 634.604 147.039C647.721 147.039 658.909 139.902 661.416 130.077H684.564C682.249 151.283 660.259 168.065 634.604 168.065C601.811 168.065 581.171 146.653 581.171 112.138C581.171 81.4026 601.04 56.326 632.868 56.326V56.3903ZM660.838 98.8275C657.559 85.7106 647.335 77.416 632.868 77.416C618.979 77.416 609.141 85.9035 605.284 98.8275H660.838Z" fill="black"/>
<path d="M690.734 56.0043H731.436L702.501 28.4201L718.511 11.9596L746.096 40.3154V0H770.015V40.3154L797.599 12.0239L813.597 28.4201L784.675 55.94H825.363V78.7018H784.444L813.558 106.993L797.599 123.068L758.055 83.3313L718.511 123.068L702.501 107.058L731.628 78.7661H690.734V56.0043ZM746.031 111.366H769.951V165.377H746.031V111.366Z" fill="black"/>
</g>
<defs>
<clipPath id="clip0_4_16094">
<rect width="840" height="169" fill="white"/>
</clipPath>
</defs>
</svg>
