<svg width="69" height="47" viewBox="0 0 69 47" fill="none" xmlns="http://www.w3.org/2000/svg">
<g clip-path="url(#clip0_4_11935)">
<path d="M4.93192 0.859787H8.98692C9.32692 0.859787 9.80392 0.811787 9.85092 1.25779C9.90692 1.76679 9.39492 1.68779 9.07692 1.75079C7.56692 2.03779 6.76892 2.81479 6.71592 4.38079C6.63192 6.96679 6.67192 9.55279 6.65592 12.1388C6.65592 12.7088 6.87192 12.8528 7.33392 12.4818C7.64492 12.2448 7.92392 11.9948 8.19792 11.7298C10.1749 9.80479 12.1679 7.89579 13.9719 5.78979C14.5355 5.14898 15.0243 4.44613 15.4289 3.69479C15.9529 2.69579 15.6559 2.06879 14.5709 1.80479C14.3709 1.75679 14.1649 1.72579 13.9689 1.66379C13.7719 1.60079 13.5759 1.49179 13.6069 1.23679C13.6223 1.13277 13.6766 1.03848 13.7588 0.972955C13.8411 0.90743 13.9451 0.875561 14.0499 0.883787C14.5479 0.852787 15.0479 0.852787 15.5469 0.883787C17.1859 1.04379 18.8369 1.04379 20.4759 0.883787C20.7099 0.866787 20.9459 0.866787 21.1809 0.883787C21.4739 0.883787 21.8329 0.861787 21.9169 1.21779C22.0009 1.57279 21.6269 1.65779 21.3739 1.76079C20.2288 2.22801 19.1637 2.87108 18.2169 3.66679C15.4099 5.93679 13.0229 8.61079 10.4649 11.1218C10.1129 11.4718 10.1529 11.7458 10.4469 12.0978C13.4819 15.5728 16.3739 19.1638 19.5709 22.5038C20.6409 23.6238 21.8829 24.3758 23.4579 24.5658C23.7699 24.6008 24.2979 24.5658 24.2319 25.0588C24.1659 25.5518 23.6789 25.3958 23.3519 25.3988H17.9699C17.7215 25.4075 17.4747 25.3552 17.2512 25.2464C17.0277 25.1376 16.8343 24.9757 16.6879 24.7748C13.9109 21.5308 11.2279 18.1898 8.24692 15.0898C7.87492 14.7058 7.52292 14.0298 6.92092 14.2478C6.38692 14.4408 6.64892 15.1428 6.60892 15.6108C6.38092 17.7538 6.55292 19.8998 6.71492 22.0368C6.82692 23.4678 7.75692 24.3138 9.17592 24.4878C9.31992 24.4878 9.46892 24.4878 9.61292 24.5318C9.92492 24.5848 10.3459 24.6038 10.3079 25.0338C10.2709 25.4638 9.83092 25.4088 9.51892 25.3808C6.63992 25.1278 3.76392 25.3368 0.884916 25.3808C0.572916 25.3808 0.135916 25.4608 0.0859159 25.0438C0.0299159 24.5788 0.503916 24.6478 0.793916 24.5788C2.41592 24.1988 3.08392 23.4248 3.08692 21.7248C3.10592 15.8478 3.10592 9.96979 3.08692 4.09079C3.08692 2.93679 2.52892 2.21879 1.43992 1.86379C1.16192 1.77579 0.868916 1.72579 0.587916 1.64479C0.307916 1.56479 -0.0360841 1.62279 0.00191593 1.25479C0.0399159 0.886787 0.395916 0.859787 0.682916 0.855787H4.91892L4.93192 0.859787ZM34.3699 46.7728H2.34392C1.83492 46.7728 1.13992 46.9908 1.14892 46.0578C1.14892 45.6308 1.31092 45.3818 1.75092 45.3628C2.04392 45.3628 2.34092 45.3468 2.63392 45.3468H65.9809C66.2919 45.3468 66.6259 45.3468 66.9509 45.3688C67.4369 45.3938 67.5929 45.6808 67.5749 46.1388C67.5848 46.2262 67.5743 46.3148 67.5441 46.3975C67.5139 46.4801 67.465 46.5547 67.4011 46.6152C67.3372 46.6757 67.2601 46.7205 67.1759 46.7461C67.0917 46.7717 67.0027 46.7774 66.9159 46.7628H66.0339L34.3679 46.7728H34.3699ZM41.2319 9.23479V5.12679C41.2319 4.48179 41.2069 3.83279 41.2319 3.18679C41.2509 2.33879 40.8889 1.79279 40.0559 1.55679C39.8289 1.49079 39.4319 1.49379 39.5009 1.13179C39.5609 0.819787 39.9219 0.866787 40.1779 0.866787H43.0879C43.2879 0.866787 43.5309 0.888787 43.5529 1.17879C43.5719 1.39979 43.3729 1.49079 43.2069 1.51579C42.2709 1.71779 42.1619 2.41679 42.1619 3.20279C42.1619 5.96279 42.1619 8.72679 42.1309 11.4868C42.1309 11.9488 42.3709 12.5878 41.7309 12.7938C41.1409 12.9838 40.8609 12.4008 40.5429 12.0478C38.2029 9.45279 35.8709 6.85379 33.5459 4.25079C33.2749 3.93879 33.0159 3.62679 32.7189 3.29079C32.5819 3.46479 32.4889 3.52679 32.4889 3.58679C32.5129 6.08179 32.3389 8.57679 32.6159 11.0718C32.6969 11.7988 32.9029 12.3948 33.7299 12.5538C33.8919 12.5838 34.0979 12.6688 34.0419 12.8968C33.9859 13.1238 33.7709 13.0968 33.6019 13.0968H30.7949C30.6259 13.0968 30.4079 13.1148 30.3729 12.8868C30.3449 12.7218 30.5109 12.6408 30.6449 12.5748C31.3439 12.2638 31.5369 11.6748 31.5309 10.9908C31.5089 8.29079 31.7019 5.59179 31.5909 2.88079C31.5619 2.25779 31.4749 1.71179 30.7669 1.50279C30.5949 1.45279 30.4199 1.33479 30.4919 1.12279C30.5639 0.910787 30.7509 0.894787 30.9289 0.882787C32.3819 0.779787 33.6599 0.797787 34.7529 2.17979C36.7149 4.67479 38.9229 6.94579 41.0289 9.30979L41.2319 9.23479ZM54.5629 7.40679H56.7679C56.9459 7.40679 57.1579 7.45979 57.2019 7.64379C57.2639 7.91179 57.0209 8.00579 56.8239 8.03979C55.8639 8.19579 55.7539 8.85979 55.7569 9.67179C55.7729 11.6968 55.5329 12.0238 53.6049 12.7198C52.5839 13.0999 51.4972 13.2723 50.4087 13.2268C49.3201 13.1813 48.2516 12.9188 47.2659 12.4548C44.9419 11.4058 43.9259 8.94179 44.1809 6.61079C44.6989 1.88779 49.8179 -0.661213 54.1629 1.55679C54.7339 1.85079 55.2729 2.43379 55.9569 1.69479C56.1369 1.49779 56.3439 1.73479 56.3779 1.95379C56.4873 2.67734 56.4873 3.41323 56.3779 4.13679C56.3179 4.53679 56.0659 4.62379 55.7539 4.30579C55.6163 4.12259 55.4904 3.93087 55.3769 3.73179C54.1099 1.90079 52.2949 1.34179 50.2019 1.63479C48.2549 1.90679 47.2129 3.24179 46.6359 5.01479C46.1254 6.56866 46.1828 8.25327 46.7979 9.76879C47.8579 12.5328 50.6629 12.9568 52.6249 12.1858C53.7199 11.7588 53.9049 11.1848 53.7419 9.35579C53.6639 8.45579 53.1179 8.18079 52.3199 8.10879C52.0889 8.08979 51.7989 8.05579 51.8169 7.73779C51.8369 7.41879 52.1289 7.42579 52.3569 7.40979H54.5629V7.40679ZM34.3669 43.3708C44.9849 43.3708 55.6039 43.3758 66.2229 43.3868C66.6529 43.3868 67.4429 43.0738 67.4449 43.7838C67.4449 44.3678 66.6849 44.1238 66.2629 44.1238C44.9949 44.1368 23.7279 44.1368 2.46392 44.1238C2.04392 44.1238 1.28192 44.3678 1.28492 43.7778C1.28492 43.0808 2.08092 43.3868 2.51092 43.3868C13.1299 43.3678 23.7479 43.3628 34.3669 43.3708ZM38.1569 29.2458C38.9869 29.2768 40.1909 29.1618 41.3919 29.3958C43.7779 29.8638 45.0879 31.4488 45.1879 33.8848C45.2719 35.9598 44.8329 37.7468 42.9419 38.9048C41.9607 39.5131 40.8332 39.8448 39.6789 39.8648C38.1509 39.8958 36.6189 39.8808 35.0899 39.8648C34.8409 39.8648 34.4669 39.9678 34.3819 39.6688C34.2579 39.2788 34.6939 39.3128 34.8879 39.2188C35.0666 39.1422 35.2154 39.0093 35.3116 38.8403C35.4079 38.6713 35.4462 38.4756 35.4209 38.2828V30.7968C35.4457 30.5886 35.3968 30.3782 35.2829 30.2022C35.1689 30.0261 34.997 29.8955 34.7969 29.8328C34.6319 29.7768 34.4169 29.7138 34.4469 29.5018C34.4879 29.2398 34.7439 29.2488 34.9439 29.2458C35.9019 29.2428 36.8409 29.2458 38.1569 29.2458ZM37.2209 34.3438V37.8718C37.2209 38.5138 37.4459 39.0138 38.1789 39.1198C40.8329 39.5558 42.7919 38.1838 43.2539 35.5818C43.8779 31.9758 41.9069 29.6048 38.4379 29.8198C37.5019 29.8758 37.2279 30.1498 37.2149 31.0678C37.2249 32.1688 37.2339 33.2548 37.2339 34.3428H37.2209V34.3438ZM23.9879 31.1198V33.5428C23.9879 34.9838 23.9879 36.4258 24.0039 37.8628C24.0039 38.5188 24.1629 39.0928 24.8929 39.3168C25.0549 39.3668 25.2669 39.4418 25.2049 39.6598C25.1419 39.8788 24.9359 39.8658 24.7649 39.8658H22.5589C22.3879 39.8658 22.1729 39.8658 22.1129 39.6598C22.0539 39.4548 22.2599 39.3638 22.4249 39.3078C22.9649 39.1048 23.0489 38.6618 23.0489 38.1658C23.0929 35.8458 23.1429 33.5268 23.1859 31.2058C23.1859 30.6038 23.1859 30.0088 22.4559 29.7718C22.4063 29.7479 22.3635 29.7119 22.3314 29.6672C22.2992 29.6225 22.2788 29.5704 22.2719 29.5158C22.2719 29.3538 22.4529 29.2908 22.5839 29.2848C23.8319 29.2468 25.0019 29.0728 25.9599 30.3548C27.5409 32.4668 29.3499 34.4098 31.0659 36.4188C31.2049 36.5488 31.3499 36.6688 31.5029 36.7808V34.5538C31.5029 33.4958 31.4529 32.4358 31.4869 31.3778C31.5149 30.5048 31.3099 29.8678 30.3169 29.7428C30.2299 29.7428 30.1549 29.6088 29.8749 29.3658C31.0605 29.2302 32.2566 29.2114 33.4459 29.3098C33.5619 29.3098 33.6829 29.4218 33.6239 29.5528C33.5976 29.6025 33.5613 29.6462 33.5172 29.6812C33.4732 29.7161 33.4223 29.7415 33.3679 29.7558C32.3829 29.8738 32.3949 30.5888 32.3859 31.3158C32.3524 33.8707 32.3064 36.4254 32.2479 38.9798C32.2479 39.2608 32.3379 39.6198 31.9959 39.7598C31.6529 39.8998 31.4189 39.5698 31.2159 39.3358C28.9819 36.7238 26.7499 34.1108 24.5179 31.4958C24.4279 31.3558 24.3559 31.1378 23.9879 31.1188V31.1198ZM66.7779 36.8098C66.7779 34.7908 66.8929 32.8258 66.8279 30.8668C66.838 30.6136 66.7535 30.3657 66.5908 30.1714C66.4281 29.9771 66.1989 29.8504 65.9479 29.8158C65.7579 29.7718 65.4679 29.7878 65.4769 29.5228C65.4859 29.2568 65.7639 29.2668 65.9599 29.2698C66.9699 29.2878 67.9899 29.1698 68.9919 29.3478C69.0019 29.4328 69.0019 29.5178 68.9919 29.6038C67.7849 29.8718 67.7289 30.7518 67.7439 31.7618C67.7819 34.1698 67.7909 36.5778 67.6039 38.9798C67.5819 39.2608 67.7039 39.6288 67.3609 39.7598C67.0179 39.8908 66.7769 39.5538 66.5779 39.3198C64.7059 37.1578 62.8879 34.9808 61.0279 32.8228C60.5229 32.2328 60.0929 31.5748 59.3499 30.9848V36.3568C59.3499 36.8838 59.4249 37.4108 59.4309 37.9378C59.4309 38.5618 59.5529 39.1078 60.2509 39.3328C60.4049 39.3798 60.6139 39.4508 60.5359 39.6878C60.4789 39.8498 60.3049 39.8598 60.1609 39.8628H57.8679C57.7249 39.8628 57.5559 39.8628 57.4909 39.6978C57.3969 39.4608 57.6059 39.3858 57.7559 39.3268C58.3799 39.0578 58.4919 38.5148 58.4979 37.9408C58.4979 35.5928 58.4979 33.2438 58.5179 30.8948C58.5179 30.4268 58.4239 30.0118 57.9179 29.8248C57.7589 29.7688 57.5529 29.7098 57.6059 29.4788C57.6499 29.3228 57.8219 29.2918 57.9679 29.2788C59.3029 29.1758 60.4879 29.1788 61.4649 30.4768C63.1249 32.6728 64.9959 34.7068 66.7779 36.8088V36.8098ZM67.5419 3.37979C67.0709 3.29479 66.9919 2.92979 66.7959 2.69679C66.5117 2.31944 66.1369 2.0199 65.7062 1.82587C65.2755 1.63184 64.8028 1.54961 64.3319 1.58679C63.4919 1.63579 62.8319 1.92279 62.5629 2.77079C62.4367 3.1523 62.4355 3.56416 62.5596 3.94638C62.6837 4.3286 62.9266 4.66122 63.2529 4.89579C63.7749 5.27979 64.3639 5.56579 64.9899 5.73779C65.6055 5.93374 66.2077 6.16923 66.7929 6.44279C67.4513 6.75036 67.996 7.25777 68.3493 7.89281C68.7026 8.52784 68.8467 9.25815 68.7609 9.97979C68.5869 11.5398 67.7009 12.5748 66.1069 13.0148C64.8282 13.3852 63.4604 13.2983 62.2389 12.7688C61.8329 12.5938 61.4029 12.3938 60.9689 12.6188C60.4169 12.9058 60.2889 12.6558 60.2889 12.1628V10.2228C60.2889 9.97679 60.1919 9.59879 60.5229 9.53979C60.8529 9.47979 60.8909 9.85179 60.9779 10.0738C61.6019 11.6338 62.7129 12.4838 64.4099 12.4718C65.6579 12.4718 66.5339 11.8168 66.7769 10.7568C67.0549 9.55879 66.6469 8.63879 65.4889 8.06479C64.7279 7.68679 63.9139 7.42179 63.1309 7.08179C62.0509 6.61179 61.1189 5.98979 60.7629 4.76179C60.5328 4.05209 60.5914 3.28032 60.926 2.6135C61.2606 1.94667 61.8444 1.43844 62.5509 1.19879C63.5161 0.815511 64.5813 0.764149 65.5789 1.05279C65.9479 1.16479 66.3409 1.30479 66.6929 1.09279C67.2139 0.780787 67.3579 1.01479 67.4389 1.48879C67.5826 2.10804 67.6175 2.74758 67.5419 3.37879V3.37979ZM16.2529 39.9018C13.2079 39.9018 11.0499 37.6748 11.0459 34.5458C11.039 33.8386 11.1749 33.1374 11.4456 32.484C11.7162 31.8307 12.1159 31.2387 12.6208 30.7435C13.1257 30.2483 13.7253 29.8602 14.3838 29.6023C15.0423 29.3444 15.746 29.2222 16.4529 29.2428C17.1541 29.2311 17.8504 29.3626 18.499 29.6294C19.1475 29.8962 19.7348 30.2926 20.2249 30.7943C20.7149 31.296 21.0973 31.8925 21.3487 32.5472C21.6001 33.2019 21.7152 33.901 21.6869 34.6018C21.6399 37.8148 19.5029 39.9118 16.2529 39.9018ZM19.8629 34.6138C19.7499 33.4568 19.6189 32.3588 18.9859 31.3858C17.6319 29.3048 14.7769 29.3078 13.6509 31.4888C13.1076 32.4706 12.838 33.5803 12.8704 34.702C12.9028 35.8236 13.2359 36.916 13.8349 37.8648C14.1192 38.3688 14.5505 38.7741 15.0712 39.0266C15.5918 39.279 16.1771 39.3667 16.7489 39.2778C17.9969 39.1528 18.8289 38.4548 19.3509 37.3248C19.7589 36.4418 19.6839 35.4878 19.8619 34.6148L19.8629 34.6138ZM51.6849 39.9008C48.5659 39.9008 46.4979 37.7178 46.5099 34.4678C46.5099 31.4268 48.7809 29.2178 51.8499 29.2398C52.5501 29.2337 53.2444 29.3684 53.8915 29.6359C54.5386 29.9033 55.1254 30.2981 55.617 30.7968C56.1086 31.2955 56.4949 31.8878 56.7531 32.5387C57.0113 33.1896 57.136 33.8857 57.1199 34.5858C57.0629 37.8178 54.9219 39.9098 51.6849 39.9008ZM55.1919 34.5988C55.1919 33.0888 54.9319 32.1378 54.2559 31.1678C52.9859 29.3898 50.2659 29.3898 49.1959 31.2778C47.9799 33.4198 48.0229 35.6718 49.2309 37.8268C49.8539 38.9688 50.9459 39.4048 52.2249 39.2708C52.8178 39.2289 53.3838 39.0068 53.847 38.6344C54.3103 38.2619 54.6487 37.7569 54.8169 37.1868C55.0989 36.3488 55.2249 35.4668 55.1919 34.5828V34.5988ZM56.4099 28.9448C55.6081 28.9929 54.81 28.8019 54.1169 28.3958C52.7529 27.5818 52.7249 26.2438 54.0419 25.3828C54.1849 25.2788 54.3399 25.1918 54.5029 25.1228C55.1769 24.8648 55.7879 24.7058 55.1269 23.7198C54.7089 23.0958 55.2889 22.4908 55.8949 22.1598C56.3149 21.9358 56.4779 21.7638 56.3349 21.2238C55.8099 19.2868 57.8719 17.1068 59.8439 17.5148C60.5209 17.6548 61.1439 17.8268 61.7969 17.4748C61.9629 17.4148 62.1429 17.3988 62.3169 17.4278C62.6069 17.4468 62.8419 17.5838 62.8199 17.9148C62.8221 17.9827 62.8069 18.0501 62.7758 18.1105C62.7447 18.171 62.6987 18.2225 62.6421 18.2602C62.5856 18.298 62.5204 18.3207 62.4526 18.3262C62.3849 18.3317 62.3168 18.3199 62.2549 18.2918C61.2569 17.9798 61.1729 18.4358 61.1729 19.2938C61.1729 21.1308 59.7189 22.4128 57.8599 22.4338C57.3389 22.4338 56.5839 22.1228 56.3809 22.8148C56.1629 23.5518 56.9399 23.8228 57.4389 24.1448C58.0629 24.5558 58.7679 24.8988 59.3099 25.4418C60.4179 26.5428 60.1869 27.8378 58.7739 28.4828C58.0369 28.8328 57.2249 28.9928 56.4099 28.9448ZM56.7619 28.3208C57.1785 28.2539 57.5901 28.159 57.9939 28.0368C58.7839 27.7498 58.9299 27.1418 58.3529 26.5398C57.9909 26.1658 57.5199 25.8938 57.1199 25.5508C56.4399 24.9648 55.8299 25.2078 55.2149 25.6608C54.7749 25.9718 54.3249 26.3338 54.4629 26.9388C54.6339 27.6788 55.2109 28.0308 55.9189 28.1868C56.1789 28.2468 56.4409 28.2768 56.7619 28.3308V28.3208ZM60.2179 18.8258C60.2179 18.0798 59.7679 17.8018 59.1419 18.1488C58.6715 18.4204 58.2638 18.7883 57.9455 19.2285C57.6273 19.6686 57.4055 20.171 57.2949 20.7028C57.234 20.8694 57.2253 21.0506 57.27 21.2223C57.3146 21.394 57.4105 21.548 57.5449 21.6638C57.8569 21.9288 58.2279 21.7798 58.5249 21.5888C59.5539 20.9308 59.9849 19.8918 60.2179 18.8348V18.8258ZM29.1219 12.8238C29.0975 12.9056 29.0442 12.9758 28.9719 13.0212C28.8996 13.0667 28.8132 13.0843 28.7289 13.0708H24.5869C24.3929 13.0708 24.1219 13.1048 24.0809 12.8428C24.0469 12.6278 24.2779 12.5658 24.4429 12.5308C25.3509 12.3908 25.5259 11.7608 25.5229 10.9708C25.5229 8.35679 25.5029 5.74079 25.5229 3.12579C25.5229 2.25879 25.2099 1.73479 24.3559 1.51579C24.1249 1.45979 23.7319 1.45079 23.7969 1.08879C23.8409 0.820787 24.1659 0.838787 24.3969 0.838787H28.5389C28.7729 0.838787 29.0939 0.823787 29.1439 1.08279C29.2129 1.44779 28.8319 1.46279 28.5979 1.51979C27.8679 1.69979 27.6309 2.17479 27.6379 2.88279V10.1998C27.6499 12.0278 27.6499 12.0278 29.1219 12.8228V12.8238ZM5.65792 39.8838H1.68992C1.44392 39.8838 1.08492 39.9648 1.03492 39.6158C0.984916 39.2658 1.34692 39.3288 1.55292 39.2628C2.17692 39.0788 2.36092 38.5988 2.36392 38.0398C2.37892 35.7198 2.37892 33.3978 2.36392 31.0768C2.36392 30.4248 2.07992 29.9448 1.36592 29.8288C1.17892 29.7978 0.900916 29.7918 0.965916 29.4948C1.00992 29.2988 1.23792 29.2858 1.41292 29.2858H4.93792C5.10892 29.2858 5.33692 29.2858 5.38392 29.4918C5.45492 29.8038 5.17392 29.8038 4.99092 29.8418C4.36692 30.0008 4.17992 30.4658 4.17992 31.0368V37.9998C4.17992 38.7238 4.49192 39.1198 5.21492 39.1348C6.03892 39.1538 6.86492 39.1788 7.68292 39.1168C8.94892 39.0198 9.76992 38.2768 10.2909 37.1538C10.3809 36.9608 10.4089 36.6138 10.7339 36.7268C11.0109 36.8238 10.9209 37.1318 10.8839 37.3508C10.7769 37.9748 10.6399 38.6168 10.5239 39.2538C10.4339 39.7618 10.0999 39.8998 9.63192 39.8938C8.30392 39.8778 6.98092 39.8838 5.65792 39.8838ZM25.7419 22.2458C25.7419 24.3698 26.8559 25.2498 28.6679 24.7188C30.0159 24.3288 31.2609 23.7488 32.0779 22.5358C32.2029 22.3458 32.3519 22.0808 32.6299 22.2458C32.8479 22.3738 32.7329 22.6168 32.6679 22.8068C32.3869 23.6118 32.1059 24.4168 31.8159 25.2178C31.7469 25.4058 31.6729 25.6428 31.4199 25.6328C31.1669 25.6228 31.1799 25.4088 31.1449 25.2368C31.0549 24.7758 30.7709 24.7818 30.4189 24.9248C29.7419 25.2168 29.0329 25.4258 28.3069 25.5488C25.7489 25.9328 23.9169 24.1448 24.2509 21.5848C24.6909 18.1128 27.4359 15.2088 30.7549 14.7228C31.2344 14.639 31.7258 14.6509 32.2007 14.7578C32.6756 14.8647 33.1246 15.0646 33.5219 15.3458C33.7119 15.4798 33.8939 15.7178 34.1459 15.6578C35.0629 15.4078 34.9009 15.9298 34.7419 16.4538C34.5819 16.9778 34.3829 17.5738 34.1989 18.1288C34.1519 18.2748 34.0589 18.4088 33.8869 18.4128C33.6689 18.4128 33.5999 18.2378 33.5599 18.0628C33.5265 17.9491 33.5097 17.8312 33.5099 17.7128C33.6439 15.2998 31.2049 14.8568 29.6069 15.8698C28.4536 16.6437 27.5096 17.6908 26.8589 18.9178C26.2459 19.9313 25.8645 21.0677 25.7419 22.2458ZM34.3099 22.7938C34.4979 20.7248 35.1719 18.8938 37.0679 17.7768C38.9649 16.6608 40.4999 17.5398 40.5619 19.7238C40.6089 21.7918 39.7199 23.4678 38.1289 24.7678C37.3299 25.4198 36.3909 25.7038 35.4149 25.2148C34.4389 24.7248 34.2719 23.8048 34.3099 22.7938ZM35.2459 23.3708C35.2839 23.9608 35.1929 24.4068 35.6429 24.6558C36.0919 24.9058 36.4909 24.6338 36.8689 24.4098C37.0214 24.3247 37.1619 24.2198 37.2869 24.0978C38.5913 22.8047 39.4489 21.1291 39.7349 19.3148C39.8069 18.8718 39.7599 18.3788 39.3449 18.1268C38.9309 17.8738 38.4099 18.0148 38.0379 18.3298C36.5243 19.6126 35.5335 21.4057 35.2529 23.3698L35.2459 23.3708Z" fill="#E13023"/>
<path d="M67.2019 17.5819C67.7259 17.5819 68.2039 17.6539 68.4499 18.1879C68.6959 18.7209 68.5599 19.2769 68.1909 19.7479C67.8189 20.2089 67.3209 20.5519 66.7559 20.7339C66.0639 20.9679 65.3589 21.1829 64.6469 21.3579C63.4769 21.6509 63.0599 22.1309 63.0369 23.2949C63.0219 24.1219 63.4559 24.5429 64.2859 24.5119C65.0119 24.4809 65.5329 24.0819 66.0509 23.6129C66.1759 23.4949 66.3289 23.3359 66.5039 23.4829C66.6779 23.6289 66.5379 23.7939 66.4249 23.9379C65.5929 24.8739 64.5969 25.4979 63.2809 25.4199C62.8932 25.4053 62.5234 25.2532 62.2376 24.9908C61.9517 24.7285 61.7686 24.373 61.7209 23.9879C61.3029 21.4539 64.6129 17.5669 67.2019 17.5819ZM67.3649 18.9919C67.4269 18.3689 67.0519 18.0569 66.4289 18.3059C65.4619 18.6929 64.8689 19.4919 64.3009 20.3249C64.0509 20.7049 64.3009 20.7929 64.6379 20.7209C65.4198 20.5939 66.1648 20.2992 66.8219 19.8569C66.9715 19.7629 67.098 19.6365 67.192 19.4869C67.286 19.3373 67.3451 19.1675 67.3649 18.9919ZM53.2549 23.4219C52.8469 24.8629 50.5319 25.9179 49.3059 25.2249C49.0066 25.0618 48.7619 24.8142 48.6022 24.513C48.4425 24.2118 48.375 23.8702 48.4079 23.5309C48.4579 21.2569 50.8749 18.2269 53.1059 17.6629C54.0759 17.4099 54.9159 17.6279 55.1559 18.1899C55.4669 18.9229 55.0859 19.8309 54.2189 20.3329C53.2659 20.8588 52.23 21.2176 51.1559 21.3939C50.1079 21.5939 49.4589 22.9139 49.8829 23.9089C50.1489 24.5319 50.9749 24.7129 51.7989 24.3109C52.0539 24.1669 52.3009 24.0069 52.5389 23.8339C52.7409 23.6959 52.8619 23.4129 53.2549 23.4219ZM51.3839 20.7229C52.2849 20.4769 53.2549 20.3299 53.8979 19.4749C54.1349 19.1629 54.2629 18.7609 53.9949 18.4149C53.7269 18.0679 53.3459 18.1959 53.0249 18.3519C52.1549 18.7759 51.5649 19.5159 51.0279 20.2859C50.7759 20.6229 50.9809 20.7609 51.3679 20.7229H51.3839ZM45.7059 24.1399C46.3579 24.0519 46.4639 23.4469 46.9529 23.3999C46.8879 24.1919 45.4869 25.5549 44.7919 25.4559C44.0959 25.3559 44.1829 24.8319 44.3859 24.3859C45.0629 22.8259 45.7619 21.2659 46.4609 19.7279C47.0009 18.5239 47.5489 17.3259 48.0949 16.1249C48.2509 15.7819 48.3909 15.4549 47.8739 15.2889C47.7339 15.2459 47.5769 15.1589 47.6679 14.9769C47.7079 14.8899 47.8459 14.8529 47.9419 14.7969C47.9691 14.7875 47.9987 14.7875 48.0259 14.7969C48.5689 14.8649 49.2459 14.4029 49.6139 14.8589C49.9819 15.3139 49.4429 15.8409 49.2399 16.3029C48.0859 18.8829 46.9069 21.4639 45.7059 24.1399ZM43.8799 15.0729C44.4127 14.7378 45.0524 14.6164 45.6709 14.7329C46.2949 14.7889 46.0049 15.3069 45.8649 15.6279C45.1069 17.3469 44.3239 19.0579 43.5499 20.7619C43.0479 21.8749 42.5519 22.9919 42.0179 24.1919C42.6419 24.1519 42.7639 23.5219 43.2409 23.4529C43.1879 24.2329 41.7659 25.5989 41.0829 25.4749C40.3989 25.3499 40.4959 24.8509 40.7019 24.3829C41.4379 22.7199 42.1819 21.0559 42.9319 19.3929C43.3789 18.4029 43.8339 17.4179 44.2889 16.4329C44.5389 15.8899 44.8529 15.3469 43.8799 15.0729ZM58.6269 3.11793C58.3769 3.01793 58.2489 2.96193 58.1179 2.91193C57.5509 2.69993 57.2539 2.30393 57.3819 1.69293C57.4251 1.45897 57.5508 1.24826 57.7361 1.09908C57.9215 0.949902 58.1541 0.872142 58.3919 0.879925C58.6581 0.851262 58.9256 0.91965 59.1453 1.07251C59.3651 1.22537 59.5222 1.45243 59.5879 1.71193C59.6975 2.13857 59.6582 2.58982 59.4765 2.9911C59.2949 3.39239 58.9818 3.71969 58.5889 3.91893C58.3489 4.02492 58.0149 4.19693 57.8619 3.95893C57.6349 3.60393 58.1149 3.61693 58.2649 3.45193C58.3399 3.36392 58.4329 3.29593 58.6269 3.11793Z" fill="#E13023"/>
</g>
<defs>
<clipPath id="clip0_4_11935">
<rect width="69" height="47" fill="white"/>
</clipPath>
</defs>
</svg>
