<svg width="24" height="23" viewBox="0 0 24 23" fill="none" xmlns="http://www.w3.org/2000/svg">
<path d="M0 22.7789C0.272067 22.3729 0.67813 22.2368 0.949174 22.1018C2.84648 21.1527 4.74582 20.0675 6.64312 19.1193C7.59229 18.7133 8.40645 18.1702 9.35562 17.7621C9.22061 17.8971 9.08355 17.7621 8.94956 17.7621C6.78019 17.7621 4.47478 17.7621 2.3054 17.7621C2.03436 17.7621 1.76332 17.8971 1.76332 17.491C3.38958 17.491 5.15188 17.491 6.78018 17.491C7.72935 17.491 8.67749 17.491 9.6287 17.491C9.89975 17.491 10.0348 17.491 10.1708 17.22C10.5768 15.7287 11.12 14.2364 11.5281 12.7452C11.7991 11.66 12.2052 10.7108 12.4762 9.62767C13.4254 6.64517 14.3735 3.66167 15.3247 0.814175C15.3247 0.679165 15.4597 0.408115 15.4597 0.271059C15.4597 0.136048 15.5937 0 15.8658 0C15.8658 0 15.8658 0 15.9998 0C18.7112 0 21.2887 0 24.0002 0C23.7291 0.814154 23.4571 1.62626 23.186 2.3054C21.1516 8.94853 18.9833 15.4567 16.9489 22.1018C16.9489 22.2368 16.9489 22.2368 16.8139 22.3729C16.8139 22.5079 16.6789 22.645 16.5429 22.645C16.4058 22.645 16.2718 22.645 16.1368 22.645C11.12 22.645 6.10308 22.645 0.951203 22.645C0.541057 22.7789 0.270021 22.7789 0 22.7789Z" fill="#E64647"/>
</svg>
