<svg width="56" height="56" viewBox="0 0 56 56" fill="none" xmlns="http://www.w3.org/2000/svg">
<g clip-path="url(#clip0_4_16009)">
<g clip-path="url(#clip1_4_16009)">
<g clip-path="url(#clip2_4_16009)">
<path d="M0 9.33333C0 4.17867 4.17867 0 9.33333 0H46.6667C51.8214 0 56 4.17867 56 9.33333V46.6667C56 51.8214 51.8214 56 46.6667 56H9.33333C4.17867 56 0 51.8214 0 46.6667V9.33333Z" fill="#E60022"/>
<mask id="mask0_4_16009" style="mask-type:luminance" maskUnits="userSpaceOnUse" x="10" y="10" width="36" height="36">
<path d="M45.5 10.5H10.5V45.5H45.5V10.5Z" fill="white"/>
</mask>
<g mask="url(#mask0_4_16009)">
<path d="M10.5 28.0002C10.5 35.1663 14.8091 41.3224 20.9753 44.0291C20.926 42.8071 20.9665 41.34 21.2799 40.0105C21.6164 38.5898 23.5317 30.4746 23.5317 30.4746C23.5317 30.4746 22.9726 29.3572 22.9726 27.7058C22.9726 25.1124 24.4756 23.1755 26.3476 23.1755C27.9394 23.1755 28.7085 24.3711 28.7085 25.8028C28.7085 27.4029 27.6879 29.7964 27.163 32.0133C26.7246 33.8697 28.0938 35.3839 29.9251 35.3839C33.2408 35.3839 35.474 31.1253 35.474 26.0796C35.474 22.244 32.8907 19.3732 28.192 19.3732C22.8836 19.3732 19.5764 23.332 19.5764 27.7541C19.5764 29.2788 20.0261 30.3539 20.7301 31.1865C21.0539 31.569 21.0988 31.7227 20.9817 32.1618C20.8977 32.4839 20.7049 33.259 20.6251 33.5663C20.5086 34.0095 20.1495 34.1679 19.7489 34.0042C17.3038 33.006 16.1651 30.3284 16.1651 27.3184C16.1651 22.3473 20.3577 16.3863 28.6723 16.3863C35.3538 16.3863 39.7514 21.2212 39.7514 26.4112C39.7514 33.2763 35.9347 38.405 30.3087 38.405C28.4194 38.405 26.6422 37.3837 26.0335 36.2236C26.0335 36.2236 25.0175 40.2557 24.8023 41.0343C24.4313 42.3836 23.705 43.7323 23.041 44.7833C24.6148 45.2479 26.2775 45.5009 28.0007 45.5009C37.6646 45.5009 45.5001 37.6657 45.5001 28.0002C45.5001 18.3352 37.6646 10.5 28.0007 10.5C18.3359 10.5 10.5 18.3352 10.5 28.0002Z" fill="white"/>
</g>
</g>
</g>
</g>
<defs>
<clipPath id="clip0_4_16009">
<rect width="56" height="56" rx="10" fill="white"/>
</clipPath>
<clipPath id="clip1_4_16009">
<rect width="56" height="56" fill="white"/>
</clipPath>
<clipPath id="clip2_4_16009">
<rect width="56" height="56" fill="white"/>
</clipPath>
</defs>
</svg>
