<svg width="130" height="89" viewBox="0 0 130 89" fill="none" xmlns="http://www.w3.org/2000/svg">
<path d="M64.9998 79.5516C84.5265 79.5516 100.356 63.7221 100.356 44.1954C100.356 24.6686 84.5265 8.83911 64.9998 8.83911C45.4731 8.83911 29.6436 24.6686 29.6436 44.1954C29.6436 63.7221 45.4731 79.5516 64.9998 79.5516Z" fill="#E6EEFF"/>
<g filter="url(#filter0_dd_4_10915)">
<path d="M77.6219 37.1241H26.1079C24.1553 37.1241 22.5723 38.7071 22.5723 40.6598V67.177C22.5723 69.1296 24.1553 70.7126 26.1079 70.7126H77.6219C79.5746 70.7126 81.1576 69.1296 81.1576 67.177V40.6598C81.1576 38.7071 79.5746 37.1241 77.6219 37.1241Z" fill="white"/>
<path d="M60.4038 41.1362H59.3873C58.8991 41.1362 58.5034 41.532 58.5034 42.0201V42.7891C58.5034 43.2772 58.8991 43.673 59.3873 43.673H60.4038C60.892 43.673 61.2877 43.2772 61.2877 42.7891V42.0201C61.2877 41.532 60.892 41.1362 60.4038 41.1362Z" fill="#E7EEFF"/>
<path d="M62.4633 41.0327H67.749C67.9789 41.0327 68.1645 41.2183 68.1645 41.4481C68.1645 41.678 67.9789 41.8636 67.749 41.8636H62.4633C62.2335 41.8636 62.0479 41.678 62.0479 41.4481C62.0479 41.2183 62.2335 41.0327 62.4633 41.0327Z" fill="#E7EEFF"/>
<path d="M62.4633 42.7039H75.2711C75.5009 42.7039 75.6865 42.8895 75.6865 43.1193C75.6865 43.3491 75.5009 43.5347 75.2711 43.5347H62.4633C62.2335 43.5347 62.0479 43.3491 62.0479 43.1193C62.0479 42.8895 62.2335 42.7039 62.4633 42.7039Z" fill="#E7EEFF"/>
<path d="M60.4038 48.6495H59.3873C58.8991 48.6495 58.5034 49.0453 58.5034 49.5334V50.3024C58.5034 50.7905 58.8991 51.1863 59.3873 51.1863H60.4038C60.892 51.1863 61.2877 50.7905 61.2877 50.3024V49.5334C61.2877 49.0453 60.892 48.6495 60.4038 48.6495Z" fill="#9D97F4"/>
<path d="M62.4633 48.5459H67.749C67.9789 48.5459 68.1645 48.7315 68.1645 48.9613C68.1645 49.1911 67.9789 49.3768 67.749 49.3768H62.4633C62.2335 49.3768 62.0479 49.1911 62.0479 48.9613C62.0479 48.7315 62.2335 48.5459 62.4633 48.5459Z" fill="#E7EEFF"/>
<path d="M62.4633 50.217H75.2711C75.5009 50.217 75.6865 50.4027 75.6865 50.6325C75.6865 50.8623 75.5009 51.0479 75.2711 51.0479H62.4633C62.2335 51.0479 62.0479 50.8623 62.0479 50.6325C62.0479 50.4027 62.2335 50.217 62.4633 50.217Z" fill="#E7EEFF"/>
<path d="M60.4038 56.1696H59.3873C58.8991 56.1696 58.5034 56.5653 58.5034 57.0535V57.8225C58.5034 58.3106 58.8991 58.7064 59.3873 58.7064H60.4038C60.892 58.7064 61.2877 58.3106 61.2877 57.8225V57.0535C61.2877 56.5653 60.892 56.1696 60.4038 56.1696Z" fill="#76A5FF"/>
<path d="M62.4633 56.066H67.749C67.9789 56.066 68.1645 56.2517 68.1645 56.4815C68.1645 56.7113 67.9789 56.8969 67.749 56.8969H62.4633C62.2335 56.8969 62.0479 56.7113 62.0479 56.4815C62.0479 56.2517 62.2335 56.066 62.4633 56.066Z" fill="#E7EEFF"/>
<path d="M75.2711 57.7371H62.4633C62.2338 57.7371 62.0479 57.923 62.0479 58.1525C62.0479 58.382 62.2338 58.5679 62.4633 58.5679H75.2711C75.5005 58.5679 75.6865 58.382 75.6865 58.1525C75.6865 57.923 75.5005 57.7371 75.2711 57.7371Z" fill="#E7EEFF"/>
<path d="M60.4038 63.6827H59.3873C58.8991 63.6827 58.5034 64.0785 58.5034 64.5666V65.3356C58.5034 65.8238 58.8991 66.2196 59.3873 66.2196H60.4038C60.892 66.2196 61.2877 65.8238 61.2877 65.3356V64.5666C61.2877 64.0785 60.892 63.6827 60.4038 63.6827Z" fill="#FECE4D"/>
<path d="M67.7579 63.5792H62.4633C62.2338 63.5792 62.0479 63.7652 62.0479 63.9947C62.0479 64.2241 62.2338 64.4101 62.4633 64.4101H67.7579C67.9873 64.4101 68.1733 64.2241 68.1733 63.9947C68.1733 63.7652 67.9873 63.5792 67.7579 63.5792Z" fill="#E7EEFF"/>
<path d="M75.2711 65.2502H62.4633C62.2338 65.2502 62.0479 65.4362 62.0479 65.6657C62.0479 65.8951 62.2338 66.0811 62.4633 66.0811H75.2711C75.5005 66.0811 75.6865 65.8951 75.6865 65.6657C75.6865 65.4362 75.5005 65.2502 75.2711 65.2502Z" fill="#E7EEFF"/>
</g>
<path d="M51.1577 41.0327H30.6864C29.2218 41.0327 28.0347 42.2199 28.0347 43.6844V64.1557C28.0347 65.6202 29.2218 66.8074 30.6864 66.8074H51.1577C52.6221 66.8074 53.8094 65.6202 53.8094 64.1557V43.6844C53.8094 42.2199 52.6221 41.0327 51.1577 41.0327Z" fill="#F5F8FF"/>
<path d="M41.0455 49.8782C40.9836 49.8959 40.9129 49.8959 40.8422 49.8782C40.5947 49.8252 40.4444 49.5865 40.4974 49.339L41.5581 44.2565C41.6112 44.009 41.8498 43.8499 42.0885 43.9118C42.336 43.9649 42.4862 44.2035 42.4332 44.451L41.3725 49.5335C41.3372 49.7102 41.2046 49.8428 41.0366 49.8782H41.0455Z" fill="#091B36"/>
<path d="M43.3441 44.4006C43.5297 45.1608 43.0701 45.9209 42.3276 46.1154C41.5851 46.301 40.825 45.8414 40.6393 45.0812C40.4537 44.3211 40.9134 43.5609 41.6558 43.3665C42.3983 43.1808 43.1585 43.6405 43.3441 44.4006Z" fill="#3D7FFC"/>
<path d="M44.3338 64.6399C44.1216 64.6929 43.9007 64.5869 43.8123 64.3747L41.9384 59.8845C41.8412 59.6547 41.9472 59.3807 42.177 59.2923C42.4069 59.195 42.672 59.3011 42.7604 59.5309L44.6343 64.0212C44.7315 64.251 44.6255 64.525 44.3957 64.6134C44.3691 64.6222 44.3515 64.6311 44.3249 64.6399H44.3338Z" fill="#091B36"/>
<path d="M43.1669 64.877C42.6277 64.3908 42.5659 63.5511 43.0432 63.0031C43.5205 62.4551 44.3425 62.3932 44.8906 62.8794C45.4297 63.3655 45.4828 64.2052 45.0143 64.7532C44.537 65.3013 43.715 65.3631 43.1669 64.877Z" fill="#3D7FFC"/>
<path d="M43.9717 52.6295C43.7949 52.6737 43.6093 52.6119 43.5032 52.4528C43.3618 52.2495 43.406 51.9666 43.6093 51.8252L48.5769 48.2454C48.7802 48.0951 49.063 48.1481 49.2044 48.3514C49.3459 48.5547 49.3017 48.8376 49.0984 48.979L44.1308 52.5588C44.0778 52.5942 44.0336 52.6119 43.9806 52.6295H43.9717Z" fill="#091B36"/>
<path d="M49.9643 49.7467C49.5224 50.5599 48.5147 50.8604 47.7104 50.4096C46.906 49.9588 46.6143 48.9335 47.0563 48.1203C47.4982 47.3071 48.5059 47.0066 49.3102 47.4574C50.1146 47.9082 50.4063 48.9335 49.9643 49.7467Z" fill="#3D7FFC"/>
<path d="M33.6658 62.5914C33.5421 62.6179 33.4007 62.6002 33.2946 62.5118C33.0913 62.3615 33.0559 62.0787 33.2062 61.8754L36.8479 56.9167C36.9982 56.7134 37.2722 56.678 37.4755 56.8283C37.6788 56.9785 37.7141 57.2614 37.5639 57.4647L33.9222 62.4234C33.8603 62.5118 33.7719 62.5737 33.6658 62.5914Z" fill="#091B36"/>
<path d="M32.1272 61.416C32.304 60.5056 33.1702 59.9045 34.063 60.0813C34.9646 60.2581 35.5479 61.142 35.38 62.0524C35.2032 62.9628 34.337 63.5639 33.4442 63.3871C32.5427 63.2103 31.9593 62.3264 32.1361 61.416H32.1272Z" fill="#3D7FFC"/>
<path d="M34.9117 51.6885C34.788 51.715 34.6554 51.6974 34.5493 51.6178L32.0214 49.8235C31.8181 49.6821 31.765 49.3904 31.9153 49.1959C32.0567 48.9926 32.3396 48.9396 32.534 49.081L35.062 50.8753C35.2653 51.0168 35.3183 51.3084 35.1681 51.5029C35.1062 51.6001 35.009 51.662 34.9117 51.6885Z" fill="#091B36"/>
<path d="M32.622 48.7146C33.0816 48.7942 33.391 49.2273 33.3202 49.6869C33.2495 50.1554 32.8164 50.4648 32.3568 50.3941C31.8972 50.3234 31.5878 49.8814 31.6585 49.4218C31.7292 48.9533 32.1623 48.6439 32.622 48.7146Z" fill="#3D7FFC"/>
<path d="M49.9645 55.0063C49.9645 55.0063 49.8937 55.024 49.8584 55.024H46.7735C46.5261 55.0152 46.3228 54.803 46.3228 54.5555C46.3228 54.308 46.5261 54.1047 46.7735 54.1047H49.8584C50.1059 54.1136 50.3092 54.3257 50.3092 54.5732C50.3092 54.7853 50.1677 54.9621 49.9733 55.0152L49.9645 55.0063Z" fill="#091B36"/>
<path d="M49.9907 55.3661C49.5753 55.5694 49.0715 55.3926 48.8682 54.9684C48.6649 54.5441 48.8417 54.0314 49.2571 53.837C49.6725 53.6337 50.1764 53.8105 50.3797 54.2347C50.5741 54.659 50.4062 55.1717 49.9907 55.3661Z" fill="#3D7FFC"/>
<path d="M42.9549 60.6953C46.3844 59.2192 47.9843 55.1974 46.5259 51.7148C45.0674 48.2322 41.1075 46.6147 37.678 48.0908C34.2484 49.5669 32.6485 53.5887 34.107 57.0713C35.5654 60.5539 39.5253 62.1714 42.9549 60.6953Z" fill="#3D7FFC"/>
<g opacity="0.49">
<g opacity="0.72">
<path d="M36.4227 53.2275C36.5553 53.7932 36.2105 54.3589 35.6448 54.5003C35.0791 54.6417 34.5134 54.297 34.372 53.7313C34.2306 53.1656 34.5841 52.5999 35.1498 52.4585C35.7155 52.3171 36.2812 52.6618 36.4227 53.2275Z" fill="#091B36"/>
</g>
<g opacity="0.72">
<path d="M36.4492 50.7714C36.7232 50.9393 36.8204 51.3194 36.6436 51.6022C36.4757 51.8851 36.1045 51.9735 35.8305 51.8055C35.5564 51.6376 35.4592 51.2575 35.636 50.9747C35.8039 50.6918 36.1752 50.6034 36.4492 50.7714Z" fill="#091B36"/>
</g>
<g opacity="0.72">
<path d="M36.8651 54.1886C36.6795 53.4284 37.1214 52.6594 37.8551 52.4738C38.5887 52.2882 39.3312 52.7655 39.5168 53.5257C39.7024 54.2858 39.2605 55.0548 38.5268 55.2404C37.7932 55.4261 37.0507 54.9487 36.8651 54.1886Z" fill="#091B36"/>
</g>
<g opacity="0.72">
<path d="M43.6705 49.8983C43.9003 50.8352 43.149 51.834 41.991 52.1169C40.8331 52.4086 39.7106 51.8782 39.4896 50.9413C39.2598 50.0044 40.0111 49.0055 41.169 48.7227C42.3181 48.431 43.4495 48.9614 43.6705 49.8983Z" fill="#091B36"/>
</g>
<g opacity="0.72">
<path d="M37.0855 56.9235C37.2004 57.3919 36.8645 57.8692 36.343 58.0018C35.8215 58.1344 35.3 57.8604 35.1939 57.3919C35.079 56.9235 35.4149 56.4461 35.9364 56.3136C36.4579 56.181 36.9794 56.455 37.0855 56.9235Z" fill="#091B36"/>
</g>
<g opacity="0.72">
<path d="M45.5179 56.6699C45.5798 56.9263 45.3765 57.2003 45.0671 57.2798C44.7578 57.3594 44.4572 57.2091 44.3954 56.9528C44.3335 56.6964 44.5368 56.4224 44.8462 56.3429C45.1555 56.2633 45.4561 56.4136 45.5179 56.6699Z" fill="#091B36"/>
</g>
<g opacity="0.72">
<path d="M39.119 57.9268C39.1809 58.1831 38.9776 58.4571 38.6682 58.5367C38.3588 58.6162 38.0583 58.4659 37.9964 58.2096C37.9346 57.9533 38.1379 57.6793 38.4472 57.5997C38.7566 57.5202 39.0571 57.6704 39.119 57.9268Z" fill="#091B36"/>
</g>
</g>
<g filter="url(#filter1_dd_4_10915)">
<path d="M100.745 16.7943H48.5948C46.154 16.7943 44.1753 18.773 44.1753 21.2138V39.7759C44.1753 42.2167 46.154 44.1954 48.5948 44.1954H100.745C103.186 44.1954 105.164 42.2167 105.164 39.7759V21.2138C105.164 18.773 103.186 16.7943 100.745 16.7943Z" fill="white"/>
</g>
<path d="M54.5878 20.9752C54.5613 20.9133 54.5348 20.8515 54.5082 20.7896C54.3226 20.4272 54.0575 20.109 53.7127 19.8792C53.3592 19.6493 52.9879 19.5344 52.6078 19.5256C51.9449 19.5079 51.2908 19.8261 50.8489 20.4095C50.4334 19.8084 49.7882 19.4637 49.1253 19.446C48.7452 19.446 48.3563 19.5344 48.0027 19.7554C47.0834 20.3211 46.6592 21.4879 46.9155 22.5662C46.9597 22.7519 47.0216 22.9375 47.1188 23.1231C47.4547 23.786 48.533 24.8025 49.4258 25.5627C49.4788 25.6069 49.5319 25.6511 49.576 25.6953C49.7882 25.872 49.9826 26.04 50.1506 26.1726C50.2655 26.2698 50.3627 26.3494 50.4511 26.4201C50.5307 26.4819 50.6279 26.5173 50.7251 26.5173C50.8224 26.5173 50.9196 26.4908 51.008 26.4289C51.1052 26.3582 51.2201 26.2698 51.3527 26.1726C51.8565 25.7925 52.5813 25.2268 53.2177 24.6611C53.7481 24.1838 54.2077 23.6976 54.4375 23.3264C54.4464 23.3087 54.4552 23.2999 54.464 23.2822C54.5878 23.0612 54.6762 22.8137 54.7292 22.5751C54.8441 22.0359 54.7999 21.479 54.5966 20.984L54.5878 20.9752Z" fill="#76A5FF"/>
<path d="M88.2735 40.5879C88.1409 40.5879 88.026 40.4907 87.9995 40.3581L86.3201 30.5733L85.719 33.0925C85.6925 33.2163 85.5864 33.3046 85.4627 33.3046L82.6872 33.3842C82.5635 33.3842 82.4574 33.3046 82.4221 33.1809L81.9713 31.5279L80.7957 36.3187C80.7603 36.4424 80.6542 36.5308 80.5217 36.5308C80.3891 36.5308 80.2918 36.4247 80.2653 36.2922L78.7008 26.0654L77.755 40.641C77.7462 40.7824 77.6313 40.8885 77.4987 40.8973C77.3661 40.9061 77.2424 40.8089 77.2158 40.6675L75.5364 30.8827L74.9354 33.4019C74.9089 33.5256 74.8028 33.6052 74.679 33.614L71.8771 33.6936C71.7533 33.6936 71.6472 33.6139 71.6119 33.4902L71.1611 31.8374L69.9855 36.6281C69.9501 36.7519 69.8441 36.8403 69.7115 36.8403C69.5789 36.8403 69.4817 36.7341 69.4551 36.6015L67.8906 26.3747L66.9449 40.9504C66.936 41.0919 66.8211 41.1978 66.6885 41.2067C66.5559 41.2067 66.441 41.1094 66.4145 40.9769L64.7351 31.1921L64.134 33.7112C64.1075 33.8349 64.0014 33.9233 63.8777 33.9233L61.0757 34.0028C60.952 34.0028 60.8459 33.9233 60.8105 33.7995L60.3598 32.1467L59.1842 36.9375C59.1488 37.0612 59.0427 37.1496 58.9101 37.1496C58.7776 37.1496 58.6803 37.0435 58.6538 36.9109L57.0893 26.6842L56.1435 41.2597C56.1347 41.4011 56.0286 41.5073 55.8872 41.5161C55.7546 41.5161 55.6397 41.4188 55.6132 41.2862L53.9338 31.5014L53.3327 34.0205C53.3062 34.1443 53.2001 34.2238 53.0764 34.2327L47.1012 34.4095C46.9509 34.4095 46.8271 34.2945 46.8271 34.1443C46.8271 33.994 46.9421 33.8614 47.0923 33.8614L52.8642 33.6936L53.7216 30.0872C53.7481 29.9635 53.863 29.875 53.9956 29.875C54.1282 29.875 54.2343 29.9722 54.252 30.1048L55.7634 38.9262L56.7269 24.165C56.7357 24.0235 56.8506 23.9175 56.9832 23.9086C57.1158 23.9086 57.2396 24.0059 57.2661 24.1473L59.0074 35.4878L60.1034 31.0064C60.1299 30.8827 60.236 30.8031 60.3598 30.7943C60.4835 30.7943 60.5896 30.8738 60.6249 30.9976L61.2967 33.446L63.6832 33.3753L64.5406 29.769C64.5671 29.6453 64.6821 29.5569 64.8146 29.5569C64.9472 29.5569 65.0533 29.6541 65.071 29.7867L66.5825 38.608L67.5459 23.8468C67.5548 23.7053 67.6608 23.5993 67.8022 23.5904C67.9437 23.5904 68.0586 23.6877 68.0851 23.8291L69.8264 35.1697L70.9224 30.6882C70.949 30.5644 71.0639 30.4849 71.1788 30.4761C71.3025 30.4761 71.4086 30.5556 71.4439 30.6794L72.1157 33.1278L74.4934 33.0571L75.3508 29.4507C75.3773 29.327 75.4922 29.2386 75.6248 29.2386C75.7574 29.2386 75.8635 29.3358 75.8811 29.4684L77.3926 38.2898L78.3472 23.5286C78.3561 23.3871 78.471 23.2811 78.6036 23.2722C78.745 23.2722 78.8599 23.3695 78.8864 23.511L80.6277 34.8515L81.7238 30.3701C81.7503 30.2463 81.8652 30.1668 81.9801 30.1579C82.1039 30.1579 82.2099 30.2375 82.2453 30.3612L82.917 32.8097L85.2682 32.7389L86.1256 29.1325C86.1521 29.0088 86.267 28.9204 86.3996 28.9204C86.5322 28.9204 86.6383 29.0176 86.656 29.1502L88.1674 37.9716L89.1309 23.2103C89.1397 23.0689 89.2547 22.9629 89.3872 22.9541C89.5287 22.9541 89.6436 23.0512 89.6701 23.1927L91.4114 34.5332L92.5074 30.0518C92.5339 29.928 92.64 29.8485 92.7638 29.8396C92.8875 29.8396 92.9936 29.9192 93.0289 30.0429L93.7007 32.4914L99.6137 32.3146C99.7639 32.3146 99.8877 32.4296 99.8877 32.5798C99.8877 32.7301 99.7728 32.8627 99.6225 32.8627L93.4974 33.0394C93.3737 33.0394 93.2676 32.9598 93.2322 32.8361L92.7814 31.1833L91.6058 35.974C91.5705 36.0978 91.4644 36.1862 91.3318 36.1862C91.1992 36.1862 91.102 36.08 91.0755 35.9474L89.511 25.7207L88.5652 40.2963C88.5564 40.4377 88.4415 40.5437 88.3089 40.5526H88.3L88.2735 40.5879Z" fill="#9FC0FF"/>
<path fill-rule="evenodd" clip-rule="evenodd" d="M106.862 23.3529C104.767 26.8797 100.922 29.2662 99.4194 30.0529V11.4908L106.553 13.8067C106.782 13.8774 106.933 14.0807 106.933 14.3105V23.0965C106.933 23.1938 106.906 23.2733 106.862 23.3617V23.3529Z" fill="white"/>
<path fill-rule="evenodd" clip-rule="evenodd" d="M91.9857 23.3529C94.0894 26.8797 97.9254 29.2662 99.4281 30.0529V11.4908L92.2951 13.8067C92.0653 13.8774 91.915 14.0807 91.915 14.3105V23.0965C91.915 23.1938 91.9416 23.2733 91.9857 23.3617V23.3529Z" fill="white"/>
<path fill-rule="evenodd" clip-rule="evenodd" d="M99.4193 12.7892L93.5856 14.6807C93.3557 14.7514 93.2056 14.9547 93.2056 15.1845V22.7596C93.2056 22.8656 93.2321 22.9453 93.2851 23.0337C94.6817 25.2169 97.0769 27.2852 99.4104 28.6288V12.7892H99.4193Z" fill="#3D7FFC"/>
<path fill-rule="evenodd" clip-rule="evenodd" d="M105.633 22.7596V15.1845C105.633 14.9547 105.483 14.7514 105.253 14.6807L99.4194 12.7892V28.6288C101.753 27.2852 104.157 25.2169 105.545 23.0337C105.598 22.9453 105.624 22.8568 105.624 22.7596H105.633Z" fill="#3D7FFC"/>
<path fill-rule="evenodd" clip-rule="evenodd" d="M98.3763 16.1313H100.471C100.577 16.1313 100.666 16.2109 100.666 16.317V18.5621C100.666 18.6593 100.754 18.7477 100.86 18.7477H103.247C103.353 18.7477 103.441 18.8273 103.441 18.9333V20.9133C103.441 21.0105 103.353 21.0989 103.247 21.0989H100.86C100.754 21.0989 100.666 21.1785 100.666 21.2845V23.5296C100.666 23.6269 100.586 23.7064 100.471 23.7064H98.3763C98.2702 23.7064 98.1819 23.6269 98.1819 23.5296V21.2845C98.1819 21.1873 98.0935 21.0989 97.9874 21.0989H95.6012C95.4951 21.0989 95.4067 21.0193 95.4067 20.9133V18.9333C95.4067 18.8273 95.4951 18.7477 95.6012 18.7477H97.9874C98.0935 18.7477 98.1819 18.6682 98.1819 18.5621V16.317C98.1819 16.2197 98.2702 16.1313 98.3763 16.1313Z" fill="white"/>
<path d="M91.3315 71.7422V69.9214C93.8242 69.9214 96.1135 68.6662 97.4393 66.5625L101.673 59.9244C103.158 57.5732 102.451 54.453 100.091 52.9592L93.338 48.7165L94.3191 47.1785L101.072 51.4212C104.29 53.4454 105.253 57.6881 103.229 60.8879L98.995 67.526C97.3244 70.16 94.4606 71.7334 91.3315 71.7334V71.7422Z" fill="#091B36"/>
<path d="M80.4155 68.4141L84.8439 70.0847L85.003 69.6692L80.5746 67.9987L80.4155 68.4141Z" fill="#091B36"/>
<path d="M82.2367 69.1565L82.2543 69.1035L85.843 70.4824C86.117 70.5885 86.4175 70.3852 86.4175 70.0935C86.4175 69.8637 86.6032 69.678 86.8418 69.678H91.3497V74.0004H86.4264V73.7263C86.4264 73.2048 86.1082 72.7452 85.622 72.5596L83.3857 71.7022C82.3693 71.3133 81.8654 70.173 82.2543 69.1654L82.2367 69.1565Z" fill="#3D7FFC"/>
<path d="M96.4502 45.1464L98.2799 42.0881L94.8678 40.0728L93.0381 43.1311L96.4502 45.1464Z" fill="#091B36"/>
<path d="M85.0471 63.9915L86.8768 60.9332L83.4649 58.9178L81.6353 61.9762L85.0471 63.9915Z" fill="#091B36"/>
<path d="M97.5542 41.962L98.2171 40.8482C98.5884 40.2295 98.3851 39.4428 97.7575 39.0716C97.1388 38.7092 96.3433 38.9125 95.972 39.5224L95.3091 40.6361L97.5454 41.9531L97.5542 41.962Z" fill="#091B36"/>
<path d="M97.8554 44.9119L87.0714 62.9701C86.8504 63.3413 86.3643 63.4651 85.993 63.2441L81.936 60.8487C81.5648 60.6278 81.4409 60.1504 81.6619 59.7792L92.4456 41.721C92.7285 41.2525 93.3295 41.1023 93.8068 41.3763L97.5195 43.5684C97.988 43.8424 98.1471 44.4523 97.8643 44.9207L97.8554 44.9119Z" fill="#3D7FFC"/>
<path d="M87.8579 71.8375C87.8579 72.3943 88.3087 72.8451 88.8744 72.8451C89.4401 72.8451 89.8909 72.3943 89.8909 71.8375C89.8909 71.2806 89.4401 70.8298 88.8744 70.8298C88.3087 70.8298 87.8579 71.2806 87.8579 71.8375Z" fill="#C6DBFF"/>
<path d="M97.0863 76.0167H80.6631V75.3273C80.6631 74.5936 81.2641 73.9926 81.9978 73.9926H95.7425C96.4853 73.9926 97.0775 74.5848 97.0775 75.3273V76.0167H97.0863Z" fill="#091B36"/>
<defs>
<filter id="filter0_dd_4_10915" x="11.9654" y="28.2851" width="79.7992" height="54.8021" filterUnits="userSpaceOnUse" color-interpolation-filters="sRGB">
<feFlood flood-opacity="0" result="BackgroundImageFix"/>
<feColorMatrix in="SourceAlpha" type="matrix" values="0 0 0 0 0 0 0 0 0 0 0 0 0 0 0 0 0 0 127 0" result="hardAlpha"/>
<feOffset dy="3.53562"/>
<feGaussianBlur stdDeviation="4.41953"/>
<feColorMatrix type="matrix" values="0 0 0 0 0.607843 0 0 0 0 0.67451 0 0 0 0 0.737255 0 0 0 0.35 0"/>
<feBlend mode="normal" in2="BackgroundImageFix" result="effect1_dropShadow_4_10915"/>
<feColorMatrix in="SourceAlpha" type="matrix" values="0 0 0 0 0 0 0 0 0 0 0 0 0 0 0 0 0 0 127 0" result="hardAlpha"/>
<feOffset dy="1.76781"/>
<feGaussianBlur stdDeviation="5.30344"/>
<feColorMatrix type="matrix" values="0 0 0 0 0.89625 0 0 0 0 0.930414 0 0 0 0 0.995833 0 0 0 0.5 0"/>
<feBlend mode="normal" in2="effect1_dropShadow_4_10915" result="effect2_dropShadow_4_10915"/>
<feBlend mode="normal" in="SourceGraphic" in2="effect2_dropShadow_4_10915" result="shape"/>
</filter>
<filter id="filter1_dd_4_10915" x="33.5684" y="7.95525" width="82.203" height="48.6149" filterUnits="userSpaceOnUse" color-interpolation-filters="sRGB">
<feFlood flood-opacity="0" result="BackgroundImageFix"/>
<feColorMatrix in="SourceAlpha" type="matrix" values="0 0 0 0 0 0 0 0 0 0 0 0 0 0 0 0 0 0 127 0" result="hardAlpha"/>
<feOffset dy="3.53562"/>
<feGaussianBlur stdDeviation="4.41953"/>
<feColorMatrix type="matrix" values="0 0 0 0 0.607843 0 0 0 0 0.67451 0 0 0 0 0.737255 0 0 0 0.35 0"/>
<feBlend mode="normal" in2="BackgroundImageFix" result="effect1_dropShadow_4_10915"/>
<feColorMatrix in="SourceAlpha" type="matrix" values="0 0 0 0 0 0 0 0 0 0 0 0 0 0 0 0 0 0 127 0" result="hardAlpha"/>
<feOffset dy="1.76781"/>
<feGaussianBlur stdDeviation="5.30344"/>
<feColorMatrix type="matrix" values="0 0 0 0 0.89625 0 0 0 0 0.930414 0 0 0 0 0.995833 0 0 0 0.5 0"/>
<feBlend mode="normal" in2="effect1_dropShadow_4_10915" result="effect2_dropShadow_4_10915"/>
<feBlend mode="normal" in="SourceGraphic" in2="effect2_dropShadow_4_10915" result="shape"/>
</filter>
</defs>
</svg>
