<svg width="85" height="41" viewBox="0 0 85 41" fill="none" xmlns="http://www.w3.org/2000/svg">
<path d="M0.0354889 0C0.167801 0 0.433432 0 0.567748 0C28.4725 0 56.5085 0 84.4132 0C84.5455 0 84.8111 0 84.9455 0C85.0778 0.131309 84.9455 0.265624 84.8132 0.53125C82.9538 3.72076 80.8268 6.77595 78.5684 9.69884C77.2393 11.4269 75.7779 13.2863 74.3164 14.8821C73.5186 15.6799 72.854 16.4758 72.0571 17.407C70.9936 18.4705 70.0634 19.533 69.0019 20.5965C67.1415 22.4559 65.1489 24.183 63.1552 25.911C59.0365 29.4985 54.6511 32.8213 50.0002 35.8765C47.7408 37.3379 45.3492 38.7994 42.9586 40.1295C42.6919 40.2608 42.4263 40.2608 42.1607 40.1295C40.8306 39.465 39.5034 38.6671 38.1733 37.8702C33.5224 35.0786 29.138 32.0234 25.0193 28.5683C23.2912 27.1069 21.5642 25.6454 19.8361 24.183C17.5768 22.1903 15.4518 20.0643 13.3258 17.8049C9.60503 13.9519 6.2842 9.83316 3.227 5.31452C2.16349 3.85308 1.23331 2.25934 0.303118 0.663581C0.169804 0.265643 -0.0958203 0.265626 0.0354889 0Z" fill="#0E2E46"/>
</svg>
