<svg width="116" height="46" viewBox="0 0 116 46" fill="none" xmlns="http://www.w3.org/2000/svg">
<path d="M113.997 45.4238C113.864 45.4238 113.596 45.4238 113.462 45.4238C112.659 45.4238 111.724 45.4238 110.923 45.4238C110.79 45.4238 110.523 45.4238 110.388 45.4238C110.255 45.2908 110.255 45.0237 110.388 44.8887C110.923 41.6828 111.323 38.476 111.724 35.2692C111.857 33.3997 111.992 31.5282 111.992 29.6587C112.125 27.3871 112.125 24.9825 111.992 22.7109C111.992 20.0392 111.724 17.3675 111.592 14.6958C111.324 11.2219 110.79 7.74801 110.255 4.2741C110.123 3.60693 110.123 3.60695 109.452 3.60695C109.32 3.60695 109.185 3.60695 109.052 3.60695C75.1185 3.60695 41.0507 3.60695 7.11687 3.60695C5.91455 3.60695 6.04759 3.47392 5.77951 4.67623C5.11234 8.15014 4.71021 11.7561 4.44314 15.23C4.17607 17.7696 4.04307 20.4413 4.04307 22.978C4.04307 23.9132 3.91002 24.8485 3.91002 25.9177C4.04305 28.5894 4.04306 31.1281 4.31012 33.7998C4.44315 35.8043 4.71023 37.8088 4.84527 39.8124C4.84527 39.9454 4.9773 40.2125 4.84527 40.3475C4.71224 40.4815 4.57719 40.4805 4.44517 40.4805C3.50993 40.4805 2.44065 40.4805 1.50541 40.4805C1.37339 40.4805 1.23834 40.4805 1.10531 40.3475C0.83824 39.8124 0.838226 39.2782 0.838226 38.61C0.571157 35.9384 0.303094 33.3997 0.171071 30.728C0.171071 28.7235 -0.0970243 26.7199 0.0380216 24.5824C0.171052 22.3108 0.171067 20.0412 0.305105 17.9017C0.572173 14.0276 0.972265 10.1537 1.50741 6.27864C1.77448 4.27411 2.17458 2.40463 2.5767 0.400102C2.70973 0.400102 2.70974 0.13303 2.84378 0C39.5833 0 76.3239 0 113.063 0C113.195 0.13303 113.195 0.267074 113.33 0.535151C114.133 4.27612 114.667 8.0171 115.2 11.7561C115.467 14.2957 115.735 16.8324 115.867 19.5041C116 22.7109 116 25.9177 116 29.1236C115.867 34.3349 115.333 39.6783 114.398 44.8887C114.264 45.0237 114.264 45.2908 113.997 45.4238Z" fill="#0E2E46"/>
</svg>
