<svg width="18" height="18" viewBox="0 0 18 18" fill="none" xmlns="http://www.w3.org/2000/svg">
<path d="M11.1245 12.1142C10.08 12.9442 8.75798 13.44 7.3202 13.44C3.94021 13.44 1.2002 10.7 1.2002 7.32C1.2002 3.94001 3.94021 1.2 7.3202 1.2C10.7002 1.2 13.4402 3.94001 13.4402 7.32C13.4402 8.75778 12.9444 10.0798 12.1144 11.1243L15.3952 14.405C15.6685 14.6784 15.6685 15.1216 15.3952 15.395C15.1218 15.6683 14.6786 15.6683 14.4052 15.395L11.1245 12.1142ZM7.3202 12C9.90489 12 12.0002 9.90469 12.0002 7.32C12.0002 4.73531 9.90489 2.64 7.3202 2.64C4.7355 2.64 2.6402 4.73531 2.6402 7.32C2.6402 9.90469 4.7355 12 7.3202 12Z" fill="#75777A"/>
</svg>
