<svg width="18" height="18" viewBox="0 0 18 18" fill="none" xmlns="http://www.w3.org/2000/svg">
<path fill-rule="evenodd" clip-rule="evenodd" d="M8.2125 6.40129C8.1086 6.29879 8.02699 6.17594 7.97278 6.04043C7.91858 5.90492 7.89295 5.75967 7.8975 5.61379C7.8975 5.29879 7.99875 5.02879 8.2125 4.82629C8.42625 4.62379 8.685 4.51129 9 4.51129C9.315 4.51129 9.585 4.61254 9.7875 4.82629C9.99 5.04004 10.1025 5.29879 10.1025 5.61379C10.1025 5.92879 10.0012 6.19879 9.7875 6.40129C9.57979 6.61326 9.29674 6.73456 9 6.73879C8.685 6.73879 8.415 6.61504 8.2125 6.40129ZM10.125 8.98879C10.1025 8.70754 10.0013 8.44879 9.77625 8.21254C9.55125 7.99879 9.30375 7.87504 9 7.86379H7.875C7.57125 7.88629 7.335 8.01004 7.09875 8.21254C6.87375 8.43754 6.76125 8.70754 6.75 8.98879H7.875V12.3638C7.8975 12.6675 7.99875 12.9263 8.22375 13.14C8.44875 13.365 8.69625 13.4888 9 13.4888H10.125C10.4288 13.4888 10.665 13.365 10.9012 13.14C11.1262 12.9263 11.2388 12.6675 11.25 12.3638H10.125V8.97754V8.98879ZM9 2.58754C5.4675 2.58754 2.5875 5.44504 2.5875 8.97754C2.5875 12.51 5.4675 15.39 9 15.39C12.5325 15.39 15.4125 12.5213 15.4125 8.97754C15.4125 5.43379 12.5325 2.57629 9 2.57629V2.58754ZM9 1.10254C13.3425 1.10254 16.875 4.63504 16.875 8.97754C16.875 13.32 13.3425 16.8525 9 16.8525C4.6575 16.8525 1.125 13.3425 1.125 8.97754C1.125 4.61254 4.6575 1.10254 9 1.10254Z" fill="#929292"/>
</svg>
