<svg width="12" height="12" viewBox="0 0 12 12" fill="none" xmlns="http://www.w3.org/2000/svg">
<path d="M11.4007 8.55141H7.79989C7.68081 8.55033 7.56692 8.50248 7.48281 8.41817C7.3987 8.33387 7.35111 8.21988 7.3503 8.10079C7.35138 7.98189 7.39909 7.86816 7.48317 7.78407C7.56725 7.69999 7.68098 7.65228 7.79989 7.65121H11.4007C11.5196 7.65228 11.6333 7.69999 11.7174 7.78407C11.8015 7.86816 11.8492 7.98189 11.8503 8.10079C11.8495 8.21988 11.8019 8.33387 11.7178 8.41817C11.6337 8.50248 11.5198 8.55033 11.4007 8.55141Z" fill="#0070F3"/>
<path d="M11.4007 10.9516H7.79989C7.68081 10.9505 7.56692 10.9027 7.48281 10.8184C7.3987 10.7341 7.35111 10.6201 7.3503 10.501C7.35138 10.3821 7.39909 10.2684 7.48317 10.1843C7.56725 10.1002 7.68098 10.0525 7.79989 10.0514H11.4007C11.5196 10.0525 11.6333 10.1002 11.7174 10.1843C11.8015 10.2684 11.8492 10.3821 11.8503 10.501C11.8495 10.6201 11.8019 10.7341 11.7178 10.8184C11.6337 10.9027 11.5198 10.9505 11.4007 10.9516Z" fill="#0070F3"/>
<path d="M12.001 3.90944V1.18827C12.001 0.341562 11.6173 0 10.6625 0H8.23764C7.28394 0 6.9002 0.341562 6.9002 1.18827V3.90944C6.9002 4.76129 7.28394 5.09771 8.23764 5.09771H10.6625C11.6173 5.1008 12.001 4.75923 12.001 3.90944Z" fill="#0070F3"/>
<path d="M5.1008 3.90944V1.18827C5.1008 0.341562 4.71705 0 3.76233 0H1.33744C0.383743 0 0 0.341562 0 1.18827V3.90944C0 4.76129 0.383743 5.09771 1.33744 5.09771H3.76233C4.71705 5.1008 5.1008 4.75923 5.1008 3.90944Z" fill="#0070F3"/>
<path d="M5.1008 10.6625V8.23764C5.1008 7.28394 4.71705 6.9002 3.76335 6.9002H1.33744C0.383743 6.9002 0 7.28394 0 8.23764V10.6625C0 11.6162 0.383743 12 1.33744 12H3.76233C4.71705 12.001 5.1008 11.6173 5.1008 10.6625Z" fill="#0070F3"/>
</svg>
