<svg width="14" height="13" viewBox="0 0 14 13" fill="none" xmlns="http://www.w3.org/2000/svg">
<path d="M6.11609 4.97784C6.40039 4.97784 6.6847 4.97784 6.969 4.97784C7.53866 4.97784 8.10723 4.97784 8.53421 4.97784C9.24441 4.97784 9.10279 5.11945 9.2444 4.40925C9.67031 3.12938 10.0984 1.84954 10.5243 0.56967C10.6659 0.143763 10.6659 0.14376 11.0929 0.14376C12.0885 0.14376 13.084 0.14376 13.9369 0.14376C14.0785 0.285371 13.9369 0.285354 13.9369 0.428038C12.5144 4.55193 11.2345 8.53421 9.81302 12.6581C9.81302 12.7997 9.67247 12.9435 9.52871 12.9435C8.53421 12.9435 7.3949 12.9435 6.40041 12.9435C6.969 11.2377 7.53866 9.5298 8.10617 7.82402C7.96456 7.68241 7.82078 7.68243 7.82078 7.68243C7.11058 7.68243 6.39824 7.68243 5.54642 7.68243C5.12052 7.68243 5.12051 7.6824 4.97675 8.1083C4.55085 9.53193 3.98227 11.0961 3.55422 12.5165C3.41261 12.9435 3.41262 12.9435 2.84403 12.9435C1.84846 12.9435 0.852886 12.9435 0 12.9435C0 12.8019 -1.99028e-05 12.5165 0.140519 12.3738C1.42038 8.39154 2.70026 4.55195 4.12389 0.56967C4.12389 0.428059 4.12387 0.428043 4.26441 0.285359C4.26441 0.143748 4.40604 0 4.5498 0C5.54429 0 6.68255 0 7.81974 0C7.11061 1.84953 6.542 3.26992 6.11609 4.97784Z" fill="#0E2E46"/>
</svg>
