<svg width="5" height="8" viewBox="0 0 5 8" fill="none" xmlns="http://www.w3.org/2000/svg">
<path d="M4.99987 4.80275C4.99987 5.17338 4.93109 5.51938 4.79454 5.84175C4.61693 6.28733 4.32639 6.63947 3.92394 6.89613C3.52046 7.1528 3.04715 7.28113 2.49994 7.28113C1.95272 7.28113 1.49483 7.14869 1.08621 6.88484C0.675547 6.62098 0.379863 6.26371 0.194036 5.81095C0.0841821 5.53683 0.0195067 5.23498 0 4.90644C0 4.82431 0.0410618 4.78325 0.123195 4.78325H1.59853C1.68066 4.78325 1.72481 4.82431 1.73097 4.90644C1.74432 5.0779 1.7864 5.24319 1.85416 5.40028C1.9096 5.53785 1.99174 5.64257 2.09954 5.71444C2.20836 5.78528 2.33875 5.82223 2.48864 5.82223C2.77611 5.82223 2.99068 5.69185 3.13442 5.43211C3.22887 5.26065 3.27713 5.03478 3.27713 4.75347C3.27713 4.47216 3.22887 4.23911 3.13442 4.03275C2.99068 3.78019 2.77201 3.65185 2.47838 3.65185C2.40343 3.65185 2.32027 3.67753 2.22787 3.72887C2.13444 3.7802 2.01638 3.8572 1.87367 3.96089C1.83876 3.9804 1.81207 3.99169 1.79153 3.99169C1.75149 3.99169 1.7207 3.97115 1.69914 3.92906L0.972262 2.90137C0.951729 2.86749 0.941463 2.83874 0.941463 2.81924C0.941463 2.77714 0.958913 2.74737 0.991766 2.72581L2.56976 1.52255C2.58311 1.50921 2.58823 1.49585 2.58412 1.48148C2.58002 1.46813 2.56975 1.46095 2.54819 1.46095H0.3039C0.268993 1.46095 0.241266 1.44863 0.216626 1.42502C0.193012 1.40038 0.180689 1.37163 0.180689 1.33673V0.124229C0.180689 0.0903492 0.193012 0.0605689 0.216626 0.0369555C0.241266 0.0123154 0.268993 0 0.3039 0H4.77094C4.80482 0 4.83458 0.0123154 4.85819 0.0369555C4.88283 0.0605689 4.89516 0.0903492 4.89516 0.124229V1.49175C4.89516 1.55335 4.87053 1.60469 4.82227 1.64678L3.58308 2.62417C3.56973 2.63751 3.56459 2.65085 3.5687 2.66523C3.57075 2.67857 3.58308 2.68987 3.60464 2.69603C4.15083 2.84079 4.54712 3.19088 4.79249 3.74528C4.93007 4.07382 4.99782 4.42699 4.99782 4.8048L4.99987 4.80275Z" fill="#252530"/>
</svg>
