<svg width="20" height="21" viewBox="0 0 20 21" fill="none" xmlns="http://www.w3.org/2000/svg">
<path d="M9.88241 4.01473C10.2942 4.01473 10.706 4.01473 11.1177 4.11767L9.88241 6.48533C8.02946 6.38239 6.38239 7.82358 6.27945 9.67653C6.17651 11.5295 7.6177 13.1765 9.47065 13.2795H9.88241C10.7059 13.2795 11.5295 12.9707 12.1471 12.4559L13.4854 14.7207C12.4559 15.4413 11.2206 15.853 9.88241 15.853C6.58827 15.956 3.80885 13.4854 3.70591 10.1912C3.60296 6.8971 6.07356 4.11768 9.3677 4.01473H9.88241ZM14.103 9.05887L15.6471 11.6324L14.103 14.103L12.6618 11.6324H9.67654L11.2207 9.05887H14.103ZM11.6324 8.1324C11.6324 7.72063 11.7354 7.30886 11.9412 7.00004C12.1471 6.69121 12.5589 6.38238 12.8677 6.1765L13.0736 6.07357C13.4854 5.86768 13.5883 5.76474 13.5883 5.55886C13.5883 5.35298 13.2795 5.14708 13.0736 5.14708C12.6618 5.14708 12.353 5.35297 12.1471 5.76474L11.6324 5.25003C11.7354 5.04415 11.9413 4.83826 12.1471 4.63238C12.456 4.42649 12.7648 4.42649 13.0736 4.42649C13.3824 4.42649 13.7942 4.52944 14.0001 4.73532C14.206 4.94121 14.4118 5.25003 14.4118 5.55886C14.4118 6.07357 14.103 6.48533 13.4854 6.69121L13.1766 6.89709C12.8677 7.10297 12.6618 7.20592 12.5589 7.51474H14.4118V8.23533L11.6324 8.1324ZM9.88241 21.0001L19.6619 15.4413V0H0V15.3383L9.88241 21.0001Z" fill="#FF492C"/>
</svg>
