<svg width="180" height="40" viewBox="0 0 180 40" fill="none" xmlns="http://www.w3.org/2000/svg">
<g clip-path="url(#clip0_5_17008)">
<path fill-rule="evenodd" clip-rule="evenodd" d="M134.272 39.9844H45.7311C44.9889 39.986 44.2764 39.693 43.75 39.1697C43.2237 38.6464 42.9265 37.9356 42.9238 37.1934V2.7889C42.9271 2.04706 43.2245 1.33679 43.7507 0.813948C44.277 0.291103 44.9892 -0.00162008 45.7311 6.7448e-06H134.272C135.014 -0.00107965 135.726 0.291882 136.251 0.814669C136.777 1.33746 137.074 2.04741 137.078 2.7889V37.1934C137.075 37.9353 136.778 38.6458 136.252 39.169C135.726 39.6922 135.014 39.9855 134.272 39.9844ZM45.7311 1.46785C45.3792 1.4673 45.0416 1.60627 44.792 1.85428C44.5425 2.10229 44.4014 2.43912 44.3998 2.79094V37.1934C44.4014 37.5451 44.5425 37.8817 44.7921 38.1294C45.0417 38.3771 45.3794 38.5156 45.7311 38.5145H134.272C134.624 38.515 134.961 38.3763 135.21 38.1287C135.459 37.881 135.6 37.5447 135.602 37.1934V2.7889C135.6 2.43762 135.459 2.10131 135.21 1.85368C134.961 1.60605 134.624 1.4673 134.272 1.46785H45.7311Z" fill="#0A1E25"/>
<path d="M49.2598 28.843V11.4001C49.2598 8.09139 50.7378 6.09961 54.3992 6.09961C58.0974 6.09961 59.5754 8.08527 59.5754 11.4001V13.8934H56.1505V10.6621C56.1505 9.7264 55.6836 9.22081 54.3972 9.22081C53.1516 9.22081 52.646 9.7264 52.646 10.6621V29.583C52.646 30.5167 53.1516 31.0223 54.3972 31.0223C55.6836 31.0223 56.1505 30.5167 56.1505 29.583V26.3497H59.5754V28.843C59.5754 32.1517 58.0974 34.1435 54.3972 34.1435C50.7276 34.1435 49.2598 32.1578 49.2598 28.843Z" fill="#0A1E25"/>
<path fill-rule="evenodd" clip-rule="evenodd" d="M64.5604 6.49512H68.5318L72.3461 33.748H68.9986L68.3361 28.3374H64.7541L64.0936 33.7501H60.7461L64.5604 6.49512ZM67.9874 25.2223L66.5461 12.764L65.1048 25.2223H67.9874Z" fill="#0A1E25"/>
<path fill-rule="evenodd" clip-rule="evenodd" d="M74.2539 6.49512H80.6777C82.7796 6.49512 84.1822 7.85695 84.1822 9.92212V17.6691C84.1822 19.1879 83.7541 20.3947 82.1191 20.7454C84.1435 21.3285 84.4146 22.4966 84.4146 24.2866V30.4393C84.4137 31.5877 84.6803 32.7206 85.1934 33.748H82.0783C81.1059 32.5411 80.9897 31.3016 80.9897 28.9205V24.0562C80.9897 22.4599 80.1742 21.9156 78.8878 21.9156H77.6809V33.7501H74.2539V6.49512ZM79.9764 18.8372C80.5615 18.8372 80.7552 18.6333 80.7552 18.0584V10.3971C80.7552 9.81407 80.5615 9.61836 79.9764 9.61836H77.6809V18.8372H79.9764Z" fill="#0A1E25"/>
<path d="M86.9074 29.3873V25.9623H90.2936V29.583C90.2936 30.5167 90.7992 31.0223 91.8511 31.0223C92.9031 31.0223 93.4087 30.5167 93.4087 29.583V26.3497C93.4087 25.1815 93.058 24.4823 92.3893 23.6627L88.312 18.6415C87.3786 17.5345 86.8794 16.126 86.9074 14.6783V10.8558C86.9074 8.13011 88.6198 6.10571 91.8899 6.10571C95.1599 6.10571 96.8336 8.13011 96.8336 10.8558V14.2808H93.4474V10.6601C93.4474 9.72639 92.9418 9.2208 91.8899 9.2208C90.8379 9.2208 90.3323 9.72639 90.3323 10.6601V13.8914C90.3323 15.0595 90.683 15.7608 91.3517 16.5783L95.3943 21.6098C96.3668 22.7759 96.7949 23.9828 96.7949 25.5791V29.3954C96.7949 32.1211 95.1212 34.1455 91.8511 34.1455C88.5811 34.1455 86.9074 32.1191 86.9074 29.3954V29.3873Z" fill="#0A1E25"/>
<path d="M108.594 30.7512L114.074 19.4203C115.705 16.1584 115.943 14.6335 115.943 12.919C115.943 10.4277 115.476 9.18212 114.108 9.18212C112.785 9.18212 112.202 10.5052 112.202 12.919H108.826C108.826 7.85903 111.513 6.11597 114.074 6.11597C117.266 6.11597 119.329 8.02416 119.329 12.7743C119.329 15.2207 118.514 17.4061 117.034 20.4437L112.096 30.6717H119.374V33.7481H108.594V30.7492V30.7512Z" fill="#0A1E25"/>
<path fill-rule="evenodd" clip-rule="evenodd" d="M125.694 27.1285H119.26V24.2091L125.918 6.49512H129.072V24.0562H130.703V27.1325H129.072V33.7501H125.694V27.1285ZM125.694 24.0562V14.9434L122.452 24.0562H125.694Z" fill="#0A1E25"/>
<path d="M100.723 20.0239L103.238 17.5061L105.756 20.0239L103.238 22.5396L100.723 20.0239Z" fill="#0A1E25"/>
</g>
<defs>
<clipPath id="clip0_5_17008">
<rect width="94.1538" height="39.9844" fill="white" transform="translate(42.9238)"/>
</clipPath>
</defs>
</svg>
