<svg width="3" height="4" viewBox="0 0 3 4" fill="none" xmlns="http://www.w3.org/2000/svg">
<path d="M2.80029 0.782077C2.78099 0.801374 2.75715 0.810465 2.72651 0.810465H0.984135C0.958027 0.810465 0.944402 0.824081 0.944402 0.851323V1.53125C0.944402 1.55735 0.958027 1.57098 0.984135 1.57098H2.0829C2.11355 1.57098 2.13739 1.58005 2.15669 1.59935C2.17598 1.61865 2.18507 1.64248 2.18507 1.67426V2.27359C2.18507 2.30537 2.17598 2.32922 2.15669 2.34852C2.13739 2.36781 2.11355 2.37689 2.0829 2.37689H0.984135C0.958027 2.37689 0.944402 2.38938 0.944402 2.41662V3.14876C0.944402 3.17601 0.958027 3.18848 0.984135 3.18848H2.72651C2.75602 3.18848 2.78099 3.19757 2.80029 3.21687C2.81959 3.23616 2.82867 3.25999 2.82867 3.29178V3.89679C2.82867 3.92857 2.81959 3.9524 2.80029 3.9717C2.78099 3.991 2.75715 4.00009 2.72651 4.00009H0.102163C0.0703806 4.00009 0.0476758 3.991 0.0283792 3.9717C0.00908251 3.9524 0 3.92857 0 3.89679V0.102155C0 0.0726421 0.00908251 0.0476672 0.0283792 0.0283705C0.0476758 0.00907385 0.0703806 0 0.102163 0H2.72651C2.75602 0 2.78099 0.00907385 2.80029 0.0283705C2.81959 0.0476672 2.82867 0.071507 2.82867 0.102155V0.708293C2.82867 0.738941 2.81959 0.76278 2.80029 0.782077Z" fill="#252530"/>
</svg>
