<svg width="160" height="160" viewBox="0 0 160 160" fill="none" xmlns="http://www.w3.org/2000/svg">
<path d="M82.3761 146.535C117.372 146.535 145.742 118.165 145.742 83.1683C145.742 48.1721 117.372 19.802 82.3761 19.802C47.3798 19.802 19.0098 48.1721 19.0098 83.1683C19.0098 118.165 47.3798 146.535 82.3761 146.535Z" fill="#F5F8FF"/>
<g opacity="0.2">
<path d="M39.6035 28.0959C39.6035 27.0149 40.4798 26.1387 41.5607 26.1387H122.42C123.501 26.1387 124.377 27.0149 124.377 28.0959V83.6317C124.377 84.7129 123.501 85.589 122.42 85.589H41.5607C40.4798 85.589 39.6035 84.7129 39.6035 83.6317V28.0959Z" fill="white"/>
<path d="M39.6035 28.2465C39.6035 27.0824 40.4778 26.1387 41.5562 26.1387H122.204C123.282 26.1387 124.156 27.0824 124.156 28.2465V33.4458H39.6035V28.2465Z" fill="#000C36"/>
<path d="M47.9549 29.7928C47.9549 30.6508 47.247 31.3587 46.3891 31.3587C45.5311 31.3587 44.8232 30.6508 44.8232 29.7928C44.8232 28.9349 45.5311 28.2271 46.3891 28.2271C47.247 28.2271 47.9549 28.9349 47.9549 29.7928Z" fill="#F66058"/>
<path d="M54.2175 29.7928C54.2175 30.6508 53.5097 31.3587 52.6517 31.3587C51.7937 31.3587 51.0859 30.6508 51.0859 29.7928C51.0859 28.9349 51.7937 28.2271 52.6517 28.2271C53.5312 28.2271 54.2175 28.9349 54.2175 29.7928Z" fill="#F9BD2E"/>
<path d="M60.4793 29.7928C60.4793 30.6508 59.7715 31.3587 58.9135 31.3587C58.0555 31.3587 57.3477 30.6508 57.3477 29.7928C57.3477 28.9349 58.0555 28.2271 58.9135 28.2271C59.7715 28.2271 60.4793 28.9349 60.4793 29.7928Z" fill="#3CC840"/>
<path d="M39.6035 33.0754H124.377V45.4062H39.6035V33.0754Z" fill="#EDF1F6"/>
<path d="M47.3105 50.8015H116.671V79.3166H47.3105V50.8015Z" fill="#EDF1F6"/>
<path fill-rule="evenodd" clip-rule="evenodd" d="M48.8516 39.0155C48.8516 37.8625 49.7488 36.9277 50.8558 36.9277H112.874C113.98 36.9277 114.878 37.8625 114.878 39.0155C114.878 40.1684 113.98 41.1032 112.874 41.1032H50.8558C49.7488 41.1032 48.8516 40.1684 48.8516 39.0155Z" fill="white"/>
</g>
<g opacity="0.5">
<path d="M31.6836 39.4171C31.6836 38.1345 32.7234 37.0947 34.0059 37.0947H129.948C131.231 37.0947 132.271 38.1345 132.271 39.4171V105.312C132.271 106.594 131.231 107.634 129.948 107.634H34.0059C32.7234 107.634 31.6836 106.594 31.6836 105.312V39.4171Z" fill="white"/>
<path d="M31.6836 39.5957C31.6836 38.2145 32.7209 37.0947 34.0006 37.0947H129.691C130.971 37.0947 132.008 38.2145 132.008 39.5957V45.7647H31.6836V39.5957Z" fill="#000C36"/>
<path d="M41.5937 41.428C41.5937 42.4459 40.7538 43.2858 39.7358 43.2858C38.7178 43.2858 37.8779 42.4459 37.8779 41.428C37.8779 40.4099 38.7178 39.5701 39.7358 39.5701C40.7538 39.5701 41.5937 40.4099 41.5937 41.428Z" fill="#F66058"/>
<path d="M49.0224 41.428C49.0224 42.4459 48.1825 43.2858 47.1645 43.2858C46.1465 43.2858 45.3066 42.4459 45.3066 41.428C45.3066 40.4099 46.1465 39.5701 47.1645 39.5701C48.2079 39.5701 49.0224 40.4099 49.0224 41.428Z" fill="#F9BD2E"/>
<path d="M56.454 41.428C56.454 42.4459 55.6142 43.2858 54.5962 43.2858C53.5782 43.2858 52.7383 42.4459 52.7383 41.428C52.7383 40.4099 53.5782 39.5701 54.5962 39.5701C55.6142 39.5701 56.454 40.4099 56.454 41.428Z" fill="#3CC840"/>
<path d="M31.6836 45.3218H132.271V59.9525H31.6836V45.3218Z" fill="#EDF1F6"/>
<path d="M40.8262 66.3584H123.125V100.192H40.8262V66.3584Z" fill="#EDF1F6"/>
<path fill-rule="evenodd" clip-rule="evenodd" d="M42.6582 52.3751C42.6582 51.007 43.7228 49.8979 45.0363 49.8979H118.622C119.935 49.8979 121.001 51.007 121.001 52.3751C121.001 53.7432 119.935 54.8522 118.622 54.8522H45.0363C43.7228 54.8522 42.6582 53.7432 42.6582 52.3751Z" fill="white"/>
</g>
<g filter="url(#filter0_d_4_11243)">
<path d="M25.3467 51.7136C25.3467 50.2751 26.5129 49.1089 27.9514 49.1089H135.562C137.001 49.1089 138.167 50.2751 138.167 51.7136V125.623C138.167 127.061 137.001 128.227 135.562 128.227H27.9514C26.5129 128.227 25.3467 127.061 25.3467 125.623V51.7136Z" fill="white"/>
</g>
<path d="M25.3467 51.914C25.3467 50.3648 26.5102 49.1089 27.9454 49.1089H135.275C136.71 49.1089 137.873 50.3648 137.873 51.914V58.8334H25.3467V51.914Z" fill="#000C36"/>
<path d="M36.4607 53.9713C36.4607 55.1131 35.5186 56.0551 34.3768 56.0551C33.235 56.0551 32.293 55.1131 32.293 53.9713C32.293 52.8295 33.235 51.8875 34.3768 51.8875C35.5186 51.8875 36.4607 52.8295 36.4607 53.9713Z" fill="#F66058"/>
<path d="M44.7955 53.9713C44.7955 55.1131 43.8535 56.0551 42.7117 56.0551C41.5699 56.0551 40.6279 55.1131 40.6279 53.9713C40.6279 52.8295 41.5699 51.8875 42.7117 51.8875C43.8821 51.8875 44.7955 52.8295 44.7955 53.9713Z" fill="#F9BD2E"/>
<path d="M53.1316 53.9713C53.1316 55.1131 52.1895 56.0551 51.0477 56.0551C49.9059 56.0551 48.9639 55.1131 48.9639 53.9713C48.9639 52.8295 49.9059 51.8875 51.0477 51.8875C52.1895 51.8875 53.1316 52.8295 53.1316 53.9713Z" fill="#3CC840"/>
<path d="M25.3467 58.3384H138.167V74.7487H25.3467V58.3384Z" fill="#EDF1F6"/>
<path d="M35.6035 81.9312H127.911V119.88H35.6035V81.9312Z" fill="#EDF1F6"/>
<path fill-rule="evenodd" clip-rule="evenodd" d="M37.6543 66.247C37.6543 64.7125 38.8484 63.4685 40.3215 63.4685H122.857C124.331 63.4685 125.525 64.7125 125.525 66.247C125.525 67.7815 124.331 69.0253 122.857 69.0253H40.3215C38.8484 69.0253 37.6543 67.7815 37.6543 66.247Z" fill="white"/>
<path d="M128.317 136.238C144.065 136.238 156.831 123.471 156.831 107.723C156.831 91.9745 144.065 79.208 128.317 79.208C112.568 79.208 99.8018 91.9745 99.8018 107.723C99.8018 123.471 112.568 136.238 128.317 136.238Z" fill="#3D7FFC"/>
<path d="M140.273 109.211L143.686 111.803C143.849 111.914 143.963 112.083 144.006 112.276C144.048 112.468 144.015 112.67 143.913 112.839L140.653 118.321C140.618 118.402 140.568 118.475 140.505 118.536C140.442 118.598 140.367 118.647 140.285 118.68C140.203 118.712 140.115 118.728 140.027 118.727C139.939 118.726 139.852 118.707 139.771 118.673C139.734 118.657 139.699 118.638 139.666 118.615L135.644 117.061C134.789 117.671 133.874 118.193 132.913 118.615L132.307 122.761C132.257 123.206 131.977 123.428 131.473 123.428H125.026C124.828 123.445 124.631 123.385 124.476 123.261C124.321 123.137 124.219 122.958 124.192 122.761L123.586 118.614C122.614 118.213 121.696 117.691 120.855 117.059L116.833 118.614C116.662 118.7 116.464 118.718 116.281 118.663C116.098 118.608 115.943 118.485 115.847 118.319L112.586 112.839C112.484 112.669 112.451 112.468 112.494 112.275C112.536 112.082 112.651 111.913 112.814 111.802L116.226 109.211C116.175 108.62 116.148 108.101 116.148 107.656C116.148 107.212 116.172 106.695 116.226 106.101L112.814 103.51C112.651 103.399 112.536 103.23 112.494 103.037C112.451 102.844 112.484 102.642 112.586 102.474L115.846 96.9925C115.925 96.8262 116.068 96.6978 116.241 96.6369C116.415 96.5751 116.605 96.5854 116.772 96.6638C116.793 96.6741 116.813 96.6852 116.833 96.6971L120.856 98.2519C121.71 97.642 122.625 97.1208 123.587 96.6971L124.192 92.5545C124.218 92.3573 124.32 92.1775 124.475 92.0523C124.63 91.928 124.827 91.8678 125.026 91.8836H131.473C131.978 91.8836 132.257 92.1062 132.308 92.5513L132.914 96.6971C133.885 97.0994 134.803 97.6214 135.645 98.2519L139.667 96.6971C139.838 96.6115 140.035 96.5941 140.218 96.6487C140.402 96.7034 140.557 96.8262 140.653 96.9925L143.912 102.474C144.015 102.642 144.048 102.844 144.005 103.037C143.963 103.23 143.848 103.399 143.685 103.51L140.273 106.101C140.475 107.128 140.475 108.185 140.273 109.211ZM124.918 111C125.692 111.762 126.705 112.234 127.786 112.333C128.868 112.433 129.95 112.155 130.85 111.547C131.749 110.939 132.411 110.038 132.721 108.997C133.032 107.956 132.972 106.84 132.552 105.839C132.133 104.837 131.379 104.012 130.42 103.503C129.461 102.994 128.355 102.833 127.291 103.047C126.226 103.262 125.268 103.838 124.581 104.679C123.893 105.519 123.519 106.572 123.52 107.658C123.512 108.281 123.631 108.899 123.871 109.474C124.112 110.049 124.468 110.569 124.917 111.001L124.918 111Z" fill="white"/>
<defs>
<filter id="filter0_d_4_11243" x="14.2576" y="38.8119" width="134.999" height="101.297" filterUnits="userSpaceOnUse" color-interpolation-filters="sRGB">
<feFlood flood-opacity="0" result="BackgroundImageFix"/>
<feColorMatrix in="SourceAlpha" type="matrix" values="0 0 0 0 0 0 0 0 0 0 0 0 0 0 0 0 0 0 127 0" result="hardAlpha"/>
<feOffset dy="0.792079"/>
<feGaussianBlur stdDeviation="5.54455"/>
<feComposite in2="hardAlpha" operator="out"/>
<feColorMatrix type="matrix" values="0 0 0 0 0.0354167 0 0 0 0 0.105426 0 0 0 0 0.2125 0 0 0 0.04 0"/>
<feBlend mode="normal" in2="BackgroundImageFix" result="effect1_dropShadow_4_11243"/>
<feBlend mode="normal" in="SourceGraphic" in2="effect1_dropShadow_4_11243" result="shape"/>
</filter>
</defs>
</svg>
