<svg width="106" height="41" viewBox="0 0 106 41" fill="none" xmlns="http://www.w3.org/2000/svg">
<path d="M0.931023 35.5111C0.664151 33.9159 0.532746 32.1873 0.398306 30.59C0.132436 27.6645 0 24.7379 0 21.8123C0 19.8168 -1.15115e-05 17.6898 0.132422 15.6943C0.132422 14.363 0.264869 13.167 0.398306 11.8377C0.530739 9.97661 0.664151 8.11353 0.931023 6.118C1.19689 4.12247 1.46276 2.26137 1.86107 0.398275C1.9935 -2.74483e-05 1.99351 0 2.39382 0H2.52624C36.1743 0 69.8244 0 103.472 0C104.137 0 104.137 -1.27374e-05 104.271 0.664159C104.669 2.65969 104.935 4.78766 105.201 6.91461C105.468 8.7757 105.599 10.6388 105.734 12.6343C105.866 15.294 106 18.0881 106 20.8803C106 23.8058 105.867 26.7314 105.734 29.5256C105.468 33.2497 104.935 36.8405 104.271 40.4302C104.271 40.5626 104.271 40.6971 104.139 40.8285C104.006 40.8285 103.74 40.8285 103.606 40.8285C71.4206 40.8285 39.3678 40.8285 7.18249 40.8285C7.05005 40.8285 6.78419 40.8285 6.65075 40.8285C6.51832 40.5626 6.65075 40.4302 6.65075 40.2968C7.04905 38.9664 7.44935 37.6371 7.84766 36.3057C7.97909 35.9074 7.84767 35.9074 7.58079 35.9074C5.58627 35.9074 3.45829 35.9074 1.46276 35.9074C1.19689 35.5111 1.06245 35.5111 0.931023 35.5111Z" fill="#0E2E46"/>
</svg>
