<svg width="80" height="18" viewBox="0 0 80 18" fill="none" xmlns="http://www.w3.org/2000/svg">
<g clip-path="url(#clip0_4_15037)">
<path d="M40.023 4.50047C36.9183 4.50047 34.6798 6.52524 34.6798 9.5624C34.6798 12.5996 37.1968 14.6243 40.3043 14.6243C42.1799 14.6243 43.8335 13.8819 44.8571 12.6305L42.7058 11.3875C42.1378 12.009 41.2744 12.3718 40.3043 12.3718C38.9571 12.3718 37.8127 11.6687 37.3879 10.5438H45.2678C45.3295 10.2289 45.3662 9.90267 45.3662 9.55959C45.3662 6.52524 43.1305 4.50047 40.023 4.50047ZM37.3654 8.57813C37.7169 7.45608 38.6787 6.75022 40.023 6.75022C41.37 6.75022 42.3318 7.45608 42.6806 8.57813H37.3654ZM36.7299 1.40707L28.9373 14.9055L21.142 1.40707H24.0638L28.9346 9.84362L33.8052 1.40707H36.7299ZM10.391 0.000976562L20.7821 17.9989H0L10.391 0.000976562ZM56.6711 9.5624C56.6711 11.2497 57.7735 12.3746 59.4833 12.3746C60.642 12.3746 61.511 11.8487 61.958 10.991L64.1178 12.2368C63.2235 13.7272 61.5475 14.6243 59.4833 14.6243C56.3758 14.6243 54.1402 12.5996 54.1402 9.5624C54.1402 6.52524 56.3787 4.50047 59.4833 4.50047C61.5475 4.50047 63.2208 5.39756 64.1178 6.88801L61.958 8.13381C61.511 7.2761 60.642 6.75022 59.4833 6.75022C57.7764 6.75022 56.6711 7.87509 56.6711 9.5624ZM79.866 1.40707V14.3431H77.3351V1.40707H79.866ZM70.3046 4.50047C67.1999 4.50047 64.9615 6.52524 64.9615 9.5624C64.9615 12.5996 67.4812 14.6243 70.5859 14.6243C72.4615 14.6243 74.1151 13.8819 75.1387 12.6305L72.9874 11.3875C72.4193 12.009 71.556 12.3718 70.5859 12.3718C69.2387 12.3718 68.0943 11.6687 67.6695 10.5438H75.5494C75.6111 10.2289 75.6476 9.90267 75.6476 9.55959C75.6476 6.52524 73.4121 4.50047 70.3046 4.50047ZM67.647 8.57813C67.9987 7.45608 68.9576 6.75022 70.3046 6.75022C71.6516 6.75022 72.6134 7.45608 72.9622 8.57813H67.647ZM53.2965 4.78169V7.50669C53.0154 7.42514 52.7171 7.3689 52.3966 7.3689C50.7627 7.3689 49.5844 8.49377 49.5844 10.1811V14.3431H47.0535V4.78169H49.5844V7.3689C49.5844 5.94031 51.2463 4.78169 53.2965 4.78169Z" fill="black"/>
</g>
<defs>
<clipPath id="clip0_4_15037">
<rect width="79.875" height="18" fill="white"/>
</clipPath>
</defs>
</svg>
