<svg width="24" height="24" viewBox="0 0 24 24" fill="none" xmlns="http://www.w3.org/2000/svg">
<mask id="mask0_4_15469" style="mask-type:luminance" maskUnits="userSpaceOnUse" x="0" y="0" width="24" height="24">
<path d="M0 0H24V24H0V0Z" fill="white"/>
</mask>
<g mask="url(#mask0_4_15469)">
<path fill-rule="evenodd" clip-rule="evenodd" d="M21.8651 5.16602C23.259 7.17241 24.0041 9.55796 24.0001 12.001C24.0001 14.541 23.2111 16.896 21.8651 18.835L18.7561 15.726C19.3864 14.5854 19.7161 13.3032 19.7141 12C19.7159 10.6972 19.3863 9.41531 18.7561 8.27502L21.8651 5.16602Z" fill="#FF4ECD"/>
<path fill-rule="evenodd" clip-rule="evenodd" d="M18.834 2.135L15.726 5.244C14.5515 4.59693 13.2285 4.26721 11.8877 4.28737C10.5469 4.30754 9.23447 4.67688 8.07993 5.35898C6.92539 6.04108 5.9686 7.01236 5.30393 8.17703C4.63927 9.3417 4.2897 10.6595 4.2897 12.0005C4.2897 13.3415 4.63927 14.6593 5.30393 15.824C5.9686 16.9886 6.92539 17.9599 8.07993 18.642C9.23447 19.3241 10.5469 19.6935 11.8877 19.7136C13.2285 19.7338 14.5515 19.4041 15.726 18.757L18.834 21.865C16.8279 23.2586 14.4427 24.0038 12 24C5.373 24 0 18.627 0 12C0 5.373 5.373 0 12 0C14.54 0 16.895 0.789 18.834 2.135Z" fill="#FF4ECD"/>
</g>
</svg>
