<svg width="73" height="18" viewBox="0 0 73 18" fill="none" xmlns="http://www.w3.org/2000/svg">
<path d="M9.62515 12.5693C9.49302 12.7014 9.35786 12.7014 9.22473 12.8365C9.09159 12.9697 8.82429 13.1038 8.55701 13.237C8.28973 13.3701 7.88931 13.5043 7.48687 13.5043C7.08646 13.6374 6.55091 13.6374 6.01635 13.6374C4.94621 13.6374 4.01022 13.5043 3.34252 13.1028C2.53967 12.7014 2.00408 12.3 1.47053 11.6313C0.935966 10.9636 0.667671 10.2938 0.40039 9.49301C0.133109 8.69016 0 7.75417 0 6.81919C0 5.8832 0.133109 4.94822 0.40039 4.14537C0.667671 3.34251 1.0691 2.54171 1.47053 2.00614C2.0061 1.33844 2.54068 0.935994 3.34252 0.535577C4.14437 0.135159 4.94621 0 6.01635 0C6.55091 0 6.95131 -1.15727e-05 7.35375 0.133125C7.75417 0.266261 8.15661 0.266276 8.42389 0.400421C8.69117 0.533557 8.95945 0.668721 9.22673 0.801857C9.49401 0.933985 9.62715 1.06911 9.62715 1.20225C9.76029 1.33437 9.89445 1.46953 9.89445 1.60267C10.0276 1.7348 10.0276 1.86995 10.0276 2.00309C10.0276 2.27037 9.89445 2.53767 9.76031 2.80596C9.62717 3.07324 9.35986 3.34051 9.09157 3.47365C8.95945 3.34051 8.69116 3.20636 8.55701 2.93807C8.42388 2.80594 8.15661 2.67079 7.88933 2.53765C7.62104 2.40451 7.35376 2.27038 7.08648 2.27038C6.81819 2.27038 6.41777 2.13723 6.01635 2.13723C5.34764 2.13723 4.81308 2.27037 4.41266 2.53765C4.01224 2.80594 3.6098 3.20636 3.34252 3.60779C3.07423 4.01022 2.94109 4.54379 2.80695 5.07936C2.67381 5.61392 2.67382 6.14949 2.67382 6.81719C2.67382 7.48489 2.67381 8.02045 2.80695 8.55501C2.94008 9.09058 3.07421 9.62617 3.47463 10.0266C3.74292 10.427 4.14334 10.8294 4.54477 11.0967C4.9462 11.364 5.61591 11.4971 6.28361 11.4971C6.68403 11.4971 6.95132 11.4971 7.21961 11.364C7.48689 11.2309 7.75415 11.0967 8.02143 10.9636C8.28972 10.8304 8.42188 10.6963 8.69017 10.5631C8.82229 10.43 8.95745 10.2959 9.09059 10.1627C9.22372 10.2959 9.22371 10.43 9.35785 10.5631C9.49099 10.6963 9.62515 10.8304 9.62515 10.9636C9.75829 11.0967 9.75828 11.2309 9.89343 11.364C9.89343 11.4971 10.0256 11.6313 10.0256 11.7644C10.0256 11.8975 10.0256 12.0317 9.89343 12.1648C9.89343 12.301 9.75829 12.4361 9.62515 12.5693ZM19.5186 11.0987C19.5186 12.1689 19.6517 12.8366 19.919 13.3721C19.6517 13.5043 19.5186 13.5043 19.2513 13.5043C18.983 13.5043 18.8499 13.5043 18.5826 13.5043C18.1822 13.5043 17.7797 13.3721 17.5124 13.237C17.2452 13.1028 17.112 12.8366 17.112 12.4341C16.8447 12.7014 16.4443 12.9697 16.0419 13.237C15.6415 13.5043 14.9718 13.5043 14.3031 13.5043C13.9027 13.5043 13.6354 13.5043 13.2329 13.3721C12.8325 13.239 12.5652 13.1038 12.298 12.8365C12.0297 12.5693 11.7624 12.301 11.6293 11.9006C11.4971 11.5002 11.362 11.0987 11.362 10.5631C11.362 9.89545 11.4951 9.35988 11.8975 8.95946C12.1648 8.55905 12.5652 8.29176 13.1008 8.02347C13.6354 7.75618 14.1709 7.62305 14.7035 7.4889C15.239 7.35577 15.7746 7.35578 16.175 7.35578C16.3072 7.35578 16.4423 7.35578 16.5755 7.35578H16.9759V6.95536C16.9759 6.41979 16.8427 6.1525 16.5755 5.88522C16.3072 5.61794 15.9068 5.61796 15.237 5.61796C14.7025 5.61796 14.1669 5.75007 13.7665 5.88522C13.3661 6.01937 12.9636 6.28566 12.4291 6.55294C12.2959 6.28566 12.0287 6.1525 12.0287 5.88522C11.8955 5.61794 11.8955 5.4848 11.8955 5.34964C11.8955 5.2155 12.0287 4.94923 12.1628 4.81508C12.4301 4.68195 12.6984 4.54682 12.9656 4.41469C13.2329 4.28156 13.7685 4.1464 14.1689 4.01427C14.5693 3.88114 15.1049 3.88112 15.6395 3.88112C16.3072 3.88112 16.9769 3.88113 17.3783 4.14841C17.7787 4.41569 18.3133 4.54882 18.5806 4.8161C18.8489 5.08439 19.1161 5.48482 19.2493 5.88725C19.3824 6.28767 19.3824 6.82223 19.3824 7.49094L19.5186 11.0987ZM17.112 8.82532H16.8448C16.7116 8.82532 16.7116 8.82532 16.5765 8.82532C16.3092 8.82532 15.9088 8.82534 15.6415 8.95746C15.3742 8.95746 14.9728 9.09059 14.8386 9.22574C14.5713 9.35787 14.4382 9.49302 14.1709 9.76031C14.0378 10.0276 13.9027 10.2959 13.9027 10.5631C13.9027 10.9636 14.0358 11.2309 14.1709 11.4991C14.4382 11.7664 14.7055 11.8996 15.2411 11.8996C15.5084 11.8996 15.7756 11.8995 15.9088 11.7664C16.0419 11.6333 16.3092 11.6333 16.4443 11.4991C16.5765 11.366 16.7116 11.2309 16.8448 11.0987C16.9769 10.9656 16.9769 10.8304 16.9769 10.6973L17.112 8.82532ZM24.4658 4.94824C24.7331 4.67995 25.0004 4.41265 25.4018 4.14537C25.8022 3.87708 26.3368 3.74498 27.0045 3.74498C27.54 3.74498 27.9405 3.87709 28.3429 4.01224C28.7433 4.14538 29.1457 4.41265 29.5461 4.81508C29.9466 5.2155 30.2139 5.61794 30.349 6.28564C30.6163 6.8202 30.6163 7.62305 30.6163 8.42389C30.6163 9.49503 30.4831 10.2959 30.2159 10.9656C29.9486 11.6333 29.6803 12.1689 29.2799 12.5693C28.8795 12.9697 28.477 13.237 28.0766 13.3721C27.6762 13.5043 27.1416 13.6394 26.7392 13.6394C26.3388 13.6394 26.0715 13.6394 25.8032 13.5063C25.5359 13.3731 25.2687 13.3731 25.1355 13.239C25.0024 13.1059 24.7351 12.9707 24.7351 12.9707C24.602 12.8386 24.602 12.8386 24.602 12.7034V17.5165H21.9282V4.14537C21.9282 4.14537 22.0613 4.14537 22.1954 4.14537C22.3286 4.14537 22.3285 4.14537 22.4637 4.14537C22.5958 4.14537 22.731 4.14537 22.8641 4.14537C23.2645 4.14537 23.667 4.14538 23.9343 4.41266C24.1985 4.41266 24.3327 4.67995 24.4658 4.94824ZM27.9425 8.55704C27.9425 8.15662 27.9425 7.75419 27.8093 7.4869C27.8093 7.08649 27.6762 6.8192 27.542 6.55091C27.4069 6.28363 27.1416 6.15049 26.8733 6.01635C26.6061 5.88119 26.3388 5.74908 25.9384 5.74908C25.4028 5.74908 25.0024 5.88119 24.8682 6.01635C24.5999 6.28363 24.5999 6.41678 24.5999 6.68406V10.8294C24.7331 10.9616 24.8682 11.0967 25.1355 11.2298C25.4028 11.4971 25.6711 11.4971 26.0715 11.4971C26.7392 11.4971 27.1416 11.2298 27.542 10.6943C27.8093 10.1627 27.9425 9.49303 27.9425 8.55704ZM32.7545 11.7664C32.6224 11.4991 32.6224 11.2308 32.6224 10.9636C32.6224 10.6963 32.6224 10.428 32.6224 10.1607V1.20225C32.7546 1.20225 32.7545 1.20225 32.8897 1.20225C33.0228 1.20225 33.0228 1.20225 33.157 1.20225C33.2901 1.20225 33.4242 1.20225 33.4242 1.20225C33.6925 1.20225 33.8257 1.20225 34.093 1.20225C34.3603 1.20225 34.4934 1.33439 34.6275 1.46954C34.7607 1.60268 34.8958 1.73682 35.0279 2.0041C35.1611 2.27239 35.1611 2.40451 35.1611 2.80695V4.14537H37.8349V6.15049H35.1611V10.1627C35.1611 11.0987 35.5615 11.5002 36.2312 11.5002C36.3644 11.5002 36.6316 11.5001 36.7668 11.368C36.8999 11.368 37.0341 11.2349 37.1672 11.2349C37.3003 11.2349 37.4345 11.1017 37.5676 10.9666C37.7008 10.8345 37.7008 10.8345 37.8349 10.8345C37.968 11.1018 38.2353 11.369 38.2353 11.5022C38.3685 11.7694 38.3685 11.9026 38.3685 12.0377C38.3685 12.1719 38.3685 12.4382 38.1012 12.5723C37.9681 12.7054 37.7008 12.8396 37.5656 12.9727C37.2983 13.1059 37.031 13.241 36.6306 13.3731C36.2302 13.5063 35.9619 13.5063 35.4274 13.5063C34.6245 13.5063 33.9568 13.3731 33.5564 13.1058C33.157 12.8365 32.8897 12.4361 32.7545 11.7664ZM44.523 11.6333C44.7903 11.6333 45.1907 11.6333 45.3248 11.5002C45.5931 11.5002 45.7252 11.368 45.9935 11.2329C46.1267 11.0997 46.3939 10.9656 46.5281 10.8324C46.6612 10.6993 46.7964 10.5652 46.9285 10.432C47.0617 10.5652 47.1968 10.8325 47.4641 11.2349C47.5972 11.5022 47.7314 11.7694 47.7314 12.0377C47.7314 12.305 47.5982 12.5723 47.1968 12.8396C46.9285 13.1079 46.5281 13.241 45.9935 13.3751C45.458 13.5083 44.9234 13.6424 44.2547 13.6424C43.587 13.6424 43.0514 13.5103 42.5169 13.3751C41.9813 13.242 41.4467 12.9747 40.9132 12.5723C40.3776 12.1719 40.1103 11.6373 39.843 10.9686C39.5748 10.3009 39.4426 9.49808 39.4426 8.56209C39.4426 7.76025 39.5748 7.09151 39.843 6.42381C40.1103 5.88824 40.3776 5.3537 40.9132 4.95329C41.3136 4.55287 41.8492 4.28456 42.3837 4.15041C42.9193 4.01526 43.4539 3.88315 43.9874 3.88315C44.6551 3.88315 45.3248 4.01528 45.8584 4.28357C46.3939 4.55085 46.7944 4.81813 47.0616 5.21855C47.3289 5.61897 47.5972 6.0214 47.7294 6.55697C47.8625 7.09153 47.9976 7.6271 47.9976 8.16065V8.42792C47.9976 8.56106 47.9976 8.6952 47.9976 8.82834C47.9976 8.96148 47.9976 9.09562 47.9976 9.22876C47.9976 9.3619 47.9976 9.36191 47.9976 9.49606H42.2476C42.2476 10.1648 42.5148 10.8345 42.9153 11.2349C43.0514 11.366 43.7201 11.6333 44.523 11.6333ZM45.458 7.7562C45.458 7.0885 45.3248 6.68606 45.0575 6.28564C44.7903 5.88522 44.3898 5.75006 43.7201 5.75006C43.1846 5.75006 42.7841 5.88321 42.3817 6.28564C42.1144 6.68606 41.8472 7.22163 41.8472 7.88933H45.456C45.458 7.88933 45.458 7.7562 45.458 7.7562ZM52.4093 4.94824C52.5424 4.8151 52.5424 4.67994 52.6776 4.5468C52.8097 4.41467 52.9449 4.27952 53.2122 4.14638C53.3453 4.01425 53.6126 3.87912 53.8798 3.87912C54.1481 3.74598 54.2813 3.74596 54.5485 3.74596C54.6817 3.74596 54.8158 3.74596 55.0831 3.74596C55.2162 3.74596 55.4835 3.87912 55.6187 3.87912C55.7518 3.87912 55.886 4.01224 56.0191 4.14638C56.1522 4.27952 56.1522 4.41467 56.1522 4.5468C56.1522 4.81509 56.1522 5.21552 55.8839 5.4828C55.7518 5.88322 55.6167 6.15051 55.4835 6.4188C55.2162 6.28566 55.0831 6.1505 54.8158 6.01838C54.5486 6.1505 54.2813 6.15049 54.013 6.15049C53.6126 6.15049 53.3453 6.28363 52.9429 6.55091C52.6756 6.8192 52.5424 7.08647 52.5424 7.35375V13.6374H49.8686V4.14537C49.8686 4.14537 50.0017 4.14537 50.1359 4.14537C50.271 4.14537 50.269 4.14537 50.4042 4.14537C50.5363 4.14537 50.6715 4.14537 50.8046 4.14537C51.205 4.14537 51.6064 4.27751 51.8747 4.41266C52.144 4.41266 52.4093 4.67995 52.4093 4.94824ZM59.8982 4.94824C60.0303 4.8151 60.0303 4.67994 60.1655 4.5468C60.2986 4.41467 60.4328 4.27952 60.7011 4.14638C60.8332 4.01425 61.1015 3.87912 61.3688 3.87912C61.6361 3.74598 61.7692 3.74596 62.0365 3.74596C62.1696 3.74596 62.3048 3.74596 62.572 3.74596C62.7052 3.74596 62.9725 3.87912 63.1066 3.87912C63.2397 3.87912 63.3749 4.01224 63.507 4.14638C63.6402 4.27952 63.6401 4.41467 63.6401 4.5468C63.6401 4.81509 63.6402 5.21552 63.3729 5.4828C63.2397 5.88322 63.1056 6.15051 62.9725 6.4188C62.7052 6.28566 62.572 6.1505 62.3047 6.01838C62.0365 6.1505 61.7692 6.15049 61.5019 6.15049C61.1015 6.15049 60.8332 6.28363 60.4318 6.55091C60.1635 6.8192 60.0303 7.08647 60.0303 7.35375V13.6374H57.3565V4.14537C57.3565 4.14537 57.4897 4.14537 57.6248 4.14537C57.759 4.14537 57.7569 4.14537 57.8921 4.14537C58.0252 4.14537 58.1594 4.14537 58.2925 4.14537C58.6929 4.14537 59.0954 4.27751 59.3626 4.41266C59.6299 4.41266 59.8982 4.67995 59.8982 4.94824ZM72.5996 11.0987C72.5996 12.1689 72.7328 12.8366 73 13.3721C72.7328 13.5043 72.5996 13.5043 72.3313 13.5043C72.064 13.5043 71.9309 13.5043 71.6636 13.5043C71.2632 13.5043 70.8608 13.3721 70.5935 13.237C70.3262 13.1038 70.1931 12.8366 70.1931 12.4341C69.9258 12.7014 69.5254 12.9697 69.1229 13.237C68.7205 13.5043 68.0528 13.5043 67.3841 13.5043C66.9837 13.5043 66.7164 13.5043 66.314 13.3721C65.9115 13.239 65.6463 13.1038 65.379 12.8365C65.1107 12.5693 64.8434 12.301 64.7103 11.9006C64.5782 11.5002 64.443 11.0987 64.443 10.5631C64.443 9.89545 64.5761 9.35988 64.9786 8.95946C65.2458 8.55905 65.6463 8.29176 66.1808 8.02347C66.7164 7.75618 67.252 7.62305 67.7845 7.4889C68.3201 7.35577 68.8557 7.35578 69.2561 7.35578C69.3882 7.35578 69.5234 7.35578 69.6565 7.35578H70.0569V6.95536C70.0569 6.41979 69.9238 6.1525 69.6565 5.88522C69.3882 5.61794 68.9878 5.61796 68.3181 5.61796C67.7835 5.61796 67.2479 5.75007 66.8475 5.88522C66.4471 6.01937 66.0447 6.28566 65.5101 6.55294C65.377 6.28566 65.1097 6.1525 65.1097 5.88522C64.9765 5.61794 64.9766 5.4848 64.9766 5.34964C64.9766 5.2155 65.1097 4.94923 65.2438 4.81508C65.5111 4.68195 65.7794 4.54682 66.0467 4.41469C66.314 4.28156 66.8495 4.1464 67.25 4.01427C67.6504 3.88114 68.1859 3.88112 68.7205 3.88112C69.3882 3.88112 70.0579 3.88113 70.4594 4.14841C70.9939 4.28155 71.3943 4.54882 71.6616 4.8161C71.9299 5.08439 72.1972 5.48482 72.3303 5.88725C72.4635 6.28767 72.4635 6.82223 72.4635 7.49094L72.5996 11.0987ZM70.0599 8.82532H69.7927C69.6595 8.82532 69.6595 8.82532 69.5254 8.82532C69.2571 8.82532 68.8567 8.82534 68.5894 8.95746C68.3221 8.95746 67.9217 9.09059 67.7865 9.22574C67.5192 9.35787 67.3861 9.49302 67.1188 9.76031C66.9857 10.0276 66.8515 10.2959 66.8515 10.5631C66.8515 10.9636 66.9837 11.2309 67.1188 11.4991C67.3861 11.7664 67.6534 11.8996 68.189 11.8996C68.4563 11.8996 68.7245 11.8995 68.8567 11.7664C69.125 11.7664 69.2571 11.6333 69.3922 11.4991C69.5264 11.364 69.6595 11.2309 69.7927 11.0987C69.9258 10.9656 69.9258 10.8304 69.9258 10.6973L70.0599 8.82532Z" fill="white"/>
</svg>
