<svg width="94" height="46" viewBox="0 0 94 46" fill="none" xmlns="http://www.w3.org/2000/svg">
<path d="M92.4903 5.04202C91.6935 6.23621 90.8986 7.29829 90.1019 8.49248C86.5193 13.5345 82.6695 18.1791 78.2911 22.5575C71.5243 29.4584 63.9598 35.4293 55.8657 40.6045C53.3432 42.1961 50.8237 43.6555 48.1701 44.9839C48.0379 44.9839 47.9038 45.116 47.9038 45.2491C47.7726 45.2491 47.7726 45.2491 47.6385 45.2491C47.108 44.9839 46.7096 44.7176 46.1791 44.4523C38.8808 40.4714 32.2452 35.8267 26.0099 30.6526C20.037 25.6106 14.4644 20.1701 9.55454 14.066C6.1041 9.81879 2.91893 5.3083 0.265279 0.398408C0.133147 0.266276 0.133133 0.132132 0 0C0.132132 0 0.265279 0 0.265279 0C1.32734 0 2.52152 0 3.58258 0C3.71371 0 3.84785 0 3.97998 0C4.24525 0 4.24522 0.266271 4.37735 0.531536C6.2342 3.58258 8.22519 6.50349 10.3493 9.4234C12.074 11.6796 13.9319 13.8018 15.7907 15.9249C17.6476 17.9149 19.5065 19.9059 21.4975 21.7627C23.3543 23.4884 25.2131 25.2131 27.07 26.9389C29.7236 29.1951 32.5114 31.4494 35.4303 33.4404C38.4814 35.5625 41.6666 37.6876 44.8507 39.5444C45.6475 39.9418 46.4423 40.4724 47.2391 40.8718C47.5054 41.0039 47.7707 41.0039 48.0359 40.8718C51.087 39.2802 54.0079 37.4213 56.9278 35.5645C60.6435 33.0429 64.2261 30.3893 67.6765 27.4694C71.1259 24.5505 74.4432 21.3653 77.4963 18.1811C81.0779 14.4644 84.3972 10.3513 87.3161 6.1061C88.6434 4.24924 89.8376 2.39037 90.8987 0.533522C91.0298 0.40139 91.0298 0.136122 91.296 0.136122C92.0928 0.136122 92.7555 0.136122 93.5523 0.136122C93.9497 0.136122 94.0828 0.267252 93.9497 0.66665C93.5503 1.98897 93.1529 3.3173 92.4903 5.04202Z" fill="#0E2E46"/>
</svg>
