<svg width="271" height="104" viewBox="0 0 271 104" fill="none" xmlns="http://www.w3.org/2000/svg">
<g clip-path="url(#clip0_4_11769)">
<path d="M154.234 4.22469C155.002 5.68412 154.618 6.91312 154.08 8.21893C153.234 10.3697 153.465 12.4436 155.002 14.2103C156.54 16.0538 158.692 16.2842 160.922 15.8234C163.997 15.132 165.765 12.2132 165.304 8.98706C165.073 7.45081 164.151 5.91456 164.996 4.22469C164.228 4.60875 164.228 4.60875 163.305 6.145C162.459 5.14644 161.691 4.07106 160.768 2.99568C159.999 2.15074 159.231 1.38262 159.692 0C158.769 0.460875 158.308 1.07537 158.001 1.84349C157.77 2.61162 157.616 3.37974 157.462 4.14787C157.309 4.91599 156.924 5.60731 156.156 6.06818C155.694 5.22324 155.233 4.60875 154.234 4.22469Z" fill="#3D7FFC"/>
<path d="M88.7996 48.9875V13.5592L84.6201 12.8714V9.59069L95.5185 8.21495L97.3701 7.95264V9.37904V21.4197C97.7934 20.9963 98.3224 20.5201 98.9573 20.1497C99.5392 19.7264 100.227 19.356 100.915 19.0386C101.655 18.7211 102.396 18.4565 103.243 18.2449C104.089 18.0332 104.988 17.9274 105.941 17.9274C107.634 17.9274 109.221 18.1919 110.702 18.774C112.183 19.356 113.506 20.2556 114.617 21.4726C115.728 22.7425 116.627 24.3299 117.315 26.3406C117.95 28.3513 118.32 30.7324 118.32 33.6427C118.32 36.1296 117.95 38.4049 117.209 40.5743C116.469 42.7438 115.358 44.5428 113.929 46.1302C112.501 47.7176 110.755 48.9346 108.745 49.8342C106.681 50.7337 104.406 51.2099 101.814 51.2099C100.015 51.2099 98.3753 51.1041 96.8411 50.9453C95.3597 50.7866 94.0371 50.5749 92.9261 50.3104C91.8151 50.0458 90.9158 49.8342 90.228 49.5696C89.5402 49.305 89.0112 49.1463 88.7996 48.9875ZM102.396 23.06C101.232 23.06 100.227 23.2716 99.3805 23.6949C98.534 24.1182 97.8463 24.5945 97.3701 25.1236V46.0773C97.6346 46.5006 98.1108 46.871 98.8514 47.0827C99.5921 47.3472 100.491 47.4531 101.444 47.4531C102.713 47.4531 103.824 47.1356 104.724 46.4477C105.676 45.7598 106.417 44.8603 107.052 43.6962C107.687 42.5321 108.11 41.1564 108.427 39.6219C108.745 38.0874 108.903 36.3942 108.903 34.648C108.903 32.849 108.798 31.2086 108.533 29.7271C108.268 28.2984 107.898 27.0814 107.316 26.076C106.787 25.0707 106.099 24.3299 105.253 23.8008C104.512 23.3245 103.507 23.06 102.396 23.06Z" fill="#3D7FFC"/>
<path d="M122.939 50.2651V46.5082L126.96 45.9791V24.4962L123.151 23.3321V19.0991L132.674 17.7233H132.832L134.314 18.9403V21.2685L134.261 25.6074H134.366C134.578 25.0254 135.001 24.2846 135.583 23.3851C136.165 22.4855 136.906 21.586 137.752 20.7394C138.599 19.8928 139.604 19.152 140.715 18.5699C141.826 17.9879 143.043 17.6704 144.365 17.6704C144.947 17.6704 145.371 17.6704 145.688 17.7233C146.005 17.7762 146.27 17.8292 146.482 17.8821V27.5652C146.27 27.4065 145.741 27.2477 144.894 27.089C144.048 26.9303 142.99 26.8244 141.826 26.8244C141.191 26.8244 140.503 26.8773 139.869 26.9303C139.234 26.9832 138.599 27.089 138.017 27.2477C137.435 27.3536 136.959 27.5123 136.483 27.671C136.007 27.8298 135.689 27.9885 135.425 28.1473V45.9262L142.355 46.614V50.2651H122.939Z" fill="#3D7FFC"/>
<path d="M152.416 50.5744V46.8176L156.489 46.2884V24.8056L152.733 23.5886V19.4084L162.996 18.0327L165.166 17.8184V19.2497V46.2355L169.186 46.8176V50.5744H152.416Z" fill="#3D7FFC"/>
<path d="M187.838 40.2534C186.25 40.2534 184.771 40.1432 183.456 39.9229C183.127 40.2534 182.853 40.6389 182.634 41.0796C182.415 41.5202 182.306 42.0159 182.306 42.6218C182.306 43.2828 182.415 43.8336 182.689 44.2742C182.963 44.6598 183.346 44.9903 183.894 45.2106C184.442 45.4309 185.099 45.5962 185.976 45.6512C186.852 45.7063 187.838 45.7614 188.988 45.7614H194.74C198.902 45.7614 201.97 46.4774 204.051 47.8545C206.078 49.2865 207.119 51.5999 207.119 54.7946C207.119 56.7224 206.626 58.54 205.585 60.1374C204.599 61.7347 203.23 63.0566 201.477 64.2133C199.779 65.3149 197.752 66.1962 195.506 66.8021C193.261 67.408 190.905 67.7385 188.441 67.7385H188.386C185.647 67.7385 183.346 67.5181 181.429 67.0224C179.512 66.5267 177.924 65.8657 176.664 65.0395C175.404 64.2133 174.528 63.1668 173.925 62.0101C173.323 60.8534 173.049 59.5315 173.049 58.1545C173.049 57.2732 173.213 56.447 173.542 55.6208C173.87 54.8497 174.309 54.1336 174.856 53.4726C175.404 52.8117 176.007 52.2609 176.774 51.7652C177.486 51.2694 178.252 50.8839 179.019 50.6085C177.924 50.0026 177.047 49.2865 176.445 48.4053C175.842 47.524 175.568 46.4774 175.568 45.2657C175.568 43.7785 175.952 42.5667 176.719 41.5202C177.486 40.5288 178.472 39.5924 179.677 38.8213C177.705 37.94 176.281 36.6731 175.349 35.0207C174.418 33.3683 173.925 31.4405 173.925 29.2373C173.925 27.4747 174.309 25.9325 175.075 24.5004C175.842 23.0683 176.938 21.8565 178.252 20.8651C179.622 19.8736 181.155 19.1025 182.963 18.5517C184.771 18.0009 186.688 17.7255 188.714 17.7255H188.769C193.589 17.7255 197.15 18.6619 199.505 20.5346C199.779 20.2041 200.162 19.8736 200.6 19.5431C201.039 19.2127 201.586 18.8822 202.189 18.6068C202.791 18.3314 203.449 18.1111 204.161 17.9458C204.873 17.7806 205.64 17.6704 206.461 17.6704H207.831V24.1699H202.134C202.353 24.7758 202.518 25.4367 202.627 26.0977C202.737 26.7587 202.791 27.5298 202.791 28.3009C202.791 30.0635 202.408 31.6608 201.696 33.0929C200.984 34.525 199.943 35.7918 198.629 36.8935C197.314 37.94 195.726 38.7662 193.918 39.3721C192.056 39.978 190.084 40.2534 187.838 40.2534ZM186.359 51.9855C185.099 51.9855 183.949 51.8753 182.908 51.7101C182.525 52.1507 182.141 52.7015 181.813 53.3625C181.484 54.0235 181.32 55.0149 181.32 56.1716C181.32 57.4935 181.484 58.5951 181.813 59.4764C182.141 60.3577 182.689 61.1288 183.346 61.6796C184.004 62.2304 184.88 62.6711 185.866 62.8914C186.852 63.1668 188.002 63.277 189.317 63.277H189.372C190.522 63.277 191.672 63.1668 192.822 62.8914C193.918 62.616 194.959 62.2304 195.835 61.6796C196.711 61.1288 197.424 60.4128 197.917 59.5866C198.464 58.7604 198.738 57.7689 198.738 56.6673C198.738 55.8411 198.629 55.07 198.464 54.4641C198.3 53.8582 197.971 53.3625 197.478 52.9769C196.985 52.5914 196.383 52.316 195.561 52.1507C194.74 51.9855 193.699 51.8753 192.439 51.8753H186.359V51.9855ZM188.55 36.3977C189.536 36.3977 190.358 36.1774 191.015 35.7919C191.672 35.4063 192.165 34.8555 192.549 34.1945C192.932 33.5336 193.151 32.7073 193.315 31.771C193.48 30.8346 193.535 29.8432 193.535 28.8517C193.535 26.318 193.151 24.4453 192.33 23.2886C191.508 22.1319 190.193 21.5811 188.276 21.5811H188.221C186.414 21.5811 185.099 22.187 184.278 23.3437C183.456 24.5004 183.018 26.2079 183.018 28.5763C183.018 29.733 183.127 30.7795 183.292 31.7159C183.456 32.6523 183.785 33.4785 184.168 34.1945C184.606 34.8555 185.154 35.4063 185.866 35.7919C186.578 36.1774 187.455 36.3977 188.55 36.3977Z" fill="#3D7FFC"/>
<path d="M210.93 50.5749V46.818L214.368 46.236V13.2538L210.189 12.5659V9.2853L221.034 7.90955L221.665 7.80371H222.844L222.939 18.086L222.844 22.0895C223.32 21.6132 223.627 21.5783 224.42 21.0492C225.214 20.52 226.007 20.0438 226.96 19.6205C227.912 19.1972 228.97 18.8268 230.081 18.5093C231.192 18.2448 232.409 18.086 233.626 18.086C235.424 18.086 236.959 18.3506 238.123 18.8268C239.286 19.303 240.239 20.0967 240.979 21.155C241.72 22.2133 242.143 23.5361 242.461 25.1235C242.725 26.7109 242.884 28.6158 242.884 30.7853V46.236L246.799 46.818V50.5749H231.192V46.9238L234.313 46.2889V30.7323C234.313 29.4624 234.261 28.3512 234.102 27.3988C233.996 26.4464 233.731 25.7056 233.361 25.0706C232.991 24.4356 232.515 24.0123 231.88 23.7478C231.245 23.4832 230.399 23.3244 229.393 23.3244C228.811 23.3244 228.229 23.3774 227.595 23.5361C226.96 23.6948 226.378 23.8536 225.849 24.0123C225.267 24.224 224.738 24.4356 224.262 24.7002C223.785 24.9648 223.362 25.2293 222.992 25.4939V46.2889L226.801 46.8709V50.6278H210.93V50.5749Z" fill="#3D7FFC"/>
<path d="M253.012 44.0961V23.5658H249.098V20.391C249.256 20.3381 249.468 20.2851 249.785 20.1793C250.103 20.0735 250.42 19.9148 250.79 19.809C251.108 19.7032 251.425 19.5444 251.743 19.4386C252.06 19.3328 252.219 19.2269 252.272 19.174C252.907 18.6978 253.542 17.7983 254.229 16.4754C254.441 16.105 254.6 15.6817 254.864 15.1526C255.129 14.6235 255.287 14.1472 255.499 13.6181C255.711 13.089 255.922 12.5598 256.081 12.0307C256.293 11.5016 256.398 11.0254 256.557 10.6021H261.53L261.636 18.8565H269.836V23.6187H261.636V39.0695C261.636 40.551 261.636 41.715 261.689 42.6147C261.742 43.5142 261.848 44.149 262.006 44.5724C262.165 44.9958 262.482 45.3132 262.853 45.4191C263.223 45.5249 263.752 45.6306 264.387 45.6306H264.44C264.863 45.6306 265.339 45.5777 265.868 45.5248C266.344 45.472 266.821 45.3661 267.297 45.2603C267.773 45.1544 268.196 45.0486 268.619 44.9427C269.043 44.8369 269.36 44.7312 269.624 44.6254H269.677L271 47.9059C270.418 48.3293 269.783 48.7525 268.937 49.1758C268.09 49.5992 267.244 49.9696 266.239 50.34C265.233 50.7104 264.228 50.9749 263.117 51.1866C262.006 51.3983 260.948 51.5041 259.837 51.5041H259.784C258.567 51.5041 257.509 51.3454 256.663 51.0279C255.816 50.7104 255.076 50.2341 254.547 49.5992C254.018 48.9643 253.647 48.2234 253.383 47.271C253.118 46.3186 253.012 45.3131 253.012 44.0961Z" fill="#3D7FFC"/>
<path d="M3.86842 44.3456V23.9733H0.078125V21.5182C0.61835 21.3441 1.14987 21.1613 1.67267 20.9697C2.21289 20.7782 2.60499 20.6041 2.84896 20.4474C3.42404 20.0469 3.91199 19.3939 4.3128 18.4885C4.45221 18.1751 4.62648 17.7659 4.8356 17.2609C5.04471 16.7386 5.24512 16.2075 5.43682 15.6677C5.64594 15.1279 5.82892 14.6143 5.98575 14.1267C6.16002 13.6392 6.28201 13.2561 6.35171 12.9775H9.69763V20.1862H18.4545V23.9733H9.69763V39.5921C9.69763 41.1418 9.71505 42.3519 9.74991 43.2225C9.80218 44.0931 9.92417 44.7374 10.1159 45.1553C10.325 45.5732 10.6299 45.8344 11.0308 45.9388C11.4316 46.0259 11.9805 46.0694 12.6776 46.0694H12.7037C13.2091 46.0694 13.7319 46.0346 14.2721 45.9649C14.8298 45.8953 15.37 45.8169 15.8928 45.7299C16.4156 45.6254 16.8948 45.5209 17.3305 45.4165C17.7661 45.2946 18.1147 45.1814 18.3761 45.0769H18.4022L19.291 47.6365C18.8727 47.9499 18.2977 48.2808 17.5657 48.629C16.8338 48.9598 16.0322 49.2646 15.1609 49.5432C14.307 49.8217 13.4182 50.0481 12.4946 50.2222C11.571 50.4138 10.6996 50.5095 9.8806 50.5095H9.82833C8.90471 50.5095 8.07695 50.4051 7.34503 50.1961C6.61311 49.9872 5.98575 49.6476 5.46296 49.1775C4.95758 48.69 4.56548 48.0544 4.28666 47.2709C4.00783 46.4699 3.86842 45.4948 3.86842 44.3456Z" fill="#9FC0FF"/>
<path d="M21.3515 49.909V47.036L24.5144 46.592V10.157L20.2275 9.68683V7.2056L28.9059 6.03027H29.0366L30.3175 6.94441L30.3436 18.9849L30.1345 23.7124C30.6225 23.2771 31.2324 22.8156 31.9643 22.3281C32.6962 21.8405 33.5153 21.3878 34.4215 20.9699C35.3276 20.552 36.2948 20.2125 37.323 19.9513C38.3686 19.6727 39.4403 19.5334 40.5382 19.5334C42.2286 19.5334 43.6227 19.7772 44.7206 20.2647C45.8185 20.7349 46.6898 21.4749 47.3346 22.4848C47.9968 23.4947 48.4586 24.7832 48.72 26.3503C48.9814 27.9174 49.1121 29.7805 49.1121 31.9396V46.592L52.9547 47.036V49.909H39.8063V47.0882L43.2829 46.6181V31.9135C43.2829 30.5205 43.2132 29.3017 43.0738 28.2569C42.9518 27.2122 42.6991 26.3416 42.3157 25.6451C41.9323 24.9486 41.3834 24.4263 40.6689 24.078C39.9718 23.7298 39.0482 23.5556 37.8981 23.5556C36.6259 23.5556 35.3102 23.7733 33.9509 24.2086C32.6091 24.6439 31.4067 25.2533 30.3436 26.0369V46.592L34.1339 47.036V49.909H21.3515Z" fill="#9FC0FF"/>
<path d="M66.7591 50.5097C64.5459 50.5097 62.6029 50.1267 60.9299 49.3605C59.2744 48.5944 57.8889 47.5235 56.7736 46.148C55.6583 44.7724 54.8219 43.1357 54.2642 41.2377C53.7066 39.3224 53.4277 37.2242 53.4277 34.9432C53.4277 32.6274 53.7763 30.5205 54.4733 28.6226C55.1704 26.7073 56.1376 25.0705 57.3749 23.7124C58.6296 22.3368 60.1108 21.2747 61.8187 20.5259C63.5265 19.7772 65.3911 19.4028 67.4126 19.4028C70.7062 19.4028 73.2592 20.2996 75.0716 22.093C76.884 23.8691 77.8686 26.507 78.0254 30.0069C78.0428 31.1387 78.0341 32.1312 77.9993 32.9844C77.9644 33.8201 77.8773 34.5602 77.7379 35.2044H59.649V35.3611C59.7187 37.3461 60.0063 39.0438 60.5117 40.4542C61.017 41.8646 61.6705 43.0225 62.4722 43.9279C63.2912 44.8159 64.2235 45.4689 65.2691 45.8868C66.3147 46.2873 67.4039 46.4875 68.5366 46.4875C69.286 46.4875 70.044 46.4179 70.8108 46.2786C71.5776 46.1393 72.3095 45.9564 73.0065 45.7301C73.721 45.5037 74.3658 45.2425 74.9409 44.9465C75.5334 44.6505 76.0213 44.3545 76.4047 44.0585L77.5026 46.6181C76.9972 47.1231 76.3525 47.6106 75.5683 48.0807C74.8015 48.5509 73.9389 48.9688 72.9804 49.3344C72.0394 49.6827 71.0373 49.9612 69.9743 50.1702C68.9113 50.3965 67.8396 50.5097 66.7591 50.5097ZM66.1056 22.537C65.2343 22.537 64.4239 22.6937 63.6746 23.0072C62.9252 23.3032 62.263 23.8168 61.688 24.5481C61.1303 25.2795 60.6685 26.2545 60.3025 27.4734C59.954 28.6922 59.7362 30.2245 59.649 32.0702H71.778C71.8128 31.722 71.8302 31.3563 71.8302 30.9732C71.8477 30.5902 71.8564 30.2332 71.8564 29.9024C71.8564 28.9273 71.7518 27.9958 71.5427 27.1077C71.3336 26.2197 71.0025 25.4362 70.5494 24.7571C70.0963 24.078 69.5038 23.5382 68.7719 23.1378C68.0574 22.7373 67.1686 22.537 66.1056 22.537Z" fill="#9FC0FF"/>
<path d="M0 103.399V100.526L4.31309 100.082V78.3517L0.653498 77.2025V74.0683L8.62618 72.9975H8.75688L10.1423 74.0422V100.108L14.377 100.526V103.399H0ZM6.37814 68.0611C5.87277 68.0611 5.41097 67.9741 4.99273 67.7999C4.57449 67.6084 4.21724 67.3559 3.92099 67.0425C3.62474 66.7117 3.39819 66.3286 3.24135 65.8933C3.08451 65.4406 3.00609 64.9618 3.00609 64.4568C3.00609 63.8996 3.08451 63.3685 3.24135 62.8636C3.41562 62.3586 3.65959 61.9146 3.97327 61.5316C4.30438 61.1311 4.7139 60.8176 5.20185 60.5913C5.68979 60.3475 6.25616 60.2256 6.90094 60.2256H6.92708C7.50216 60.2256 8.00753 60.3301 8.4432 60.5391C8.87886 60.748 9.24482 61.0266 9.54108 61.3748C9.83733 61.7057 10.0639 62.0887 10.2207 62.524C10.3776 62.9593 10.456 63.4121 10.456 63.8822C10.456 64.4742 10.3688 65.0227 10.1946 65.5277C10.0377 66.0326 9.78505 66.4766 9.43652 66.8597C9.10541 67.2253 8.68717 67.5213 8.1818 67.7477C7.67643 67.9567 7.08392 68.0611 6.40428 68.0611H6.37814Z" fill="#9FC0FF"/>
<path d="M17.9596 103.399V100.526L21.4623 100.082V78.3518L17.8027 77.2026V74.0684L25.2526 72.9976H25.3833L26.6642 74.0423V76.0795L26.6119 77.2026C27.187 76.6803 27.8928 76.1753 28.7292 75.6878C29.5831 75.1828 30.4893 74.7388 31.4478 74.3557C32.4062 73.9553 33.3909 73.6331 34.4016 73.3894C35.4123 73.1456 36.3795 73.0237 37.3031 73.0237C39.0284 73.0237 40.4486 73.2588 41.5639 73.7289C42.6792 74.199 43.5506 74.939 44.1779 75.949C44.8227 76.9589 45.2671 78.2474 45.5111 79.8145C45.755 81.3641 45.877 83.236 45.877 85.4299V100.082L49.7457 100.526V103.399H36.5974V100.526L40.0478 100.082V85.4038C40.0478 84.0108 39.9868 82.7919 39.8648 81.7472C39.7429 80.7025 39.4902 79.8319 39.1068 79.1354C38.7408 78.4389 38.2093 77.9165 37.5122 77.5683C36.8152 77.22 35.9003 77.0459 34.7676 77.0459C33.4431 77.0459 32.11 77.2897 30.7681 77.7772C29.4437 78.2474 28.2849 78.8481 27.2915 79.5794V100.082L30.9773 100.526V103.399H17.9596Z" fill="#9FC0FF"/>
<path d="M52.125 103.399V100.526L56.4381 100.082V78.3517L52.7785 77.2025V74.0683L60.7512 72.9975H60.8819L62.2673 74.0422V100.108L66.502 100.526V103.399H52.125ZM58.5032 68.0611C57.9978 68.0611 57.536 67.9741 57.1177 67.7999C56.6995 67.6084 56.3423 67.3559 56.046 67.0425C55.7498 66.7117 55.5232 66.3286 55.3664 65.8933C55.2095 65.4406 55.1311 64.9618 55.1311 64.4568C55.1311 63.8996 55.2095 63.3685 55.3664 62.8636C55.5406 62.3586 55.7846 61.9146 56.0983 61.5316C56.4294 61.1311 56.8389 60.8176 57.3269 60.5913C57.8148 60.3475 58.3812 60.2256 59.026 60.2256H59.0521C59.6272 60.2256 60.1326 60.3301 60.5682 60.5391C61.0039 60.748 61.3698 61.0266 61.6661 61.3748C61.9623 61.7057 62.1889 62.0887 62.3457 62.524C62.5026 62.9593 62.581 63.4121 62.581 63.8822C62.581 64.4742 62.4939 65.0227 62.3196 65.5277C62.1628 66.0326 61.9101 66.4766 61.5615 66.8597C61.2304 67.2253 60.8122 67.5213 60.3068 67.7477C59.8014 67.9567 59.2089 68.0611 58.5293 68.0611H58.5032Z" fill="#9FC0FF"/>
<path d="M72.9592 97.8359V77.4636H69.1689V75.0085C69.7091 74.8344 70.2406 74.6515 70.7634 74.46C71.3037 74.2685 71.6958 74.0944 71.9397 73.9376C72.5148 73.5372 73.0028 72.8842 73.4036 71.9788C73.543 71.6654 73.7173 71.2562 73.9264 70.7512C74.1355 70.2288 74.3359 69.6978 74.5276 69.158C74.7367 68.6182 74.9197 68.1046 75.0765 67.617C75.2508 67.1295 75.3728 66.7464 75.4425 66.4678H78.7884V73.6765H87.5453V77.4636H78.7884V93.0824C78.7884 94.632 78.8058 95.8422 78.8407 96.7128C78.893 97.5834 79.0149 98.2277 79.2066 98.6456C79.4158 99.0634 79.7207 99.3246 80.1215 99.4291C80.5224 99.5162 81.0713 99.5597 81.7684 99.5597H81.7945C82.2999 99.5597 82.8227 99.5249 83.3629 99.4552C83.9205 99.3856 84.4608 99.3072 84.9836 99.2202C85.5064 99.1157 85.9856 99.0112 86.4213 98.9067C86.8569 98.7848 87.2055 98.6717 87.4669 98.5672H87.493L88.3818 101.127C87.9635 101.44 87.3884 101.771 86.6565 102.119C85.9246 102.45 85.123 102.755 84.2516 103.034C83.3977 103.312 82.509 103.539 81.5854 103.713C80.6618 103.904 79.7904 104 78.9714 104H78.9191C77.9955 104 77.1677 103.896 76.4358 103.687C75.7039 103.478 75.0765 103.138 74.5537 102.668C74.0484 102.18 73.6563 101.545 73.3774 100.761C73.0986 99.9602 72.9592 98.9851 72.9592 97.8359Z" fill="#9FC0FF"/>
<path d="M90.082 103.399V100.526L94.3951 100.082V78.3517L90.7355 77.2025V74.0683L98.7082 72.9975H98.8389L100.225 74.0422V100.108L104.459 100.526V103.399H90.082ZM96.4601 68.0611C95.9548 68.0611 95.493 67.9741 95.0747 67.7999C94.6565 67.6084 94.2992 67.3559 94.003 67.0425C93.7067 66.7117 93.4802 66.3286 93.3233 65.8933C93.1665 65.4406 93.0881 64.9618 93.0881 64.4568C93.0881 63.8996 93.1665 63.3685 93.3233 62.8636C93.4976 62.3586 93.7416 61.9146 94.0553 61.5316C94.3864 61.1311 94.7959 60.8176 95.2838 60.5913C95.7718 60.3475 96.3382 60.2256 96.9829 60.2256H97.0091C97.5842 60.2256 98.0895 60.3301 98.5252 60.5391C98.9609 60.748 99.3268 61.0266 99.6231 61.3748C99.9193 61.7057 100.146 62.0887 100.303 62.524C100.46 62.9593 100.538 63.4121 100.538 63.8822C100.538 64.4742 100.451 65.0227 100.277 65.5277C100.12 66.0326 99.867 66.4766 99.5185 66.8597C99.1874 67.2253 98.7692 67.5213 98.2638 67.7477C97.7584 67.9567 97.1659 68.0611 96.4863 68.0611H96.4601Z" fill="#9FC0FF"/>
<path d="M107.284 95.5636C107.284 94.3099 107.519 93.1955 107.989 92.2204C108.46 91.2279 109.105 90.3573 109.924 89.6086C110.743 88.8599 111.701 88.2243 112.799 87.702C113.914 87.1796 115.108 86.753 116.38 86.4222C117.67 86.0914 119.003 85.8476 120.38 85.6909C121.774 85.5342 123.15 85.4384 124.51 85.4036V84.0193C124.51 82.8005 124.423 81.7731 124.248 80.9373C124.074 80.0841 123.769 79.3964 123.333 78.874C122.915 78.3342 122.349 77.9512 121.634 77.7248C120.92 77.481 120.014 77.3591 118.916 77.3591C117.975 77.3591 117.034 77.4462 116.093 77.6203C115.152 77.7944 114.245 78.0121 113.374 78.2733C112.52 78.5171 111.727 78.7869 110.995 79.0829C110.281 79.3615 109.68 79.6227 109.192 79.8665H109.166L107.989 77.3591C108.32 77.0457 108.904 76.6452 109.741 76.1577C110.577 75.6702 111.562 75.2 112.694 74.7473C113.845 74.2946 115.073 73.9028 116.38 73.572C117.705 73.2412 119.02 73.0757 120.327 73.0757C122.157 73.0757 123.699 73.2673 124.954 73.6503C126.226 74.016 127.254 74.6167 128.039 75.4525C128.823 76.2709 129.38 77.3417 129.712 78.6651C130.06 79.971 130.234 81.5729 130.234 83.4708V100.5H133.476V103.034C133.145 103.121 132.744 103.225 132.273 103.347C131.82 103.452 131.341 103.547 130.836 103.634C130.33 103.739 129.816 103.826 129.293 103.896C128.771 103.965 128.274 104 127.803 104C127.315 104 126.888 103.974 126.523 103.922C126.174 103.887 125.886 103.774 125.66 103.582C125.433 103.408 125.259 103.138 125.137 102.772C125.033 102.407 124.98 101.911 124.98 101.284V100.317C124.754 100.526 124.379 100.84 123.856 101.258C123.351 101.658 122.724 102.067 121.974 102.485C121.225 102.886 120.371 103.234 119.412 103.53C118.454 103.843 117.426 104 116.328 104C115.125 104 113.975 103.835 112.877 103.504C111.797 103.19 110.839 102.694 110.002 102.015C109.183 101.336 108.521 100.465 108.015 99.403C107.527 98.3234 107.284 97.0436 107.284 95.5636ZM118.576 100.004C118.942 100.004 119.378 99.9602 119.883 99.8731C120.388 99.7686 120.911 99.6293 121.451 99.4552C121.992 99.2811 122.523 99.0634 123.046 98.8023C123.586 98.5411 124.074 98.2538 124.51 97.9404V88.3288C122.419 88.3288 120.667 88.5116 119.256 88.8773C117.861 89.243 116.746 89.7305 115.91 90.3399C115.073 90.9319 114.481 91.611 114.132 92.3772C113.784 93.1433 113.609 93.9443 113.609 94.78C113.609 95.7377 113.731 96.5474 113.975 97.209C114.237 97.8707 114.585 98.4105 115.021 98.8284C115.474 99.2463 116.006 99.551 116.615 99.7425C117.225 99.9166 117.879 100.004 118.576 100.004Z" fill="#9FC0FF"/>
<path d="M139.75 97.8359V77.4636H135.96V75.0085C136.5 74.8344 137.032 74.6515 137.555 74.46C138.095 74.2685 138.487 74.0944 138.731 73.9376C139.306 73.5372 139.794 72.8842 140.195 71.9788C140.334 71.6654 140.508 71.2562 140.718 70.7512C140.927 70.2288 141.127 69.6978 141.319 69.158C141.528 68.6182 141.711 68.1046 141.868 67.617C142.042 67.1295 142.164 66.7464 142.234 66.4678H145.58V73.6765H154.336V77.4636H145.58V93.0824C145.58 94.632 145.597 95.8422 145.632 96.7128C145.684 97.5834 145.806 98.2277 145.998 98.6456C146.207 99.0634 146.512 99.3246 146.913 99.4291C147.314 99.5162 147.862 99.5597 148.56 99.5597H148.586C149.091 99.5597 149.614 99.5249 150.154 99.4552C150.712 99.3856 151.252 99.3072 151.775 99.2202C152.298 99.1157 152.777 99.0112 153.212 98.9067C153.648 98.7848 153.997 98.6717 154.258 98.5672H154.284L155.173 101.127C154.755 101.44 154.18 101.771 153.448 102.119C152.716 102.45 151.914 102.755 151.043 103.034C150.189 103.312 149.3 103.539 148.377 103.713C147.453 103.904 146.582 104 145.763 104H145.71C144.787 104 143.959 103.896 143.227 103.687C142.495 103.478 141.868 103.138 141.345 102.668C140.84 102.18 140.447 101.545 140.169 100.761C139.89 99.9602 139.75 98.9851 139.75 97.8359Z" fill="#9FC0FF"/>
<path d="M156.873 103.399V100.526L161.186 100.082V78.3517L157.527 77.2025V74.0683L165.499 72.9975H165.63L167.015 74.0422V100.108L171.25 100.526V103.399H156.873ZM163.251 68.0611C162.746 68.0611 162.284 67.9741 161.866 67.7999C161.448 67.6084 161.09 67.3559 160.794 67.0425C160.498 66.7117 160.271 66.3286 160.114 65.8933C159.958 65.4406 159.879 64.9618 159.879 64.4568C159.879 63.8996 159.958 63.3685 160.114 62.8636C160.289 62.3586 160.533 61.9146 160.846 61.5316C161.177 61.1311 161.587 60.8176 162.075 60.5913C162.563 60.3475 163.129 60.2256 163.774 60.2256H163.8C164.375 60.2256 164.881 60.3301 165.316 60.5391C165.752 60.748 166.118 61.0266 166.414 61.3748C166.71 61.7057 166.937 62.0887 167.094 62.524C167.251 62.9593 167.329 63.4121 167.329 63.8822C167.329 64.4742 167.242 65.0227 167.068 65.5277C166.911 66.0326 166.658 66.4766 166.31 66.8597C165.978 67.2253 165.56 67.5213 165.055 67.7477C164.549 67.9567 163.957 68.0611 163.277 68.0611H163.251Z" fill="#9FC0FF"/>
<path d="M184.948 103.817L174.388 77.2288L171.852 76.4975V73.6768H185.079V76.4975L180.923 77.2288L185.863 91.6723L188.32 99.0115L190.333 91.9857L195.248 77.2288L191.588 76.4975V73.6768H202.593V76.4975L199.979 77.2288L189.784 103.817H184.948Z" fill="#9FC0FF"/>
<path d="M217.049 104C214.836 104 212.893 103.617 211.22 102.851C209.565 102.085 208.179 101.014 207.064 99.6382C205.949 98.2627 205.112 96.6259 204.554 94.728C203.997 92.8127 203.718 90.7145 203.718 88.4335C203.718 86.1177 204.066 84.0108 204.764 82.1129C205.461 80.1975 206.428 78.5608 207.665 77.2026C208.92 75.8271 210.401 74.7649 212.109 74.0162C213.817 73.2675 215.681 72.8931 217.703 72.8931C220.996 72.8931 223.549 73.7898 225.362 75.5833C227.174 77.3593 228.159 79.9973 228.316 83.4971C228.333 84.6289 228.324 85.6214 228.289 86.4746C228.255 87.3104 228.167 88.0504 228.028 88.6947H209.939V88.8514C210.009 90.8364 210.296 92.5341 210.802 93.9445C211.307 95.3548 211.961 96.5128 212.762 97.4182C213.581 98.3062 214.514 98.9592 215.559 99.3771C216.605 99.7775 217.694 99.9778 218.827 99.9778C219.576 99.9778 220.334 99.9081 221.101 99.7688C221.868 99.6295 222.6 99.4467 223.297 99.2204C224.011 98.994 224.656 98.7328 225.231 98.4368C225.824 98.1408 226.312 97.8448 226.695 97.5488L227.793 100.108C227.287 100.613 226.643 101.101 225.858 101.571C225.092 102.041 224.229 102.459 223.271 102.825C222.33 103.173 221.328 103.452 220.264 103.66C219.201 103.887 218.13 104 217.049 104ZM216.396 76.0273C215.524 76.0273 214.714 76.184 213.965 76.4974C213.215 76.7934 212.553 77.3071 211.978 78.0384C211.42 78.7697 210.959 79.7448 210.593 80.9637C210.244 82.1825 210.026 83.7148 209.939 85.5605H222.068C222.103 85.2122 222.12 84.8466 222.12 84.4635C222.138 84.0804 222.147 83.7235 222.147 83.3927C222.147 82.4176 222.042 81.486 221.833 80.598C221.624 79.71 221.293 78.9264 220.84 78.2474C220.386 77.5683 219.794 77.0285 219.062 76.628C218.348 76.2275 217.459 76.0273 216.396 76.0273Z" fill="#9FC0FF"/>
</g>
<defs>
<clipPath id="clip0_4_11769">
<rect width="271" height="104" fill="white"/>
</clipPath>
</defs>
</svg>
