<svg width="12" height="9" viewBox="0 0 12 9" fill="none" xmlns="http://www.w3.org/2000/svg">
<path d="M11.1796 0.376464C11.4207 0.617586 11.5561 0.944574 11.5561 1.28552C11.5561 1.62647 11.4207 1.95345 11.1796 2.19458L4.75064 8.62355C4.50952 8.8646 4.18253 9.00002 3.84159 9.00002C3.50064 9.00002 3.17365 8.8646 2.93253 8.62355L0.360938 6.05196C0.12672 5.80946 -0.00288097 5.48466 4.86064e-05 5.14753C0.00297819 4.8104 0.138204 4.48791 0.376601 4.24951C0.614998 4.01111 0.937491 3.87589 1.27462 3.87296C1.61175 3.87003 1.93655 3.99963 2.17905 4.23385L3.84159 5.89638L9.3615 0.376464C9.60263 0.135414 9.92961 0 10.2706 0C10.6115 0 10.9385 0.135414 11.1796 0.376464Z" fill="white"/>
</svg>
