<svg width="5" height="8" viewBox="0 0 5 8" fill="none" xmlns="http://www.w3.org/2000/svg">
<path d="M2.2788 5.68642C2.28483 5.6995 2.29892 5.70555 2.31904 5.70555H4.87955C4.91275 5.70555 4.94092 5.71762 4.96507 5.74177C4.98821 5.76491 5.00028 5.79407 5.00028 5.82727V7.01547C5.00028 7.04968 4.98821 7.07785 4.96507 7.10099C4.94092 7.12514 4.91376 7.13721 4.87955 7.13721H0.171041C0.136834 7.13721 0.108657 7.12514 0.0855169 7.10099C0.0613707 7.07785 0.0503076 7.04968 0.0503076 7.01547V5.8967C0.0503076 5.83633 0.0694209 5.78603 0.110671 5.74579C0.512101 5.36951 1.04332 4.82923 1.70734 4.12296L2.30899 3.48913C2.91767 2.8573 3.22251 2.39651 3.22251 2.10776C3.22251 1.91258 3.15008 1.7516 3.00721 1.62383C2.86234 1.49606 2.67721 1.43267 2.44984 1.43267C2.22246 1.43267 2.03834 1.49606 1.89749 1.62383C1.75664 1.7516 1.68722 1.91861 1.68722 2.12787V2.36834C1.68722 2.40356 1.67515 2.43072 1.65201 2.45487C1.62786 2.47801 1.60069 2.49007 1.56648 2.49007H0.120734C0.0865266 2.49007 0.0593631 2.47801 0.0352169 2.45487C0.0120768 2.43072 0 2.40356 0 2.36834V1.8653C0.0261584 1.48902 0.150917 1.15901 0.372257 0.877306C0.592591 0.594594 0.884353 0.378281 1.24554 0.226361C1.60673 0.0754477 2.00917 0 2.45084 0C2.94584 0 3.38047 0.0925543 3.75071 0.276669C4.12297 0.46179 4.40669 0.712309 4.60388 1.02722C4.80107 1.34212 4.89967 1.69224 4.89967 2.07456C4.89967 2.35023 4.83226 2.62892 4.69845 2.91063C4.56364 3.19334 4.36342 3.49215 4.0958 3.80806C3.90866 4.03644 3.69839 4.26784 3.46397 4.50326C3.23056 4.73768 2.9056 5.0546 2.49008 5.44999L2.28886 5.64115C2.27578 5.65423 2.27175 5.66731 2.2788 5.6824V5.68642Z" fill="#252530"/>
</svg>
