<svg width="525" height="39" viewBox="0 0 525 39" fill="none" xmlns="http://www.w3.org/2000/svg">
<g clip-path="url(#clip0_4_10621)">
<mask id="mask0_4_10621" style="mask-type:luminance" maskUnits="userSpaceOnUse" x="0" y="21" width="61" height="12">
<path d="M60.8031 21.4316H0V32.2678H60.8031V21.4316Z" fill="white"/>
</mask>
<g mask="url(#mask0_4_10621)">
<path d="M11.4006 21.4395H0V32.2756H11.4006V21.4395Z" fill="#00B67A"/>
<path d="M23.7521 21.4395H12.3516V32.2756H23.7521V21.4395Z" fill="#00B67A"/>
<path d="M36.1017 21.4395H24.7012V32.2756H36.1017V21.4395Z" fill="#00B67A"/>
<path d="M48.4533 21.4395H37.0527V32.2756H48.4533V21.4395Z" fill="#00B67A"/>
<path d="M60.8038 21.4395H55.1035V32.2756H60.8038V21.4395Z" fill="#DCDCE6"/>
<path d="M58.3391 21.4395H49.3008V32.2756H58.3391V21.4395Z" fill="#00B67A"/>
<path d="M5.69918 28.7421L7.43302 28.3245L8.15743 30.4466L5.69918 28.7421ZM9.68938 25.9992H6.63736L5.69918 23.2676L4.76101 25.9992H1.70898L4.17911 27.6924L3.24094 30.424L5.71106 28.7308L7.23114 27.6924L9.68938 25.9992Z" fill="white"/>
<path d="M18.0507 28.7421L19.7846 28.3245L20.509 30.4466L18.0507 28.7421ZM22.041 25.9992H18.9889L18.0507 23.2676L17.1126 25.9992H14.0605L16.5307 27.6924L15.5925 30.424L18.0626 28.7308L19.5827 27.6924L22.041 25.9992Z" fill="white"/>
<path d="M30.4023 28.7421L32.1362 28.3245L32.8606 30.4466L30.4023 28.7421ZM34.3925 25.9992H31.3405L30.4023 23.2676L29.4641 25.9992H26.4121L28.8822 27.6924L27.9441 30.424L30.4142 28.7308L31.9343 27.6924L34.3925 25.9992Z" fill="white"/>
<path d="M42.7519 28.7421L44.4858 28.3245L45.2102 30.4466L42.7519 28.7421ZM46.7421 25.9992H43.6901L42.7519 23.2676L41.8137 25.9992H38.7617L41.2318 27.6924L40.2937 30.424L42.7638 28.7308L44.2839 27.6924L46.7421 25.9992Z" fill="white"/>
<path d="M55.1015 28.7421L56.8354 28.3245L57.5598 30.4466L55.1015 28.7421ZM59.0917 25.9992H56.0397L55.1015 23.2676L54.1634 25.9992H51.1113L53.5815 27.6924L52.6433 30.424L55.1134 28.7308L56.6335 27.6924L59.0917 25.9992Z" fill="white"/>
</g>
<path d="M13.6384 4.76758H18.8936V5.75202H16.8273V11.286H15.691V5.75202H13.6338V4.76758H13.6384ZM18.6691 6.56625H19.6404V7.47709H19.6588C19.6908 7.34828 19.7504 7.22408 19.8375 7.10447C19.9245 6.98487 20.0299 6.86986 20.1536 6.77326C20.2773 6.67206 20.4148 6.59385 20.566 6.52945C20.7172 6.46965 20.8729 6.43745 21.0287 6.43745C21.1478 6.43745 21.2349 6.44205 21.2807 6.44665C21.3265 6.45125 21.3723 6.46045 21.4227 6.46505V7.46789C21.3494 7.45409 21.2761 7.44489 21.1982 7.43569C21.1203 7.42649 21.047 7.42189 20.9737 7.42189C20.7996 7.42189 20.6347 7.45869 20.4789 7.52769C20.3231 7.59669 20.1903 7.7025 20.0757 7.8359C19.9612 7.97391 19.8695 8.13952 19.8008 8.34192C19.7321 8.54433 19.7 8.77434 19.7 9.03655V11.2814H18.6645V6.56625H18.6691ZM26.1832 11.286H25.166V10.6282H25.1477C25.0194 10.8674 24.8316 11.056 24.5796 11.1986C24.3276 11.3412 24.071 11.4148 23.8098 11.4148C23.1913 11.4148 22.7423 11.263 22.4674 10.9548C22.1925 10.6466 22.055 10.182 22.055 9.56097V6.56625H23.0905V9.45977C23.0905 9.87379 23.1684 10.1682 23.3287 10.3384C23.4845 10.5086 23.709 10.596 23.9931 10.596C24.213 10.596 24.3917 10.5638 24.5383 10.4948C24.6849 10.4258 24.8041 10.3384 24.8911 10.2234C24.9828 10.113 25.0469 9.97499 25.0881 9.81858C25.1294 9.66218 25.1477 9.49197 25.1477 9.30796V6.57085H26.1832V11.286ZM27.9471 9.77258C27.9792 10.0762 28.0938 10.2878 28.2908 10.412C28.4924 10.5316 28.7306 10.596 29.0101 10.596C29.1063 10.596 29.2163 10.5868 29.34 10.573C29.4637 10.5592 29.5828 10.527 29.6882 10.4856C29.7982 10.4442 29.8852 10.3798 29.9585 10.297C30.0272 10.2142 30.0593 10.1084 30.0547 9.97499C30.0502 9.84158 29.9998 9.73118 29.9081 9.64838C29.8165 9.56097 29.7019 9.49657 29.5599 9.44137C29.4179 9.39077 29.2575 9.34476 29.0742 9.30796C28.891 9.27116 28.7077 9.22976 28.5199 9.18836C28.3274 9.14696 28.1396 9.09175 27.9609 9.03195C27.7822 8.97215 27.6218 8.88935 27.4798 8.78354C27.3378 8.68234 27.2232 8.54893 27.1408 8.38793C27.0537 8.22692 27.0125 8.02911 27.0125 7.7899C27.0125 7.53229 27.0766 7.32068 27.2003 7.14587C27.324 6.97107 27.4844 6.83306 27.6722 6.72726C27.8647 6.62145 28.0754 6.54785 28.3091 6.50185C28.5428 6.46045 28.7673 6.43745 28.978 6.43745C29.2209 6.43745 29.4545 6.46505 29.6745 6.51565C29.8944 6.56625 30.096 6.64905 30.2747 6.76866C30.4533 6.88366 30.6 7.03547 30.7191 7.21948C30.8382 7.40348 30.9115 7.62889 30.9436 7.8911H29.8623C29.8119 7.64269 29.7019 7.47249 29.5233 7.38968C29.3446 7.30228 29.1384 7.26088 28.9093 7.26088C28.836 7.26088 28.7489 7.26548 28.6481 7.27928C28.5473 7.29308 28.4557 7.31608 28.3641 7.34828C28.277 7.38048 28.2037 7.43109 28.1396 7.49549C28.08 7.55989 28.0479 7.64269 28.0479 7.7485C28.0479 7.8773 28.0938 7.97851 28.1808 8.05671C28.2679 8.13492 28.3824 8.19932 28.5244 8.25452C28.6665 8.30512 28.8268 8.35112 29.0101 8.38793C29.1934 8.42473 29.3812 8.46613 29.5737 8.50753C29.7615 8.54893 29.9448 8.60413 30.128 8.66394C30.3113 8.72374 30.4717 8.80654 30.6137 8.91235C30.7557 9.01815 30.8703 9.14696 30.9573 9.30336C31.0444 9.45977 31.0902 9.65758 31.0902 9.88759C31.0902 10.1682 31.0261 10.4028 30.8978 10.6006C30.7695 10.7938 30.6045 10.9548 30.4029 11.0744C30.2014 11.194 29.9723 11.286 29.7248 11.3412C29.4774 11.3964 29.23 11.424 28.9872 11.424C28.6894 11.424 28.4145 11.3918 28.1625 11.3228C27.9105 11.2538 27.6906 11.1526 27.5073 11.0192C27.324 10.8812 27.1774 10.711 27.072 10.5086C26.9666 10.3062 26.9117 10.0624 26.9025 9.78178H27.9471V9.77258ZM31.3651 6.56625H32.1486V5.14939H33.1841V6.56625H34.1187V7.34368H33.1841V9.86458C33.1841 9.97499 33.1886 10.067 33.1978 10.1498C33.207 10.228 33.2299 10.297 33.262 10.3522C33.294 10.4074 33.3444 10.4488 33.4131 10.4764C33.4819 10.504 33.5689 10.5178 33.6881 10.5178C33.7614 10.5178 33.8347 10.5178 33.908 10.5132C33.9813 10.5086 34.0546 10.4994 34.1279 10.481V11.286C34.0134 11.2998 33.8988 11.309 33.7934 11.3228C33.6835 11.3366 33.5735 11.3412 33.459 11.3412C33.1841 11.3412 32.9641 11.3136 32.7992 11.263C32.6343 11.2124 32.5014 11.1342 32.4097 11.033C32.3135 10.9318 32.254 10.8076 32.2173 10.6558C32.1852 10.504 32.1623 10.3292 32.1578 10.136V7.35288H31.3743V6.56625H31.3651ZM34.8518 6.56625H35.8323V7.20568H35.8506C35.9972 6.92967 36.1988 6.73646 36.46 6.61685C36.7212 6.49725 37.0006 6.43745 37.3076 6.43745C37.6787 6.43745 37.9995 6.50185 38.2744 6.63525C38.5493 6.76406 38.7784 6.94347 38.9616 7.17348C39.1449 7.40348 39.2778 7.6703 39.3694 7.97391C39.461 8.27752 39.5069 8.60413 39.5069 8.94915C39.5069 9.26656 39.4656 9.57477 39.3832 9.86918C39.3007 10.1682 39.177 10.4304 39.012 10.6604C38.8471 10.8904 38.6363 11.0698 38.3798 11.2078C38.1232 11.3458 37.8254 11.4148 37.4772 11.4148C37.326 11.4148 37.1748 11.401 37.0236 11.3734C36.8724 11.3458 36.7257 11.2998 36.5883 11.24C36.4508 11.1802 36.318 11.102 36.2034 11.0054C36.0843 10.9088 35.9881 10.7984 35.9056 10.6742H35.8873V13.0295H34.8518V6.56625ZM38.4714 8.93075C38.4714 8.71914 38.4439 8.51213 38.3889 8.30972C38.3339 8.10731 38.2515 7.93251 38.1415 7.7761C38.0315 7.61969 37.8941 7.49549 37.7337 7.40348C37.5688 7.31148 37.3809 7.26088 37.1702 7.26088C36.7349 7.26088 36.405 7.41269 36.1851 7.7163C35.9652 8.01991 35.8552 8.42473 35.8552 8.93075C35.8552 9.16996 35.8827 9.39077 35.9423 9.59317C36.0018 9.79558 36.0843 9.97039 36.2034 10.1176C36.318 10.2648 36.4554 10.3798 36.6158 10.4626C36.7761 10.55 36.964 10.5914 37.1748 10.5914C37.413 10.5914 37.61 10.5408 37.775 10.4442C37.9399 10.3476 38.0728 10.2188 38.1782 10.067C38.2835 9.91059 38.3614 9.73578 38.4072 9.53797C38.4485 9.34016 38.4714 9.13776 38.4714 8.93075ZM40.2995 4.76758H41.335V5.75202H40.2995V4.76758ZM40.2995 6.56625H41.335V11.286H40.2995V6.56625ZM42.2605 4.76758H43.296V11.286H42.2605V4.76758ZM46.4711 11.4148C46.0954 11.4148 45.7609 11.3504 45.4677 11.2262C45.1745 11.102 44.9271 10.9272 44.7209 10.711C44.5193 10.4902 44.3635 10.228 44.2581 9.92439C44.1527 9.62077 44.0978 9.28496 44.0978 8.92155C44.0978 8.56273 44.1527 8.23152 44.2581 7.92791C44.3635 7.62429 44.5193 7.36208 44.7209 7.14127C44.9225 6.92047 45.1745 6.75026 45.4677 6.62605C45.7609 6.50185 46.0954 6.43745 46.4711 6.43745C46.8468 6.43745 47.1813 6.50185 47.4745 6.62605C47.7677 6.75026 48.0151 6.92507 48.2213 7.14127C48.4229 7.36208 48.5787 7.62429 48.6841 7.92791C48.7895 8.23152 48.8444 8.56273 48.8444 8.92155C48.8444 9.28496 48.7895 9.62077 48.6841 9.92439C48.5787 10.228 48.4229 10.4902 48.2213 10.711C48.0197 10.9318 47.7677 11.102 47.4745 11.2262C47.1813 11.3504 46.8468 11.4148 46.4711 11.4148ZM46.4711 10.5914C46.7002 10.5914 46.9018 10.5408 47.0713 10.4442C47.2408 10.3476 47.3783 10.2188 47.4882 10.0624C47.5982 9.90599 47.6761 9.72658 47.7311 9.52877C47.7815 9.33096 47.809 9.12855 47.809 8.92155C47.809 8.71914 47.7815 8.52133 47.7311 8.31892C47.6807 8.11651 47.5982 7.94171 47.4882 7.7853C47.3783 7.62889 47.2408 7.50469 47.0713 7.40809C46.9018 7.31148 46.7002 7.26088 46.4711 7.26088C46.242 7.26088 46.0404 7.31148 45.8709 7.40809C45.7014 7.50469 45.5639 7.63349 45.454 7.7853C45.344 7.94171 45.2661 8.11651 45.2111 8.31892C45.1607 8.52133 45.1332 8.71914 45.1332 8.92155C45.1332 9.12855 45.1607 9.33096 45.2111 9.52877C45.2615 9.72658 45.344 9.90599 45.454 10.0624C45.5639 10.2188 45.7014 10.3476 45.8709 10.4442C46.0404 10.5454 46.242 10.5914 46.4711 10.5914ZM49.1468 6.56625H49.9303V5.14939H50.9658V6.56625H51.9005V7.34368H50.9658V9.86458C50.9658 9.97499 50.9704 10.067 50.9795 10.1498C50.9887 10.228 51.0116 10.297 51.0437 10.3522C51.0757 10.4074 51.1261 10.4488 51.1949 10.4764C51.2636 10.504 51.3507 10.5178 51.4698 10.5178C51.5431 10.5178 51.6164 10.5178 51.6897 10.5132C51.763 10.5086 51.8363 10.4994 51.9096 10.481V11.286C51.7951 11.2998 51.6805 11.309 51.5752 11.3228C51.4652 11.3366 51.3552 11.3412 51.2407 11.3412C50.9658 11.3412 50.7459 11.3136 50.5809 11.263C50.416 11.2124 50.2831 11.1342 50.1915 11.033C50.0953 10.9318 50.0357 10.8076 49.999 10.6558C49.967 10.504 49.9441 10.3292 49.9395 10.136V7.35288H49.156V6.56625H49.1468Z" fill="#1B1B21"/>
<path d="M12.4302 4.76821H7.68357L6.21741 0.232422L4.74668 4.76821L0 4.76361L3.84408 7.56972L2.37334 12.1009L6.21741 9.2994L10.0569 12.1009L8.59075 7.56972L12.4302 4.76821Z" fill="#00B67A"/>
<path d="M8.91904 8.5942L8.58916 7.56836L6.21582 9.29803L8.91904 8.5942Z" fill="#005128"/>
</g>
<path d="M112.393 11.3831C111.841 11.3831 111.354 11.2763 110.934 11.0626C110.514 10.8415 110.19 10.532 109.962 10.1342C109.733 9.73626 109.619 9.27941 109.619 8.76362V6.08889C109.619 5.56573 109.733 5.10889 109.962 4.71836C110.19 4.32047 110.514 4.01468 110.934 3.80099C111.354 3.57994 111.841 3.46941 112.393 3.46941C112.939 3.46941 113.418 3.57626 113.83 3.78994C114.25 4.00362 114.574 4.29468 114.803 4.6631C115.031 5.03152 115.145 5.44784 115.145 5.91205V6.00047C115.145 6.03731 115.131 6.07047 115.101 6.09994C115.079 6.12205 115.05 6.1331 115.013 6.1331H114.007C113.97 6.1331 113.937 6.12205 113.908 6.09994C113.885 6.07047 113.874 6.03731 113.874 6.00047V5.9452C113.874 5.54731 113.738 5.21941 113.465 4.96152C113.2 4.70362 112.843 4.57468 112.393 4.57468C111.944 4.57468 111.583 4.71099 111.31 4.98362C111.038 5.24889 110.901 5.60257 110.901 6.04468V8.80784C110.901 9.24994 111.045 9.60731 111.332 9.87994C111.62 10.1452 111.992 10.2778 112.449 10.2778C112.891 10.2778 113.237 10.1636 113.488 9.9352C113.745 9.69941 113.874 9.37889 113.874 8.97362V8.28836C113.874 8.25152 113.856 8.2331 113.819 8.2331H112.46C112.423 8.2331 112.39 8.22205 112.36 8.19994C112.338 8.17047 112.327 8.13731 112.327 8.10047V7.28257C112.327 7.24573 112.338 7.21626 112.36 7.19415C112.39 7.16468 112.423 7.14994 112.46 7.14994H115.013C115.05 7.14994 115.079 7.16468 115.101 7.19415C115.131 7.21626 115.145 7.24573 115.145 7.28257V8.69731C115.145 9.54468 114.895 10.2042 114.394 10.6757C113.9 11.1473 113.233 11.3831 112.393 11.3831ZM118.044 10.1231C118.03 10.1378 118.022 10.1526 118.022 10.1673C118.03 10.182 118.044 10.1894 118.066 10.1894H121.216C121.253 10.1894 121.283 10.2042 121.305 10.2336C121.334 10.2557 121.349 10.2852 121.349 10.322V11.162C121.349 11.1989 121.334 11.232 121.305 11.2615C121.283 11.2836 121.253 11.2947 121.216 11.2947H116.464C116.427 11.2947 116.394 11.2836 116.364 11.2615C116.342 11.232 116.331 11.1989 116.331 11.162V10.3663C116.331 10.2999 116.353 10.2447 116.398 10.2005C116.958 9.60362 117.606 8.87047 118.343 8.00099L118.862 7.3931C119.54 6.60468 119.879 6.00784 119.879 5.60257C119.879 5.30047 119.772 5.05362 119.559 4.86205C119.345 4.67047 119.069 4.57468 118.73 4.57468C118.391 4.57468 118.114 4.67047 117.901 4.86205C117.694 5.05362 117.591 5.30783 117.591 5.62468V5.91205C117.591 5.94889 117.576 5.98205 117.547 6.01152C117.525 6.03362 117.495 6.04468 117.459 6.04468H116.431C116.394 6.04468 116.361 6.03362 116.331 6.01152C116.309 5.98205 116.298 5.94889 116.298 5.91205V5.43678C116.313 5.03889 116.427 4.69257 116.641 4.39784C116.854 4.1031 117.142 3.87468 117.503 3.71257C117.871 3.55047 118.28 3.46941 118.73 3.46941C119.223 3.46941 119.654 3.56152 120.023 3.74573C120.391 3.92994 120.675 4.18415 120.874 4.50836C121.073 4.8252 121.172 5.18257 121.172 5.58047C121.172 6.18468 120.852 6.88099 120.211 7.66941C119.857 8.11152 119.275 8.77468 118.464 9.65889L118.044 10.1231Z" fill="#303B45"/>
<mask id="mask1_4_10621" style="mask-type:luminance" maskUnits="userSpaceOnUse" x="91" y="1" width="15" height="14">
<path d="M105.047 1.52515H91.8027V14.1673H105.047V1.52515Z" fill="white"/>
</mask>
<g mask="url(#mask1_4_10621)">
<path d="M98.4249 14.1674C102.082 14.1674 105.047 11.3373 105.047 7.84626C105.047 4.35521 102.082 1.52515 98.4249 1.52515C94.7676 1.52515 91.8027 4.35521 91.8027 7.84626C91.8027 11.3373 94.7676 14.1674 98.4249 14.1674Z" fill="#FF492C"/>
<path d="M101.292 6.3688H100.161C100.192 6.19939 100.301 6.10458 100.524 5.99712L100.732 5.89598C101.104 5.71393 101.303 5.50786 101.303 5.17158C101.303 4.96046 101.217 4.79358 101.046 4.67348C100.875 4.55338 100.674 4.49396 100.438 4.49396C100.255 4.49191 100.076 4.54068 99.9227 4.63429C99.7677 4.72531 99.6525 4.84288 99.581 4.98953L99.9081 5.30306C100.035 5.0578 100.219 4.9377 100.462 4.9377C100.667 4.9377 100.793 5.03884 100.793 5.17917C100.793 5.29674 100.732 5.39408 100.496 5.50786L100.362 5.56981C100.072 5.71014 99.871 5.8707 99.7545 6.05274C99.6379 6.23479 99.581 6.46362 99.581 6.74048V6.81633H101.292V6.3688ZM101.141 7.33214H99.2684L98.332 8.87954H100.205L101.141 10.4282L102.078 8.87954L101.141 7.33214Z" fill="white"/>
<path d="M98.4909 9.90463C97.2989 9.90463 96.3281 8.97795 96.3281 7.84015C96.3281 6.70235 97.2989 5.77568 98.4909 5.77568L99.2313 4.2978C98.9875 4.25152 98.7395 4.22823 98.4909 4.22827C96.401 4.22827 94.707 5.84521 94.707 7.84015C94.707 9.8351 96.401 11.452 98.4909 11.452C99.2918 11.4535 100.072 11.2107 100.719 10.7592L99.9001 9.404C99.5085 9.72687 99.0083 9.90457 98.4909 9.90463Z" fill="white"/>
</g>
<mask id="mask2_4_10621" style="mask-type:luminance" maskUnits="userSpaceOnUse" x="91" y="21" width="60" height="12">
<path d="M150.417 21.3689H91.8027V32.2051H150.417V21.3689Z" fill="white"/>
</mask>
<g mask="url(#mask2_4_10621)">
<path d="M140.017 25.7491L143.089 25.2525L144.744 22.4983L145.268 23.6915L146.06 24.4656L146.456 25.2525V30.6577L144.697 29.7224L141.813 31.0769L142.191 27.9615L140.017 25.7491ZM92.7949 25.8394L95.8674 25.3428L97.4746 22.408L98.9399 25.2976L102.249 25.8394L99.9326 28.0067L100.405 31.1672L97.4746 29.8127L94.5439 31.1672L94.922 28.0518L92.7949 25.8394ZM104.565 25.8394L107.637 25.3428L109.245 22.408L110.757 25.2976L114.019 25.8394L111.703 28.0067L112.223 31.1672L109.245 29.8127L106.361 31.1672L106.739 28.0518L104.565 25.8394ZM116.571 25.8394L119.644 25.3428L121.251 22.408L122.716 25.2976L126.025 25.8394L123.709 28.0067L124.229 31.1672L121.251 29.8127L118.32 31.1672L118.699 28.0518L116.571 25.8394ZM128.2 25.8394L131.272 25.3428L132.879 22.408L134.392 25.2976L137.654 25.8394L135.337 28.0067L135.857 31.1672L132.879 29.8127L129.996 31.1672L130.374 28.0518L128.2 25.8394Z" fill="#FF492C"/>
<path d="M103.147 25.5626L99.224 25.0208L97.4751 21.6345L95.7261 25.0208L91.8027 25.5626L94.6389 28.1814L93.9771 31.9289L97.4751 30.168L100.973 31.9289L100.311 28.1814L103.147 25.5626ZM97.4751 29.3553L95.017 30.6195L95.4897 28.0008L93.5044 26.1496L96.2933 25.7432L97.5223 23.3502L98.7513 25.7432L101.54 26.1496L99.5549 28.0008L100.028 30.6195L97.4751 29.3553ZM114.965 25.5626L111.041 25.0208L109.292 21.6345L107.543 25.0208L103.62 25.5626L106.456 28.1814L105.794 31.9289L109.292 30.168L112.79 31.9289L112.129 28.1814L114.965 25.5626ZM109.292 29.3553L106.834 30.6195L107.307 28.0008L105.322 26.1496L108.111 25.7432L109.34 23.3502L110.569 25.7432L113.358 26.1496L111.372 28.0008L111.845 30.6195L109.292 29.3553ZM126.782 25.5626L122.859 25.0208L121.11 21.6345L119.361 25.0208L115.437 25.5626L118.274 28.1814L117.612 31.9289L121.11 30.168L124.608 31.9289L123.946 28.1814L126.782 25.5626ZM121.11 29.3553L118.652 30.6195L119.124 28.0008L117.139 26.1496L119.928 25.7432L121.157 23.3502L122.386 25.7432L125.175 26.1496L123.19 28.0008L123.662 30.6195L121.11 29.3553ZM138.599 25.5626L134.676 25.0208L132.927 21.6345L131.178 25.0208L127.255 25.5626L130.091 28.1814L129.429 31.9289L132.927 30.168L136.425 31.9289L135.763 28.1814L138.599 25.5626ZM132.927 29.3553L130.469 30.6195L130.942 28.0008L128.956 26.1496L131.745 25.7432L132.974 23.3502L134.203 25.7432L136.992 26.1496L135.007 28.0008L135.48 30.6195L132.927 29.3553ZM150.417 25.5626L146.493 25.0208L144.744 21.6345L142.995 25.0208L139.072 25.5626L141.908 28.1814L141.246 31.9289L144.744 30.168L148.242 31.9289L147.581 28.1814L150.417 25.5626ZM144.744 29.3553L142.286 30.6195L142.759 28.0008L140.774 26.1496L143.563 25.7432L144.792 23.3502L146.021 25.7432L148.81 26.1496L146.824 28.0008L147.297 30.6195L144.744 29.3553Z" fill="#FF492C"/>
</g>
<mask id="path-24-inside-1_4_10621" fill="white">
<path d="M76 0H77V39H76V0Z"/>
</mask>
<path d="M77 39V0H75V39H77Z" fill="#D2DCE4" mask="url(#path-24-inside-1_4_10621)"/>
<g clip-path="url(#clip1_4_10621)">
<mask id="mask3_4_10621" style="mask-type:luminance" maskUnits="userSpaceOnUse" x="181" y="20" width="60" height="12">
<path d="M240.031 20.6521H181.417V31.4883H240.031V20.6521Z" fill="white"/>
</mask>
<g mask="url(#mask3_4_10621)">
<path d="M229.633 25.0323L232.706 24.5357L234.36 21.7815L234.884 22.9747L235.676 23.7488L236.072 24.626L238.824 25.3154L236.73 27.5382L237.388 30.4504L236.072 29.9409L234.313 29.0056L231.429 30.3601L231.808 27.2447L229.633 25.0323ZM182.411 25.1226L185.484 24.626L187.091 21.6912L188.556 24.5808L191.865 25.1226L189.549 27.2899L190.021 30.4504L187.091 29.0959L184.16 30.4504L184.538 27.335L182.411 25.1226ZM194.181 25.1226L197.254 24.626L198.861 21.6912L200.374 24.5808L203.635 25.1226L201.319 27.2899L201.839 30.4504L198.861 29.0959L195.977 30.4504L196.356 27.335L194.181 25.1226ZM206.188 25.1226L209.26 24.626L210.867 21.6912L212.333 24.5808L215.641 25.1226L213.325 27.2899L213.845 30.4504L210.867 29.0959L207.937 30.4504L208.315 27.335L206.188 25.1226ZM217.816 25.1226L220.888 24.626L222.496 21.6912L224.008 24.5808L227.27 25.1226L224.954 27.2899L225.474 30.4504L222.496 29.0959L219.612 30.4504L219.99 27.335L217.816 25.1226Z" fill="#FF9D28"/>
<path d="M192.762 24.8536L188.838 24.3118L187.089 20.9255L185.34 24.3118L181.417 24.8536L184.253 27.4724L183.591 31.2199L187.089 29.459L190.587 31.2199L189.925 27.4724L192.762 24.8536ZM187.089 28.6463L184.631 29.9105L185.104 27.2918L183.119 25.4406L185.908 25.0343L187.137 22.6413L188.366 25.0343L191.155 25.4406L189.169 27.2918L189.642 29.9105L187.089 28.6463ZM204.579 24.8536L200.656 24.3118L198.907 20.9255L197.158 24.3118L193.234 24.8536L196.071 27.4724L195.409 31.2199L198.907 29.459L202.405 31.2199L201.743 27.4724L204.579 24.8536ZM198.907 28.6463L196.449 29.9105L196.921 27.2918L194.936 25.4406L197.725 25.0343L198.954 22.6413L200.183 25.0343L202.972 25.4406L200.986 27.2918L201.459 29.9105L198.907 28.6463ZM216.396 24.8536L212.473 24.3118L210.724 20.9255L208.975 24.3118L205.052 24.8536L207.888 27.4724L207.226 31.2199L210.724 29.459L214.222 31.2199L213.56 27.4724L216.396 24.8536ZM210.724 28.6463L208.266 29.9105L208.739 27.2918L206.753 25.4406L209.542 25.0343L210.771 22.6413L212 25.0343L214.789 25.4406L212.804 27.2918L213.277 29.9105L210.724 28.6463ZM228.214 24.8536L224.29 24.3118L222.541 20.9255L220.792 24.3118L216.869 24.8536L219.705 27.4724L219.043 31.2199L222.541 29.459L226.039 31.2199L225.377 27.4724L228.214 24.8536ZM222.541 28.6463L220.083 29.9105L220.556 27.2918L218.571 25.4406L221.36 25.0343L222.589 22.6413L223.818 25.0343L226.606 25.4406L224.621 27.2918L225.094 29.9105L222.541 28.6463ZM240.031 24.8536L236.108 24.3118L234.359 20.9255L232.61 24.3118L228.686 24.8536L231.522 27.4724L230.861 31.2199L234.359 29.459L237.856 31.2199L237.195 27.4724L240.031 24.8536ZM234.359 28.6463L231.901 29.9105L232.373 27.2918L230.388 25.4406L233.177 25.0343L234.406 22.6413L235.635 25.0343L238.424 25.4406L236.438 27.2918L236.911 29.9105L234.359 28.6463Z" fill="#FF9D28"/>
</g>
<mask id="mask4_4_10621" style="mask-type:luminance" maskUnits="userSpaceOnUse" x="181" y="1" width="58" height="14">
<path d="M238.417 1.01147H181.417V14.1215H238.417V1.01147Z" fill="white"/>
</mask>
<g mask="url(#mask4_4_10621)">
<path d="M181.755 5.85456L186.892 5.85559L190.015 5.85612V2.76147L181.755 5.85456Z" fill="#FF9D28"/>
<path d="M190.016 2.75401V13.6797L193.917 1.29272L190.016 2.75401Z" fill="#68C5ED"/>
<path d="M190.016 5.85576L186.893 5.85522L190.016 13.6868V5.85576Z" fill="#044D80"/>
<path d="M181.755 5.84741L187.693 7.8579L186.892 5.84844L181.755 5.84741Z" fill="#E54747"/>
<path d="M200.679 10.8019C200.633 10.8472 200.558 10.9037 200.452 10.9716C200.347 11.0395 200.209 11.1074 200.039 11.1753C199.87 11.2431 199.662 11.3015 199.417 11.3507C199.172 11.3996 198.891 11.4242 198.574 11.4242C197.963 11.4242 197.435 11.3261 196.99 11.1301C196.545 10.9341 196.177 10.6604 195.887 10.3097C195.596 9.95893 195.383 9.54414 195.248 9.06501C195.112 8.58603 195.044 8.05993 195.044 7.48656C195.044 6.91342 195.118 6.38337 195.265 5.89683C195.412 5.41025 195.632 4.98988 195.926 4.63517C196.221 4.28072 196.588 4.00346 197.03 3.8035C197.471 3.60376 197.989 3.50366 198.585 3.50366C198.88 3.50366 199.145 3.53015 199.383 3.58286C199.621 3.63568 199.828 3.69797 200.005 3.76956C200.183 3.84135 200.33 3.91663 200.447 3.99586C200.564 4.07506 200.652 4.14122 200.713 4.19385C200.78 4.25435 200.839 4.32595 200.888 4.40883C200.937 4.49194 200.962 4.58246 200.962 4.68043C200.962 4.83141 200.905 4.9822 200.792 5.13303C200.679 5.28401 200.554 5.42355 200.418 5.5517C200.328 5.46118 200.226 5.36891 200.113 5.27451C200 5.18023 199.873 5.09735 199.734 5.02556C199.594 4.95397 199.436 4.89366 199.259 4.84452C199.081 4.79554 198.883 4.77095 198.665 4.77095C198.28 4.77095 197.958 4.8484 197.697 5.00291C197.437 5.15762 197.228 5.35933 197.069 5.60828C196.911 5.85723 196.798 6.14202 196.73 6.46256C196.662 6.78326 196.628 7.10947 196.628 7.44134C196.628 7.79597 196.662 8.13541 196.73 8.45964C196.798 8.78402 196.915 9.07075 197.081 9.31958C197.246 9.5685 197.463 9.76846 197.731 9.91925C197.999 10.0703 198.333 10.1456 198.733 10.1456C198.944 10.1456 199.138 10.1193 199.315 10.0664C199.492 10.0137 199.649 9.9495 199.785 9.87396C199.921 9.79871 200.039 9.71955 200.141 9.63648C200.243 9.55348 200.328 9.48193 200.396 9.42143C200.441 9.47433 200.494 9.53851 200.554 9.61383C200.615 9.68995 200.672 9.76927 200.724 9.85146C200.777 9.93453 200.822 10.0175 200.86 10.1003C200.897 10.1834 200.916 10.2588 200.916 10.3266C200.916 10.4248 200.897 10.5077 200.86 10.5755C200.822 10.6435 200.761 10.719 200.679 10.8019ZM206.509 9.93407C206.509 10.5336 206.597 10.97 206.771 11.2432C206.635 11.2962 206.507 11.3342 206.39 11.357C206.272 11.3798 206.149 11.3911 206.02 11.3911C205.747 11.3911 205.54 11.338 205.4 11.2318C205.259 11.1256 205.17 10.9738 205.132 10.7764C204.965 10.9512 204.745 11.0991 204.472 11.2205C204.199 11.3417 203.865 11.4026 203.47 11.4026C203.265 11.4026 203.061 11.3742 202.856 11.3176C202.651 11.2606 202.465 11.1681 202.298 11.0397C202.131 10.911 201.994 10.7388 201.888 10.5232C201.782 10.3076 201.729 10.0448 201.729 9.73468C201.729 9.34888 201.822 9.03483 202.008 8.79288C202.193 8.55069 202.427 8.35973 202.708 8.21973C202.988 8.07989 203.292 7.98363 203.618 7.93054C203.944 7.87753 204.244 7.84359 204.517 7.82828C204.609 7.82079 204.698 7.81687 204.785 7.81687H205.03V7.60969C205.03 7.31799 204.952 7.11076 204.796 6.98805C204.641 6.86531 204.388 6.80378 204.039 6.80378C203.713 6.80378 203.423 6.85695 203.169 6.96312C202.914 7.06949 202.666 7.19079 202.423 7.32741C202.317 7.19843 202.231 7.05619 202.167 6.90054C202.102 6.74511 202.07 6.62932 202.07 6.55335C202.07 6.44717 202.129 6.34472 202.247 6.24599C202.364 6.14749 202.526 6.05819 202.73 5.9785C202.935 5.89881 203.17 5.83443 203.436 5.78499C203.702 5.7357 203.983 5.711 204.278 5.711C204.688 5.711 205.035 5.7528 205.32 5.83622C205.605 5.91982 205.836 6.04876 206.014 6.22323C206.193 6.39792 206.32 6.61598 206.396 6.87777C206.471 7.13961 206.509 7.44518 206.509 7.79411V9.93407ZM205.052 8.61366H204.893C204.84 8.61366 204.787 8.61761 204.734 8.6251C204.544 8.64038 204.356 8.6631 204.17 8.69331C203.984 8.72375 203.819 8.77688 203.675 8.85273C203.531 8.92866 203.413 9.02739 203.322 9.14865C203.231 9.27014 203.186 9.4258 203.186 9.61543C203.186 9.82793 203.246 10.0081 203.368 10.1561C203.489 10.3041 203.694 10.3781 203.982 10.3781C204.127 10.3781 204.263 10.3592 204.392 10.3211C204.521 10.2833 204.635 10.234 204.734 10.1732C204.832 10.1125 204.91 10.0461 204.967 9.97394C205.024 9.90192 205.052 9.83557 205.052 9.77481L205.052 8.61366ZM209.344 6.37117C209.465 6.2271 209.654 6.08091 209.911 5.93289C210.168 5.78491 210.493 5.71093 210.887 5.71093C211.167 5.71093 211.433 5.75839 211.687 5.8532C211.94 5.94817 212.165 6.10189 212.362 6.31424C212.559 6.52679 212.716 6.80762 212.833 7.15659C212.95 7.50575 213.009 7.9346 213.009 8.44288C213.009 9.0348 212.941 9.52251 212.805 9.90565C212.668 10.289 212.493 10.5926 212.277 10.8164C212.061 11.0402 211.821 11.1977 211.556 11.2887C211.292 11.3798 211.027 11.4254 210.762 11.4254C210.543 11.4254 210.352 11.4007 210.189 11.3514C210.026 11.302 209.888 11.2471 209.775 11.1863C209.661 11.1257 209.575 11.065 209.514 11.0042C209.454 10.9435 209.416 10.9017 209.401 10.8789V13.6771H207.853V5.87027C207.891 5.86282 207.936 5.85518 207.99 5.84754C208.036 5.84009 208.09 5.83436 208.151 5.83044C208.212 5.82672 208.285 5.82478 208.369 5.82478C208.621 5.82478 208.835 5.86658 209.011 5.94999C209.187 6.0336 209.298 6.1739 209.344 6.37117ZM211.392 8.47701C211.392 8.24937 211.374 8.03702 211.336 7.8396C211.298 7.64237 211.236 7.47159 211.149 7.32737C211.062 7.18327 210.945 7.07124 210.798 6.99151C210.651 6.91186 210.472 6.87207 210.261 6.87207C209.944 6.87207 209.723 6.93288 209.599 7.05414C209.474 7.17563 209.412 7.30852 209.412 7.45259V9.86586C209.472 9.92666 209.58 9.99864 209.734 10.0821C209.889 10.1657 210.068 10.2073 210.272 10.2073C210.657 10.2073 210.94 10.0556 211.121 9.75201C211.302 9.44852 211.392 9.02343 211.392 8.47701ZM214.204 10.435C214.15 10.2833 214.116 10.1239 214.101 9.95687C214.086 9.79001 214.078 9.6231 214.078 9.45593V4.17417C214.131 4.16672 214.188 4.15908 214.249 4.1514C214.302 4.14396 214.359 4.13829 214.42 4.13434C214.481 4.13062 214.541 4.12868 214.602 4.12868C214.723 4.12868 214.845 4.14008 214.966 4.1628C215.088 4.18561 215.198 4.23113 215.296 4.29938C215.395 4.36767 215.475 4.46074 215.535 4.57828C215.596 4.69601 215.626 4.84973 215.626 5.03928V5.84747H217.22V6.99725H215.626V9.4247C215.626 9.95406 215.843 10.2187 216.275 10.2187C216.381 10.2187 216.482 10.2017 216.577 10.1674C216.672 10.1333 216.757 10.0954 216.833 10.0537C216.909 10.0119 216.975 9.96831 217.032 9.92275C217.089 9.87719 217.129 9.8431 217.152 9.82033C217.266 9.98739 217.353 10.132 217.414 10.254C217.474 10.3762 217.505 10.4908 217.505 10.598C217.505 10.6976 217.465 10.7954 217.385 10.8911C217.305 10.9868 217.193 11.075 217.049 11.1554C216.905 11.2358 216.731 11.3008 216.526 11.3507C216.321 11.4005 216.097 11.4254 215.854 11.4254C215.383 11.4254 215.017 11.3343 214.756 11.1522C214.494 10.97 214.31 10.7309 214.204 10.435ZM221.141 10.287C221.331 10.287 221.499 10.2662 221.643 10.2244C221.788 10.1828 221.917 10.1315 222.032 10.0708C222.146 10.0102 222.245 9.94373 222.329 9.8716C222.412 9.79955 222.489 9.73316 222.557 9.67232C222.649 9.78609 222.744 9.93232 222.843 10.1105C222.942 10.289 222.991 10.435 222.991 10.5488C222.991 10.7158 222.896 10.8676 222.707 11.0042C222.547 11.1257 222.321 11.23 222.029 11.3172C221.737 11.4044 221.394 11.4481 220.999 11.4481C220.642 11.4481 220.292 11.4026 219.946 11.3115C219.601 11.2205 219.294 11.0611 219.024 10.8334C218.755 10.6058 218.537 10.3004 218.37 9.91709C218.203 9.53388 218.119 9.05019 218.119 8.46568C218.119 7.98754 218.193 7.57602 218.341 7.23062C218.489 6.88537 218.687 6.59888 218.933 6.37121C219.18 6.14354 219.459 5.97671 219.77 5.87031C220.081 5.76417 220.4 5.71096 220.726 5.71096C221.151 5.71096 221.511 5.7775 221.807 5.91017C222.103 6.04302 222.344 6.2214 222.53 6.4452C222.716 6.66907 222.851 6.9252 222.934 7.21356C223.018 7.50203 223.06 7.80547 223.06 8.1242V8.28354C223.06 8.34442 223.058 8.40875 223.054 8.47704C223.05 8.54541 223.046 8.61191 223.043 8.67625C223.039 8.74089 223.033 8.79204 223.025 8.82997H219.667C219.698 9.24738 219.827 9.59453 220.056 9.8716C220.284 10.1487 220.646 10.287 221.141 10.287ZM221.659 7.97618C221.659 7.61193 221.589 7.31597 221.448 7.0883C221.306 6.86067 221.053 6.74678 220.686 6.74678C220.373 6.74678 220.123 6.85497 219.937 7.07124C219.749 7.28755 219.656 7.58917 219.656 7.97614L221.659 7.97618ZM225.754 6.39994C225.799 6.33222 225.86 6.25697 225.936 6.17405C226.011 6.09121 226.104 6.01593 226.214 5.94821C226.324 5.88045 226.446 5.82387 226.579 5.77872C226.711 5.73354 226.854 5.71096 227.006 5.71096C227.097 5.71096 227.193 5.7186 227.296 5.73354C227.398 5.74866 227.493 5.77693 227.58 5.8182C227.668 5.85966 227.738 5.91602 227.791 5.98754C227.844 6.05906 227.871 6.14745 227.871 6.25276C227.871 6.41833 227.829 6.60849 227.745 6.82316C227.662 7.03803 227.579 7.22123 227.495 7.37294C227.366 7.26672 227.237 7.18513 227.108 7.12821C226.979 7.07132 226.827 7.04281 226.653 7.04281C226.417 7.04281 226.22 7.11133 226.061 7.24825C225.901 7.38521 225.822 7.54885 225.822 7.73912V11.4241H224.274V5.87027C224.312 5.86282 224.357 5.85518 224.41 5.84754C224.456 5.84009 224.509 5.83436 224.57 5.83044C224.63 5.82672 224.702 5.82478 224.786 5.82478C225.029 5.82478 225.239 5.87186 225.418 5.96584C225.596 6.05971 225.708 6.20449 225.754 6.39994ZM230.155 6.39994C230.2 6.33222 230.261 6.25697 230.337 6.17405C230.413 6.09121 230.506 6.01593 230.616 5.94821C230.726 5.88045 230.847 5.82387 230.98 5.77872C231.113 5.73354 231.255 5.71096 231.407 5.71096C231.498 5.71096 231.595 5.7186 231.697 5.73354C231.799 5.74866 231.894 5.77693 231.982 5.8182C232.069 5.85966 232.139 5.91602 232.192 5.98754C232.245 6.05906 232.272 6.14745 232.272 6.25276C232.272 6.41833 232.23 6.60849 232.147 6.82316C232.063 7.03803 231.98 7.22123 231.896 7.37294C231.767 7.26672 231.638 7.18513 231.509 7.12821C231.38 7.07132 231.228 7.04281 231.054 7.04281C230.819 7.04281 230.621 7.11133 230.462 7.24825C230.303 7.38521 230.223 7.54885 230.223 7.73912V11.4241H228.675V5.87027C228.713 5.86282 228.758 5.85518 228.812 5.84754C228.857 5.84009 228.91 5.83436 228.971 5.83044C229.032 5.82672 229.104 5.82478 229.187 5.82478C229.43 5.82478 229.641 5.87186 229.819 5.96584C229.997 6.05971 230.109 6.20449 230.155 6.39994ZM237.542 9.93407C237.542 10.5336 237.629 10.97 237.804 11.2432C237.667 11.2962 237.54 11.3342 237.423 11.357C237.305 11.3798 237.182 11.3911 237.053 11.3911C236.78 11.3911 236.573 11.338 236.432 11.2318C236.292 11.1256 236.203 10.9738 236.165 10.7764C235.998 10.9512 235.778 11.0991 235.505 11.2205C235.232 11.3417 234.898 11.4026 234.503 11.4026C234.298 11.4026 234.093 11.3742 233.888 11.3176C233.683 11.2606 233.497 11.1681 233.331 11.0397C233.164 10.911 233.027 10.7388 232.921 10.5232C232.815 10.3076 232.762 10.0448 232.762 9.73468C232.762 9.34888 232.854 9.03483 233.04 8.79288C233.226 8.55069 233.46 8.35973 233.74 8.21973C234.021 8.07989 234.325 7.98363 234.651 7.93054C234.977 7.87753 235.277 7.84359 235.55 7.82828C235.641 7.82079 235.73 7.81687 235.818 7.81687H236.063V7.60969C236.063 7.31799 235.985 7.11076 235.829 6.98805C235.673 6.86531 235.421 6.80378 235.072 6.80378C234.746 6.80378 234.456 6.85695 234.201 6.96312C233.947 7.06949 233.699 7.19079 233.456 7.32741C233.35 7.19843 233.264 7.05619 233.2 6.90054C233.135 6.74511 233.103 6.62932 233.103 6.55335C233.103 6.44717 233.162 6.34472 233.279 6.24599C233.397 6.14749 233.558 6.05819 233.763 5.9785C233.968 5.89881 234.203 5.83443 234.469 5.78499C234.734 5.7357 235.015 5.711 235.311 5.711C235.721 5.711 236.068 5.7528 236.353 5.83622C236.637 5.91982 236.869 6.04876 237.047 6.22323C237.225 6.39792 237.352 6.61598 237.428 6.87777C237.504 7.13961 237.542 7.44518 237.542 7.79411V9.93407ZM236.085 8.61366H235.926C235.873 8.61366 235.82 8.61761 235.767 8.6251C235.577 8.64038 235.389 8.6631 235.203 8.69331C235.017 8.72375 234.852 8.77688 234.708 8.85273C234.564 8.92866 234.446 9.02739 234.355 9.14865C234.264 9.27014 234.218 9.4258 234.218 9.61543C234.218 9.82793 234.279 10.0081 234.401 10.1561C234.522 10.3041 234.727 10.3781 235.015 10.3781C235.159 10.3781 235.296 10.3592 235.425 10.3211C235.554 10.2833 235.668 10.234 235.767 10.1732C235.865 10.1125 235.943 10.0461 236 9.97394C236.057 9.90192 236.085 9.83557 236.085 9.77481V8.61366Z" fill="#044D80"/>
</g>
</g>
<mask id="path-35-inside-2_4_10621" fill="white">
<path d="M166 1H167V38H166V1Z"/>
</mask>
<path d="M167 38V1H165V38H167Z" fill="#D2DCE4" mask="url(#path-35-inside-2_4_10621)"/>
<defs>
<clipPath id="clip0_4_10621">
<rect width="61" height="33" fill="white"/>
</clipPath>
<clipPath id="clip1_4_10621">
<rect width="60" height="31" fill="white" transform="translate(181 1)"/>
</clipPath>
</defs>
</svg>
