<svg width="5" height="8" viewBox="0 0 5 8" fill="none" xmlns="http://www.w3.org/2000/svg">
<path d="M0.664748 6.63236C0.221244 6.19795 0 5.60594 0 4.85633V2.38725C0 1.64572 0.221244 1.06179 0.664748 0.636469C1.10825 0.211149 1.71643 0 2.49029 0C3.26314 0 3.87435 0.214185 4.32391 0.641525C4.77449 1.06988 4.99978 1.65279 4.99978 2.38725V4.85633C4.99978 5.60493 4.77449 6.19694 4.32391 6.63236C3.87435 7.06677 3.26213 7.286 2.49029 7.286C1.71845 7.286 1.10926 7.0688 0.664748 6.63236ZM3.09948 5.60089C3.25102 5.44228 3.32679 5.22508 3.32679 4.94827V2.32764C3.32679 2.05083 3.25102 1.83363 3.09948 1.67502C2.94794 1.51641 2.74487 1.4366 2.49029 1.4366C2.2357 1.4366 2.04275 1.51641 1.89525 1.67502C1.74674 1.83363 1.67299 2.05083 1.67299 2.32764V4.94827C1.67299 5.22508 1.74573 5.44228 1.88918 5.60089C2.03365 5.7595 2.23368 5.83932 2.48827 5.83932C2.74386 5.83932 2.94793 5.7595 3.09846 5.60089H3.09948Z" fill="#252530"/>
</svg>
