<svg width="40" height="40" viewBox="0 0 40 40" fill="none" xmlns="http://www.w3.org/2000/svg">
<rect width="40" height="40" rx="20" fill="#FFE5F8"/>
<g clip-path="url(#clip0_4_15400)">
<path d="M28.9599 25.84L27.3299 26.39C26.8799 26.54 26.5199 26.89 26.3699 27.35L25.8199 28.98C25.3499 30.39 23.3699 30.36 22.9299 28.95L21.0799 23C20.7199 21.82 21.8099 20.72 22.9799 21.09L28.9399 22.94C30.3399 23.38 30.3599 25.37 28.9599 25.84Z" stroke="#FF4ECD" stroke-width="1.5" stroke-linecap="round" stroke-linejoin="round"/>
<path d="M30 20C30 14.48 25.52 10 20 10C14.48 10 10 14.48 10 20C10 25.52 14.48 30 20 30" stroke="#FF4ECD" stroke-width="1.5" stroke-linecap="round" stroke-linejoin="round"/>
</g>
<defs>
<clipPath id="clip0_4_15400">
<rect width="24" height="24" fill="white" transform="translate(8 8)"/>
</clipPath>
</defs>
</svg>
