<svg width="63" height="35" viewBox="0 0 63 35" fill="none" xmlns="http://www.w3.org/2000/svg">
<g clip-path="url(#clip0_2_9407)">
<path d="M17.831 20.3405V16.6197H20.8076V20.3405C20.8076 20.7498 21.1424 21.0846 21.5517 21.0846H23.7842C24.1934 21.0846 24.5283 20.7498 24.5283 20.3405V15.1314H25.7934C26.1357 15.1314 26.2994 14.7073 26.0389 14.484L19.8178 8.88059C19.5351 8.62758 19.1035 8.62758 18.8207 8.88059L12.5996 14.484C12.3466 14.7073 12.5029 15.1314 12.8452 15.1314H14.1102V20.3405C14.1102 20.7498 14.4451 21.0846 14.8544 21.0846H17.0868C17.4961 21.0846 17.831 20.7498 17.831 20.3405Z" fill="white" fill-opacity="0.5"/>
</g>
<defs>
<clipPath id="clip0_2_9407">
<rect width="17.5938" height="17.5938" fill="white" transform="translate(10.389 6.20166) scale(1.01511)"/>
</clipPath>
</defs>
</svg>
