<svg width="56" height="56" viewBox="0 0 56 56" fill="none" xmlns="http://www.w3.org/2000/svg">
<g clip-path="url(#clip0_4_15813)">
<g clip-path="url(#clip1_4_15813)">
<g clip-path="url(#clip2_4_15813)">
<path d="M0 11.2C0 5.01441 5.01441 0 11.2 0H44.8C50.9856 0 56 5.01441 56 11.2V44.8C56 50.9856 50.9856 56 44.8 56H11.2C5.01441 56 0 50.9856 0 44.8V11.2Z" fill="white"/>
<path d="M21.4505 44.6816L22.0709 40.7417L20.6891 40.7098H14.0914L18.6764 11.6374C18.6902 11.5486 18.7352 11.4676 18.8036 11.4093C18.872 11.3509 18.9591 11.3191 19.0488 11.3196H30.1735C33.8667 11.3196 36.4154 12.0881 37.7461 13.605C38.37 14.3165 38.7673 15.0602 38.9594 15.8785C39.1609 16.7373 39.1646 17.7631 38.9676 19.0144L38.9535 19.1057V19.9074L39.5773 20.2608C40.0535 20.502 40.4816 20.8285 40.8404 21.2239C41.3741 21.8323 41.7192 22.6055 41.8651 23.5222C42.0157 24.4651 41.9659 25.5871 41.7192 26.8573C41.4346 28.3185 40.9744 29.591 40.3529 30.6323C39.8045 31.5651 39.0673 32.373 38.1885 33.0043C37.3631 33.5902 36.3822 34.035 35.2733 34.3196C34.1988 34.5995 32.9736 34.7406 31.6299 34.7406H30.7642C30.1451 34.7406 29.5438 34.9636 29.0717 35.3633C28.6003 35.7672 28.2877 36.3254 28.1893 36.9383L28.1241 37.2929L27.0283 44.2368L26.9784 44.4919C26.9654 44.5725 26.9429 44.6128 26.9097 44.6401C26.8775 44.6664 26.8373 44.681 26.7959 44.6816H21.4505Z" fill="#253B80"/>
<path d="M40.168 19.1982C40.1348 19.4105 40.0968 19.6275 40.0541 19.8505C38.5871 27.3828 33.5679 29.9848 27.1576 29.9848H23.8938C23.1098 29.9848 22.4491 30.5541 22.3271 31.3273L20.656 41.9254L20.1828 44.9295C20.1639 45.0487 20.1711 45.1705 20.2038 45.2867C20.2366 45.4027 20.2941 45.5104 20.3725 45.6021C20.4508 45.6938 20.5481 45.7676 20.6577 45.8181C20.7672 45.8687 20.8863 45.8948 21.007 45.8948H26.7959C27.4814 45.8948 28.0637 45.3969 28.1716 44.7208L28.2285 44.4267L29.3185 37.51L29.3884 37.1304C29.4952 36.452 30.0787 35.9539 30.7642 35.9539H31.6299C37.2386 35.9539 41.6291 33.6768 42.9124 27.0874C43.4484 24.3347 43.1708 22.0363 41.7525 20.4197C41.3028 19.9197 40.7659 19.5057 40.168 19.1982Z" fill="#179BD7"/>
<path d="M38.6333 18.5862C38.1648 18.4508 37.6883 18.3449 37.2065 18.2696C36.2545 18.1233 35.2925 18.053 34.3293 18.0596H25.6099C25.278 18.0593 24.9571 18.1779 24.705 18.3937C24.4528 18.6094 24.2862 18.9083 24.2353 19.2362L22.3804 30.9846L22.3271 31.3274C22.3849 30.9533 22.5746 30.6124 22.8619 30.3662C23.1493 30.1199 23.5152 29.9847 23.8937 29.9848H27.1576C33.5679 29.9848 38.5869 27.3815 40.0541 19.8505C40.098 19.6275 40.1348 19.4105 40.168 19.1982C39.7809 18.9952 39.3774 18.825 38.9617 18.6893C38.8528 18.6532 38.7433 18.6189 38.6333 18.5862Z" fill="#222D65"/>
<path d="M24.2353 19.2361C24.2858 18.9081 24.4524 18.609 24.7045 18.3934C24.9568 18.1777 25.278 18.0597 25.6099 18.0608H34.3293C35.3623 18.0608 36.3265 18.1283 37.2065 18.2707C37.802 18.3643 38.3893 18.5042 38.963 18.6893C39.3959 18.8328 39.7979 19.0024 40.1691 19.1982C40.6056 16.4145 40.1656 14.5194 38.6606 12.8032C37.0013 10.914 34.0067 10.1051 30.1748 10.1051H19.0501C18.2673 10.1051 17.5997 10.6744 17.4787 11.4488L12.845 40.82C12.8234 40.9564 12.8317 41.0957 12.8691 41.2287C12.9066 41.3616 12.9723 41.4848 13.0619 41.5898C13.1515 41.6948 13.2628 41.7792 13.3881 41.8371C13.5135 41.8951 13.6498 41.9252 13.7879 41.9253H20.656L22.3804 30.9845L24.2353 19.2361Z" fill="#253B80"/>
<path d="M11.2 1.16671H44.8V-1.16663H11.2V1.16671ZM54.8334 11.2V44.8H57.1666V11.2H54.8334ZM44.8 54.8334H11.2V57.1667H44.8V54.8334ZM1.16668 44.8V11.2H-1.16666V44.8H1.16668ZM11.2 54.8334C5.65875 54.8334 1.16668 50.3412 1.16668 44.8H-1.16666C-1.16666 51.6299 4.37008 57.1667 11.2 57.1667V54.8334ZM54.8334 44.8C54.8334 50.3412 50.3412 54.8334 44.8 54.8334V57.1667C51.6299 57.1667 57.1666 51.6299 57.1666 44.8H54.8334ZM44.8 1.16671C50.3412 1.16671 54.8334 5.65878 54.8334 11.2H57.1666C57.1666 4.37011 51.6299 -1.16663 44.8 -1.16663V1.16671ZM11.2 -1.16663C4.37008 -1.16663 -1.16666 4.37011 -1.16666 11.2H1.16668C1.16668 5.65878 5.65875 1.16671 11.2 1.16671V-1.16663Z" fill="#EBEEF1"/>
</g>
</g>
</g>
<defs>
<clipPath id="clip0_4_15813">
<rect width="56" height="56" rx="10" fill="white"/>
</clipPath>
<clipPath id="clip1_4_15813">
<rect width="56" height="56" fill="white"/>
</clipPath>
<clipPath id="clip2_4_15813">
<rect width="56" height="56" fill="white"/>
</clipPath>
</defs>
</svg>
