<svg width="56" height="56" viewBox="0 0 56 56" fill="none" xmlns="http://www.w3.org/2000/svg">
<g clip-path="url(#clip0_4_15756)">
<g clip-path="url(#clip1_4_15756)">
<g clip-path="url(#clip2_4_15756)">
<path d="M0 11.2C0 5.01441 5.01441 0 11.2 0H44.8C50.9856 0 56 5.01441 56 11.2V44.8C56 50.9856 50.9856 56 44.8 56H11.2C5.01441 56 0 50.9856 0 44.8V11.2Z" fill="white"/>
<mask id="mask0_4_15756" style="mask-type:luminance" maskUnits="userSpaceOnUse" x="11" y="16" width="34" height="24">
<path d="M44.528 16.3334H11.4724V39.6668H44.528V16.3334Z" fill="white"/>
</mask>
<g mask="url(#mask0_4_15756)">
<path d="M43.7979 19.9727C43.412 18.5412 42.2983 17.423 40.8724 17.0356C38.3074 16.3334 27.9832 16.3334 27.9832 16.3334C27.9832 16.3334 17.659 16.3547 15.094 17.0569C13.6681 17.4443 12.5543 18.5625 12.1684 19.994C11.3925 24.5697 11.0915 31.5419 12.1896 35.9345C12.5755 37.366 13.6893 38.4842 15.1151 38.8716C17.6803 39.5738 28.0043 39.5738 28.0043 39.5738C28.0043 39.5738 38.3285 39.5738 40.8936 38.8716C42.3195 38.4842 43.4333 37.366 43.8192 35.9345C44.6375 31.3524 44.8897 24.3845 43.7979 19.9727Z" fill="#FF0000"/>
<path d="M24.6973 32.9337L33.2618 27.9536L24.6973 22.9734V32.9337Z" fill="white"/>
</g>
<path d="M11.2 1.16671H44.8V-1.16663H11.2V1.16671ZM54.8334 11.2V44.8H57.1666V11.2H54.8334ZM44.8 54.8334H11.2V57.1667H44.8V54.8334ZM1.16667 44.8V11.2H-1.16666V44.8H1.16667ZM11.2 54.8334C5.65875 54.8334 1.16667 50.3412 1.16667 44.8H-1.16666C-1.16666 51.6299 4.37007 57.1667 11.2 57.1667V54.8334ZM54.8334 44.8C54.8334 50.3412 50.3412 54.8334 44.8 54.8334V57.1667C51.6299 57.1667 57.1666 51.6299 57.1666 44.8H54.8334ZM44.8 1.16671C50.3412 1.16671 54.8334 5.65878 54.8334 11.2H57.1666C57.1666 4.37011 51.6299 -1.16663 44.8 -1.16663V1.16671ZM11.2 -1.16663C4.37007 -1.16663 -1.16666 4.37011 -1.16666 11.2H1.16667C1.16667 5.65878 5.65875 1.16671 11.2 1.16671V-1.16663Z" fill="#EBEEF1"/>
</g>
</g>
</g>
<defs>
<clipPath id="clip0_4_15756">
<rect width="56" height="56" rx="10" fill="white"/>
</clipPath>
<clipPath id="clip1_4_15756">
<rect width="56" height="56" fill="white"/>
</clipPath>
<clipPath id="clip2_4_15756">
<rect width="56" height="56" fill="white"/>
</clipPath>
</defs>
</svg>
