<svg width="130" height="89" viewBox="0 0 130 89" fill="none" xmlns="http://www.w3.org/2000/svg">
<mask id="mask0_4_11034" style="mask-type:luminance" maskUnits="userSpaceOnUse" x="19" y="8" width="101" height="72">
<path d="M119.802 8.83911H19.0366V79.5516H119.802V8.83911Z" fill="white"/>
</mask>
<g mask="url(#mask0_4_11034)">
<path d="M69.3753 79.5516C88.902 79.5516 104.732 63.7221 104.732 44.1954C104.732 24.6686 88.902 8.83911 69.3753 8.83911C49.8486 8.83911 34.019 24.6686 34.019 44.1954C34.019 63.7221 49.8486 79.5516 69.3753 79.5516Z" fill="#E6EEFF"/>
<path d="M45.5186 65.7627V65.7274C47.9317 65.7274 49.4166 63.8446 51.2021 62.2536C52.5015 61.1045 53.9511 60.1057 56.0459 60.1057C56.9829 60.1057 57.7872 60.1146 58.459 60.1411H63.3912C64.116 60.1411 64.6994 60.8835 64.6994 61.8028C64.6994 62.7221 64.116 63.4646 63.3912 63.4646H58.7595C57.8226 63.659 57.1066 64.6843 57.1066 65.9307C57.1066 66.8764 57.5221 67.6896 58.1231 68.1139C58.2734 68.1669 58.9805 68.4056 59.9263 68.7238C60.5362 68.9094 61.1107 69.1039 61.6587 69.3072L61.7736 69.3425C63.8066 70.032 65.9987 70.7656 66.3965 70.8805C66.6616 70.8982 66.9003 70.8805 67.1124 70.8187L74.4135 64.7904L75.7394 63.5706C75.8012 63.5176 75.8719 63.4734 75.9338 63.4292C76.031 63.3673 76.1283 63.3143 76.2343 63.2701C76.3139 63.2347 76.4023 63.2171 76.4907 63.1994C76.5879 63.1817 76.6763 63.1729 76.7735 63.1729C76.9061 63.1729 77.0299 63.1905 77.1536 63.2259C78.232 63.3408 79.0805 64.481 79.0805 65.8865C79.0805 66.6289 78.8419 67.2919 78.453 67.778C78.3027 67.9813 78.1259 68.1404 77.9403 68.273L77.4365 68.7415L65.9987 79.3042C65.9545 79.3218 65.9015 79.3484 65.8573 79.3749C65.601 79.4898 65.3269 79.5605 65.0441 79.5605C64.8762 79.5605 64.7082 79.534 64.5491 79.4986L64.4961 79.4809C60.6246 78.2258 52.6164 75.6359 48.8686 74.4603C48.7802 74.4162 48.6918 74.372 48.5946 74.3278C47.64 74.0184 46.3318 73.656 45.5186 73.656V72.9577H45.5098V65.7716L45.5186 65.7627Z" fill="#FFB27D"/>
<g filter="url(#filter0_dd_4_11034)">
<mask id="mask1_4_11034" style="mask-type:alpha" maskUnits="userSpaceOnUse" x="27" y="13" width="45" height="26">
<path d="M27.8315 17.6782C27.8315 15.2386 29.8115 13.2587 32.2511 13.2587H67.3333C69.7729 13.2587 71.7528 15.2386 71.7528 17.6782V34.4547C71.7528 36.8943 69.7729 38.8743 67.3333 38.8743H32.2511C29.8115 38.8743 27.8315 36.8943 27.8315 34.4547V17.6782Z" fill="#F5F8FF"/>
</mask>
<g mask="url(#mask1_4_11034)">
<path d="M64.6816 13.2587H34.9028C30.9974 13.2587 27.8315 16.4246 27.8315 20.3299V34.9409C27.8315 38.8462 30.9974 42.0121 34.9028 42.0121H64.6816C68.587 42.0121 71.7528 38.8462 71.7528 34.9409V20.3299C71.7528 16.4246 68.587 13.2587 64.6816 13.2587Z" fill="white"/>
<path d="M27.8315 17.6782C27.8315 15.2386 29.8115 13.2587 32.2511 13.2587H67.3333C69.7729 13.2587 71.7528 15.2386 71.7528 17.6782V34.4547C71.7528 36.8943 69.7729 38.8743 67.3333 38.8743H32.2511C29.8115 38.8743 27.8315 36.8943 27.8315 34.4547V17.6782Z" fill="#F5F8FF"/>
<path opacity="0.8" d="M22.2186 47.351C19.779 47.351 18.2498 44.7081 19.4608 42.5867C19.7171 42.1359 20.0795 41.7559 20.5215 41.473L22.4749 40.2355C24.0394 39.2456 25.3741 37.9109 26.3641 36.3464L29.555 31.2904C29.9616 30.6363 30.4831 30.0618 31.093 29.5845L31.367 29.3635C33.4707 27.7018 36.3964 27.5603 38.6504 29.0011C39.4636 29.5226 40.1442 30.2209 40.6392 31.0429L42.08 33.4206C43.5649 35.8691 46.8707 36.4524 49.0982 34.6493C49.6727 34.1896 50.1235 33.5974 50.4329 32.9256L54.2337 24.555C54.6668 23.6004 55.3474 22.7696 56.2048 22.1508C58.5295 20.4802 61.7115 20.6659 63.8241 22.6105L64.6814 23.3971L69.923 29.7789L73.6796 35.0293C74.4309 36.0723 75.7656 36.5231 76.9854 36.1431C78.5941 35.6392 80.3001 36.5762 80.742 38.2026L81.4049 40.6333C82.3419 44.0717 79.7432 47.4571 76.1811 47.4571L22.2186 47.351Z" fill="#76A5FF"/>
<path d="M26.8591 46.1223C25.2858 46.1223 24.3842 44.3368 25.3211 43.0728C25.5068 42.8253 25.7454 42.622 26.0194 42.4894L27.7342 41.6497C28.9982 41.031 30.1119 40.1382 30.9958 39.051L33.2851 36.2313C33.7271 35.6922 34.2486 35.2237 34.8496 34.8613L35.0264 34.7552C36.7235 33.7122 38.8449 33.615 40.6304 34.5077C41.4082 34.8966 42.0888 35.4535 42.6192 36.1341L43.5119 37.2832C44.8466 38.998 47.2597 39.4222 49.0982 38.2643C49.6728 37.9019 50.1589 37.4069 50.5036 36.8147L53.2261 32.1565C53.7122 31.3257 54.4193 30.6362 55.259 30.1589C57.0887 29.1336 59.3515 29.2573 61.0575 30.486L61.8883 31.0782L66.1311 35.0911L69.0745 38.2908C69.7639 39.0333 70.7981 39.3515 71.7881 39.1129C73.1847 38.777 74.6078 39.546 75.0762 40.8984L75.2972 41.5259C76.1016 43.8153 74.3956 46.2106 71.9649 46.2106L26.868 46.1399L26.8591 46.1223Z" fill="#3D7FFC"/>
</g>
</g>
<g filter="url(#filter1_dd_4_11034)">
<path d="M107.383 21.2137H62.3038C59.863 21.2137 57.8843 23.1925 57.8843 25.6333V52.1505C57.8843 54.5913 59.863 56.57 62.3038 56.57H107.383C109.823 56.57 111.803 54.5913 111.803 52.1505V25.6333C111.803 23.1925 109.823 21.2137 107.383 21.2137Z" fill="white"/>
</g>
<path d="M76.4463 28.727V49.9407C76.4463 51.6467 77.834 53.0344 79.54 53.0344C81.2459 53.0344 82.6336 51.6467 82.6336 49.9407V28.727C82.6336 27.021 81.2459 25.6333 79.54 25.6333C77.834 25.6333 76.4463 27.021 76.4463 28.727Z" fill="#76A5FF"/>
<path d="M65.8394 35.7983V49.9408C65.8394 51.6467 67.2271 53.0344 68.933 53.0344C70.639 53.0344 72.0267 51.6467 72.0267 49.9408V35.7983C72.0267 34.0923 70.639 32.7046 68.933 32.7046C67.2271 32.7046 65.8394 34.0923 65.8394 35.7983Z" fill="#9FC0FF"/>
<path d="M87.0532 41.1017V49.9408C87.0532 51.6467 88.441 53.0345 90.1469 53.0345C91.8528 53.0345 93.2406 51.6467 93.2406 49.9408V41.1017C93.2406 39.3958 91.8528 38.0081 90.1469 38.0081C88.441 38.0081 87.0532 39.3958 87.0532 41.1017Z" fill="#FECE4D"/>
<path d="M97.6602 36.6822V49.0569C97.6602 50.7628 99.0479 52.1505 100.754 52.1505C102.46 52.1505 103.847 50.7628 103.847 49.0569V36.6822C103.847 34.9762 102.46 33.5885 100.754 33.5885C99.0479 33.5885 97.6602 34.9762 97.6602 36.6822Z" fill="#7879F1"/>
<path d="M45.5095 62.7574H40.2061V76.016H45.5095V62.7574Z" fill="#091B36"/>
</g>
<defs>
<filter id="filter0_dd_4_11034" x="17.2247" y="4.41961" width="65.1351" height="46.8294" filterUnits="userSpaceOnUse" color-interpolation-filters="sRGB">
<feFlood flood-opacity="0" result="BackgroundImageFix"/>
<feColorMatrix in="SourceAlpha" type="matrix" values="0 0 0 0 0 0 0 0 0 0 0 0 0 0 0 0 0 0 127 0" result="hardAlpha"/>
<feOffset dy="3.53562"/>
<feGaussianBlur stdDeviation="4.41953"/>
<feColorMatrix type="matrix" values="0 0 0 0 0.607843 0 0 0 0 0.67451 0 0 0 0 0.737255 0 0 0 0.35 0"/>
<feBlend mode="normal" in2="BackgroundImageFix" result="effect1_dropShadow_4_11034"/>
<feColorMatrix in="SourceAlpha" type="matrix" values="0 0 0 0 0 0 0 0 0 0 0 0 0 0 0 0 0 0 127 0" result="hardAlpha"/>
<feOffset dy="1.76781"/>
<feGaussianBlur stdDeviation="5.30344"/>
<feColorMatrix type="matrix" values="0 0 0 0 0.89625 0 0 0 0 0.930414 0 0 0 0 0.995833 0 0 0 0.5 0"/>
<feBlend mode="normal" in2="effect1_dropShadow_4_11034" result="effect2_dropShadow_4_11034"/>
<feBlend mode="normal" in="SourceGraphic" in2="effect2_dropShadow_4_11034" result="shape"/>
</filter>
<filter id="filter1_dd_4_11034" x="47.2774" y="12.3747" width="75.1322" height="56.57" filterUnits="userSpaceOnUse" color-interpolation-filters="sRGB">
<feFlood flood-opacity="0" result="BackgroundImageFix"/>
<feColorMatrix in="SourceAlpha" type="matrix" values="0 0 0 0 0 0 0 0 0 0 0 0 0 0 0 0 0 0 127 0" result="hardAlpha"/>
<feOffset dy="3.53562"/>
<feGaussianBlur stdDeviation="4.41953"/>
<feColorMatrix type="matrix" values="0 0 0 0 0.607843 0 0 0 0 0.67451 0 0 0 0 0.737255 0 0 0 0.35 0"/>
<feBlend mode="normal" in2="BackgroundImageFix" result="effect1_dropShadow_4_11034"/>
<feColorMatrix in="SourceAlpha" type="matrix" values="0 0 0 0 0 0 0 0 0 0 0 0 0 0 0 0 0 0 127 0" result="hardAlpha"/>
<feOffset dy="1.76781"/>
<feGaussianBlur stdDeviation="5.30344"/>
<feColorMatrix type="matrix" values="0 0 0 0 0.89625 0 0 0 0 0.930414 0 0 0 0 0.995833 0 0 0 0.5 0"/>
<feBlend mode="normal" in2="effect1_dropShadow_4_11034" result="effect2_dropShadow_4_11034"/>
<feBlend mode="normal" in="SourceGraphic" in2="effect2_dropShadow_4_11034" result="shape"/>
</filter>
</defs>
</svg>
