<svg width="3" height="4" viewBox="0 0 3 4" fill="none" xmlns="http://www.w3.org/2000/svg">
<path d="M0.704965 3.85565C0.479599 3.75685 0.306409 3.61475 0.18429 3.43046C0.0621703 3.24506 0 3.03301 0 2.78988V2.71771C0 2.68774 0.00888311 2.66332 0.0277561 2.64445C0.0466292 2.62557 0.0699456 2.6167 0.0999204 2.6167H0.808214C0.838189 2.6167 0.861497 2.62447 0.88037 2.63557C0.899243 2.64889 0.908126 2.66443 0.908126 2.68331V2.75103C0.908126 2.86982 0.969188 2.97639 1.08909 3.06964C1.20899 3.1629 1.36441 3.20953 1.55425 3.20953C1.71856 3.20953 1.83846 3.174 1.91728 3.10294C1.99499 3.03189 2.03496 2.94974 2.03496 2.85648C2.03496 2.75213 1.98944 2.67221 1.8984 2.6167C1.80737 2.56119 1.64418 2.49568 1.41104 2.4213L1.28892 2.38245C1.05134 2.30363 0.843733 2.21925 0.666105 2.12822C0.487366 2.03607 0.335278 1.90951 0.208717 1.74743C0.0832672 1.58645 0.0188711 1.38551 0.0188711 1.14682C0.0188711 0.90813 0.0799331 0.712743 0.199832 0.539555C0.320842 0.366367 0.487372 0.233145 0.701636 0.13989C0.914791 0.0466353 1.15681 0 1.4288 0C1.71412 0 1.97057 0.0521855 2.20037 0.156542C2.42796 0.262009 2.60781 0.408547 2.7377 0.598387C2.8687 0.788228 2.93198 1.00582 2.93198 1.25117V1.29669C2.93198 1.32777 2.9231 1.34999 2.90423 1.36997C2.88536 1.38884 2.86315 1.39662 2.83207 1.39662H2.12488C2.0938 1.39662 2.07048 1.39328 2.05161 1.38218C2.03273 1.3733 2.02497 1.35886 2.02497 1.33999V1.28893C2.02497 1.15793 1.96612 1.04357 1.85178 0.94254C1.73743 0.842624 1.582 0.791554 1.38883 0.791554C1.24451 0.791554 1.13127 0.822641 1.05023 0.88037C0.969184 0.94032 0.928107 1.0247 0.928107 1.13239C0.928107 1.21343 0.954759 1.28226 1.00694 1.33555C1.05912 1.38995 1.14015 1.44102 1.24895 1.48765C1.35775 1.53428 1.52539 1.59532 1.75297 1.6697C2.01275 1.75852 2.21591 1.83625 2.36135 1.90397C2.50567 1.97058 2.64223 2.07937 2.7699 2.23147C2.89757 2.38245 2.96306 2.58006 2.96306 2.82652C2.96306 3.07187 2.902 3.26726 2.77877 3.44378C2.65554 3.61918 2.48236 3.75796 2.26143 3.85344C2.03718 3.95113 1.78184 3.99998 1.49208 3.99998C1.20232 3.99998 0.933659 3.95002 0.709403 3.85122L0.704965 3.85565Z" fill="#252530"/>
</svg>
