<svg width="13" height="14" viewBox="0 0 13 14" fill="none" xmlns="http://www.w3.org/2000/svg">
<path d="M12.8946 9.34203C12.7873 9.16092 12.4854 8.87919 11.7342 9.01335C11.3184 9.08929 10.8954 9.11854 10.4731 9.10055C9.71934 9.06641 8.98013 8.8814 8.29918 8.55648C7.61823 8.23156 7.00939 7.77333 6.50869 7.20892C5.80404 6.43726 5.33786 5.4781 5.16645 4.44727C4.99505 3.41644 5.12574 2.35803 5.54275 1.39986C5.8379 0.722363 5.62995 0.366843 5.48238 0.219269C5.3348 0.0716951 4.96587 -0.149666 4.25483 0.145482C2.9219 0.701945 1.79647 1.66149 1.03623 2.88965C0.275994 4.11782 -0.0809456 5.55306 0.0154269 6.99426C0.134796 8.34854 0.644484 9.63911 1.48269 10.7095C2.3209 11.7799 3.45164 12.5841 4.7378 13.0247C5.36227 13.2426 6.01554 13.3669 6.67639 13.3936C6.78371 13.4003 6.89104 13.407 6.99837 13.407C8.10373 13.4089 9.19401 13.1506 10.181 12.653C11.1681 12.1554 12.0241 11.4325 12.68 10.5428C13.1294 9.91891 13.0087 9.52382 12.8946 9.34203Z" fill="#9F0EB7"/>
</svg>
