<svg width="4" height="4" viewBox="0 0 4 4" fill="none" xmlns="http://www.w3.org/2000/svg">
<path d="M2.64822 3.91391L2.51775 3.44538C2.51321 3.4227 2.49847 3.41133 2.47124 3.41133H1.18589C1.1632 3.41133 1.14732 3.4227 1.13938 3.44538L1.00891 3.91391C0.994159 3.97064 0.955597 4.00014 0.89547 4.00014H0.0933915C0.0548195 4.00014 0.0275932 3.98993 0.0128451 3.96837C-0.00190295 3.94795 -0.00416877 3.91959 0.00717592 3.88556L1.20176 0.0873494C1.22105 0.030626 1.26076 0 1.32202 0H2.32943C2.39523 0 2.4338 0.028357 2.44969 0.0873494L3.64995 3.88556C3.65449 3.89237 3.65563 3.90597 3.65563 3.92525C3.65563 3.97517 3.62499 4.00014 3.566 4.00014H2.7628C2.70154 4.00014 2.66297 3.97177 2.64822 3.91391ZM1.37421 2.64558C1.37421 2.66714 1.38556 2.67962 1.40825 2.67962H2.25003C2.26477 2.67962 2.27498 2.67508 2.28065 2.66487C2.28632 2.65579 2.28633 2.64558 2.28406 2.6331L1.85069 1.11404C1.84615 1.09476 1.84048 1.08681 1.8314 1.08681C1.82233 1.08681 1.81438 1.09476 1.80644 1.11404L1.37421 2.6331V2.64558Z" fill="#252530"/>
</svg>
