<svg width="10" height="6" viewBox="0 0 10 6" fill="none" xmlns="http://www.w3.org/2000/svg">
<path d="M2.54983 0C4.95862 0 7.22422 0 9.633 0C10.0573 0 10.0572 3.37598e-06 9.91618 0.424266C9.34979 2.12345 8.92552 3.68156 8.35805 5.38288C5.52501 5.38288 2.69198 5.38288 0 5.38288C0.283198 5.24181 0.566385 5.09968 0.850651 4.95861C1.98451 4.39115 3.25945 3.68369 4.39118 3.11623C6.09036 2.26557 7.64847 1.41706 9.34979 0.56747C9.49085 0.426406 9.63299 0.426383 9.77406 0.283181C9.63299 0.283181 9.34979 0.283181 9.20659 0.283181C7.08207 0.283181 5.09862 0.283181 2.9741 0.283181C2.9741 -1.69436e-05 2.68983 0.283198 2.54983 0Z" fill="#893E47"/>
</svg>
