<svg width="56" height="56" viewBox="0 0 56 56" fill="none" xmlns="http://www.w3.org/2000/svg">
<g clip-path="url(#clip0_4_15885)">
<g clip-path="url(#clip1_4_15885)">
<g clip-path="url(#clip2_4_15885)">
<path d="M46.6667 0H9.33333C4.17868 0 0 4.17868 0 9.33333V46.6667C0 51.8213 4.17868 56 9.33333 56H46.6667C51.8213 56 56 51.8213 56 46.6667V9.33333C56 4.17868 51.8213 0 46.6667 0Z" fill="#131313"/>
<mask id="mask0_4_15885" style="mask-type:luminance" maskUnits="userSpaceOnUse" x="2" y="2" width="52" height="52">
<path d="M53.6666 2.33325H2.33331V53.6666H53.6666V2.33325Z" fill="white"/>
</mask>
<g mask="url(#mask0_4_15885)">
<path d="M53.6666 2.33325H2.33331V53.6666H53.6666V2.33325Z" fill="#131313"/>
<path d="M34.6622 29.9724C33.7072 29.9724 33.2167 29.1885 33.2167 28.2258C33.2167 27.263 33.6986 26.5217 34.6622 26.5217C35.6433 26.5217 36.1078 27.2971 36.1078 28.2258C36.0992 29.2055 35.6087 29.9724 34.6622 29.9724ZM25.3178 26.5217C25.8771 26.5217 26.1093 26.8455 26.1093 27.1268C26.1093 27.8083 25.4123 28.1065 23.9582 28.1491C23.9582 27.3056 24.4401 26.5217 25.3178 26.5217ZM19.1225 29.9724C18.219 29.9724 17.8404 29.2397 17.8404 28.2258C17.8404 27.2205 18.2276 26.5217 19.1225 26.5217C20.0346 26.5217 20.4648 27.2459 20.4648 28.2258C20.4648 29.2482 20.0174 29.9724 19.1225 29.9724ZM11.4818 25.5249H10.0706L12.4111 30.8756C11.9636 31.8639 11.7226 32.1109 11.4129 32.1109C11.0859 32.1109 10.7762 31.8469 10.5525 31.6168L9.93293 32.4348C10.3546 32.8777 10.9311 33.1334 11.5248 33.1334C12.2648 33.1334 12.8326 32.7073 13.1596 31.9406L15.8614 25.5164H14.4761L13.065 29.3504L11.4818 25.5249ZM48.8596 26.5217C49.548 26.5217 49.6857 26.9904 49.6857 28.0895V30.9777H50.9076V27.3312C50.9076 26.019 50.0041 25.4483 49.1694 25.4483C48.4295 25.4483 47.7497 25.9083 47.3711 26.7603C47.1561 25.9425 46.4676 25.4483 45.6674 25.4483C44.9705 25.4483 44.2735 25.8913 43.8949 26.7177V25.5249H42.673V30.9693H43.8949V28.6432C43.8949 27.4676 44.5144 26.5217 45.3576 26.5217C46.0461 26.5217 46.175 26.9904 46.175 28.0895V30.9777H47.3969L47.3883 28.6432C47.3883 27.4676 48.0165 26.5217 48.8596 26.5217ZM39.0715 25.5249H38.4912V30.9693H39.7131V28.8818C39.7131 27.5612 40.2983 26.6666 41.1672 26.6666C41.391 26.6666 41.5803 26.6752 41.7868 26.7603L41.9761 25.4738C41.8212 25.4568 41.6835 25.4398 41.5459 25.4398C40.6855 25.4398 40.0659 26.0277 39.7044 26.7859V25.5249H39.0715ZM34.6622 25.4398C33.0446 25.4398 31.9518 26.6666 31.9518 28.2173C31.9518 29.8276 33.0618 31.0289 34.6622 31.0289C36.2884 31.0289 37.3984 29.7935 37.3984 28.2173C37.3899 26.6581 36.2627 25.4398 34.6622 25.4398ZM25.3865 29.9724C24.7499 29.9724 24.2766 29.6486 24.0787 28.9925C25.6964 28.9244 27.2796 28.5325 27.2796 27.1096C27.2796 26.2918 26.4707 25.4483 25.3092 25.4483C23.7432 25.4483 22.6848 26.7177 22.6848 28.2258C22.6848 29.8019 23.7259 31.0374 25.2834 31.0374C26.3676 31.0374 27.0559 30.6029 27.5981 29.9724L27.0042 29.1716C26.3761 29.8106 25.989 29.9724 25.3865 29.9724ZM19.3635 25.4398C18.7439 25.4398 18.1245 25.7976 17.8835 26.3599V25.5249H16.6617V33.1078H17.8835V30.3985C18.1416 30.7903 18.7354 31.0458 19.2602 31.0458C20.8865 31.0458 21.7469 29.8445 21.7469 28.2258C21.7384 26.6241 20.895 25.4398 19.3635 25.4398ZM10.7934 23.3439H5.02838V24.5281H7.28274V30.9693H8.56483V24.5281H10.7934V23.3439ZM28.9575 25.5249H28.2261V26.6155H28.9575V30.9693H30.1793V26.6155H31.3667V25.5249H30.1793V24.673C30.1793 24.1277 30.403 23.9403 30.9107 23.9403C31.0999 23.9403 31.272 23.9912 31.5045 24.068L31.7797 23.0455C31.5561 22.9178 31.1086 22.8667 30.8161 22.8667C29.6458 22.8667 28.9575 23.5653 28.9575 24.7751V25.5249Z" fill="white"/>
</g>
</g>
</g>
</g>
<defs>
<clipPath id="clip0_4_15885">
<rect width="56" height="56" rx="10" fill="white"/>
</clipPath>
<clipPath id="clip1_4_15885">
<rect width="56" height="56" fill="white"/>
</clipPath>
<clipPath id="clip2_4_15885">
<rect width="56" height="56" fill="white"/>
</clipPath>
</defs>
</svg>
