<svg width="17" height="17" viewBox="0 0 17 17" fill="none" xmlns="http://www.w3.org/2000/svg">
<path d="M2.88304 11.8304C4.83821 11.0351 6.71053 10.6374 8.5 10.6374C10.2895 10.6374 12.1452 11.0351 14.0673 11.8304C16.0224 12.5926 17 13.6033 17 14.8626V17H0V14.8626C0 13.6033 0.961014 12.5926 2.88304 11.8304ZM11.4825 7.25731C10.654 8.08577 9.65984 8.5 8.5 8.5C7.34016 8.5 6.346 8.08577 5.51754 7.25731C4.68908 6.42885 4.27485 5.4347 4.27485 4.27485C4.27485 3.11501 4.68908 2.12086 5.51754 1.2924C6.346 0.430799 7.34016 0 8.5 0C9.65984 0 10.654 0.430799 11.4825 1.2924C12.3109 2.12086 12.7251 3.11501 12.7251 4.27485C12.7251 5.4347 12.3109 6.42885 11.4825 7.25731Z" fill="#FF9650"/>
</svg>
