<svg width="4" height="5" viewBox="0 0 4 5" fill="none" xmlns="http://www.w3.org/2000/svg">
<path d="M0.957774 4.67087C0.653848 4.5549 0.417898 4.39293 0.249939 4.18498C0.0829797 3.97603 0 3.74209 0 3.47815V3.38618C0 3.35619 0.0100034 3.3302 0.0309983 3.3092C0.0519932 3.28821 0.0779745 3.27621 0.108967 3.27621H1.12373C1.15373 3.27621 1.17972 3.28721 1.20071 3.3092C1.22171 3.3302 1.23369 3.35619 1.23369 3.38618V3.39617C1.23369 3.53114 1.30768 3.64512 1.45864 3.73909C1.60761 3.83407 1.79557 3.88106 2.01951 3.88106C2.22746 3.88106 2.39441 3.84007 2.52238 3.75609C2.65035 3.67411 2.71433 3.57114 2.71433 3.44917C2.71433 3.3392 2.65935 3.25721 2.55037 3.20222C2.4404 3.14723 2.26045 3.08925 2.01051 3.02726C1.72458 2.95428 1.49864 2.8833 1.33468 2.81631C0.943776 2.68135 0.632854 2.51639 0.40191 2.32144C0.170966 2.12549 0.0549945 1.84355 0.0549945 1.47664C0.0549945 1.02475 0.229946 0.665847 0.57986 0.399912C0.929775 0.132977 1.39467 0 1.97253 0C2.36343 0 2.70433 0.0629952 2.99626 0.188964C3.28919 0.313934 3.51614 0.489891 3.6771 0.716835C3.83906 0.94378 3.91904 1.20071 3.91904 1.48764C3.91904 1.51764 3.90804 1.54363 3.88604 1.56462C3.86505 1.58562 3.83906 1.59762 3.80907 1.59762H2.83131C2.80132 1.59762 2.77433 1.58662 2.75433 1.56462C2.73334 1.54363 2.72134 1.51764 2.72134 1.48764C2.72134 1.35268 2.65335 1.23971 2.51439 1.14773C2.37742 1.05575 2.19647 1.01075 1.97053 1.01075C1.76958 1.01075 1.60461 1.04675 1.47664 1.12073C1.34868 1.19371 1.28469 1.2947 1.28469 1.42366C1.28469 1.55163 1.34768 1.63661 1.47265 1.69859C1.59762 1.75958 1.80656 1.82455 2.09849 1.89154C2.16447 1.90953 2.24145 1.92953 2.32643 1.95053C2.41141 1.97152 2.50339 1.99752 2.60137 2.02851C3.03326 2.15748 3.37518 2.32244 3.62512 2.52439C3.87406 2.72634 4.00003 3.01927 4.00003 3.40517C4.00003 3.85706 3.82207 4.21098 3.46516 4.46392C3.10924 4.71786 2.62837 4.84582 2.02651 4.84582C1.61761 4.84582 1.26069 4.78784 0.956767 4.67087H0.957774Z" fill="white"/>
</svg>
