<svg width="80" height="80" viewBox="0 0 80 80" fill="none" xmlns="http://www.w3.org/2000/svg">
<g clip-path="url(#clip0_4_11741)">
<path opacity="0.35" d="M40 80C62.0914 80 80 62.0914 80 40C80 17.9086 62.0914 0 40 0C17.9086 0 0 17.9086 0 40C0 62.0914 17.9086 80 40 80Z" fill="#9D97F4"/>
<path d="M18.8828 21.6543C18.8828 20.5497 19.7782 19.6543 20.8828 19.6543H59.3805C60.485 19.6543 61.3805 20.5497 61.3805 21.6543V28.042H18.8828V21.6543Z" fill="#BFBAFC"/>
<path d="M61.3805 59.0332C61.3805 60.1378 60.485 61.0332 59.3805 61.0332H20.8828C19.7783 61.0332 18.8828 60.1378 18.8828 59.0332V30.2783H61.3805V59.0332Z" fill="#9D97F4"/>
<path d="M23.3564 36.4569C23.3564 35.8238 23.8697 35.3105 24.5028 35.3105H31.3807C32.0138 35.3105 32.527 35.8238 32.527 36.4569V43.3348C32.527 43.9679 32.0138 44.4811 31.3807 44.4811H24.5028C23.8697 44.4811 23.3564 43.9679 23.3564 43.3348V36.4569Z" fill="white"/>
<path d="M23.3564 47.8651C23.3564 47.232 23.8697 46.7188 24.5028 46.7188H31.3807C32.0138 46.7188 32.527 47.232 32.527 47.8651V54.743C32.527 55.376 32.0138 55.8893 31.3807 55.8893H24.5028C23.8697 55.8893 23.3564 55.376 23.3564 54.743V47.8651Z" fill="white"/>
<path d="M35.3228 36.4569C35.3228 35.8238 35.836 35.3105 36.4691 35.3105H43.347C43.9801 35.3105 44.4933 35.8238 44.4933 36.4569V43.3348C44.4933 43.9679 43.9801 44.4811 43.347 44.4811H36.4691C35.836 44.4811 35.3228 43.9679 35.3228 43.3348V36.4569Z" fill="white"/>
<path d="M35.3228 47.8651C35.3228 47.232 35.836 46.7188 36.4691 46.7188H43.347C43.9801 46.7188 44.4933 47.232 44.4933 47.8651V54.743C44.4933 55.376 43.9801 55.8893 43.347 55.8893H36.4691C35.836 55.8893 35.3228 55.376 35.3228 54.743V47.8651Z" fill="white"/>
<path d="M47.2891 36.4569C47.2891 35.8238 47.8023 35.3105 48.4354 35.3105H55.3133C55.9464 35.3105 56.4596 35.8238 56.4596 36.4569V43.3348C56.4596 43.9679 55.9464 44.4811 55.3133 44.4811H48.4354C47.8023 44.4811 47.2891 43.9679 47.2891 43.3348V36.4569Z" fill="white"/>
<path d="M47.2891 47.8651C47.2891 47.232 47.8023 46.7188 48.4354 46.7188H55.3133C55.9464 46.7188 56.4596 47.232 56.4596 47.8651V54.743C56.4596 55.376 55.9464 55.8893 55.3133 55.8893H48.4354C47.8023 55.8893 47.2891 55.376 47.2891 54.743V47.8651Z" fill="white"/>
<path d="M23.3564 23.8042C23.3564 23.0558 23.9631 22.4492 24.7114 22.4492C25.4597 22.4492 26.0663 23.0558 26.0663 23.8042C26.0663 24.5525 25.4597 25.1591 24.7114 25.1591C23.9631 25.1591 23.3564 24.5525 23.3564 23.8042Z" fill="white"/>
<path d="M27.8726 23.8042C27.8726 23.0558 28.4792 22.4492 29.2275 22.4492C29.9758 22.4492 30.5824 23.0558 30.5824 23.8042C30.5824 24.5525 29.9758 25.1591 29.2275 25.1591C28.4792 25.1591 27.8726 24.5525 27.8726 23.8042Z" fill="white"/>
<path d="M32.3892 23.8042C32.3892 23.0558 32.9958 22.4492 33.7441 22.4492C34.4924 22.4492 35.099 23.0558 35.099 23.8042C35.099 24.5525 34.4924 25.1591 33.7441 25.1591C32.9958 25.1591 32.3892 24.5525 32.3892 23.8042Z" fill="white"/>
</g>
<defs>
<clipPath id="clip0_4_11741">
<rect width="80" height="80" fill="white"/>
</clipPath>
</defs>
</svg>
