<svg width="131" height="59" viewBox="0 0 131 59" fill="none" xmlns="http://www.w3.org/2000/svg">
<g clip-path="url(#clip0_5_16816)">
<mask id="mask0_5_16816" style="mask-type:luminance" maskUnits="userSpaceOnUse" x="69" y="0" width="28" height="58">
<path d="M69.1484 0.944519H96.2707V57.7745H69.1484V0.944519Z" fill="white"/>
</mask>
<g mask="url(#mask0_5_16816)">
<path d="M96.2707 17.5067H88.3669V15.7004C88.3669 13.8704 87.9394 12.2867 87.0885 10.9521C86.2355 9.61759 84.8025 8.95081 82.7864 8.95081C81.702 8.95081 80.8117 9.16158 80.1144 9.57918C79.4446 9.96954 78.8842 10.5228 78.4853 11.1875C78.0983 11.8425 77.8274 12.6009 77.6718 13.4646C77.514 14.3584 77.4359 15.2645 77.4384 16.1721C77.4384 17.2723 77.4778 18.201 77.5556 18.9584C77.6344 19.7168 77.8274 20.3718 78.1367 20.9213C78.4469 21.4709 78.899 21.9555 79.4929 22.3721C80.0858 22.7927 80.8993 23.2122 81.9335 23.6298L87.9788 26.0625C89.7339 26.7421 91.1561 27.5419 92.2395 28.4559C93.2985 29.3379 94.1574 30.4355 94.7589 31.6755C95.3528 32.9047 95.7527 34.318 95.9605 35.9136C96.1654 37.5111 96.2698 39.3282 96.2698 41.3699C96.2698 43.7239 96.0383 45.9103 95.5715 47.9235C95.1076 49.9386 94.3453 51.6661 93.2865 53.1041C92.2267 54.545 90.8193 55.6826 89.0632 56.5197C87.3061 57.3569 85.162 57.7745 82.6308 57.7745C80.7201 57.7745 78.9374 57.4337 77.2838 56.7551C75.6311 56.0755 74.2108 55.1458 73.0221 53.9688C71.8333 52.7909 70.8907 51.3913 70.1934 49.7682C69.4971 48.148 69.1484 46.3929 69.1484 44.5088V41.5265H77.0523V44.038C77.0523 45.5046 77.4797 46.8253 78.3307 48.0023C79.1846 49.1792 80.6177 49.7682 82.6318 49.7682C83.9752 49.7682 85.0212 49.5722 85.7707 49.1792C86.5192 48.7872 87.0885 48.2387 87.4746 47.5315C87.8636 46.8243 88.1079 45.9488 88.2113 44.9018C88.3137 43.8558 88.3669 42.7035 88.3669 41.4477C88.3669 39.9842 88.3137 38.7786 88.2113 37.8371C88.1079 36.8955 87.8892 36.1381 87.5534 35.561C87.2126 34.9817 86.7334 34.4961 86.1587 34.1476C85.5638 33.7822 84.7759 33.3892 83.795 32.9697L78.1377 30.6158C74.7279 29.2024 72.442 27.3321 71.2798 25.0018C70.1166 22.6745 69.5365 19.7572 69.5365 16.2509C69.5365 14.158 69.8192 12.1695 70.3884 10.2844C70.9557 8.40123 71.7959 6.77909 72.9078 5.41697C74.0178 4.0578 75.4252 2.97145 77.1301 2.16088C78.834 1.3503 80.8235 0.944519 83.0967 0.944519C85.0596 0.944519 86.8551 1.3109 88.4841 2.04269C90.1111 2.77644 91.5058 3.74362 92.667 4.94816C93.8053 6.11477 94.7126 7.48624 95.341 8.9902C95.9615 10.4804 96.2707 12.0109 96.2707 13.5808V17.5067Z" fill="white"/>
</g>
<mask id="mask1_5_16816" style="mask-type:luminance" maskUnits="userSpaceOnUse" x="100" y="1" width="31" height="57">
<path d="M100.977 1.43599H130.501V57.3264H100.977V1.43599Z" fill="white"/>
</mask>
<g mask="url(#mask1_5_16816)">
<path d="M119.187 57.3264H112.213L100.977 1.43599H109.346L115.622 40.4481H115.778L122.131 1.43599H130.501L119.187 57.3264Z" fill="white"/>
</g>
<mask id="mask2_5_16816" style="mask-type:luminance" maskUnits="userSpaceOnUse" x="38" y="6" width="24" height="52">
<path d="M38.2695 6.10345H61.9486V57.8109H38.2695V6.10345Z" fill="white"/>
</mask>
<g mask="url(#mask2_5_16816)">
<path d="M60.7854 8.64845C60.3858 7.74852 59.8887 6.8951 59.3032 6.10345L54.0408 17.8159V44.1454C54.0408 46.0837 53.5109 47.5108 52.4512 48.4268C51.3914 49.3427 50.1376 49.8007 48.6918 49.8007C47.244 49.8007 45.9902 49.3437 44.9304 48.4268C43.8717 47.5108 43.3418 46.0837 43.3418 44.1454V41.6339L38.2695 52.9199C38.695 53.4557 39.1559 53.9491 39.6592 54.3953C40.905 55.5099 42.3521 56.3764 43.9229 56.9482C45.4987 57.5224 47.0884 57.8119 48.6918 57.8119C50.2923 57.8119 51.8819 57.5224 53.4587 56.9482C55.0295 56.3759 56.4769 55.5095 57.7234 54.3953C58.989 53.2705 60.0113 51.8562 60.7864 50.1543C61.5615 48.4534 61.9486 46.4511 61.9486 44.1464V14.616C61.9486 12.3655 61.5615 10.375 60.7864 8.64746" fill="white"/>
</g>
<mask id="mask3_5_16816" style="mask-type:luminance" maskUnits="userSpaceOnUse" x="69" y="0" width="28" height="58">
<path d="M69.1484 0.944519H96.2707V57.7745H69.1484V0.944519Z" fill="white"/>
</mask>
<g mask="url(#mask3_5_16816)">
<path d="M96.2707 17.5067H88.3669V15.7004C88.3669 13.8704 87.9394 12.2867 87.0885 10.9521C86.2355 9.61759 84.8025 8.95081 82.7864 8.95081C81.702 8.95081 80.8117 9.16158 80.1144 9.57918C79.4446 9.96954 78.8842 10.5228 78.4853 11.1875C78.0983 11.8425 77.8274 12.6009 77.6718 13.4646C77.514 14.3584 77.4359 15.2645 77.4384 16.1721C77.4384 17.2723 77.4778 18.201 77.5556 18.9584C77.6344 19.7168 77.8274 20.3718 78.1367 20.9213C78.4469 21.4709 78.899 21.9555 79.4929 22.3721C80.0858 22.7927 80.8993 23.2122 81.9335 23.6298L87.9788 26.0625C89.7339 26.7421 91.1561 27.5419 92.2395 28.4559C93.2985 29.3379 94.1574 30.4355 94.7589 31.6755C95.3528 32.9047 95.7527 34.318 95.9605 35.9136C96.1654 37.5111 96.2698 39.3282 96.2698 41.3699C96.2698 43.7239 96.0383 45.9103 95.5715 47.9235C95.1076 49.9386 94.3453 51.6661 93.2865 53.1041C92.2267 54.545 90.8193 55.6826 89.0632 56.5197C87.3061 57.3569 85.162 57.7745 82.6308 57.7745C80.7201 57.7745 78.9374 57.4337 77.2838 56.7551C75.6311 56.0755 74.2108 55.1458 73.0221 53.9688C71.8333 52.7909 70.8907 51.3913 70.1934 49.7682C69.4971 48.148 69.1484 46.3929 69.1484 44.5088V41.5265H77.0523V44.038C77.0523 45.5046 77.4797 46.8253 78.3307 48.0023C79.1846 49.1792 80.6177 49.7682 82.6318 49.7682C83.9752 49.7682 85.0212 49.5722 85.7707 49.1792C86.5192 48.7872 87.0885 48.2387 87.4746 47.5315C87.8636 46.8243 88.1079 45.9488 88.2113 44.9018C88.3137 43.8558 88.3669 42.7035 88.3669 41.4477C88.3669 39.9842 88.3137 38.7786 88.2113 37.8371C88.1079 36.8955 87.8892 36.1381 87.5534 35.561C87.2126 34.9817 86.7334 34.4961 86.1587 34.1476C85.5638 33.7822 84.7759 33.3892 83.795 32.9697L78.1377 30.6158C74.7279 29.2024 72.442 27.3321 71.2798 25.0018C70.1166 22.6745 69.5365 19.7572 69.5365 16.2509C69.5365 14.158 69.8192 12.1695 70.3884 10.2844C70.9557 8.40123 71.7959 6.77909 72.9078 5.41697C74.0178 4.0578 75.4252 2.97145 77.1301 2.16088C78.834 1.3503 80.8235 0.944519 83.0967 0.944519C85.0596 0.944519 86.8551 1.3109 88.4841 2.04269C90.1111 2.77644 91.5058 3.74362 92.667 4.94816C93.8053 6.11477 94.7126 7.48624 95.341 8.9902C95.9615 10.4804 96.2707 12.0109 96.2707 13.5808V17.5067Z" fill="white"/>
</g>
<mask id="mask4_5_16816" style="mask-type:luminance" maskUnits="userSpaceOnUse" x="100" y="1" width="31" height="57">
<path d="M100.977 1.43599H130.501V57.3264H100.977V1.43599Z" fill="white"/>
</mask>
<g mask="url(#mask4_5_16816)">
<path d="M119.187 57.3264H112.213L100.977 1.43599H109.346L115.622 40.4481H115.778L122.131 1.43599H130.501L119.187 57.3264Z" fill="white"/>
</g>
<mask id="mask5_5_16816" style="mask-type:luminance" maskUnits="userSpaceOnUse" x="38" y="6" width="24" height="52">
<path d="M38.2695 6.10345H61.9486V57.8109H38.2695V6.10345Z" fill="white"/>
</mask>
<g mask="url(#mask5_5_16816)">
<path d="M60.7854 8.64845C60.3858 7.74852 59.8887 6.8951 59.3032 6.10345L54.0408 17.8159V44.1454C54.0408 46.0837 53.5109 47.5108 52.4512 48.4268C51.3914 49.3427 50.1376 49.8007 48.6918 49.8007C47.244 49.8007 45.9902 49.3437 44.9304 48.4268C43.8717 47.5108 43.3418 46.0837 43.3418 44.1454V41.6339L38.2695 52.9199C38.695 53.4557 39.1559 53.9491 39.6592 54.3953C40.905 55.5099 42.3521 56.3764 43.9229 56.9482C45.4987 57.5224 47.0884 57.8119 48.6918 57.8119C50.2923 57.8119 51.8819 57.5224 53.4587 56.9482C55.0295 56.3759 56.4769 55.5095 57.7234 54.3953C58.989 53.2705 60.0113 51.8562 60.7864 50.1543C61.5615 48.4534 61.9486 46.4511 61.9486 44.1464V14.616C61.9486 12.3655 61.5615 10.375 60.7864 8.64746" fill="white"/>
</g>
<path d="M27.8869 17.5216H19.9831V15.7162C19.9831 13.8843 19.5586 12.3016 18.7047 10.967C17.8537 9.63149 16.4197 8.96471 14.4046 8.96471C13.3202 8.96471 12.4289 9.17548 11.7306 9.59308C11.0618 9.98414 10.5025 10.5377 10.1045 11.2024C9.71644 11.8564 9.44461 12.6148 9.29096 13.4775C9.13233 14.3719 9.05421 15.2787 9.05754 16.187C9.05754 17.2852 9.09693 18.2149 9.17277 18.9733C9.25156 19.7317 9.44461 20.3857 9.75387 20.9352C10.0641 21.4848 10.5162 21.9694 11.1111 22.388C11.704 22.8085 12.5185 23.2251 13.5536 23.6437L19.596 26.0764C21.3521 26.757 22.7743 27.5558 23.8587 28.4717C24.9166 29.3541 25.7753 30.4508 26.3781 31.6894C26.971 32.9196 27.3718 34.3329 27.5797 35.9284C27.7835 37.526 27.8879 39.3431 27.8879 41.3838C27.8879 43.7378 27.6555 45.9242 27.1906 47.9394C26.7257 49.9535 25.9624 51.68 24.9056 53.12C23.8459 54.5579 22.4375 55.6975 20.6804 56.5336C18.9243 57.3698 16.7802 57.7894 14.249 57.7894C12.3383 57.7894 10.5556 57.4476 8.90291 56.769C7.24827 56.0894 5.82804 55.1597 4.64123 53.9827C3.45146 52.8048 2.50989 51.4052 1.81159 49.7831C1.11527 48.1619 0.765625 46.4088 0.765625 44.5237V41.5404H8.66949V44.0529C8.66949 45.5185 9.09595 46.8392 9.94986 48.0162C10.8008 49.1951 12.2348 49.7831 14.25 49.7831C15.5924 49.7831 16.6383 49.5861 17.3869 49.1951C18.1364 48.8012 18.7047 48.2526 19.0927 47.5454C19.4798 46.8392 19.725 45.9636 19.8294 44.9157C19.9319 43.8697 19.9831 42.7194 19.9831 41.4626C19.9831 39.9981 19.9319 38.7935 19.8294 37.852C19.725 36.9094 19.5054 36.152 19.1696 35.5749C18.8291 34.9956 18.3498 34.5103 17.7749 34.1625C17.181 33.7981 16.3921 33.4041 15.4121 32.9855L9.75485 30.6297C6.34511 29.2163 4.05915 27.347 2.89696 25.0177C1.73477 22.6903 1.15368 19.7721 1.15368 16.2648C1.15368 14.1739 1.43635 12.1834 2.0066 10.3002C2.57391 8.41612 3.41305 6.79398 4.52402 5.43284C5.63499 4.0717 7.04341 2.98732 8.74828 2.17477C10.4522 1.3642 12.4397 0.958417 14.7148 0.958417C16.6777 0.958417 18.4732 1.32579 20.1013 2.05757C21.7274 2.79132 23.122 3.75949 24.2851 4.96205C25.423 6.12883 26.33 7.50028 26.9582 9.0041C27.5787 10.4962 27.8879 12.0268 27.8879 13.5967V17.5206L27.8869 17.5216ZM43.3421 14.6171C43.3421 12.6808 43.872 11.2536 44.9317 10.3367C45.9905 9.42072 47.2443 8.96274 48.6921 8.96274C48.9009 8.96274 49.1156 8.97259 49.3155 8.99229L52.6622 1.55231C51.376 1.15754 50.0385 0.95509 48.6931 0.951523C47.0886 0.951523 45.5 1.2401 43.9232 1.81528C42.3527 2.38829 40.9054 3.25463 39.6585 4.36816C38.3929 5.4939 37.3736 6.91906 36.5974 8.64757C35.8223 10.3751 35.4343 12.3666 35.4343 14.6171V44.1465C35.4343 46.4512 35.8223 48.4535 36.5965 50.1544C37.0406 51.1406 37.6028 52.0693 38.2708 52.92L43.3421 41.633V14.6171Z" fill="#DAD6E5"/>
</g>
<defs>
<clipPath id="clip0_5_16816">
<rect width="130.992" height="58.1094" fill="white" transform="translate(0.00390625)"/>
</clipPath>
</defs>
</svg>
