<svg width="130" height="24" viewBox="0 0 130 24" fill="none" xmlns="http://www.w3.org/2000/svg">
<g clip-path="url(#clip0_2_8756)">
<path d="M32.9384 7.3347C35.4633 7.3347 37.5169 9.38836 37.5169 11.9132C37.5169 14.438 35.4633 16.4917 32.9384 16.4917H29.7988V7.3347H32.9384ZM32.9384 4.71359H28.6183C27.8313 4.71359 27.1777 5.36549 27.1777 6.15419V17.6739C27.1777 18.4609 27.8296 19.1145 28.6183 19.1145H32.9384C36.9208 19.1145 40.138 15.8972 40.138 11.9149C40.138 7.93256 36.9208 4.71359 32.9384 4.71359Z" fill="white"/>
<path d="M52.7795 17.8056C52.7795 18.5217 52.1867 19.1145 51.4707 19.1145C50.7546 19.1145 50.1618 18.5217 50.1618 17.8056V13.879C50.1618 12.4266 48.9965 11.2613 47.5441 11.2613C46.0916 11.2613 44.9263 12.4266 44.9263 13.879V17.8056C44.9263 18.5217 44.3335 19.1145 43.6175 19.1145C42.9014 19.1145 42.3086 18.5217 42.3086 17.8056V6.02414C42.3086 5.30806 42.9014 4.71527 43.6175 4.71527C44.3335 4.71527 44.9263 5.30806 44.9263 6.02414V9.35795C45.6829 8.90871 46.5831 8.64187 47.5441 8.64187C50.4269 8.64187 52.7795 10.9945 52.7795 13.8773V17.8056Z" fill="white"/>
<path d="M57.9341 17.8056C57.9341 18.5217 57.3413 19.1145 56.6253 19.1145C55.9092 19.1145 55.3164 18.5217 55.3164 17.8056V9.95242C55.3164 9.23634 55.9092 8.64355 56.6253 8.64355C57.3413 8.64355 57.9341 9.23634 57.9341 9.95242V17.8056Z" fill="white"/>
<path d="M75.1954 17.8056C75.1954 18.5217 74.6026 19.1145 73.8865 19.1145C73.5386 19.1145 73.211 18.9709 72.9661 18.7261L67.9958 13.7557L63.0271 18.7261C62.7823 18.9709 62.4546 19.1145 62.1067 19.1145C61.3906 19.1145 60.7979 18.5217 60.7979 17.8056V6.02414C60.7979 5.30806 61.3906 4.71527 62.1067 4.71527C62.8228 4.71527 63.4156 5.30806 63.4156 6.02414V14.6559L67.077 10.9945C67.3219 10.7293 67.6698 10.606 67.9975 10.606C68.3251 10.606 68.673 10.7293 68.9179 10.9945L72.5793 14.6559V6.02414C72.5793 5.30806 73.1721 4.71527 73.8882 4.71527C74.6043 4.71527 75.1971 5.30806 75.1971 6.02414L75.1954 17.8056Z" fill="white"/>
<path d="M80.6783 17.8056C80.6783 18.5217 80.0855 19.1145 79.3694 19.1145C78.6533 19.1145 78.0605 18.5217 78.0605 17.8056V9.95242C78.0605 9.23634 78.6533 8.64355 79.3694 8.64355C80.0855 8.64355 80.6783 9.23634 80.6783 9.95242V17.8056Z" fill="white"/>
<path d="M89.1056 16.4967C89.4738 16.4967 89.7592 16.2113 89.7592 15.8415C89.7592 15.4716 89.4738 15.1862 89.1056 15.1862H86.4878C84.6875 15.1862 83.2148 13.7135 83.2148 11.9132C83.2148 10.1129 84.6875 8.64017 86.4878 8.64017H90.4144C91.1305 8.64017 91.7233 9.23296 91.7233 9.94903C91.7233 10.6651 91.1305 11.2579 90.4144 11.2579H86.4878C86.1197 11.2579 85.8326 11.5433 85.8326 11.9132C85.8326 12.283 86.118 12.5685 86.4878 12.5685H89.1056C90.9059 12.5685 92.3769 14.0411 92.3769 15.8415C92.3769 17.6418 90.9042 19.1145 89.1056 19.1145H84.5237C83.8076 19.1145 83.2148 18.5217 83.2148 17.8056C83.2148 17.0895 83.8076 16.4967 84.5237 16.4967H89.1056Z" fill="white"/>
<path d="M99.4952 19.1145C96.6107 19.1145 94.2598 16.7619 94.2598 13.879C94.2598 10.9961 96.6107 8.64355 99.4952 8.64355C102.378 8.64355 104.731 10.9961 104.731 13.879C104.731 14.5951 104.138 15.1879 103.422 15.1879H97.2237C97.6746 15.985 98.5123 16.4968 99.4935 16.4968H100.802C101.518 16.4968 102.111 17.0895 102.111 17.8056C102.111 18.5217 101.518 19.1145 100.802 19.1145H99.4952ZM97.2237 12.5685H101.763C101.314 11.7916 100.455 11.2596 99.4935 11.2596C98.5123 11.2596 97.6746 11.7916 97.2237 12.5685Z" fill="white"/>
<path d="M56.625 7.66064C57.4384 7.66064 58.0977 7.0013 58.0977 6.18796C58.0977 5.37461 57.4384 4.71527 56.625 4.71527C55.8117 4.71527 55.1523 5.37461 55.1523 6.18796C55.1523 7.0013 55.8117 7.66064 56.625 7.66064Z" fill="white"/>
<path d="M79.3692 7.66064C80.1825 7.66064 80.8419 7.0013 80.8419 6.18796C80.8419 5.37461 80.1825 4.71527 79.3692 4.71527C78.5558 4.71527 77.8965 5.37461 77.8965 6.18796C77.8965 7.0013 78.5558 7.66064 79.3692 7.66064Z" fill="white"/>
<path d="M16.4926 0.217834H1.68304C0.853807 0.217834 0.181641 0.890001 0.181641 1.71923V18.0809C0.181641 18.6889 0.548123 19.2361 1.10882 19.4675C1.66784 19.6988 2.31467 19.5705 2.74533 19.1415L9.97534 11.9115C10.5614 11.3255 10.5614 10.3746 9.97534 9.7886C9.38931 9.20257 8.43848 9.20257 7.85244 9.7886L3.18443 14.4566V3.22063H16.4943C18.7422 3.22063 20.5696 5.04966 20.5696 7.29585V16.5288C20.5696 18.7767 18.7405 20.6041 16.4943 20.6041H9.33357L14.0016 15.9361C14.5876 15.35 14.5876 14.3992 14.0016 13.8132C13.4155 13.2271 12.4647 13.2271 11.8787 13.8132L4.64699 21.0449C4.21802 21.4738 4.08966 22.1207 4.32104 22.6814C4.5541 23.2421 5.10129 23.6085 5.70759 23.6085H16.491C20.3939 23.6085 23.569 20.4335 23.569 16.5305V7.29754C23.5724 3.39458 20.3973 0.217834 16.4926 0.217834Z" fill="white"/>
<path d="M16.43 12.8876C17.2592 12.8876 17.9314 12.2155 17.9314 11.3863V7.36001C17.9314 6.53078 17.2592 5.85861 16.43 5.85861H12.4037C11.5745 5.85861 10.9023 6.53078 10.9023 7.36001C10.9023 8.18924 11.5745 8.86141 12.4037 8.86141H14.9286V11.3863C14.9286 12.2155 15.6008 12.8876 16.43 12.8876Z" fill="white"/>
<path d="M108.833 19.0638C108.511 19.0638 108.335 18.8899 108.335 18.5656V13.2845C108.335 12.9603 108.509 12.7863 108.833 12.7863H110.948C111.594 12.7863 112.091 12.9366 112.464 13.2102C112.812 13.4838 112.986 13.9077 112.986 14.4059C112.986 14.7555 112.886 15.0291 112.712 15.2774C112.539 15.502 112.29 15.7013 111.991 15.8009C112.339 15.9006 112.638 16.0745 112.837 16.3245C113.037 16.5744 113.136 16.897 113.136 17.2956C113.136 17.8681 112.937 18.292 112.564 18.5909C112.191 18.8899 111.669 19.0402 111.022 19.0402H108.833V19.0638ZM109.206 15.551H110.797C111.643 15.551 112.091 15.2014 112.091 14.5546C112.091 13.8824 111.669 13.5581 110.797 13.5581H109.206V15.551ZM109.206 18.341H110.922C111.792 18.341 112.216 17.9914 112.216 17.2939C112.216 16.5964 111.794 16.2468 110.922 16.2468H109.206V18.341Z" fill="white"/>
<path d="M114.54 19.0638C114.218 19.0638 114.042 18.8899 114.042 18.5656V13.2845C114.042 12.9603 114.216 12.7863 114.54 12.7863H117.773C118.021 12.7863 118.146 12.9113 118.146 13.1596C118.146 13.4095 118.021 13.5328 117.773 13.5328H114.937V15.5003H117.599C117.847 15.5003 117.972 15.6253 117.972 15.8736C117.972 16.1235 117.847 16.2468 117.599 16.2468H114.937V18.314H117.796C118.045 18.314 118.17 18.4389 118.17 18.6872C118.17 18.9371 118.045 19.0604 117.796 19.0604C117.798 19.0638 114.54 19.0638 114.54 19.0638Z" fill="white"/>
<path d="M121.687 19.1145C121.388 19.1145 121.24 18.9405 121.24 18.6416V13.5835H119.375C119.102 13.5835 118.977 13.4585 118.977 13.2102C118.977 12.9603 119.102 12.837 119.375 12.837H124.05C124.323 12.837 124.472 12.962 124.472 13.2102C124.472 13.4838 124.347 13.5835 124.05 13.5835H122.16V18.6652C122.135 18.9642 121.984 19.1145 121.687 19.1145Z" fill="white"/>
<path d="M124.228 19.1145C124.054 19.1145 123.93 19.0638 123.855 18.9405C123.781 18.8172 123.806 18.6906 123.881 18.5166L126.292 13.1106C126.341 12.9856 126.417 12.886 126.517 12.8116C126.616 12.761 126.716 12.712 126.816 12.712C126.915 12.712 127.015 12.7373 127.115 12.8116C127.214 12.8623 127.289 12.9856 127.339 13.1106L129.751 18.5166C129.825 18.6906 129.851 18.8155 129.776 18.9405C129.727 19.0655 129.602 19.1145 129.428 19.1145C129.303 19.1145 129.204 19.0891 129.13 19.0148C129.055 18.9405 128.981 18.8409 128.93 18.7159L128.408 17.5455H125.223L124.725 18.7159C124.676 18.8662 124.6 18.9659 124.526 19.0148C124.451 19.0891 124.352 19.1145 124.228 19.1145ZM126.79 13.8317L125.547 16.7957H128.084L126.79 13.8317Z" fill="white"/>
</g>
<defs>
<clipPath id="clip0_2_8756">
<rect width="129.978" height="23.8281" fill="white" transform="translate(0.0107422)"/>
</clipPath>
</defs>
</svg>
