<svg width="36" height="7" viewBox="0 0 36 7" fill="none" xmlns="http://www.w3.org/2000/svg">
<path d="M1.97 7C1.897 7 1.84999 6.96701 1.82999 6.90001L0.00997925 0.130005L0 0.0900116C0 0.0300116 0.0369854 0 0.109985 0H1.09C1.163 0 1.20998 0.0330061 1.22998 0.100006L2.37 4.66C2.377 4.68 2.38699 4.69 2.39999 4.69C2.41299 4.69 2.42299 4.68 2.42999 4.66L3.51999 0.100006C3.53999 0.0330061 3.58299 0 3.64999 0H4.60999C4.68299 0 4.73 0.0330061 4.75 0.100006L5.91 4.67001C5.917 4.69001 5.927 4.70001 5.94 4.70001C5.953 4.70001 5.963 4.69001 5.97 4.67001L7.09 0.100006C7.11 0.0330061 7.15698 0 7.22998 0H8.16C8.253 0 8.28999 0.0430049 8.26999 0.130005L6.53998 6.90001C6.51998 6.96701 6.47299 7 6.39999 7H5.47C5.397 7 5.34999 6.96701 5.32999 6.90001L4.16 2.13C4.153 2.11 4.14297 2.09701 4.12997 2.09001C4.11697 2.09001 4.10698 2.103 4.09998 2.13L2.97998 6.90001C2.95998 6.96701 2.91698 7 2.84998 7H1.97ZM9.37997 7C9.34697 7 9.31698 6.98701 9.28998 6.96001C9.26998 6.94001 9.25998 6.913 9.25998 6.88V0.12001C9.25998 0.0870104 9.26998 0.0600085 9.28998 0.0400085C9.31698 0.0130085 9.34697 0 9.37997 0H10.3C10.333 0 10.36 0.0130085 10.38 0.0400085C10.407 0.0600085 10.42 0.0870104 10.42 0.12001V6.88C10.42 6.913 10.407 6.94001 10.38 6.96001C10.36 6.98701 10.333 7 10.3 7H9.37997ZM15.95 0.12001C15.95 0.0870104 15.96 0.0600085 15.98 0.0400085C16.007 0.0130085 16.037 0 16.07 0H16.99C17.023 0 17.05 0.0130085 17.07 0.0400085C17.097 0.0600085 17.11 0.0870104 17.11 0.12001V6.88C17.11 6.913 17.097 6.94001 17.07 6.96001C17.05 6.98701 17.023 7 16.99 7H16.1C16.033 7 15.987 6.97301 15.96 6.92001L13.08 2.20001C13.067 2.18001 13.053 2.17001 13.04 2.17001C13.027 2.17701 13.02 2.193 13.02 2.22L13.04 6.88C13.04 6.913 13.027 6.94001 13 6.96001C12.98 6.98701 12.953 7 12.92 7H12C11.967 7 11.937 6.98701 11.91 6.96001C11.89 6.94001 11.88 6.913 11.88 6.88V0.12001C11.88 0.0870104 11.89 0.0600085 11.91 0.0400085C11.937 0.0130085 11.967 0 12 0H12.89C12.957 0 13.003 0.0270018 13.03 0.0800018L15.9 4.8C15.913 4.82 15.927 4.82701 15.94 4.82001C15.953 4.82001 15.96 4.807 15.96 4.78L15.95 0.12001ZM23.17 0C23.203 0 23.23 0.0130085 23.25 0.0400085C23.277 0.0600085 23.29 0.0870104 23.29 0.12001V0.889999C23.29 0.922999 23.277 0.950001 23.25 0.970001C23.23 0.997001 23.203 1.01001 23.17 1.01001H21.33C21.297 1.01001 21.28 1.02701 21.28 1.06001V6.88C21.28 6.913 21.27 6.94001 21.25 6.96001C21.223 6.98701 21.193 7 21.16 7H20.24C20.207 7 20.18 6.98701 20.16 6.96001C20.133 6.94001 20.12 6.913 20.12 6.88V1.06001C20.12 1.02701 20.103 1.01001 20.07 1.01001H18.3C18.267 1.01001 18.237 0.997001 18.21 0.970001C18.19 0.950001 18.18 0.922999 18.18 0.889999V0.12001C18.18 0.0870104 18.19 0.0600085 18.21 0.0400085C18.237 0.0130085 18.267 0 18.3 0H23.17ZM29.1 0.880005C29.1 0.913005 29.087 0.940007 29.06 0.960007C29.04 0.987007 29.013 1 28.98 1H25.57C25.537 1 25.52 1.017 25.52 1.05V2.92001C25.52 2.95301 25.537 2.97 25.57 2.97H27.86C27.893 2.97 27.923 2.98 27.95 3C27.97 3.027 27.98 3.05701 27.98 3.09001V3.85001C27.98 3.88301 27.97 3.913 27.95 3.94C27.923 3.96 27.893 3.97 27.86 3.97H25.57C25.537 3.97 25.52 3.987 25.52 4.02V5.95001C25.52 5.98301 25.537 6 25.57 6H28.98C29.013 6 29.04 6.01301 29.06 6.04001C29.087 6.06001 29.1 6.08701 29.1 6.12001V6.88C29.1 6.913 29.087 6.94001 29.06 6.96001C29.04 6.98701 29.013 7 28.98 7H24.48C24.447 7 24.417 6.98701 24.39 6.96001C24.37 6.94001 24.36 6.913 24.36 6.88V0.12001C24.36 0.0870104 24.37 0.0600085 24.39 0.0400085C24.417 0.0130085 24.447 0 24.48 0H28.98C29.013 0 29.04 0.0130085 29.06 0.0400085C29.087 0.0600085 29.1 0.0870104 29.1 0.12001V0.880005ZM34.21 7C34.143 7 34.097 6.97 34.07 6.91L32.75 4.03C32.737 4.003 32.717 3.99001 32.69 3.99001H31.49C31.457 3.99001 31.44 4.00701 31.44 4.04001V6.88C31.44 6.913 31.427 6.94001 31.4 6.96001C31.38 6.98701 31.353 7 31.32 7H30.4C30.367 7 30.337 6.98701 30.31 6.96001C30.29 6.94001 30.28 6.913 30.28 6.88V0.12001C30.28 0.0870104 30.29 0.0600085 30.31 0.0400085C30.337 0.0130085 30.367 0 30.4 0H33.15C33.557 0 33.917 0.083 34.23 0.25C34.543 0.423 34.787 0.663001 34.96 0.970001C35.133 1.283 35.22 1.64001 35.22 2.04001C35.22 2.50001 35.1 2.89001 34.86 3.21001C34.627 3.53701 34.3 3.763 33.88 3.89C33.867 3.89 33.857 3.897 33.85 3.91C33.843 3.923 33.843 3.93701 33.85 3.95001L35.26 6.86C35.273 6.887 35.28 6.90701 35.28 6.92001C35.28 6.97301 35.243 7 35.17 7H34.21ZM31.49 1C31.457 1 31.44 1.017 31.44 1.05V3.04001C31.44 3.07301 31.457 3.09001 31.49 3.09001H32.99C33.31 3.09001 33.57 2.993 33.77 2.8C33.963 2.613 34.06 2.363 34.06 2.05C34.06 1.737 33.963 1.48301 33.77 1.29001C33.57 1.09701 33.31 1 32.99 1H31.49Z" fill="white"/>
</svg>
