<svg width="180" height="40" viewBox="0 0 180 40" fill="none" xmlns="http://www.w3.org/2000/svg">
<g clip-path="url(#clip0_5_16948)">
<path d="M151.471 27.3291C151.352 27.335 151.239 27.3795 151.148 27.4557C151.056 27.5319 150.993 27.6357 150.966 27.7515C149.688 31.3998 147.962 33.5686 146.54 33.5686C145.724 33.5686 145.392 32.6591 145.392 31.2366C145.392 27.6634 147.532 20.0945 148.61 16.6379C148.73 16.2787 148.799 15.9045 148.815 15.5263C148.815 14.5235 148.266 14.0312 146.908 14.0312C145.444 14.0312 143.866 14.6038 142.332 17.2909C141.814 14.9226 140.199 13.8887 137.963 13.8887C135.372 13.8887 132.877 15.5522 130.819 18.2522C128.762 20.9522 126.342 21.8358 124.523 21.4005C125.831 18.1952 126.318 15.801 126.318 14.026C126.318 11.2379 124.94 9.55624 122.714 9.55624C119.33 9.55624 117.379 12.7848 117.379 16.1819C117.379 18.8067 118.568 21.5041 121.188 22.8153C118.993 27.7774 115.788 32.2653 114.573 32.2653C113.002 32.2653 112.541 24.5799 112.629 19.0814C112.684 15.9253 112.945 15.7647 112.945 14.8111C112.945 14.2618 112.59 13.8887 111.163 13.8887C107.836 13.8887 106.807 16.7053 106.649 19.9417C106.599 21.169 106.407 22.3864 106.076 23.5693C104.687 28.5314 101.819 32.2964 99.948 32.2964C99.0826 32.2964 98.8442 31.4309 98.8442 30.296C98.8442 26.7253 100.847 22.2634 100.847 18.4517C100.847 15.6533 99.619 13.8835 97.305 13.8835C94.5817 13.8835 90.9774 17.1251 87.5674 23.1962C88.6894 18.5321 89.1506 14.0442 85.8287 14.0442C85.1047 14.0539 84.3937 14.2379 83.7558 14.5805C83.5427 14.6804 83.3645 14.842 83.2443 15.0443C83.1242 15.2467 83.0677 15.4805 83.0821 15.7155C83.4008 20.6646 79.0917 33.3354 75.0106 33.3354C74.2669 33.3354 73.9068 32.5322 73.9068 31.2366C73.9068 27.6582 76.0393 20.0945 77.1094 16.6431C77.2368 16.2651 77.3083 15.8705 77.3219 15.4719C77.3219 14.5235 76.7363 14.0364 75.4096 14.0364C73.9508 14.0364 72.3676 14.5909 70.8388 17.2779C70.3024 14.9096 68.7011 13.8757 66.4623 13.8757C62.7906 13.8757 58.6888 17.7625 56.8879 22.8205C54.4756 29.5782 49.6145 36.1054 43.0666 36.1054C37.1277 36.1054 33.9975 31.1614 33.9975 23.3491C33.9975 12.0723 42.2893 2.86065 48.4148 2.86065C51.3506 2.86065 52.755 4.72889 52.755 7.59732C52.755 11.0695 50.8142 12.6838 50.8142 14.0053C50.8142 14.4121 51.1511 14.8111 51.8196 14.8111C54.4859 14.8111 57.629 11.6732 57.629 7.3978C57.629 3.12236 54.162 0 48.0209 0C37.8739 0 27.6621 10.2118 27.6621 23.2946C27.6621 33.706 32.7978 39.9844 41.6829 39.9844C47.7411 39.9844 53.0323 35.271 55.8877 29.7726C56.2116 34.3304 58.282 36.7117 61.4354 36.7117C64.2417 36.7117 66.5116 35.0404 68.245 32.1046C68.911 35.1778 70.6807 36.6806 72.9817 36.6806C75.6195 36.6806 77.8246 35.0093 79.9261 31.9051C79.895 34.3408 80.4443 36.6366 82.5639 36.6366C83.5615 36.6366 84.7508 36.406 84.9633 35.5327C87.1891 26.3315 92.6876 18.8197 94.3692 18.8197C94.8693 18.8197 95.0067 19.299 95.0067 19.8562C95.0067 22.3566 93.2421 27.4794 93.2421 30.752C93.2421 34.289 94.7424 36.6262 97.8492 36.6262C101.29 36.6262 104.786 32.4104 107.118 26.2615C107.846 32.0165 109.424 36.6599 111.893 36.6599C114.922 36.6599 120.302 30.283 123.554 23.533C125.325 23.7922 127.128 23.369 128.599 22.3489C127.789 24.3648 127.366 26.5147 127.35 28.6869C127.35 34.9523 130.342 36.7195 132.918 36.7195C135.717 36.7195 137.986 35.0482 139.725 32.1124C140.298 34.7606 141.764 36.6806 144.457 36.6806C148.67 36.6806 152.329 32.3741 152.329 28.8397C152.336 27.8966 151.937 27.3291 151.471 27.3291ZM64.0059 33.2396C62.3035 33.2396 61.635 31.5242 61.635 28.9693C61.635 24.5306 64.6718 17.1173 67.8823 17.1173C69.2841 17.1173 69.8153 18.7705 69.8153 20.789C69.8153 25.2976 66.9287 33.2396 64.0059 33.2396ZM122.307 19.9909C121.292 18.7834 120.924 17.1406 120.924 15.6714C120.924 13.8576 121.584 12.3366 122.375 12.3366C123.165 12.3366 123.411 13.1139 123.411 14.1996C123.401 16.0134 122.758 18.6564 122.297 19.9909H122.307ZM135.504 33.2396C133.802 33.2396 133.136 31.2677 133.136 28.9693C133.136 24.6861 136.17 17.1173 139.406 17.1173C140.808 17.1173 141.308 18.7575 141.308 20.789C141.298 25.2976 138.461 33.2396 135.494 33.2396H135.504Z" fill="#0A1E25"/>
</g>
<defs>
<clipPath id="clip0_5_16948">
<rect width="124.674" height="39.9844" fill="white" transform="translate(27.6621)"/>
</clipPath>
</defs>
</svg>
