<svg width="56" height="56" viewBox="0 0 56 56" fill="none" xmlns="http://www.w3.org/2000/svg">
<g clip-path="url(#clip0_4_15827)">
<g clip-path="url(#clip1_4_15827)">
<g clip-path="url(#clip2_4_15827)">
<path d="M0 11.2C0 5.01441 5.01441 0 11.2 0H44.8C50.9856 0 56 5.01441 56 11.2V44.8C56 50.9856 50.9856 56 44.8 56H11.2C5.01441 56 0 50.9856 0 44.8V11.2Z" fill="black"/>
<path fill-rule="evenodd" clip-rule="evenodd" d="M17.1244 11.6666H38.8741C40.322 11.6662 41.7109 12.2411 42.7349 13.2648C43.7589 14.2885 44.3342 15.6772 44.3342 17.125V38.8732C44.3342 41.8888 41.8896 44.3333 38.8741 44.3333H17.1244C14.1095 44.3324 11.6659 41.8882 11.6659 38.8732V17.125C11.6659 14.1104 14.1098 11.6666 17.1244 11.6666ZM36.6758 38.3947C37.6273 38.3947 38.3987 37.6233 38.3987 36.6718L38.3939 19.3296C38.3939 18.3782 37.6225 17.6069 36.6711 17.6069H19.3305C18.8733 17.6069 18.4349 17.7886 18.1118 18.112C17.7887 18.4354 17.6073 18.8741 17.6077 19.3313V36.6718C17.6077 37.6233 18.3791 38.3947 19.3305 38.3947H36.6758Z" fill="white"/>
<path d="M24.5336 32.4291C23.9905 32.4248 23.5525 31.9833 23.5526 31.4401V24.5173C23.5512 24.2541 23.655 24.0014 23.8406 23.8149C24.0261 23.6283 24.2784 23.5236 24.5416 23.5236H31.474C31.737 23.524 31.989 23.6288 32.1745 23.8153C32.36 24.0017 32.4638 24.2542 32.4629 24.5173V31.4386C32.4638 31.7015 32.36 31.9541 32.1745 32.1404C31.989 32.3269 31.737 32.4319 31.474 32.4323L24.5336 32.4291Z" fill="white"/>
</g>
</g>
</g>
<defs>
<clipPath id="clip0_4_15827">
<rect width="56" height="56" rx="10" fill="white"/>
</clipPath>
<clipPath id="clip1_4_15827">
<rect width="56" height="56" fill="white"/>
</clipPath>
<clipPath id="clip2_4_15827">
<rect width="56" height="56" fill="white"/>
</clipPath>
</defs>
</svg>
