<svg width="20" height="20" viewBox="0 0 20 20" fill="none" xmlns="http://www.w3.org/2000/svg">
<path d="M10.0001 1.66667C8.35191 1.66667 6.74074 2.15541 5.37033 3.07109C3.99992 3.98677 2.93182 5.28826 2.30109 6.81098C1.67036 8.33369 1.50533 10.0092 1.82687 11.6258C2.14842 13.2423 2.94209 14.7271 4.10753 15.8926C5.27297 17.058 6.75782 17.8517 8.37433 18.1732C9.99084 18.4948 11.6664 18.3297 13.1891 17.699C14.7118 17.0683 16.0133 16.0002 16.929 14.6298C17.8447 13.2593 18.3334 11.6482 18.3334 10C18.3299 7.79095 17.4508 5.67338 15.8887 4.11134C14.3267 2.5493 12.2091 1.6702 10.0001 1.66667ZM12.8001 11.9167C12.9163 12.0343 12.9815 12.193 12.9815 12.3583C12.9815 12.5237 12.9163 12.6824 12.8001 12.8C12.7422 12.8582 12.6733 12.9043 12.5975 12.9358C12.5218 12.9673 12.4405 12.9835 12.3584 12.9835C12.2763 12.9835 12.1951 12.9673 12.1193 12.9358C12.0435 12.9043 11.9747 12.8582 11.9168 12.8L10.0001 10.8833L8.08342 12.8C8.0255 12.8582 7.95667 12.9043 7.88088 12.9358C7.80509 12.9673 7.72382 12.9835 7.64175 12.9835C7.55968 12.9835 7.47841 12.9673 7.40262 12.9358C7.32683 12.9043 7.258 12.8582 7.20009 12.8C7.08385 12.6824 7.01867 12.5237 7.01867 12.3583C7.01867 12.193 7.08385 12.0343 7.20009 11.9167L9.11675 10L7.20009 8.08334C7.08968 7.96486 7.02958 7.80815 7.03244 7.64624C7.0353 7.48432 7.10089 7.32983 7.2154 7.21532C7.32991 7.10081 7.4844 7.03522 7.64632 7.03236C7.80823 7.0295 7.96494 7.08961 8.08342 7.20001L10.0001 9.11667L11.9168 7.20001C12.0352 7.08961 12.1919 7.0295 12.3539 7.03236C12.5158 7.03522 12.6703 7.10081 12.7848 7.21532C12.8993 7.32983 12.9649 7.48432 12.9677 7.64624C12.9706 7.80815 12.9105 7.96486 12.8001 8.08334L10.8834 10L12.8001 11.9167Z" fill="#889096"/>
</svg>
