<svg width="93" height="70" viewBox="0 0 93 70" fill="none" xmlns="http://www.w3.org/2000/svg">
<path d="M46.5506 3.90458C46.9509 3.90458 47.3512 3.90458 47.7515 4.00465L46.5506 6.30716C44.7485 6.2071 43.1464 7.60801 43.0464 9.41019C42.9463 11.2124 44.3482 12.8134 46.1494 12.9135H46.5506C47.3512 12.9135 48.1517 12.6133 48.7521 12.113L50.054 14.3154C49.0533 15.0159 47.8515 15.4161 46.5506 15.4161C43.3465 15.5172 40.6438 13.1136 40.5437 9.91052C40.4436 6.70741 42.8462 4.00465 46.0493 3.90458H46.5506ZM50.6543 8.80981L52.1564 11.3125L50.6543 13.715L49.2534 11.3125H46.3495L47.8515 8.80981H50.6543ZM48.2518 7.90821C48.2518 7.50795 48.3518 7.10768 48.552 6.80748C48.7521 6.50729 49.1534 6.20708 49.4536 6.00695L49.6537 5.90589C50.054 5.70576 50.154 5.60569 50.154 5.40556C50.154 5.20543 49.8538 5.00529 49.6537 5.00529C49.2534 5.00529 48.9532 5.20543 48.7521 5.60569L48.2518 5.10536C48.3518 4.90522 48.552 4.7051 48.7521 4.50497C49.0533 4.30484 49.3535 4.30484 49.6537 4.30484C49.9539 4.30484 50.3541 4.4049 50.5543 4.60503C50.7544 4.80516 50.9545 5.10537 50.9545 5.40556C50.9545 5.90589 50.6543 6.30716 50.054 6.50729L49.7538 6.70742C49.4536 6.90755 49.2534 7.00761 49.1534 7.30781H50.9545V8.00827L48.2518 7.90821ZM46.5506 20.4225L56.0609 15.0159V0H36.9393V14.9158L46.5506 20.4225ZM89.8972 55.8598H3.20311L0 62.8674L3.20311 69.875H89.8972L93.0002 62.8674L89.8972 55.8598Z" fill="#FF492C"/>
</svg>
