<svg width="3" height="4" viewBox="0 0 3 4" fill="none" xmlns="http://www.w3.org/2000/svg">
<path d="M2.97407 0.0275004C2.99277 0.0462053 3.00048 0.069314 3.00048 0.0990218V0.692078C3.00048 0.722886 2.99277 0.745986 2.97407 0.76469C2.95536 0.783395 2.93226 0.792208 2.90146 0.792208H1.98051C1.9541 0.792208 1.94201 0.804298 1.94201 0.830705V3.77728C1.94201 3.80809 1.9332 3.83119 1.9145 3.84989C1.89579 3.8686 1.87268 3.87741 1.84297 3.87741H1.12559C1.09478 3.87741 1.07168 3.8686 1.05298 3.84989C1.03427 3.83119 1.02657 3.80809 1.02657 3.77728V0.830705C1.02657 0.804298 1.01336 0.792208 0.986952 0.792208H0.0990218C0.069314 0.792208 0.0462137 0.783395 0.0275088 0.76469C0.00880397 0.745986 0 0.722886 0 0.692078V0.0990218C0 0.0704143 0.00880397 0.0462053 0.0275088 0.0275004C0.0462137 0.00879558 0.069314 0 0.0990218 0H2.90366C2.93336 0 2.95536 0.00879558 2.97407 0.0275004Z" fill="#252530"/>
</svg>
