<svg width="17" height="24" viewBox="0 0 17 24" fill="none" xmlns="http://www.w3.org/2000/svg">
<path d="M12.824 9.956C13.56 7.956 14.134 6.305 14.547 5.003C14.959 3.701 15.165 2.901 15.165 2.604C15.165 2.286 15.096 2.039 14.959 1.863C14.8921 1.77674 14.8056 1.70775 14.7066 1.66182C14.6076 1.61588 14.499 1.59434 14.39 1.599C14.082 1.599 13.77 1.854 13.45 2.365C13.132 2.876 12.78 3.698 12.395 4.83L10.747 9.593L12.824 9.956ZM10.632 14.39C10.159 14.368 9.712 14.319 9.288 14.242C8.87541 14.1678 8.47017 14.0574 8.077 13.912C8.252 14.264 8.409 14.615 8.547 14.967C8.684 15.319 8.797 15.665 8.884 16.006C9.148 15.676 9.426 15.376 9.717 15.107C10.0014 14.8428 10.3075 14.603 10.632 14.39ZM8.769 9.396L6.989 4.253C6.527 2.945 6.17 2.09 5.917 1.69C5.664 1.288 5.39 1.088 5.093 1.088C4.98552 1.08519 4.87888 1.1076 4.78163 1.15345C4.68438 1.1993 4.59922 1.2673 4.533 1.352C4.39 1.527 4.318 1.764 4.318 2.06C4.318 2.566 4.511 3.445 4.895 4.698C5.28 5.951 5.857 7.593 6.626 9.626C6.6862 9.51053 6.78542 9.42017 6.906 9.371C7.06483 9.31523 7.2328 9.29012 7.401 9.297C7.467 9.297 7.599 9.302 7.797 9.313C7.994 9.324 8.318 9.352 8.769 9.396ZM7.154 17.357C7.34 17.357 7.511 17.272 7.664 17.102C7.80863 16.9542 7.89128 16.7567 7.895 16.55C7.895 16.341 7.745 15.855 7.442 15.09C7.13104 14.3089 6.75331 13.5562 6.313 12.84C5.983 12.291 5.659 11.877 5.34 11.596C5.022 11.316 4.72 11.176 4.434 11.176C4.204 11.176 3.948 11.322 3.667 11.613C3.387 11.904 3.247 12.176 3.247 12.429C3.247 12.692 3.384 13.089 3.659 13.616C3.934 14.143 4.302 14.703 4.764 15.296C5.247 15.946 5.704 16.451 6.132 16.813C6.56 17.176 6.901 17.357 7.154 17.357ZM2.209 16.962C2.362 17.149 2.577 17.423 2.851 17.786C3.577 18.786 4.247 19.286 4.862 19.286C5.06606 19.2874 5.26417 19.2174 5.422 19.088C5.588 18.956 5.67 18.818 5.67 18.676C5.67 18.511 5.56 18.236 5.34 17.852C5.12 17.467 4.818 17.033 4.434 16.55C3.994 15.99 3.629 15.58 3.338 15.322C3.047 15.064 2.813 14.934 2.638 14.934C2.252 14.934 1.898 15.14 1.574 15.552C1.25 15.964 1.088 16.451 1.088 17.012C1.088 17.462 1.2 17.965 1.426 18.519C1.651 19.074 1.978 19.632 2.406 20.192C3.03663 21.0457 3.86546 21.7331 4.821 22.195C5.783 22.662 6.846 22.895 8.011 22.895C10.154 22.895 11.948 22.096 13.393 20.497C14.838 18.898 15.56 16.896 15.56 14.489C15.56 13.753 15.505 13.168 15.395 12.734C15.285 12.3 15.105 11.984 14.851 11.786C14.401 11.412 13.525 11.077 12.222 10.78C10.883 10.4793 9.51438 10.33 8.142 10.335C7.747 10.335 7.467 10.401 7.302 10.533C7.137 10.665 7.055 10.89 7.055 11.209C7.055 11.956 7.472 12.497 8.308 12.832C9.142 13.168 10.494 13.335 12.363 13.335H13.038C13.192 13.335 13.316 13.393 13.409 13.508C13.502 13.624 13.566 13.797 13.599 14.028C13.412 14.203 13.027 14.404 12.445 14.629C11.862 14.854 11.417 15.077 11.11 15.297C10.4705 15.7593 9.92994 16.3448 9.52 17.019C9.118 17.684 8.917 18.313 8.917 18.907C8.917 19.269 9.002 19.707 9.173 20.217C9.343 20.728 9.428 21.044 9.428 21.165V21.28L9.395 21.429C8.912 21.396 8.53 21.113 8.25 20.579C7.97 20.047 7.83 19.335 7.83 18.445V18.297C7.75452 18.366 7.66798 18.4217 7.574 18.462C7.48737 18.4959 7.39503 18.5129 7.302 18.512C7.203 18.512 7.11 18.503 7.022 18.486C6.92175 18.4666 6.82261 18.4419 6.725 18.412C6.78071 18.6168 6.81391 18.827 6.824 19.039C6.824 19.445 6.664 19.794 6.346 20.085C6.03771 20.3721 5.63023 20.5287 5.209 20.522C4.516 20.522 3.813 20.184 3.099 19.508C2.384 18.833 2.027 18.171 2.027 17.522C2.027 17.402 2.041 17.294 2.068 17.201C2.09344 17.1104 2.14163 17.0278 2.208 16.961L2.209 16.962ZM14.011 10.236C15 10.423 15.698 10.841 16.104 11.489C16.511 12.138 16.714 13.159 16.714 14.555C16.714 17.325 15.882 19.591 14.217 21.355C12.552 23.118 10.423 24 7.83 24C6.81246 24.001 5.80349 23.8139 4.854 23.448C3.93281 23.1049 3.08959 22.581 2.374 21.907C1.582 21.181 0.989 20.415 0.594 19.607C0.207223 18.8373 0.00391354 17.9884 0 17.127C0 16.181 0.203 15.451 0.61 14.934C1.016 14.418 1.659 14.066 2.538 13.879C2.39838 13.5624 2.2775 13.2378 2.176 12.907C2.099 12.643 2.06 12.44 2.06 12.297C2.06 11.802 2.321 11.297 2.843 10.78C3.365 10.264 3.857 10.006 4.318 10.006C4.516 10.006 4.725 10.041 4.945 10.113C5.165 10.184 5.417 10.303 5.703 10.467C4.857 8.071 4.242 6.223 3.857 4.92C3.472 3.618 3.28 2.72 3.28 2.225C3.28 1.544 3.456 1.003 3.808 0.602C4.159 0.2 4.637 0 5.242 0C6.274 0 7.582 2.308 9.165 6.923C9.439 7.714 9.648 8.324 9.791 8.753L10.302 7.303C11.884 2.73 13.247 0.444 14.39 0.444C14.95 0.444 15.398 0.634 15.733 1.013C16.069 1.392 16.236 1.9 16.236 2.537C16.236 3.021 16.052 3.906 15.684 5.191C15.316 6.477 14.758 8.158 14.011 10.235" fill="black"/>
</svg>
