<svg width="130" height="89" viewBox="0 0 130 89" fill="none" xmlns="http://www.w3.org/2000/svg">
<path d="M64.9998 79.5516C84.5265 79.5516 100.356 63.7221 100.356 44.1954C100.356 24.6686 84.5265 8.83911 64.9998 8.83911C45.4731 8.83911 29.6436 24.6686 29.6436 44.1954C29.6436 63.7221 45.4731 79.5516 64.9998 79.5516Z" fill="#E6EEFF"/>
<g filter="url(#filter0_dd_4_10856)">
<path d="M103.008 16.7942H28.7597C24.8544 16.7942 21.6885 19.9601 21.6885 23.8654V60.9895C21.6885 64.8948 24.8544 68.0608 28.7597 68.0608H103.008C106.913 68.0608 110.079 64.8948 110.079 60.9895V23.8654C110.079 19.9601 106.913 16.7942 103.008 16.7942Z" fill="white"/>
<mask id="mask0_4_10856" style="mask-type:luminance" maskUnits="userSpaceOnUse" x="28" y="23" width="38" height="38">
<path d="M65.4491 23.8655H28.9248V60.3898H65.4491V23.8655Z" fill="white"/>
</mask>
<g mask="url(#mask0_4_10856)">
<path d="M62.292 31.8514C60.5989 29.369 58.3189 27.3423 55.6539 25.9509C55.7386 27.0145 55.5708 28.083 55.1644 29.0697C54.7579 30.0564 54.124 30.9333 53.3145 31.6293C55.3976 32.8419 57.0743 34.6439 58.1329 36.8076C59.1915 38.9713 59.5846 41.3998 59.2624 43.7866C59.6017 43.6322 59.9595 43.5223 60.3269 43.4594L61.0462 43.4243C61.327 43.0213 61.6019 42.6065 61.8593 42.1859C62.024 41.8194 62.2197 41.4676 62.4441 41.1343C62.5142 40.9883 62.5844 40.848 62.6488 40.7078C63.1986 39.5394 64.2689 40.4157 65.2689 39.9425C64.7952 35.8006 63.6547 33.8377 62.292 31.8514Z" fill="#5D5FEF"/>
<path d="M44.91 58.0819H45.0678C44.9918 57.7081 44.91 57.34 44.8047 56.9661C44.7638 56.8084 44.7111 56.6506 44.6702 56.4929V56.452L44.2491 55.1201C44.1323 54.7423 44.0886 54.3458 44.1204 53.9516C41.8111 53.3467 39.7319 52.0746 38.1431 50.2946C37.0898 51.3986 35.8986 52.3626 34.5989 53.163C34.155 53.4533 33.6753 53.685 33.1719 53.8524C35.3885 56.528 39.2778 58.6661 42.3951 59.6944C43.29 58.8122 43.5882 58.0819 44.91 58.0819Z" fill="#FECE4D"/>
<path d="M38.7621 50.9488C38.1618 50.3731 37.6228 49.7368 37.1537 49.0502C35.5164 46.6621 34.7845 43.7693 35.0893 40.8909C35.3941 38.0125 36.7155 35.3367 38.8166 33.3434C40.9178 31.3502 43.661 30.1698 46.5546 30.0141C49.4481 29.8585 52.3025 30.7376 54.6058 32.4939L57.302 26.9382C50.8686 22.767 43.979 22.8487 36.873 27.1018C32.8735 29.8403 30.1265 34.0532 29.236 38.8143C28.3454 43.5755 29.3842 48.4949 32.124 52.4912C32.5913 53.1742 33.1053 53.8242 33.6621 54.4366L38.7621 50.9488Z" fill="#9FC0FF"/>
<path d="M42.8945 59.3778L44.2462 54.3657C46.1827 54.8245 48.2027 54.8201 50.1408 54.3501C52.2229 53.8452 54.1423 52.8195 55.7182 51.3694C57.2942 49.9193 58.4751 48.0925 59.1495 46.0609C59.7672 44.2001 59.9416 42.2237 59.6621 40.2883L64.9155 40.3728C65.4848 46.512 63.3464 51.6012 58.6028 55.6066C56.8618 57.0761 54.8719 58.2228 52.7268 58.9925C49.5862 60.1148 46.8697 60.2565 42.8945 59.3778Z" fill="#3D7FFC" stroke="#3D7FFC" stroke-width="0.883906"/>
<path d="M47.3708 52.3736C52.9124 52.3736 57.4048 47.8813 57.4048 42.3397C57.4048 36.7981 52.9124 32.3058 47.3708 32.3058C41.8293 32.3058 37.3369 36.7981 37.3369 42.3397C37.3369 47.8813 41.8293 52.3736 47.3708 52.3736Z" fill="#E7EEFF"/>
</g>
<path d="M79.3452 30.0527C79.3452 29.0764 78.5537 28.2849 77.5774 28.2849C76.601 28.2849 75.8096 29.0764 75.8096 30.0527C75.8096 31.0291 76.601 31.8205 77.5774 31.8205C78.5537 31.8205 79.3452 31.0291 79.3452 30.0527Z" fill="#5D5FEF"/>
<path d="M79.3452 38.9678C79.3452 37.9914 78.5537 37.2 77.5774 37.2C76.601 37.2 75.8096 37.9914 75.8096 38.9678C75.8096 39.9441 76.601 40.7356 77.5774 40.7356C78.5537 40.7356 79.3452 39.9441 79.3452 38.9678Z" fill="#3D7FFC"/>
<path d="M79.3452 47.8741C79.3452 46.8978 78.5537 46.1063 77.5774 46.1063C76.601 46.1063 75.8096 46.8978 75.8096 47.8741C75.8096 48.8505 76.601 49.6419 77.5774 49.6419C78.5537 49.6419 79.3452 48.8505 79.3452 47.8741Z" fill="#76A5FF"/>
<path d="M79.3452 56.7884C79.3452 55.8121 78.5537 55.0206 77.5774 55.0206C76.601 55.0206 75.8096 55.8121 75.8096 56.7884C75.8096 57.7648 76.601 58.5563 77.5774 58.5563C78.5537 58.5563 79.3452 57.7648 79.3452 56.7884Z" fill="#FECE4D"/>
</g>
<path d="M99.472 28.285H84.4455C83.4692 28.285 82.6777 29.0765 82.6777 30.0528C82.6777 31.0292 83.4692 31.8207 84.4455 31.8207H99.472C100.448 31.8207 101.24 31.0292 101.24 30.0528C101.24 29.0765 100.448 28.285 99.472 28.285Z" fill="#EDF1F6"/>
<path d="M95.0524 37.124H84.4455C83.4692 37.124 82.6777 37.9155 82.6777 38.8918C82.6777 39.8682 83.4692 40.6596 84.4455 40.6596H95.0524C96.0288 40.6596 96.8202 39.8682 96.8202 38.8918C96.8202 37.9155 96.0288 37.124 95.0524 37.124Z" fill="#EDF1F6"/>
<path d="M97.7041 45.9631H84.4455C83.4692 45.9631 82.6777 46.7546 82.6777 47.7309C82.6777 48.7073 83.4692 49.4988 84.4455 49.4988H97.7041C98.6805 49.4988 99.472 48.7073 99.472 47.7309C99.472 46.7546 98.6805 45.9631 97.7041 45.9631Z" fill="#EDF1F6"/>
<path d="M92.4007 54.8022H84.4455C83.4692 54.8022 82.6777 55.5937 82.6777 56.5701C82.6777 57.5464 83.4692 58.3379 84.4455 58.3379H92.4007C93.377 58.3379 94.1685 57.5464 94.1685 56.5701C94.1685 55.5937 93.377 54.8022 92.4007 54.8022Z" fill="#EDF1F6"/>
<defs>
<filter id="filter0_dd_4_10856" x="11.0816" y="7.95513" width="109.604" height="72.4804" filterUnits="userSpaceOnUse" color-interpolation-filters="sRGB">
<feFlood flood-opacity="0" result="BackgroundImageFix"/>
<feColorMatrix in="SourceAlpha" type="matrix" values="0 0 0 0 0 0 0 0 0 0 0 0 0 0 0 0 0 0 127 0" result="hardAlpha"/>
<feOffset dy="3.53562"/>
<feGaussianBlur stdDeviation="4.41953"/>
<feColorMatrix type="matrix" values="0 0 0 0 0.607843 0 0 0 0 0.67451 0 0 0 0 0.737255 0 0 0 0.35 0"/>
<feBlend mode="normal" in2="BackgroundImageFix" result="effect1_dropShadow_4_10856"/>
<feColorMatrix in="SourceAlpha" type="matrix" values="0 0 0 0 0 0 0 0 0 0 0 0 0 0 0 0 0 0 127 0" result="hardAlpha"/>
<feOffset dy="1.76781"/>
<feGaussianBlur stdDeviation="5.30344"/>
<feColorMatrix type="matrix" values="0 0 0 0 0.89625 0 0 0 0 0.930414 0 0 0 0 0.995833 0 0 0 0.5 0"/>
<feBlend mode="normal" in2="effect1_dropShadow_4_10856" result="effect2_dropShadow_4_10856"/>
<feBlend mode="normal" in="SourceGraphic" in2="effect2_dropShadow_4_10856" result="shape"/>
</filter>
</defs>
</svg>
