<svg width="217" height="79" viewBox="0 0 217 79" fill="none" xmlns="http://www.w3.org/2000/svg">
<rect width="197" height="58.9531" rx="5" fill="#3D7FFC"/>
<rect x="20" y="20" width="197" height="58.9531" rx="5" fill="white"/>
<path d="M54.4934 55.5852V48.8569L48.6504 39.5613H52.4572L56.1754 45.9354L59.8937 39.5613H63.6119L57.6804 48.8569V55.5852H54.4934Z" fill="#FF412C"/>
<path d="M60.6016 49.6537C60.6016 48.5913 60.8672 47.6175 61.3983 46.7322C61.9295 45.7584 62.6377 45.0501 63.523 44.5189C64.4083 43.9878 65.4707 43.7222 66.6216 43.7222C68.3922 43.7222 69.8087 44.2533 70.9596 45.4042C72.1104 46.5551 72.6416 47.9716 72.6416 49.7422C72.6416 51.5128 72.1104 52.9293 70.9596 54.0802C69.8087 55.231 68.3922 55.8508 66.7101 55.8508C65.6478 55.8508 64.5854 55.5852 63.7001 55.1425C62.7263 54.6999 62.018 53.9916 61.4869 53.0178C60.8672 52.1325 60.6016 50.9816 60.6016 49.6537ZM63.7001 49.8307C63.7001 50.9816 63.9657 51.8669 64.4969 52.4866C65.0281 53.1063 65.7363 53.3719 66.5331 53.3719C67.3298 53.3719 68.0381 53.1063 68.5692 52.4866C69.1004 51.8669 69.366 50.9816 69.366 49.8307C69.366 48.6798 69.1004 47.7945 68.5692 47.1748C68.0381 46.5551 67.3298 46.2895 66.5331 46.2895C65.7363 46.2895 65.0281 46.5551 64.4969 47.1748C64.0542 47.7945 63.7001 48.6798 63.7001 49.8307Z" fill="#FF412C"/>
<path d="M81.318 55.5852V53.8146C80.8753 54.4343 80.3441 54.9655 79.6359 55.3196C78.9277 55.6737 78.2194 55.8508 77.4227 55.8508C76.6259 55.8508 75.9176 55.6737 75.2979 55.3196C74.6782 54.9655 74.2356 54.5228 73.97 53.9031C73.7044 53.2834 73.5273 52.3981 73.5273 51.3358V43.9878H76.6259V49.2996C76.6259 50.8931 76.7144 51.9555 76.8029 52.3096C76.8915 52.6637 77.1571 52.9293 77.4227 53.1949C77.6882 53.372 78.1309 53.549 78.5735 53.549C79.1047 53.549 79.5474 53.372 79.99 53.1064C80.4327 52.8408 80.6983 52.4867 80.8753 52.044C81.0524 51.6014 81.1409 50.539 81.1409 48.9455V44.0763H84.2395V55.6737H81.318V55.5852Z" fill="#FF412C"/>
<path d="M93.4468 49.7422V46.9977H100.441V53.3719C99.7325 53.9916 98.7586 54.6113 97.5192 55.1425C96.1913 55.6737 94.9518 55.8507 93.6239 55.8507C91.9418 55.8507 90.5254 55.4966 89.1974 54.7884C87.958 54.0801 86.9842 53.1063 86.3645 51.7784C85.7447 50.4504 85.3906 49.0339 85.3906 47.5289C85.3906 45.8469 85.7447 44.3419 86.453 43.1024C87.1612 41.7745 88.1351 40.8007 89.5515 40.0924C90.6139 39.5612 91.8533 39.2957 93.3583 39.2957C95.306 39.2957 96.8995 39.7383 98.0504 40.5351C99.2013 41.3318 99.9095 42.4827 100.175 43.9877L96.988 44.6074C96.7224 43.8107 96.3683 43.191 95.7486 42.7483C95.1289 42.3057 94.3321 42.0401 93.4468 42.0401C92.0304 42.0401 90.8795 42.4827 90.0827 43.368C89.2859 44.2533 88.8433 45.5813 88.8433 47.3519C88.8433 49.2995 89.2859 50.716 90.0827 51.6013C90.968 52.5751 92.0304 53.0178 93.4468 53.0178C94.1551 53.0178 94.7748 52.8407 95.483 52.5751C96.1913 52.3095 96.7224 51.9554 97.2536 51.6013V49.5651H93.4468V49.7422Z" fill="#FF412C"/>
<path d="M101.325 49.6537C101.325 48.5913 101.591 47.6175 102.122 46.7322C102.653 45.7584 103.361 45.0501 104.247 44.5189C105.132 43.9878 106.194 43.7222 107.345 43.7222C109.116 43.7222 110.532 44.2533 111.683 45.4042C112.834 46.5551 113.365 47.9716 113.365 49.7422C113.365 51.5128 112.834 52.9293 111.683 54.0802C110.532 55.231 109.116 55.8508 107.434 55.8508C106.371 55.8508 105.398 55.5852 104.424 55.1425C103.45 54.6999 102.742 53.9916 102.21 53.0178C101.591 52.1325 101.325 50.9816 101.325 49.6537ZM104.512 49.8307C104.512 50.9816 104.778 51.8669 105.309 52.4866C105.84 53.1063 106.548 53.3719 107.345 53.3719C108.142 53.3719 108.85 53.1063 109.381 52.4866C109.913 51.8669 110.178 50.9816 110.178 49.8307C110.178 48.6798 109.913 47.7945 109.381 47.1748C108.85 46.5551 108.142 46.2895 107.345 46.2895C106.548 46.2895 105.84 46.5551 105.309 47.1748C104.778 47.7945 104.512 48.6798 104.512 49.8307Z" fill="#FF412C"/>
<path d="M117.615 55.5852L112.923 43.9878H116.11L118.323 49.9193L118.943 51.8669C119.12 51.3358 119.208 51.0702 119.297 50.8931C119.386 50.539 119.474 50.2734 119.651 49.9193L121.864 43.9878H125.051L120.448 55.5852H117.615Z" fill="#FF412C"/>
<path d="M125.671 40.2695C125.937 40.2695 126.202 40.3581 126.468 40.4466C126.733 40.6237 126.91 40.8007 127.087 40.9778C127.265 41.2434 127.265 41.5089 127.265 41.7745C127.265 42.0401 127.176 42.3057 127.087 42.5713C126.91 42.8369 126.733 43.014 126.556 43.191C126.291 43.3681 126.025 43.3681 125.76 43.3681C125.494 43.3681 125.228 43.2795 124.963 43.191C124.697 43.014 124.52 42.8369 124.343 42.5713C124.166 42.3057 124.166 42.0401 124.166 41.7745C124.166 41.5089 124.255 41.2434 124.343 40.9778C124.52 40.7122 124.697 40.5351 124.963 40.4466C125.14 40.2695 125.405 40.2695 125.671 40.2695ZM125.671 40.5351C125.494 40.5351 125.228 40.6237 125.051 40.7122C124.874 40.8007 124.697 40.9778 124.609 41.1548C124.52 41.3319 124.432 41.5975 124.432 41.7745C124.432 42.0401 124.52 42.2172 124.609 42.3942C124.697 42.5713 124.874 42.7484 125.051 42.8369C125.228 42.9254 125.494 43.014 125.671 43.014C125.937 43.014 126.114 42.9254 126.291 42.8369C126.468 42.7484 126.645 42.5713 126.733 42.3942C126.822 42.2172 126.91 41.9516 126.91 41.7745C126.91 41.5089 126.822 41.3319 126.733 41.1548C126.645 40.9778 126.468 40.8007 126.291 40.7122C126.114 40.5351 125.848 40.5351 125.671 40.5351ZM124.963 42.6598V40.9778H125.582C125.76 40.9778 125.937 40.9778 126.025 41.0663C126.114 41.0663 126.202 41.1548 126.202 41.2434C126.291 41.3319 126.291 41.4204 126.291 41.5089C126.291 41.5975 126.291 41.7745 126.202 41.8631C126.114 41.9516 126.025 42.0401 125.848 42.0401C125.937 42.0401 125.937 42.1287 126.025 42.1287C126.114 42.2172 126.202 42.3057 126.291 42.4828L126.468 42.8369H126.114L125.937 42.3942C125.848 42.2172 125.76 42.0401 125.671 42.0401C125.582 42.0401 125.582 41.9516 125.494 41.9516H125.317V42.6598H124.963ZM125.228 41.686H125.582C125.76 41.686 125.848 41.686 125.937 41.5975C126.025 41.5089 126.025 41.5089 126.025 41.4204C126.025 41.3319 126.025 41.3319 126.025 41.2434L125.937 41.1548C125.848 41.1548 125.76 41.1548 125.671 41.1548H125.405V41.686H125.228Z" fill="#FF412C"/>
<path d="M139.57 42.7482C139.128 42.217 138.508 41.7744 137.711 41.5088C136.915 41.1547 136.029 41.0661 135.055 41.0661C133.639 41.0661 132.577 41.3317 131.868 41.8629C131.249 42.3941 130.895 43.1909 130.895 44.0761C130.895 44.6073 130.983 44.9614 131.16 45.3156C131.337 45.6697 131.603 45.9353 131.957 46.1123C132.311 46.3779 132.842 46.555 133.373 46.732C133.993 46.9091 134.613 47.0862 135.41 47.2632C136.295 47.4403 137.092 47.6173 137.8 47.8829C138.508 48.1485 139.128 48.4141 139.57 48.7682C140.102 49.1224 140.456 49.565 140.721 50.0076C140.987 50.5388 141.075 51.07 141.075 51.8668C141.075 52.6635 140.898 53.2833 140.633 53.8144C140.367 54.3456 139.925 54.7883 139.393 55.2309C138.862 55.585 138.243 55.8506 137.534 56.0277C136.826 56.2047 136.029 56.2933 135.144 56.2933C132.577 56.2933 130.452 55.4965 128.593 53.903L129.39 52.575C129.655 52.8406 130.009 53.1947 130.452 53.4603C130.895 53.7259 131.337 53.9915 131.78 54.1685C132.311 54.3456 132.842 54.5227 133.373 54.6112C133.905 54.6997 134.524 54.7883 135.144 54.7883C136.472 54.7883 137.446 54.5227 138.243 54.08C138.951 53.6374 139.305 52.9291 139.305 51.9553C139.305 51.4241 139.216 50.9815 138.951 50.7159C138.774 50.3618 138.42 50.0962 137.977 49.8306C137.534 49.565 137.003 49.3879 136.472 49.2109C135.852 49.0338 135.144 48.8568 134.347 48.6797C133.462 48.5026 132.754 48.2371 132.045 48.06C131.426 47.8829 130.895 47.6173 130.452 47.2632C130.009 46.9091 129.655 46.555 129.478 46.1123C129.212 45.6697 129.124 45.1385 129.124 44.4303C129.124 43.6335 129.301 43.0138 129.567 42.3941C129.832 41.7744 130.275 41.3317 130.806 40.8891C131.337 40.535 131.957 40.1808 132.665 40.0038C133.373 39.8267 134.17 39.6497 135.055 39.6497C136.118 39.6497 137.092 39.8267 137.977 40.1808C138.862 40.535 139.57 40.9776 140.279 41.5973L139.57 42.7482Z" fill="#FF412C"/>
<path d="M149.84 56.2933C148.866 56.2933 147.892 56.0277 147.184 55.4965C146.387 54.9653 145.768 54.3456 145.325 53.5488V60.9853H143.731V44.0761H145.148V46.3779C145.679 45.5811 146.299 45.05 147.096 44.5188C147.892 44.0761 148.689 43.8105 149.663 43.8105C150.46 43.8105 151.256 43.9876 151.965 44.3417C152.673 44.6958 153.293 45.1385 153.735 45.7582C154.266 46.3779 154.621 46.9976 154.886 47.7944C155.152 48.5912 155.329 49.2994 155.329 50.0962C155.329 50.9815 155.24 51.7782 154.975 52.4865C154.709 53.2832 154.355 53.9029 153.824 54.4341C153.381 54.9653 152.761 55.4965 152.053 55.7621C151.345 56.1162 150.637 56.2933 149.84 56.2933ZM149.397 54.8768C150.017 54.8768 150.637 54.6997 151.168 54.4341C151.699 54.1685 152.142 53.8144 152.496 53.3718C152.85 52.9291 153.204 52.3979 153.381 51.8668C153.558 51.2471 153.647 50.7159 153.647 50.0962C153.647 49.4765 153.558 48.8567 153.293 48.237C153.027 47.6173 152.761 47.1747 152.319 46.732C151.876 46.2894 151.434 45.9353 150.902 45.6697C150.371 45.4041 149.751 45.3156 149.132 45.3156C148.689 45.3156 148.335 45.4041 147.892 45.5811C147.45 45.7582 147.007 45.9353 146.653 46.2009C146.299 46.4664 145.945 46.8206 145.679 47.1747C145.414 47.5288 145.236 47.8829 145.148 48.3256V52.0438C145.325 52.4865 145.591 52.8406 145.856 53.2832C146.122 53.6374 146.476 53.9915 146.83 54.2571C147.184 54.5227 147.538 54.6997 147.981 54.8768C148.512 54.7882 148.955 54.8768 149.397 54.8768Z" fill="#FF412C"/>
<path d="M163.031 56.2933C162.146 56.2933 161.349 56.1163 160.641 55.7622C159.933 55.408 159.313 54.9654 158.782 54.4342C158.25 53.903 157.808 53.1948 157.542 52.4866C157.277 51.6898 157.1 50.9816 157.1 50.0963C157.1 49.211 157.277 48.4142 157.542 47.706C157.808 46.9092 158.25 46.2895 158.782 45.7583C159.313 45.2271 159.933 44.6959 160.641 44.4303C161.349 44.0762 162.146 43.8992 163.031 43.8992C163.916 43.8992 164.713 44.0762 165.421 44.4303C166.13 44.7845 166.749 45.2271 167.281 45.7583C167.812 46.2895 168.254 46.9977 168.52 47.706C168.786 48.5027 168.963 49.2995 168.963 50.0963C168.963 50.893 168.786 51.6898 168.52 52.4866C168.254 53.2833 167.812 53.903 167.281 54.4342C166.749 54.9654 166.13 55.4966 165.421 55.7622C164.713 56.1163 163.916 56.2933 163.031 56.2933ZM158.693 50.0963C158.693 50.8045 158.782 51.4242 159.047 51.9554C159.313 52.5751 159.578 53.0177 160.021 53.4604C160.375 53.903 160.906 54.2572 161.438 54.5228C161.969 54.7883 162.5 54.8769 163.12 54.8769C163.739 54.8769 164.271 54.7883 164.802 54.5228C165.333 54.2572 165.776 53.903 166.218 53.4604C166.661 53.0177 166.926 52.4866 167.192 51.9554C167.458 51.3357 167.546 50.716 167.546 50.0963C167.546 49.4766 167.458 48.7683 167.192 48.2371C166.926 47.6174 166.661 47.1748 166.218 46.7321C165.776 46.2895 165.333 45.9354 164.802 45.6698C164.271 45.4042 163.739 45.3156 163.12 45.3156C162.5 45.3156 161.969 45.4042 161.438 45.6698C160.906 45.9354 160.464 46.2895 160.021 46.7321C159.578 47.1748 159.313 47.706 159.047 48.3257C158.782 48.7683 158.693 49.388 158.693 50.0963Z" fill="#FF412C"/>
<path d="M177.638 45.4041C176.576 45.4041 175.691 45.7582 174.894 46.2894C174.097 46.8206 173.566 47.6174 173.212 48.5912V56.0277H171.618V44.0762H173.123V46.9977C173.566 46.1124 174.186 45.3156 174.894 44.8729C175.691 44.3418 176.487 44.0762 177.284 44.0762C177.373 44.0762 177.55 44.0762 177.55 44.0762V45.4041H177.638Z" fill="#FF412C"/>
<path d="M185.518 55.4964C185.429 55.5849 185.252 55.5849 185.075 55.6734C184.898 55.762 184.721 55.8505 184.455 55.939C184.19 56.0276 183.924 56.1161 183.659 56.1161C183.393 56.2046 183.039 56.2046 182.773 56.2046C182.419 56.2046 182.154 56.1161 181.799 56.0276C181.534 55.939 181.18 55.762 181.003 55.5849C180.737 55.4079 180.56 55.1423 180.471 54.8767C180.294 54.6111 180.294 54.257 180.294 53.9028V45.3155H178.612V44.076H180.294V40.0037H181.888V44.076H184.632V45.3155H181.888V53.4602C181.888 53.9028 182.065 54.257 182.331 54.434C182.596 54.6111 182.95 54.7881 183.304 54.7881C183.747 54.7881 184.101 54.6996 184.455 54.6111C184.809 54.434 184.986 54.3455 185.075 54.257L185.518 55.4964Z" fill="#FF412C"/>
</svg>
