<svg width="618" height="200" viewBox="0 0 618 200" fill="none" xmlns="http://www.w3.org/2000/svg">
<g clip-path="url(#clip0_2_9269)">
<path d="M129.766 0H-8.7717C-11.5891 0 -13.873 2.28395 -13.873 5.10135V117.331C-13.873 120.148 -11.5891 122.432 -8.7717 122.432H129.766C132.583 122.432 134.867 120.148 134.867 117.331V5.10135C134.867 2.28395 132.583 0 129.766 0Z" fill="#F8A61B" fill-opacity="0.12"/>
<mask id="mask0_2_9269" style="mask-type:luminance" maskUnits="userSpaceOnUse" x="42" y="25" width="37" height="38">
<path d="M78.9709 25.5068H42.2412V62.2366H78.9709V25.5068Z" fill="white"/>
</mask>
<g mask="url(#mask0_2_9269)">
<path d="M56.0148 59.1751C56.8601 59.1751 57.5452 58.4898 57.5452 57.6447C57.5452 56.7995 56.8601 56.1143 56.0148 56.1143C55.1696 56.1143 54.4844 56.7995 54.4844 57.6447C54.4844 58.4898 55.1696 59.1751 56.0148 59.1751Z" stroke="#F8A61B" stroke-width="2.04054" stroke-linecap="round" stroke-linejoin="round"/>
<path d="M72.8497 59.1751C73.6949 59.1751 74.3802 58.4898 74.3802 57.6447C74.3802 56.7995 73.6949 56.1143 72.8497 56.1143C72.0046 56.1143 71.3193 56.7995 71.3193 57.6447C71.3193 58.4898 72.0046 59.1751 72.8497 59.1751Z" stroke="#F8A61B" stroke-width="2.04054" stroke-linecap="round" stroke-linejoin="round"/>
<path d="M43.7725 27.0371H49.8941L53.9956 47.5292C54.1355 48.2339 54.5188 48.8668 55.0784 49.3172C55.6379 49.7676 56.3382 50.0069 57.0564 49.9932H71.9319C72.6502 50.0069 73.3503 49.7676 73.9099 49.3172C74.4694 48.8668 74.8528 48.2339 74.9928 47.5292L77.4414 34.6891H51.4245" stroke="#F8A61B" stroke-width="2.04054" stroke-linecap="round" stroke-linejoin="round"/>
</g>
<path d="M12.9071 86.7455V89.3084H17.7227V91.4631H10.6543V80.0361H17.6411V82.191H12.9071V84.6233H17.233V86.7455H12.9071ZM25.4323 87.5453H19.3106V85.5211H25.4323V87.5453ZM35.4208 91.6918C34.1911 91.6918 33.1626 91.2782 32.3355 90.4511C31.5193 89.624 31.1112 88.6009 31.1112 87.3821C31.1112 86.1632 31.5193 85.1402 32.3355 84.3131C33.1626 83.486 34.1911 83.0725 35.4208 83.0725C36.2153 83.0725 36.939 83.2629 37.592 83.6439C38.245 84.0247 38.7401 84.5363 39.0775 85.1783L37.2655 86.2394C37.1023 85.9021 36.8519 85.6354 36.5146 85.4395C36.1881 85.2436 35.8181 85.1456 35.4045 85.1456C34.7734 85.1456 34.2509 85.3579 33.8374 85.7823C33.4238 86.1959 33.2171 86.7291 33.2171 87.3821C33.2171 88.0133 33.4238 88.5466 33.8374 88.9819C34.2509 89.3955 34.7734 89.6022 35.4045 89.6022C35.829 89.6022 36.2045 89.5097 36.531 89.3247C36.8682 89.1289 37.1185 88.8621 37.2818 88.5248L39.1102 89.5696C38.751 90.2226 38.2396 90.7395 37.5757 91.1204C36.9227 91.5012 36.2045 91.6918 35.4208 91.6918ZM47.0505 90.4511C46.2234 91.2782 45.2005 91.6918 43.9816 91.6918C42.7627 91.6918 41.7397 91.2782 40.9126 90.4511C40.0854 89.624 39.6719 88.6009 39.6719 87.3821C39.6719 86.1741 40.0854 85.1565 40.9126 84.3294C41.7506 83.4915 42.7735 83.0725 43.9816 83.0725C45.1896 83.0725 46.2125 83.4915 47.0505 84.3294C47.8885 85.1674 48.3075 86.185 48.3075 87.3821C48.3075 88.5901 47.8885 89.6131 47.0505 90.4511ZM42.398 88.9982C42.8225 89.4226 43.3503 89.6349 43.9816 89.6349C44.6128 89.6349 45.1406 89.4226 45.565 88.9982C45.9895 88.5737 46.2016 88.035 46.2016 87.3821C46.2016 86.7291 45.9895 86.1905 45.565 85.766C45.1406 85.3416 44.6128 85.1293 43.9816 85.1293C43.3503 85.1293 42.8225 85.3416 42.398 85.766C41.9846 86.2013 41.7778 86.74 41.7778 87.3821C41.7778 88.0242 41.9846 88.5628 42.398 88.9982ZM58.8163 83.0725C59.7522 83.0725 60.4977 83.3772 61.0527 83.9866C61.6186 84.5961 61.9016 85.4122 61.9016 86.4353V91.4631H59.7958V86.5822C59.7958 86.0925 59.676 85.7115 59.4366 85.4395C59.1972 85.1674 58.8598 85.0314 58.4245 85.0314C57.9457 85.0314 57.5702 85.1892 57.2981 85.5048C57.0369 85.8204 56.9064 86.2774 56.9064 86.876V91.4631H54.8005V86.5822C54.8005 86.0925 54.6807 85.7115 54.4413 85.4395C54.2019 85.1674 53.8645 85.0314 53.4293 85.0314C52.9613 85.0314 52.5859 85.1946 52.3029 85.5211C52.0308 85.8367 51.8948 86.2883 51.8948 86.876V91.4631H49.7889V83.301H51.8948V84.1662C52.3845 83.437 53.1409 83.0725 54.1638 83.0725C55.176 83.0725 55.916 83.4642 56.3839 84.2479C56.9173 83.4642 57.728 83.0725 58.8163 83.0725ZM72.7175 83.0725C73.6534 83.0725 74.3989 83.3772 74.9539 83.9866C75.5198 84.5961 75.8028 85.4122 75.8028 86.4353V91.4631H73.6969V86.5822C73.6969 86.0925 73.5773 85.7115 73.3377 85.4395C73.0983 85.1674 72.7609 85.0314 72.3257 85.0314C71.8469 85.0314 71.4714 85.1892 71.1993 85.5048C70.9381 85.8204 70.8075 86.2774 70.8075 86.876V91.4631H68.7017V86.5822C68.7017 86.0925 68.582 85.7115 68.3426 85.4395C68.1032 85.1674 67.7658 85.0314 67.3304 85.0314C66.8625 85.0314 66.487 85.1946 66.204 85.5211C65.932 85.8367 65.796 86.2883 65.796 86.876V91.4631H63.6901V83.301H65.796V84.1662C66.2857 83.437 67.042 83.0725 68.0651 83.0725C69.0771 83.0725 69.8172 83.4642 70.2851 84.2479C70.8184 83.4642 71.6291 83.0725 72.7175 83.0725ZM85.5249 88.2473H79.3706C79.6427 89.2703 80.41 89.7817 81.6723 89.7817C82.4778 89.7817 83.0871 89.5097 83.5007 88.9655L85.1984 89.9451C84.3931 91.1095 83.2069 91.6918 81.6398 91.6918C80.2902 91.6918 79.2074 91.2836 78.3912 90.4674C77.575 89.6512 77.1669 88.6227 77.1669 87.3821C77.1669 86.1632 77.5696 85.1402 78.3749 84.3131C79.1693 83.486 80.2032 83.0725 81.4765 83.0725C82.6845 83.0725 83.6693 83.486 84.4312 84.3131C85.2148 85.1402 85.6066 86.1632 85.6066 87.3821C85.6066 87.6107 85.5794 87.8991 85.5249 88.2473ZM79.3381 86.6148H83.5007C83.3809 86.0816 83.1361 85.6735 82.7662 85.3906C82.407 85.1076 81.9771 84.9661 81.4765 84.9661C80.9106 84.9661 80.4426 85.1131 80.0726 85.4068C79.7026 85.6899 79.4577 86.0925 79.3381 86.6148ZM89.1825 83.301V84.7049C89.3675 84.1934 89.6831 83.8071 90.1292 83.5459C90.5755 83.2738 91.087 83.1377 91.6638 83.1377V85.4885C91.0217 85.4015 90.4449 85.532 89.9334 85.8803C89.4328 86.2177 89.1825 86.7781 89.1825 87.5617V91.4631H87.0766V83.301H89.1825ZM96.4776 91.6918C95.2479 91.6918 94.2194 91.2782 93.3923 90.4511C92.5761 89.624 92.168 88.6009 92.168 87.3821C92.168 86.1632 92.5761 85.1402 93.3923 84.3131C94.2194 83.486 95.2479 83.0725 96.4776 83.0725C97.2721 83.0725 97.9958 83.2629 98.6488 83.6439C99.3018 84.0247 99.7969 84.5363 100.134 85.1783L98.3223 86.2394C98.1591 85.9021 97.9087 85.6354 97.5714 85.4395C97.2449 85.2436 96.8749 85.1456 96.4614 85.1456C95.8301 85.1456 95.3078 85.3579 94.8942 85.7823C94.4806 86.1959 94.2738 86.7291 94.2738 87.3821C94.2738 88.0133 94.4806 88.5466 94.8942 88.9819C95.3078 89.3955 95.8301 89.6022 96.4614 89.6022C96.8858 89.6022 97.2612 89.5097 97.5877 89.3247C97.925 89.1289 98.1754 88.8621 98.3386 88.5248L100.167 89.5696C99.8078 90.2226 99.2964 90.7395 98.6325 91.1204C97.9795 91.5012 97.2613 91.6918 96.4776 91.6918ZM109.087 88.2473H102.932C103.205 89.2703 103.972 89.7817 105.234 89.7817C106.04 89.7817 106.649 89.5097 107.063 88.9655L108.76 89.9451C107.955 91.1095 106.768 91.6918 105.202 91.6918C103.852 91.6918 102.769 91.2836 101.953 90.4674C101.137 89.6512 100.729 88.6227 100.729 87.3821C100.729 86.1632 101.131 85.1402 101.937 84.3131C102.731 83.486 103.765 83.0725 105.038 83.0725C106.246 83.0725 107.232 83.486 107.993 84.3131C108.777 85.1402 109.169 86.1632 109.169 87.3821C109.169 87.6107 109.141 87.8991 109.087 88.2473ZM102.9 86.6148H107.063C106.943 86.0816 106.698 85.6735 106.328 85.3906C105.969 85.1076 105.539 84.9661 105.038 84.9661C104.472 84.9661 104.005 85.1131 103.634 85.4068C103.264 85.6899 103.02 86.0925 102.9 86.6148Z" fill="#F8A61B"/>
<path d="M294.029 0H155.492C152.675 0 150.391 2.28395 150.391 5.10135V117.331C150.391 120.148 152.675 122.432 155.492 122.432H294.029C296.847 122.432 299.131 120.148 299.131 117.331V5.10135C299.131 2.28395 296.847 0 294.029 0Z" fill="#23CF5F" fill-opacity="0.12"/>
<path d="M215.492 85.5379C216.493 86.1147 216.993 86.9853 216.993 88.1498C216.993 89.1184 216.651 89.9128 215.965 90.5332C215.28 91.1534 214.436 91.4636 213.435 91.4636H208.587V80.0366H213.092C214.061 80.0366 214.882 80.3413 215.558 80.9508C216.232 81.5602 216.57 82.3274 216.57 83.2525C216.57 84.1993 216.21 84.9611 215.492 85.5379ZM213.092 82.1424H210.839V84.6564H213.092C213.44 84.6564 213.729 84.5367 213.958 84.2972C214.197 84.0578 214.316 83.7585 214.316 83.3994C214.316 83.0403 214.202 82.741 213.974 82.5016C213.745 82.2621 213.452 82.1424 213.092 82.1424ZM210.839 89.3578H213.435C213.816 89.3578 214.132 89.2326 214.382 88.9823C214.632 88.7211 214.757 88.3946 214.757 88.0028C214.757 87.622 214.632 87.3064 214.382 87.0561C214.132 86.7949 213.816 86.6643 213.435 86.6643H210.839V89.3578ZM220.478 91.4636H218.372V79.5469H220.478V91.4636ZM229.36 90.4515C228.533 91.2786 227.51 91.6922 226.291 91.6922C225.072 91.6922 224.05 91.2786 223.222 90.4515C222.395 89.6244 221.981 88.6014 221.981 87.3826C221.981 86.1746 222.395 85.157 223.222 84.3299C224.06 83.4919 225.083 83.073 226.291 83.073C227.499 83.073 228.522 83.4919 229.36 84.3299C230.199 85.1678 230.617 86.1854 230.617 87.3826C230.617 88.5905 230.199 89.6135 229.36 90.4515ZM224.708 88.9987C225.132 89.423 225.66 89.6353 226.291 89.6353C226.922 89.6353 227.45 89.423 227.875 88.9987C228.299 88.5742 228.511 88.0355 228.511 87.3826C228.511 86.7296 228.299 86.1909 227.875 85.7664C227.45 85.342 226.922 85.1297 226.291 85.1297C225.66 85.1297 225.132 85.342 224.708 85.7664C224.294 86.2018 224.087 86.7405 224.087 87.3826C224.087 88.0246 224.294 88.5633 224.708 88.9987ZM238.351 84.3135V83.3015H240.408V91.0719C240.408 92.3233 239.988 93.2865 239.15 93.9613C238.323 94.6251 237.322 94.957 236.147 94.957C234.297 94.957 233.007 94.2932 232.278 92.9654L234.074 91.9371C234.476 92.6988 235.189 93.0798 236.212 93.0798C236.876 93.0798 237.399 92.9056 237.779 92.5574C238.16 92.2091 238.351 91.714 238.351 91.0719V90.1903C237.731 91.0174 236.86 91.431 235.739 91.431C234.585 91.431 233.616 91.0283 232.833 90.223C232.06 89.3959 231.674 88.4055 231.674 87.2519C231.674 86.0984 232.065 85.1135 232.85 84.2972C233.633 83.481 234.596 83.073 235.739 83.073C236.86 83.073 237.731 83.4865 238.351 84.3135ZM237.698 88.868C238.133 88.4436 238.351 87.9049 238.351 87.2519C238.351 86.5989 238.133 86.0711 237.698 85.6685C237.273 85.2441 236.73 85.0319 236.066 85.0319C235.413 85.0319 234.863 85.2441 234.417 85.6685C233.992 86.0711 233.779 86.5989 233.779 87.2519C233.779 87.9049 233.992 88.4436 234.417 88.868C234.852 89.2816 235.402 89.4884 236.066 89.4884C236.73 89.4884 237.273 89.2816 237.698 88.868Z" fill="#23CF5F"/>
<path d="M232.302 30.0979C232.704 29.6959 233.182 29.3771 233.707 29.1596C234.232 28.942 234.794 28.8301 235.363 28.8301C235.932 28.8301 236.495 28.942 237.02 29.1596C237.545 29.3771 238.022 29.6959 238.424 30.0979C238.826 30.4998 239.145 30.977 239.363 31.5022C239.58 32.0274 239.692 32.5902 239.692 33.1587C239.692 33.7272 239.58 34.29 239.363 34.8152C239.145 35.3404 238.826 35.8176 238.424 36.2195L217.764 56.8799L209.347 59.1756L211.643 50.7584L232.302 30.0979Z" stroke="#23CF5F" stroke-width="2.04054" stroke-linecap="round" stroke-linejoin="round"/>
<path d="M458.292 0H319.755C316.937 0 314.653 2.28395 314.653 5.10135V117.331C314.653 120.148 316.937 122.432 319.755 122.432H458.292C461.109 122.432 463.393 120.148 463.393 117.331V5.10135C463.393 2.28395 461.109 0 458.292 0Z" fill="#EE4637" fill-opacity="0.12"/>
<path d="M342.943 80.0358H345.262V91.4628H343.025V84.0515L339.809 89.357H339.548L336.332 84.0679V91.4628H334.079V80.0358H336.397L339.678 85.4391L342.943 80.0358ZM354.247 90.4507C353.419 91.2778 352.397 91.6914 351.178 91.6914C349.959 91.6914 348.935 91.2778 348.108 90.4507C347.282 89.6236 346.868 88.6006 346.868 87.3818C346.868 86.1737 347.282 85.1561 348.108 84.329C348.947 83.4911 349.97 83.0721 351.178 83.0721C352.386 83.0721 353.409 83.4911 354.247 84.329C355.084 85.167 355.504 86.1846 355.504 87.3818C355.504 88.5897 355.084 89.6127 354.247 90.4507ZM349.594 88.9978C350.019 89.4222 350.546 89.6345 351.178 89.6345C351.809 89.6345 352.337 89.4222 352.761 88.9978C353.186 88.5733 353.398 88.0347 353.398 87.3818C353.398 86.7288 353.186 86.1901 352.761 85.7656C352.337 85.3412 351.809 85.1289 351.178 85.1289C350.546 85.1289 350.019 85.3412 349.594 85.7656C349.181 86.201 348.974 86.7396 348.974 87.3818C348.974 88.0238 349.181 88.5625 349.594 88.9978ZM360.046 89.0142L362.037 83.3007H364.355L361.254 91.4628H358.853L355.753 83.3007H358.07L360.046 89.0142ZM366.415 82.3212C366.067 82.3212 365.762 82.1961 365.501 81.9458C365.251 81.6845 365.126 81.3799 365.126 81.0316C365.126 80.6833 365.251 80.3786 365.501 80.1174C365.762 79.8562 366.067 79.7256 366.415 79.7256C366.774 79.7256 367.079 79.8562 367.329 80.1174C367.591 80.3786 367.721 80.6833 367.721 81.0316C367.721 81.3799 367.591 81.6845 367.329 81.9458C367.079 82.1961 366.774 82.3212 366.415 82.3212ZM367.476 91.4628H365.37V83.3007H367.476V91.4628ZM377.338 88.247H371.183C371.455 89.2699 372.223 89.7814 373.484 89.7814C374.29 89.7814 374.9 89.5093 375.313 88.9652L377.011 89.9447C376.205 91.1091 375.019 91.6914 373.452 91.6914C372.102 91.6914 371.02 91.2832 370.203 90.467C369.387 89.6508 368.979 88.6223 368.979 87.3818C368.979 86.1629 369.382 85.1398 370.187 84.3127C370.982 83.4856 372.016 83.0721 373.289 83.0721C374.497 83.0721 375.481 83.4856 376.244 84.3127C377.027 85.1398 377.419 86.1629 377.419 87.3818C377.419 87.6103 377.392 87.8987 377.338 88.247ZM371.15 86.6144H375.313C375.193 86.0812 374.949 85.6732 374.578 85.3902C374.22 85.1072 373.79 84.9657 373.289 84.9657C372.723 84.9657 372.255 85.1127 371.884 85.4064C371.515 85.6895 371.27 86.0921 371.15 86.6144ZM389.973 85.5371C390.974 86.1139 391.475 86.9845 391.475 88.149C391.475 89.1176 391.132 89.912 390.447 90.5324C389.761 91.1526 388.917 91.4628 387.916 91.4628H383.068V80.0358H387.573C388.543 80.0358 389.363 80.3405 390.039 80.9499C390.714 81.5594 391.051 82.3266 391.051 83.2517C391.051 84.1985 390.691 84.9603 389.973 85.5371ZM387.573 82.1416H385.321V84.6555H387.573C387.921 84.6555 388.211 84.5359 388.439 84.2964C388.678 84.057 388.798 83.7577 388.798 83.3985C388.798 83.0395 388.683 82.7402 388.455 82.5008C388.227 82.2613 387.933 82.1416 387.573 82.1416ZM385.321 89.357H387.916C388.297 89.357 388.613 89.2318 388.863 88.9815C389.114 88.7203 389.238 88.3938 389.238 88.002C389.238 87.6212 389.114 87.3056 388.863 87.0553C388.613 86.7941 388.297 86.6634 387.916 86.6634H385.321V89.357ZM399.935 90.4507C399.108 91.2778 398.086 91.6914 396.867 91.6914C395.648 91.6914 394.625 91.2778 393.798 90.4507C392.971 89.6236 392.557 88.6006 392.557 87.3818C392.557 86.1737 392.971 85.1561 393.798 84.329C394.636 83.4911 395.659 83.0721 396.867 83.0721C398.075 83.0721 399.098 83.4911 399.935 84.329C400.773 85.167 401.193 86.1846 401.193 87.3818C401.193 88.5897 400.773 89.6127 399.935 90.4507ZM395.283 88.9978C395.708 89.4222 396.236 89.6345 396.867 89.6345C397.498 89.6345 398.026 89.4222 398.45 88.9978C398.874 88.5733 399.087 88.0347 399.087 87.3818C399.087 86.7288 398.874 86.1901 398.45 85.7656C398.026 85.3412 397.498 85.1289 396.867 85.1289C396.236 85.1289 395.708 85.3412 395.283 85.7656C394.87 86.201 394.663 86.7396 394.663 87.3818C394.663 88.0238 394.87 88.5625 395.283 88.9978ZM409.628 90.4507C408.801 91.2778 407.778 91.6914 406.559 91.6914C405.34 91.6914 404.318 91.2778 403.491 90.4507C402.664 89.6236 402.249 88.6006 402.249 87.3818C402.249 86.1737 402.664 85.1561 403.491 84.329C404.329 83.4911 405.351 83.0721 406.559 83.0721C407.768 83.0721 408.79 83.4911 409.628 84.329C410.466 85.167 410.885 86.1846 410.885 87.3818C410.885 88.5897 410.466 89.6127 409.628 90.4507ZM404.975 88.9978C405.4 89.4222 405.929 89.6345 406.559 89.6345C407.19 89.6345 407.718 89.4222 408.142 88.9978C408.567 88.5733 408.779 88.0347 408.779 87.3818C408.779 86.7288 408.567 86.1901 408.142 85.7656C407.718 85.3412 407.19 85.1289 406.559 85.1289C405.929 85.1289 405.4 85.3412 404.975 85.7656C404.562 86.201 404.355 86.7396 404.355 87.3818C404.355 88.0238 404.562 88.5625 404.975 88.9978ZM416.513 87.3328L419.893 91.4628H417.443L414.473 87.7571V91.4628H412.367V80.0358H414.473V86.892L417.28 83.3007H419.794L416.513 87.3328ZM421.988 82.3212C421.64 82.3212 421.335 82.1961 421.074 81.9458C420.823 81.6845 420.699 81.3799 420.699 81.0316C420.699 80.6833 420.823 80.3786 421.074 80.1174C421.335 79.8562 421.64 79.7256 421.988 79.7256C422.348 79.7256 422.652 79.8562 422.903 80.1174C423.163 80.3786 423.294 80.6833 423.294 81.0316C423.294 81.3799 423.163 81.6845 422.903 81.9458C422.652 82.1961 422.348 82.3212 421.988 82.3212ZM423.049 91.4628H420.943V83.3007H423.049V91.4628ZM429.515 83.0721C430.418 83.0721 431.152 83.3714 431.719 83.9699C432.306 84.5793 432.6 85.4064 432.6 86.4513V91.4628H430.495V86.7124C430.495 86.1792 430.347 85.7656 430.054 85.4717C429.771 85.1779 429.378 85.031 428.878 85.031C428.323 85.031 427.883 85.2051 427.556 85.5534C427.24 85.8908 427.082 86.3914 427.082 87.0553V91.4628H424.976V83.3007H427.082V84.2148C427.583 83.453 428.394 83.0721 429.515 83.0721ZM440.65 84.3127V83.3007H442.707V91.071C442.707 92.3225 442.288 93.2857 441.45 93.9605C440.623 94.6242 439.621 94.9562 438.446 94.9562C436.597 94.9562 435.307 94.2924 434.577 92.9646L436.374 91.9362C436.776 92.698 437.489 93.0789 438.511 93.0789C439.175 93.0789 439.698 92.9048 440.079 92.5566C440.459 92.2083 440.65 91.7132 440.65 91.071V90.1895C440.03 91.0166 439.159 91.4302 438.039 91.4302C436.885 91.4302 435.917 91.0275 435.132 90.2222C434.361 89.3951 433.974 88.4047 433.974 87.2511C433.974 86.0975 434.366 85.1127 435.149 84.2964C435.933 83.4802 436.895 83.0721 438.039 83.0721C439.159 83.0721 440.03 83.4856 440.65 84.3127ZM439.997 88.8672C440.433 88.4428 440.65 87.9041 440.65 87.2511C440.65 86.5981 440.433 86.0703 439.997 85.6677C439.573 85.2432 439.029 85.031 438.365 85.031C437.712 85.031 437.162 85.2432 436.716 85.6677C436.291 86.0703 436.08 86.5981 436.08 87.2511C436.08 87.9041 436.291 88.4428 436.716 88.8672C437.152 89.2808 437.701 89.4875 438.365 89.4875C439.029 89.4875 439.573 89.2808 439.997 88.8672Z" fill="#EE4637"/>
<path d="M401.1 28.5674H377.165C375.322 28.5674 373.828 30.0611 373.828 31.9037V55.8393C373.828 57.6818 375.322 59.1756 377.165 59.1756H401.1C402.943 59.1756 404.436 57.6818 404.436 55.8393V31.9037C404.436 30.0611 402.943 28.5674 401.1 28.5674Z" stroke="#EE4637" stroke-width="1.02027" stroke-linecap="round" stroke-linejoin="round"/>
<path d="M381.48 28.5674V59.1756" stroke="#EE4637" stroke-width="1.02027" stroke-linecap="round" stroke-linejoin="round"/>
<path d="M396.783 28.5674V59.1756" stroke="#EE4637" stroke-width="1.02027" stroke-linecap="round" stroke-linejoin="round"/>
<path d="M373.828 43.8721H404.436" stroke="#EE4637" stroke-width="1.02027" stroke-linecap="round" stroke-linejoin="round"/>
<path d="M373.828 36.2197H381.48" stroke="#EE4637" stroke-width="1.02027" stroke-linecap="round" stroke-linejoin="round"/>
<path d="M373.828 51.5234H381.48" stroke="#EE4637" stroke-width="1.02027" stroke-linecap="round" stroke-linejoin="round"/>
<path d="M396.783 51.5234H404.435" stroke="#EE4637" stroke-width="1.02027" stroke-linecap="round" stroke-linejoin="round"/>
<path d="M396.783 36.2197H404.435" stroke="#EE4637" stroke-width="1.02027" stroke-linecap="round" stroke-linejoin="round"/>
<path d="M622.556 0H484.018C481.201 0 478.917 2.28395 478.917 5.10135V117.331C478.917 120.148 481.201 122.432 484.018 122.432H622.556C625.373 122.432 627.657 120.148 627.657 117.331V5.10135C627.657 2.28395 625.373 0 622.556 0Z" fill="#3A76F0" fill-opacity="0.12"/>
<path d="M568.701 28.5674L551.867 45.4019" stroke="#3A76F0" stroke-width="2.04054" stroke-linecap="round" stroke-linejoin="round"/>
<path d="M568.701 28.5674L557.988 59.1755L551.866 45.4019L538.093 39.2802L568.701 28.5674Z" stroke="#3A76F0" stroke-width="2.04054" stroke-linecap="round" stroke-linejoin="round"/>
<path d="M506.188 80.0357V82.1905H501.616V84.9003H506.057V87.0551H501.616V91.4627H499.364V80.0357H506.188ZM509.837 91.4627H507.731V79.5459H509.837V91.4627ZM512.809 82.3211C512.461 82.3211 512.156 82.1959 511.895 81.9456C511.644 81.6844 511.519 81.3797 511.519 81.0314C511.519 80.6833 511.644 80.3785 511.895 80.1173C512.156 79.8561 512.461 79.7255 512.809 79.7255C513.168 79.7255 513.472 79.8561 513.723 80.1173C513.984 80.3785 514.115 80.6833 514.115 81.0314C514.115 81.3797 513.984 81.6844 513.723 81.9456C513.472 82.1959 513.168 82.3211 512.809 82.3211ZM513.869 91.4627H511.764V83.3005H513.869V91.4627ZM522.05 84.3127V83.3005H524.106V91.0709C524.106 92.3225 523.687 93.2856 522.849 93.9603C522.022 94.6242 521.021 94.9561 519.846 94.9561C517.996 94.9561 516.706 94.2922 515.976 92.9646L517.773 91.9361C518.175 92.698 518.888 93.0788 519.911 93.0788C520.575 93.0788 521.098 92.9047 521.479 92.5564C521.86 92.2081 522.05 91.713 522.05 91.0709V90.1894C521.43 91.0166 520.559 91.4301 519.438 91.4301C518.284 91.4301 517.316 91.0273 516.531 90.222C515.76 89.3949 515.373 88.4047 515.373 87.2511C515.373 86.0975 515.765 85.1125 516.549 84.2963C517.332 83.4801 518.295 83.072 519.438 83.072C520.559 83.072 521.43 83.4856 522.05 84.3127ZM521.396 88.8671C521.832 88.4427 522.05 87.904 522.05 87.2511C522.05 86.5981 521.832 86.0703 521.396 85.6676C520.973 85.2432 520.428 85.0309 519.764 85.0309C519.111 85.0309 518.562 85.2432 518.115 85.6676C517.691 86.0703 517.479 86.5981 517.479 87.2511C517.479 87.904 517.691 88.4427 518.115 88.8671C518.551 89.2807 519.101 89.4875 519.764 89.4875C520.428 89.4875 520.973 89.2807 521.396 88.8671ZM530.554 83.072C531.457 83.072 532.192 83.3713 532.758 83.9698C533.345 84.5793 533.64 85.4064 533.64 86.4511V91.4627H531.534V86.7124C531.534 86.179 531.387 85.7655 531.093 85.4717C530.81 85.1779 530.418 85.0309 529.917 85.0309C529.362 85.0309 528.922 85.2051 528.596 85.5534C528.28 85.8906 528.122 86.3913 528.122 87.0551V91.4627H526.016V80.0357H528.122V84.2147C528.622 83.4529 529.434 83.072 530.554 83.072ZM540.106 83.3005V85.3247H538.262V88.7203C538.262 89.0032 538.332 89.21 538.474 89.3405C538.615 89.4711 538.822 89.5474 539.094 89.5691C539.366 89.58 539.704 89.5746 540.106 89.5528V91.4627C538.681 91.6259 537.663 91.4954 537.053 91.0709C536.456 90.6356 536.156 89.8521 536.156 88.7203V85.3247H534.736V83.3005H536.156V81.6518L538.262 81.0151V83.3005H540.106ZM552.803 85.537C553.804 86.1138 554.305 86.9844 554.305 88.1488C554.305 89.1174 553.962 89.9119 553.276 90.5322C552.591 91.1525 551.747 91.4627 550.746 91.4627H545.897V80.0357H550.404C551.372 80.0357 552.194 80.3404 552.868 80.9499C553.543 81.5592 553.88 82.3266 553.88 83.2516C553.88 84.1984 553.521 84.9602 552.803 85.537ZM550.404 82.1415H548.15V84.6555H550.404C550.752 84.6555 551.04 84.5357 551.268 84.2963C551.507 84.0569 551.628 83.7576 551.628 83.3985C551.628 83.0393 551.514 82.74 551.284 82.5006C551.056 82.2612 550.762 82.1415 550.404 82.1415ZM548.15 89.3568H550.746C551.127 89.3568 551.442 89.2317 551.693 88.9815C551.943 88.7203 552.069 88.3938 552.069 88.002C552.069 87.621 551.943 87.3054 551.693 87.0551C551.442 86.7939 551.127 86.6634 550.746 86.6634H548.15V89.3568ZM562.766 90.4505C561.939 91.2777 560.915 91.6912 559.696 91.6912C558.477 91.6912 557.455 91.2777 556.627 90.4505C555.8 89.6235 555.387 88.6005 555.387 87.3816C555.387 86.1736 555.8 85.1561 556.627 84.329C557.465 83.491 558.488 83.072 559.696 83.072C560.904 83.072 561.927 83.491 562.766 84.329C563.604 85.167 564.022 86.1845 564.022 87.3816C564.022 88.5896 563.604 89.6126 562.766 90.4505ZM558.113 88.9978C558.537 89.4222 559.065 89.6343 559.696 89.6343C560.328 89.6343 560.855 89.4222 561.28 88.9978C561.704 88.5733 561.916 88.0346 561.916 87.3816C561.916 86.7286 561.704 86.1899 561.28 85.7655C560.855 85.3411 560.328 85.1289 559.696 85.1289C559.065 85.1289 558.537 85.3411 558.113 85.7655C557.699 86.2008 557.493 86.7395 557.493 87.3816C557.493 88.0237 557.699 88.5624 558.113 88.9978ZM572.458 90.4505C571.631 91.2777 570.607 91.6912 569.389 91.6912C568.17 91.6912 567.147 91.2777 566.32 90.4505C565.493 89.6235 565.08 88.6005 565.08 87.3816C565.08 86.1736 565.493 85.1561 566.32 84.329C567.158 83.491 568.18 83.072 569.389 83.072C570.597 83.072 571.619 83.491 572.458 84.329C573.296 85.167 573.715 86.1845 573.715 87.3816C573.715 88.5896 573.296 89.6126 572.458 90.4505ZM567.806 88.9978C568.229 89.4222 568.758 89.6343 569.389 89.6343C570.02 89.6343 570.548 89.4222 570.973 88.9978C571.396 88.5733 571.609 88.0346 571.609 87.3816C571.609 86.7286 571.396 86.1899 570.973 85.7655C570.548 85.3411 570.02 85.1289 569.389 85.1289C568.758 85.1289 568.229 85.3411 567.806 85.7655C567.392 86.2008 567.186 86.7395 567.186 87.3816C567.186 88.0237 567.392 88.5624 567.806 88.9978ZM579.343 87.3326L582.722 91.4627H580.273L577.302 87.7571V91.4627H575.196V80.0357H577.302V86.8919L580.11 83.3005H582.624L579.343 87.3326ZM584.818 82.3211C584.469 82.3211 584.165 82.1959 583.903 81.9456C583.654 81.6844 583.528 81.3797 583.528 81.0314C583.528 80.6833 583.654 80.3785 583.903 80.1173C584.165 79.8561 584.469 79.7255 584.818 79.7255C585.177 79.7255 585.482 79.8561 585.732 80.1173C585.993 80.3785 586.123 80.6833 586.123 81.0314C586.123 81.3797 585.993 81.6844 585.732 81.9456C585.482 82.1959 585.177 82.3211 584.818 82.3211ZM585.879 91.4627H583.773V83.3005H585.879V91.4627ZM592.344 83.072C593.248 83.072 593.982 83.3713 594.548 83.9698C595.136 84.5793 595.43 85.4064 595.43 86.4511V91.4627H593.324V86.7124C593.324 86.179 593.177 85.7655 592.883 85.4717C592.6 85.1779 592.208 85.0309 591.708 85.0309C591.153 85.0309 590.712 85.2051 590.385 85.5534C590.069 85.8906 589.912 86.3913 589.912 87.0551V91.4627H587.806V83.3005H589.912V84.2147C590.412 83.4529 591.223 83.072 592.344 83.072ZM603.48 84.3127V83.3005H605.536V91.0709C605.536 92.3225 605.118 93.2856 604.28 93.9603C603.453 94.6242 602.452 94.9561 601.277 94.9561C599.426 94.9561 598.137 94.2922 597.408 92.9646L599.203 91.9361C599.605 92.698 600.318 93.0788 601.342 93.0788C602.006 93.0788 602.528 92.9047 602.909 92.5564C603.29 92.2081 603.48 91.713 603.48 91.0709V90.1894C602.859 91.0166 601.989 91.4301 600.868 91.4301C599.714 91.4301 598.746 91.0273 597.962 90.222C597.19 89.3949 596.803 88.4047 596.803 87.2511C596.803 86.0975 597.195 85.1125 597.979 84.2963C598.762 83.4801 599.726 83.072 600.868 83.072C601.989 83.072 602.859 83.4856 603.48 84.3127ZM602.827 88.8671C603.262 88.4427 603.48 87.904 603.48 87.2511C603.48 86.5981 603.262 86.0703 602.827 85.6676C602.403 85.2432 601.858 85.0309 601.194 85.0309C600.541 85.0309 599.992 85.2432 599.545 85.6676C599.122 86.0703 598.909 86.5981 598.909 87.2511C598.909 87.904 599.122 88.4427 599.545 88.8671C599.981 89.2807 600.531 89.4875 601.194 89.4875C601.858 89.4875 602.403 89.2807 602.827 88.8671Z" fill="#3A76F0"/>
<path d="M161.393 137.736H22.8553C20.0379 137.736 17.7539 140.02 17.7539 142.838V255.067C17.7539 257.884 20.0379 260.168 22.8553 260.168H161.393C164.21 260.168 166.494 257.884 166.494 255.067V142.838C166.494 140.02 164.21 137.736 161.393 137.736Z" fill="#36C5F0" fill-opacity="0.12"/>
<path d="M76.9287 167.835H86.1111C87.7346 167.835 89.2917 168.48 90.4397 169.628C91.5877 170.776 92.2327 172.333 92.2327 173.956V195.382C92.2327 194.164 91.749 192.997 90.888 192.135C90.027 191.275 88.8592 190.79 87.6416 190.79H76.9287V167.835Z" stroke="#36C5F0" stroke-width="2.04054" stroke-linecap="round" stroke-linejoin="round"/>
<path d="M107.538 167.835H98.3551C96.7315 167.835 95.1745 168.48 94.0264 169.628C92.8784 170.776 92.2334 172.333 92.2334 173.956V195.382C92.2334 194.164 92.7171 192.997 93.5781 192.135C94.4392 191.275 95.607 190.79 96.8247 190.79H107.538V167.835Z" stroke="#36C5F0" stroke-width="2.04054" stroke-linecap="round" stroke-linejoin="round"/>
<path d="M325.657 137.736H187.12C184.303 137.736 182.019 140.02 182.019 142.838V255.067C182.019 257.884 184.303 260.168 187.12 260.168H325.657C328.475 260.168 330.759 257.884 330.759 255.067V142.838C330.759 140.02 328.475 137.736 325.657 137.736Z" fill="#FD922D" fill-opacity="0.12"/>
<mask id="mask1_2_9269" style="mask-type:luminance" maskUnits="userSpaceOnUse" x="238" y="163" width="37" height="37">
<path d="M274.864 163.243H238.135V199.973H274.864V163.243Z" fill="white"/>
</mask>
<g mask="url(#mask1_2_9269)">
<path d="M270.274 169.364H242.727C241.036 169.364 239.666 170.735 239.666 172.425V190.79C239.666 192.481 241.036 193.851 242.727 193.851H270.274C271.965 193.851 273.335 192.481 273.335 190.79V172.425C273.335 170.735 271.965 169.364 270.274 169.364Z" stroke="#FD922D" stroke-width="2.04054" stroke-linecap="round" stroke-linejoin="round"/>
<path d="M239.666 178.547H273.335" stroke="#FD922D" stroke-width="2.04054" stroke-linecap="round" stroke-linejoin="round"/>
</g>
<path d="M489.921 137.736H351.384C348.566 137.736 346.282 140.02 346.282 142.838V255.067C346.282 257.884 348.566 260.168 351.384 260.168H489.921C492.738 260.168 495.022 257.884 495.022 255.067V142.838C495.022 140.02 492.738 137.736 489.921 137.736Z" fill="#4EF5CD" fill-opacity="0.12"/>
<path d="M410.05 189.26H408.519C407.707 189.26 406.929 188.937 406.355 188.363C405.78 187.79 405.458 187.011 405.458 186.2V170.895C405.458 170.084 405.78 169.305 406.355 168.732C406.929 168.157 407.707 167.835 408.519 167.835H433.005C433.817 167.835 434.596 168.157 435.17 168.732C435.744 169.305 436.066 170.084 436.066 170.895V186.2C436.066 187.011 435.744 187.79 435.17 188.363C434.596 188.937 433.817 189.26 433.005 189.26H431.475" stroke="#4EF5CD" stroke-width="2.04054" stroke-linecap="round" stroke-linejoin="round"/>
<path d="M420.761 186.199L428.413 195.382H413.109L420.761 186.199Z" stroke="#4EF5CD" stroke-width="2.04054" stroke-linecap="round" stroke-linejoin="round"/>
<path d="M654.184 137.736H515.646C512.829 137.736 510.545 140.02 510.545 142.838V255.067C510.545 257.884 512.829 260.168 515.646 260.168H654.184C657.001 260.168 659.285 257.884 659.285 255.067V142.838C659.285 140.02 657.001 137.736 654.184 137.736Z" fill="#ECB22E" fill-opacity="0.12"/>
<path d="M580.435 190.79V170.895L598.799 167.835V187.73" stroke="#ECB22E" stroke-width="2.04054" stroke-linecap="round" stroke-linejoin="round"/>
<path d="M575.844 195.382C578.379 195.382 580.434 193.326 580.434 190.79C580.434 188.255 578.379 186.199 575.844 186.199C573.308 186.199 571.252 188.255 571.252 190.79C571.252 193.326 573.308 195.382 575.844 195.382Z" stroke="#ECB22E" stroke-width="2.04054" stroke-linecap="round" stroke-linejoin="round"/>
<path d="M594.209 192.321C596.744 192.321 598.8 190.265 598.8 187.73C598.8 185.194 596.744 183.139 594.209 183.139C591.673 183.139 589.617 185.194 589.617 187.73C589.617 190.265 591.673 192.321 594.209 192.321Z" stroke="#ECB22E" stroke-width="2.04054" stroke-linecap="round" stroke-linejoin="round"/>
</g>
<defs>
<clipPath id="clip0_2_9269">
<rect width="617.993" height="199.594" fill="white" transform="translate(0.00292969)"/>
</clipPath>
</defs>
</svg>
