<svg width="165" height="140" viewBox="0 0 165 140" fill="none" xmlns="http://www.w3.org/2000/svg">
<g filter="url(#filter0_dd_4_11847)">
<rect width="165" height="140" rx="5" fill="white" shape-rendering="crispEdges"/>
<g clip-path="url(#clip0_4_11847)">
<path d="M44 80.3467C44.7765 80.3467 45.5529 80.3467 46.2863 80.3467C45.5529 80.8221 45.8549 81.4272 46.0275 81.9891C46.502 83.545 46.9333 85.1009 47.451 86.7865C47.8823 85.4035 48.2706 84.1933 48.6588 82.9399C48.7451 82.6806 48.7882 82.4213 48.9176 82.1619C49.1765 81.5569 49.0471 81.0814 48.5725 80.6924C48.4863 80.606 48.4 80.5196 48.2706 80.3899C49.0902 80.3899 49.8235 80.3899 50.5569 80.3899C50.5569 80.4331 50.5569 80.4763 50.5569 80.4763C50.0392 80.8221 49.9961 81.2543 50.2118 81.8162C50.7294 83.4153 51.2039 85.0145 51.7216 86.7865C52.0667 85.6628 52.3686 84.6687 52.6706 83.7179C52.8431 83.1128 53.0157 82.5077 53.2314 81.9026C53.4039 81.3407 53.6196 80.8221 52.9294 80.4331C53.5333 80.4331 54.1372 80.4331 54.8706 80.4331C53.9647 81.0382 53.9216 81.9891 53.6196 82.8102C53.0157 84.6687 52.4118 86.5704 51.851 88.4721C51.8078 88.645 51.8078 88.9043 51.5059 88.8611C51.2039 88.8611 51.2039 88.6018 51.1608 88.4289C50.6 86.6136 50.0392 84.7552 49.4353 82.8102C49.0039 84.1069 48.6157 85.317 48.2706 86.5272C48.0549 87.1755 47.8392 87.8238 47.6667 88.4721C47.6235 88.645 47.6235 88.8611 47.3216 88.8611C47.0196 88.8611 47.0196 88.645 46.9765 88.4721C46.2863 86.1814 45.5529 83.8908 44.8627 81.5568C44.6902 81.0382 44.4314 80.6924 44 80.4763C44 80.4331 44 80.3899 44 80.3467Z" fill="#4B2E84"/>
<path d="M90.6317 51C89.0788 51 87.5258 51 85.9729 51C85.9729 51.6051 85.9729 52.2102 85.9729 52.8153C85.9729 53.0746 86.0592 53.2042 86.318 53.161C86.3611 53.161 86.4043 53.161 86.4043 53.161C87.4827 53.161 87.4827 53.161 87.1807 54.1983C86.7925 55.711 86.3611 57.267 85.9729 58.7797C85.9298 58.9093 85.8866 59.039 85.8003 59.2551C85.1101 56.4458 84.4631 53.7229 83.7729 51.0432C83.0396 51.0432 82.3062 51.0432 81.616 51.0432C80.8827 53.7661 80.1925 56.5322 79.4592 59.2551C79.416 59.2551 79.416 59.2551 79.3729 59.2551C78.9847 57.7856 78.5964 56.3161 78.2082 54.8034C78.0788 54.3712 77.9925 53.939 77.8631 53.5068C77.7768 53.2475 77.82 53.161 78.1219 53.161C78.467 53.161 78.769 53.161 79.1141 53.161C79.3729 53.161 79.4592 53.0746 79.4592 52.8153C79.4592 52.2102 79.4592 51.6051 79.4592 51C77.3454 51 75.2749 51 73.1611 51C73.2474 51.5619 73.2043 52.1669 73.2043 52.7288C73.2043 53.0314 73.2905 53.161 73.5925 53.1178C73.7219 53.1178 73.8513 53.1178 74.0239 53.1178C74.4552 53.0314 74.6278 53.2475 74.7141 53.6797C75.4043 56.5322 76.1376 59.428 76.8278 62.2805C76.9141 62.6263 77.0435 62.7127 77.3886 62.7127C78.2513 62.6695 79.0709 62.7127 79.9337 62.7127C80.2356 62.7127 80.3651 62.6695 80.4082 62.3237C80.4945 61.8051 80.667 61.3297 80.7964 60.811C81.1415 59.5144 81.4866 58.1746 81.8749 56.7483C81.9611 57.0076 82.0043 57.1805 82.0474 57.3102C82.4788 58.9525 82.9101 60.5949 83.2984 62.2373C83.3847 62.5398 83.4709 62.6695 83.816 62.6263C84.6356 62.5831 85.4552 62.5831 86.2749 62.6263C86.6631 62.6263 86.7925 62.4534 86.8788 62.1509C87.6121 59.3848 88.3023 56.6186 89.0356 53.8958C89.2945 53.161 89.2513 53.161 90.1141 53.161C90.5023 53.161 90.5886 53.0314 90.5886 52.6856C90.5886 52.1237 90.5023 51.5619 90.6317 51Z" fill="#4B2E83"/>
<path d="M82.8234 88.7746C83.5999 88.256 83.3842 87.4348 83.4273 86.7001C83.4273 85.1874 83.4273 83.6746 83.4273 82.1619C83.4273 81.5136 83.4705 80.8653 82.7803 80.3467C83.2979 80.3467 83.7724 80.3467 84.2901 80.3467C84.5489 80.3467 84.592 80.5628 84.6783 80.6924C85.7567 82.378 86.792 84.0636 87.8273 85.7492C87.9136 85.8789 87.9999 86.0518 88.0861 86.1814C88.2587 86.095 88.1724 85.9221 88.1724 85.7924C88.1724 84.5391 88.1724 83.2424 88.1724 81.9891C88.1724 81.2111 88.1724 81.2111 87.5685 80.3467C88.2587 80.3467 88.9058 80.3467 89.7254 80.3467C88.7332 80.9085 88.9489 81.7297 88.9489 82.5077C88.9489 84.4526 88.9489 86.3975 88.9489 88.3424C88.9489 88.4721 89.0352 88.7314 88.8195 88.7746C88.5607 88.8611 88.4744 88.645 88.3881 88.4721C87.0509 86.3543 85.6705 84.2365 84.3332 82.1187C84.2901 82.0323 84.2469 81.9891 84.2038 81.9026C84.0312 82.0323 84.1175 82.2052 84.1175 82.3348C84.1175 83.8475 84.1175 85.4035 84.1175 86.9162C84.1175 87.6077 84.0744 88.256 84.7646 88.7314C84.2038 88.7747 83.5136 88.7746 82.8234 88.7746Z" fill="#4B2E84"/>
<path d="M119.015 80.3901C119.662 80.3901 120.353 80.3901 121 80.3901C121 80.4334 121 80.4766 121 80.4766C120.439 80.8656 120.353 81.4274 120.396 82.119C120.439 84.1935 120.396 86.2681 120.396 88.2995C120.396 88.4723 120.525 88.7317 120.266 88.8181C119.964 88.9045 119.921 88.602 119.792 88.4291C118.498 86.3978 117.203 84.3664 115.909 82.3351C115.823 82.2054 115.737 82.0757 115.651 81.9461C115.521 82.119 115.564 82.2486 115.564 82.3783C115.564 83.891 115.564 85.4037 115.564 86.9164C115.564 87.824 115.564 87.824 116.211 88.7749C115.521 88.7749 114.831 88.7749 114.184 88.7749C114.184 88.7317 114.184 88.7317 114.184 88.7317C114.874 88.213 114.831 87.4351 114.831 86.7003C114.788 85.1876 114.831 83.7181 114.831 82.2054C114.831 81.5139 114.917 80.8223 114.098 80.4766C114.141 80.4334 114.141 80.3901 114.184 80.3901C114.702 80.3901 115.219 80.3901 115.737 80.3901C115.953 80.3901 115.996 80.6062 116.082 80.7359C117.117 82.3783 118.153 84.0639 119.188 85.7062C119.274 85.8791 119.403 86.052 119.533 86.2249C119.662 86.0952 119.619 85.9223 119.619 85.7927C119.619 84.5393 119.619 83.3291 119.619 82.0757C119.619 81.4274 119.619 80.8223 119.015 80.3901Z" fill="#4B2E84"/>
<path d="M71.3489 88.8174C70.6156 88.8174 69.9254 88.8174 69.2352 88.8174C69.2352 88.7742 69.1921 88.7309 69.2352 88.7309C69.8391 88.2987 69.796 87.6937 69.796 87.0453C69.7529 85.4462 69.796 83.847 69.796 82.2479C69.796 81.5996 69.9686 80.8648 69.0195 80.4326C69.9254 80.4326 70.6156 80.4326 71.3921 80.4326C70.2274 81.3835 70.9176 82.6369 70.745 83.7174C70.7019 83.9335 70.8744 83.9767 71.047 83.9767C72.0391 83.9767 72.9882 83.9767 73.9803 83.9767C74.2391 83.9767 74.2823 83.847 74.2823 83.6309C74.2823 82.853 74.2823 82.1182 74.2823 81.3403C74.2823 80.9081 73.8509 80.7784 73.6784 80.4326C74.3685 80.4326 75.0587 80.4326 75.7489 80.4326C75.7489 80.4326 75.7489 80.4759 75.7489 80.5191C75.2313 80.9081 75.1882 81.4267 75.1882 81.9886C75.2313 83.6309 75.1882 85.2733 75.1882 86.9589C75.1882 87.6072 75.0156 88.342 75.7489 88.8174C75.0587 88.8174 74.3685 88.8174 73.6784 88.8174V88.7309C74.2823 88.2987 74.3254 87.6937 74.2823 87.0453C74.2391 86.3538 74.2823 85.6191 74.2823 84.9276C74.2823 84.6682 74.196 84.5818 73.9803 84.5818C73.0313 84.5818 72.0391 84.5818 71.0901 84.5818C70.7882 84.5818 70.745 84.7115 70.745 84.9276C70.745 85.8784 70.745 86.8725 70.745 87.8233C70.7019 88.2987 71.1764 88.4284 71.3489 88.8174Z" fill="#4B2E84"/>
<path d="M96.6708 82.1621C96.4982 81.946 96.2825 81.7299 96.11 81.5138C95.3335 80.7358 94.4708 80.6494 93.5649 81.2977C92.659 81.9892 92.2276 82.94 92.0982 84.0206C91.9688 85.0578 92.1414 86.0519 92.7021 86.9595C93.2629 87.9104 94.2982 88.429 95.2904 88.1697C96.0237 87.9968 96.3257 87.8239 96.2394 87.046C96.1963 86.7002 96.1963 86.3112 96.2394 85.9655C96.2825 85.3172 96.2825 84.7121 95.5061 84.2799C96.3688 84.2799 97.059 84.2799 97.7492 84.2799C97.7492 84.2799 97.7923 84.3231 97.7492 84.3663C97.1884 84.7553 97.1453 85.3172 97.1884 85.9222C97.2316 86.5705 97.1884 87.2189 97.1884 87.8672C97.1884 88.2129 97.059 88.3858 96.757 88.5155C94.4276 89.5095 91.71 88.5587 91.0629 85.5765C90.6747 83.8044 91.1061 82.2053 92.5727 81.0383C93.7374 80.0443 95.1178 80.0011 96.4982 80.5197C96.757 80.6061 96.8433 80.779 96.8433 81.0383C96.8002 81.3841 96.8433 81.7299 96.8433 82.0756C96.757 82.1189 96.7139 82.1621 96.6708 82.1621Z" fill="#4B2E84"/>
<path d="M66.9919 80.6925C66.9057 80.8221 66.8194 80.9518 66.7763 81.0382C66.6037 81.2975 66.4743 81.6865 66.2155 81.773C65.9135 81.8594 65.7841 81.4272 65.5684 81.2111C65.2233 80.9086 64.6625 80.9086 64.2312 81.1679C63.7567 81.4704 63.5841 81.9891 63.7998 82.5077C63.9723 82.9831 64.2743 83.2857 64.6625 83.5882C65.1802 83.9772 65.6978 84.323 66.2155 84.712C67.1214 85.3603 67.3802 86.3111 66.9919 87.3484C66.6037 88.3425 65.5684 89.034 64.5763 88.9043C64.0155 88.8179 63.4978 88.6882 62.937 88.6018C62.6782 88.5586 62.6351 88.4721 62.8076 88.256C62.8076 88.2128 62.8508 88.2128 62.8508 88.1696C63.0233 87.8671 63.1527 87.3916 63.3684 87.3052C63.6704 87.2187 63.8429 87.7374 64.0586 87.9535C64.49 88.4289 65.439 88.2993 65.8704 87.6942C66.3449 87.0459 66.2155 86.0086 65.5684 85.5331C65.0508 85.1442 64.49 84.7552 63.9292 84.3662C63.4116 83.9772 62.9802 83.5018 62.8076 82.8535C62.5057 81.5569 63.4547 80.3035 64.8351 80.2603C65.5684 80.3035 66.2586 80.5196 66.9919 80.6925Z" fill="#4B2E84"/>
<path d="M104.91 81.8596C104.78 81.7732 104.737 81.73 104.694 81.6867C104.219 80.9088 103.486 80.952 102.753 80.9952C102.494 80.9952 102.408 81.0817 102.408 81.2978C102.408 83.502 102.408 85.663 102.408 87.8673C102.408 88.2995 102.882 88.3859 103.012 88.7749C102.321 88.7749 101.631 88.7749 100.898 88.7749C100.898 88.7749 100.855 88.7317 100.898 88.7317C101.545 88.2995 101.459 87.6512 101.459 86.9596C101.459 85.1444 101.459 83.3291 101.459 81.5571C101.459 81.1681 101.372 81.0384 100.941 80.9952C100.121 80.9088 99.5175 81.1681 99.0861 81.8164C98.9998 81.7732 98.9998 81.7732 98.9998 81.7732C98.8704 80.3901 98.8704 80.3901 100.251 80.3901C101.674 80.3901 103.055 80.3901 104.478 80.3901C104.78 80.3901 104.953 80.4334 104.91 80.8223C104.867 81.1249 104.91 81.4274 104.91 81.8596Z" fill="#4B2E84"/>
<path d="M58.8825 70.7085C58.8825 72.1347 58.8825 73.561 58.8825 74.9873C58.8825 75.2898 59.2276 75.3763 59.357 75.6788C58.8393 75.6788 58.3648 75.6788 57.7178 75.6788C58.4942 75.2034 58.2354 74.5119 58.2786 73.8636C58.2786 72.8695 58.2786 71.9186 58.2786 70.9246C58.2786 70.4059 58.408 69.8441 57.7609 69.5415C57.804 69.4983 57.8472 69.4983 57.8472 69.4551C58.1923 69.4551 58.4942 69.4551 58.8393 69.4551C59.0982 69.4551 59.1844 69.6712 59.2707 69.8008C60.004 70.9678 60.7374 72.178 61.4707 73.3449C61.557 73.5178 61.6001 73.6907 61.8589 73.7771C61.8589 72.5669 61.8589 71.4 61.8589 70.1898C61.8589 69.8441 61.5138 69.7576 61.3844 69.4551C61.8589 69.4551 62.3335 69.4551 62.8942 69.4551C62.0746 70.0602 62.4197 70.8381 62.3766 71.5729C62.3335 72.783 62.3766 73.9932 62.3766 75.2034C62.3766 75.3763 62.506 75.6356 62.2472 75.6788C62.0315 75.722 61.9884 75.4627 61.9021 75.2898C60.9962 73.8636 60.0472 72.4373 59.1413 71.011C59.0982 70.9246 59.055 70.7517 58.8825 70.7085Z" fill="#4B2E84"/>
<path d="M51.0749 69.4551C51.5925 69.4551 52.1102 69.4551 52.7573 69.4551C52.0239 69.9737 52.2396 70.6652 52.2396 71.3136C52.2396 72.178 52.2396 73.0856 52.2396 73.95C52.2396 74.7712 52.8435 75.333 53.5769 75.333C54.3533 75.333 54.871 74.8144 54.871 73.95C54.871 72.7398 54.871 71.5297 54.871 70.3195C54.871 69.9305 54.569 69.7576 54.3965 69.4551C54.9141 69.4551 55.3886 69.4551 56.0357 69.4551C55.3023 69.8873 55.4318 70.4924 55.4318 71.0542C55.4318 72.0051 55.4318 72.9559 55.4318 73.9068C55.4318 75.0305 54.5259 75.8949 53.3612 75.8949C52.1965 75.8949 51.42 75.0737 51.42 73.9068C51.42 72.8695 51.42 71.8754 51.42 70.8381C51.42 70.3627 51.5063 69.8441 50.9023 69.5415C51.0318 69.4983 51.0318 69.4551 51.0749 69.4551Z" fill="#4C2F84"/>
<path d="M78.4238 70.5354C77.8631 69.5413 76.914 70.0167 76.1376 69.9303C75.9219 69.887 75.965 70.1031 75.965 70.2328C75.965 70.7515 75.965 71.3133 75.965 71.832C75.965 71.9616 75.965 72.0913 76.1376 72.1345C76.6552 72.2209 77.3885 72.0913 77.8199 71.7455C77.8199 72.1777 77.8199 72.6099 77.8199 73.1286C77.3885 72.4803 76.7846 72.6099 76.2238 72.6099C75.965 72.6099 75.8787 72.6964 75.9219 72.9125C75.9219 73.5608 75.9219 74.2091 75.9219 74.8574C75.9219 75.1167 76.0082 75.2031 76.2238 75.2031C76.6552 75.2031 77.1297 75.2031 77.5611 75.2031C77.9925 75.2031 78.0787 74.7709 78.4238 74.5981C78.467 74.6413 78.5101 74.6413 78.5101 74.6845C78.5532 75.6786 78.5533 75.6786 77.5611 75.6786C76.6552 75.6786 75.7493 75.6786 74.6709 75.6786C75.4042 75.2464 75.2317 74.6413 75.2317 74.1226C75.2317 73.0421 75.2317 71.9616 75.2317 70.8811C75.2317 70.3625 75.3611 69.8438 74.7572 69.4981C74.8003 69.4548 74.8003 69.4548 74.8434 69.4116C75.965 69.4116 77.1297 69.4116 78.2513 69.4116C78.467 69.4116 78.5101 69.5413 78.5101 69.7142C78.5101 69.9735 78.5101 70.2328 78.5101 70.4921C78.467 70.4921 78.4238 70.5354 78.4238 70.5354Z" fill="#4B2F84"/>
<path d="M80.3221 88.8174C79.6319 88.8174 78.9417 88.8174 78.2515 88.8174C78.2515 88.7742 78.2515 88.7309 78.2515 88.7309C78.8123 88.342 78.8554 87.7801 78.8554 87.1318C78.8123 85.4894 78.8554 83.847 78.8554 82.2479C78.8554 81.5996 78.9848 80.9081 78.1221 80.4326C78.9848 80.4326 79.675 80.4326 80.5378 80.4326C79.6319 80.9081 79.8044 81.5996 79.8044 82.2911C79.8044 83.9335 79.8044 85.5759 79.8044 87.175C79.7613 87.7369 79.7181 88.342 80.3221 88.8174Z" fill="#4B2E84"/>
<path d="M68.2432 69.4116C68.9334 69.4116 69.451 69.4116 70.0549 69.4116C69.3647 69.887 69.753 70.4057 69.8824 70.8811C70.1843 71.9184 70.4863 72.9557 70.8314 74.0362C71.0471 73.7769 71.0902 73.4743 71.1334 73.2582C71.4353 72.3506 71.6941 71.3998 71.9961 70.4921C72.1255 70.1031 72.2118 69.7142 71.651 69.4116C72.2118 69.4116 72.6863 69.4116 73.1177 69.4116C72.2981 70.4921 72.1687 71.8752 71.7373 73.0854C71.4785 73.8201 71.2628 74.5981 71.0039 75.3328C70.9608 75.4625 70.9608 75.6354 70.7451 75.6354C70.5294 75.6354 70.5294 75.4625 70.4863 75.3328C70.0549 73.9065 69.5804 72.437 69.149 71.0108C68.9765 70.4921 68.8902 69.887 68.2432 69.4116Z" fill="#4B2F84"/>
<path d="M87.137 74.5552C87.2233 74.6417 87.3096 74.7281 87.3959 74.8145C87.6547 75.2035 87.9998 75.3764 88.4312 75.2467C88.8194 75.1171 89.0782 74.8145 89.1214 74.4256C89.2076 73.9933 89.1214 73.5611 88.69 73.3018C88.2155 72.9561 87.741 72.6535 87.3096 72.3078C86.4037 71.573 86.3606 70.4493 87.137 69.7578C87.5253 69.412 87.9998 69.3256 88.4743 69.412C88.8625 69.4552 89.2939 69.5849 89.7253 69.6713C89.5096 69.9739 89.337 70.2764 89.1214 70.6222C88.9919 70.4493 88.9057 70.3196 88.8194 70.2332C88.4743 69.8874 88.0429 69.8442 87.6547 70.1035C87.3096 70.3628 87.2233 70.8383 87.439 71.2705C87.5684 71.5298 87.7841 71.7027 87.9998 71.8756C88.388 72.1781 88.7763 72.4374 89.1645 72.74C89.8547 73.2154 90.0272 73.9501 89.7253 74.7281C89.4233 75.4628 88.6037 75.9383 87.8704 75.8518C87.741 75.8518 87.6116 75.8086 87.4821 75.7654C86.4037 75.5061 86.4037 75.4628 87.137 74.5552Z" fill="#4B2E84"/>
<path d="M100.984 69.4551C101.588 69.4551 102.106 69.4551 102.71 69.4551C102.063 69.9305 102.494 70.3627 102.71 70.7949C102.969 71.2703 103.227 71.7025 103.486 72.2644C103.918 71.5297 104.306 70.8381 104.694 70.1466C104.867 69.8008 104.435 69.7576 104.435 69.4983C104.91 69.4983 105.341 69.4983 105.859 69.4983C105.082 70.3195 104.694 71.3568 104.133 72.2644C103.875 72.6534 103.745 73.0856 103.788 73.561C103.831 73.9068 103.831 74.2525 103.788 74.5983C103.745 75.0305 103.831 75.4195 104.306 75.722C103.659 75.722 103.184 75.722 102.537 75.722C103.184 75.3763 103.055 74.8144 103.098 74.2958C103.184 73.3449 102.969 72.4805 102.408 71.6593C101.976 70.9246 101.718 70.1034 100.984 69.4551Z" fill="#4C2F84"/>
<path d="M95.4624 70.5354C95.3761 70.4489 95.3761 70.4489 95.3761 70.4489C95.2898 69.4116 95.2898 69.4116 96.3251 69.4116C97.3173 69.4116 98.3095 69.4548 99.2585 69.4116C99.733 69.4116 99.8624 69.5413 99.8193 69.9735C99.7761 70.1464 99.8193 70.3192 99.8193 70.6218C99.3879 70.0167 98.9134 69.8006 98.3095 69.887C98.0506 69.9303 97.9644 69.9303 97.9644 70.2328C97.9644 71.7887 97.9644 73.3879 97.9644 74.9438C97.9644 75.2896 98.2232 75.376 98.3957 75.6786C97.8781 75.6786 97.4036 75.6786 96.8428 75.6786C97.4898 75.2031 97.2742 74.5548 97.2742 73.9498C97.2742 72.7396 97.2742 71.5294 97.2742 70.3192C97.2742 70.0167 97.1879 69.9303 96.8859 69.887C96.282 69.887 95.8075 70.0167 95.4624 70.5354Z" fill="#4B2E84"/>
<path d="M115.694 72.0053C115.608 72.2646 115.349 72.2214 115.176 72.2214C114.788 72.2214 114.615 72.4375 114.572 72.7832C114.4 73.9502 114.227 75.0739 113.839 76.1977C113.666 76.7163 113.408 77.2349 112.933 77.5375C112.761 77.6671 112.545 77.7968 112.329 77.7536C112.157 77.7536 111.941 77.7104 111.984 77.451C112.027 77.2782 112.113 76.9756 112.372 77.1053C112.976 77.3646 113.106 76.9756 113.192 76.5434C113.537 75.2036 113.623 73.8205 113.882 72.4807C113.925 72.2214 113.839 72.1782 113.623 72.1782C113.494 72.1782 113.364 72.1782 113.192 72.1782C113.192 71.9188 113.408 71.8324 113.58 71.8324C113.968 71.8756 114.011 71.6163 114.098 71.357C114.313 70.4061 114.745 69.6282 115.737 69.3688C115.996 69.2824 116.255 69.2824 116.47 69.4121C116.643 69.5417 116.686 69.6714 116.6 69.8443C116.513 70.0604 116.341 70.0604 116.168 69.9739C115.306 69.6282 115.176 69.7146 114.961 70.579C114.874 70.9248 114.702 71.3138 114.788 71.6163C114.917 72.1782 115.435 71.746 115.694 72.0053Z" fill="#4C2F84"/>
<path d="M93.6938 75.6788C93.0467 75.6788 92.5722 75.6788 91.8389 75.6788C92.5722 75.333 92.4428 74.7712 92.4428 74.2958C92.4428 73.1288 92.4428 71.9619 92.4428 70.7949C92.4428 70.3195 92.5291 69.8441 92.0114 69.4551C92.5291 69.4551 93.0036 69.4551 93.6075 69.4551C92.9604 69.9305 93.133 70.5788 93.133 71.1839C93.133 72.2212 93.133 73.3017 93.133 74.339C93.1761 74.8144 93.0898 75.2898 93.6938 75.6788Z" fill="#4C3085"/>
<path d="M66.5171 75.6788C66.0426 75.6788 65.525 75.6788 64.9211 75.6788C65.525 75.333 65.3956 74.8144 65.3956 74.339C65.3956 73.0856 65.3956 71.8322 65.3956 70.5788C65.3956 70.1466 65.3956 69.7576 64.8779 69.4551C65.4819 69.4551 65.9995 69.4551 66.6466 69.4551C65.9564 69.8441 66.1289 70.4059 66.1289 70.8813C66.1289 72.0483 66.1289 73.2152 66.1289 74.3822C66.1289 74.8576 66.0426 75.3763 66.5171 75.6788Z" fill="#4C3085"/>
<path d="M111.596 81.5132C110.345 79.7412 107.972 79.7412 106.678 81.47C105.384 83.242 105.384 86.0081 106.721 87.7802C107.325 88.5581 108.059 89.0768 109.094 88.9903C110.259 88.9903 110.992 88.6014 111.639 87.6505C112.847 85.8785 112.847 83.242 111.596 81.5132ZM110.863 87.1319C110.517 87.8666 109.957 88.342 109.094 88.2988C108.231 88.2988 107.713 87.8234 107.368 87.0886C106.635 85.4031 106.635 83.7175 107.368 82.0319C107.67 81.2971 108.231 80.7785 109.094 80.7785C109.957 80.7785 110.474 81.2539 110.863 81.9886C111.294 82.8098 111.38 83.6742 111.38 84.5819C111.38 85.4895 111.251 86.3539 110.863 87.1319Z" fill="#4B2E84"/>
<path d="M60.737 87.6077C60.0036 85.317 59.184 83.0263 58.4076 80.7357C58.3644 80.5628 58.3644 80.3467 58.0625 80.3467C57.7605 80.3467 57.7605 80.5196 57.6742 80.7357C57.3723 81.6001 57.1135 82.5077 56.7684 83.3721C56.035 85.1874 55.7762 87.1755 54.5684 88.8179C55.1723 88.8179 55.7762 88.8179 56.3801 88.8179C55.6468 88.3424 55.9488 87.7374 56.1644 87.1755C56.2076 87.0026 56.2938 86.8729 56.337 86.7001C56.3801 86.4407 56.5095 86.3543 56.7684 86.3975C57.4586 86.3975 58.1919 86.3975 58.8821 86.3975C59.0115 86.3975 59.1409 86.3543 59.2272 86.484C59.3997 87.0026 59.6154 87.5645 59.7448 88.0831C59.788 88.3857 59.4429 88.4721 59.2703 88.7314C59.2703 88.7746 59.2703 88.8179 59.2703 88.8611C60.0036 88.8611 60.737 88.8611 61.5566 88.8611C61.2115 88.4289 60.9095 88.0831 60.737 87.6077ZM58.7095 85.706C58.1487 85.706 57.588 85.706 57.0272 85.706C56.7252 85.706 56.7684 85.5763 56.8546 85.4035C57.1997 84.4094 57.5448 83.4153 57.9331 82.2916C58.2782 83.3721 58.6233 84.3662 58.9684 85.3602C59.0115 85.6196 59.0115 85.7492 58.7095 85.706Z" fill="#4B2E84"/>
<path d="M83.384 72.9128C83.2978 72.7399 83.2546 72.6102 83.4703 72.5238C84.1174 72.178 84.4625 71.6594 84.3762 70.9246C84.2899 70.1467 83.7291 69.628 82.9095 69.4552C82.1331 69.2823 81.3134 69.4119 80.4507 69.4119C81.0546 69.8009 80.8821 70.406 80.9252 70.9246C80.9252 72.0052 80.9252 73.1289 80.9252 74.2094C80.9252 74.728 81.0546 75.2467 80.3213 75.6357C81.0115 75.6357 81.5291 75.6357 82.1762 75.6357C81.6154 75.2899 81.5723 74.9009 81.6154 74.4687C81.6585 74.0797 81.6154 73.6907 81.6154 73.345C81.6154 73.1289 81.4429 72.7831 81.788 72.7399C82.1331 72.6967 82.5213 72.6102 82.737 73.0857C82.9958 73.6907 83.3409 74.2958 83.6429 74.8577C84.0742 75.6789 84.0742 75.6789 85.0232 75.5492C84.2899 74.8145 83.9017 73.8204 83.384 72.9128ZM81.7017 72.2645C81.5291 72.2645 81.5723 72.0916 81.5723 71.9619C81.5723 71.6594 81.5723 71.3569 81.5723 71.0975C81.5723 71.0111 81.5723 70.9679 81.5723 70.8814C81.7017 70.5789 81.2703 70.0602 81.788 69.9306C82.5644 69.7145 83.2978 70.1467 83.4703 70.795C83.5997 71.2704 83.5134 71.7026 83.1252 72.0052C82.6938 72.3941 82.1762 72.3077 81.7017 72.2645Z" fill="#4B2E84"/>
<path d="M112.2 72.8264C112.114 71.962 111.466 71.5298 110.604 71.7891C109.568 72.0917 108.835 73.1722 108.792 74.3391C108.792 75.5925 109.612 76.1112 110.733 75.5061C111.639 75.0739 112.286 73.8637 112.2 72.8264ZM110.992 74.8578C110.819 75.2036 110.561 75.5061 110.129 75.4197C109.655 75.3332 109.655 74.901 109.568 74.512C109.568 74.4256 109.568 74.2959 109.568 74.2095C109.568 73.5612 109.741 72.9561 110.172 72.4374C110.388 72.1781 110.647 72.0052 110.992 72.1349C111.294 72.2213 111.423 72.5239 111.466 72.8264C111.51 73.518 111.337 74.2095 110.992 74.8578Z" fill="#4C2F84"/>
</g>
</g>
<defs>
<filter id="filter0_dd_4_11847" x="-15" y="-15" width="225" height="200" filterUnits="userSpaceOnUse" color-interpolation-filters="sRGB">
<feFlood flood-opacity="0" result="BackgroundImageFix"/>
<feColorMatrix in="SourceAlpha" type="matrix" values="0 0 0 0 0 0 0 0 0 0 0 0 0 0 0 0 0 0 127 0" result="hardAlpha"/>
<feOffset dx="15" dy="15"/>
<feGaussianBlur stdDeviation="15"/>
<feComposite in2="hardAlpha" operator="out"/>
<feColorMatrix type="matrix" values="0 0 0 0 0 0 0 0 0 0.0470588 0 0 0 0 0.219608 0 0 0 0.1 0"/>
<feBlend mode="normal" in2="BackgroundImageFix" result="effect1_dropShadow_4_11847"/>
<feColorMatrix in="SourceAlpha" type="matrix" values="0 0 0 0 0 0 0 0 0 0 0 0 0 0 0 0 0 0 127 0" result="hardAlpha"/>
<feOffset dy="1"/>
<feGaussianBlur stdDeviation="7"/>
<feComposite in2="hardAlpha" operator="out"/>
<feColorMatrix type="matrix" values="0 0 0 0 0.0352941 0 0 0 0 0.105882 0 0 0 0 0.211765 0 0 0 0.04 0"/>
<feBlend mode="normal" in2="effect1_dropShadow_4_11847" result="effect2_dropShadow_4_11847"/>
<feBlend mode="normal" in="SourceGraphic" in2="effect2_dropShadow_4_11847" result="shape"/>
</filter>
<clipPath id="clip0_4_11847">
<rect width="77" height="38" fill="white" transform="translate(44 51)"/>
</clipPath>
</defs>
</svg>
