<svg width="108" height="113" viewBox="0 0 108 113" fill="none" xmlns="http://www.w3.org/2000/svg">
<g filter="url(#filter0_d_4_11503)">
<path d="M3.26041 38.7578V74.0736C3.26041 81.078 7.03747 87.5416 13.151 91.0017L44.8081 108.919C50.8012 112.312 58.1457 112.312 64.1378 108.919L95.7949 91.0017C101.91 87.5416 105.685 81.076 105.685 74.0736V38.7578C105.685 31.7535 101.908 25.2898 95.7949 21.8288L64.1378 3.90956C58.1437 0.517731 50.8002 0.517731 44.8081 3.90956L13.151 21.8288C7.03546 25.2898 3.26041 31.7555 3.26041 38.7578Z" fill="#FF6500"/>
<path d="M12.996 50.409L39.4475 49.8432H62.3095L69.7182 51.6871L71.7045 58.7627L74.9288 61.9339L80.3311 64.3646L88.761 66.3289L91.9592 72.5026L88.761 78.7335L75.1365 80.9095L53.5074 80.44L14.5079 79.7197L10.7719 75.0889L10.6365 64.3666L12.996 50.409Z" fill="white"/>
<path d="M23.3912 24.1009L36.8652 23.0436L59.9821 23.6886L69.1273 25.6047L69.8034 32.1547V36.3059L74.1303 37.8177L76.5189 41.9941L75.0081 47.282L51.0947 46.6249L34.6933 44.0506L27.0188 43.0514L22.9317 37.2238L22.1322 30.8294L23.3912 24.1009Z" fill="white"/>
<path d="M69.7324 24.1462V34.72H73.2467V36.3471L74.0603 37.862L76.0677 38.0175L78.8857 37.1929L82.0337 35.4302H84.7564L87.1551 34.2786V31.3141V27.7818L86.3796 23.6867L69.7324 24.1462Z" fill="#FF6500"/>
<path d="M74.3747 48.5321V58.7567L79.5593 60.9988L82.4856 63.1959L88.4406 66.067H94.2883L96.3489 63.3403L97.2186 54.7559L95.8072 47.1296L74.0607 46.6982L74.3747 48.5321Z" fill="#FF6500"/>
<path d="M39.4953 86.6245V96.2262C39.4953 96.2262 44.9387 97.5213 45.3721 97.5213H52.8429C52.8429 97.5213 58.0656 97.6296 58.7137 97.5213C59.3617 97.4139 65.2194 97.5704 65.2194 97.5704L69.0507 96.3355L70.6839 93.8415V87.4411L65.0028 85.1097L55.3269 85.9724L45.8245 85.1097L39.4933 86.6245H39.4953Z" fill="#FF6500"/>
<path d="M55.6852 32.6031H56.1888C56.6162 32.573 56.9512 32.274 56.9613 31.9109C56.9613 31.8707 56.9302 31.7494 56.8519 31.7494H55.7022C55.4595 31.7414 55.2548 31.9008 55.2448 32.1065C55.2448 32.1155 55.2448 32.1256 55.2448 32.1356C55.2448 32.4486 55.4023 32.6011 55.6852 32.6011V32.6031Z" fill="#170C32"/>
<path d="M20.1892 68.1096H18.5289V70.3267H20.1892C21.1402 70.3267 21.6168 69.9565 21.6168 69.2161C21.6168 68.4748 21.1402 68.1076 20.1892 68.1076V68.1096Z" fill="#170C32"/>
<path d="M71.0013 40.2807H72.4129C72.5483 40.2807 72.5724 40.2154 72.5724 40.1221L72.5573 39.9295C72.5252 39.5463 72.1661 39.2594 71.7146 39.2594C71.2642 39.2594 70.904 39.5463 70.8729 39.9426L70.8579 40.1362C70.8468 40.2054 70.89 40.2706 70.9532 40.2827C70.9672 40.2847 70.9823 40.2847 70.9973 40.2827L71.0013 40.2807Z" fill="#170C32"/>
<path d="M74.0654 68.1096H72.4011V70.3267H74.0614C75.0125 70.3267 75.49 69.9565 75.49 69.2161C75.49 68.4748 75.0145 68.1076 74.0654 68.1076V68.1096Z" fill="#170C32"/>
<path d="M94.4074 25.5818L58.7446 6.18883C55.7079 4.53756 52.0361 4.53756 48.9994 6.18883L13.3376 25.5818C8.17707 28.3887 4.96984 33.7769 4.97586 39.6296V73.3724C4.97185 79.225 8.17908 84.6102 13.3376 87.4182L48.9994 106.811C52.0361 108.462 55.7079 108.462 58.7446 106.811L94.4074 87.4182C99.5649 84.6102 102.772 79.225 102.769 73.3724V39.6296C102.772 33.7769 99.5649 28.3887 94.4074 25.5818ZM85.826 49.5734C85.826 49.3336 86.0207 49.137 86.2644 49.137H87.9508C88.1916 49.137 88.3872 49.3316 88.3892 49.5734V51.2527C88.3892 51.4935 88.1936 51.6891 87.9508 51.6891H86.2644C86.0227 51.6891 85.828 51.4965 85.826 51.2567V49.5734ZM85.826 53.5651C85.826 53.3254 86.0207 53.1307 86.2624 53.1307H87.9488C88.1906 53.1307 88.3852 53.3254 88.3872 53.5651V55.2485C88.3872 55.4882 88.1906 55.6829 87.9488 55.6829H86.2624C86.0207 55.6829 85.826 55.4903 85.824 55.2505V53.5651H85.826ZM87.5716 61.9569H86.6416C86.4711 61.9569 86.3306 61.8205 86.3306 61.6509V60.721C86.3306 60.5514 86.4691 60.413 86.6396 60.413H87.5696C87.7401 60.413 87.8806 60.5494 87.8806 60.719V61.6489C87.8826 61.8185 87.7461 61.9589 87.5756 61.9619H87.5696V61.9569H87.5716ZM87.678 63.5209V64.1329C87.678 64.2783 87.5606 64.3957 87.4141 64.3957H86.7991C86.6527 64.3957 86.5353 64.2783 86.5353 64.1329V63.5209C86.5353 63.3774 86.6547 63.2601 86.7991 63.2601H87.4141C87.5606 63.2601 87.6759 63.3815 87.6739 63.5269L87.678 63.5209ZM87.7692 59.0476H86.444C86.2333 59.0476 86.0648 58.8771 86.0648 58.6694V57.3552C86.0648 57.1455 86.2353 56.977 86.444 56.977H87.7692C87.9799 56.977 88.1484 57.1465 88.1484 57.3552V58.6774C88.1484 58.8851 87.9779 59.0546 87.7692 59.0546V59.0496V59.0476ZM59.9063 28.155C59.9002 28.0847 59.9534 28.0226 60.0236 28.0165C60.0317 28.0165 60.0387 28.0165 60.0467 28.0165H61.3067C61.3729 28.0075 61.4361 28.0546 61.4452 28.1229C61.4452 28.1339 61.4452 28.1439 61.4452 28.155V28.4609C61.4452 28.5683 61.5535 28.5833 61.6087 28.5211C61.8073 28.2473 62.2838 28.0185 62.7905 28.0185C62.9048 28.0185 63.0162 28.0286 63.1286 28.0486C63.1907 28.0476 63.2459 28.0948 63.2519 28.157V29.6377C63.2519 29.7611 63.1737 29.8002 63.0523 29.7761C62.8818 29.738 62.7072 29.719 62.5306 29.7149C62.1073 29.6969 61.7512 30.0229 61.7321 30.4423C61.7321 30.4654 61.7321 30.4884 61.7321 30.5105V33.9956C61.7371 34.0678 61.6839 34.128 61.6127 34.1341C61.6067 34.1341 61.5987 34.1341 61.5937 34.1341H60.0427C59.9765 34.1431 59.9133 34.0979 59.9043 34.0297C59.9043 34.0187 59.9043 34.0076 59.9043 33.9946L59.9103 28.155H59.9063ZM61.398 37.3092C60.8894 37.3092 60.4751 36.8999 60.4751 36.3913C60.4751 35.8836 60.8874 35.4733 61.398 35.4733C61.9026 35.4693 62.316 35.8736 62.32 36.3782C62.32 36.3822 62.32 36.3873 62.32 36.3913C62.32 36.8999 61.9097 37.3132 61.398 37.3152V37.3092ZM62.32 38.196V44.0347C62.32 44.126 62.2748 44.1721 62.1966 44.1721H60.6235C60.5573 44.1822 60.4941 44.135 60.4851 44.0668C60.4851 44.0557 60.4851 44.0457 60.4851 44.0347V38.2011C60.4751 38.1348 60.5232 38.0726 60.5915 38.0636C60.6025 38.0636 60.6115 38.0636 60.6235 38.0636H62.1906C62.2628 38.0636 62.3049 38.0937 62.32 38.2011V38.196ZM59.6635 38.0576C59.7357 38.0466 59.8019 38.0957 59.813 38.1649C59.817 38.192 59.813 38.2181 59.8019 38.2412L57.4223 44.0628C57.4033 44.124 57.3461 44.1611 57.2839 44.1561H56.057C55.9968 44.1561 55.9416 44.1199 55.9185 44.0628L53.552 38.2412C53.5219 38.1328 53.552 38.0556 53.6754 38.0556H55.3497C55.4099 38.0516 55.4671 38.0897 55.4882 38.1469L56.5265 40.995C56.5907 41.2087 56.6418 41.4273 56.678 41.6491H56.7241C56.7582 41.4273 56.8094 41.2087 56.8776 40.995L57.8607 38.167C57.8788 38.1068 57.934 38.0636 57.9992 38.0616L59.6635 38.0556V38.0576ZM66.2566 69.7438C66.4742 69.7458 66.6508 69.9213 66.6548 70.138V71.689C66.6548 71.7953 66.6127 71.8957 66.5364 71.9689C66.4632 72.0441 66.3619 72.0863 66.2566 72.0842H62.0521V73.7164H66.6979C66.9166 73.7164 67.0952 73.894 67.0932 74.1127V75.6637C67.0932 75.768 67.0531 75.8703 66.9789 75.9436C66.9046 76.0188 66.8043 76.061 66.6979 76.0589H59.7297C59.6254 76.0589 59.525 76.0168 59.4508 75.9436C59.3725 75.8713 59.3314 75.77 59.3334 75.6637V66.2245C59.3334 66.1182 59.3745 66.0179 59.4508 65.9466C59.523 65.8714 59.6234 65.8273 59.7297 65.8293H66.5806C66.7983 65.8313 66.9748 66.0068 66.9789 66.2245V67.7755C66.9769 67.9922 66.7983 68.1698 66.5806 68.1718H62.0521V69.7508L66.2566 69.7458V69.7438ZM56.9117 53.3655V62.8167C56.9117 63.0333 56.7351 63.2109 56.5164 63.2129H54.9876C54.8501 63.2169 54.7177 63.1768 54.6053 63.1016C54.513 63.0464 54.4388 62.9671 54.3856 62.8749L51.0189 57.8709V62.8167C51.0169 63.0333 50.8383 63.2109 50.6206 63.2129H48.6964C48.5901 63.2129 48.4888 63.1718 48.4156 63.0956C48.3393 63.0223 48.2972 62.922 48.2972 62.8167V53.3705C48.2972 53.1538 48.4778 52.9762 48.6964 52.9762H50.2233C50.3588 52.9742 50.4932 53.0123 50.6056 53.0856C50.6958 53.1397 50.7721 53.22 50.8253 53.3123L54.194 58.3163V53.3705C54.194 53.2652 54.2351 53.1648 54.3114 53.0906C54.3856 53.0153 54.4859 52.9742 54.5903 52.9762H56.5164C56.6208 52.9762 56.7221 53.0174 56.7953 53.0906C56.8696 53.1648 56.9117 53.2652 56.9097 53.3705L56.9137 53.3655H56.9117ZM53.4938 32.1899C53.4938 31.0903 54.4308 30.4613 55.5965 30.4613H56.7632C56.8294 30.4714 56.8906 30.4252 56.9017 30.359C56.9017 30.348 56.9017 30.3369 56.9017 30.3239V30.2747C56.9057 29.8624 56.5756 29.5264 56.1613 29.5223C56.1432 29.5223 56.1242 29.5223 56.1051 29.5223C55.6567 29.5223 55.3517 29.738 55.1671 30.1955C55.122 30.3179 55.0437 30.348 54.9685 30.3028L53.6573 29.6487C53.566 29.6036 53.5339 29.4662 53.6112 29.3227C53.7767 29.0338 53.9833 28.7709 54.2241 28.5422C54.7388 28.0837 55.4099 27.843 56.0991 27.8701C57.7103 27.8701 58.7084 28.8632 58.7084 30.2858V33.9996C58.7144 34.0719 58.6613 34.132 58.5891 34.1381C58.583 34.1381 58.576 34.1381 58.57 34.1381H57.2799C57.2126 34.1411 57.1545 34.0939 57.1414 34.0297L57.0953 33.8C57.0732 33.7578 57.02 33.7448 56.9799 33.7679C56.9719 33.7709 56.9649 33.7769 56.9589 33.785C56.6589 34.0016 56.2987 34.119 55.9286 34.119H55.4671C54.3305 34.119 53.4858 33.4479 53.4858 32.3323L53.4918 32.1848L53.4938 32.1899ZM44.8622 28.0165H46.4904C46.5576 28.0075 46.6198 28.0546 46.6299 28.1229L47.2438 30.5847C47.318 30.8757 47.3652 31.1716 47.3833 31.4706H47.4134C47.4374 31.1716 47.4856 30.8757 47.5518 30.5847L48.1347 28.1229C48.1477 28.0587 48.2059 28.0135 48.2731 28.0165H49.5843C49.6505 28.0135 49.7097 28.0587 49.7227 28.1229L50.3207 30.5847C50.3949 30.8957 50.44 31.2137 50.4591 31.5328H50.5062C50.5293 31.2137 50.5745 30.8957 50.6447 30.5847L51.2426 28.1229C51.2426 28.0627 51.3038 28.0165 51.381 28.0165H52.9771C53.1005 28.0165 53.1407 28.0928 53.1156 28.179L51.2185 34.0277C51.1954 34.0829 51.1403 34.119 51.0791 34.119H49.9314C49.8652 34.1281 49.802 34.0809 49.793 34.0147L49.0867 31.308C49.0265 31.0382 48.9804 30.7653 48.9483 30.4914H48.9011C48.9011 30.4914 48.8399 30.9961 48.7627 31.308L48.0414 34.0297C48.0263 34.0909 47.9802 34.121 47.9029 34.121H46.7352C46.675 34.126 46.6158 34.0889 46.5968 34.0297L44.7388 28.1911C44.7017 28.0848 44.7338 28.0246 44.8552 28.0246L44.8592 28.0185L44.8622 28.0165ZM40.2876 28.6275L41.9268 26.9953C41.97 26.9592 42.0232 26.9381 42.0804 26.9351H42.9C42.9933 26.9351 43.0233 26.9652 43.0233 27.0575V27.8831C43.0233 27.9734 43.0555 28.0205 43.1778 28.0205H44.0697C44.16 28.0205 44.1931 28.0506 44.2081 28.1439V29.5344C44.2081 29.6247 44.177 29.6548 44.0847 29.6548H43.1949C43.0866 29.6548 43.0314 29.7019 43.0314 29.7932V31.7043C43.0314 32.2691 43.2932 32.5901 43.8319 32.5901H44.0677C44.1399 32.5851 44.2001 32.6373 44.2061 32.7095C44.2061 32.7155 44.2061 32.7225 44.2061 32.7286V34.0759C44.2061 34.1662 44.159 34.2133 44.0426 34.2133H43.4929C42.2328 34.2133 41.2497 33.3967 41.2497 31.8297V29.7892C41.2497 29.6979 41.2186 29.6507 41.0952 29.6507H40.4391C40.3458 29.6507 40.3006 29.6206 40.3006 29.5283L40.2886 28.6295L40.2876 28.6275ZM23.6705 32.4958L24.9817 31.8427C25.06 31.8126 25.1453 31.8277 25.1834 31.9501C25.367 32.4095 25.6739 32.6222 26.1184 32.6222H26.4464C26.9229 32.6222 27.3373 32.3775 27.3373 31.8427C27.3373 31.1887 26.6591 31.0171 25.8605 30.7001C24.6477 30.2105 23.6625 29.6437 23.6625 28.1299C23.6625 26.6171 24.6918 25.669 26.3351 25.669H26.5207C27.3142 25.644 28.0766 25.969 28.6083 26.5549C28.7698 26.7234 28.9042 26.914 29.0086 27.1217C29.0828 27.226 29.0618 27.3695 28.9635 27.4487L27.6523 28.1018C27.574 28.1319 27.4998 28.1168 27.4526 27.9945C27.268 27.537 26.9611 27.3243 26.5166 27.3243H26.318C25.8886 27.3012 25.5205 27.6293 25.4984 28.0567C25.4984 28.0777 25.4984 28.0968 25.4984 28.1169C25.4984 28.7158 26.2819 28.9144 27.0032 29.1883C28.2482 29.6778 29.1531 30.2898 29.1531 31.8327C29.1531 33.3766 28.1699 34.2815 26.4966 34.2815H26.0802C25.1453 34.2815 24.4842 33.9455 24.0387 33.4409C23.8772 33.2503 23.7327 33.0456 23.6093 32.8309C23.5371 32.7226 23.5622 32.5791 23.6665 32.5019L23.6705 32.4958ZM34.4379 62.7314C34.465 62.7826 34.4801 62.8367 34.4821 62.8939C34.4821 62.9792 34.448 63.0604 34.3868 63.1186C34.3286 63.1808 34.2443 63.2149 34.159 63.2149H32.1587C32.0182 63.224 31.8778 63.1868 31.7624 63.1036C31.6691 63.0243 31.5958 62.928 31.5427 62.8177L29.9105 59.6877H28.5572V62.8177C28.5551 63.0354 28.3786 63.2109 28.1609 63.2149H26.2347C26.016 63.2109 25.8395 63.0354 25.8375 62.8177V53.3705C25.8375 53.2652 25.8796 53.1648 25.9548 53.0906C26.0291 53.0174 26.1294 52.9742 26.2347 52.9762H30.2175C31.5286 52.9762 32.5479 53.2551 33.2752 53.8169C34.0015 54.3777 34.3637 55.2144 34.3627 56.3269C34.3627 57.7425 33.7798 58.7166 32.6131 59.2533L34.4359 62.7294L34.4379 62.7314ZM15.8436 53.3665C15.8436 53.1498 16.0201 52.9742 16.2388 52.9722H22.9603C23.0646 52.9722 23.1659 53.0133 23.2392 53.0876C23.3174 53.1588 23.3596 53.2612 23.3576 53.3665V54.9214C23.3535 55.1391 23.179 55.3127 22.9603 55.3167H18.5652V57.3211H22.6643C22.7687 57.3211 22.87 57.3622 22.9432 57.4375C23.0195 57.5117 23.0616 57.612 23.0596 57.7174V59.2683C23.0596 59.3727 23.0195 59.472 22.9432 59.5462C22.871 59.6214 22.7707 59.6656 22.6643 59.6636H18.5652V62.8237C18.5652 62.93 18.5241 63.0293 18.4479 63.1036C18.3756 63.1788 18.2753 63.222 18.169 63.2199H16.2428C16.0241 63.2169 15.8496 63.0414 15.8476 62.8237L15.8436 53.3665ZM24.3929 75.9757C24.3327 76.0359 24.2494 76.07 24.1641 76.07H22.1637C22.0233 76.081 21.8828 76.0419 21.7685 75.9606C21.6762 75.8814 21.5999 75.7851 21.5468 75.6757L19.9125 72.5487H18.5602V75.6787C18.5602 75.8964 18.3817 76.072 18.163 76.074H16.2368C16.0191 76.072 15.8436 75.8964 15.8426 75.6787V66.2245C15.8456 66.0088 16.0201 65.8333 16.2368 65.8293H20.2205C21.5317 65.8293 22.551 66.1112 23.2773 66.672C24.0046 67.2328 24.3668 68.0694 24.3648 69.181C24.3648 70.5955 23.7819 71.5706 22.6172 72.1063L24.439 75.5925C24.4671 75.6416 24.4821 75.6978 24.4821 75.755C24.4821 75.8382 24.45 75.9175 24.3918 75.9757H24.3929ZM34.6446 72.0592C34.6677 72.8477 34.4741 73.6272 34.0848 74.3134C33.7186 74.9333 33.1729 75.4279 32.5198 75.7339C31.018 76.378 29.3166 76.378 27.8148 75.7339C27.1627 75.4299 26.619 74.9343 26.2568 74.3134C25.8716 73.6252 25.68 72.8477 25.703 72.0592V66.2245C25.7071 66.0068 25.8816 65.8333 26.0993 65.8293H28.0255C28.1298 65.8293 28.2321 65.8714 28.3043 65.9466C28.3806 66.0179 28.4237 66.1182 28.4227 66.2245V72.003C28.4227 72.5979 28.5722 73.0594 28.8702 73.3874C29.1681 73.7145 29.6045 73.877 30.1723 73.877C30.7391 73.877 31.1745 73.7145 31.4735 73.3874C31.7734 73.0604 31.9199 72.5999 31.9199 72.003V66.2245C31.9239 66.0068 32.1005 65.8313 32.3182 65.8293H34.2423C34.3486 65.8293 34.45 65.8714 34.5232 65.9466C34.5994 66.0199 34.6416 66.1202 34.6416 66.2245V72.0592H34.6446ZM35.1613 31.8749C35.1613 33.2954 34.1019 34.2584 32.5178 34.2584C30.9327 34.2584 29.8473 33.2934 29.8473 31.8749V30.2788C29.8473 28.8572 30.9067 27.8771 32.5178 27.8771C34.1289 27.8771 35.1613 28.8562 35.1613 30.2788V31.8749ZM36.5126 34.0147V30.359C36.5126 30.2687 36.4975 30.2216 36.3741 30.2216H36.0661C35.9999 30.2316 35.9377 30.1835 35.9277 30.1182C35.9277 30.1062 35.9277 30.0952 35.9277 30.0841V28.7107C35.9227 28.6385 35.9748 28.5783 36.0471 28.5723C36.0551 28.5723 36.0611 28.5723 36.0681 28.5723H36.3761C36.4423 28.5823 36.5045 28.5352 36.5146 28.467C36.5146 28.4549 36.5146 28.4459 36.5146 28.4349V28.1078C36.5146 27.0404 37.2509 25.6931 39.2011 25.6931C39.5161 25.6951 39.8301 25.7252 40.1391 25.7844C40.2164 25.7914 40.2756 25.8596 40.2686 25.9389C40.2686 25.9489 40.2645 25.9599 40.2625 25.969L39.8472 27.3143C39.8302 27.3765 39.7649 27.4146 39.7007 27.3956C39.6947 27.3956 39.6877 27.3915 39.6817 27.3875C39.5151 27.3524 39.3456 27.3333 39.1771 27.3273C38.6684 27.3273 38.3474 27.6183 38.3474 28.0777V28.4308C38.3474 28.5211 38.3775 28.5683 38.4859 28.5683H39.3456C39.4118 28.5593 39.475 28.6044 39.484 28.6726C39.484 28.6837 39.484 28.6957 39.484 28.7087V30.0821C39.4941 30.1483 39.4469 30.2105 39.3777 30.2195C39.3667 30.2195 39.3556 30.2195 39.3436 30.2195H38.4838C38.4176 30.2105 38.3574 30.2557 38.3454 30.3219C38.3454 30.3329 38.3454 30.3439 38.3454 30.358V34.0127C38.3554 34.0789 38.3073 34.1411 38.2391 34.1511C38.228 34.1511 38.217 34.1511 38.205 34.1511H36.655C36.5888 34.1642 36.5236 34.123 36.5085 34.0568C36.5065 34.0448 36.5045 34.0317 36.5066 34.0207L36.5106 34.0167L36.5126 34.0147ZM36.8195 58.1086C36.8195 57.7816 36.8296 57.3382 36.8506 56.7934C36.8787 56.0832 37.0874 55.3899 37.4596 54.782C37.8388 54.172 38.3815 53.6765 39.0256 53.3535C40.5545 52.6532 42.3181 52.6532 43.847 53.3535C44.493 53.6765 45.0338 54.172 45.413 54.782C45.7832 55.3899 45.9938 56.0832 46.0219 56.7934C46.041 57.0663 46.052 57.5057 46.052 58.1086C46.052 58.7116 46.041 59.1339 46.0219 59.3988C45.9918 60.109 45.7812 60.8022 45.413 61.4112C45.0338 62.0211 44.491 62.5137 43.847 62.8367C42.3181 63.5379 40.5545 63.5379 39.0256 62.8367C38.3815 62.5137 37.8388 62.0211 37.4596 61.4112C37.0894 60.8022 36.8807 60.109 36.8506 59.3988C36.8276 58.8741 36.8165 58.4447 36.8165 58.1126L36.8195 58.1086ZM39.9535 75.6737C39.9535 75.8904 39.773 76.068 39.5543 76.068H37.6301C37.4124 76.068 37.2339 75.8904 37.2319 75.6737V66.2245C37.2319 66.1202 37.273 66.0199 37.3492 65.9466C37.4235 65.8714 37.5238 65.8273 37.6301 65.8293H39.15C39.2864 65.8252 39.4198 65.8654 39.5322 65.9406C39.6225 65.9958 39.6987 66.0731 39.7519 66.1654L43.1207 71.1703V66.2245C43.1247 66.0068 43.2992 65.8333 43.5169 65.8293H45.4431C45.5474 65.8293 45.6497 65.8714 45.722 65.9466C45.7962 66.0199 45.8403 66.1202 45.8383 66.2245V75.6767C45.8383 75.8944 45.6618 76.072 45.4431 76.072H43.9142C43.7787 76.076 43.6443 76.0379 43.532 75.9626C43.4417 75.9054 43.3655 75.8282 43.3123 75.7359L39.9455 70.7319L39.9535 75.6737ZM47.0301 95.2583H41.5607V93.7695L44.0908 91.1582C44.5743 90.6556 44.8151 90.1931 44.8151 89.7677C44.8151 89.2581 44.5111 89.0033 43.9042 89.0013C43.5781 89.0063 43.2571 89.0675 42.9511 89.1829C42.591 89.3133 42.2459 89.4828 41.9228 89.6925L41.2948 88.2699C41.654 87.9961 42.0633 87.7924 42.4997 87.675C42.9893 87.5235 43.4999 87.4483 44.0125 87.4503C44.5151 87.4383 45.0147 87.5296 45.4792 87.7182C45.8705 87.8727 46.2095 88.1375 46.4533 88.4796C46.682 88.8157 46.8024 89.2149 46.7944 89.6222C46.8004 90.0456 46.7091 90.4629 46.5245 90.8451C46.2818 91.2996 45.9728 91.7159 45.6046 92.0761L44.0446 93.6652H47.0181L47.0281 95.2633L47.0301 95.2583ZM46.9258 44.1611H45.2515C45.1602 44.1611 45.1451 44.131 45.113 44.0688L44.7448 42.877C44.7278 42.8148 44.6977 42.7997 44.6064 42.7997H42.8699C42.7786 42.7997 42.7655 42.8148 42.7314 42.877L42.3502 44.0688C42.3191 44.131 42.287 44.1611 42.2268 44.1611H40.5675C40.4451 44.1611 40.3839 44.1009 40.4291 43.9986L42.9892 35.991C43.0103 35.9328 43.0675 35.8947 43.1277 35.9007H44.3125C44.3726 35.8967 44.4298 35.9348 44.4509 35.991L47.0602 44.0006C47.0923 44.1049 47.0602 44.1651 46.9218 44.1651L46.9258 44.1611ZM47.5819 40.4472C47.5819 39.0267 48.6112 38.0636 50.0568 38.0636C50.425 38.0726 50.7801 38.2031 51.068 38.4298C51.068 38.4298 51.0249 38.0465 51.0249 37.8479V36.0311C51.0249 35.9549 51.0831 35.8947 51.1593 35.8927H51.1633H52.7133C52.7835 35.8867 52.8447 35.9378 52.8507 36.006C52.8507 36.01 52.8507 36.0121 52.8507 36.0151V44.0257C52.8537 44.0969 52.8006 44.1581 52.7293 44.1631C52.7233 44.1631 52.7173 44.1631 52.7113 44.1631H51.4472C51.3931 44.1671 51.3449 44.126 51.3399 44.0708V43.8722C51.3399 43.7648 51.2466 43.7498 51.1764 43.812C50.8654 44.0427 50.4872 44.1651 50.0999 44.1631C48.4878 44.1631 47.597 43.3074 47.597 41.7795L47.5819 40.4452V40.4472ZM53.0233 94.3393C52.5177 95.0175 51.7833 95.3576 50.8233 95.3576C49.8632 95.3576 49.1288 95.0175 48.6242 94.3393C48.1176 93.6611 47.8648 92.681 47.8648 91.4019C47.8648 90.1228 48.1196 89.1668 48.6292 88.4886C49.1399 87.8105 49.8702 87.4704 50.8233 87.4704C51.7763 87.4704 52.5066 87.8105 53.0193 88.4886C53.5319 89.1668 53.7857 90.1379 53.7837 91.4019C53.7837 92.683 53.5339 93.6631 53.0263 94.3433V94.3393H53.0233ZM54.3325 75.7339L50.9547 70.7319V75.6767C50.9547 75.7831 50.9126 75.8834 50.8363 75.9566C50.7631 76.0328 50.6618 76.074 50.5554 76.072H48.6313C48.4136 76.072 48.235 75.8944 48.235 75.6767V66.2245C48.235 66.1202 48.2771 66.0199 48.3504 65.9466C48.4246 65.8714 48.5249 65.8273 48.6313 65.8293H50.1591C50.2956 65.8252 50.431 65.8654 50.5424 65.9406C50.6337 65.9958 50.7099 66.0731 50.7631 66.1654L54.1298 71.1703V66.2245C54.1328 66.0068 54.3074 65.8333 54.5261 65.8293H56.4522C56.6699 65.8333 56.8455 66.0068 56.8485 66.2245V75.6767C56.8485 75.7831 56.8074 75.8834 56.7311 75.9566C56.6569 76.0308 56.5566 76.074 56.4522 76.072H54.9224C54.7879 76.076 54.6555 76.0379 54.5431 75.9626C54.4538 75.9054 54.3776 75.8282 54.3265 75.7359H54.3325V75.7339ZM60.2454 95.2583H54.7769V93.7695L57.308 91.1582C57.7935 90.6556 58.0353 90.1931 58.0353 89.7677C58.0353 89.2581 57.7313 89.0033 57.1244 89.0013C56.7973 89.0063 56.4773 89.0675 56.1713 89.1829C55.8112 89.3133 55.4651 89.4848 55.141 89.6925L54.514 88.2699C54.8732 87.9961 55.2835 87.7924 55.7199 87.675C56.2094 87.5235 56.7201 87.4483 57.2317 87.4503C57.7373 87.4383 58.2399 87.5296 58.7084 87.7182C59.0997 87.8727 59.4378 88.1375 59.6825 88.4796C59.9103 88.8157 60.0297 89.216 60.0236 89.6222C60.0297 90.0456 59.9364 90.4629 59.7528 90.8451C59.51 91.2986 59.2 91.7139 58.8338 92.0761L57.2718 93.6652H60.2554L60.2494 95.2633L60.2454 95.2583ZM66.6337 95.3556H61.1643V93.8668L63.6964 91.2565C64.1819 90.7539 64.4227 90.2914 64.4227 89.866C64.4227 89.3564 64.1187 89.1016 63.5118 89.0996C63.1857 89.1046 62.8647 89.1658 62.5587 89.2802C62.1986 89.4106 61.8535 89.5831 61.5284 89.7908L60.9024 88.3682C61.2606 88.0944 61.6709 87.8907 62.1073 87.7734C62.5968 87.6219 63.1075 87.5466 63.6201 87.5486C64.1247 87.5366 64.6273 87.6279 65.0968 87.8165C65.4871 87.972 65.8252 88.2358 66.07 88.5779C66.2977 88.914 66.4171 89.3143 66.412 89.7206C66.4171 90.1439 66.3247 90.5613 66.1402 90.9435C65.8974 91.3969 65.5884 91.8122 65.2212 92.1744L63.6602 93.7635H66.6428L66.6377 95.3616L66.6337 95.3556ZM68.1155 54.9194C68.1115 55.1351 67.9369 55.3107 67.7212 55.3147H65.1339V62.8217C65.1319 63.0394 64.9544 63.2169 64.7357 63.2189H62.8115C62.7052 63.2189 62.6049 63.1768 62.5306 63.1016C62.4544 63.0273 62.4133 62.928 62.4153 62.8217V55.3147H59.828C59.7217 55.3147 59.6213 55.2726 59.5471 55.1973C59.4719 55.1261 59.4297 55.0258 59.4297 54.9194V53.3685C59.4297 53.1518 59.6103 52.9742 59.828 52.9742H67.7232C67.9409 52.9762 68.1155 53.1518 68.1175 53.3685V54.9194H68.1155ZM65.9977 42.7105C66.413 42.7105 66.706 42.4346 66.9357 41.9129C66.9788 41.8226 67.0421 41.7905 67.1344 41.8357L68.4255 42.4326C68.4987 42.4687 68.5298 42.558 68.4957 42.6312C68.4937 42.6372 68.4897 42.6422 68.4857 42.6463C68.3603 42.9713 68.1787 43.2712 67.9489 43.5321C67.5176 44.0216 66.9046 44.2955 65.9806 44.2955C64.3414 44.2955 63.3583 43.3325 63.3583 41.9119V40.3058C63.3583 38.8852 64.3414 37.9061 65.9806 37.9061C66.9959 37.9061 67.6379 38.2332 68.0703 38.81C68.2369 39.0367 68.3773 39.2815 68.4857 39.5423C68.5328 39.6186 68.5107 39.7199 68.4345 39.7671C68.4305 39.7671 68.4285 39.7711 68.4255 39.7731L67.1344 40.3549C67.0421 40.4001 66.9718 40.37 66.9357 40.2777C66.706 39.743 66.412 39.4821 65.9977 39.4821C65.5764 39.4631 65.2202 39.7901 65.2012 40.2095C65.2012 40.2165 65.2012 40.2245 65.2012 40.2315V41.943C65.1891 42.3553 65.5162 42.6994 65.9295 42.7124C65.9526 42.7124 65.9726 42.7124 65.9957 42.7124H65.9997L65.9977 42.7105ZM66.5936 34.3187C64.9825 34.3187 63.9221 33.3405 63.9221 31.918V30.2195C63.9221 28.9525 65.0437 27.836 66.5936 27.836C68.1446 27.836 69.235 28.9676 69.216 30.2195V31.3622C69.222 31.4324 69.1688 31.4946 69.0986 31.5006C69.0916 31.5006 69.0856 31.5006 69.0775 31.5006H65.8994C65.7931 31.5006 65.7459 31.5458 65.7459 31.6381V31.929C65.7459 32.3564 66.085 32.6774 66.5746 32.6774C67.021 32.6774 67.328 32.4658 67.5106 32.0053C67.5557 31.8819 67.6339 31.8518 67.7092 31.8989L69.0214 32.553C69.1237 32.6263 69.1458 32.7697 69.0705 32.872C69.0705 32.872 69.0665 32.878 69.0645 32.8801C68.924 33.1369 68.7475 33.3726 68.5428 33.5803C68.0172 34.0789 67.3129 34.3477 66.5866 34.3207H66.5896L66.5936 34.3187ZM69.0384 40.2626C69.0384 38.9926 70.16 37.876 71.7079 37.876C73.2569 37.876 74.3313 39.0076 74.3514 40.2626V41.4053C74.3574 41.4755 74.3042 41.5377 74.234 41.5427C74.227 41.5427 74.219 41.5427 74.2109 41.5427H71.0177C70.9114 41.5427 70.8632 41.5899 70.8632 41.6812V41.9721C70.8632 42.3985 71.2033 42.7215 71.6929 42.7215C72.1393 42.7215 72.4463 42.5068 72.6309 42.0493C72.676 41.925 72.7543 41.8969 72.8295 41.942L74.1407 42.5951C74.232 42.6402 74.2621 42.7787 74.1869 42.9221C74.0464 43.179 73.8699 43.4167 73.6632 43.6244C73.1375 44.1199 72.4353 44.3828 71.712 44.3577C70.1028 44.3577 69.0424 43.3796 69.0424 41.9591L69.0364 40.2636L69.0384 40.2626ZM78.2629 75.9717C78.2027 76.0329 78.1204 76.066 78.0352 76.066H76.0408C75.9003 76.078 75.7599 76.0379 75.6445 75.9566C75.5512 75.8773 75.477 75.781 75.4238 75.6717L73.7846 72.5417H72.4333V75.6717C72.4333 75.8884 72.2527 76.066 72.035 76.066H70.1098C69.8921 76.066 69.7136 75.8884 69.7116 75.6717V66.2205C69.7116 66.1162 69.7537 66.0169 69.8289 65.9426C69.9032 65.8674 70.0045 65.8232 70.1098 65.8253H74.0936C75.4047 65.8253 76.426 66.1071 77.1533 66.6679C77.8817 67.2287 78.2438 68.0664 78.2408 69.177C78.2408 70.5915 77.6559 71.5666 76.4882 72.1033L78.314 75.5884C78.3411 75.6396 78.3562 75.6938 78.3582 75.751C78.3582 75.8342 78.3241 75.9155 78.2649 75.9717H78.2629ZM77.3409 53.839H77.9559C78.0994 53.839 78.2177 53.9544 78.2177 54.0958V54.7098C78.2177 54.8532 78.0994 54.9726 77.9559 54.9726H77.3409C77.1945 54.9726 77.0771 54.8552 77.0771 54.7098V54.1018C77.0771 53.9584 77.1925 53.841 77.3349 53.841H77.3409V53.839ZM77.0771 50.717V50.1041C77.0771 49.9586 77.1945 49.8422 77.3409 49.8422H77.9559C78.0994 49.8422 78.2177 49.9606 78.2177 50.1041V50.717C78.2177 50.8605 78.0994 50.9789 77.9559 50.9789H77.3409C77.1965 50.9789 77.0771 50.8615 77.0771 50.718V50.717ZM75.2553 37.0604C74.526 37.4496 74.238 37.1637 74.5761 36.4364L75.0446 35.4242C75.3837 34.6728 74.9914 34.0759 74.1578 34.0759H72.1524C71.3307 34.0759 70.6646 33.4128 70.6646 32.5941V27.226H70.6927C70.6877 26.4154 71.3438 25.7523 72.1584 25.7463C72.1614 25.7463 72.1634 25.7463 72.1674 25.7463H83.2217C84.0413 25.7463 84.7055 26.4054 84.7075 27.222V32.6222C84.7075 33.4388 84.0433 34.102 83.2217 34.102H82.0741C81.0949 34.1471 80.1359 34.3949 79.2591 34.8273L75.2533 37.0584L75.2553 37.0604ZM84.1557 59.0436H82.8295C82.6188 59.0436 82.4492 58.8741 82.4492 58.6654V57.3472C82.4492 57.1375 82.6198 56.969 82.8295 56.969H84.1557C84.3664 56.969 84.5349 57.1395 84.5349 57.3472V58.6694C84.5349 58.8771 84.3644 59.0476 84.1557 59.0476V59.0436ZM84.267 60.717V61.6449C84.267 61.8145 84.1306 61.9529 83.9601 61.9529H83.956H83.0261C82.8555 61.9529 82.7171 61.8145 82.7171 61.6449V60.717C82.7171 60.5474 82.8555 60.409 83.0261 60.409H83.956C84.1276 60.409 84.2661 60.5454 84.2661 60.716C84.2661 60.716 84.2661 60.719 84.2661 60.721L84.267 60.717ZM84.1557 55.4371H82.8295C82.6188 55.4371 82.4492 55.2676 82.4492 55.0599V53.7407C82.4492 53.531 82.6198 53.3635 82.8295 53.3635H84.1557C84.3664 53.3635 84.5349 53.533 84.5349 53.7407V55.0599C84.5349 55.2696 84.3664 55.4391 84.1557 55.4391V55.4371ZM84.1557 51.4443H82.8295C82.6188 51.4443 82.4492 51.2738 82.4492 51.0661V49.7479C82.4492 49.5372 82.6198 49.3697 82.8295 49.3697H84.1557C84.3664 49.3697 84.5349 49.5392 84.5349 49.7479V51.0661C84.5349 51.2758 84.3664 51.4453 84.1557 51.4453V51.4443ZM80.7659 51.1755H79.8339C79.6634 51.1755 79.5249 51.036 79.5249 50.8655V49.9395C79.5249 49.77 79.6634 49.6305 79.8339 49.6305H80.7659C80.9374 49.6305 81.0758 49.768 81.0758 49.9385V50.8655C81.0758 51.036 80.9404 51.1755 80.7679 51.1775H80.7639L80.7659 51.1755ZM81.0758 53.9303V54.8572C81.0758 55.0278 80.9384 55.1652 80.7679 55.1652H80.7639H79.8329C79.6613 55.1652 79.5229 55.0278 79.5229 54.8572V53.9283C79.5229 53.7577 79.6613 53.6203 79.8329 53.6203H80.7639C80.9354 53.6203 81.0739 53.7557 81.0739 53.9263V53.9313L81.0758 53.9303ZM79.5249 58.4577V57.5328C79.5249 57.3622 79.6634 57.2248 79.8339 57.2248H80.7659C80.9374 57.2248 81.0758 57.3622 81.0758 57.5328V58.4577C81.0758 58.6283 80.9384 58.7677 80.7679 58.7677H79.8359C79.6654 58.7677 79.5269 58.6303 79.5269 58.4598L79.5249 58.4577ZM88.1254 74.6986C87.699 75.2082 87.1392 75.5924 86.5092 75.8091C85.7568 76.078 84.9623 76.2104 84.1647 76.1984C83.3772 76.2104 82.5977 76.061 81.8684 75.76C81.2464 75.5132 80.6926 75.1219 80.2522 74.6173C79.8871 74.2171 79.6694 73.7054 79.6333 73.1667C79.6333 73.0814 79.6674 73.0002 79.7296 72.942C79.7847 72.8828 79.861 72.8497 79.9412 72.8477H81.8674C82.072 72.8437 82.2707 72.9149 82.4272 73.0513C82.4573 73.0814 82.5345 73.1647 82.6619 73.3082C82.8255 73.4747 83.0231 73.6051 83.2408 73.6884C83.5327 73.8047 83.8467 73.8599 84.1617 73.8509C85.3756 73.8509 85.9835 73.592 85.9835 73.0764C85.9775 72.9018 85.8802 72.7434 85.7267 72.6601C85.501 72.5267 85.2562 72.4304 84.9984 72.3752C84.6834 72.2979 84.1788 72.1846 83.4986 72.0371L82.8425 71.9067C81.8423 71.689 81.108 71.3309 80.6375 70.8313C80.167 70.3297 79.9312 69.6605 79.9312 68.8198C79.9312 68.255 80.1118 67.7033 80.4458 67.2458C80.819 66.7362 81.3237 66.3379 81.9085 66.0901C83.303 65.5082 84.875 65.5143 86.2654 66.1052C86.8603 66.358 87.391 66.7402 87.8164 67.2257C88.1936 67.6752 88.3912 68.1136 88.4123 68.5419C88.4123 68.6272 88.3782 68.7105 88.315 68.7687C88.2618 68.8289 88.1846 68.863 88.1043 68.863H86.1782C86.0668 68.869 85.9544 68.8519 85.8501 68.8108C85.7518 68.7647 85.6625 68.7024 85.5863 68.6272C85.5652 68.6081 85.503 68.5419 85.3947 68.4306C85.2502 68.2952 85.0776 68.1928 84.888 68.1306C84.6322 68.0373 84.3604 67.9922 84.0875 67.9982C83.7344 67.9852 83.3812 68.0413 83.0492 68.1607C82.8004 68.244 82.6358 68.4777 82.6449 68.7386C82.6409 68.9252 82.7362 69.1007 82.8957 69.199C83.1344 69.3415 83.3963 69.4408 83.6681 69.498C84.0152 69.5873 84.6192 69.7187 85.4819 69.8942C86.5885 70.12 87.4031 70.4691 87.9227 70.9466C88.4424 71.4251 88.7022 72.1083 88.7022 72.9962C88.7163 73.6141 88.5086 74.217 88.1203 74.6986H88.1254ZM91.6938 64.1158C91.6938 64.2613 91.5754 64.3786 91.4299 64.3786H90.815C90.6705 64.3786 90.5531 64.2613 90.5531 64.1178V63.5038C90.5531 63.3604 90.6705 63.243 90.815 63.243H91.4299C91.5734 63.243 91.6938 63.3604 91.6938 63.5038V64.1158ZM91.8984 61.6319C91.8984 61.8014 91.76 61.9399 91.5894 61.9399H90.6595C90.4879 61.9399 90.3485 61.8034 90.3485 61.6339V60.7039C90.3485 60.5344 90.4869 60.3959 90.6575 60.3959H91.5874C91.758 60.3959 91.8984 60.5324 91.8984 60.7019V61.6319ZM92.1663 58.6504C92.1663 58.86 91.9947 59.0286 91.7861 59.0286H90.4678C90.2572 59.0286 90.0876 58.858 90.0876 58.6504V57.3321C90.0876 57.1225 90.2592 56.9539 90.4678 56.9539H91.779C91.9897 56.9539 92.1583 57.1245 92.1583 57.3321L92.1643 58.6504H92.1663ZM92.403 55.2234C92.403 55.4642 92.2074 55.6588 91.9666 55.6588H90.2792C90.0385 55.6588 89.8428 55.4642 89.8408 55.2234V53.542C89.8408 53.3023 90.0385 53.1076 90.2792 53.1076H91.9666C92.2074 53.1076 92.403 53.3013 92.405 53.541V55.2234H92.403ZM92.403 51.2587C92.403 51.4875 92.2154 51.6741 91.9857 51.6741H90.2431C90.0144 51.6741 89.8278 51.4875 89.8278 51.2587V49.5302C89.8278 49.3015 90.0144 49.1149 90.2431 49.1149H91.9857C92.2154 49.1149 92.403 49.3015 92.403 49.5302V51.2587Z" fill="#170C32"/>
<path d="M96.8161 21.2569L61.0991 1.83586C56.5967 -0.611954 51.1513 -0.611954 46.649 1.83586L10.9319 21.2569C4.19239 24.9236 0 31.9581 0 39.6035V73.3974C0 81.0428 4.19239 88.0773 10.9319 91.742L46.6469 111.165C51.1493 113.612 56.5947 113.612 61.0971 111.165L96.8142 91.742C103.554 88.0773 107.744 81.0408 107.744 73.3974V39.6035C107.744 31.9601 103.556 24.9236 96.8161 21.2569ZM104.368 73.3994C104.37 79.8149 100.853 85.7197 95.197 88.7966L59.484 108.218C55.9888 110.117 51.7633 110.117 48.2681 108.218L12.5491 88.7966C6.89301 85.7217 3.37578 79.8169 3.37678 73.3994V39.6055C3.37377 33.19 6.89101 27.2851 12.5491 24.2103L48.2661 4.7843C51.7613 2.88424 55.9868 2.88424 59.4819 4.7843L95.199 24.2083C100.856 27.2831 104.374 33.188 104.37 39.6035V73.3994H104.368Z" fill="#170C32"/>
<path d="M30.1399 55.1361H28.4796V57.3532H30.1399C31.091 57.3532 31.5675 56.984 31.5675 56.2446C31.5675 55.5062 31.091 55.1361 30.1399 55.1341V55.1361Z" fill="#170C32"/>
<path d="M65.8719 30.2086H67.4219C67.5704 30.2086 67.5844 30.1564 67.5974 30.0772L67.5784 29.9176C67.5463 29.5996 67.15 29.3599 66.6544 29.3599C66.1588 29.3599 65.7636 29.5996 65.7305 29.9277L65.7124 30.0872C65.6984 30.1454 65.7425 30.1996 65.8148 30.2106C65.8328 30.2136 65.8489 30.2136 65.8669 30.2106L65.8719 30.2086Z" fill="#170C32"/>
<path d="M50.7839 88.9319C50.4167 88.9319 50.1548 89.1225 49.9943 89.5068C49.8348 89.89 49.7546 90.518 49.7546 91.3898C49.7546 92.2605 49.8348 92.9146 49.9943 93.3019C50.1548 93.6891 50.4167 93.8817 50.7839 93.8817C51.15 93.8817 51.4129 93.6891 51.5724 93.3019C51.7319 92.9166 51.8132 92.2786 51.8132 91.3898C51.8132 90.5009 51.7319 89.89 51.5724 89.5068C51.4129 89.1205 51.15 88.9319 50.7839 88.9319Z" fill="#170C32"/>
<path d="M40.0599 60.4811C40.3779 60.7861 40.8374 60.9376 41.4333 60.9376C42.0292 60.9376 42.4896 60.7861 42.8087 60.4811C43.1397 60.1491 43.3384 59.7147 43.3634 59.2562C43.3925 58.9091 43.4066 58.4968 43.4066 58.0233C43.4066 57.5488 43.3925 57.1465 43.3634 56.8164C43.3364 56.358 43.1397 55.9226 42.8087 55.5915C42.4917 55.2865 42.0312 55.1341 41.4333 55.1341C40.8364 55.1341 40.3789 55.2845 40.0599 55.5915C39.7288 55.9226 39.5332 56.358 39.5051 56.8164C39.474 57.1405 39.46 57.5418 39.46 58.0233C39.46 58.5048 39.476 58.9151 39.5051 59.2562C39.5312 59.7147 39.7288 60.1491 40.0599 60.4811Z" fill="#170C32"/>
<path d="M32.4414 29.3619C31.9839 29.3388 31.5937 29.6699 31.5676 30.1002C31.5676 30.1083 31.5676 30.1173 31.5676 30.1253V31.8388C31.5716 32.2662 31.9418 32.6082 32.3942 32.6022C32.4093 32.6022 32.4253 32.6022 32.4414 32.6022C32.8878 32.6213 33.266 32.2923 33.2831 31.8709C33.2831 31.8599 33.2831 31.8498 33.2831 31.8388V30.1253C33.2831 29.704 32.9219 29.3619 32.4755 29.3599C32.4635 29.3599 32.4514 29.3599 32.4394 29.3599L32.4414 29.3619Z" fill="#170C32"/>
<path d="M50.1734 42.6733C50.5837 42.6934 50.9348 42.3634 50.9549 41.933C50.9549 41.926 50.9549 41.9179 50.9549 41.9089V40.3369C50.9549 39.9236 50.6309 39.6016 50.1734 39.6016C49.7149 39.6016 49.4109 39.9065 49.4109 40.3369V41.9089C49.4009 42.3202 49.7119 42.6613 50.1062 42.6733C50.1283 42.6733 50.1503 42.6733 50.1714 42.6733H50.1734Z" fill="#170C32"/>
<path d="M43.9999 40.1161C43.8975 39.6657 43.8263 39.2092 43.7862 38.7478H43.744C43.6979 39.2092 43.6166 39.6677 43.5002 40.1161L43.2444 41.1595C43.2153 41.2327 43.2585 41.3079 43.3849 41.3079H44.1303C44.2296 41.3079 44.2828 41.2177 44.2597 41.1595L44.0018 40.1161H43.9999Z" fill="#170C32"/>
</g>
<defs>
<filter id="filter0_d_4_11503" x="-10.2427" y="-6.52082" width="128.23" height="133.485" filterUnits="userSpaceOnUse" color-interpolation-filters="sRGB">
<feFlood flood-opacity="0" result="BackgroundImageFix"/>
<feColorMatrix in="SourceAlpha" type="matrix" values="0 0 0 0 0 0 0 0 0 0 0 0 0 0 0 0 0 0 127 0" result="hardAlpha"/>
<feOffset dy="3.71"/>
<feGaussianBlur stdDeviation="5.105"/>
<feComposite in2="hardAlpha" operator="out"/>
<feColorMatrix type="matrix" values="0 0 0 0 0 0 0 0 0 0 0 0 0 0 0 0 0 0 0.19 0"/>
<feBlend mode="normal" in2="BackgroundImageFix" result="effect1_dropShadow_4_11503"/>
<feBlend mode="normal" in="SourceGraphic" in2="effect1_dropShadow_4_11503" result="shape"/>
</filter>
</defs>
</svg>
