<svg width="130" height="23" viewBox="0 0 130 23" fill="none" xmlns="http://www.w3.org/2000/svg">
<path d="M130 5.38218C129.732 5.64934 129.466 5.64933 129.334 5.64933C127.07 5.64933 124.808 5.64933 122.677 5.64933C122.011 5.64933 122.011 5.64935 121.745 6.31425C120.813 9.24304 119.881 12.3064 118.948 15.2352C118.282 17.4991 117.483 19.8955 116.818 22.1594C116.552 22.8253 116.552 22.8253 115.752 22.8253C113.222 22.8253 110.693 22.8253 108.296 22.8253C107.364 22.8253 106.564 22.8253 105.632 22.8253C105.233 22.8253 104.701 22.8253 104.3 22.8253C103.9 22.8253 103.501 22.8253 103.235 22.8253C75.5399 22.8253 47.9796 22.8253 20.2857 22.8253C20.0186 22.8253 19.7524 22.8253 19.3536 22.8253C18.9549 22.8253 18.5542 22.8253 18.1554 22.8253C16.8236 22.8253 15.3582 22.8253 14.0284 22.8253C9.7668 22.8253 5.50722 22.8253 1.24562 22.8253C0.979455 22.8253 0.846858 22.8253 0.580697 22.8253C0.0473691 22.8253 -0.084211 22.6927 0.0473632 22.1594C0.314529 21.0938 0.713279 20.1627 0.97944 19.098C1.11202 18.5657 1.2456 18.0324 1.51176 17.5011C3.24332 11.9097 4.97386 6.44984 6.70542 0.858434C6.97158 0.192527 6.97159 0.0589238 7.77108 0.0589238C8.3044 0.0589238 8.83672 0.0589238 9.36804 0.0589238C43.5864 0.0589238 77.8038 0.0589238 112.022 0.0589238C112.288 0.0589238 112.687 0.0589238 112.954 0.0589238C113.353 -0.0736548 113.619 0.0589238 114.02 0.0589238C115.218 0.191502 116.416 0.191502 117.613 0.0589238C119.345 0.0589238 121.208 0.0589238 122.94 0.0589238C123.472 0.0589238 123.605 0.19152 123.472 0.723844C123.206 1.65591 122.94 2.58698 122.541 3.52106C122.408 3.9198 122.274 4.32054 122.142 4.71928C122.01 5.11802 122.142 5.11802 122.541 5.11802C122.94 5.11802 123.206 5.11802 123.607 5.11802C125.47 5.11802 127.335 5.11802 129.198 5.11802C129.601 5.24859 129.867 5.24859 130 5.38218Z" fill="#F59B30"/>
</svg>
