<svg width="180" height="361" viewBox="0 0 180 361" fill="none" xmlns="http://www.w3.org/2000/svg">
<g clip-path="url(#clip0_4_12870)">
<path d="M54 38C54 52.9117 41.9117 65 27 65C12.0883 65 0 52.9117 0 38C0 23.0883 12.0883 11 27 11C41.9117 11 54 23.0883 54 38Z" fill="#215A99"/>
<path d="M13.2243 44.6527V28.9146H9.5293V44.6527H13.2243Z" fill="white"/>
<path d="M27.1854 39.8632C27.1854 38.449 26.6151 37.491 25.9537 36.8296C25.2466 36.1225 24.1974 35.7119 23.764 35.5523C23.2622 35.347 22.099 34.9364 21.4147 34.6627C20.7076 34.389 19.8181 34.0241 19.8181 33.0661C19.8181 32.1082 20.6848 31.652 21.8709 31.652C23.057 31.652 24.4711 32.3362 25.3835 33.2486L26.9573 30.6712C25.8852 29.5992 23.7868 28.7324 21.9621 28.7324C20.1374 28.7324 18.7005 29.2342 17.8109 29.9869C16.8986 30.7396 16.1687 31.9257 16.1687 33.4311C16.1687 34.9136 16.7161 35.826 17.4004 36.4646C18.0846 37.1261 18.8829 37.4226 19.2707 37.6051C19.7953 37.8332 20.9813 38.2437 21.6656 38.4946C22.3499 38.7455 23.5131 39.1561 23.5131 40.2281C23.5131 41.2773 22.6008 41.8475 21.4147 41.8475C20.2058 41.8475 18.4496 41.0492 17.3091 39.8632L15.4844 42.5546C16.7617 43.7407 18.7917 44.9267 21.0726 44.9267C22.7604 44.9267 24.2202 44.5162 25.3378 43.6266C26.4783 42.7371 27.1854 41.3685 27.1854 39.8632Z" fill="white"/>
<path d="M45.4953 36.8064C45.4953 31.72 41.8231 28.6636 37.1473 28.6636C32.4715 28.6636 28.7993 31.72 28.7993 36.8064C28.7993 41.8927 32.4715 44.9263 37.1473 44.9263C41.8231 44.9263 45.4953 41.8927 45.4953 36.8064ZM41.7547 36.7151C41.7547 39.7259 39.7703 41.6418 37.1473 41.6418C34.5243 41.6418 32.5399 39.7259 32.5399 36.7151C32.5399 33.7044 34.5243 31.8112 37.1473 31.8112C39.7703 31.8112 41.7547 33.7272 41.7547 36.7151Z" fill="white"/>
<path d="M17.9513 57.5041L17.6974 57.0749C17.4254 57.3711 17.0022 57.5827 16.4521 57.5827C15.5573 57.5827 14.8984 56.9358 14.8984 55.9565C14.8984 54.9772 15.5513 54.3303 16.4521 54.3303C17.0324 54.3303 17.4979 54.6326 17.6611 54.8381L17.909 54.3666C17.6793 54.1429 17.2077 53.8164 16.4279 53.8164C15.2309 53.8164 14.2939 54.6688 14.2939 55.9686C14.2939 57.2683 15.2067 58.1207 16.4218 58.1207C17.2138 58.1207 17.6913 57.7943 17.9513 57.5041Z" fill="white"/>
<path d="M21.4465 56.4944C21.4465 55.6904 20.8843 55.1221 20.0863 55.1221C19.2884 55.1221 18.6294 55.7025 18.6294 56.6093C18.6294 57.5221 19.2158 58.1146 20.0682 58.1146C20.9266 58.1146 21.2954 57.6914 21.3317 57.6612L21.0899 57.3287C21.0234 57.371 20.6788 57.6612 20.1408 57.6612C19.6088 57.6612 19.246 57.3166 19.2158 56.7483H21.4284C21.4284 56.7483 21.4465 56.6032 21.4465 56.4944ZM20.8964 56.3614H19.2219C19.24 56.0169 19.4939 55.5393 20.0682 55.5393C20.6486 55.5393 20.8904 56.041 20.8964 56.3614Z" fill="white"/>
<path d="M23.9877 55.1705C23.9877 55.1705 23.8789 55.1221 23.6854 55.1221C23.3771 55.1221 23.1172 55.2914 22.9781 55.6179H22.96L22.966 55.1765H22.3857V58.0481H22.966V56.6153C22.966 56.1982 23.093 55.6481 23.6129 55.6481C23.77 55.6481 23.8728 55.6844 23.9272 55.7085H23.9514L23.9877 55.1705Z" fill="white"/>
<path d="M26.1696 58.0179L26.1333 57.5524C26.1333 57.5524 26.0064 57.6189 25.8371 57.6189C25.6739 57.6189 25.5953 57.5645 25.5409 57.4738C25.4744 57.3529 25.4684 57.1896 25.4684 56.9478V55.6481H26.1575V55.1826H25.4684V54.3242H24.888V55.1826H24.4648V55.6481H24.888V56.9599C24.888 57.5221 24.9243 58.1146 25.6437 58.1146C25.8432 58.1146 26.0185 58.0844 26.1696 58.0179Z" fill="white"/>
<path d="M27.7025 54.2337C27.7025 54.0281 27.5453 53.877 27.3277 53.877C27.104 53.877 26.9468 54.0281 26.9468 54.2337C26.9468 54.4392 27.104 54.5904 27.3277 54.5904C27.5453 54.5904 27.7025 54.4392 27.7025 54.2337ZM27.6179 58.0483V55.1767H27.0375V58.0483H27.6179Z" fill="white"/>
<path d="M31.2107 54.2333C31.2107 54.0277 31.0535 53.8766 30.8298 53.8766C30.6122 53.8766 30.455 54.0277 30.455 54.2333C30.455 54.4388 30.6122 54.59 30.8298 54.59C31.0535 54.59 31.2107 54.4388 31.2107 54.2333ZM31.12 58.0479V55.1763H30.5457V58.0479H31.12ZM30.2313 54.3058L30.2736 53.8766C30.2736 53.8766 30.0621 53.8101 29.8202 53.8101C29.4394 53.8101 29.2459 53.9673 29.1069 54.1245C28.9678 54.2816 28.9134 54.5174 28.9134 54.8922V55.1824H28.5024V55.6479H28.9134V58.0479H29.4877V55.6479H30.1709V55.1824H29.4877V55.0071C29.4877 54.6685 29.4757 54.2514 29.9291 54.2514C30.0379 54.2514 30.1406 54.2695 30.2313 54.3058Z" fill="white"/>
<path d="M34.9319 56.4944C34.9319 55.6904 34.3696 55.1221 33.5717 55.1221C32.7737 55.1221 32.1147 55.7025 32.1147 56.6093C32.1147 57.5221 32.7011 58.1146 33.5535 58.1146C34.412 58.1146 34.7807 57.6914 34.817 57.6612L34.5752 57.3287C34.5087 57.371 34.1641 57.6612 33.6261 57.6612C33.0941 57.6612 32.7314 57.3166 32.7011 56.7483H34.9137C34.9137 56.7483 34.9319 56.6032 34.9319 56.4944ZM34.3817 56.3614H32.7072C32.7253 56.0169 32.9792 55.5393 33.5535 55.5393C34.1339 55.5393 34.3757 56.041 34.3817 56.3614Z" fill="white"/>
<path d="M38.6809 58.0483V53.877H38.1065V55.6241H38.0945C37.895 55.3279 37.5564 55.1223 37.0909 55.1223C36.2506 55.1223 35.7065 55.7631 35.7065 56.6095C35.7065 57.4619 36.2506 58.1148 37.103 58.1148C37.5201 58.1148 37.8768 57.9395 38.1126 57.5888H38.1247V58.0483H38.6809ZM38.1247 56.6034C38.1247 57.1778 37.7861 57.6191 37.2118 57.6191C36.6375 57.6191 36.299 57.1778 36.299 56.6034C36.299 56.0291 36.6375 55.5939 37.2118 55.5939C37.7861 55.5939 38.1247 56.0291 38.1247 56.6034Z" fill="white"/>
<path d="M13.7483 25.1125V24.6795H11.843L12.801 23.7648C13.0338 23.5483 13.5913 23.0828 13.5913 22.4225C13.5913 21.7621 13.0879 21.3237 12.341 21.3237C11.5994 21.3237 11.2206 21.8162 11.1177 22.0436L11.3938 22.3521C11.5453 22.1031 11.8376 21.7513 12.3085 21.7513C12.7848 21.7513 13.0771 22.0544 13.0771 22.4766C13.0771 22.8934 12.7577 23.2344 12.4709 23.5104L11.1502 24.7607L11.226 25.1125H13.7483Z" fill="white"/>
<path d="M17.1826 21.6805L17.0419 21.3774H14.498V21.7996H16.5981L14.8336 25.1121H15.3856L17.1826 21.6805Z" fill="white"/>
<path d="M20.5786 23.2506C20.5786 22.2763 20.1564 21.3237 19.1496 21.3237C18.1483 21.3237 17.7207 22.2763 17.7207 23.2506C17.7207 24.2195 18.1429 25.1721 19.1496 25.1721C20.1564 25.1721 20.5786 24.2195 20.5786 23.2506ZM20.0481 23.2398C20.0481 24.0895 19.7504 24.712 19.1496 24.712C18.5488 24.712 18.2511 24.0895 18.2511 23.2398C18.2511 22.3846 18.5488 21.7675 19.1496 21.7675C19.7504 21.7675 20.0481 22.3846 20.0481 23.2398Z" fill="white"/>
<path d="M24.0747 23.2506C24.0747 22.2763 23.6525 21.3237 22.6458 21.3237C21.6444 21.3237 21.2168 22.2763 21.2168 23.2506C21.2168 24.2195 21.639 25.1721 22.6458 25.1721C23.6525 25.1721 24.0747 24.2195 24.0747 23.2506ZM23.5443 23.2398C23.5443 24.0895 23.2466 24.712 22.6458 24.712C22.045 24.712 21.7473 24.0895 21.7473 23.2398C21.7473 22.3846 22.045 21.7675 22.6458 21.7675C23.2466 21.7675 23.5443 22.3846 23.5443 23.2398Z" fill="white"/>
<path d="M26.1316 25.1121V21.3774H24.8921V21.7617H25.6228V25.1121H26.1316Z" fill="white"/>
<path d="M28.4133 22.839C28.4133 22.6333 28.2617 22.498 28.056 22.498C27.8449 22.498 27.6934 22.6333 27.6934 22.839C27.6934 23.0447 27.8449 23.18 28.056 23.18C28.2617 23.18 28.4133 23.0447 28.4133 22.839ZM28.4133 24.8309C28.4133 24.6198 28.2617 24.4899 28.056 24.4899C27.8449 24.4899 27.6934 24.6198 27.6934 24.8309C27.6934 25.0366 27.8449 25.1665 28.056 25.1665C28.2617 25.1665 28.4133 25.0366 28.4133 24.8309Z" fill="white"/>
<path d="M32.1251 25.1125V24.6795H30.2199L31.1779 23.7648C31.4107 23.5483 31.9682 23.0828 31.9682 22.4225C31.9682 21.7621 31.4648 21.3237 30.7179 21.3237C29.9763 21.3237 29.5974 21.8162 29.4946 22.0436L29.7706 22.3521C29.9222 22.1031 30.2145 21.7513 30.6854 21.7513C31.1617 21.7513 31.454 22.0544 31.454 22.4766C31.454 22.8934 31.1346 23.2344 30.8478 23.5104L29.5271 24.7607L29.6029 25.1125H32.1251Z" fill="white"/>
<path d="M35.7026 23.2506C35.7026 22.2763 35.2804 21.3237 34.2736 21.3237C33.2723 21.3237 32.8447 22.2763 32.8447 23.2506C32.8447 24.2195 33.2669 25.1721 34.2736 25.1721C35.2804 25.1721 35.7026 24.2195 35.7026 23.2506ZM35.1721 23.2398C35.1721 24.0895 34.8744 24.712 34.2736 24.712C33.6728 24.712 33.3751 24.0895 33.3751 23.2398C33.3751 22.3846 33.6728 21.7675 34.2736 21.7675C34.8744 21.7675 35.1721 22.3846 35.1721 23.2398Z" fill="white"/>
<path d="M37.759 25.1121V21.3774H36.5195V21.7617H37.2502V25.1121H37.759Z" fill="white"/>
<path d="M41.7077 24.0679C41.7077 23.4887 41.2801 23.2073 40.9878 23.1532V23.1369C41.2206 23.0611 41.5941 22.8446 41.5941 22.2926C41.5941 21.6809 41.0365 21.3237 40.4249 21.3237C39.8133 21.3237 39.4885 21.5835 39.245 21.8541L39.4885 22.1681C39.7375 21.9245 40.0027 21.7405 40.3816 21.7405C40.7605 21.7405 41.0853 21.9516 41.0853 22.3467C41.0853 22.7364 40.8092 22.9529 40.4141 22.9529H40.138V23.3697H40.4141C40.8417 23.3697 41.1881 23.597 41.1881 24.0462C41.1881 24.4955 40.8363 24.7391 40.3491 24.7391C39.862 24.7391 39.4994 24.2898 39.4398 24.214L39.1475 24.5334C39.2017 24.6038 39.6076 25.1667 40.36 25.1667C41.1177 25.1667 41.7077 24.7499 41.7077 24.0679Z" fill="white"/>
<path d="M21.2708 48.4134L20.2576 48.2591L19.8045 47.2976C19.7923 47.2711 19.7718 47.2498 19.7468 47.2368C19.6838 47.2044 19.6071 47.2315 19.5756 47.2976L19.1225 48.2591L18.1094 48.4134C18.0814 48.4175 18.056 48.4313 18.0363 48.4522C18.0126 48.4777 17.9996 48.5119 18 48.5475C18.0006 48.583 18.0144 48.6168 18.0386 48.6415L18.7719 49.3901L18.5987 50.447C18.5946 50.4714 18.5971 50.4969 18.6062 50.5199C18.6151 50.543 18.63 50.563 18.6493 50.5777C18.6686 50.5923 18.6915 50.6011 18.7151 50.6028C18.739 50.6046 18.7628 50.5995 18.7839 50.5878L19.6901 50.0888L20.5962 50.5878C20.6211 50.6015 20.6498 50.6061 20.6774 50.6011C20.7467 50.5886 20.7934 50.5196 20.7814 50.447L20.6083 49.3901L21.3415 48.6415C21.3614 48.6212 21.3746 48.5943 21.3785 48.5651C21.3893 48.4918 21.3407 48.4243 21.2708 48.4134Z" fill="#F3D153"/>
<path d="M28.2303 48.4134L27.2171 48.2591L26.764 47.2976C26.7518 47.2711 26.7313 47.2498 26.7063 47.2368C26.6433 47.2044 26.5666 47.2315 26.5351 47.2976L26.082 48.2591L25.0689 48.4134C25.0409 48.4175 25.0155 48.4313 24.9958 48.4522C24.9721 48.4777 24.9591 48.5119 24.9595 48.5475C24.9601 48.583 24.9739 48.6168 24.9981 48.6415L25.7314 49.3901L25.5582 50.447C25.5541 50.4714 25.5566 50.4969 25.5657 50.5199C25.5745 50.543 25.5895 50.563 25.6088 50.5777C25.6281 50.5923 25.651 50.6011 25.6746 50.6028C25.6985 50.6046 25.7223 50.5995 25.7434 50.5878L26.6496 50.0888L27.5557 50.5878C27.5806 50.6015 27.6093 50.6061 27.6369 50.6011C27.7062 50.5886 27.7529 50.5196 27.7409 50.447L27.5678 49.3901L28.301 48.6415C28.3209 48.6212 28.3341 48.5943 28.338 48.5651C28.3488 48.4918 28.3002 48.4243 28.2303 48.4134Z" fill="#F3D153"/>
<path d="M35.1901 48.4134L34.177 48.2591L33.7239 47.2976C33.7117 47.2711 33.6912 47.2498 33.6662 47.2368C33.6031 47.2044 33.5265 47.2315 33.495 47.2976L33.0419 48.2591L32.0288 48.4134C32.0008 48.4175 31.9754 48.4313 31.9557 48.4522C31.932 48.4777 31.919 48.5119 31.9194 48.5475C31.92 48.583 31.9338 48.6168 31.958 48.6415L32.6913 49.3901L32.5181 50.447C32.514 50.4714 32.5165 50.4969 32.5256 50.5199C32.5344 50.543 32.5494 50.563 32.5687 50.5777C32.588 50.5923 32.6109 50.6011 32.6345 50.6028C32.6584 50.6046 32.6822 50.5995 32.7033 50.5878L33.6094 50.0888L34.5156 50.5878C34.5405 50.6015 34.5692 50.6061 34.5968 50.6011C34.6661 50.5886 34.7128 50.5196 34.7008 50.447L34.5276 49.3901L35.2609 48.6415C35.2808 48.6212 35.294 48.5943 35.2979 48.5651C35.3087 48.4918 35.2601 48.4243 35.1901 48.4134Z" fill="#F3D153"/>
</g>
<g clip-path="url(#clip1_4_12870)">
<path d="M126 38C126 52.9117 113.912 65 99 65C84.0883 65 72 52.9117 72 38C72 23.0883 84.0883 11 99 11C113.912 11 126 23.0883 126 38Z" fill="#2655D8"/>
<path d="M89.1583 38.323V34.1245H84.7102V35.9301H86.8388V37.4275C86.8388 37.4275 86.369 38.0734 84.7249 38.0734C83.0807 38.0734 81.7889 36.8843 81.7889 34.8291C81.7889 32.7739 83.0513 31.5848 84.6808 31.5848C86.0608 31.5848 86.8535 32.2748 87.2792 32.7445L88.85 31.3793C88.527 31.027 87.3673 29.6177 84.6808 29.6177C81.8476 29.6177 79.3813 31.4527 79.3813 34.8291C79.3813 38.2055 81.8476 40.0552 84.6515 40.0552C87.4407 40.0552 88.6445 38.778 89.1583 38.323Z" fill="white"/>
<path d="M99.9534 34.8292C99.9534 32.8621 99.1607 31.6877 98.3093 30.983C97.4725 30.2637 96.166 29.7646 94.4043 29.7646H90.9692V39.8938H94.4043C96.166 39.8938 97.4725 39.3947 98.3093 38.6901C99.1607 37.9707 99.9534 36.7963 99.9534 34.8292ZM97.5459 34.8292C97.5459 36.077 97.0761 36.7523 96.6504 37.1487C96.2247 37.5597 95.52 37.8827 94.5365 37.8827H93.3327V31.7317H94.5365C95.52 31.7317 96.2247 32.0547 96.6504 32.451C97.0761 32.8621 97.5459 33.5814 97.5459 34.8292Z" fill="white"/>
<path d="M108.91 32.9502C108.91 31.8638 108.529 31.0858 107.853 30.5279C107.178 29.9701 106.253 29.7646 105.211 29.7646H101.585V39.8938H103.963V36.1504H105.211C106.253 36.1504 107.178 35.9449 107.853 35.3871C108.529 34.8145 108.91 34.0365 108.91 32.9502ZM106.503 32.9502C106.503 33.464 106.297 33.831 106.018 34.0365C105.725 34.242 105.387 34.3154 104.873 34.3154H103.948V31.5996H104.873C105.387 31.5996 105.725 31.673 106.018 31.8785C106.297 32.084 106.503 32.4364 106.503 32.9502Z" fill="white"/>
<path d="M118.381 39.8938L115.812 35.71C116.561 35.4751 117.794 34.7264 117.794 32.8034C117.794 31.7904 117.353 30.983 116.678 30.4839C116.018 29.9995 115.137 29.7646 114.006 29.7646H110.366V39.8938H112.744V36.0183H113.493L115.621 39.8938H118.381ZM115.401 32.8914C115.401 33.4199 115.195 33.6988 114.887 33.919C114.594 34.1392 114.212 34.198 113.669 34.198H112.729V31.5996H113.669C114.212 31.5996 114.594 31.6436 114.887 31.8638C115.195 32.084 115.401 32.3776 115.401 32.8914Z" fill="white"/>
<path d="M90.3031 48.6145L88.6761 46.0791C89.279 45.9635 89.9727 45.5175 89.9727 44.5182C89.9727 43.3868 89.0643 42.916 88.0485 42.916H86.438V48.6145H87.2391V46.1617H87.8503L89.3368 48.6145H90.3031ZM89.1469 44.5347C89.1469 44.8816 89.0395 45.1128 88.7835 45.3028C88.5275 45.4845 88.2219 45.501 87.8255 45.501H87.2391V43.5685H87.8255C88.2219 43.5685 88.5275 43.585 88.7835 43.7749C89.0395 43.9566 89.1469 44.1961 89.1469 44.5347Z" fill="white"/>
<path d="M94.7962 48.6145V47.9373H92.1947V45.9635H94.5897V45.2862H92.1947V43.585H94.7301V42.916H91.3936V48.6145H94.7962Z" fill="white"/>
<path d="M101.009 48.6144L98.6799 42.8994H97.9779L95.6572 48.6144H96.4996L97.086 47.1278H99.5305L100.117 48.6144H101.009ZM99.3075 46.4589H97.3089L98.3082 43.8987L99.3075 46.4589Z" fill="white"/>
<path d="M106.884 45.7652C106.884 43.9979 105.579 42.916 103.869 42.916H102.151V48.6145H103.869C105.579 48.6145 106.884 47.5326 106.884 45.7652ZM106.066 45.7652C106.066 47.0784 105.157 47.9207 103.869 47.9207H102.952V43.6015H103.869C105.157 43.6015 106.066 44.4521 106.066 45.7652Z" fill="white"/>
<path d="M112.107 42.916H111.207L109.72 45.534L108.242 42.916H107.342L109.324 46.2277V48.6145H110.125V46.2277L112.107 42.916Z" fill="white"/>
<path d="M101.96 16.0563L100.209 15.79L99.4266 14.1285C99.4052 14.0831 99.3698 14.0462 99.3265 14.0238C99.2176 13.9674 99.0852 14.0146 99.0307 14.1285L98.2482 15.79L96.4972 16.0563C96.4489 16.0638 96.405 16.0875 96.3709 16.1237C96.3301 16.1677 96.3076 16.2266 96.3086 16.2879C96.3093 16.3493 96.3331 16.4078 96.3754 16.4507L97.6419 17.7438L97.3427 19.5699C97.3356 19.6124 97.34 19.656 97.3557 19.6961C97.371 19.7362 97.3969 19.7706 97.4302 19.7961C97.4636 19.8213 97.5031 19.8365 97.5439 19.8394C97.5851 19.8426 97.6263 19.8334 97.6627 19.8135L99.2285 18.9513L100.795 19.8135C100.837 19.8373 100.887 19.8451 100.935 19.8365C101.054 19.8149 101.135 19.6958 101.115 19.5699L100.815 17.7438L102.082 16.4507C102.116 16.4152 102.139 16.3691 102.146 16.3184C102.165 16.1922 102.081 16.0751 101.96 16.0563Z" fill="#F3D153"/>
<path d="M114.269 18.8974L112.518 18.6307L111.735 16.9695C111.714 16.9237 111.679 16.8868 111.636 16.8645C111.527 16.8085 111.394 16.8553 111.34 16.9695L110.557 18.6307L108.807 18.8974C108.758 18.9045 108.714 18.9283 108.68 18.9644C108.639 19.0084 108.617 19.0676 108.618 19.129C108.619 19.1903 108.643 19.2489 108.684 19.2914L109.951 20.5849L109.652 22.411C109.645 22.4532 109.649 22.4971 109.665 22.5369C109.68 22.5769 109.706 22.6113 109.74 22.6369C109.773 22.6621 109.812 22.6773 109.853 22.6801C109.894 22.6833 109.936 22.6745 109.972 22.6543L111.538 21.7921L113.104 22.6543C113.146 22.678 113.196 22.6858 113.244 22.6773C113.363 22.6557 113.444 22.5365 113.423 22.411L113.124 20.5849L114.391 19.2914C114.425 19.2563 114.448 19.2098 114.455 19.1595C114.474 19.0329 114.39 18.9162 114.269 18.8974Z" fill="#F3D153"/>
<path d="M89.6512 18.8974L87.9006 18.6307L87.1178 16.9695C87.0967 16.9237 87.0613 16.8868 87.0181 16.8645C86.9091 16.8085 86.7767 16.8553 86.7223 16.9695L85.9394 18.6307L84.1889 18.8974C84.1406 18.9045 84.0967 18.9283 84.0626 18.9644C84.0218 19.0084 83.9993 19.0676 84 19.129C84.001 19.1903 84.0248 19.2489 84.0667 19.2914L85.3336 20.5849L85.0344 22.411C85.0272 22.4532 85.0317 22.4971 85.0473 22.5369C85.0626 22.5769 85.0885 22.6113 85.1219 22.6369C85.1552 22.6621 85.1947 22.6773 85.2355 22.6801C85.2767 22.6833 85.3179 22.6745 85.3543 22.6543L86.92 21.7921L88.4857 22.6543C88.5286 22.678 88.5783 22.6858 88.626 22.6773C88.7458 22.6557 88.8265 22.5365 88.8057 22.411L88.5065 20.5849L89.7734 19.2914C89.8078 19.2563 89.8306 19.2098 89.8374 19.1595C89.8561 19.0329 89.772 18.9162 89.6512 18.8974Z" fill="#F3D153"/>
<path d="M113.322 54.6106L111.571 54.3443L110.789 52.6827C110.767 52.6373 110.732 52.6004 110.689 52.5781C110.58 52.5217 110.447 52.5685 110.393 52.6827L109.61 54.3443L107.86 54.6106C107.812 54.6177 107.767 54.6418 107.734 54.6776C107.693 54.7216 107.67 54.7808 107.671 54.8422C107.672 54.9035 107.696 54.9621 107.738 55.005L109.004 56.298L108.705 58.1241C108.698 58.1667 108.703 58.2103 108.718 58.2504C108.734 58.2901 108.759 58.3249 108.793 58.3501C108.826 58.3756 108.865 58.3905 108.906 58.3937C108.948 58.3965 108.989 58.3877 109.025 58.3674L110.591 57.5053L112.157 58.3674C112.2 58.3912 112.249 58.3994 112.297 58.3905C112.417 58.3689 112.497 58.2497 112.477 58.1241L112.178 56.298L113.444 55.005C113.478 54.9695 113.501 54.9234 113.508 54.8727C113.527 54.7464 113.443 54.6294 113.322 54.6106Z" fill="#F3D153"/>
<path d="M89.6512 54.6106L87.9006 54.3443L87.1178 52.6827C87.0967 52.6373 87.0613 52.6004 87.0181 52.5781C86.9091 52.5217 86.7767 52.5685 86.7223 52.6827L85.9394 54.3443L84.1889 54.6106C84.1406 54.6177 84.0967 54.6418 84.0626 54.6776C84.0218 54.7216 83.9993 54.7808 84 54.8422C84.001 54.9035 84.0248 54.9621 84.0667 55.005L85.3336 56.298L85.0344 58.1241C85.0272 58.1667 85.0317 58.2103 85.0473 58.2504C85.0626 58.2901 85.0885 58.3249 85.1219 58.3501C85.1552 58.3756 85.1947 58.3905 85.2355 58.3937C85.2767 58.3965 85.3179 58.3877 85.3543 58.3674L86.92 57.5053L88.4857 58.3674C88.5286 58.3912 88.5783 58.3994 88.626 58.3905C88.7458 58.3689 88.8265 58.2497 88.8057 58.1241L88.5065 56.298L89.7734 55.005C89.8078 54.9695 89.8306 54.9234 89.8374 54.8727C89.8561 54.7464 89.772 54.6294 89.6512 54.6106Z" fill="#F3D153"/>
<path d="M101.96 57.4513L100.209 57.185L99.4266 55.5235C99.4052 55.4781 99.3698 55.4412 99.3265 55.4189C99.2176 55.3625 99.0852 55.4093 99.0307 55.5235L98.2482 57.185L96.4972 57.4513C96.4489 57.4588 96.405 57.4826 96.3709 57.5187C96.3301 57.5627 96.3076 57.6216 96.3086 57.6829C96.3093 57.7443 96.3331 57.8028 96.3754 57.8457L97.6419 59.1388L97.3427 60.9648C97.3356 61.0074 97.34 61.051 97.3557 61.0911C97.371 61.1312 97.3969 61.1656 97.4302 61.1911C97.4636 61.2163 97.5031 61.2312 97.5439 61.2344C97.5851 61.2375 97.6263 61.2283 97.6627 61.2081L99.2285 60.346L100.795 61.2081C100.837 61.2322 100.887 61.24 100.935 61.2315C101.054 61.2099 101.135 61.0907 101.115 60.9648L100.815 59.1388L102.082 57.8457C102.116 57.8103 102.139 57.7641 102.146 57.7134C102.165 57.5872 102.081 57.4701 101.96 57.4513Z" fill="#F3D153"/>
</g>
<path d="M0 1H180V-1H0V1Z" fill="white" fill-opacity="0.3" mask="url(#path-1-inside-1_4_12870)"/>
<defs>
<clipPath id="clip0_4_12870">
<rect width="54" height="54" fill="white" transform="translate(0 11)"/>
</clipPath>
<clipPath id="clip1_4_12870">
<rect width="54" height="54" fill="white" transform="translate(72 11)"/>
</clipPath>
</defs>
</svg>
