<svg width="40" height="40" viewBox="0 0 40 40" fill="none" xmlns="http://www.w3.org/2000/svg">
<rect width="40" height="40" rx="20" fill="#FFE5F8"/>
<g clip-path="url(#clip0_4_15418)">
<path d="M29 15V25C29 28 27.5 30 24 30H16C12.5 30 11 28 11 25V15C11 12 12.5 10 16 10H24C27.5 10 29 12 29 15Z" stroke="#FF4ECD" stroke-width="1.5" stroke-miterlimit="10" stroke-linecap="round" stroke-linejoin="round"/>
<path d="M22.5 12.5V14.5C22.5 15.6 23.4 16.5 24.5 16.5H26.5M18 21L16 23L18 25M22 21L24 23L22 25" stroke="#FF4ECD" stroke-width="1.5" stroke-miterlimit="10" stroke-linecap="round" stroke-linejoin="round"/>
</g>
<defs>
<clipPath id="clip0_4_15418">
<rect width="24" height="24" fill="white" transform="translate(8 8)"/>
</clipPath>
</defs>
</svg>
