<svg width="268" height="70" viewBox="0 0 268 70" fill="none" xmlns="http://www.w3.org/2000/svg">
<g clip-path="url(#clip0_4_15636)">
<g clip-path="url(#clip1_4_15636)">
<path d="M0 24.4263H3.38947V42.283H12.7587V45.4226H0V24.4263ZM16.0931 24.4263C16.3681 24.4226 16.6412 24.4732 16.8967 24.5751C17.1522 24.677 17.3851 24.8282 17.5821 25.0202C17.7791 25.2121 17.9364 25.4409 18.045 25.6936C18.1536 25.9464 18.2113 26.218 18.2149 26.493C18.2149 27.0558 17.9914 27.5955 17.5935 27.9934C17.1955 28.3913 16.6558 28.6149 16.0931 28.6149C15.5303 28.6149 14.9906 28.3913 14.5927 27.9934C14.1948 27.5955 13.9712 27.0558 13.9712 26.493C13.9724 26.2173 14.0284 25.9445 14.1362 25.6907C14.2439 25.4369 14.4011 25.207 14.5987 25.0146C14.7962 24.8222 15.0301 24.6711 15.2867 24.5701C15.5433 24.4691 15.8174 24.4202 16.0931 24.4263ZM14.4397 30.2959H17.6914V45.4226H14.4397V30.2959ZM19.5928 30.2959H22.8445V32.3901C23.8071 30.7919 25.4605 29.8825 27.6375 29.8825C31.1647 29.8825 33.3693 32.6381 33.3693 37.0196V45.4226H30.1176V37.2952C30.1176 34.4569 28.8775 32.8586 26.6381 32.8586C24.1874 32.8586 22.8371 34.5395 22.8371 37.5708V45.4226H19.5854L19.5928 30.2959ZM35.0778 24.4263H38.3295V37.7086L44.3919 30.2959H48.4703L41.9945 37.8739L48.4703 45.4226H44.3919L38.3295 38.0392V45.4226H35.0778V24.4263ZM49.7379 26.4471H53.0447V30.305H56.9026V33.0056H53.0447V40.8022C53.0447 41.7961 53.651 42.4024 54.5879 42.4024H56.7667V45.4318H54.147C51.3086 45.4318 49.7379 43.7508 49.7379 40.7765V26.4471ZM58.3356 30.305H61.5873V32.1789C62.3864 30.7459 63.7367 29.8917 65.3901 29.8917C65.7717 29.8743 66.1536 29.9209 66.5199 30.0295V33.0607C66.122 32.9732 65.7146 32.9362 65.3074 32.9504C62.91 32.9504 61.5873 34.9713 61.5873 38.4342V45.4318H58.3356V30.305ZM74.1237 29.8917C77.7061 29.8917 81.5916 32.0686 81.5916 38.2138V38.6547H69.9351C70.1849 41.3534 71.7538 42.8414 74.3717 42.8414C76.2456 42.8414 77.8438 41.8218 78.2021 40.4183H81.5089C81.1782 43.4477 78.0367 45.8451 74.3717 45.8451C69.6871 45.8451 66.7404 42.7863 66.7404 37.8555C66.7404 33.4648 69.5787 29.8825 74.1237 29.8825V29.8917ZM78.1194 35.9541C77.651 34.0803 76.1905 32.8953 74.1237 32.8953C72.1396 32.8953 70.7361 34.1078 70.1849 35.9541H78.1194ZM90.4097 29.8917C93.992 29.8917 97.8775 32.0686 97.8775 38.2138V38.6547H86.2211C86.4691 41.3534 88.0398 42.8414 90.6577 42.8414C92.5315 42.8414 94.1298 41.8218 94.4881 40.4183H97.7949C97.4642 43.4477 94.3227 45.8451 90.6577 45.8451C85.9731 45.8451 83.0245 42.7863 83.0245 37.8555C83.0245 33.4648 85.8628 29.8825 90.4097 29.8825V29.8917ZM94.4054 35.9541C93.9369 34.0803 92.4764 32.8953 90.4097 32.8953C88.4256 32.8953 87.0202 34.1078 86.4691 35.9541H94.4054Z" fill="black"/>
<path d="M98.6768 29.8365H104.491L100.358 25.8959L102.645 23.5444L106.586 27.5953V21.8359H110.003V27.5953L113.943 23.5536L116.229 25.8959L112.097 29.8274H117.909V33.079H112.064L116.223 37.1207L113.943 39.417L108.294 33.7404L102.645 39.417L100.358 37.1298L104.519 33.0882H98.6768V29.8365ZM106.576 37.7453H109.993V45.4611H106.576V37.7453Z" fill="black"/>
<path d="M133 21.836L132 21.8359V45.8358L133 45.8359V21.836Z" fill="black"/>
<path d="M146.84 42.8359H148.96V30.0759L153.88 42.8359H156.42L161.32 30.1159V42.8359H163.44V27.5959H160.14L155.16 40.7759L150.16 27.5959H146.84V42.8359ZM169.034 43.1359C170.794 43.1359 172.274 42.3559 173.234 41.0559V42.8359H175.274V36.5759C175.274 33.4559 173.294 31.5759 170.274 31.5759C167.554 31.5759 165.634 33.2559 165.314 35.2559H167.414C167.694 34.0759 168.714 33.4159 170.114 33.4159C172.094 33.4159 173.174 34.4959 173.234 36.3959H169.614C166.714 36.3959 164.994 37.6359 164.994 39.8759C164.994 41.8959 166.534 43.1359 169.034 43.1359ZM167.014 39.7159C167.014 38.6559 167.894 38.0759 169.994 38.0759H173.174C172.834 40.1359 171.074 41.3359 169.294 41.3359C167.914 41.3359 167.014 40.6959 167.014 39.7159ZM177.443 42.8359H179.483V37.5359C179.483 35.0759 180.523 33.4959 182.483 33.4959C183.103 33.4959 183.663 33.6959 183.923 33.9359V31.8759C183.523 31.6759 183.143 31.5759 182.463 31.5759C181.223 31.5759 180.103 32.2959 179.483 33.4159V31.8759H177.443V42.8359ZM185.27 42.8359H187.31V40.0359L189.65 37.6559L193.25 42.8359H195.61L190.97 36.3159L195.37 31.8759H192.71L187.31 37.3959V27.5959H185.27V42.8359ZM201.263 43.1359C203.863 43.1359 206.023 41.4159 206.363 39.2359H204.283C203.923 40.4559 202.703 41.2759 201.263 41.2759C199.203 41.2759 197.883 39.9559 197.723 37.8159H206.483V37.4359C206.483 33.4559 203.903 31.5759 201.083 31.5759C197.843 31.5759 195.743 34.0959 195.743 37.3559C195.743 40.8559 197.943 43.1359 201.263 43.1359ZM197.843 36.1159C198.243 34.4959 199.443 33.4159 201.083 33.4159C202.803 33.4159 204.023 34.4759 204.283 36.1159H197.843ZM211.65 43.1359C212.47 43.1359 213.27 42.8159 213.65 42.3359V40.6559C213.27 41.0159 212.75 41.2559 212.17 41.2559C211.27 41.2559 210.91 40.7759 210.91 39.6159V33.5759H213.77V31.8759H210.91V29.1159H208.87V31.8759H207.03V33.5759H208.87V40.0759C208.87 41.9959 209.91 43.1359 211.65 43.1359ZM220.918 43.1359C224.018 43.1359 226.118 40.6359 226.118 37.3359C226.118 34.0359 224.018 31.5759 220.918 31.5759C219.378 31.5759 218.118 32.1959 217.218 33.2359V31.8759H215.178V47.5959H217.218V41.4559C218.118 42.4959 219.378 43.1359 220.918 43.1359ZM217.218 37.3359C217.218 35.0359 218.598 33.3959 220.658 33.3959C222.738 33.3959 224.178 35.0959 224.178 37.3359C224.178 39.5959 222.738 41.2959 220.658 41.2959C218.598 41.2959 217.218 39.6559 217.218 37.3359ZM227.907 42.8359H229.947V27.5959H227.907V42.8359ZM235.837 43.1359C237.597 43.1359 239.077 42.3559 240.037 41.0559V42.8359H242.077V36.5759C242.077 33.4559 240.097 31.5759 237.077 31.5759C234.357 31.5759 232.437 33.2559 232.117 35.2559H234.217C234.497 34.0759 235.517 33.4159 236.917 33.4159C238.897 33.4159 239.977 34.4959 240.037 36.3959H236.417C233.517 36.3959 231.797 37.6359 231.797 39.8759C231.797 41.8959 233.337 43.1359 235.837 43.1359ZM233.817 39.7159C233.817 38.6559 234.697 38.0759 236.797 38.0759H239.977C239.637 40.1359 237.877 41.3359 236.097 41.3359C234.717 41.3359 233.817 40.6959 233.817 39.7159ZM249.168 43.1359C251.808 43.1359 253.828 41.4759 254.308 39.0559H252.228C251.888 40.4359 250.668 41.2759 249.168 41.2759C247.148 41.2759 245.648 39.6559 245.648 37.3359C245.648 35.0559 247.128 33.4159 249.168 33.4159C250.628 33.4159 251.848 34.2359 252.208 35.5759H254.308C253.828 33.1359 251.748 31.5759 249.168 31.5759C245.948 31.5759 243.688 34.0759 243.688 37.3359C243.688 40.7559 246.048 43.1359 249.168 43.1359ZM260.981 43.1359C263.581 43.1359 265.741 41.4159 266.081 39.2359H264.001C263.641 40.4559 262.421 41.2759 260.981 41.2759C258.921 41.2759 257.601 39.9559 257.441 37.8159H266.201V37.4359C266.201 33.4559 263.621 31.5759 260.801 31.5759C257.561 31.5759 255.461 34.0959 255.461 37.3559C255.461 40.8559 257.661 43.1359 260.981 43.1359ZM257.561 36.1159C257.961 34.4959 259.161 33.4159 260.801 33.4159C262.521 33.4159 263.741 34.4759 264.001 36.1159H257.561Z" fill="black"/>
</g>
</g>
<defs>
<clipPath id="clip0_4_15636">
<rect width="268" height="69.6719" fill="white"/>
</clipPath>
<clipPath id="clip1_4_15636">
<rect width="268" height="26" fill="white" transform="translate(0 21.8359)"/>
</clipPath>
</defs>
</svg>
