<svg width="56" height="56" viewBox="0 0 56 56" fill="none" xmlns="http://www.w3.org/2000/svg">
<g clip-path="url(#clip0_4_15803)">
<g clip-path="url(#clip1_4_15803)">
<g clip-path="url(#clip2_4_15803)">
<path d="M0 9.33333C0 4.17867 4.17867 0 9.33333 0H46.6667C51.8214 0 56 4.17867 56 9.33333V46.6667C56 51.8214 51.8214 56 46.6667 56H9.33333C4.17867 56 0 51.8214 0 46.6667V9.33333Z" fill="#02A95C"/>
<path fill-rule="evenodd" clip-rule="evenodd" d="M27.9929 29.6015C33.6802 29.6015 38.6416 32.5874 41.299 37.0223H14.6875C17.3447 32.5874 22.3062 29.6015 27.9929 29.6015ZM43.2771 22.4853C44.263 21.5332 45.8755 21.5332 46.8609 22.4853C47.8466 23.4371 47.8466 24.9946 46.8609 25.9467L43.0414 29.6358C42.056 30.5875 40.4434 30.5875 39.4576 29.6358L39.3708 29.5476C38.4732 28.5898 38.5022 27.0973 39.4576 26.1744L43.2771 22.4853ZM9.23051 22.4014C10.2222 21.5341 11.7675 21.562 12.723 22.4853L16.543 26.1744C17.5282 27.1261 17.5282 28.6837 16.543 29.6358C15.5571 30.5875 13.9446 30.5875 12.9592 29.6358L9.13921 25.9467C8.1539 24.9946 8.1539 23.4371 9.13921 22.4853L9.23051 22.4014ZM27.961 15.8668L28.0705 15.869C29.4142 15.9249 30.495 17.0037 30.495 18.3148V23.5316C30.495 24.878 29.3551 25.9795 27.961 25.9795C26.5674 25.9795 25.427 24.878 25.427 23.5316V18.3148C25.427 16.9684 26.5674 15.8668 27.961 15.8668Z" fill="white"/>
</g>
</g>
</g>
<defs>
<clipPath id="clip0_4_15803">
<rect width="56" height="56" rx="10" fill="white"/>
</clipPath>
<clipPath id="clip1_4_15803">
<rect width="56" height="56" fill="white"/>
</clipPath>
<clipPath id="clip2_4_15803">
<rect width="56" height="56" fill="white"/>
</clipPath>
</defs>
</svg>
