<svg width="18" height="18" viewBox="0 0 18 18" fill="none" xmlns="http://www.w3.org/2000/svg">
<path d="M5.6464 4.37405L8.3986 7.12625L7.126 8.39885L4.3738 5.64665L2.7601 7.26035C2.68144 7.33904 2.5812 7.39263 2.47207 7.41434C2.36294 7.43605 2.24983 7.42491 2.14703 7.38233C2.04423 7.33975 1.95638 7.26763 1.89457 7.17511C1.83276 7.08259 1.79978 6.97382 1.7998 6.86255V2.36255C1.7998 2.21336 1.85907 2.07029 1.96456 1.9648C2.07005 1.85931 2.21312 1.80005 2.3623 1.80005H6.8623C6.97357 1.80003 7.08235 1.83301 7.17487 1.89481C7.26739 1.95662 7.3395 2.04448 7.38209 2.14728C7.42467 2.25007 7.43581 2.36319 7.4141 2.47232C7.39238 2.58144 7.33879 2.68168 7.2601 2.76035L5.6464 4.37405ZM15.8524 10.62C15.7495 10.5778 15.6365 10.5669 15.5275 10.5886C15.4184 10.6104 15.3182 10.6639 15.2395 10.7424L13.6258 12.3534L10.8736 9.60125L9.601 10.8738L12.3532 13.626L10.7395 15.2397C10.6608 15.3184 10.6072 15.4187 10.5855 15.5278C10.5638 15.6369 10.5749 15.75 10.6175 15.8528C10.6601 15.9556 10.7322 16.0435 10.8247 16.1053C10.9173 16.1671 11.026 16.2001 11.1373 16.2H15.6373C15.7112 16.2002 15.7844 16.1857 15.8527 16.1575C15.921 16.1292 15.9831 16.0878 16.0353 16.0356C16.0876 15.9833 16.129 15.9212 16.1572 15.8529C16.1855 15.7846 16.1999 15.7115 16.1998 15.6375V11.1375C16.1992 11.0267 16.166 10.9184 16.1042 10.8264C16.0424 10.7343 15.9548 10.6626 15.8524 10.62Z" fill="white"/>
</svg>
