<svg width="15" height="15" viewBox="0 0 15 15" fill="none" xmlns="http://www.w3.org/2000/svg">
<path d="M14.9999 10.8747V13.1238C14.9996 13.6206 14.8022 14.0969 14.451 14.4483C14.0998 14.7997 13.6235 14.9974 13.1267 14.998H7.77183C7.62418 14.998 7.47982 14.9544 7.35684 14.8727C7.23387 14.791 7.13776 14.6748 7.08056 14.5387C7.02337 14.4026 7.00765 14.2526 7.03536 14.1076C7.06307 13.9625 7.13299 13.8289 7.23634 13.7235L11.6402 9.22538C11.7815 9.08323 11.9731 9.00243 12.1736 9.00048H13.1267C13.6235 9.00104 14.0998 9.19872 14.451 9.55011C14.8022 9.90151 14.9996 10.3779 14.9999 10.8747Z" fill="#0070F3"/>
<path d="M12.2772 6.96884L10.2423 9.0037L8.40343 10.8383C8.2992 10.9447 8.16564 11.0176 8.01979 11.0478C7.87395 11.0779 7.72242 11.064 7.58454 11.0077C7.44665 10.9514 7.32866 10.8553 7.24562 10.7316C7.16257 10.608 7.11823 10.4624 7.11825 10.3135V3.9476C7.11803 3.74818 7.19476 3.55637 7.33245 3.41211L8.02537 2.72561C8.1994 2.55095 8.4062 2.41236 8.63391 2.31779C8.86162 2.22323 9.10576 2.17455 9.35232 2.17455C9.59888 2.17455 9.84302 2.22323 10.0707 2.31779C10.2984 2.41236 10.5052 2.55095 10.6793 2.72561L12.2697 4.31602C12.4454 4.4891 12.5852 4.69529 12.6808 4.92269C12.7764 5.15009 12.8259 5.39419 12.8266 5.64087C12.8273 5.88754 12.7791 6.13191 12.6848 6.35985C12.5905 6.58779 12.452 6.79477 12.2772 6.96884Z" fill="#0070F3"/>
<path d="M4.12752 0.00317376H1.87739C1.62735 -0.0118134 1.37698 0.0263974 1.1428 0.115284C0.908619 0.204171 0.695951 0.341713 0.518832 0.518832C0.341713 0.695951 0.204171 0.908619 0.115284 1.1428C0.0263974 1.37698 -0.0118134 1.62735 0.00317376 1.87739V11.9982C0.00419417 12.1995 0.0242754 12.4003 0.0631487 12.5979C0.0856392 12.6954 0.10813 12.7928 0.138117 12.8903C0.168105 12.9877 0.213086 13.1152 0.258067 13.2201C0.26232 13.2241 0.264988 13.2294 0.265564 13.2351C0.273061 13.2351 0.273061 13.2351 0.265564 13.2426C0.369111 13.4535 0.492092 13.6543 0.63291 13.8424C0.715376 13.9398 0.797841 14.0298 0.880307 14.1198C0.963064 14.2075 1.05337 14.2878 1.15019 14.3597L1.15769 14.3672C1.34576 14.508 1.54654 14.631 1.75744 14.7345C1.76494 14.727 1.76494 14.727 1.76494 14.7345C1.87687 14.7848 1.99209 14.8273 2.10979 14.862C2.20725 14.8919 2.30471 14.9144 2.40217 14.9369C2.59975 14.9758 2.80056 14.9959 3.00192 14.9969C3.31243 14.9984 3.6212 14.9503 3.91654 14.8545C3.999 14.8245 4.08147 14.7945 4.16393 14.757C4.43458 14.6493 4.68541 14.4973 4.90612 14.3072C4.98123 14.2491 5.05276 14.1865 5.12032 14.1198L5.15031 14.0898C5.69486 13.5296 5.99986 12.7794 6.00066 11.9982V1.87739C6.01564 1.62745 5.97745 1.37718 5.88863 1.14307C5.7998 0.908969 5.66236 0.696355 5.48536 0.519254C5.30836 0.342152 5.09582 0.204587 4.86177 0.115629C4.62772 0.0266721 4.37747 -0.0116557 4.12752 0.00317376ZM3.00192 13.1248C2.77951 13.1248 2.56209 13.0589 2.37716 12.9353C2.19224 12.8117 2.0481 12.6361 1.96299 12.4306C1.87788 12.2252 1.85561 11.999 1.899 11.7809C1.94239 11.5628 2.04949 11.3624 2.20676 11.2051C2.36402 11.0479 2.5644 10.9408 2.78253 10.8974C3.00067 10.854 3.22678 10.8763 3.43226 10.9614C3.63774 11.0465 3.81337 11.1906 3.93693 11.3755C4.0605 11.5605 4.12645 11.7779 4.12645 12.0003C4.12659 12.148 4.0976 12.2943 4.04114 12.4308C3.98467 12.5673 3.90185 12.6913 3.7974 12.7958C3.69294 12.9002 3.56892 12.983 3.43242 13.0395C3.29593 13.096 3.14963 13.125 3.00192 13.1248Z" fill="#0070F3"/>
</svg>
