<svg width="175" height="32" viewBox="0 0 175 32" fill="none" xmlns="http://www.w3.org/2000/svg">
<g clip-path="url(#clip0_2_9868)">
<path d="M44.2184 6.33055H38.417C37.3601 6.33055 36.4824 7.20598 36.4824 8.26512V23.7349C36.4824 24.7918 37.3579 25.6695 38.417 25.6695H44.2184C49.5663 25.6695 53.8868 21.349 53.8868 16.0011C53.8868 10.6533 49.5663 6.33055 44.2184 6.33055ZM44.2184 22.1473H40.0023V9.85042H44.2184C47.609 9.85042 50.3669 12.6083 50.3669 15.9989C50.3669 19.3895 47.609 22.1473 44.2184 22.1473Z" fill="white"/>
<path d="M63.8315 11.6058C62.541 11.6058 61.3322 11.9642 60.3161 12.5674V8.09048C60.3161 7.12887 59.5201 6.33281 58.5585 6.33281C57.5968 6.33281 56.8008 7.12887 56.8008 8.09048V23.9118C56.8008 24.8734 57.5968 25.6695 58.5585 25.6695C59.5201 25.6695 60.3161 24.8734 60.3161 23.9118V18.6388C60.3161 16.6883 61.881 15.1234 63.8315 15.1234C65.7819 15.1234 67.3468 16.6883 67.3468 18.6388V23.9118C67.3468 24.8734 68.1429 25.6695 69.1045 25.6695C70.0661 25.6695 70.8621 24.8734 70.8621 23.9118V18.6365C70.8621 14.7651 67.7029 11.6058 63.8315 11.6058Z" fill="white"/>
<path d="M76.0252 11.6081C75.0636 11.6081 74.2676 12.4041 74.2676 13.3658V23.9118C74.2676 24.8734 75.0636 25.6695 76.0252 25.6695C76.9869 25.6695 77.7829 24.8734 77.7829 23.9118V13.3658C77.7829 12.4041 76.9869 11.6081 76.0252 11.6081Z" fill="white"/>
<path d="M99.2098 6.33281C98.2482 6.33281 97.4522 7.12887 97.4522 8.09048V19.682L92.5352 14.7651C92.2064 14.409 91.7392 14.2435 91.2992 14.2435C90.8592 14.2435 90.392 14.409 90.0631 14.7651L85.1462 19.682V8.09048C85.1462 7.12887 84.3501 6.33281 83.3885 6.33281C82.4269 6.33281 81.6309 7.12887 81.6309 8.09048V23.9118C81.6309 24.8734 82.4269 25.6695 83.3885 25.6695C83.8557 25.6695 84.2957 25.4767 84.6246 25.1478L91.2969 18.4732L97.9715 25.1478C98.3004 25.4767 98.7404 25.6695 99.2076 25.6695C100.169 25.6695 100.965 24.8734 100.965 23.9118H100.968V8.09048C100.968 7.12887 100.171 6.33281 99.2098 6.33281Z" fill="white"/>
<path d="M106.568 11.6081C105.607 11.6081 104.811 12.4041 104.811 13.3658V23.9118C104.811 24.8734 105.607 25.6695 106.568 25.6695C107.53 25.6695 108.326 24.8734 108.326 23.9118V13.3658C108.326 12.4041 107.53 11.6081 106.568 11.6081Z" fill="white"/>
<path d="M119.643 16.8788H116.128C115.631 16.8788 115.248 16.4956 115.248 15.9989C115.248 15.5022 115.633 15.1189 116.128 15.1189H121.401C122.362 15.1189 123.158 14.3228 123.158 13.3612C123.158 12.3996 122.362 11.6036 121.401 11.6036H116.128C113.71 11.6036 111.732 13.5812 111.732 15.9989C111.732 18.4165 113.71 20.3942 116.128 20.3942H119.643C120.137 20.3942 120.521 20.7775 120.521 21.2741C120.521 21.7708 120.137 22.1541 119.643 22.1541H113.49C112.528 22.1541 111.732 22.9502 111.732 23.9118C111.732 24.8734 112.528 25.6695 113.49 25.6695H119.643C122.058 25.6695 124.036 23.6918 124.036 21.2741C124.036 18.8565 122.061 16.8788 119.643 16.8788Z" fill="white"/>
<path d="M133.595 11.6081C129.721 11.6081 126.564 14.7674 126.564 18.6388C126.564 22.5102 129.721 25.6695 133.595 25.6695H135.351C136.312 25.6695 137.108 24.8734 137.108 23.9118C137.108 22.9502 136.312 22.1541 135.351 22.1541H133.593C132.275 22.1541 131.15 21.4669 130.545 20.3964H138.868C139.83 20.3964 140.626 19.6004 140.626 18.6388C140.626 14.7674 137.467 11.6081 133.595 11.6081ZM130.545 16.8788C131.15 15.8356 132.275 15.1212 133.593 15.1212C134.883 15.1212 136.038 15.8356 136.641 16.8788H130.545Z" fill="white"/>
<path d="M76.0265 10.2881C77.1187 10.2881 78.0042 9.40271 78.0042 8.31048C78.0042 7.21824 77.1187 6.33281 76.0265 6.33281C74.9343 6.33281 74.0488 7.21824 74.0488 8.31048C74.0488 9.40271 74.9343 10.2881 76.0265 10.2881Z" fill="white"/>
<path d="M106.569 10.2881C107.662 10.2881 108.547 9.40271 108.547 8.31048C108.547 7.21824 107.662 6.33281 106.569 6.33281C105.477 6.33281 104.592 7.21824 104.592 8.31048C104.592 9.40271 105.477 10.2881 106.569 10.2881Z" fill="white"/>
<path d="M22.1325 0.293231H2.24473C1.13116 0.293231 0.228516 1.19588 0.228516 2.30945V24.2815C0.228516 25.0979 0.720663 25.8327 1.47363 26.1435C2.22432 26.4542 3.09295 26.2818 3.67128 25.7057L13.3804 15.9966C14.1674 15.2096 14.1674 13.9328 13.3804 13.1458C12.5934 12.3588 11.3166 12.3588 10.5296 13.1458L4.26095 19.4144V4.32567H22.1348C25.1534 4.32567 27.6074 6.78187 27.6074 9.79826V22.1972C27.6074 25.2159 25.1511 27.6698 22.1348 27.6698H12.5186L18.7872 21.4012C19.5742 20.6142 19.5742 19.3373 18.7872 18.5503C18.0003 17.7633 16.7234 17.7633 15.9364 18.5503L6.22501 28.2617C5.64894 28.8378 5.47658 29.7064 5.78729 30.4594C6.10027 31.2124 6.83509 31.7045 7.64929 31.7045H22.1302C27.3715 31.7045 31.6353 27.4407 31.6353 22.1995V9.80053C31.6398 4.55927 27.376 0.293231 22.1325 0.293231Z" fill="white"/>
<path d="M22.048 17.3075C23.1616 17.3075 24.0643 16.4048 24.0643 15.2913V9.88444C24.0643 8.77087 23.1616 7.86822 22.048 7.86822H16.6412C15.5276 7.86822 14.625 8.77087 14.625 9.88444C14.625 10.998 15.5276 11.9007 16.6412 11.9007H20.0318V15.2913C20.0318 16.4048 20.9345 17.3075 22.048 17.3075Z" fill="white"/>
<path d="M150.377 21.2197C150.778 21.0859 151.112 20.8183 151.345 20.5166C151.579 20.1833 151.713 19.8158 151.713 19.3464C151.713 18.6773 151.479 18.1081 151.012 17.7407C150.511 17.3733 149.844 17.1714 148.975 17.1714H146.136C145.7 17.1714 145.467 17.405 145.467 17.8405V24.9324C145.467 25.3678 145.703 25.6014 146.136 25.6014V25.5697H149.075C149.944 25.5697 150.645 25.3678 151.146 24.9664C151.647 24.565 151.915 23.9957 151.915 23.2269C151.915 22.6916 151.781 22.2584 151.513 21.9228C151.246 21.5871 150.844 21.3535 150.377 21.2197ZM146.637 18.2079H148.773C149.944 18.2079 150.511 18.6433 150.511 19.546C150.511 20.4146 149.91 20.8841 148.773 20.8841H146.637V18.2079ZM148.941 24.6307H146.637V21.8185H148.941C150.112 21.8185 150.679 22.2879 150.679 23.2246C150.679 24.1613 150.109 24.6307 148.941 24.6307Z" fill="white"/>
<path d="M158.173 24.5944H154.333V21.8185H157.907C158.241 21.8185 158.408 21.6529 158.408 21.3172C158.408 20.9838 158.241 20.816 157.907 20.816H154.333V18.1738H158.141C158.474 18.1738 158.642 18.0083 158.642 17.6726C158.642 17.3392 158.474 17.1714 158.141 17.1714H153.8C153.364 17.1714 153.131 17.405 153.131 17.8405V24.9324C153.131 25.3678 153.367 25.6014 153.8 25.6014C153.8 25.6014 158.175 25.6014 158.173 25.5969C158.506 25.5969 158.674 25.4313 158.674 25.0957C158.674 24.7623 158.506 24.5944 158.173 24.5944Z" fill="white"/>
<path d="M167.138 17.7407C167.138 17.4073 166.938 17.2394 166.571 17.2394H160.293C159.926 17.2394 159.758 17.405 159.758 17.7407C159.758 18.0741 159.926 18.2419 160.293 18.2419H162.797V25.0344C162.797 25.4359 162.996 25.6695 163.398 25.6695C163.797 25.6695 163.999 25.4676 164.033 25.0662V18.2419H166.571C166.97 18.2419 167.138 18.1081 167.138 17.7407Z" fill="white"/>
<path d="M174.227 24.8666L170.989 17.6069C170.921 17.439 170.821 17.2735 170.687 17.2054C170.553 17.1056 170.42 17.0716 170.286 17.0716C170.152 17.0716 170.018 17.1374 169.884 17.2054C169.75 17.3052 169.648 17.439 169.583 17.6069L166.344 24.8666C166.244 25.1002 166.21 25.2703 166.31 25.4359C166.41 25.6014 166.578 25.6695 166.811 25.6695C166.977 25.6695 167.111 25.6354 167.21 25.5356C167.31 25.4699 167.412 25.3361 167.478 25.1342L168.147 23.5625H172.424L173.125 25.1342C173.193 25.302 173.293 25.4359 173.393 25.5356C173.493 25.6354 173.626 25.6695 173.794 25.6695C174.028 25.6695 174.196 25.6037 174.261 25.4359C174.361 25.268 174.327 25.1002 174.227 24.8666ZM168.582 22.5555L170.252 18.5753L171.989 22.5555H168.582Z" fill="white"/>
</g>
<defs>
<clipPath id="clip0_2_9868">
<rect width="174.547" height="31.9987" fill="white" transform="translate(0 0.000663757)"/>
</clipPath>
</defs>
</svg>
