<svg width="14" height="15" viewBox="0 0 14 15" fill="none" xmlns="http://www.w3.org/2000/svg">
<path d="M13.9925 4.92479C13.9925 1.67089 11.8598 0.716816 11.8598 0.716816C9.76682 -0.243954 4.20841 -0.233911 2.13556 0.716816C2.13556 0.716816 0.00244696 1.67089 0.00244696 4.92479C0.00244696 8.798 -0.218497 13.6085 3.53855 14.6028C4.89467 14.961 6.05998 15.038 6.99766 14.9844C8.69859 14.8907 9.653 14.3785 9.653 14.3785L9.59609 13.1432C9.59609 13.1432 8.38056 13.5249 7.01439 13.4813C5.66162 13.4345 4.23586 13.334 4.01391 11.6736C3.99333 11.5194 3.98327 11.3639 3.98378 11.2083C6.85036 11.9079 9.2948 11.5129 9.96767 11.4326C11.8464 11.2083 13.4827 10.05 13.6912 8.99216C14.0193 7.32504 13.9925 4.92479 13.9925 4.92479ZM11.4778 9.11602H9.91679V5.29303C9.91679 3.62926 7.77431 3.56565 7.77431 5.52401V7.61628H6.22335V5.52368C6.22335 3.56532 4.08087 3.62892 4.08087 5.29269V9.11569H2.51652C2.51652 5.02823 2.34244 4.16454 3.13282 3.25733C3.99985 2.28987 5.80489 2.22626 6.60866 3.46154L6.99699 4.11433L7.38531 3.46154C8.19243 2.21957 10.0005 2.29656 10.8612 3.25733C11.6549 4.17124 11.4771 5.03158 11.4771 9.11569L11.4778 9.11602Z" fill="#76777A"/>
</svg>
