<svg width="56" height="56" viewBox="0 0 56 56" fill="none" xmlns="http://www.w3.org/2000/svg">
<g clip-path="url(#clip0_4_15717)">
<g clip-path="url(#clip1_4_15717)">
<g clip-path="url(#clip2_4_15717)">
<path d="M0 9.33333C0 4.17867 4.17867 0 9.33333 0H46.6667C51.8214 0 56 4.17867 56 9.33333V46.6667C56 51.8214 51.8214 56 46.6667 56H9.33333C4.17867 56 0 51.8214 0 46.6667V9.33333Z" fill="#FF5500"/>
<path d="M48.7738 31.7581C48.6855 33.2534 48.0238 34.657 46.9265 35.6765C45.8291 36.6961 44.3808 37.2531 42.8831 37.2312H28.7083C28.3975 37.2288 28.1002 37.1036 27.8812 36.883C27.6624 36.6623 27.5395 36.3641 27.5395 36.0531V20.8301C27.5315 20.5715 27.6015 20.3163 27.7404 20.0979C27.8795 19.8795 28.081 19.708 28.3187 19.6057C29.5527 18.9219 30.9547 18.6004 32.3633 18.678C34.0509 18.6724 35.7084 19.1243 37.1594 19.986C38.2821 20.644 39.2569 21.5265 40.0231 22.5785C40.7892 23.6304 41.3302 24.8289 41.6122 26.0994C42.0995 25.9533 42.6062 25.8813 43.115 25.886C43.8764 25.8854 44.6301 26.0386 45.3309 26.3362C46.0318 26.6338 46.6654 27.0698 47.1936 27.618C47.722 28.1664 48.1343 28.8156 48.4058 29.5269C48.6773 30.2384 48.8025 30.9972 48.7738 31.7581Z" fill="white"/>
<path d="M25.7399 21.7857C25.7399 21.6627 25.6912 21.5447 25.6041 21.4577C25.5171 21.3708 25.3992 21.3219 25.2762 21.3219C25.1531 21.3219 25.0352 21.3708 24.9482 21.4577C24.8612 21.5447 24.8123 21.6627 24.8123 21.7857C24.2789 26.784 24.2789 31.8248 24.8123 36.8232C24.8123 36.9461 24.8612 37.0642 24.9482 37.1511C25.0352 37.2381 25.1531 37.287 25.2762 37.287C25.3992 37.287 25.5171 37.2381 25.6041 37.1511C25.6912 37.0642 25.7399 36.9461 25.7399 36.8232C26.5007 31.6653 26.1946 26.962 25.7399 21.7857Z" fill="white"/>
<path d="M22.9566 23.5668C22.9278 23.466 22.867 23.3773 22.7833 23.3142C22.6996 23.251 22.5976 23.2169 22.4927 23.2169C22.388 23.2169 22.286 23.251 22.2023 23.3142C22.1186 23.3773 22.0577 23.466 22.0289 23.5668C21.5187 27.977 21.5187 32.4314 22.0289 36.8417C22.0505 36.9488 22.1085 37.0452 22.193 37.1145C22.2775 37.1837 22.3834 37.2216 22.4927 37.2216C22.6021 37.2216 22.708 37.1837 22.7926 37.1145C22.8771 37.0452 22.935 36.9488 22.9566 36.8417C23.5271 32.4351 23.5271 27.9733 22.9566 23.5668Z" fill="white"/>
<path d="M20.0346 23.1123C20.0346 22.9893 19.9857 22.8713 19.8987 22.7844C19.8118 22.6973 19.6937 22.6484 19.5707 22.6484C19.4476 22.6484 19.3297 22.6973 19.2428 22.7844C19.1557 22.8713 19.1069 22.9893 19.1069 23.1123C18.5595 27.6693 18.5595 32.2754 19.1069 36.8324C19.1069 36.9555 19.1557 37.0735 19.2428 37.1605C19.3297 37.2474 19.4476 37.2963 19.5707 37.2963C19.6937 37.2963 19.8118 37.2474 19.8987 37.1605C19.9857 37.0735 20.0346 36.9555 20.0346 36.8324C20.6051 32.2768 20.6051 27.6679 20.0346 23.1123Z" fill="white"/>
<path d="M17.1774 24.448C17.1486 24.3472 17.0877 24.2586 17.0041 24.1954C16.9203 24.1323 16.8183 24.0981 16.7136 24.0981C16.6087 24.0981 16.5067 24.1323 16.4231 24.1954C16.3393 24.2586 16.2785 24.3472 16.2497 24.448C15.721 28.5654 15.721 32.7335 16.2497 36.8509C16.2713 36.9581 16.3293 37.0544 16.4137 37.1236C16.4983 37.1929 16.6042 37.2307 16.7136 37.2307C16.8229 37.2307 16.9288 37.1929 17.0133 37.1236C17.0979 37.0544 17.1558 36.9581 17.1774 36.8509C17.7433 32.7359 17.7433 28.563 17.1774 24.448Z" fill="white"/>
<path d="M14.2833 27.5372C14.2618 27.43 14.2038 27.3336 14.1192 27.2644C14.0346 27.1951 13.9287 27.1573 13.8195 27.1573C13.7102 27.1573 13.6043 27.1951 13.5197 27.2644C13.4351 27.3336 13.3772 27.43 13.3556 27.5372C12.6692 30.7284 12.9939 33.6598 13.3556 36.8695C13.3556 36.9926 13.4045 37.1105 13.4915 37.1974C13.5785 37.2845 13.6964 37.3334 13.8195 37.3334C13.9425 37.3334 14.0604 37.2845 14.1475 37.1974C14.2345 37.1105 14.2833 36.9926 14.2833 36.8695C14.6729 33.6041 15.0069 30.7376 14.2833 27.5372Z" fill="white"/>
<path d="M11.4166 27.027C11.3828 26.931 11.32 26.8478 11.237 26.7889C11.1539 26.7301 11.0546 26.6985 10.9527 26.6985C10.8509 26.6985 10.7516 26.7301 10.6685 26.7889C10.5854 26.8478 10.5227 26.931 10.4889 27.027C9.97468 30.1353 9.97468 33.3068 10.4889 36.4151C10.5104 36.5222 10.5684 36.6185 10.653 36.6878C10.7375 36.757 10.8434 36.7949 10.9527 36.7949C11.062 36.7949 11.168 36.757 11.2525 36.6878C11.3371 36.6185 11.395 36.5222 11.4166 36.4151C11.9825 33.3113 11.9825 30.1308 11.4166 27.027Z" fill="white"/>
<path d="M8.52238 28.641C8.48862 28.545 8.42585 28.4618 8.34277 28.4029C8.25968 28.344 8.16038 28.3125 8.05855 28.3125C7.95674 28.3125 7.85743 28.344 7.77434 28.4029C7.69126 28.4618 7.62849 28.545 7.59472 28.641C7.09836 30.6769 7.09836 32.8021 7.59472 34.8378C7.59472 34.9609 7.64359 35.0788 7.73058 35.1658C7.81756 35.2528 7.93554 35.3016 8.05855 35.3016C8.18158 35.3016 8.29955 35.2528 8.38654 35.1658C8.47352 35.0788 8.52238 34.9609 8.52238 34.8378C9.11611 32.8149 9.11611 30.6639 8.52238 28.641Z" fill="white"/>
</g>
</g>
</g>
<defs>
<clipPath id="clip0_4_15717">
<rect width="56" height="56" rx="10" fill="white"/>
</clipPath>
<clipPath id="clip1_4_15717">
<rect width="56" height="56" fill="white"/>
</clipPath>
<clipPath id="clip2_4_15717">
<rect width="56" height="56" fill="white"/>
</clipPath>
</defs>
</svg>
