<svg width="54" height="54" viewBox="0 0 54 54" fill="none" xmlns="http://www.w3.org/2000/svg">
<g clip-path="url(#clip0_2_8835)">
<path d="M54 0H0V54H54V0Z" fill="black"/>
<mask id="mask0_2_8835" style="mask-type:luminance" maskUnits="userSpaceOnUse" x="4" y="4" width="22" height="22">
<path d="M25.8232 4.11328H4.30762V25.091H25.8232V4.11328Z" fill="white"/>
</mask>
<g mask="url(#mask0_2_8835)">
<path d="M8.11768 4.11328H22.0132C24.1199 4.11328 25.8232 5.8166 25.8232 7.92334V21.281C25.8232 23.3877 24.1199 25.091 22.0132 25.091H8.11768C6.01094 25.091 4.30762 23.3877 4.30762 21.281V7.92334C4.30762 5.8166 6.01094 4.11328 8.11768 4.11328Z" fill="#470137"/>
<path d="M15.6208 9.62666L12.9314 14.0643L15.8001 18.7708C15.818 18.8067 15.827 18.8425 15.818 18.8784C15.8091 18.9142 15.7732 18.8873 15.7194 18.8963H13.6665C13.523 18.8963 13.4244 18.8873 13.3617 18.7977C13.1734 18.4212 12.9762 18.0536 12.7879 17.6771C12.5997 17.3095 12.3935 16.933 12.1783 16.5475C11.9632 16.162 11.748 15.7765 11.5328 15.3821H11.5149C11.3267 15.7676 11.1205 16.1531 10.9143 16.5386C10.7081 16.924 10.5019 17.3095 10.3047 17.6861C10.0985 18.0626 9.89233 18.4481 9.68613 18.8156C9.65027 18.9053 9.57856 18.9142 9.47994 18.9142H7.50768C7.47182 18.9142 7.44492 18.9322 7.44492 18.8873C7.43596 18.8515 7.44492 18.8156 7.46285 18.7887L10.2509 14.2167L7.53457 9.6177C7.50768 9.58184 7.49871 9.54598 7.51664 9.52805C7.53457 9.50115 7.57043 9.49219 7.60629 9.49219H9.64131C9.68613 9.49219 9.73096 9.50115 9.76682 9.51012C9.80268 9.52805 9.82957 9.55494 9.85647 9.5908C10.0268 9.97629 10.224 10.3618 10.4302 10.7473C10.6453 11.1328 10.8515 11.5093 11.0756 11.8858C11.2908 12.2623 11.488 12.6388 11.6763 13.0243H11.6942C11.8825 12.6299 12.0797 12.2444 12.2769 11.8679C12.4742 11.4913 12.6803 11.1148 12.8865 10.7383C13.0927 10.3618 13.29 9.97629 13.4872 9.60873C13.4962 9.57287 13.5141 9.53701 13.541 9.51908C13.5768 9.50115 13.6127 9.49219 13.6575 9.50115H15.5491C15.5939 9.49219 15.6387 9.51908 15.6477 9.56391C15.6567 9.57287 15.6387 9.60873 15.6208 9.62666Z" fill="#FF61F6"/>
<path d="M19.7628 19.0847C19.0994 19.0936 18.436 18.9591 17.8354 18.6812C17.2706 18.4213 16.8044 17.9909 16.4817 17.462C16.15 16.9152 15.9886 16.2338 15.9886 15.418C15.9797 14.7546 16.15 14.1002 16.4817 13.5265C16.8223 12.9437 17.3154 12.4596 17.9071 12.1369C18.5346 11.7873 19.2877 11.6169 20.1752 11.6169C20.22 11.6169 20.2828 11.6169 20.3635 11.6259C20.4441 11.6349 20.5338 11.6349 20.6414 11.6438V8.81094C20.6414 8.74819 20.6683 8.71233 20.731 8.71233H22.5509C22.5957 8.70337 22.6316 8.73922 22.6405 8.77508C22.6405 8.78405 22.6405 8.79301 22.6405 8.79301V17.3275C22.6405 17.4889 22.6495 17.6682 22.6585 17.8654C22.6764 18.0537 22.6854 18.233 22.6943 18.3854C22.6943 18.4482 22.6674 18.5019 22.6047 18.5288C22.1385 18.7261 21.6454 18.8695 21.1434 18.9591C20.6862 19.0398 20.229 19.0847 19.7628 19.0847ZM20.6414 17.2917V13.3472C20.5607 13.3292 20.48 13.3113 20.3993 13.3023C20.3007 13.2934 20.2021 13.2844 20.1035 13.2844C19.7539 13.2844 19.4042 13.3561 19.0905 13.5175C18.7856 13.6699 18.5257 13.894 18.3284 14.1809C18.1312 14.4678 18.0326 14.8532 18.0326 15.3194C18.0236 15.6332 18.0774 15.947 18.185 16.2428C18.2747 16.4849 18.4091 16.7 18.5884 16.8793C18.7588 17.0407 18.9649 17.1662 19.198 17.2379C19.4401 17.3186 19.6911 17.3544 19.9421 17.3544C20.0766 17.3544 20.2021 17.3455 20.3186 17.3365C20.4352 17.3455 20.5338 17.3275 20.6414 17.2917Z" fill="#FF61F6"/>
</g>
<mask id="mask1_2_8835" style="mask-type:luminance" maskUnits="userSpaceOnUse" x="22" y="25" width="28" height="25">
<path d="M49.8369 25.207H22.415V49.9842H49.8369V25.207Z" fill="white"/>
</mask>
<g mask="url(#mask1_2_8835)">
<path d="M28.3859 26.0224L36.0983 25.207L43.8107 26.0224L49.7817 34.0378L36.0983 49.9718L22.415 34.0378L28.3859 26.0224Z" fill="#FDB300"/>
<path d="M27.9575 34.0376L36.0983 49.9716L22.415 34.0376H27.9575Z" fill="#EA6C00"/>
<path d="M44.2396 34.0376L36.0986 49.9716L49.7819 34.0376H44.2396Z" fill="#EA6C00"/>
<path d="M27.958 34.0376H44.2397L36.0989 49.9716L27.958 34.0376Z" fill="#FDAD00"/>
<path d="M36.0989 25.207L28.3864 26.0224L27.958 34.0378L36.0989 25.207Z" fill="#FDD231"/>
<path d="M36.0986 25.207L43.811 26.0224L44.2396 34.0378L36.0986 25.207Z" fill="#FDD231"/>
<path d="M49.7814 34.0379L43.8105 26.0225L44.2391 34.0379H49.7814Z" fill="#FDAD00"/>
<path d="M22.415 34.0379L28.3859 26.0225L27.9575 34.0379H22.415Z" fill="#FDAD00"/>
<path d="M36.0989 25.207L27.958 34.0378H44.2397L36.0989 25.207Z" fill="#FEEEB7"/>
</g>
</g>
<defs>
<clipPath id="clip0_2_8835">
<rect width="54" height="54" fill="white"/>
</clipPath>
</defs>
</svg>
