<svg width="44" height="44" viewBox="0 0 44 44" fill="none" xmlns="http://www.w3.org/2000/svg">
<path d="M38.5 12.8333V31.1666C38.5 36.6666 35.75 40.3333 29.3333 40.3333H14.6667C8.25 40.3333 5.5 36.6666 5.5 31.1666V12.8333C5.5 7.33329 8.25 3.66663 14.6667 3.66663H29.3333C35.75 3.66663 38.5 7.33329 38.5 12.8333Z" stroke="#B0B0B0" stroke-width="2.75" stroke-miterlimit="10" stroke-linecap="round" stroke-linejoin="round"/>
<path d="M18.8833 28.0133L14.6667 32.23M14.7217 28.0683L18.9383 32.285M29.7917 20.1666H14.2083C12.4483 20.1666 11 18.7183 11 16.9583V12.375C11 10.615 12.4483 9.16663 14.2083 9.16663H29.7917C31.5517 9.16663 33 10.615 33 12.375V16.9583C33 18.7183 31.5517 20.1666 29.7917 20.1666Z" stroke="#B0B0B0" stroke-width="2.75" stroke-miterlimit="10" stroke-linecap="round" stroke-linejoin="round"/>
<path d="M30.2316 28.105H30.2683M26.5649 32.0833V32.0466" stroke="#B0B0B0" stroke-width="3.66667" stroke-miterlimit="10" stroke-linecap="round" stroke-linejoin="round"/>
</svg>
