<svg width="18" height="18" viewBox="0 0 18 18" fill="none" xmlns="http://www.w3.org/2000/svg">
<path fill-rule="evenodd" clip-rule="evenodd" d="M10.004 1.6875C9.79813 1.33875 9.419 1.125 9.00613 1.125C8.59325 1.125 8.21525 1.33875 8.00937 1.6875L0.154625 15.1864C0.0534152 15.3568 0 15.5513 0 15.7494C0 15.9476 0.0534152 16.1421 0.154625 16.3125C0.37175 16.6613 0.750875 16.8761 1.15138 16.8761H16.8609C17.2738 16.8761 17.6529 16.6624 17.8475 16.3136C17.9452 16.1422 17.9975 15.9487 17.9994 15.7515C18.0014 15.5542 17.953 15.3597 17.8588 15.1864L10.004 1.6875ZM10.1536 14.6216H7.85975V12.3683H10.1536V14.6216ZM10.1536 11.2421H7.85975V6.73537H10.1536V11.2421Z" fill="#E6A700"/>
</svg>
