<svg width="24" height="24" viewBox="0 0 24 24" fill="none" xmlns="http://www.w3.org/2000/svg">
<path d="M2.40591 8.71187H6.62517V21.409H2.40591V8.71187ZM4.54378 2.59131C3.0997 2.59131 2.15625 3.53936 2.15625 4.7837C2.15625 6.00245 3.07209 6.97806 4.48856 6.97806H4.51547C5.98716 6.97806 6.90366 6.0024 6.90366 4.7837C6.87605 3.53936 5.9872 2.59131 4.54378 2.59131ZM16.9846 8.41361C14.745 8.41361 13.7416 9.64548 13.1819 10.5094V8.71187H8.96137C9.01725 9.90301 8.96137 21.409 8.96137 21.409H13.1819V14.318C13.1819 13.9382 13.2095 13.5599 13.3206 13.2878C13.6261 12.5297 14.3205 11.7445 15.4853 11.7445C17.0136 11.7445 17.6239 12.9094 17.6239 14.6155V21.4089H21.8438V14.1282C21.8438 10.2282 19.7624 8.41361 16.9846 8.41361Z" fill="black"/>
</svg>
