<svg width="56" height="56" viewBox="0 0 56 56" fill="none" xmlns="http://www.w3.org/2000/svg">
<g clip-path="url(#clip0_4_16034)">
<g clip-path="url(#clip1_4_16034)">
<g clip-path="url(#clip2_4_16034)">
<path d="M46.6667 0H9.33333C4.17868 0 0 4.17868 0 9.33333V46.6667C0 51.8213 4.17868 56 9.33333 56H46.6667C51.8213 56 56 51.8213 56 46.6667V9.33333C56 4.17868 51.8213 0 46.6667 0Z" fill="#2665D6"/>
<path fill-rule="evenodd" clip-rule="evenodd" d="M27.9987 17.2073C22.0392 17.2073 17.208 22.0383 17.208 27.9978C17.208 33.9572 22.0392 38.7883 27.9987 38.7883C33.9583 38.7883 38.7895 33.9572 38.7895 27.9978C38.7895 22.0383 33.9583 17.2073 27.9987 17.2073ZM15.4582 27.9978C15.4582 21.072 21.0728 15.4575 27.9987 15.4575C34.9246 15.4575 40.5392 21.072 40.5392 27.9978C40.5392 34.9236 34.9246 40.5381 27.9987 40.5381C21.0728 40.5381 15.4582 34.9236 15.4582 27.9978Z" fill="white"/>
<path fill-rule="evenodd" clip-rule="evenodd" d="M29.2812 21.9385C29.9044 21.9204 30.5209 22.0705 31.066 22.3733C31.6156 22.6787 32.0719 23.1278 32.386 23.6726C32.6274 24.0912 32.4836 24.6261 32.065 24.8675C31.6463 25.1088 31.1114 24.965 30.87 24.5464C30.7145 24.2766 30.4885 24.0542 30.2162 23.9029C29.9439 23.7517 29.6357 23.6773 29.3243 23.6878C29.3145 23.6881 29.3047 23.6882 29.2949 23.6882H26.7026C26.2471 23.6882 25.8102 23.8692 25.4881 24.1913C25.1661 24.5133 24.9851 24.9502 24.9851 25.4057C24.9851 25.8612 25.1661 26.298 25.4881 26.6201C25.8102 26.9422 26.2471 27.1231 26.7026 27.1231H29.2949C30.2145 27.1231 31.0963 27.4884 31.7466 28.1386C32.3968 28.7889 32.7621 29.6708 32.7621 30.5904C32.7621 31.5099 32.3968 32.3918 31.7466 33.042C31.0963 33.6922 30.2145 34.0576 29.2949 34.0576H26.7162C26.0931 34.0757 25.4765 33.9255 24.9314 33.6226C24.3818 33.3173 23.9254 32.8682 23.6115 32.3234C23.3701 31.9048 23.5138 31.3698 23.9324 31.1285C24.351 30.8872 24.8861 31.0309 25.1274 31.4495C25.283 31.7193 25.5089 31.9418 25.7812 32.093C26.0535 32.2443 26.3618 32.3187 26.673 32.3083C26.683 32.3079 26.6928 32.3077 26.7026 32.3077H29.2949C29.7504 32.3077 30.1873 32.1267 30.5093 31.8047C30.8314 31.4826 31.0123 31.0458 31.0123 30.5904C31.0123 30.1348 30.8314 29.698 30.5093 29.376C30.1873 29.0539 29.7504 28.8729 29.2949 28.8729H26.7026C25.783 28.8729 24.901 28.5076 24.2508 27.8573C23.6005 27.2071 23.2352 26.3253 23.2352 25.4057C23.2352 24.4861 23.6005 23.6042 24.2508 22.9539C24.901 22.3038 25.783 21.9385 26.7026 21.9385H29.2812Z" fill="white"/>
<path fill-rule="evenodd" clip-rule="evenodd" d="M27.9987 19.3459C28.482 19.3459 28.8736 19.7377 28.8736 20.2209V22.8132C28.8736 23.2964 28.482 23.688 27.9987 23.688C27.5155 23.688 27.1238 23.2964 27.1238 22.8132V20.2209C27.1238 19.7377 27.5155 19.3459 27.9987 19.3459ZM27.9987 32.3076C28.482 32.3076 28.8736 32.6993 28.8736 33.1825V35.7748C28.8736 36.2579 28.482 36.6497 27.9987 36.6497C27.5155 36.6497 27.1238 36.2579 27.1238 35.7748V33.1825C27.1238 32.6993 27.5155 32.3076 27.9987 32.3076Z" fill="white"/>
</g>
</g>
</g>
<defs>
<clipPath id="clip0_4_16034">
<rect width="56" height="56" rx="10" fill="white"/>
</clipPath>
<clipPath id="clip1_4_16034">
<rect width="56" height="56" fill="white"/>
</clipPath>
<clipPath id="clip2_4_16034">
<rect width="56" height="56" fill="white"/>
</clipPath>
</defs>
</svg>
