<svg width="44" height="44" viewBox="0 0 44 44" fill="none" xmlns="http://www.w3.org/2000/svg">
<path d="M18.3332 8.25001V33C18.3288 34.912 17.579 36.747 16.2432 38.115L16.1699 38.1883C16.008 38.3512 15.8366 38.5042 15.6566 38.6467C15.1168 39.1115 14.5034 39.4833 13.8416 39.7467C13.6399 39.8383 13.4382 39.9117 13.2366 39.985C12.5143 40.2195 11.7592 40.3371 10.9999 40.3333C10.5075 40.3309 10.0164 40.2817 9.53322 40.1867C9.29489 40.1317 9.05656 40.0767 8.81822 40.0033C8.53037 39.9187 8.24861 39.8146 7.97489 39.6917C7.97489 39.6733 7.97489 39.6733 7.95656 39.6917C7.44081 39.4385 6.9498 39.1377 6.48989 38.7933L6.47156 38.775C6.23479 38.5992 6.01393 38.4029 5.81156 38.1883C5.60989 37.9683 5.40822 37.7483 5.20656 37.51C4.86218 37.0501 4.56144 36.5591 4.30822 36.0433C4.32656 36.025 4.32656 36.025 4.30822 36.025C4.30689 36.0109 4.30035 35.9979 4.28989 35.9883C4.17989 35.7317 4.08822 35.4567 3.99656 35.1817C3.92322 34.9433 3.86822 34.705 3.81322 34.4667C3.71815 33.9835 3.66904 33.4924 3.66656 33V8.25001C3.62965 7.6385 3.72292 7.02611 3.9402 6.45331C4.15748 5.88051 4.49382 5.36033 4.92702 4.92714C5.36021 4.49395 5.88039 4.1576 6.45319 3.94032C7.02599 3.72304 7.63838 3.62977 8.24989 3.66668H13.7499C14.3614 3.62977 14.9738 3.72304 15.5466 3.94032C16.1194 4.1576 16.6396 4.49395 17.0728 4.92714C17.506 5.36033 17.8423 5.88051 18.0596 6.45331C18.2769 7.02611 18.3701 7.6385 18.3332 8.25001Z" stroke="#B0B0B0" stroke-width="2.75" stroke-linecap="round" stroke-linejoin="round"/>
<path d="M40.3332 30.25V35.75C40.3702 36.3615 40.2769 36.9739 40.0596 37.5467C39.8423 38.1195 39.506 38.6397 39.0728 39.0729C38.6396 39.5061 38.1194 39.8424 37.5466 40.0597C36.9738 40.277 36.3614 40.3703 35.7499 40.3333H10.9999C11.7593 40.3371 12.5143 40.2195 13.2366 39.985C13.4382 39.9117 13.6399 39.8383 13.8416 39.7467C14.5034 39.4833 15.1168 39.1115 15.6566 38.6467C15.8367 38.5042 16.0081 38.3512 16.1699 38.1883L16.2432 38.115L28.7099 25.6667H35.7499C36.3614 25.6298 36.9738 25.723 37.5466 25.9403C38.1194 26.1576 38.6396 26.4939 39.0728 26.9271C39.506 27.3603 39.8423 27.8805 40.0596 28.4533C40.2769 29.0261 40.3702 29.6385 40.3332 30.25ZM8.81825 40.0033C7.67863 39.6624 6.64413 39.0379 5.81158 38.1883C4.96198 37.3558 4.3375 36.3213 3.99658 35.1817C4.35249 36.3143 4.97675 37.3442 5.81625 38.1837C6.65574 39.0232 7.68562 39.6474 8.81825 40.0033Z" stroke="#B0B0B0" stroke-width="2.75" stroke-linecap="round" stroke-linejoin="round"/>
<path d="M33.6782 20.6983L28.7098 25.6666L16.2432 38.115C17.5789 36.7469 18.3287 34.912 18.3332 33V15.2808L23.3015 10.3216C23.7088 9.86335 24.2086 9.49653 24.7679 9.24533C25.3272 8.99413 25.9334 8.86426 26.5465 8.86426C27.1596 8.86426 27.7658 8.99413 28.3251 9.24533C28.8844 9.49653 29.3842 9.86335 29.7915 10.3216L33.6782 14.2083C34.1365 14.6156 34.5033 15.1154 34.7545 15.6747C35.0057 16.234 35.1356 16.8402 35.1356 17.4533C35.1356 18.0664 35.0057 18.6726 34.7545 19.2319C34.5033 19.7912 34.1365 20.291 33.6782 20.6983ZM12.8332 33C12.8332 33.3626 12.7256 33.717 12.5242 34.0185C12.3227 34.32 12.0364 34.555 11.7014 34.6938C11.3664 34.8325 10.9978 34.8688 10.6422 34.7981C10.2865 34.7273 9.95987 34.5527 9.70348 34.2963C9.44708 34.0399 9.27247 33.7133 9.20173 33.3576C9.13099 33.002 9.1673 32.6334 9.30606 32.2984C9.44482 31.9634 9.6798 31.6771 9.98129 31.4756C10.2828 31.2742 10.6372 31.1666 10.9998 31.1666C11.4861 31.1666 11.9524 31.3598 12.2962 31.7036C12.64 32.0474 12.8332 32.5137 12.8332 33Z" stroke="#B0B0B0" stroke-width="2.75" stroke-linecap="round" stroke-linejoin="round"/>
</svg>
