<svg width="180" height="30" viewBox="0 0 180 30" fill="none" xmlns="http://www.w3.org/2000/svg">
<g clip-path="url(#clip0_5_16972)">
<path d="M40.9132 7.49461H46.3561V28.6107H40.9132V26.1209C39.2648 28.1915 36.9862 29.2032 34.0331 29.2032C32.666 29.2156 31.3121 28.9358 30.0619 28.3825C28.8118 27.8291 27.6943 27.0151 26.7843 25.9948C24.7952 23.839 23.7216 20.9946 23.7902 18.0621C23.725 15.1462 24.799 12.3197 26.7843 10.183C28.7982 7.99888 31.2061 6.9021 34.0425 6.9021C36.9957 6.9021 39.2743 7.91378 40.9226 9.98442L40.9132 7.49461ZM35.0448 23.9967C35.8169 24.021 36.5858 23.8873 37.3044 23.6038C38.0231 23.3204 38.6762 22.8932 39.2239 22.3484C39.7844 21.7847 40.2235 21.1122 40.514 20.3723C40.8046 19.6324 40.9404 18.8408 40.9132 18.0464C40.9132 16.313 40.3648 14.8947 39.2239 13.7822C38.6847 13.2233 38.034 12.7841 37.314 12.493C36.594 12.202 35.8209 12.0657 35.0448 12.0929C34.2687 12.0657 33.4955 12.202 32.7756 12.493C32.0556 12.7841 31.4049 13.2233 30.8657 13.7822C30.3163 14.344 29.8871 15.0118 29.6042 15.7449C29.3214 16.4781 29.1908 17.2611 29.2205 18.0464C29.1954 18.8367 29.328 19.6242 29.6105 20.3628C29.8929 21.1014 30.3196 21.7764 30.8657 22.3484C31.4133 22.8932 32.0665 23.3204 32.7851 23.6038C33.5037 23.8873 34.2727 24.021 35.0448 23.9967Z" fill="#0A1E25"/>
<path d="M51.2852 28.5981V0.0787354H56.7344V28.5981H51.2852Z" fill="#0A1E25"/>
<path d="M81.1771 28.5981H74.8454L67.1617 19.017V28.5981H61.7188V0.0787354H67.1617V16.7825L74.4105 7.49774H80.9092L72.4375 17.9171L81.1771 28.5981Z" fill="#0A1E25"/>
<path d="M98.3553 0H103.801V28.4784H98.3553V25.9886C96.7605 28.0498 94.4724 29.0709 91.5193 29.0709C90.1439 29.0865 88.7811 28.8083 87.5218 28.255C86.2625 27.7017 85.1358 26.8861 84.2169 25.8625C82.2276 23.7053 81.1531 20.8603 81.2197 17.9266C81.157 15.0106 82.232 12.1846 84.2169 10.0475C86.2435 7.8949 88.6891 6.79813 91.5193 6.79813C94.4724 6.79813 96.7511 7.80981 98.3553 9.88045V0ZM92.531 23.8801C93.3031 23.9044 94.0721 23.7707 94.7907 23.4873C95.5093 23.2038 96.1625 22.7766 96.7101 22.2318C97.2564 21.6593 97.6832 20.9838 97.9657 20.2447C98.2481 19.5055 98.3806 18.7175 98.3553 17.9266C98.3847 17.1419 98.254 16.3594 97.9712 15.6268C97.6883 14.8942 97.2593 14.2269 96.7101 13.6656C96.1709 13.1067 95.5202 12.6675 94.8002 12.3765C94.0803 12.0854 93.3071 11.9491 92.531 11.9763C91.7493 11.953 90.9712 12.091 90.2451 12.3817C89.5191 12.6723 88.8607 13.1093 88.3109 13.6656C87.7635 14.2277 87.3362 14.8954 87.055 15.6279C86.7738 16.3605 86.6446 17.1426 86.6752 17.9266C86.6492 18.7176 86.7813 19.5058 87.0638 20.2451C87.3463 20.9843 87.7735 21.6597 88.3204 22.2318C88.8773 22.7728 89.5366 23.1972 90.2596 23.4803C90.9826 23.7633 91.7548 23.8992 92.531 23.8801Z" fill="#0A1E25"/>
<path d="M112.909 20.2809C113.628 22.9409 115.61 24.2488 118.859 24.2488C120.93 24.2488 122.531 23.5302 123.587 22.1404L127.977 24.6617C125.91 27.6589 122.827 29.178 118.777 29.178C115.273 29.178 112.474 28.1222 110.378 26.0264C108.282 23.9305 107.227 21.2548 107.227 18.0495C107.227 14.8443 108.282 12.2221 110.35 10.1136C112.417 8.00518 115.103 6.9021 118.355 6.9021C121.434 6.9021 124.009 7.95791 125.995 10.1105C127.98 12.2631 129.033 14.8789 129.033 18.0464C129.021 18.7956 128.95 19.5427 128.822 20.2809H112.909ZM123.587 16.0734C122.956 13.2023 120.845 11.8124 118.355 11.8124C115.443 11.8124 113.457 13.3882 112.824 16.0734H123.587Z" fill="#0A1E25"/>
<path d="M141.829 15.8088C144.911 16.4391 148.92 17.9172 148.876 22.4272C148.876 24.5798 148.075 26.2691 146.43 27.451C144.785 28.6329 142.8 29.1812 140.395 29.1812C136.046 29.1812 133.093 27.492 131.529 24.1575L136.257 21.5007C136.887 23.3129 138.242 24.2426 140.395 24.2426C142.336 24.2426 143.307 23.6532 143.307 22.4272C143.307 21.2895 141.618 20.656 139.465 20.1076C136.342 19.3039 132.418 17.996 132.418 13.6058C132.418 11.5383 133.178 9.8931 134.697 8.71123C136.216 7.52936 138.164 6.89587 140.436 6.89587C143.846 6.90218 146.799 8.50952 148.447 11.3775L143.802 13.8989C143.529 13.2364 143.058 12.6743 142.454 12.2891C141.85 11.9039 141.142 11.7143 140.426 11.7463C139.033 11.7463 137.978 12.4207 137.978 13.4765C137.978 14.6269 139.667 15.2604 141.829 15.8088Z" fill="#0A1E25"/>
<path d="M171.829 28.5981H165.498L157.817 19.017V28.5981H152.371V0.0787354H157.817V16.7825L165.066 7.49774H171.565L163.093 17.9171L171.829 28.5981Z" fill="#0A1E25"/>
<path d="M21.2751 12.6066H16.5066V21.8032C16.5066 24.0818 18.1518 24.1259 21.2751 23.9557V28.8944C13.8056 29.739 11.0605 27.5865 11.0605 21.8032V0H16.5066V7.37488H21.2751V12.6066Z" fill="#0A1E25"/>
<path d="M2.77736 12.553C4.3091 12.553 5.55082 11.3113 5.55082 9.77956C5.55082 8.24782 4.3091 7.0061 2.77736 7.0061C1.24563 7.0061 0.00390625 8.24782 0.00390625 9.77956C0.00390625 11.3113 1.24563 12.553 2.77736 12.553Z" fill="#0A1E25"/>
<path d="M2.77736 20.2809C4.3091 20.2809 5.55082 19.0392 5.55082 17.5075C5.55082 15.9757 4.3091 14.734 2.77736 14.734C1.24563 14.734 0.00390625 15.9757 0.00390625 17.5075C0.00390625 19.0392 1.24563 20.2809 2.77736 20.2809Z" fill="#0A1E25"/>
<path d="M2.77736 28.0057C4.3091 28.0057 5.55082 26.7639 5.55082 25.2322C5.55082 23.7005 4.3091 22.4587 2.77736 22.4587C1.24563 22.4587 0.00390625 23.7005 0.00390625 25.2322C0.00390625 26.7639 1.24563 28.0057 2.77736 28.0057Z" fill="#0A1E25"/>
<path d="M177.225 12.5152C176.855 12.5155 176.489 12.4393 176.15 12.2915C175.483 12.0099 174.952 11.4798 174.669 10.8133C174.386 10.1237 174.386 9.3504 174.669 8.66075C174.845 8.24155 175.122 7.87212 175.475 7.585C175.827 7.29788 176.245 7.10188 176.691 7.01426C177.138 6.92663 177.599 6.95007 178.034 7.08252C178.469 7.21496 178.864 7.45234 179.186 7.77376C179.508 8.09517 179.745 8.49076 179.878 8.92567C180.011 9.36059 180.035 9.82149 179.948 10.2678C179.861 10.7141 179.665 11.1321 179.378 11.485C179.091 11.8379 178.722 12.1148 178.303 12.2915C177.963 12.4393 177.596 12.5155 177.225 12.5152ZM177.225 12.0015C177.625 12.0028 178.018 11.8937 178.36 11.6863C178.697 11.488 178.978 11.2071 179.176 10.8701C179.376 10.5259 179.481 10.135 179.481 9.73704C179.481 9.33907 179.376 8.94818 179.176 8.60402C178.978 8.26697 178.697 7.98604 178.36 7.78774C178.015 7.58796 177.624 7.48275 177.225 7.48275C176.827 7.48275 176.435 7.58796 176.091 7.78774C175.755 7.98712 175.476 8.26787 175.277 8.60402C175.078 8.94818 174.972 9.33907 174.972 9.73704C174.972 10.135 175.078 10.5259 175.277 10.8701C175.476 11.2062 175.755 11.487 176.091 11.6863C176.433 11.8933 176.825 12.0023 177.225 12.0015ZM176.28 10.993V8.43698H177.506C177.64 8.436 177.772 8.46865 177.891 8.53196C178.009 8.59528 178.11 8.68722 178.183 8.79942C178.266 8.93014 178.308 9.08277 178.303 9.2375C178.307 9.39554 178.264 9.55127 178.18 9.68504C178.102 9.80744 177.993 9.90737 177.865 9.97499C177.746 10.0409 177.613 10.0756 177.477 10.0758H176.532V9.72601H177.361C177.482 9.72601 177.599 9.67796 177.685 9.59235C177.771 9.50674 177.82 9.39051 177.821 9.26902C177.821 9.26902 177.821 9.25011 177.821 9.2375C177.828 9.17279 177.819 9.10741 177.794 9.047C177.77 8.98659 177.732 8.93298 177.682 8.89082C177.591 8.82223 177.481 8.78566 177.367 8.78681H176.737V10.993H176.28ZM177.77 9.8048L178.401 10.993H177.915L177.285 9.8048H177.77Z" fill="#0A1E25"/>
</g>
<defs>
<clipPath id="clip0_5_16972">
<rect width="179.991" height="29.1875" fill="white" transform="translate(0.00390625)"/>
</clipPath>
</defs>
</svg>
