<svg width="3" height="4" viewBox="0 0 3 4" fill="none" xmlns="http://www.w3.org/2000/svg">
<path d="M0.71289 3.79037C0.486959 3.67082 0.312571 3.50303 0.187542 3.28587C0.0625122 3.06871 0 2.81755 0 2.52911V1.42468C0 1.145 0.0625122 0.897136 0.187542 0.682173C0.312571 0.466113 0.486959 0.299415 0.71289 0.179869C0.938821 0.0603229 1.20094 0 1.49706 0C1.79319 0 2.05531 0.0603229 2.28344 0.179869C2.51156 0.299415 2.68704 0.467209 2.81207 0.682173C2.9371 0.896039 2.99962 1.145 2.99962 1.42468V2.52911C2.99962 2.81755 2.9371 3.06871 2.81207 3.28587C2.68704 3.50303 2.51156 3.67082 2.28344 3.79037C2.05531 3.90991 1.79319 3.97023 1.49706 3.97023C1.20094 3.97023 0.938821 3.90991 0.71289 3.79037ZM1.9237 3.01387C2.03118 2.90091 2.08602 2.74627 2.08602 2.55543V1.41261C2.08602 1.22397 2.03118 1.07262 1.9237 0.95636C1.81512 0.840105 1.67364 0.781981 1.49706 0.781981C1.32049 0.781981 1.18449 0.840105 1.07592 0.95636C0.967338 1.07262 0.913594 1.22397 0.913594 1.41261V2.55543C0.913594 2.74627 0.968434 2.89871 1.07592 3.01387C1.1834 3.12794 1.32378 3.18496 1.49706 3.18496C1.67035 3.18496 1.81512 3.12794 1.9237 3.01387Z" fill="#252530"/>
</svg>
