<svg width="130" height="89" viewBox="0 0 130 89" fill="none" xmlns="http://www.w3.org/2000/svg">
<path d="M64.9998 79.5516C84.5265 79.5516 100.356 63.722 100.356 44.1953C100.356 24.6686 84.5265 8.83905 64.9998 8.83905C45.4731 8.83905 29.6436 24.6686 29.6436 44.1953C29.6436 63.722 45.4731 79.5516 64.9998 79.5516Z" fill="#E6EEFF"/>
<g filter="url(#filter0_dd_4_10785)">
<path d="M27.2219 15.9103H102.778C106.32 15.9103 109.195 18.6411 109.195 22.0045V61.0827C109.195 64.4462 106.32 67.1769 102.778 67.1769H27.2219C23.6802 67.1769 20.8047 64.4462 20.8047 61.0827V22.0045C20.8047 18.6411 23.6802 15.9103 27.2219 15.9103Z" fill="white"/>
</g>
<path d="M103.438 22.9816H76.0604C74.8335 22.9816 73.8389 23.9762 73.8389 25.2031V74.6784C73.8389 75.9053 74.8335 76.8998 76.0604 76.8998H103.438C104.665 76.8998 105.659 75.9053 105.659 74.6784V25.2031C105.659 23.9762 104.665 22.9816 103.438 22.9816Z" fill="#3D7FFC"/>
<path d="M55.7069 52.1505H29.2132C27.9863 52.1505 26.9917 53.1451 26.9917 54.3719V71.1427C26.9917 72.3696 27.9863 73.3642 29.2132 73.3642H55.7069C56.9338 73.3642 57.9284 72.3696 57.9284 71.1427V54.3719C57.9284 53.1451 56.9338 52.1505 55.7069 52.1505Z" fill="#9FC0FF"/>
<path d="M65.3225 31.8206H45.4523C44.5321 31.8206 43.7861 32.5666 43.7861 33.4867V46.0648C43.7861 46.985 44.5321 47.7309 45.4523 47.7309H65.3225C66.2427 47.7309 66.9887 46.985 66.9887 46.0648V33.4867C66.9887 32.5666 66.2427 31.8206 65.3225 31.8206Z" fill="#E6EEFF"/>
<path d="M42.2131 67.1769L39.1152 58.9435H37.1135L34.0156 67.1769H36.0173L36.6011 65.5207H39.5323L40.1161 67.1769H42.2131ZM39.0915 64.0194H37.042L38.0667 61.0645L39.0915 64.0194ZM50.4428 63.0662C50.4428 61.4696 49.7994 60.5164 49.1082 59.9444C48.4291 59.3606 47.3686 58.9555 45.9388 58.9555H43.1507V67.1769H45.9388C47.3686 67.1769 48.4291 66.7718 49.1082 66.1998C49.7994 65.616 50.4428 64.6628 50.4428 63.0662ZM48.4887 63.0662C48.4887 64.0789 48.1074 64.6271 47.7619 64.9487C47.4163 65.2824 46.8444 65.5445 46.0461 65.5445H45.0691V60.5521H46.0461C46.8444 60.5521 47.4163 60.8142 47.7619 61.1359C48.1074 61.4696 48.4887 62.0534 48.4887 63.0662Z" fill="white"/>
<path d="M55.2018 42.6485L52.8784 36.4735H51.3771L49.0537 42.6485H50.5549L50.9928 41.4063H53.1912L53.6291 42.6485H55.2018ZM52.8605 40.2803H51.3235L52.0921 38.0642L52.8605 40.2803ZM61.374 39.5654C61.374 38.368 60.8915 37.6531 60.3732 37.2241C59.8638 36.7862 59.0685 36.4824 57.9961 36.4824H55.905V42.6485H57.9961C59.0685 42.6485 59.8638 42.3447 60.3732 41.9157C60.8915 41.4778 61.374 40.7629 61.374 39.5654ZM59.9085 39.5654C59.9085 40.325 59.6225 40.7362 59.3633 40.9774C59.1043 41.2276 58.6753 41.4242 58.0765 41.4242H57.3438V37.6799H58.0765C58.6753 37.6799 59.1043 37.8765 59.3633 38.1178C59.6225 38.368 59.9085 38.8059 59.9085 39.5654Z" fill="#9FC0FF"/>
<path d="M82.8609 40.8476H81.2958L80.0698 43.2386L78.8439 40.8476H77.2788L79.3655 44.4211V46.847H80.7741V44.4211L82.8609 40.8476ZM89.1745 43.8561C89.1745 41.9171 87.7747 40.752 85.9923 40.752C84.2098 40.752 82.8099 41.9171 82.8099 43.8561C82.8099 45.795 84.2098 46.9513 85.9923 46.9513C87.7747 46.9513 89.1745 45.795 89.1745 43.8561ZM87.7486 43.8212C87.7486 44.969 86.9921 45.6993 85.9923 45.6993C84.9924 45.6993 84.2359 44.969 84.2359 43.8212C84.2359 42.6736 84.9924 41.9519 85.9923 41.9519C86.9921 41.9519 87.7486 42.6822 87.7486 43.8212ZM95.1225 44.3429V40.8476H93.7052V44.3429C93.7052 44.769 93.6705 45.0994 93.4705 45.3428C93.2792 45.5689 93.001 45.7167 92.6097 45.7167C92.2184 45.7167 91.9402 45.5689 91.749 45.3428C91.5489 45.0994 91.5142 44.769 91.5142 44.3429V40.8476H90.097V44.3429C90.097 45.1863 90.2447 45.7688 90.6621 46.2297C91.0882 46.6818 91.7316 46.9427 92.6097 46.9427C93.4792 46.9427 94.1313 46.6818 94.5487 46.2297C94.9747 45.7688 95.1225 45.1863 95.1225 44.3429ZM101.098 46.847L99.5773 44.369C100.021 44.2299 100.751 43.7865 100.751 42.6474C100.751 42.0475 100.49 41.5693 100.09 41.2736C99.6993 40.9867 99.1769 40.8476 98.5078 40.8476H96.351V46.847H97.76V44.5516H98.2037L99.4641 46.847H101.098ZM99.3333 42.6996C99.3333 43.0126 99.2122 43.1778 99.0293 43.3082C98.8551 43.4387 98.6297 43.4734 98.308 43.4734H97.7511V41.9344H98.308C98.6297 41.9344 98.8551 41.9605 99.0293 42.091C99.2122 42.2214 99.3333 42.3953 99.3333 42.6996ZM89.0571 61.8734L84.6164 50.0712H81.747L77.3061 61.8734H80.1755L81.0125 59.4993H85.2142L86.051 61.8734H89.0571ZM84.5822 57.3472H81.6444L83.1133 53.1114L84.5822 57.3472ZM100.854 55.9809C100.854 53.6922 99.9317 52.3257 98.9409 51.5059C97.9677 50.669 96.4474 50.0883 94.3978 50.0883H90.4011V61.8734H94.3978C96.4474 61.8734 97.9677 61.2927 98.9409 60.4729C99.9317 59.636 100.854 58.2696 100.854 55.9809ZM98.0525 55.9809C98.0525 57.4327 97.5063 58.2183 97.0113 58.6795C96.5154 59.1577 95.6959 59.5335 94.5515 59.5335H93.1509V52.377H94.5515C95.6959 52.377 96.5154 52.7527 97.0113 53.2139C97.5063 53.6922 98.0525 54.529 98.0525 55.9809Z" fill="white"/>
<path d="M33.4105 23.5391C33.4105 24.8134 32.3594 25.8645 31.0851 25.8645C29.811 25.8645 28.7598 24.8134 28.7598 23.5391C28.7598 22.265 29.811 21.2137 31.0851 21.2137C32.3594 21.2137 33.4105 22.265 33.4105 23.5391Z" fill="#F66058"/>
<path d="M42.7124 23.5391C42.7124 24.8134 41.6611 25.8645 40.387 25.8645C39.1128 25.8645 38.0615 24.8134 38.0615 23.5391C38.0615 22.265 39.1128 21.2137 40.387 21.2137C41.693 21.2137 42.7124 22.265 42.7124 23.5391Z" fill="#F9BD2E"/>
<path d="M52.014 23.5391C52.014 24.8134 50.9628 25.8645 49.6887 25.8645C48.4145 25.8645 47.3633 24.8134 47.3633 23.5391C47.3633 22.265 48.4145 21.2137 49.6887 21.2137C50.9628 21.2137 52.014 22.265 52.014 23.5391Z" fill="#3CC840"/>
<defs>
<filter id="filter0_dd_4_10785" x="10.1978" y="7.07128" width="109.604" height="72.4803" filterUnits="userSpaceOnUse" color-interpolation-filters="sRGB">
<feFlood flood-opacity="0" result="BackgroundImageFix"/>
<feColorMatrix in="SourceAlpha" type="matrix" values="0 0 0 0 0 0 0 0 0 0 0 0 0 0 0 0 0 0 127 0" result="hardAlpha"/>
<feOffset dy="3.53562"/>
<feGaussianBlur stdDeviation="4.41953"/>
<feColorMatrix type="matrix" values="0 0 0 0 0.607843 0 0 0 0 0.67451 0 0 0 0 0.737255 0 0 0 0.35 0"/>
<feBlend mode="normal" in2="BackgroundImageFix" result="effect1_dropShadow_4_10785"/>
<feColorMatrix in="SourceAlpha" type="matrix" values="0 0 0 0 0 0 0 0 0 0 0 0 0 0 0 0 0 0 127 0" result="hardAlpha"/>
<feOffset dy="1.76781"/>
<feGaussianBlur stdDeviation="5.30344"/>
<feColorMatrix type="matrix" values="0 0 0 0 0.89625 0 0 0 0 0.930414 0 0 0 0 0.995833 0 0 0 0.5 0"/>
<feBlend mode="normal" in2="effect1_dropShadow_4_10785" result="effect2_dropShadow_4_10785"/>
<feBlend mode="normal" in="SourceGraphic" in2="effect2_dropShadow_4_10785" result="shape"/>
</filter>
</defs>
</svg>
