<svg width="10" height="12" viewBox="0 0 10 12" fill="none" xmlns="http://www.w3.org/2000/svg">
<path d="M0 11.9999C1.07925 8.89946 2.02219 5.66274 3.10042 2.56028C2.15646 2.56028 1.34675 2.56028 0.537065 2.56028C0.807639 1.7506 1.07722 0.942954 1.34677 0.133265C1.34677 1.21714e-05 1.48104 0 1.61734 0H1.75061C4.31394 0 6.87423 0 9.43655 0C9.57082 0 9.7071 0 9.84137 0C9.84137 0.133253 9.84138 0.269561 9.70711 0.403831C9.43654 1.07722 9.30329 1.61634 9.03272 2.29074C9.16699 2.5603 9.0327 2.56028 8.76315 2.56028C8.08976 2.56028 7.54965 2.56028 6.87626 2.56028C6.47244 2.56028 6.47243 2.56029 6.33613 2.96411C5.39319 5.79701 4.44923 8.62786 3.50425 11.3245C3.23368 11.9978 3.36996 11.9979 2.69454 11.9979C1.75262 11.9999 0.944976 11.9999 0 11.9999Z" fill="#0E2E46"/>
</svg>
