<svg width="23" height="58" viewBox="0 0 23 58" fill="none" xmlns="http://www.w3.org/2000/svg">
<g clip-path="url(#clip0_4_12826)">
<g clip-path="url(#clip1_4_12826)">
<path d="M5.86164 9.33204C6.64929 10.8286 6.25545 12.0888 5.7041 13.4278C4.83769 15.6332 5.074 17.7598 6.64929 19.5714C8.22457 21.4618 10.43 21.698 12.7142 21.2255C15.8647 20.5166 17.6763 17.5235 17.2038 14.2154C16.9675 12.6401 16.0223 11.0649 16.8887 9.33204C16.1011 9.72586 16.101 9.72586 15.1559 11.3012C14.2895 10.2772 13.5018 9.17451 12.5567 8.07181C11.769 7.2054 10.9813 6.41776 11.4539 5C10.5088 5.47259 10.0362 6.1027 9.72109 6.89034C9.4848 7.67799 9.32726 8.46563 9.16973 9.25327C9.0122 10.0409 8.6184 10.7498 7.83075 11.2224C7.35816 10.356 6.88558 9.72586 5.86164 9.33204Z" fill="#3D7FFC"/>
<path d="M4 57.8594V54.0071L8.17371 53.4645V31.4358L4.32522 30.1879V25.9015L14.8408 24.4908L17.0631 24.271V25.7387V53.4103L21.1826 54.0071V57.8594H4Z" fill="#3D7FFC"/>
</g>
</g>
<defs>
<clipPath id="clip0_4_12826">
<rect width="23" height="58" fill="white"/>
</clipPath>
<clipPath id="clip1_4_12826">
<rect width="23" height="58" fill="white"/>
</clipPath>
</defs>
</svg>
