<svg width="16" height="12" viewBox="0 0 16 12" fill="none" xmlns="http://www.w3.org/2000/svg">
<path fill-rule="evenodd" clip-rule="evenodd" d="M1.75012 0C1.28599 0 0.840873 0.184375 0.512685 0.512563C0.184496 0.840752 0.00012151 1.28587 0.00012151 1.75L0.00012151 2.486C-4.05033e-05 2.495 -4.05033e-05 2.504 0.00012151 2.513L0.00012151 10.25C0.00012151 11.216 0.784121 12 1.75012 12H14.2501C14.7142 12 15.1594 11.8156 15.4876 11.4874C15.8157 11.1592 16.0001 10.7141 16.0001 10.25V1.75C16.0001 1.28587 15.8157 0.840752 15.4876 0.512563C15.1594 0.184375 14.7142 0 14.2501 0H1.75012ZM14.5001 2.07V1.75C14.5001 1.6837 14.4738 1.62011 14.4269 1.57322C14.38 1.52634 14.3164 1.5 14.2501 1.5H1.75012C1.68382 1.5 1.62023 1.52634 1.57334 1.57322C1.52646 1.62011 1.50012 1.6837 1.50012 1.75V2.07L8.00012 5.88L14.5001 2.07ZM1.50012 3.81V10.251C1.50012 10.389 1.61212 10.501 1.75012 10.501H14.2501C14.3164 10.501 14.38 10.4747 14.4269 10.4278C14.4738 10.3809 14.5001 10.3173 14.5001 10.251V3.809L8.38012 7.397C8.26493 7.4647 8.13374 7.50039 8.00012 7.50039C7.86651 7.50039 7.73532 7.4647 7.62012 7.397L1.50012 3.81Z" fill="#76777A"/>
</svg>
