<svg width="10" height="13" viewBox="0 0 10 13" fill="none" xmlns="http://www.w3.org/2000/svg">
<path d="M9.90914 0.0921364C9.96987 0.153911 10.0002 0.23349 10.0002 0.331911V2.30557C10.0002 2.40503 9.96987 2.4846 9.90914 2.54638C9.84737 2.60815 9.76779 2.63852 9.66937 2.63852H6.59946C6.51256 2.63852 6.47068 2.6804 6.47068 2.7673V12.5822C6.47068 12.6806 6.44031 12.7602 6.37854 12.822C6.31676 12.8838 6.23823 12.9141 6.13981 12.9141H3.75048C3.65206 12.9141 3.57249 12.8838 3.51071 12.822C3.44894 12.7602 3.41961 12.6806 3.41961 12.5822V2.7673C3.41961 2.6804 3.37564 2.63852 3.29083 2.63852H0.330865C0.232444 2.63852 0.152865 2.60815 0.0910899 2.54638C0.0303619 2.4846 0 2.40503 0 2.30557V0.331911C0 0.23349 0.0303619 0.153911 0.0910899 0.0921364C0.152865 0.0303613 0.232444 0 0.330865 0H9.66937C9.76779 0 9.84737 0.0303613 9.90914 0.0921364Z" fill="#252530"/>
</svg>
