<svg width="55" height="13" viewBox="0 0 55 13" fill="none" xmlns="http://www.w3.org/2000/svg">
<path d="M0.209461 12.5691C0.15004 12.5691 0.0996968 12.5489 0.0594114 12.5086C0.0201331 12.4623 0 12.4089 0 12.3495V0.219558C0 0.160137 0.0201331 0.106769 0.0594114 0.060441C0.0996968 0.0201556 0.15004 0 0.209461 0H2.3144C2.37382 0 2.42416 0.0201556 2.46344 0.060441C2.51077 0.106769 2.53394 0.160137 2.53394 0.219558V10.304C2.53394 10.3644 2.56314 10.3936 2.62357 10.3936H8.48811C8.54854 10.3936 8.60195 10.4138 8.64827 10.4541C8.68856 10.5004 8.70769 10.5538 8.70769 10.6132V12.3495C8.70769 12.4089 8.68856 12.4623 8.64827 12.5086C8.60195 12.5489 8.54854 12.5691 8.48811 12.5691H0.209461ZM18.2734 7.00261C18.347 7.45482 18.3701 7.96342 18.3439 8.52842C18.3369 8.67546 18.2604 8.74798 18.1143 8.74798H12.568C12.4955 8.74798 12.4724 8.7782 12.4985 8.83762C12.5318 9.07732 12.5952 9.31701 12.6879 9.5557C13.0001 10.2214 13.6356 10.5538 14.5934 10.5538C15.3578 10.5467 15.9631 10.2375 16.4082 9.6262C16.4556 9.55267 16.5079 9.51642 16.5684 9.51642C16.6076 9.51642 16.6509 9.53959 16.6983 9.58592L17.9844 10.863C18.0448 10.9224 18.074 10.9758 18.074 11.0221C18.074 11.0493 18.0509 11.0986 18.0045 11.1722C17.6118 11.6576 17.1032 12.0363 16.4787 12.3092C15.8604 12.5751 15.1785 12.708 14.4332 12.708C13.4029 12.708 12.5318 12.4754 11.8197 12.0101C11.1087 11.5448 10.5971 10.8932 10.2839 10.0552C10.0311 9.456 9.90516 8.67144 9.90516 7.70057C9.90516 7.04291 9.9948 6.4638 10.1741 5.96527C10.4541 5.11424 10.9355 4.43543 11.6203 3.92985C12.3122 3.43132 13.13 3.18255 14.0747 3.18255C15.2712 3.18255 16.232 3.528 16.9571 4.2199C17.6823 4.91079 18.1214 5.83836 18.2734 7.00261ZM14.0949 5.36703C13.3365 5.36703 12.838 5.71952 12.5983 6.42451C12.5519 6.58364 12.5116 6.77601 12.4784 7.00261C12.4784 7.06203 12.5086 7.09225 12.568 7.09225H15.67C15.7435 7.09225 15.7667 7.06203 15.7405 7.00261C15.6801 6.65717 15.6509 6.49099 15.6509 6.50409C15.5441 6.14454 15.3578 5.86556 15.0919 5.66615C14.819 5.46674 14.4866 5.36703 14.0949 5.36703ZM23.5005 3.19262C24.279 3.19262 24.9739 3.32859 25.5853 3.60152C26.1976 3.8674 26.6729 4.23601 27.0124 4.70836C27.3508 5.17366 27.521 5.69233 27.521 6.26438V12.3495C27.521 12.4089 27.5008 12.4623 27.4605 12.5086C27.4213 12.5489 27.3709 12.5691 27.3115 12.5691H25.2066C25.1461 12.5691 25.0968 12.5489 25.0565 12.5086C25.0102 12.4623 24.987 12.4089 24.987 12.3495V11.7603C24.987 11.7271 24.9769 11.7039 24.9568 11.6908C24.9306 11.6777 24.9075 11.6878 24.8873 11.721C24.3817 12.3787 23.574 12.708 22.4631 12.708C21.5255 12.708 20.7712 12.4824 20.1991 12.0302C19.621 11.578 19.331 10.9063 19.331 10.015C19.331 9.09745 19.6572 8.38239 20.3089 7.87076C20.9534 7.36518 21.875 7.1124 23.0714 7.1124H24.8974C24.9568 7.1124 24.987 7.08218 24.987 7.02276V6.62394C24.987 6.23116 24.8672 5.92196 24.6275 5.69636C24.3888 5.47681 24.0292 5.36703 23.5508 5.36703C23.1853 5.36703 22.8791 5.4335 22.6333 5.56644C22.3866 5.69939 22.2274 5.88571 22.1539 6.1244C22.1207 6.25734 22.0442 6.31777 21.9243 6.30468L19.7499 6.01461C19.6039 5.98843 19.5374 5.93506 19.5505 5.85549C19.5968 5.34991 19.7972 4.89468 20.1487 4.4888C20.5012 4.08293 20.9706 3.7677 21.5557 3.54109C22.1338 3.30845 22.7824 3.19262 23.5005 3.19262ZM23.1419 10.8227C23.6536 10.8227 24.0897 10.6867 24.4482 10.4138C24.8077 10.1409 24.987 9.78936 24.987 9.35629V8.7087C24.987 8.64827 24.9568 8.61806 24.8974 8.61806H23.6103C23.0714 8.61806 22.6495 8.72179 22.3433 8.92724C22.0381 9.12766 21.885 9.41269 21.885 9.78533C21.885 10.1116 21.9978 10.3644 22.2244 10.5437C22.45 10.73 22.7562 10.8227 23.1419 10.8227ZM35.0322 0.219558C35.0322 0.160137 35.0513 0.106769 35.0916 0.060441C35.1319 0.0201556 35.1812 0 35.2417 0H37.3456C37.406 0 37.4553 0.0201556 37.4956 0.060441C37.5349 0.106769 37.5551 0.160137 37.5551 0.219558V12.3495C37.5551 12.4089 37.5349 12.4623 37.4956 12.5086C37.4553 12.5489 37.406 12.5691 37.3456 12.5691H35.2417C35.1812 12.5691 35.1319 12.5489 35.0916 12.5086C35.0513 12.4623 35.0322 12.4089 35.0322 12.3495V11.7603C35.0322 11.7271 35.0181 11.7069 34.9919 11.7009C34.9647 11.6939 34.9415 11.7009 34.9224 11.721C34.4168 12.3787 33.7279 12.708 32.8568 12.708C32.0188 12.708 31.2977 12.4754 30.6924 12.0101C30.0872 11.5448 29.652 10.9063 29.3862 10.0945C29.1868 9.4701 29.087 8.74495 29.087 7.92011C29.087 7.06908 29.1928 6.32784 29.4063 5.69636C29.6853 4.9249 30.1204 4.31558 30.7126 3.87042C31.3048 3.41822 32.0359 3.19262 32.9071 3.19262C33.7712 3.19262 34.443 3.49174 34.9224 4.08998C34.9415 4.13027 34.9647 4.14335 34.9919 4.13026C35.0181 4.11616 35.0322 4.093 35.0322 4.05977V0.219558ZM34.6525 9.76518C34.8922 9.32708 35.012 8.7218 35.012 7.95034C35.012 7.15269 34.8791 6.52422 34.6132 6.06497C34.3403 5.59967 33.9414 5.36703 33.4157 5.36703C32.8507 5.36703 32.4247 5.59967 32.1387 6.06497C31.8395 6.53732 31.6905 7.17181 31.6905 7.97047C31.6905 8.68856 31.8164 9.28679 32.0692 9.76518C32.3683 10.2839 32.8104 10.5437 33.3956 10.5437C33.9344 10.5437 34.3534 10.2839 34.6525 9.76518ZM47.6304 7.00261C47.703 7.45482 47.7261 7.96342 47.6999 8.52842C47.6929 8.67546 47.6163 8.74798 47.4703 8.74798H41.924C41.8515 8.74798 41.8283 8.7782 41.8545 8.83762C41.8877 9.07732 41.9512 9.31701 42.0439 9.5557C42.3571 10.2214 42.9916 10.5538 43.9494 10.5538C44.7138 10.5467 45.3191 10.2375 45.7642 9.6262C45.8116 9.55267 45.8639 9.51642 45.9244 9.51642C45.9646 9.51642 46.0069 9.53959 46.0543 9.58592L47.3404 10.863C47.4008 10.9224 47.43 10.9758 47.43 11.0221C47.43 11.0493 47.4068 11.0986 47.3605 11.1722C46.9687 11.6576 46.4591 12.0363 45.8347 12.3092C45.2163 12.5751 44.5345 12.708 43.7892 12.708C42.7589 12.708 41.8877 12.4754 41.1767 12.0101C40.4647 11.5448 39.953 10.8932 39.6398 10.0552C39.387 9.456 39.2611 8.67144 39.2611 7.70057C39.2611 7.04291 39.3508 6.4638 39.5301 5.96527C39.81 5.11424 40.2914 4.43543 40.9763 3.92985C41.6682 3.43132 42.486 3.18255 43.4307 3.18255C44.6271 3.18255 45.588 3.528 46.3131 4.2199C47.0382 4.91079 47.4774 5.83836 47.6304 7.00261ZM43.4508 5.36703C42.6925 5.36703 42.1939 5.71952 41.9542 6.42451C41.9079 6.58364 41.8676 6.77601 41.8344 7.00261C41.8344 7.06203 41.8646 7.09225 41.924 7.09225H45.027C45.0995 7.09225 45.1227 7.06203 45.0965 7.00261C45.036 6.65717 45.0068 6.49099 45.0068 6.50409C44.9001 6.14454 44.7138 5.86556 44.4479 5.66615C44.175 5.46674 43.8426 5.36703 43.4508 5.36703ZM53.8646 3.21176C54.2967 3.21176 54.6361 3.29536 54.8818 3.46154C54.9815 3.51491 55.0178 3.60455 54.9916 3.73044L54.6119 5.786C54.6059 5.92499 54.5223 5.96526 54.3631 5.90584C54.1839 5.84541 53.9744 5.8152 53.7347 5.8152C53.641 5.8152 53.5121 5.82931 53.3459 5.85549C52.9128 5.88873 52.5473 6.04483 52.2481 6.32381C51.949 6.60983 51.7989 6.98549 51.7989 7.45179V12.3495C51.7989 12.4089 51.7798 12.4623 51.7395 12.5086C51.6932 12.5489 51.6398 12.5691 51.5804 12.5691H49.4856C49.4251 12.5691 49.3718 12.5489 49.3254 12.5086C49.2861 12.4623 49.266 12.4089 49.266 12.3495V3.55116C49.266 3.49174 49.2861 3.44139 49.3254 3.40211C49.3718 3.36182 49.4251 3.34168 49.4856 3.34168H51.5804C51.6398 3.34168 51.6932 3.36182 51.7395 3.40211C51.7798 3.44139 51.7989 3.49174 51.7989 3.55116V4.24005C51.7989 4.27328 51.809 4.29645 51.8292 4.30954C51.8564 4.32263 51.8755 4.31558 51.8896 4.28939C52.3811 3.5713 53.0398 3.21176 53.8646 3.21176Z" fill="#252530"/>
</svg>
