<svg width="16" height="8" viewBox="0 0 16 8" fill="none" xmlns="http://www.w3.org/2000/svg">
<path d="M4.84534 0.637136H6.9499M5.89762 1.68942V6.95082M8.75035 0.637136L8.80822 6.94345M10.6276 3.79819C10.978 4.14859 11.1538 4.50006 11.1538 4.85047V6.95503M13.0752 0.641345V6.95082M8.92713 0.637136C10.6886 0.637136 11.1538 0.637136 11.1538 2.21556C11.1538 3.79398 10.6886 3.79398 8.92713 3.79398M3.47737 5.69545C3.38267 6.16687 3.18589 6.9687 2.17149 6.96134C1.1571 6.95502 0.630957 5.91642 0.630957 4.32433V3.27205C0.630957 1.61997 1.1571 0.641345 2.17149 0.647659C3.18589 0.653972 3.36478 1.27692 3.47632 2.05982M13.3141 6.95503H15.3692" stroke="white" stroke-opacity="0.8" stroke-width="1.2" stroke-linecap="square"/>
</svg>
