<svg width="49" height="26" viewBox="0 0 49 26" fill="none" xmlns="http://www.w3.org/2000/svg">
<path d="M5.82652 25.7946C5.72536 25.7946 5.65456 25.747 5.6141 25.653L3.7225 21.455C3.70227 21.4146 3.67193 21.3943 3.63147 21.3943H2.2153C2.16776 21.3943 2.14448 21.4216 2.14448 21.4752V25.6125C2.14448 25.6661 2.1273 25.7106 2.09392 25.744C2.05346 25.7774 2.00996 25.7946 1.96241 25.7946H0.182072C0.134529 25.7946 0.0940718 25.7774 0.0606906 25.744C0.0202286 25.7106 0 25.6661 0 25.6125V15.3553C0 15.3078 0.0202286 15.2643 0.0606906 15.2239C0.0940718 15.1905 0.134529 15.1733 0.182072 15.1733H4.52164C5.16903 15.1733 5.73854 15.3048 6.23116 15.5678C6.72379 15.8308 7.10411 16.2051 7.37419 16.6906C7.63719 17.1761 7.76871 17.7396 7.76871 18.3799C7.76871 19.0677 7.59674 19.6545 7.25281 20.14C6.90888 20.6326 6.43043 20.9796 5.81642 21.1819C5.76281 21.2021 5.7456 21.2355 5.76583 21.283L7.8294 25.5821C7.85671 25.6226 7.86987 25.653 7.86987 25.6732C7.86987 25.7541 7.8122 25.7946 7.69789 25.7946H5.82652ZM2.2153 17.0042C2.16776 17.0042 2.14448 17.0315 2.14448 17.0851V19.6848C2.14448 19.7323 2.16776 19.7556 2.2153 19.7556H4.20806C4.63291 19.7556 4.97987 19.6312 5.24996 19.3813C5.52004 19.1254 5.65457 18.7946 5.65457 18.39C5.65457 17.9854 5.52004 17.6546 5.24996 17.3987C4.97987 17.1357 4.63291 17.0042 4.20806 17.0042H2.2153ZM15.9825 21.0909C16.0432 21.4752 16.0634 21.9031 16.0432 22.3755C16.03 22.504 15.9623 22.5677 15.8409 22.5677H11.1574C11.0967 22.5677 11.0765 22.591 11.0967 22.6385C11.124 22.8408 11.1777 23.0431 11.2586 23.2455C11.5216 23.8119 12.0577 24.0952 12.8669 24.0952C13.5143 24.0881 14.0272 23.8251 14.4045 23.3061C14.4449 23.2455 14.4885 23.2151 14.536 23.2151C14.5694 23.2151 14.6068 23.2353 14.6472 23.2758L15.7397 24.3481C15.7873 24.4017 15.8106 24.4492 15.8106 24.4897C15.8106 24.5099 15.7903 24.5504 15.7499 24.6111C15.4191 25.0288 14.9912 25.3495 14.4652 25.572C13.9392 25.8016 13.3626 25.916 12.7354 25.916C11.8655 25.916 11.1301 25.7207 10.5303 25.3292C9.92333 24.9317 9.48835 24.3784 9.22535 23.6703C9.01596 23.1645 8.91177 22.504 8.91177 21.6877C8.91177 21.1283 8.98561 20.6357 9.13431 20.2108C9.37 19.4956 9.77866 18.9261 10.3583 18.5013C10.9379 18.0764 11.6298 17.864 12.4319 17.864C13.4435 17.864 14.2558 18.1574 14.8698 18.7441C15.4838 19.3308 15.854 20.1127 15.9825 21.0909ZM12.4421 19.7151C11.8078 19.7151 11.3901 20.0115 11.1878 20.6053C11.1473 20.7398 11.1099 20.9017 11.0765 21.0909C11.0765 21.1384 11.1038 21.1617 11.1574 21.1617H13.7773C13.838 21.1617 13.8583 21.1384 13.838 21.0909C13.7905 20.8005 13.7672 20.6589 13.7672 20.666C13.6731 20.3625 13.5143 20.1268 13.2918 19.9579C13.0622 19.7961 12.7789 19.7151 12.4421 19.7151ZM20.3625 25.8957C19.6878 25.8957 19.0981 25.8017 18.5923 25.6125C18.0865 25.4233 17.6951 25.1573 17.4189 24.8134C17.1357 24.4694 16.9941 24.078 16.9941 23.64V23.4882C16.9941 23.4407 17.0143 23.3972 17.0547 23.3567C17.0881 23.3233 17.1286 23.3061 17.1761 23.3061H18.8654C18.913 23.3061 18.9565 23.3233 18.9969 23.3567C19.0303 23.3972 19.0475 23.4407 19.0475 23.4882V23.4983C19.0475 23.728 19.1719 23.9202 19.4218 24.0749C19.6645 24.2297 19.9751 24.3076 20.3524 24.3076C20.6963 24.3076 20.9725 24.2398 21.1819 24.1053C21.3974 23.9637 21.5056 23.7947 21.5056 23.5995C21.5056 23.4174 21.4145 23.2788 21.2325 23.1848C21.0504 23.0968 20.75 23.0027 20.3322 22.9015C19.8598 22.7801 19.4855 22.6618 19.2094 22.5475C18.562 22.3249 18.0461 22.0518 17.6617 21.7281C17.2773 21.4044 17.0851 20.9391 17.0851 20.3322C17.0851 19.5836 17.3784 18.9899 17.9651 18.5519C18.5448 18.1139 19.3135 17.8944 20.2715 17.8944C20.9189 17.8944 21.4854 17.9955 21.9709 18.1978C22.4564 18.4072 22.8338 18.7006 23.1038 19.0779C23.3739 19.4491 23.5085 19.874 23.5085 20.3524C23.5085 20.4 23.4913 20.4404 23.4579 20.4738C23.4174 20.5072 23.3739 20.5244 23.3264 20.5244H21.6978C21.6502 20.5244 21.6098 20.5072 21.5764 20.4738C21.5359 20.4404 21.5157 20.4 21.5157 20.3524C21.5157 20.1299 21.4044 19.9407 21.1819 19.7859C20.9523 19.6312 20.6488 19.5533 20.2715 19.5533C19.9407 19.5533 19.6676 19.617 19.4521 19.7455C19.2427 19.8669 19.1385 20.0318 19.1385 20.2411C19.1385 20.4435 19.2427 20.5952 19.4521 20.6964C19.6544 20.7975 19.9984 20.9057 20.4839 21.02L20.8683 21.1111C21.0099 21.1445 21.1616 21.189 21.3235 21.2426C22.0387 21.458 22.6051 21.7312 23.0229 22.0619C23.4346 22.3988 23.64 22.8843 23.64 23.5186C23.64 24.2671 23.3466 24.8508 22.7599 25.2686C22.1661 25.6863 21.367 25.8957 20.3625 25.8957ZM29.426 18.1776C29.426 18.13 29.4432 18.0865 29.4766 18.0461C29.51 18.0127 29.5545 17.9955 29.6081 17.9955H31.3783C31.4319 17.9955 31.4764 18.0127 31.5098 18.0461C31.5432 18.0865 31.5604 18.13 31.5604 18.1776V25.6125C31.5604 25.6661 31.5432 25.7106 31.5098 25.744C31.4764 25.7774 31.4319 25.7946 31.3783 25.7946H29.6081C29.5545 25.7946 29.51 25.7774 29.4766 25.744C29.4432 25.7106 29.426 25.6661 29.426 25.6125V25.0966C29.426 25.0693 29.4159 25.0531 29.3957 25.046C29.3755 25.0389 29.3552 25.0531 29.335 25.0865C28.9304 25.6256 28.3032 25.8957 27.4535 25.8957C26.6847 25.8957 26.0505 25.6661 25.5518 25.2079C25.0592 24.7426 24.8134 24.0881 24.8134 23.2455V18.1776C24.8134 18.13 24.8305 18.0865 24.8639 18.0461C24.8973 18.0127 24.9418 17.9955 24.9954 17.9955H26.7555C26.8031 17.9955 26.8466 18.0127 26.887 18.0461C26.9204 18.0865 26.9376 18.13 26.9376 18.1776V22.7195C26.9376 23.1241 27.0458 23.4508 27.2613 23.7006C27.4768 23.9566 27.7772 24.085 28.1616 24.085C28.5126 24.085 28.7958 23.9809 29.0113 23.7715C29.2338 23.5621 29.3724 23.293 29.426 22.9622V18.1776ZM33.3205 25.7946C33.273 25.7946 33.2325 25.7774 33.1991 25.744C33.1587 25.7106 33.1384 25.6661 33.1384 25.6125V15.3553C33.1384 15.3078 33.1587 15.2643 33.1991 15.2239C33.2325 15.1905 33.273 15.1733 33.3205 15.1733H35.1008C35.1484 15.1733 35.1919 15.1905 35.2323 15.2239C35.2657 15.2643 35.2829 15.3078 35.2829 15.3553V25.6125C35.2829 25.6661 35.2657 25.7106 35.2323 25.744C35.1919 25.7774 35.1484 25.7946 35.1008 25.7946H33.3205ZM41.3219 19.5331C41.3219 19.5806 41.3047 19.6211 41.2713 19.6544C41.2308 19.6949 41.1873 19.7151 41.1398 19.7151H39.6832C39.6295 19.7151 39.6022 19.7384 39.6022 19.7859V23.0027C39.6022 23.3335 39.673 23.5823 39.8147 23.7512C39.9492 23.9131 40.1687 23.994 40.4722 23.994H40.9678C41.0215 23.994 41.066 24.0112 41.0994 24.0446C41.1327 24.078 41.1499 24.1225 41.1499 24.1761V25.6125C41.1499 25.7268 41.0892 25.7915 40.9678 25.8047C40.543 25.8249 40.2395 25.835 40.0575 25.835C39.2209 25.835 38.5937 25.6965 38.176 25.4203C37.7642 25.1441 37.5518 24.6212 37.5387 23.8524V19.7859C37.5387 19.7384 37.5154 19.7151 37.4679 19.7151H36.5979C36.5504 19.7151 36.5099 19.6949 36.4766 19.6544C36.4361 19.6211 36.4159 19.5806 36.4159 19.5331V18.1776C36.4159 18.13 36.4361 18.0865 36.4766 18.0461C36.5099 18.0127 36.5504 17.9955 36.5979 17.9955H37.4679C37.5154 17.9955 37.5387 17.9682 37.5387 17.9146V16.114C37.5387 16.0665 37.5589 16.023 37.5994 15.9825C37.6327 15.9491 37.6732 15.9319 37.7207 15.9319H39.4202C39.4738 15.9319 39.5183 15.9491 39.5517 15.9825C39.5851 16.023 39.6022 16.0665 39.6022 16.114V17.9146C39.6022 17.9682 39.6295 17.9955 39.6832 17.9955H41.1398C41.1873 17.9955 41.2308 18.0127 41.2713 18.0461C41.3047 18.0865 41.3219 18.13 41.3219 18.1776V19.5331ZM45.7221 25.8957C45.0413 25.8957 44.4476 25.8017 43.9418 25.6125C43.436 25.4233 43.0446 25.1573 42.7684 24.8134C42.4923 24.4694 42.3537 24.078 42.3537 23.64V23.4882C42.3537 23.4407 42.3708 23.3972 42.4042 23.3567C42.4376 23.3233 42.4821 23.3061 42.5357 23.3061H44.2149C44.2685 23.3061 44.313 23.3233 44.3464 23.3567C44.3798 23.3972 44.397 23.4407 44.397 23.4882V23.4983C44.397 23.728 44.5214 23.9202 44.7713 24.0749C45.0211 24.2297 45.3307 24.3076 45.7019 24.3076C46.0458 24.3076 46.326 24.2398 46.5415 24.1053C46.7509 23.9637 46.8551 23.7947 46.8551 23.5995C46.8551 23.4174 46.764 23.2788 46.5819 23.1848C46.3999 23.0968 46.1035 23.0027 45.6918 22.9015C45.2133 22.7801 44.839 22.6618 44.569 22.5475C43.9216 22.3249 43.4057 22.0518 43.0213 21.7281C42.6369 21.4044 42.4447 20.9391 42.4447 20.3322C42.4447 19.5836 42.735 18.9899 43.3147 18.5519C43.8943 18.1139 44.6671 17.8944 45.6311 17.8944C46.2785 17.8944 46.8449 17.9955 47.3305 18.1978C47.816 18.4072 48.1934 18.7006 48.4634 19.0779C48.7264 19.4491 48.8579 19.874 48.8579 20.3524C48.8579 20.4 48.8408 20.4404 48.8074 20.4738C48.774 20.5072 48.7295 20.5244 48.6759 20.5244H47.0574C47.0038 20.5244 46.9593 20.5072 46.9259 20.4738C46.8925 20.4404 46.8753 20.4 46.8753 20.3524C46.8753 20.1299 46.761 19.9407 46.5314 19.7859C46.3018 19.6312 46.0023 19.5533 45.6311 19.5533C45.2942 19.5533 45.0211 19.617 44.8117 19.7455C44.5963 19.8669 44.488 20.0318 44.488 20.2411C44.488 20.4435 44.5922 20.5952 44.8016 20.6964C45.011 20.7975 45.358 20.9057 45.8435 21.02C45.9518 21.0474 46.0762 21.0777 46.2178 21.1111C46.3594 21.1445 46.5111 21.189 46.673 21.2426C47.3942 21.458 47.9607 21.7312 48.3724 22.0619C48.7902 22.3988 48.9996 22.8843 48.9996 23.5186C48.9996 24.2671 48.7032 24.8508 48.1094 25.2686C47.5156 25.6863 46.7205 25.8957 45.7221 25.8957ZM16.0331 5.0881C15.9724 5.11542 15.9724 5.14576 16.0331 5.17914C16.991 5.67177 17.4695 6.49416 17.4695 7.64733C17.4695 8.63157 17.1357 9.37404 16.4681 9.87274C15.8004 10.3714 14.9275 10.6213 13.8481 10.6213H9.91319C9.86565 10.6213 9.82519 10.6041 9.79181 10.5707C9.75135 10.5373 9.73112 10.4928 9.73112 10.4392V0.182072C9.73112 0.134529 9.75135 0.0910427 9.79181 0.0505807C9.82519 0.0171995 9.86565 0 9.91319 0H13.7268C16.1211 0 17.3178 0.971095 17.3178 2.91327C17.3178 3.92483 16.8899 4.6501 16.0331 5.0881ZM11.9464 1.83091C11.8989 1.83091 11.8756 1.85822 11.8756 1.91183V4.27886C11.8756 4.33247 11.8989 4.35979 11.9464 4.35979H13.7268C14.1992 4.35979 14.5694 4.24851 14.8394 4.02597C15.0954 3.80343 15.2238 3.49997 15.2238 3.11558C15.2238 2.71804 15.0954 2.40445 14.8394 2.17483C14.5694 1.94521 14.1992 1.83091 13.7268 1.83091H11.9464ZM13.8481 8.77015C14.3135 8.77015 14.6776 8.65181 14.9406 8.41612C15.2036 8.18043 15.3351 7.85268 15.3351 7.43491C15.3351 7.02321 15.2036 6.69648 14.9406 6.4537C14.6776 6.21801 14.3064 6.09966 13.8279 6.09966H11.9464C11.8989 6.09966 11.8756 6.12697 11.8756 6.18058V8.68923C11.8756 8.74284 11.8989 8.77015 11.9464 8.77015H13.8481ZM25.9058 5.91758C25.9665 6.30197 25.9867 6.72985 25.9665 7.20224C25.9594 7.33071 25.8957 7.39444 25.7743 7.39444H21.0807C21.02 7.39444 20.9998 7.41771 21.02 7.46526C21.0534 7.66757 21.1111 7.86987 21.192 8.07218C21.455 8.63865 21.9911 8.92189 22.8004 8.92189C23.4477 8.91481 23.9566 8.6518 24.3278 8.13287C24.3683 8.07218 24.4158 8.04183 24.4694 8.04183C24.4968 8.04183 24.5301 8.06206 24.5706 8.10252L25.6631 9.17478C25.7167 9.22839 25.744 9.27594 25.744 9.3164C25.744 9.33663 25.7237 9.37709 25.6833 9.43778C25.3464 9.85555 24.9145 10.1762 24.3885 10.3988C23.8696 10.6284 23.293 10.7427 22.6588 10.7427C21.7888 10.7427 21.0534 10.5474 20.4536 10.156C19.8537 9.75843 19.4218 9.20511 19.1588 8.49703C18.9433 7.99125 18.8351 7.33072 18.8351 6.5144C18.8351 5.95501 18.913 5.46238 19.0678 5.03752C19.2974 4.32236 19.705 3.75285 20.2917 3.328C20.8713 2.90315 21.5592 2.69073 22.3553 2.69073C23.3669 2.69073 24.1791 2.98408 24.7931 3.57078C25.4071 4.15748 25.7774 4.93941 25.9058 5.91758ZM22.3755 4.54187C21.7352 4.54187 21.3134 4.83825 21.1111 5.43203C21.0706 5.56656 21.0372 5.72842 21.0099 5.91758C21.0099 5.96513 21.0332 5.98838 21.0807 5.98838H23.7108C23.7715 5.98838 23.7917 5.96513 23.7715 5.91758C23.7179 5.62727 23.6905 5.48564 23.6905 5.49272C23.6025 5.18925 23.4447 4.95356 23.2151 4.78464C22.9855 4.62279 22.7063 4.54187 22.3755 4.54187ZM30.296 10.7225C29.6152 10.7225 29.0214 10.6284 28.5156 10.4392C28.0099 10.2501 27.6184 9.98401 27.3422 9.64009C27.0661 9.29616 26.9275 8.90468 26.9275 8.46668V8.31496C26.9275 8.26741 26.9447 8.22391 26.9781 8.18345C27.0114 8.15007 27.056 8.13287 27.1096 8.13287H28.7888C28.8424 8.13287 28.8869 8.15007 28.9203 8.18345C28.9536 8.22391 28.9708 8.26741 28.9708 8.31496V8.32507C28.9708 8.55469 29.0952 8.74689 29.3451 8.90166C29.5949 9.05643 29.9045 9.13431 30.2757 9.13431C30.6197 9.13431 30.8999 9.06654 31.1153 8.932C31.3247 8.79039 31.4289 8.62146 31.4289 8.42623C31.4289 8.24415 31.3379 8.10556 31.1558 8.01149C30.9737 7.92348 30.6773 7.82941 30.2656 7.72825C29.7871 7.60687 29.4129 7.48851 29.1428 7.37421C28.4954 7.15166 27.9795 6.87855 27.5951 6.55485C27.2107 6.23115 27.0185 5.76585 27.0185 5.15892C27.0185 4.41037 27.3089 3.81658 27.8885 3.37858C28.4681 2.94058 29.2409 2.72108 30.2049 2.72108C30.8523 2.72108 31.4188 2.82223 31.9043 3.02455C32.3899 3.23394 32.7672 3.52728 33.0373 3.90459C33.3003 4.27583 33.4318 4.70068 33.4318 5.17914C33.4318 5.22668 33.4146 5.26716 33.3812 5.30054C33.3478 5.33392 33.3033 5.3511 33.2497 5.3511H31.6312C31.5776 5.3511 31.5331 5.33392 31.4997 5.30054C31.4663 5.26716 31.4491 5.22668 31.4491 5.17914C31.4491 4.9566 31.3348 4.76744 31.1052 4.61267C30.8756 4.45791 30.5762 4.38002 30.2049 4.38002C29.8681 4.38002 29.595 4.44375 29.3856 4.57222C29.1701 4.6936 29.0619 4.85848 29.0619 5.06787C29.0619 5.27018 29.166 5.42192 29.3754 5.52308C29.5848 5.62423 29.9318 5.73246 30.4174 5.84677C30.5256 5.87408 30.65 5.90442 30.7916 5.9378C30.9333 5.97118 31.085 6.0157 31.2468 6.06931C31.9681 6.28477 32.5345 6.55789 32.9462 6.88866C33.364 7.22551 33.5734 7.71106 33.5734 8.3453C33.5734 9.09385 33.277 9.67751 32.6832 10.0953C32.0895 10.5131 31.2944 10.7225 30.296 10.7225ZM39.2583 4.35979C39.2583 4.40733 39.2411 4.44779 39.2077 4.48117C39.1743 4.52163 39.1299 4.54187 39.0762 4.54187H37.6196C37.5721 4.54187 37.5488 4.56513 37.5488 4.61267V7.82942C37.5488 8.16019 37.6166 8.40903 37.7511 8.57795C37.8857 8.7398 38.1082 8.82073 38.4187 8.82073H38.9144C38.9619 8.82073 39.0054 8.83793 39.0459 8.87131C39.0793 8.90469 39.0965 8.94919 39.0965 9.0028V10.4392C39.0965 10.5535 39.0358 10.6183 38.9144 10.6314C38.4895 10.6516 38.1861 10.6617 38.004 10.6617C37.1614 10.6617 36.5342 10.5232 36.1225 10.247C35.7047 9.97087 35.4923 9.4479 35.4852 8.67912V4.61267C35.4852 4.56513 35.4579 4.54187 35.4043 4.54187H34.5445C34.4909 4.54187 34.4464 4.52163 34.413 4.48117C34.3796 4.44779 34.3624 4.40733 34.3624 4.35979V3.00431C34.3624 2.95677 34.3796 2.91327 34.413 2.8728C34.4464 2.83942 34.4909 2.82222 34.5445 2.82222H35.4043C35.4579 2.82222 35.4852 2.79492 35.4852 2.74131V0.940736C35.4852 0.893193 35.5024 0.849707 35.5358 0.809244C35.5692 0.775863 35.6137 0.758664 35.6673 0.758664H37.3667C37.4143 0.758664 37.4578 0.775863 37.4982 0.809244C37.5316 0.849707 37.5488 0.893193 37.5488 0.940736V2.74131C37.5488 2.79492 37.5721 2.82222 37.6196 2.82222H39.0762C39.1299 2.82222 39.1743 2.83942 39.2077 2.8728C39.2411 2.91327 39.2583 2.95677 39.2583 3.00431V4.35979Z" fill="#252530"/>
</svg>
