<svg width="117" height="40" viewBox="0 0 117 40" fill="none" xmlns="http://www.w3.org/2000/svg">
<g clip-path="url(#clip0_5_16993)">
<path d="M104.869 16.3008C106.267 16.3008 107.4 15.1678 107.4 13.7701C107.4 12.3725 106.267 11.2395 104.869 11.2395C103.472 11.2395 102.339 12.3725 102.339 13.7701C102.339 15.1678 103.472 16.3008 104.869 16.3008Z" fill="#0A1E25"/>
<path d="M68.7345 24.5577C69.9759 24.5577 70.6935 23.6272 70.648 22.7207C70.6345 22.3761 70.5946 22.0331 70.5284 21.6946C69.7654 18.4009 67.0913 15.954 63.9172 15.954C60.1451 15.954 57.0907 19.3672 57.0907 23.5675C57.0907 27.7677 60.1451 31.1809 63.9172 31.1809C66.2804 31.1809 67.9834 30.3222 69.1914 28.9612C69.3317 28.8066 69.4376 28.6241 69.5021 28.4255C69.5666 28.227 69.5883 28.0171 69.5657 27.8095C69.5431 27.602 69.4767 27.4016 69.371 27.2217C69.2652 27.0417 69.1225 26.8862 68.9522 26.7654C68.3566 26.3612 67.6175 26.5023 67.0673 26.9568C66.5172 27.4113 65.5389 28.3178 63.9172 28.3178C62.0037 28.3178 60.3843 26.6698 60.0279 24.4907H68.7369L68.7345 24.5577ZM63.8909 18.8554C65.6083 18.8554 67.0889 20.1901 67.6366 22.0295H60.1427C60.6929 20.1661 62.1735 18.8554 63.8909 18.8554Z" fill="#0A1E25"/>
<path d="M57.2319 17.4609C57.2305 17.1228 57.1097 16.7961 56.8909 16.5383C56.6721 16.2806 56.3693 16.1084 56.036 16.052C53.9598 15.7411 52.0032 16.5065 50.8814 17.9129V17.724C50.8837 17.5349 50.8481 17.3473 50.7767 17.1721C50.7054 16.997 50.5998 16.8379 50.4661 16.7042C50.3324 16.5705 50.1732 16.4648 49.9981 16.3935C49.823 16.3222 49.6353 16.2866 49.4463 16.2888C49.0656 16.2888 48.7006 16.44 48.4315 16.7092C48.1623 16.9783 48.0111 17.3434 48.0111 17.724V29.4205C48.0055 29.7899 48.14 30.1478 48.3877 30.4221C48.6353 30.6964 48.9777 30.8666 49.3458 30.8987C49.542 30.9114 49.7387 30.8838 49.9237 30.8174C50.1087 30.751 50.2782 30.6473 50.4215 30.5128C50.5648 30.3782 50.6789 30.2156 50.7568 30.0352C50.8347 29.8547 50.8746 29.6601 50.8742 29.4635V23.4407C50.8742 20.7689 52.8787 18.5731 55.6581 18.896H55.9427C56.3001 18.8662 56.6325 18.7011 56.8722 18.4343C57.1118 18.1676 57.2405 17.8194 57.2319 17.4609Z" fill="#0A1E25"/>
<path d="M106.301 18.9967C106.301 18.6161 106.15 18.251 105.881 17.9819C105.612 17.7128 105.247 17.5615 104.866 17.5615C104.486 17.5615 104.121 17.7128 103.851 17.9819C103.582 18.251 103.431 18.6161 103.431 18.9967V29.4757C103.431 29.8563 103.582 30.2213 103.851 30.4905C104.121 30.7596 104.486 30.9108 104.866 30.9108C105.247 30.9108 105.612 30.7596 105.881 30.4905C106.15 30.2213 106.301 29.8563 106.301 29.4757V18.9967Z" fill="#0A1E25"/>
<path d="M85.0116 11.0747C85.0116 10.694 84.8604 10.329 84.5913 10.0599C84.3221 9.79071 83.9571 9.63951 83.5765 9.63951C83.1958 9.63951 82.8308 9.79071 82.5617 10.0599C82.2925 10.329 82.1413 10.694 82.1413 11.0747V17.4467C81.6643 16.9672 81.0942 16.5906 80.466 16.34C79.8378 16.0895 79.1649 15.9704 78.4889 15.99C74.7192 15.99 71.6647 19.4033 71.6647 23.6035C71.6647 27.8037 74.7192 31.217 78.4889 31.217C79.1699 31.2327 79.8469 31.1098 80.479 30.8557C81.111 30.6016 81.6847 30.2216 82.1652 29.7388C82.2377 30.0834 82.4343 30.3893 82.7177 30.5983C83.0011 30.8073 83.3514 30.9049 83.7021 30.8724C84.0527 30.8399 84.3791 30.6796 84.6193 30.4221C84.8594 30.1645 84.9965 29.8277 85.0044 29.4757L85.0116 11.0747ZM78.5199 28.3778C76.3242 28.3778 74.5589 26.2538 74.5589 23.5939C74.5589 20.9341 76.3242 18.8101 78.5199 18.8101C80.7157 18.8101 82.4833 20.9341 82.4833 23.5939C82.4833 26.2538 80.6918 28.3778 78.5199 28.3778Z" fill="#0A1E25"/>
<path d="M99.953 11.0747C99.953 10.694 99.8018 10.329 99.5326 10.0599C99.2635 9.79071 98.8985 9.63951 98.5178 9.63951C98.1372 9.63951 97.7722 9.79071 97.503 10.0599C97.2339 10.329 97.0827 10.694 97.0827 11.0747V17.4467C96.6061 16.9674 96.0363 16.5909 95.4085 16.3403C94.7807 16.0898 94.1083 15.9706 93.4326 15.99C89.6606 15.99 86.6061 19.4033 86.6061 23.6035C86.6061 27.8037 89.6606 31.217 93.4326 31.217C94.114 31.2331 94.7916 31.1103 95.424 30.8562C96.0565 30.602 96.6306 30.2219 97.1114 29.7388C97.1816 30.0857 97.3776 30.3945 97.6617 30.6057C97.9457 30.8169 98.2978 30.9157 98.6503 30.883C99.0028 30.8504 99.3308 30.6886 99.5712 30.4289C99.8117 30.1691 99.9476 29.8296 99.953 29.4757V11.0747ZM93.4374 28.3778C91.2416 28.3778 89.474 26.2538 89.474 23.5939C89.474 20.9341 91.2416 18.8101 93.4374 18.8101C95.6332 18.8101 97.3984 20.9341 97.3984 23.5939C97.3984 26.2538 95.6332 28.3778 93.4374 28.3778Z" fill="#0A1E25"/>
<path d="M113.555 29.4996V18.8556H114.811C115.141 18.8586 115.459 18.737 115.702 18.5152C115.946 18.2934 116.097 17.9878 116.124 17.6596C116.135 17.4861 116.11 17.3123 116.052 17.1486C115.993 16.985 115.902 16.835 115.784 16.7077C115.665 16.5804 115.522 16.4785 115.363 16.4081C115.204 16.3378 115.033 16.3006 114.859 16.2986H113.546V14.2966C113.552 13.9263 113.417 13.5675 113.169 13.2927C112.921 13.0178 112.578 12.8475 112.209 12.816C112.013 12.8036 111.816 12.8315 111.632 12.898C111.447 12.9645 111.278 13.0683 111.135 13.2028C110.992 13.3373 110.878 13.4998 110.8 13.6801C110.722 13.8604 110.682 14.0548 110.683 14.2511V16.3273H109.487C109.157 16.3232 108.838 16.4444 108.594 16.6664C108.351 16.8884 108.2 17.1947 108.174 17.5233C108.163 17.6968 108.188 17.8706 108.246 18.0343C108.305 18.1979 108.396 18.3479 108.514 18.4752C108.633 18.6025 108.776 18.7044 108.935 18.7748C109.094 18.8451 109.265 18.8823 109.439 18.8843H110.656V29.5283C110.656 29.9089 110.808 30.274 111.077 30.5431C111.346 30.8123 111.711 30.9635 112.092 30.9635C112.479 30.9603 112.849 30.8051 113.123 30.5312C113.397 30.2574 113.552 29.8869 113.555 29.4996Z" fill="#0A1E25"/>
<path d="M20.0012 40.0024C31.0476 40.0024 40.0024 31.0476 40.0024 20.0012C40.0024 8.95484 31.0476 0 20.0012 0C8.95484 0 0 8.95484 0 20.0012C0 31.0476 8.95484 40.0024 20.0012 40.0024Z" fill="#0A1E25"/>
<path d="M33.3413 20.0013C33.3398 19.4299 33.1706 18.8714 32.8548 18.3952C32.539 17.919 32.0904 17.5458 31.5646 17.322C31.0389 17.0982 30.459 17.0336 29.8968 17.1361C29.3347 17.2386 28.8149 17.5038 28.402 17.8988C26.3976 16.4636 23.6517 15.538 20.5972 15.4184L21.9343 9.16591L26.278 10.0964C26.296 10.6077 26.5003 11.0948 26.8524 11.466C27.2044 11.8372 27.68 12.0669 28.1897 12.112C28.6993 12.157 29.2079 12.0143 29.6196 11.7106C30.0313 11.4069 30.3179 10.9632 30.4253 10.463C30.5328 9.96275 30.4537 9.44052 30.203 8.99452C29.9523 8.54853 29.5472 8.20954 29.064 8.04134C28.5809 7.87313 28.0529 7.88731 27.5794 8.08121C27.1059 8.2751 26.7197 8.63534 26.4933 9.09415L21.6472 8.06802C21.5155 8.04066 21.3783 8.06553 21.2645 8.13738C21.2064 8.17386 21.1571 8.22285 21.1203 8.28078C21.0834 8.3387 21.06 8.40412 21.0516 8.47225L19.5711 15.4423C16.4616 15.538 13.675 16.4684 11.6466 17.9227C11.3412 17.6272 10.9748 17.4021 10.5731 17.2632C10.1714 17.1244 9.74423 17.075 9.32149 17.1187C8.89874 17.1624 8.49067 17.2981 8.12591 17.5162C7.76115 17.7343 7.44852 18.0296 7.20996 18.3813C6.9714 18.7331 6.81268 19.1327 6.74494 19.5523C6.6772 19.9719 6.70208 20.4012 6.81783 20.8101C6.93358 21.219 7.13739 21.5977 7.41498 21.9195C7.69257 22.2413 8.03721 22.4985 8.42473 22.6731C8.37621 22.9647 8.35221 23.26 8.35297 23.5557C8.35297 28.0429 13.5793 31.6882 20.0231 31.6882C26.4669 31.6882 31.6957 28.0596 31.6957 23.5557C31.6955 23.26 31.6715 22.9649 31.6239 22.6731C32.136 22.4389 32.5701 22.0627 32.8745 21.5891C33.179 21.1154 33.341 20.5643 33.3413 20.0013ZM13.3425 22.0775C13.3435 21.667 13.466 21.2661 13.6947 20.9253C13.9234 20.5845 14.248 20.3191 14.6275 20.1627C15.0069 20.0063 15.4242 19.9659 15.8267 20.0465C16.2291 20.1272 16.5986 20.3253 16.8885 20.6159C17.1783 20.9064 17.3756 21.2764 17.4553 21.679C17.535 22.0816 17.4936 22.4988 17.3364 22.8779C17.1791 23.257 16.913 23.5809 16.5717 23.8089C16.2303 24.0368 15.8291 24.1584 15.4187 24.1584C15.1456 24.1584 14.8753 24.1046 14.6231 23.9999C14.3709 23.8953 14.1418 23.7419 13.9489 23.5486C13.7561 23.3553 13.6032 23.1259 13.4992 22.8735C13.3951 22.621 13.3419 22.3505 13.3425 22.0775ZM24.9648 27.5789C23.5297 29.014 20.8125 29.1049 20.0231 29.1049C19.2338 29.1049 16.4927 28.9853 15.0838 27.5789C14.9867 27.4768 14.9333 27.3408 14.9349 27.2C14.9366 27.0591 14.9931 26.9244 15.0926 26.8246C15.1921 26.7248 15.3266 26.6678 15.4675 26.6657C15.6083 26.6637 15.7445 26.7167 15.8468 26.8135C16.7558 27.72 18.6645 28.0309 20.0231 28.0309C21.3817 28.0309 23.3168 27.72 24.2018 26.8135C24.2513 26.7623 24.3106 26.7217 24.3761 26.6939C24.4417 26.6661 24.5121 26.6518 24.5833 26.6518C24.6545 26.6518 24.7249 26.6661 24.7905 26.6939C24.856 26.7217 24.9153 26.7623 24.9648 26.8135C25.0608 26.9202 25.1139 27.0586 25.1139 27.2021C25.1139 27.3457 25.0608 27.4841 24.9648 27.5908V27.5789ZM24.5821 24.1656C24.1708 24.1661 23.7686 24.0445 23.4264 23.8163C23.0842 23.5881 22.8175 23.2635 22.6598 22.8836C22.5022 22.5037 22.4608 22.0855 22.541 21.6821C22.6211 21.2787 22.8191 20.9081 23.11 20.6173C23.4008 20.3264 23.7714 20.1284 24.1748 20.0483C24.5782 19.9682 24.9964 20.0095 25.3763 20.1671C25.7562 20.3248 26.0808 20.5915 26.309 20.9337C26.5372 21.2759 26.6588 21.6781 26.6583 22.0894C26.6599 22.3631 26.6073 22.6343 26.5037 22.8876C26.4001 23.1409 26.2474 23.3712 26.0544 23.5652C25.8615 23.7593 25.6321 23.9133 25.3794 24.0184C25.1267 24.1235 24.8558 24.1776 24.5821 24.1776V24.1656Z" fill="#F5F5EB"/>
</g>
<defs>
<clipPath id="clip0_5_16993">
<rect width="116.092" height="39.9844" fill="white" transform="scale(1.00039)"/>
</clipPath>
</defs>
</svg>
