<svg width="56" height="56" viewBox="0 0 56 56" fill="none" xmlns="http://www.w3.org/2000/svg">
<g clip-path="url(#clip0_4_16023)">
<g clip-path="url(#clip1_4_16023)">
<g clip-path="url(#clip2_4_16023)">
<path d="M0 11.2C0 5.01441 5.01441 0 11.2 0H44.8C50.9856 0 56 5.01441 56 11.2V44.8C56 50.9856 50.9856 56 44.8 56H11.2C5.01441 56 0 50.9856 0 44.8V11.2Z" fill="#D2E823"/>
<path fill-rule="evenodd" clip-rule="evenodd" d="M28.0014 13.9971C24.6183 13.9971 21.8757 16.7396 21.8757 20.1227V25.3732C21.8757 28.7563 24.6183 31.4989 28.0014 31.4989C31.3845 31.4989 34.1271 28.7563 34.1271 25.3732V20.1227C34.1271 16.7396 31.3845 13.9971 28.0014 13.9971ZM23.626 20.1227C23.626 17.7063 25.5849 15.7473 28.0014 15.7473C30.4179 15.7473 32.3768 17.7063 32.3768 20.1227V25.3732C32.3768 27.7898 30.4179 29.7488 28.0014 29.7488C25.5849 29.7488 23.626 27.7898 23.626 25.3732V20.1227Z" fill="black"/>
<path d="M18.3754 25.3733C18.3754 24.89 17.9836 24.4983 17.5003 24.4983C17.017 24.4983 16.6251 24.89 16.6251 25.3733C16.6251 31.3618 21.2523 36.2695 27.1263 36.7164V40.2469H15.7501C15.2669 40.2469 14.875 40.6388 14.875 41.122C14.875 41.6053 15.2669 41.9972 15.7501 41.9972H40.2527C40.7361 41.9972 41.1278 41.6053 41.1278 41.122C41.1278 40.6388 40.7361 40.2469 40.2527 40.2469H28.8765V36.7164C34.7505 36.2695 39.3777 31.3618 39.3777 25.3733C39.3777 24.89 38.9858 24.4983 38.5025 24.4983C38.0192 24.4983 37.6274 24.89 37.6274 25.3733C37.6274 30.6897 33.3178 34.9994 28.0014 34.9994C22.685 34.9994 18.3754 30.6897 18.3754 25.3733Z" fill="black"/>
</g>
</g>
</g>
<defs>
<clipPath id="clip0_4_16023">
<rect width="56" height="56" rx="10" fill="white"/>
</clipPath>
<clipPath id="clip1_4_16023">
<rect width="56" height="56" fill="white"/>
</clipPath>
<clipPath id="clip2_4_16023">
<rect width="56" height="56" fill="white"/>
</clipPath>
</defs>
</svg>
