<svg width="20" height="20" viewBox="0 0 20 20" fill="none" xmlns="http://www.w3.org/2000/svg">
<path d="M18.714 11.2202C18.0264 11.403 17.3164 11.4955 16.6044 11.4955C14.4358 11.4955 12.3993 10.6524 10.8696 9.12275C8.8301 7.0832 8.02667 4.0777 8.77322 1.2784C8.86666 0.92798 8.76611 0.554198 8.51015 0.298239C8.25419 0.0422791 7.88142 -0.0613237 7.52897 0.0361847C5.80023 0.498334 4.22384 1.40537 2.96944 2.65875C-0.989812 6.618 -0.989812 13.0627 2.96944 17.024C4.88812 18.9427 7.43959 20 10.1526 20C12.8655 20 15.416 18.9437 17.3336 17.025C18.5891 15.7686 19.4971 14.1901 19.9572 12.4634C20.0507 12.113 19.9491 11.7392 19.6931 11.4833C19.4372 11.2263 19.0624 11.1247 18.714 11.2202ZM15.8984 15.5888C14.3637 17.1235 12.3231 17.9686 10.1536 17.9686C7.98299 17.9686 5.94243 17.1225 4.40667 15.5878C1.23968 12.4198 1.23968 7.26399 4.40667 4.09599C5.01813 3.48453 5.72506 2.97667 6.49904 2.58969C6.27355 5.52002 7.32583 8.45238 9.43444 10.561C11.5349 12.6625 14.4389 13.73 17.4058 13.4974C17.0178 14.2683 16.5089 14.9763 15.8984 15.5888Z" fill="#FF4ECD"/>
</svg>
