<svg width="4" height="4" viewBox="0 0 4 4" fill="none" xmlns="http://www.w3.org/2000/svg">
<mask id="mask0_2_9029" style="mask-type:alpha" maskUnits="userSpaceOnUse" x="-1" y="-1" width="6" height="6">
<path d="M4.66614 -0.666667H-0.666667V4.66614H4.66614V-0.666667Z" fill="#D9D9D9"/>
</mask>
<g mask="url(#mask0_2_9029)">
<path d="M0.7777 3.99956C0.562911 3.99956 0.379589 3.92367 0.227755 3.77189C0.0759219 3.62 0 3.43667 0 3.22189C0 3.00711 0.0759219 2.82378 0.227755 2.672C0.379589 2.52011 0.562911 2.44422 0.7777 2.44422H1.111V1.55544H0.7777C0.562911 1.55544 0.379589 1.47944 0.227755 1.32767C0.0759219 1.17578 0 0.992444 0 0.777666C0 0.562888 0.0759219 0.379556 0.227755 0.227778C0.379589 0.0758892 0.562911 0 0.7777 0C0.9925 0 1.17581 0.0758892 1.32764 0.227778C1.47949 0.379556 1.5554 0.562888 1.5554 0.777666V1.111H2.44423V0.777666C2.44423 0.562888 2.52012 0.379556 2.67201 0.227778C2.82379 0.0758892 3.00712 0 3.2219 0C3.43668 0 3.62001 0.0758892 3.7719 0.227778C3.92368 0.379556 3.99957 0.562888 3.99957 0.777666C3.99957 0.992444 3.92368 1.17578 3.7719 1.32767C3.62001 1.47944 3.43668 1.55544 3.2219 1.55544H2.88857V2.44422H3.2219C3.43668 2.44422 3.62001 2.52011 3.7719 2.672C3.92368 2.82378 3.99957 3.00711 3.99957 3.22189C3.99957 3.43667 3.92368 3.62 3.7719 3.77189C3.62001 3.92367 3.43668 3.99956 3.2219 3.99956C3.00712 3.99956 2.82379 3.92367 2.67201 3.77189C2.52012 3.62 2.44423 3.43667 2.44423 3.22189V2.88855H1.5554V3.22189C1.5554 3.43667 1.47949 3.62 1.32764 3.77189C1.17581 3.92367 0.9925 3.99956 0.7777 3.99956ZM0.7777 3.55522C0.870289 3.55522 0.948944 3.52278 1.01368 3.45789C1.07857 3.39311 1.111 3.31444 1.111 3.22189V2.88855H0.7777C0.685122 2.88855 0.606455 2.921 0.541722 2.98589C0.476844 3.05067 0.4444 3.12933 0.4444 3.22189C0.4444 3.31444 0.476844 3.39311 0.541722 3.45789C0.606455 3.52278 0.685122 3.55522 0.7777 3.55522ZM3.2219 3.55522C3.31446 3.55522 3.39312 3.52278 3.4579 3.45789C3.52279 3.39311 3.55523 3.31444 3.55523 3.22189C3.55523 3.12933 3.52279 3.05067 3.4579 2.98589C3.39312 2.921 3.31446 2.88855 3.2219 2.88855H2.88857V3.22189C2.88857 3.31444 2.92101 3.39311 2.9859 3.45789C3.05068 3.52278 3.12934 3.55522 3.2219 3.55522ZM1.5554 2.44422H2.44423V1.55544H1.5554V2.44422ZM0.7777 1.111H1.111V0.777666C1.111 0.68511 1.07857 0.606444 1.01368 0.541667C0.948944 0.476778 0.870289 0.444444 0.7777 0.444444C0.685122 0.444444 0.606455 0.476778 0.541722 0.541667C0.476844 0.606444 0.4444 0.68511 0.4444 0.777666C0.4444 0.870221 0.476844 0.948889 0.541722 1.01367C0.606455 1.07856 0.685122 1.111 0.7777 1.111ZM2.88857 1.111H3.2219C3.31446 1.111 3.39312 1.07856 3.4579 1.01367C3.52279 0.948889 3.55523 0.870221 3.55523 0.777666C3.55523 0.68511 3.52279 0.606444 3.4579 0.541667C3.39312 0.476778 3.31446 0.444444 3.2219 0.444444C3.12934 0.444444 3.05068 0.476778 2.9859 0.541667C2.92101 0.606444 2.88857 0.68511 2.88857 0.777666V1.111Z" fill="white"/>
</g>
</svg>
