<svg width="6" height="7" viewBox="0 0 6 7" fill="none" xmlns="http://www.w3.org/2000/svg">
<path d="M4.53029 6.73766L4.23878 5.78015C4.22601 5.75355 4.21005 5.74185 4.18983 5.74185H1.79714C1.77799 5.74185 1.76096 5.75355 1.74819 5.78015L1.46626 6.73766C1.44711 6.80256 1.40563 6.83446 1.33966 6.83446H0.104477C0.066177 6.83446 0.0363871 6.82383 0.017237 6.80042C-0.00191316 6.77808 -0.00510771 6.74298 0.00765905 6.6983L2.10886 0.0978896C2.12801 0.0329919 2.1695 0 2.23546 0H3.76216C3.82812 0 3.8696 0.0329919 3.88875 0.0978896L5.98995 6.6983C5.9974 6.71106 5.99953 6.72703 5.99953 6.74724C5.99953 6.80575 5.96336 6.83446 5.89314 6.83446H4.65689C4.59199 6.83446 4.5505 6.80256 4.53029 6.73766ZM2.13759 4.67688H3.84939C3.88875 4.67688 3.90152 4.65774 3.88875 4.61838L3.01317 1.71925C3.00679 1.69266 2.99615 1.68096 2.98444 1.68521C2.97168 1.6884 2.9621 1.69904 2.95466 1.71925L2.09928 4.61838C2.09184 4.65774 2.10567 4.67688 2.13759 4.67688Z" fill="white"/>
</svg>
