<svg width="14" height="14" viewBox="0 0 14 14" fill="none" xmlns="http://www.w3.org/2000/svg">
<path d="M11.667 2.33331H2.33366C1.69024 2.33331 1.16699 2.85656 1.16699 3.49998V10.5C1.16699 11.1434 1.69024 11.6666 2.33366 11.6666H11.667C12.3104 11.6666 12.8337 11.1434 12.8337 10.5V3.49998C12.8337 2.85656 12.3104 2.33331 11.667 2.33331ZM11.667 3.49998V3.79806L7.00033 7.42815L2.33366 3.79865V3.49998H11.667ZM2.33366 10.5V5.27565L6.64216 8.6269C6.74431 8.70713 6.87043 8.75074 7.00033 8.75074C7.13022 8.75074 7.25635 8.70713 7.35849 8.6269L11.667 5.27565L11.6682 10.5H2.33366Z" fill="#003470"/>
</svg>
