<svg width="16" height="18" viewBox="0 0 16 18" fill="none" xmlns="http://www.w3.org/2000/svg">
<path d="M2.25 1.125C1.00898 1.125 0 2.13398 0 3.375V14.625C0 15.866 1.00898 16.875 2.25 16.875H13.5C14.741 16.875 15.75 15.866 15.75 14.625V3.375C15.75 2.13398 14.741 1.125 13.5 1.125H2.25ZM5.34375 8.15625H10.4062C10.8738 8.15625 11.25 8.53242 11.25 9C11.25 9.46758 10.8738 9.84375 10.4062 9.84375H5.34375C4.87617 9.84375 4.5 9.46758 4.5 9C4.5 8.53242 4.87617 8.15625 5.34375 8.15625Z" fill="#D8D8D8"/>
</svg>
