<svg width="136" height="19" viewBox="0 0 136 19" fill="none" xmlns="http://www.w3.org/2000/svg">
<g clip-path="url(#clip0_5_16894)">
<path d="M15.1264 14.8081C16.273 14.8081 17.2025 13.88 17.2025 12.7351C17.2025 11.5902 16.273 10.6621 15.1264 10.6621C13.9798 10.6621 13.0503 11.5902 13.0503 12.7351C13.0503 13.88 13.9798 14.8081 15.1264 14.8081Z" fill="#0A1E25"/>
<path d="M2.07608 7.99626C3.22267 7.99626 4.15216 7.06816 4.15216 5.92328C4.15216 4.7784 3.22267 3.8503 2.07608 3.8503C0.929492 3.8503 0 4.7784 0 5.92328C0 7.06816 0.929492 7.99626 2.07608 7.99626Z" fill="#0A1E25"/>
<path d="M15.1273 7.40485C15.9464 7.40485 16.6104 6.74152 16.6104 5.92326C16.6104 5.105 15.9464 4.44167 15.1273 4.44167C14.3082 4.44167 13.6441 5.105 13.6441 5.92326C13.6441 6.74152 14.3082 7.40485 15.1273 7.40485Z" fill="#0A1E25"/>
<path d="M2.07695 14.2168C2.89607 14.2168 3.56009 13.5535 3.56009 12.7352C3.56009 11.9169 2.89607 11.2536 2.07695 11.2536C1.25784 11.2536 0.593818 11.9169 0.593818 12.7352C0.593818 13.5535 1.25784 14.2168 2.07695 14.2168Z" fill="#0A1E25"/>
<path d="M8.60222 4.14597C9.74881 4.14597 10.6783 3.21786 10.6783 2.07298C10.6783 0.928106 9.74881 0 8.60222 0C7.45563 0 6.52614 0.928106 6.52614 2.07298C6.52614 3.21786 7.45563 4.14597 8.60222 4.14597Z" fill="#0A1E25"/>
<path d="M8.60222 18.6584C9.74881 18.6584 10.6783 17.7303 10.6783 16.5854C10.6783 15.4405 9.74881 14.5124 8.60222 14.5124C7.45563 14.5124 6.52614 15.4405 6.52614 16.5854C6.52614 17.7303 7.45563 18.6584 8.60222 18.6584Z" fill="#0A1E25"/>
<path fill-rule="evenodd" clip-rule="evenodd" d="M29.0689 5.03463C29.6513 5.03406 30.2278 5.15193 30.7633 5.38108C31.2987 5.61023 31.782 5.94586 32.1838 6.36759L33.6514 4.90149C32.7695 3.98999 31.6354 3.36263 30.3946 3.09983C29.1538 2.83703 27.8628 2.95077 26.6871 3.42647C25.5113 3.90216 24.5044 4.71814 23.7954 5.7698C23.0865 6.82146 22.7077 8.06089 22.7077 9.32922C22.7077 10.5975 23.0865 11.837 23.7954 12.8886C24.5044 13.9403 25.5113 14.7563 26.6871 15.232C27.8628 15.7077 29.1538 15.8214 30.3946 15.5586C31.6354 15.2958 32.7695 14.6685 33.6514 13.7569L32.1838 12.2908C31.6939 12.807 31.0835 13.1934 30.4074 13.4155C29.7314 13.6375 29.0107 13.6882 28.3102 13.5629C27.6097 13.4377 26.9513 13.1405 26.394 12.698C25.8367 12.2555 25.398 11.6815 25.1173 11.0276C24.8366 10.3737 24.7227 9.66032 24.7857 8.95151C24.8488 8.2427 25.0869 7.56064 25.4786 6.96656C25.8703 6.37247 26.4034 5.88495 27.03 5.54775C27.6567 5.21056 28.3573 5.03424 29.0689 5.03463Z" fill="#0A1E25"/>
<path fill-rule="evenodd" clip-rule="evenodd" d="M79.9373 15.4011V10.8108C79.897 8.67746 78.7452 6.96674 76.4508 6.96674C75.7201 6.96674 74.5791 7.44667 74.1534 8.00246L73.932 7.11382H72.229V15.4011H74.1565V10.6622C74.1565 9.40974 75.0528 8.80441 76.1582 8.80441C77.4122 8.80441 78.016 9.69924 78.016 10.8046V15.4011H79.9373Z" fill="#0A1E25"/>
<path fill-rule="evenodd" clip-rule="evenodd" d="M66.3666 6.96674C63.8121 6.96674 61.9915 8.78738 61.9915 11.3341C61.9915 13.8808 63.8121 15.703 66.3666 15.703C68.921 15.703 70.7417 13.8808 70.7417 11.3341C70.7417 8.78738 68.9226 6.96674 66.3666 6.96674ZM66.3666 13.9876C64.8184 13.9876 63.7099 12.8807 63.7099 11.3341C63.7099 9.78749 64.8153 8.66972 66.3666 8.66972C67.9178 8.66972 69.0248 9.7751 69.0248 11.3217C69.0248 12.8683 67.9194 13.9814 66.3666 13.9814V13.9876Z" fill="#0A1E25"/>
<path fill-rule="evenodd" clip-rule="evenodd" d="M47.3482 8.16344L47.1268 7.27634H45.5306V15.5481H47.3482V10.4779C47.3482 9.57691 49.0341 8.67743 50.4305 8.96074L50.573 7.12927C48.8917 6.98684 47.7739 7.60765 47.3482 8.16344Z" fill="#0A1E25"/>
<path fill-rule="evenodd" clip-rule="evenodd" d="M41.6527 7.82591C40.8957 7.2485 39.9649 6.94553 39.0131 6.96668C36.7048 6.96668 34.8517 8.91117 34.8517 11.334C34.8517 13.7569 36.7095 15.7029 39.0131 15.7029C39.9659 15.7219 40.8967 15.4161 41.6527 14.836V15.4815H43.4532V7.17259H41.6527V7.82591ZM39.2051 13.9814C38.5126 13.9647 37.8541 13.6778 37.3703 13.1822C36.8865 12.6865 36.6156 12.0213 36.6156 11.3286C36.6156 10.636 36.8865 9.97074 37.3703 9.47507C37.8541 8.97941 38.5126 8.69258 39.2051 8.67585C40.6542 8.67585 41.6821 9.86328 41.6821 11.3278C41.6821 12.7924 40.6542 13.9814 39.2051 13.9814Z" fill="#0A1E25"/>
<path fill-rule="evenodd" clip-rule="evenodd" d="M56.6434 7.055C55.692 7.03525 54.7618 7.33748 54.0038 7.91268V3.11339H52.2033V15.4987H53.7855L54.0038 14.85C54.7618 15.4252 55.692 15.7274 56.6434 15.7077C58.9517 15.7077 60.8048 13.7833 60.8048 11.3867C60.8048 8.9902 58.9517 7.055 56.6434 7.055ZM56.4514 14C55.151 14 53.9744 12.9736 53.9744 11.3682C53.9744 9.76273 55.1479 8.7363 56.4514 8.7363C57.1126 8.78712 57.7302 9.08564 58.1807 9.57215C58.6313 10.0587 58.8816 10.6973 58.8816 11.3604C58.8816 12.0235 58.6313 12.6622 58.1807 13.1487C57.7302 13.6352 57.1126 13.9337 56.4514 13.9846V14Z" fill="#0A1E25"/>
<path fill-rule="evenodd" clip-rule="evenodd" d="M93.1786 8.71152H87.3266V3.55461H85.4239V15.4011H87.3266V10.4532H93.1786V15.4011H95.0642V3.55461H93.1786V8.71152Z" fill="#0A1E25"/>
<path fill-rule="evenodd" clip-rule="evenodd" d="M135.996 15.5482V10.9037C135.955 8.74556 134.805 7.00698 132.511 7.00698C131.78 7.00698 130.639 7.4931 130.212 8.05663V2.96164H128.284V15.5482H130.212V10.7489C130.212 9.48248 131.108 8.87561 132.213 8.87561C133.468 8.87561 134.071 9.78128 134.071 10.899V15.5435L135.996 15.5482Z" fill="#0A1E25"/>
<path fill-rule="evenodd" clip-rule="evenodd" d="M117.013 15.5482L118.82 15.5513V2.96164H117.013V15.5482Z" fill="#0A1E25"/>
<path fill-rule="evenodd" clip-rule="evenodd" d="M100.83 6.96674C98.3085 6.96674 96.5482 8.86943 96.5482 11.3279C96.5482 13.7864 98.3177 15.6968 100.937 15.6968C102.535 15.6968 103.857 15.0156 104.478 14.0558L103.281 13.1114C102.595 13.904 101.923 14.0883 100.94 14.0883C99.2931 14.0883 98.5778 13.1594 98.4633 11.8775H104.958C105.309 9.0645 103.592 6.96674 100.83 6.96674ZM98.5082 10.6096C98.6413 9.48405 99.4711 8.53193 100.852 8.53193C102.143 8.53193 103.029 9.24718 103.136 10.6096H98.5082Z" fill="#0A1E25"/>
<path fill-rule="evenodd" clip-rule="evenodd" d="M113.106 7.82591C112.349 7.2485 111.418 6.94553 110.467 6.96668C108.158 6.96668 106.305 8.91117 106.305 11.334C106.305 13.7569 108.163 15.7029 110.467 15.7029C111.419 15.7219 112.35 15.4161 113.106 14.836V15.4815H114.907V7.17259H113.106V7.82591ZM110.659 13.9814C109.966 13.9647 109.308 13.6778 108.824 13.1822C108.34 12.6865 108.069 12.0213 108.069 11.3286C108.069 10.636 108.34 9.97074 108.824 9.47507C109.308 8.97941 109.966 8.69258 110.659 8.67585C112.108 8.67585 113.136 9.86328 113.136 11.3278C113.136 12.7924 112.108 13.9814 110.659 13.9814Z" fill="#0A1E25"/>
<path fill-rule="evenodd" clip-rule="evenodd" d="M125.138 14.0046C124.122 14.0046 123.526 13.4922 123.526 12.3016V8.87865H125.918V7.34442H123.526V4.59025H121.706V7.34442H119.983V8.87865H121.709V12.2939C121.709 14.4272 122.83 15.6998 124.93 15.6998C125.571 15.7047 126.206 15.5913 126.805 15.3654L126.542 13.6903C126.099 13.8853 125.622 13.9921 125.138 14.0046Z" fill="#0A1E25"/>
</g>
<defs>
<clipPath id="clip0_5_16894">
<rect width="135.981" height="18.6562" fill="white"/>
</clipPath>
</defs>
</svg>
