<svg width="56" height="56" viewBox="0 0 56 56" fill="none" xmlns="http://www.w3.org/2000/svg">
<g clip-path="url(#clip0_4_15979)">
<g clip-path="url(#clip1_4_15979)">
<g clip-path="url(#clip2_4_15979)">
<path d="M0 9.33333C0 4.17867 4.17867 0 9.33333 0H46.6667C51.8214 0 56 4.17867 56 9.33333V46.6667C56 51.8214 51.8214 56 46.6667 56H9.33333C4.17867 56 0 51.8214 0 46.6667V9.33333Z" fill="#1BD760"/>
<mask id="mask0_4_15979" style="mask-type:luminance" maskUnits="userSpaceOnUse" x="9" y="9" width="38" height="38">
<path d="M46.1999 9.33325H9.79988V46.6666H46.1999V9.33325Z" fill="white"/>
</mask>
<g mask="url(#mask0_4_15979)">
<path d="M27.999 9.39478C17.9783 9.39478 9.85458 17.7266 9.85458 28.0041C9.85458 38.2821 17.9783 46.6132 27.999 46.6132C38.0206 46.6132 46.1434 38.2821 46.1434 28.0041C46.1434 17.7273 38.0209 9.39478 27.999 9.39478ZM36.3197 36.2348C35.9948 36.7815 35.2972 36.9548 34.7641 36.6192C30.504 33.9504 25.1411 33.3459 18.8252 34.8259C18.2166 34.9682 17.6099 34.577 17.4713 33.9526C17.332 33.3282 17.7118 32.7059 18.3219 32.5637C25.2336 30.9435 31.1623 31.6414 35.9449 34.6393C36.4779 34.9748 36.647 35.6881 36.3197 36.2348ZM38.5406 31.167C38.1311 31.8504 37.2601 32.0658 36.5949 31.6458C31.7178 28.5705 24.2832 27.6801 18.5145 29.4761C17.7664 29.7079 16.9762 29.2754 16.7491 28.5095C16.5237 27.7422 16.9456 26.9332 17.6925 26.6999C24.2819 24.6492 32.4739 25.6425 38.0748 29.1725C38.74 29.5925 38.9501 30.4857 38.5406 31.167ZM38.7312 25.8906C32.8834 22.3281 23.2352 22.0005 17.652 23.7385C16.7554 24.0175 15.8073 23.4983 15.5356 22.5787C15.2638 21.6588 15.7696 20.687 16.6668 20.4075C23.076 18.4119 33.7306 18.7975 40.4633 22.8968C41.2714 23.3877 41.5358 24.4559 41.057 25.2819C40.5803 26.109 39.5351 26.3817 38.7312 25.8906Z" fill="black"/>
</g>
</g>
</g>
</g>
<defs>
<clipPath id="clip0_4_15979">
<rect width="56" height="56" rx="10" fill="white"/>
</clipPath>
<clipPath id="clip1_4_15979">
<rect width="56" height="56" fill="white"/>
</clipPath>
<clipPath id="clip2_4_15979">
<rect width="56" height="56" fill="white"/>
</clipPath>
</defs>
</svg>
