<svg width="130" height="89" viewBox="0 0 130 89" fill="none" xmlns="http://www.w3.org/2000/svg">
<path d="M64.9998 79.5516C84.5265 79.5516 100.356 63.7221 100.356 44.1954C100.356 24.6686 84.5265 8.83911 64.9998 8.83911C45.4731 8.83911 29.6436 24.6686 29.6436 44.1954C29.6436 63.7221 45.4731 79.5516 64.9998 79.5516Z" fill="#E6EEFF"/>
<g filter="url(#filter0_dd_4_10988)">
<path d="M102.124 18.562H27.8759C23.9706 18.562 20.8047 21.7279 20.8047 25.6333V62.7573C20.8047 66.6627 23.9706 69.8286 27.8759 69.8286H102.124C106.029 69.8286 109.195 66.6627 109.195 62.7573V25.6333C109.195 21.7279 106.029 18.562 102.124 18.562Z" fill="white"/>
</g>
<path d="M64.4455 23.8655H28.4299C27.1475 23.8655 26.1079 24.9051 26.1079 26.1875V62.203C26.1079 63.4855 27.1475 64.5251 28.4299 64.5251H64.4455C65.7279 64.5251 66.7675 63.4855 66.7675 62.203V26.1875C66.7675 24.9051 65.7279 23.8655 64.4455 23.8655Z" fill="#F5F8FF"/>
<path d="M49.8354 39.1372V57.27L37.0889 57.3424V39.1372H49.8354Z" fill="#76A5FF"/>
<path d="M59.7339 39.1545H49.832V57.2873H59.7339V39.1545Z" fill="white"/>
<path d="M53.0734 31.7136L48.897 40.3101H47.8069L37.8158 38.9246L37.0497 40.3101H36.209L42.824 31.7448L53.0734 31.7136Z" fill="#3D7FFC"/>
<path d="M53.5744 31.7136L49.398 40.3101H36.71L43.3249 31.7448L53.5744 31.7136Z" fill="#76A5FF"/>
<path d="M61.1154 40.7869H49.5982L42.791 31.7131L46.6233 31.7139L54.1096 31.7153L61.1154 40.7869Z" fill="#3D7FFC"/>
<path d="M61.1152 40.7866H59.005L46.623 31.7136L54.1094 31.715L61.1152 40.7866Z" fill="#3D7FFC"/>
<path d="M43.0721 43.9303L40.3463 49.5411H32.0649L36.3824 43.9507L43.0721 43.9303Z" fill="#3D7FFC"/>
<path d="M43.3227 43.9303L40.5968 49.5411H32.3154L36.633 43.9507L43.3227 43.9303Z" fill="#76A5FF"/>
<path d="M40.5787 49.5413V57.3641L32.3154 57.2773V49.5413H40.5787Z" fill="#76A5FF"/>
<path d="M47.5741 49.5413V57.2773L40.5767 57.3641V49.5413H47.5741Z" fill="white"/>
<path d="M48.3425 49.8734H40.8257L36.3823 43.951L38.6213 43.9516L43.7701 43.9526L48.3425 49.8734Z" fill="#5D5FEF"/>
<path d="M48.3432 49.873H46.9166L38.6221 43.9513L43.7707 43.9524L48.3432 49.873Z" fill="#5D5FEF"/>
<path d="M48.3451 49.8732H40.8281V50.0777H48.3451V49.8732Z" fill="#3D7FFC"/>
<path d="M40.8246 50.0779L36.2593 44.1092L36.3813 43.951L40.8246 49.8734V50.0779Z" fill="#3D7FFC"/>
<path d="M61.0352 40.7864H49.5962V41.1383H61.0352V40.7864Z" fill="#3D7FFC"/>
<path d="M42.6651 31.9511C42.6524 31.9674 49.5979 41.1386 49.5979 41.1386V40.7868L42.7907 31.713L42.6651 31.9511Z" fill="#3D7FFC"/>
<path d="M70.3032 50.3827C70.3032 49.4063 71.0947 48.6149 72.071 48.6149H102.124C103.101 48.6149 103.892 49.4063 103.892 50.3827V62.7574C103.892 63.7337 103.101 64.5252 102.124 64.5252H72.071C71.0947 64.5252 70.3032 63.7337 70.3032 62.7574V50.3827Z" fill="#E7EEFF"/>
<mask id="mask0_4_10988" style="mask-type:alpha" maskUnits="userSpaceOnUse" x="70" y="48" width="34" height="16">
<path d="M70.3032 48.6149H103.892V63.6413H70.3032V48.6149Z" fill="#C6DBFF"/>
</mask>
<g mask="url(#mask0_4_10988)">
<mask id="mask1_4_10988" style="mask-type:alpha" maskUnits="userSpaceOnUse" x="70" y="47" width="34" height="16">
<path d="M103.781 47.2234H70.4146V62.779H103.781V47.2234Z" fill="#F5F8FF" stroke="black" stroke-width="0.222153"/>
</mask>
<g mask="url(#mask1_4_10988)">
<path opacity="0.8" d="M67.8444 65.3552C66.756 65.3538 66.161 64.0855 66.8556 63.2476C66.984 63.0926 67.1471 62.9699 67.3316 62.8894L69.1978 62.0751C70.5819 61.4711 71.8237 60.583 72.8427 59.4684L75.1009 56.9984C75.5825 56.4716 76.1483 56.0284 76.7752 55.687L76.9414 55.5965C78.5911 54.6981 80.564 54.6154 82.2829 55.3727L82.3343 55.3953C83.108 55.7361 83.7979 56.2419 84.3558 56.8771L85.192 57.8291C86.8003 59.6601 89.4684 60.1205 91.5974 58.9344C92.3239 58.5296 92.9423 57.9555 93.3998 57.261L96.0612 53.2218C96.6021 52.3995 97.3526 51.7357 98.2347 51.298C99.9795 50.4323 102.05 50.5417 103.694 51.5864L104.604 52.1648L109.026 55.8743L112.063 58.8029C112.931 59.6406 114.159 59.9908 115.339 59.737C116.624 59.4605 117.919 60.1544 118.401 61.3768L118.455 61.5139C119.195 63.3909 117.81 65.423 115.793 65.4202L67.8444 65.3552Z" stroke="#3D7FFC" stroke-width="0.936949"/>
<path d="M67.722 64.6293C67.1655 64.6287 66.8955 63.9486 67.3 63.5665C67.364 63.5061 67.4403 63.46 67.5236 63.4316L69.1375 62.8798C70.2654 62.4944 71.3098 61.898 72.215 61.1225L73.8178 59.7497C74.2888 59.3462 74.8185 59.0173 75.3888 58.7739L75.4986 58.7271C76.8163 58.1648 78.2959 58.1123 79.6502 58.5797L79.7896 58.6278C80.4205 58.8456 81.0019 59.1864 81.5001 59.6307L82.0397 60.1119C83.4535 61.3724 85.4716 61.6947 87.2076 60.9372C87.8922 60.6384 88.4986 60.1856 88.9795 59.6139L90.7975 57.4526C91.355 56.7898 92.0704 56.2779 92.8777 55.9641C94.2326 55.4374 95.7468 55.5065 97.0486 56.1543L97.8883 56.5724L101.474 58.9286L103.889 60.7526C104.65 61.3281 105.616 61.5644 106.558 61.4057L107.166 61.3029C107.9 61.1793 108.629 61.5482 108.964 62.213C109.531 63.3418 108.71 64.6731 107.446 64.6718L67.722 64.6293Z" stroke="#5D5FEF" stroke-width="0.936949"/>
</g>
</g>
<path d="M75.1648 33.5885C74.2033 33.5885 73.2633 33.3035 72.4638 32.7692C71.6643 32.235 71.0413 31.4758 70.6733 30.5874C70.3053 29.6991 70.2091 28.7216 70.3966 27.7786C70.5842 26.8355 71.0472 25.9692 71.7271 25.2893C72.407 24.6094 73.2732 24.1464 74.2163 23.9589C75.1594 23.7713 76.1368 23.8676 77.0251 24.2355C77.9135 24.6035 78.6727 25.2266 79.207 26.0261C79.7412 26.8256 80.0263 27.7655 80.0263 28.727C80.0248 30.0159 79.5121 31.2516 78.6007 32.1629C77.6893 33.0743 76.4537 33.5871 75.1648 33.5885Z" fill="#FECE4D"/>
<path d="M75.1311 31.1622C74.7313 31.1617 74.3479 31.0027 74.0653 30.7199C73.7825 30.4373 73.6235 30.0539 73.623 29.6541H74.6284C74.6284 29.7874 74.6813 29.9153 74.7757 30.0095C74.8699 30.1038 74.9978 30.1568 75.1311 30.1568C75.2644 30.1568 75.3923 30.1038 75.4865 30.0095C75.5808 29.9153 75.6338 29.7874 75.6338 29.6541C75.6338 29.4762 75.3322 29.3113 74.9064 29.0987C74.365 28.8278 73.623 28.4568 73.623 27.6434C73.623 27.2434 73.782 26.8599 74.0647 26.5771C74.3476 26.2943 74.7311 26.1354 75.1311 26.1354C75.531 26.1354 75.9146 26.2943 76.1974 26.5771C76.4803 26.8599 76.6391 27.2434 76.6391 27.6434H75.6338C75.6338 27.5101 75.5808 27.3822 75.4865 27.288C75.3923 27.1937 75.2644 27.1407 75.1311 27.1407C74.9978 27.1407 74.8699 27.1937 74.7757 27.288C74.6813 27.3822 74.6284 27.5101 74.6284 27.6434C74.6284 27.8213 74.93 27.9863 75.3558 28.1989C75.8972 28.4699 76.6391 28.8408 76.6391 29.6541C76.6387 30.0539 76.4797 30.4373 76.1969 30.7199C75.9142 31.0027 75.5309 31.1617 75.1311 31.1622Z" fill="white"/>
<path d="M75.6343 25.6333H74.6289V26.6387H75.6343V25.6333Z" fill="white"/>
<path d="M75.6343 30.6594H74.6289V31.6648H75.6343V30.6594Z" fill="white"/>
<path d="M75.1648 45.2037C77.8497 45.2037 80.0263 43.0271 80.0263 40.3421C80.0263 37.6572 77.8497 35.4806 75.1648 35.4806C72.4798 35.4806 70.3032 37.6572 70.3032 40.3421C70.3032 43.0271 72.4798 45.2037 75.1648 45.2037Z" fill="#5D5FEF"/>
<path fill-rule="evenodd" clip-rule="evenodd" d="M75.1986 43.3146C74.1454 42.0492 73.2915 40.9264 73.2915 39.8883C73.2915 38.8501 74.1454 38.0079 75.1986 38.0079C76.2518 38.0079 77.1057 38.8497 77.1057 39.8883C77.1057 40.9269 76.2518 42.0492 75.1986 43.3146Z" fill="white"/>
<path d="M82.6777 27.5858C82.6777 27.0643 83.1005 26.6415 83.6221 26.6415H91.8983C92.4199 26.6415 92.8427 27.0643 92.8427 27.5858C92.8427 28.1073 92.4199 28.5302 91.8983 28.5302H83.6221C83.1005 28.5302 82.6777 28.1073 82.6777 27.5858Z" fill="#E7EEFF"/>
<path d="M82.6777 39.0766C82.6777 38.555 83.1005 38.1322 83.6221 38.1322H91.8983C92.4199 38.1322 92.8427 38.555 92.8427 39.0766C92.8427 39.5981 92.4199 40.0209 91.8983 40.0209H83.6221C83.1005 40.0209 82.6777 39.5981 82.6777 39.0766Z" fill="#E7EEFF"/>
<path d="M82.6777 31.3631C82.6777 30.8416 83.1005 30.4188 83.6221 30.4188H101.622C102.143 30.4188 102.566 30.8416 102.566 31.3631C102.566 31.8847 102.143 32.3075 101.622 32.3075H83.6221C83.1005 32.3075 82.6777 31.8847 82.6777 31.3631Z" fill="#E7EEFF"/>
<path d="M82.6777 42.8539C82.6777 42.3324 83.1005 41.9097 83.6221 41.9097H101.622C102.143 41.9097 102.566 42.3324 102.566 42.8539C102.566 43.3755 102.143 43.7983 101.622 43.7983H83.6221C83.1005 43.7983 82.6777 43.3755 82.6777 42.8539Z" fill="#E7EEFF"/>
<defs>
<filter id="filter0_dd_4_10988" x="10.1978" y="9.72295" width="109.604" height="72.4804" filterUnits="userSpaceOnUse" color-interpolation-filters="sRGB">
<feFlood flood-opacity="0" result="BackgroundImageFix"/>
<feColorMatrix in="SourceAlpha" type="matrix" values="0 0 0 0 0 0 0 0 0 0 0 0 0 0 0 0 0 0 127 0" result="hardAlpha"/>
<feOffset dy="3.53562"/>
<feGaussianBlur stdDeviation="4.41953"/>
<feColorMatrix type="matrix" values="0 0 0 0 0.607843 0 0 0 0 0.67451 0 0 0 0 0.737255 0 0 0 0.35 0"/>
<feBlend mode="normal" in2="BackgroundImageFix" result="effect1_dropShadow_4_10988"/>
<feColorMatrix in="SourceAlpha" type="matrix" values="0 0 0 0 0 0 0 0 0 0 0 0 0 0 0 0 0 0 127 0" result="hardAlpha"/>
<feOffset dy="1.76781"/>
<feGaussianBlur stdDeviation="5.30344"/>
<feColorMatrix type="matrix" values="0 0 0 0 0.89625 0 0 0 0 0.930414 0 0 0 0 0.995833 0 0 0 0.5 0"/>
<feBlend mode="normal" in2="effect1_dropShadow_4_10988" result="effect2_dropShadow_4_10988"/>
<feBlend mode="normal" in="SourceGraphic" in2="effect2_dropShadow_4_10988" result="shape"/>
</filter>
</defs>
</svg>
