<svg width="7" height="5" viewBox="0 0 7 5" fill="none" xmlns="http://www.w3.org/2000/svg">
<path d="M6.5808 0.447935C6.85933 0.746212 6.99964 1.16609 6.99964 1.70756V4.8639C6.99964 4.89508 6.98821 4.92312 6.96535 4.94495C6.94249 4.96677 6.9165 4.9782 6.88428 4.9782H5.77223C5.74105 4.9782 5.71403 4.96781 5.69221 4.94495C5.67038 4.92312 5.65791 4.89508 5.65791 4.8639V2.00272C5.65791 1.7429 5.59139 1.53503 5.45836 1.38329C5.32533 1.23052 5.14762 1.15362 4.92625 1.15362C4.70488 1.15362 4.52405 1.23052 4.38478 1.38329C4.24448 1.53503 4.17588 1.73874 4.17588 1.99336V4.8639C4.17588 4.89508 4.16445 4.92312 4.14158 4.94495C4.11872 4.96677 4.09273 4.9782 4.06051 4.9782H2.95783C2.92666 4.9782 2.89963 4.96781 2.87677 4.94495C2.85494 4.92312 2.84247 4.89508 2.84247 4.8639V2.00272C2.84247 1.74809 2.77284 1.54336 2.63358 1.38746C2.49327 1.23157 2.31243 1.15362 2.0921 1.15362C1.88943 1.15362 1.72004 1.2139 1.58285 1.33549C1.44671 1.45605 1.36563 1.62441 1.33965 1.84058V4.8639C1.33965 4.89508 1.32823 4.92312 1.30744 4.94495C1.28562 4.96677 1.25858 4.9782 1.22533 4.9782H0.113292C0.0821132 4.9782 0.0550886 4.96781 0.0322242 4.94495C0.010399 4.92312 0 4.89508 0 4.8639V0.190189C0 0.15901 0.010399 0.131993 0.0322242 0.110168C0.0540493 0.0883428 0.0810739 0.0758663 0.113292 0.0758663H1.22533C1.25651 0.0758663 1.28354 0.0873035 1.30744 0.110168C1.32823 0.131993 1.33965 0.15901 1.33965 0.190189V0.562258C1.33965 0.582004 1.34589 0.594478 1.35836 0.600714C1.37083 0.607989 1.38435 0.600709 1.39682 0.582001C1.6556 0.193306 2.05884 0 2.60343 0C2.91938 0 3.1979 0.0665235 3.43382 0.200592C3.67078 0.333622 3.85371 0.524839 3.98154 0.77219C4.00025 0.810644 4.02207 0.810644 4.04805 0.77219C4.18731 0.512367 4.37646 0.316983 4.61446 0.190189C4.85142 0.0644347 5.11853 0 5.41784 0C5.91151 0 6.29915 0.149658 6.57665 0.447935H6.5808Z" fill="white"/>
</svg>
