<svg width="132" height="89" viewBox="0 0 132 89" fill="none" xmlns="http://www.w3.org/2000/svg">
<g clip-path="url(#clip0_4_10768)">
<path d="M65.116 79.5516C84.6427 79.5516 100.472 63.722 100.472 44.1953C100.472 24.6686 84.6427 8.83905 65.116 8.83905C45.5893 8.83905 29.7598 24.6686 29.7598 44.1953C29.7598 63.722 45.5893 79.5516 65.116 79.5516Z" fill="#E6EEFF"/>
<g filter="url(#filter0_dd_4_10768)">
<path d="M104.892 34.4724H29.76C24.8783 34.4724 20.9209 38.4297 20.9209 43.3114C20.9209 48.1931 24.8783 52.1505 29.76 52.1505H104.892C109.774 52.1505 113.731 48.1931 113.731 43.3114C113.731 38.4297 109.774 34.4724 104.892 34.4724Z" fill="white"/>
</g>
<path d="M88.9609 38.6191V47.6415" stroke="#D3E0EC" stroke-width="0.883906"/>
<path d="M101.82 43.7706L104.951 46.847L104.005 47.7758L100.875 44.699L101.466 44.3947L101.501 44.8651C100.764 45.4924 99.8181 45.8328 98.8432 45.8224C98.3013 45.8325 97.7639 45.7335 97.2628 45.5313C96.7625 45.3292 96.309 45.0283 95.9312 44.6473C95.545 44.2783 95.2397 43.8355 95.0343 43.3462C94.8289 42.8569 94.7277 42.3314 94.7369 41.8021C94.7281 41.2729 94.8295 40.7475 95.0352 40.2582C95.2409 39.769 95.5464 39.3263 95.9327 38.9575C96.3081 38.5777 96.7589 38.2777 97.2566 38.0755C97.7542 37.8734 98.289 37.7737 98.8273 37.7823C99.3665 37.7737 99.9012 37.8734 100.399 38.0755C100.896 38.2777 101.347 38.5777 101.722 38.9575C102.11 39.3289 102.416 39.7744 102.622 40.2665C102.828 40.7586 102.929 41.2869 102.918 41.8189C102.929 42.7772 102.582 43.7062 101.944 44.4307L101.679 44.0975L101.82 43.7706ZM96.8341 43.7908C97.0948 44.054 97.4068 44.2619 97.7524 44.4017C98.098 44.5415 98.4693 44.6104 98.8423 44.604C99.2153 44.6054 99.5848 44.5342 99.9295 44.3947C100.274 44.2552 100.587 44.0499 100.851 43.7909C101.115 43.5319 101.323 43.2241 101.466 42.8854C101.607 42.5467 101.68 42.1836 101.679 41.8173C101.68 41.4509 101.608 41.0878 101.466 40.749C101.323 40.4102 101.115 40.1024 100.851 39.8433C100.588 39.5842 100.274 39.379 99.9295 39.2395C99.5848 39.1 99.2153 39.0291 98.8423 39.0307C98.4693 39.029 98.0998 39.0999 97.7551 39.2393C97.4104 39.3787 97.0975 39.584 96.8332 39.8431C96.5698 40.1021 96.3612 40.41 96.2189 40.7489C96.0774 41.0878 96.005 41.4509 96.0068 41.8173C96 42.1843 96.0704 42.5488 96.2118 42.8883C96.3541 43.2277 96.5662 43.5349 96.8341 43.7908Z" fill="#B8C4D0"/>
<path d="M50.2762 31.1232C47.6566 33.7429 45.8727 37.0806 45.1499 40.7141C44.4272 44.3477 44.7982 48.114 46.2159 51.5368C47.6337 54.9595 50.0346 57.8849 53.115 59.9432C56.1954 62.0014 59.8169 63.1 63.5216 63.1C67.2264 63.1 70.848 62.0014 73.9284 59.9432C77.0087 57.8849 79.4096 54.9595 80.8274 51.5368C82.2452 48.114 82.6161 44.3477 81.8934 40.7141C81.1707 37.0806 79.3867 33.7429 76.7671 31.1232C75.0277 29.3838 72.9627 28.004 70.69 27.0626C68.4174 26.1213 65.9815 25.6367 63.5216 25.6367C61.0617 25.6367 58.6259 26.1213 56.3532 27.0626C54.0806 28.004 52.0156 29.3838 50.2762 31.1232ZM74.2167 55.0637C72.1012 57.1805 69.4054 58.6222 66.4703 59.2068C63.5352 59.7912 60.4928 59.4921 57.7278 58.3473C54.9628 57.2024 52.5994 55.2632 50.9365 52.775C49.2737 50.2868 48.3862 47.3614 48.3862 44.3687C48.3862 41.376 49.2737 38.4505 50.9365 35.9623C52.5994 33.4741 54.9628 31.5349 57.7278 30.3901C60.4928 29.2453 63.5352 28.9462 66.4703 29.5306C69.4054 30.1151 72.1012 31.5569 74.2167 33.6736C77.0521 36.5107 78.6449 40.3576 78.6449 44.3687C78.6449 48.3797 77.0521 52.2267 74.2167 55.0637Z" fill="#3D7FFC"/>
<path d="M78.5863 55.3586L74.5107 59.434L76.039 60.9624L80.1145 56.8869L78.5863 55.3586Z" fill="#C6DBFF"/>
<path d="M80.6256 56.3959L75.5312 61.4902L88.7765 74.7354L93.8709 69.6411L80.6256 56.3959Z" fill="#091B36"/>
<path d="M80.6259 56.3898L79.6074 57.409L92.8574 70.6497L93.8759 69.6304L80.6259 56.3898Z" fill="#091B36"/>
<path d="M90.312 76.2704L91.8394 77.7978C92.5149 78.4731 93.431 78.8525 94.3862 78.8525C95.3414 78.8525 96.2571 78.4731 96.9333 77.7978C97.6086 77.1222 97.9878 76.2061 97.9878 75.251C97.9878 74.2958 97.6086 73.3798 96.9333 72.7042L95.4056 71.1769L90.312 76.2704Z" fill="#091B36"/>
<path d="M93.8726 69.6458L88.7783 74.7401L90.3066 76.2685L95.401 71.1741L93.8726 69.6458Z" fill="#091B36"/>
<path d="M52.3513 33.1612C50.1344 35.3777 48.6246 38.2018 48.0128 41.2765C47.401 44.3512 47.7147 47.5382 48.9142 50.4345C50.1138 53.3308 52.1453 55.8064 54.7519 57.5481C57.3584 59.2898 60.4229 60.2195 63.5579 60.2195C66.6928 60.2195 69.7573 59.2898 72.3639 57.5481C74.9704 55.8064 77.0019 53.3308 78.2015 50.4345C79.401 47.5382 79.7147 44.3512 79.103 41.2765C78.4911 38.2018 76.9813 35.3777 74.7644 33.1612C71.7921 30.1893 67.761 28.5198 63.5579 28.5198C59.3547 28.5198 55.3237 30.1893 52.3513 33.1612ZM74.2529 55.0628C72.1373 57.1795 69.4416 58.6213 66.5065 59.2057C63.5715 59.7903 60.529 59.4911 57.764 58.3462C54.9989 57.2014 52.6355 55.2623 50.9727 52.7741C49.3099 50.2858 48.4223 47.3604 48.4223 44.3677C48.4223 41.375 49.3099 38.4496 50.9727 35.9614C52.6355 33.4732 54.9989 31.534 57.764 30.3892C60.529 29.2443 63.5715 28.9452 66.5065 29.5296C69.4416 30.1141 72.1373 31.5559 74.2529 33.6727C77.0836 36.5145 78.6699 40.3641 78.6631 44.3751C78.6564 48.3862 77.0571 52.2305 74.2169 55.0628H74.2529Z" fill="#3D7FFC"/>
</g>
<defs>
<filter id="filter0_dd_4_10768" x="10.314" y="25.6333" width="114.024" height="38.8919" filterUnits="userSpaceOnUse" color-interpolation-filters="sRGB">
<feFlood flood-opacity="0" result="BackgroundImageFix"/>
<feColorMatrix in="SourceAlpha" type="matrix" values="0 0 0 0 0 0 0 0 0 0 0 0 0 0 0 0 0 0 127 0" result="hardAlpha"/>
<feOffset dy="3.53562"/>
<feGaussianBlur stdDeviation="4.41953"/>
<feColorMatrix type="matrix" values="0 0 0 0 0.607843 0 0 0 0 0.67451 0 0 0 0 0.737255 0 0 0 0.35 0"/>
<feBlend mode="normal" in2="BackgroundImageFix" result="effect1_dropShadow_4_10768"/>
<feColorMatrix in="SourceAlpha" type="matrix" values="0 0 0 0 0 0 0 0 0 0 0 0 0 0 0 0 0 0 127 0" result="hardAlpha"/>
<feOffset dy="1.76781"/>
<feGaussianBlur stdDeviation="5.30344"/>
<feColorMatrix type="matrix" values="0 0 0 0 0.89625 0 0 0 0 0.930414 0 0 0 0 0.995833 0 0 0 0.5 0"/>
<feBlend mode="normal" in2="effect1_dropShadow_4_10768" result="effect2_dropShadow_4_10768"/>
<feBlend mode="normal" in="SourceGraphic" in2="effect2_dropShadow_4_10768" result="shape"/>
</filter>
<clipPath id="clip0_4_10768">
<rect width="116.676" height="88.3906" fill="white" transform="translate(7.66211)"/>
</clipPath>
</defs>
</svg>
