<svg width="200" height="40" viewBox="0 0 200 40" fill="none" xmlns="http://www.w3.org/2000/svg">
<g clip-path="url(#clip0_4_12835)">
<path d="M20.0001 13.0001C21.8566 13.0001 23.6371 13.7376 24.9498 15.0503C26.2626 16.3631 27.0001 18.1436 27.0001 20.0001C27.0001 21.8566 26.2626 23.6371 24.9498 24.9498C23.6371 26.2626 21.8566 27.0001 20.0001 27.0001C18.8065 27.0106 17.6321 26.6998 16.6001 26.1001L15.9001 25.7001L15.1001 25.9001L13.8001 26.2001L14.1001 24.9001L14.3001 24.1001L13.9001 23.4001C13.3004 22.3681 12.9895 21.1936 13.0001 20.0001C12.9944 19.0792 13.1715 18.1664 13.5213 17.3146C13.8711 16.4627 14.3865 15.6888 15.0376 15.0376C15.6888 14.3865 16.4627 13.8711 17.3146 13.5213C18.1664 13.1715 19.0792 12.9944 20.0001 13.0001ZM20.0001 11.0001C18.8168 10.9952 17.6443 11.2246 16.5502 11.6752C15.456 12.1257 14.4619 12.7885 13.6252 13.6252C12.7885 14.4619 12.1258 15.456 11.6752 16.5501C11.2246 17.6443 10.9952 18.8168 11.0001 20.0001C10.9818 21.55 11.3975 23.0741 12.2001 24.4001L11.0001 29.0001L15.6001 27.8001C16.9261 28.6027 18.4502 29.0184 20.0001 29.0001C22.387 29.0001 24.6762 28.0519 26.3641 26.364C28.0519 24.6762 29.0001 22.387 29.0001 20.0001C29.0001 17.6131 28.0519 15.3239 26.3641 13.6361C24.6762 11.9483 22.387 11.0001 20.0001 11.0001Z" fill="white"/>
<path d="M17.0001 16C16.6678 16.2114 16.3992 16.5092 16.2231 16.8615C16.0469 17.2138 15.9698 17.6073 16.0001 18C16.0001 21 20.0001 24 22.0001 24C22.3928 24.0302 22.7863 23.9531 23.1386 23.777C23.4908 23.6009 23.7886 23.3323 24.0001 23C24.1003 22.6742 24.1003 22.3258 24.0001 22C23.7886 21.6677 23.4908 21.3991 23.1386 21.223C22.7863 21.0469 22.3928 20.9698 22.0001 21C21.8679 20.9971 21.7366 21.021 21.614 21.0703C21.4914 21.1195 21.38 21.1931 21.2866 21.2865C21.1931 21.3799 21.1196 21.4913 21.0703 21.6139C21.0211 21.7366 20.9972 21.8679 21.0001 22C20.0001 22 18.0001 20 18.0001 19C18.1322 19.0029 18.2635 18.979 18.3861 18.9297C18.5087 18.8805 18.6201 18.8069 18.7135 18.7135C18.807 18.62 18.8805 18.5087 18.9298 18.386C18.979 18.2634 19.0029 18.1321 19.0001 18C19.0303 17.6073 18.9532 17.2138 18.7771 16.8615C18.6009 16.5092 18.3323 16.2114 18.0001 16C17.6743 15.8997 17.3259 15.8997 17.0001 16Z" fill="white"/>
</g>
<g clip-path="url(#clip1_4_12835)">
<path d="M66.8 12.9998C67.0837 12.9759 67.3692 13.012 67.638 13.1056C67.9069 13.1992 68.153 13.3483 68.3605 13.5432C68.568 13.7382 68.7321 13.9745 68.8423 14.237C68.9525 14.4995 69.0062 14.7822 69 15.0668V24.9328C68.9976 25.215 68.938 25.4937 68.8249 25.7521C68.7117 26.0106 68.5474 26.2434 68.3418 26.4366C68.1362 26.6298 67.8936 26.7793 67.6286 26.8761C67.3636 26.9729 67.0817 27.015 66.8 26.9998H53.2C52.9163 27.0238 52.6308 26.9877 52.362 26.8941C52.0931 26.8005 51.847 26.6514 51.6395 26.4565C51.432 26.2615 51.2679 26.0252 51.1577 25.7627C51.0475 25.5002 50.9938 25.2175 51 24.9328V15.0668C51.0024 14.7847 51.062 14.506 51.1751 14.2476C51.2883 13.9891 51.4526 13.7563 51.6582 13.5631C51.8638 13.3699 52.1064 13.2204 52.3714 13.1236C52.6364 13.0268 52.9183 12.9847 53.2 12.9998H66.8ZM67.5 16.4768V15.0668L60 19.2998L52.5 15.0668V16.4768L60 20.6998L67.5 16.4768Z" fill="white"/>
</g>
<g clip-path="url(#clip2_4_12835)">
<path d="M103.6 16.504C103.217 15.1695 102.399 14.0015 101.275 13.186C100.152 12.3705 98.7874 11.9544 97.4 12.004C93.8 12.004 91 14.504 91 17.604C91.0088 18.5651 91.2726 19.5067 91.7646 20.3325C92.2565 21.1583 92.9589 21.8386 93.8 22.304L93.2 24.004L95.3 22.904C95.9467 23.1085 96.6217 23.2098 97.3 23.204H97.8C97.7215 22.8428 97.6879 22.4734 97.7 22.104C97.7829 20.5939 98.4402 19.1727 99.5372 18.1315C100.634 17.0903 102.088 16.5081 103.6 16.504ZM99.2 15.004C99.2996 14.9917 99.4006 15.0006 99.4965 15.0301C99.5924 15.0596 99.6811 15.109 99.7565 15.1751C99.8321 15.2411 99.8928 15.3224 99.9347 15.4135C99.9767 15.5047 99.9989 15.6036 100 15.704C100.001 15.8094 99.9818 15.9141 99.9421 16.0119C99.9024 16.1096 99.8436 16.1984 99.769 16.273C99.6944 16.3475 99.6056 16.4064 99.5079 16.4461C99.4102 16.4858 99.3055 16.5055 99.2 16.504C99.0925 16.5138 98.9841 16.4999 98.8826 16.4632C98.7811 16.4264 98.6889 16.3678 98.6125 16.2915C98.5362 16.2151 98.4776 16.1229 98.4408 16.0214C98.4041 15.9198 98.3902 15.8115 98.4 15.704C98.4004 15.6034 98.4223 15.5042 98.464 15.4127C98.5058 15.3213 98.5665 15.2397 98.6421 15.1735C98.7178 15.1073 98.8066 15.058 98.9028 15.0287C98.999 14.9995 99.1003 14.9911 99.2 15.004ZM94.8 15.004C94.9976 14.9962 95.1906 15.0644 95.3394 15.1946C95.4882 15.3248 95.5815 15.5071 95.6 15.704C95.586 15.9115 95.4972 16.1069 95.3501 16.254C95.203 16.4011 95.0075 16.4899 94.8 16.504C94.6945 16.5055 94.5898 16.4858 94.4921 16.4461C94.3944 16.4064 94.3056 16.3475 94.231 16.273C94.1564 16.1984 94.0976 16.1096 94.0579 16.0119C94.0182 15.9141 93.9985 15.8094 94 15.704C94 15.204 94.3 15.004 94.8 15.004Z" fill="white"/>
<path d="M107 25.9037C107.612 25.4754 108.113 24.9071 108.461 24.2461C108.809 23.5851 108.994 22.8506 109 22.1037C108.982 21.4401 108.832 20.7867 108.561 20.181C108.289 19.5753 107.901 19.0292 107.417 18.5739C106.934 18.1187 106.366 17.7633 105.745 17.5282C105.125 17.293 104.464 17.1827 103.8 17.2037C103.137 17.1827 102.475 17.293 101.855 17.5282C101.234 17.7633 100.666 18.1187 100.183 18.5739C99.6995 19.0292 99.311 19.5753 99.0395 20.181C98.7679 20.7867 98.6186 21.4401 98.6001 22.1037C98.6186 22.7672 98.7679 23.4206 99.0395 24.0263C99.311 24.632 99.6995 25.1782 100.183 25.6334C100.666 26.0887 101.234 26.444 101.855 26.6792C102.475 26.9143 103.137 27.0246 103.8 27.0037C104.517 26.9865 105.227 26.8513 105.9 26.6037L107.6 27.0037L107 25.9037ZM101.5 21.7037C101.393 21.7135 101.284 21.6996 101.183 21.6628C101.081 21.6261 100.989 21.5675 100.913 21.4912C100.836 21.4148 100.778 21.3226 100.741 21.2211C100.704 21.1196 100.69 21.0112 100.7 20.9037C100.699 20.7982 100.718 20.6935 100.758 20.5958C100.798 20.4981 100.857 20.4093 100.931 20.3347C101.006 20.2601 101.094 20.2012 101.192 20.1616C101.29 20.1219 101.395 20.1022 101.5 20.1037C101.608 20.0938 101.716 20.1078 101.817 20.1445C101.919 20.1812 102.011 20.2398 102.088 20.3162C102.164 20.3925 102.222 20.4847 102.259 20.5863C102.296 20.6878 102.31 20.7962 102.3 20.9037C102.2 21.4037 102 21.7037 101.5 21.7037ZM105.2 20.2037C105.308 20.1938 105.416 20.2078 105.517 20.2445C105.619 20.2812 105.711 20.3398 105.788 20.4162C105.864 20.4925 105.922 20.5847 105.959 20.6863C105.996 20.7878 106.01 20.8962 106 21.0037C106 21.2158 105.916 21.4193 105.766 21.5694C105.616 21.7194 105.412 21.8037 105.2 21.8037C104.988 21.8037 104.784 21.7194 104.634 21.5694C104.484 21.4193 104.4 21.2158 104.4 21.0037C104.5 20.5037 104.8 20.2037 105.2 20.2037Z" fill="white"/>
</g>
<g clip-path="url(#clip3_4_12835)">
<path d="M138.089 25.8497C137.527 25.8497 137.623 25.6377 137.429 25.103L135.778 19.6693L148.487 12.1294" fill="#B8C4D0"/>
<path d="M138.383 21.4317L145.368 26.5919C146.165 27.0316 146.74 26.8039 146.938 25.852L149.781 12.4548C150.072 11.2878 149.336 10.7584 148.574 11.1046L131.88 17.5417C130.74 17.9988 130.747 18.6345 131.672 18.9178L135.956 20.255L145.874 13.9978C146.342 13.7139 146.772 13.8664 146.42 14.1795" fill="white"/>
</g>
<g clip-path="url(#clip4_4_12835)">
<path d="M178 29H173V20.529H171L180 11L189 20.529H187V29H182V22.647H178V29Z" fill="white"/>
</g>
<defs>
<clipPath id="clip0_4_12835">
<rect width="18" height="18" fill="white" transform="translate(11 11)"/>
</clipPath>
<clipPath id="clip1_4_12835">
<rect width="18" height="18" fill="white" transform="translate(51 11)"/>
</clipPath>
<clipPath id="clip2_4_12835">
<rect width="18" height="16" fill="white" transform="translate(91 12)"/>
</clipPath>
<clipPath id="clip3_4_12835">
<rect width="18" height="18" fill="white" transform="translate(131 11)"/>
</clipPath>
<clipPath id="clip4_4_12835">
<rect width="18" height="18" fill="white" transform="translate(171 11)"/>
</clipPath>
</defs>
</svg>
