<svg width="120" height="23" viewBox="0 0 120 23" fill="none" xmlns="http://www.w3.org/2000/svg">
<path d="M1.07033 19.6542C3.07307 13.2462 5.07481 6.83929 7.07755 0.566258C7.21046 0.166515 7.07756 0.166512 7.74414 0.166512C8.94538 0.166512 10.1466 0.166512 11.3478 0.166512C11.4808 0.166512 11.7476 0.166512 11.8825 0.166512C13.0838 0.166512 14.284 0.166512 15.4852 0.166512C15.7531 -0.100319 16.1528 0.0336117 16.4197 0.0336117H16.5526C16.6855 0.166524 16.9523 0.0336117 17.2191 0.0336117C19.087 0.0336117 20.9568 0.0336117 22.8256 0.0336117C23.0924 0.0336117 23.3593 -0.0983048 23.3593 0.166512C23.3593 0.432336 23.0924 0.566258 22.9595 0.566258C21.3585 1.36776 19.7555 2.30219 18.1545 3.10368C16.8194 3.77026 15.6181 4.43882 14.4169 4.97148C15.6181 4.97148 16.9543 4.97148 18.1545 4.97148C19.4907 4.97148 20.8249 4.97148 22.16 4.97148C22.4269 4.97148 22.6947 4.97148 22.9615 4.97148C54.9953 4.97148 86.8972 4.97148 118.934 4.97148C119.201 4.97148 119.601 4.97148 119.867 4.97148L120 5.10441C119.867 5.10441 119.867 5.10441 119.733 5.10441C119.6 5.10441 119.467 5.10441 119.334 5.10441C87.165 5.10441 54.9953 5.10441 22.8266 5.10441C20.1573 5.10441 17.3541 5.10441 14.6848 5.10441C14.5518 5.10441 14.5518 5.10441 14.4169 5.10441C13.8832 5.10441 13.8832 5.10441 13.7503 5.63807C13.6174 6.17274 13.3506 6.83931 13.2157 7.37398C12.8159 8.44231 12.5491 9.50861 12.1473 10.7099C11.2139 13.646 10.2795 16.5831 9.3441 19.3864C9.07627 20.4547 8.67652 21.522 8.27577 22.5904C5.73836 22.5904 3.20397 22.5904 0.66656 22.5904C0.39973 22.5904 0.132912 22.5904 0 22.5904C0.00302072 22.5904 0.803501 20.3208 1.07033 19.6542Z" fill="#E64647"/>
</svg>
