<svg width="5" height="5" viewBox="0 0 5 5" fill="none" xmlns="http://www.w3.org/2000/svg">
<path d="M4.40894 2.80524C4.40279 2.88116 4.36276 2.91912 4.28786 2.91912H1.38825C1.35131 2.91912 1.33898 2.93451 1.3513 2.96529C1.36977 3.09047 1.40466 3.21771 1.45391 3.34289C1.61602 3.6938 1.94846 3.86924 2.44815 3.86924C2.84933 3.86308 3.16434 3.69995 3.39623 3.37982C3.42188 3.34288 3.44959 3.32338 3.48037 3.32338C3.49884 3.32338 3.52038 3.3357 3.54603 3.36135L4.22219 4.02931C4.25298 4.06112 4.26836 4.08883 4.26836 4.11448C4.26836 4.12679 4.25708 4.15243 4.23143 4.1904C4.0252 4.44691 3.75945 4.64699 3.43316 4.78756C3.1079 4.92813 2.75186 4.99995 2.36401 4.99995C1.82636 4.99995 1.3708 4.87682 0.999374 4.63262C0.626917 4.3874 0.36013 4.04572 0.196988 3.60657C0.065653 3.2926 0 2.88115 0 2.37223C0 2.02645 0.0471916 1.72274 0.140562 1.45904C0.28421 1.01374 0.535592 0.658735 0.896762 0.39504C1.25588 0.131345 1.68374 0 2.17624 0C2.80214 0 3.30388 0.181609 3.68249 0.545857C4.0611 0.910106 4.29094 1.39544 4.37303 2.00492C4.41099 2.24296 4.42331 2.51076 4.41099 2.80524H4.40894ZM1.4067 1.70428C1.38208 1.78637 1.36054 1.88589 1.34104 2.00492C1.34104 2.03672 1.35746 2.0521 1.38825 2.0521H3.01146C3.04942 2.0521 3.06071 2.03672 3.04943 2.00492C3.01865 1.8233 3.00222 1.73506 3.00222 1.74122C2.94579 1.55345 2.84831 1.40774 2.70569 1.30411C2.56512 1.20048 2.39274 1.15021 2.18548 1.15021C1.79148 1.15021 1.53188 1.33388 1.4067 1.70428Z" fill="white"/>
</svg>
