<svg width="44" height="44" viewBox="0 0 44 44" fill="none" xmlns="http://www.w3.org/2000/svg">
<path d="M32.7441 43.9999H11.2558C9.77711 44.0039 8.3123 43.7146 6.94616 43.1487C5.58002 42.5827 4.33969 41.7515 3.29696 40.703C2.24848 39.6603 1.41722 38.4199 0.851303 37.0538C0.285386 35.6877 -0.00395009 34.2228 4.07277e-05 32.7441V11.2558C-0.00395009 9.77711 0.285386 8.3123 0.851303 6.94616C1.41722 5.58002 2.24848 4.33969 3.29696 3.29696C4.33969 2.24848 5.58002 1.41722 6.94616 0.851305C8.3123 0.285388 9.77711 -0.00394847 11.2558 4.23487e-05H32.7441C34.223 -0.00402739 35.688 0.285269 37.0543 0.851187C38.4206 1.4171 39.6611 2.2484 40.704 3.29696C41.7524 4.33974 42.5835 5.5801 43.1492 6.94624C43.7149 8.31239 44.0041 9.77718 43.9999 11.2558V32.7441C44.004 34.2229 43.7147 35.6877 43.1487 37.0538C42.5828 38.42 41.7515 39.6603 40.703 40.703C39.6602 41.7514 38.4199 42.5827 37.0538 43.1486C35.6876 43.7145 34.2228 44.0039 32.7441 43.9999ZM11.5771 12.5789V24.8917C11.5583 26.0809 11.8662 27.2524 12.4674 28.2787C13.0644 29.2737 13.9211 30.0873 14.9457 30.6321C16.0802 31.2235 17.3451 31.5201 18.6243 31.4947C19.9047 31.5215 21.1713 31.2263 22.308 30.6362C23.3323 30.0926 24.1881 29.2786 24.7822 28.2828C25.3824 27.2543 25.6899 26.0813 25.6714 24.8907V12.5779H23.9738V24.773C23.9891 25.6947 23.7622 26.6043 23.3159 27.4109C22.8776 28.1814 22.2306 28.8124 21.4495 29.2313C20.5798 29.6878 19.6083 29.916 18.6263 29.8944C17.6452 29.9165 16.6747 29.6883 15.8062 29.2313C15.0268 28.8104 14.3806 28.1799 13.9408 27.4109C13.4912 26.6054 13.2625 25.6954 13.2778 24.773V12.5779L11.5771 12.5789ZM30.6096 12.5789V31.1765H32.3082V12.5789H30.6096Z" fill="#0072F5"/>
</svg>
