<svg width="5" height="5" viewBox="0 0 5 5" fill="none" xmlns="http://www.w3.org/2000/svg">
<path d="M0.902545 4.5847C0.526313 4.30818 0.269323 3.9309 0.131577 3.4529C0.0442005 3.15788 0 2.83717 0 2.49075C0 2.11965 0.0442005 1.78556 0.131577 1.49054C0.275491 1.0259 0.535567 0.659943 0.911799 0.395758C1.28803 0.131573 1.73827 0 2.26459 0C2.79193 0 3.21751 0.130547 3.58141 0.391648C3.9453 0.653778 4.20126 1.01562 4.35134 1.48128C4.45208 1.79481 4.50245 2.1248 4.50245 2.47122C4.50245 2.81764 4.45824 3.1291 4.37087 3.42412C4.23209 3.91446 3.97716 4.29995 3.60504 4.57955C3.23189 4.86019 2.78371 4.99998 2.25534 4.99998C1.728 4.99998 1.27775 4.86122 0.902545 4.5847ZM2.78165 3.66982C2.92557 3.54441 3.02939 3.37068 3.09209 3.15069C3.14143 2.95024 3.16714 2.72923 3.16714 2.49075C3.16714 2.22656 3.14143 2.00246 3.09209 1.82051C3.02322 1.60669 2.91631 1.44017 2.7724 1.32093C2.62849 1.20066 2.4527 1.14103 2.24608 1.14103C2.03947 1.14103 1.85649 1.20066 1.71463 1.32093C1.5738 1.44017 1.471 1.60669 1.40932 1.82051C1.35998 1.97162 1.33429 2.19572 1.33429 2.49075C1.33429 2.78577 1.35588 2.99342 1.40008 3.15069C1.46381 3.37068 1.56866 3.54441 1.71463 3.66982C1.86266 3.79523 2.04255 3.85793 2.25431 3.85793C2.46607 3.85793 2.63774 3.79523 2.78165 3.66982Z" fill="white"/>
</svg>
