<svg width="50" height="50" viewBox="0 0 50 50" fill="none" xmlns="http://www.w3.org/2000/svg">
<path d="M25 49C38.2548 49 49 38.2548 49 25C49 11.7452 38.2548 1 25 1C11.7452 1 1 11.7452 1 25C1 38.2548 11.7452 49 25 49Z" stroke="white" stroke-width="1.92"/>
<path d="M34.1002 23.2L22.6002 16.5C22.3002 16.3 21.9002 16.3 21.6002 16.5C21.3002 16.7 21.2002 17 21.2002 17.3V30.7C21.2002 31 21.4002 31.4 21.7002 31.5C21.8002 31.6 22.0002 31.6 22.2002 31.6C22.4002 31.6 22.5002 31.6 22.7002 31.5L34.2002 24.8C34.5002 24.6 34.7002 24.3 34.7002 24C34.6002 23.7 34.4002 23.4 34.1002 23.2Z" fill="white"/>
</svg>
