<svg width="140" height="40" viewBox="0 0 140 40" fill="none" xmlns="http://www.w3.org/2000/svg">
<g clip-path="url(#clip0_4_11830)">
<mask id="mask0_4_11830" style="mask-type:luminance" maskUnits="userSpaceOnUse" x="0" y="0" width="140" height="40">
<path d="M0 0H140V40H0V0Z" fill="white"/>
</mask>
<g mask="url(#mask0_4_11830)">
<path fill-rule="evenodd" clip-rule="evenodd" d="M120.702 5.17592H116.89V12.1919H117.751V8.87992H120.51V8.19192H117.751V5.87992H120.702V5.17592ZM114.559 8.64792C114.559 6.53592 113.237 5.04792 111.367 5.04792C109.441 5.04792 108.086 6.62792 108.086 8.72392C108.086 10.8199 109.441 12.3239 111.294 12.3239C113.237 12.3239 114.559 10.8199 114.559 8.64792ZM100.62 8.45592L98.8646 5.17592V5.19992H97.8896L100.171 9.42792V12.1919H101.016V9.42792L103.265 5.17592H102.327L100.62 8.45592ZM96.8856 5.17592H91.7836V5.87992H93.9016V12.1919H94.7626V5.87992H96.8856V5.17592ZM84.0816 8.79992C84.5656 8.97592 85.0166 9.22992 85.4156 9.55192C85.6446 9.75192 85.7826 10.0319 85.7996 10.3319C85.7996 11.0199 85.3836 11.5999 84.3176 11.5999C83.7107 11.552 83.1268 11.3466 82.6236 11.0039L82.2156 11.5679C82.8219 12.056 83.5772 12.3214 84.3556 12.3199C85.8486 12.3199 86.6656 11.4439 86.6656 10.2719C86.6659 10.0348 86.6179 9.80006 86.5245 9.58206C86.4312 9.36406 86.2944 9.16736 86.1226 9.00392C85.6576 8.59592 85.1216 8.27592 84.5386 8.05992C84.1853 7.92592 83.8527 7.74278 83.5506 7.51592C83.4438 7.43272 83.3579 7.32576 83.2998 7.20355C83.2416 7.08133 83.2128 6.94724 83.2156 6.81192C83.2156 6.18792 83.7256 5.71592 84.6356 5.71592C85.1866 5.72592 85.7186 5.91392 86.1506 6.24792L86.5586 5.74792C86.2959 5.4942 85.9833 5.29803 85.6406 5.17192C85.2961 5.04504 84.9291 4.99057 84.5626 5.01192C83.2726 5.01192 82.3956 5.77992 82.3956 6.85992C82.3827 7.06768 82.4123 7.27587 82.4824 7.47185C82.5526 7.66783 82.6618 7.84749 82.8036 7.99992C83.1746 8.34192 83.6086 8.61392 84.0816 8.79992ZM73.4686 5.17592H69.5626V12.1919H73.5346V11.4759H70.4076V8.87992H73.2646V8.19192H70.4076V5.87992H73.4686V5.17592ZM64.6486 11.3639L62.5586 5.17592H61.6526L64.1266 12.1759H65.1136L67.6206 5.17592H66.8036L64.6486 11.3639ZM59.7466 5.17592H58.8856V12.1759H59.7466V5.17592ZM51.6766 5.17592H50.7996L50.8076 12.1759H51.5876V6.43992L55.0276 12.1759H55.9176V5.17592H55.1376V10.9439L51.6776 5.17592H51.6766ZM42.9546 5.17592V9.40092C42.9536 10.2239 42.9526 11.0009 43.5956 11.5999C43.8566 11.8399 44.1646 12.0279 44.4996 12.1519C44.8356 12.2749 45.1926 12.3319 45.5506 12.3199C45.9006 12.3369 46.2506 12.2849 46.5796 12.1669C46.9076 12.0489 47.2096 11.8669 47.4646 11.6319C48.1106 10.9849 48.1086 10.0999 48.1056 8.89092V5.17592H47.2606V9.09192C47.2626 10.2149 47.2626 10.7019 46.7956 11.1639C46.632 11.3161 46.4391 11.4333 46.2286 11.5083C46.0181 11.5833 45.7945 11.6145 45.5716 11.5999C45.0866 11.621 44.6124 11.4532 44.2486 11.1319C43.8156 10.7079 43.8156 10.1599 43.8156 9.59992V5.17592H42.9546ZM19.5396 33.9199C22.4748 33.5847 25.2034 32.2434 27.2616 30.1239L27.2786 30.1399C30.1407 28.0178 32.2508 25.0375 33.3016 21.6329C34.3405 18.2467 34.2563 14.6153 33.0616 11.2809C31.8544 7.9255 29.6095 5.04203 26.6526 3.04892C23.6671 1.03346 20.1276 -0.00120141 16.5266 0.0889211C12.9278 0.173005 9.44488 1.37801 6.56357 3.53592C3.71066 5.66999 1.61352 8.65909 0.577566 12.0679C-0.446796 15.4582 -0.347171 19.0889 0.861566 22.4179C2.08297 25.7685 4.34012 28.6429 7.30557 30.6239C7.53652 31.4643 8.04114 32.2036 8.73956 32.7249C9.44057 33.2509 10.2996 33.5349 11.1836 33.5319C11.6787 33.5296 12.1694 33.4389 12.6326 33.2639C13.2596 33.4689 13.8986 33.6359 14.5466 33.7639C14.3586 34.2539 14.1236 34.7259 13.8446 35.1719L14.1956 35.5159C14.2897 35.4651 14.3946 35.4376 14.5016 35.4359C14.6616 35.4489 14.8116 35.5199 14.9216 35.6359C15.0302 35.7512 15.0907 35.9035 15.0907 36.0619C15.0907 36.2203 15.0302 36.3727 14.9216 36.4879C14.8113 36.6044 14.6615 36.6757 14.5016 36.6879C14.3594 36.68 14.2209 36.6398 14.0965 36.5706C13.9722 36.5013 13.8651 36.4046 13.7836 36.2879C13.7286 36.5036 13.701 36.7253 13.7016 36.9479C13.7016 38.1519 15.0446 39.5239 16.8936 40.1039C18.7426 39.5399 20.0816 38.1639 20.0816 36.9639C20.0874 36.7413 20.0612 36.519 20.0036 36.3039C19.9224 36.421 19.8155 36.518 19.691 36.5873C19.5666 36.6567 19.4279 36.6966 19.2856 36.7039C19.1256 36.6917 18.9759 36.6204 18.8656 36.5039C18.7569 36.3887 18.6964 36.2363 18.6964 36.0779C18.6964 35.9195 18.7569 35.7672 18.8656 35.6519C18.9759 35.5354 19.1256 35.4641 19.2856 35.4519C19.4041 35.4493 19.5206 35.4828 19.6196 35.5479L19.9706 35.2039C19.7913 34.7886 19.6468 34.3591 19.5386 33.9199H19.5396ZM41.5516 26.0759C41.5516 30.3559 44.9916 33.6399 49.4816 33.6399C50.5239 33.663 51.5605 33.4795 52.5316 33.0999C53.4976 32.7223 54.3782 32.1552 55.1216 31.4319C55.8592 30.7147 56.4434 29.8549 56.8386 28.9049C57.2312 27.9595 57.4252 26.9435 57.4086 25.9199C57.4086 21.6359 53.9716 18.3519 49.4826 18.3519C48.4395 18.3285 47.4022 18.5121 46.4306 18.8919C45.4606 19.2709 44.5796 19.8379 43.8386 20.5589C43.1002 21.277 42.5157 22.1378 42.1206 23.0889C41.728 24.035 41.5343 25.0518 41.5516 26.0759ZM67.7556 33.3919H74.3596V32.8759L73.0986 32.5439C72.6467 32.4425 72.2459 32.1829 71.9686 31.8119L67.1026 25.5279L71.4576 20.1359C71.7685 19.7933 72.1828 19.5615 72.6376 19.4759L73.9766 19.1479V18.6199H68.6696V19.1479L70.0096 19.4759C70.4746 19.6039 70.3926 19.7279 70.1356 20.0559L66.6616 24.8239H66.5806L63.1846 20.0559C62.9276 19.7119 62.8006 19.5079 63.3106 19.4319L64.7306 19.1479V18.6199H58.1106V19.1519L59.3716 19.4799C59.8276 19.5819 60.2306 19.8429 60.5026 20.2159L65.1106 26.2159L60.5026 31.8879C60.1945 32.2334 59.7786 32.4646 59.3226 32.5439L57.9846 32.8759V33.4039H63.3186V32.8759L61.9806 32.5439C61.5146 32.4199 61.5966 32.2959 61.8496 31.9679L65.5846 26.9039H65.6786L69.3496 31.9999C69.5826 32.3279 69.6846 32.4999 69.1746 32.5759L67.7546 32.8599L67.7556 33.3919ZM77.3636 5.17592H75.8296V12.1719H76.6746V9.12392H77.1676C78.2046 9.12392 78.4296 9.25192 78.9396 10.3599L79.7556 12.1719H80.6496L79.6896 10.0959C79.5636 9.75408 79.3803 9.43619 79.1476 9.15592C78.9948 8.99049 78.7843 8.89022 78.5596 8.87592C78.9956 8.82792 79.3996 8.63492 79.7066 8.32792C80.0106 8.00092 80.1726 7.56992 80.1566 7.12792C80.1654 6.86729 80.1202 6.60766 80.0238 6.36534C79.9275 6.12303 79.782 5.90328 79.5966 5.71992C79.0366 5.17592 78.3186 5.17592 77.3636 5.17592ZM87.2216 22.3079H87.8416V18.6039H76.4366V19.0999L77.9836 19.4759C78.4326 19.6039 78.6076 19.7799 78.6076 20.1799V31.7799C78.6076 32.1999 78.4446 32.3599 77.9836 32.4839L76.4366 32.8599V33.3879H83.1796V32.8599L81.4566 32.4839C81.0116 32.3879 80.8366 32.1799 80.8366 31.7799V26.3559H84.4896C84.7147 26.3329 84.9401 26.397 85.1196 26.5349C85.2967 26.6708 85.4134 26.8708 85.4446 27.0919L85.8286 28.5759H86.4486V23.6519H85.8286L85.4446 24.9159C85.4107 25.136 85.2932 25.3344 85.1166 25.4699C84.9378 25.607 84.714 25.672 84.4896 25.6519H80.8396V19.2879H85.5756C86.0936 19.2879 86.3256 19.5079 86.5016 20.0879L87.2216 22.3079ZM89.0216 12.1919H89.8816V5.17592H89.0216V12.1919ZM89.9436 26.0759C89.9436 30.3559 93.3806 33.6399 97.8696 33.6399H97.8576C98.901 33.6649 99.939 33.4827 100.912 33.1039C101.88 32.7276 102.762 32.1611 103.508 31.4379C104.247 30.7202 104.833 29.8594 105.229 28.9079C105.622 27.9618 105.817 26.9446 105.801 25.9199C105.801 21.6359 102.36 18.3519 97.8706 18.3519C96.8282 18.3287 95.7916 18.5123 94.8206 18.8919C93.8541 19.2697 92.9731 19.8372 92.2296 20.5609C91.4916 21.2788 90.9075 22.1392 90.5126 23.0899C90.1198 24.0356 89.9268 25.052 89.9436 26.0759ZM123.152 33.3919V32.8759L121.638 32.5479C121.409 32.5094 121.19 32.4242 120.996 32.2975C120.801 32.1709 120.635 32.0056 120.507 31.8119L118.466 29.1399C116.838 27.0439 116.581 26.7479 116.119 26.5439V26.4639C118.405 25.9359 119.793 24.4159 119.793 22.6039C119.784 21.8203 119.536 21.0579 119.083 20.4189C118.624 19.774 117.983 19.2811 117.242 19.0039C116.224 18.6937 115.161 18.5585 114.099 18.6039H107.511V19.1319L109.058 19.5079C109.503 19.6359 109.679 19.8119 109.679 20.2119V31.7799C109.679 32.2039 109.519 32.3599 109.058 32.4839L107.511 32.8599V33.3919H114.27V32.8599L112.548 32.4839C112.083 32.3879 111.907 32.1799 111.907 31.7799V26.7639H113.091C114.177 26.7639 114.524 27.2159 115.401 28.4519L118.544 32.7639C118.928 33.2639 119.14 33.3919 119.548 33.3919H123.152ZM131.544 33.3919C133.683 33.3919 135.307 33.1079 136.491 32.4839H136.479C139.03 31.1719 140.034 28.7159 140.026 26.0759C140.026 23.3719 138.736 20.6199 135.879 19.3359C134.744 18.8519 133.356 18.6039 131.43 18.6039H124.356V19.1319L125.903 19.5079C126.364 19.6359 126.524 19.8119 126.524 20.2119V31.7799C126.524 32.2039 126.364 32.3599 125.903 32.4839L124.356 32.8599V33.3919H131.544ZM12.2206 14.1799C12.3029 14.1711 12.3861 14.1789 12.4653 14.203C12.5445 14.227 12.6181 14.2668 12.6816 14.3199C12.7242 14.3596 12.7576 14.408 12.7795 14.4619C12.8014 14.5158 12.8114 14.5738 12.8086 14.6319C12.8086 15.0079 12.5066 15.1799 12.1546 15.1799H11.7466V15.1159C11.8616 15.1159 11.8766 15.1159 11.8766 14.9279V14.4279C11.8766 14.2559 11.8766 14.2559 11.7636 14.2399V14.1799H12.2206ZM12.1386 14.9279C12.1386 15.0679 12.1716 15.0839 12.2526 15.0839C12.3346 15.0839 12.5226 14.9439 12.5226 14.6839C12.5226 14.4239 12.3466 14.2599 12.2206 14.2599H12.1546V14.3399L12.1386 14.9279ZM13.9756 14.8729C14.0001 14.8061 14.0096 14.7348 14.0036 14.6639C14.0043 14.5966 13.9914 14.5298 13.9657 14.4675C13.9399 14.4053 13.9017 14.349 13.8536 14.3019C13.7556 14.2052 13.6233 14.1512 13.4856 14.1519C13.4141 14.1498 13.3429 14.162 13.2762 14.188C13.2096 14.2139 13.1488 14.253 13.0976 14.3029C13.0477 14.3527 13.0087 14.4123 12.9829 14.4778C12.9571 14.5434 12.9451 14.6135 12.9476 14.6839C12.9439 14.7523 12.9549 14.8206 12.9797 14.8844C13.0045 14.9482 13.0427 15.006 13.0916 15.0539C13.141 15.1032 13.2001 15.1416 13.2652 15.1668C13.3303 15.1919 13.3999 15.2032 13.4696 15.1999C13.5416 15.204 13.6137 15.193 13.6813 15.1675C13.7488 15.142 13.8102 15.1026 13.8616 15.0519C13.9116 15.0009 13.9516 14.9399 13.9756 14.8719V14.8729ZM13.4936 15.1479C13.3506 15.1479 13.2406 14.9439 13.2406 14.6639V14.6479C13.2406 14.3679 13.3056 14.2639 13.4486 14.2639C13.5916 14.2639 13.7016 14.4719 13.7016 14.7479C13.7016 15.0239 13.6366 15.1479 13.4936 15.1479ZM15.3796 14.1839V14.2399C15.3196 14.2399 15.2876 14.2399 15.2696 14.2559C15.2496 14.2759 15.2496 14.3179 15.2496 14.4119V14.9279C15.2496 15.0999 15.2496 15.0999 15.3756 15.1159V15.1999H14.8976V15.1359C15.0116 15.1359 15.0276 15.1359 15.0276 14.9479V14.3999L14.7226 15.1679H14.6446L14.3546 14.4479V15.0439C14.3546 15.1039 14.4046 15.1199 14.5016 15.1199V15.1839H14.1176V15.1199C14.1956 15.1199 14.2276 15.1199 14.2276 15.0439C14.2444 14.9554 14.2555 14.8659 14.2606 14.7759V14.4639C14.2606 14.2759 14.2606 14.2599 14.1346 14.2439V14.1839H14.5016L14.7716 14.7919L15.0116 14.1839H15.3796ZM16.0156 15.1159C15.8896 15.0999 15.8896 15.0999 15.8896 14.9279L15.8936 14.4279C15.8936 14.2399 15.9056 14.2399 16.0196 14.2399V14.1799H15.5096V14.2399C15.6366 14.2559 15.6366 14.2559 15.6366 14.4279V14.9479C15.6366 15.1359 15.6196 15.1359 15.5096 15.1359V15.1999H16.0156V15.1159ZM13.3676 17.0399H13.2406L12.6526 16.3199V16.5999C12.6406 16.6999 12.6406 16.7999 12.6526 16.8999C12.6526 16.9439 12.7026 16.9759 12.8126 16.9759V17.0399H12.4286V16.9759C12.4936 16.9759 12.5426 16.9439 12.5426 16.8999V16.3039C12.5426 16.1959 12.5426 16.1639 12.5096 16.1319C12.4963 16.1148 12.4788 16.1014 12.4589 16.093C12.4389 16.0846 12.4171 16.0814 12.3956 16.0839V16.0239H12.7466L13.2736 16.6639V16.4599C13.2856 16.3616 13.2856 16.2622 13.2736 16.1639C13.2736 16.1159 13.2286 16.0839 13.1136 16.0839V16.0239H13.5226V16.0839C13.495 16.0799 13.467 16.086 13.4436 16.1009C13.4205 16.1154 13.4034 16.1378 13.3956 16.1639V17.0399H13.3666H13.3676ZM13.9636 16.9359L14.0036 17.0399H14.1176C14.2276 16.7239 14.4366 16.2399 14.4366 16.2399C14.5016 16.0799 14.5136 16.0799 14.6116 16.0799V16.0199H14.2286V16.0799H14.2776C14.3256 16.0959 14.3586 16.1319 14.3256 16.2079C14.2819 16.323 14.2409 16.439 14.2026 16.5559L14.1506 16.7079C14.1184 16.6176 14.0837 16.5283 14.0466 16.4399C14.0067 16.3486 13.972 16.2551 13.9426 16.1599C13.9266 16.0799 13.9256 16.0799 13.9916 16.0799H14.0366V16.0199H13.5266V16.0799H13.5306C13.6076 16.0959 13.6206 16.0989 13.6856 16.2399C13.7426 16.3669 13.8606 16.6709 13.9636 16.9359ZM14.6936 16.7119C14.7266 16.8039 14.8236 16.9759 14.9836 16.9759C15.0039 16.9767 15.0242 16.973 15.043 16.9653C15.0618 16.9575 15.0787 16.9458 15.0926 16.9309C15.106 16.916 15.116 16.8984 15.1219 16.8792C15.1278 16.86 15.1294 16.8398 15.1266 16.8199C15.1266 16.7279 15.0606 16.6799 14.9666 16.6319C14.8406 16.5719 14.6936 16.4919 14.6936 16.3359C14.6944 16.2908 14.7049 16.2464 14.7244 16.2056C14.7439 16.1649 14.7719 16.1289 14.8066 16.0999C14.8413 16.0704 14.8819 16.0484 14.9256 16.0353C14.9693 16.0222 15.0153 16.0183 15.0606 16.0239C15.1092 16.016 15.1589 16.016 15.2076 16.0239C15.2332 16.0304 15.26 16.0304 15.2856 16.0239C15.2906 16.1019 15.3016 16.1789 15.3186 16.2559H15.2526C15.2196 16.1639 15.1586 16.0519 15.0446 16.0519C15.0065 16.0531 14.9704 16.0689 14.9436 16.0959C14.917 16.1224 14.9019 16.1584 14.9016 16.1959C14.9016 16.2719 14.9676 16.3199 15.0616 16.3679H15.0936C15.2366 16.4279 15.3676 16.5079 15.3676 16.6959C15.3647 16.7448 15.3516 16.7925 15.329 16.8359C15.3065 16.8794 15.2749 16.9175 15.2366 16.9479C15.198 16.9791 15.1534 17.002 15.1055 17.015C15.0577 17.0281 15.0076 17.0311 14.9586 17.0239C14.8989 17.0225 14.8399 17.0117 14.7836 16.9919C14.7518 16.9786 14.719 16.9679 14.6856 16.9599C14.6856 16.9099 14.6736 16.8599 14.6616 16.8059C14.6536 16.7759 14.6466 16.7429 14.6406 16.7079L14.6936 16.7119ZM12.7796 18.8039C12.6526 18.7919 12.6526 18.7919 12.6526 18.6199V18.1159C12.6526 17.9319 12.6686 17.9319 12.7796 17.9319V17.8679H12.2696V17.9319C12.3286 17.9369 12.3606 17.9399 12.3786 17.9579C12.3996 17.9789 12.3996 18.0219 12.3996 18.1159V18.6159C12.3996 18.7999 12.3836 18.7999 12.2696 18.7999V18.8679H12.7796V18.8039ZM13.2896 18.6479C13.2896 18.7279 13.2896 18.7759 13.3186 18.7759C13.356 18.7849 13.3951 18.7849 13.4326 18.7759C13.4585 18.7801 13.4851 18.7779 13.51 18.7696C13.5349 18.7612 13.5574 18.7469 13.5756 18.7279C13.6116 18.6817 13.6378 18.6286 13.6526 18.5719H13.7186C13.7186 18.6319 13.6686 18.7879 13.6526 18.8359H12.8726V18.7999C12.9826 18.7999 12.9996 18.7999 12.9996 18.6159V18.1159C12.9996 17.9439 12.9996 17.9439 12.8896 17.9319V17.8679H13.3996V17.9319C13.2896 17.9319 13.2736 17.9319 13.2736 18.1159V18.6479H13.2896ZM14.1956 18.7759C14.1676 18.7759 14.1676 18.7279 14.1676 18.6479H14.1596V18.1159C14.1596 17.9319 14.1756 17.9319 14.2856 17.9319V17.8679H13.7676V17.9319C13.8776 17.9439 13.8776 17.9439 13.8776 18.1159V18.6159C13.8776 18.7999 13.8606 18.7999 13.7506 18.7999V18.8359H14.5306C14.5466 18.7879 14.5956 18.6319 14.5956 18.5719H14.5306C14.5155 18.6287 14.4889 18.6818 14.4526 18.7279C14.4345 18.7471 14.412 18.7615 14.3871 18.7698C14.3621 18.7782 14.3355 18.7803 14.3096 18.7759C14.2721 18.7849 14.233 18.7849 14.1956 18.7759ZM14.8196 18.6429C14.7326 18.4179 14.6436 18.1889 14.5956 18.0839C14.5316 17.9429 14.5156 17.9399 14.4406 17.9289L14.4366 17.9279V17.8639H14.9466V17.9279H14.8976C14.8366 17.9279 14.8366 17.9279 14.8526 18.0039C14.8606 18.0419 14.9006 18.1419 14.9436 18.2499C14.9876 18.3599 15.0336 18.4779 15.0566 18.5519C15.0866 18.4759 15.1356 18.3349 15.1746 18.2189L15.2326 18.0519C15.2606 17.9759 15.2326 17.9399 15.1876 17.9279H15.1386V17.8639H15.5096V17.9279C15.4116 17.9279 15.3956 17.9279 15.3346 18.0839C15.3346 18.0839 15.1266 18.5679 15.0156 18.8839H14.9146L14.8206 18.6439L14.8196 18.6429ZM19.1266 14.2399V14.1799L19.1106 14.1839H18.7426L18.5026 14.7919L18.2326 14.1839H17.8656V14.2439C17.9916 14.2599 17.9916 14.2759 17.9916 14.4639V14.7759C17.9896 14.8659 17.9796 14.9559 17.9636 15.0439C17.9636 15.1199 17.9306 15.1199 17.8486 15.1199V15.1839H18.2326V15.1199C18.1386 15.1199 18.0896 15.1039 18.0896 15.0439V14.4479L18.3756 15.1679H18.4566L18.7586 14.3999V14.9479C18.7586 15.1359 18.7426 15.1359 18.6326 15.1359V15.1999H19.1266V15.1159C18.9996 15.0999 18.9996 15.0999 18.9996 14.9279V14.4119C18.9996 14.2399 19.0166 14.2399 19.1266 14.2399ZM19.6366 14.9279C19.6366 15.0999 19.6366 15.0999 19.7626 15.1159V15.1999H19.2526V15.1359C19.3626 15.1359 19.3796 15.1359 19.3796 14.9479V14.4279C19.3796 14.2559 19.3796 14.2559 19.2526 14.2399V14.1799H19.7626V14.2399C19.6526 14.2399 19.6366 14.2399 19.6366 14.4279V14.9279ZM20.6896 15.1999H20.8326V14.3399C20.8326 14.2919 20.8816 14.2599 20.9586 14.2599V14.1999H20.5506V14.2599C20.6606 14.2599 20.7106 14.2919 20.7106 14.3399C20.7216 14.4379 20.7216 14.5379 20.7106 14.6359V14.8399L20.1836 14.1999H19.8326V14.2599C19.8535 14.2581 19.8745 14.2615 19.8937 14.2699C19.9129 14.2782 19.9297 14.2913 19.9426 14.3079C19.9746 14.3399 19.9746 14.3719 19.9746 14.4799V15.0599C19.9746 15.1039 19.9266 15.1359 19.8646 15.1359V15.1999H20.2736V15.1359C20.1636 15.1359 20.1136 15.1039 20.1136 15.0599C20.1016 14.9599 20.1016 14.8599 20.1136 14.7599V14.4799L20.6896 15.1999ZM21.4526 15.1159H21.5026C21.5666 15.1159 21.5666 15.1159 21.5506 15.0399L21.4856 14.8839H21.2246L21.1746 15.0239C21.1746 15.0839 21.1746 15.0999 21.2246 15.1159H21.2686V15.1999H20.9056V15.1359C20.9836 15.1359 21.0156 15.1359 21.0656 14.9959L21.3836 14.1959H21.4936L21.6076 14.4919C21.6686 14.6799 21.7346 14.8519 21.7956 15.0079C21.8496 15.1459 21.8716 15.1489 21.9296 15.1589L21.9466 15.1619L21.9546 15.1639V15.1999H21.4696V15.1199L21.4526 15.1159ZM21.2646 14.7999H21.4686L21.3756 14.5039L21.2656 14.7999H21.2646ZM19.2526 16.9599C19.1096 16.9439 19.1096 16.9439 19.1096 16.7719H19.0776V16.1159H19.1096C19.1876 16.1159 19.2366 16.1159 19.2696 16.1479C19.3016 16.1939 19.3226 16.2479 19.3296 16.3039H19.3956V15.9919H19.3466C19.3186 16.0239 19.3186 16.0239 19.2696 16.0239H18.6496C18.6343 16.0261 18.6187 16.0242 18.6044 16.0186C18.59 16.013 18.5774 16.0038 18.5676 15.9919H18.5176V16.3039H18.5836C18.5976 16.2491 18.6195 16.1965 18.6486 16.1479C18.6776 16.0999 18.7096 16.0999 18.8246 16.0999H18.8526V16.7719C18.8526 16.9599 18.8406 16.9599 18.7096 16.9599V17.0239H19.2526V16.9599ZM19.9386 16.7719C19.9386 16.9439 19.9386 16.9439 20.0646 16.9599V17.0239H19.5546V16.9599C19.6686 16.9599 19.6846 16.9599 19.6846 16.7719V16.2719C19.6846 16.1779 19.6846 16.1349 19.6646 16.1129C19.6466 16.0949 19.6146 16.0909 19.5546 16.0839V16.0239H20.0646V16.0839C19.9546 16.0839 19.9386 16.0839 19.9386 16.2719V16.7719ZM21.0946 16.8719C21.1431 16.8254 21.1817 16.7696 21.2083 16.7079C21.2349 16.6461 21.2488 16.5797 21.2493 16.5125C21.2498 16.4453 21.2367 16.3786 21.211 16.3165C21.1853 16.2544 21.1474 16.1981 21.0996 16.1509C21.0006 16.055 20.8687 16.0006 20.7309 15.9989C20.593 15.9972 20.4598 16.0484 20.3586 16.1419C20.3082 16.1889 20.2679 16.2455 20.2399 16.3084C20.2119 16.3712 20.1968 16.4391 20.1956 16.5079C20.1956 16.6449 20.2516 16.7759 20.3496 16.8729C20.449 16.9705 20.5828 17.0251 20.7221 17.0251C20.8614 17.0251 20.9951 16.9695 21.0946 16.8719ZM20.7386 16.9919C20.5916 16.9919 20.4816 16.7879 20.4816 16.5079V16.4919C20.4816 16.2119 20.5466 16.1039 20.6896 16.1039C20.8326 16.1039 20.9426 16.3159 20.9426 16.5919C20.9426 16.8679 20.8856 16.9919 20.7386 16.9919ZM19.5916 17.8679V17.9319C19.4816 17.9319 19.4646 17.9319 19.4646 18.1039V18.6199C19.4646 18.7149 19.4646 18.7569 19.4866 18.7789C19.5036 18.7959 19.5346 18.7989 19.5916 18.8039V18.8679H19.0976V18.7999C19.2076 18.7999 19.2246 18.7999 19.2246 18.6159V18.0719L18.9216 18.8359H18.8446L18.5546 18.1159V18.7119C18.5546 18.7759 18.6046 18.7919 18.6976 18.7919V18.8519H18.3176V18.7999C18.3956 18.7999 18.4276 18.7999 18.4276 18.7239C18.4456 18.6359 18.4566 18.5459 18.4606 18.4559V18.1439C18.4606 17.9559 18.4606 17.9399 18.3306 17.9279V17.8639H18.6976L18.9706 18.4719L19.2076 17.8639L19.5916 17.8679ZM19.8076 17.9559C19.8276 17.9759 19.8276 18.0179 19.8276 18.1159H19.8126V18.6159C19.8126 18.7189 19.8126 18.7649 19.7896 18.7849C19.7726 18.7999 19.7406 18.7999 19.6856 18.7999V18.8359H20.5016C20.5016 18.8149 20.5116 18.7719 20.5216 18.7249C20.5367 18.6696 20.5468 18.6131 20.5516 18.5559H20.4856C20.4671 18.6114 20.4408 18.6639 20.4076 18.7119C20.3605 18.7465 20.3028 18.7635 20.2446 18.7599C20.2084 18.7685 20.1707 18.7685 20.1346 18.7599C20.1016 18.7599 20.1016 18.7119 20.1016 18.6319V18.3839H20.1836C20.2666 18.3839 20.3066 18.3839 20.3256 18.4039C20.3426 18.4219 20.3426 18.4569 20.3426 18.5239H20.4086V18.1639H20.3306C20.3146 18.2879 20.2976 18.2879 20.1706 18.2879H20.0906V17.9919C20.0906 17.9439 20.0906 17.9439 20.1546 17.9439H20.1876C20.2427 17.9418 20.2975 17.9528 20.3476 17.9759C20.3796 17.9919 20.4076 18.0399 20.4076 18.1159H20.4656V17.8679H19.7146V17.9319C19.7636 17.9369 19.7916 17.9399 19.8076 17.9559ZM21.1346 18.7999C21.1996 18.7999 21.1996 18.7999 21.1836 18.7239L21.1176 18.5679H20.8656L20.8156 18.7079C20.8156 18.7719 20.8156 18.7879 20.8656 18.7999H20.9136V18.8639H20.5466V18.7999C20.6246 18.7999 20.6566 18.7999 20.7066 18.6599L21.0246 17.8599H21.1346L21.2486 18.1559C21.3096 18.3439 21.3756 18.5159 21.4406 18.6719C21.4986 18.8109 21.5146 18.8129 21.5746 18.8239C21.5826 18.8251 21.5916 18.8265 21.5996 18.8279V18.8919H21.1016V18.7999H21.1346ZM20.8976 18.4719H21.1016L21.0076 18.1759L20.8976 18.4719ZM8.65456 27.8579C8.52789 27.7856 8.40221 27.7116 8.27757 27.6359L8.27256 27.6199C8.60014 27.1547 9.03692 26.777 9.54457 26.5199C10.0553 26.2603 10.6211 26.128 11.194 26.1343C11.7668 26.1405 12.3297 26.2852 12.8346 26.5559C13.3386 26.8259 13.7666 27.2129 14.0816 27.6839C13.5146 27.5479 12.9599 27.3646 12.4236 27.1359C12.0389 26.9622 11.6217 26.8722 11.1996 26.8719C10.7546 26.8719 10.3156 26.9739 9.91957 27.1719C9.52157 27.3709 9.17957 27.6579 8.91757 28.0119C8.83257 27.9609 8.74356 27.9099 8.65456 27.8579ZM12.8246 27.9199L12.2046 27.5599C11.7248 27.337 11.1834 27.2841 10.6696 27.4099C10.1587 27.5337 9.70594 27.8296 9.38756 28.2479C10.0306 28.5779 10.6486 28.8409 11.0976 29.0319C11.2836 29.1119 11.4416 29.1779 11.5586 29.2319C11.6756 29.2829 11.7706 29.3719 11.8286 29.4829C11.887 29.5942 11.9046 29.7225 11.8783 29.8455C11.852 29.9684 11.7834 30.0782 11.6846 30.1559C11.5851 30.2354 11.4618 30.279 11.3346 30.2799C11.2264 30.28 11.1209 30.2464 11.0326 30.1839C10.3375 29.7784 9.67752 29.3154 9.05957 28.7999C8.95061 29.0678 8.89654 29.3548 8.90057 29.6439C8.90456 30.0739 9.02857 30.4939 9.25856 30.8599C9.48856 31.2259 9.81656 31.5229 10.2066 31.7199C12.3914 32.9124 14.8328 33.5575 17.3216 33.5999C20.9126 33.5999 23.8156 32.5679 26.1576 30.4919C19.9626 32.1699 14.8336 29.1169 12.8316 27.9249L12.8246 27.9199ZM15.0896 31.6399C14.9816 31.6402 14.8779 31.5982 14.8006 31.5229C14.7629 31.486 14.733 31.442 14.7125 31.3934C14.6921 31.3448 14.6816 31.2926 14.6816 31.2399C14.6816 31.1872 14.6921 31.135 14.7125 31.0864C14.733 31.0378 14.7629 30.9938 14.8006 30.9569C14.8778 30.8813 14.9815 30.839 15.0896 30.839C15.1976 30.839 15.3014 30.8813 15.3786 30.9569C15.4159 30.9935 15.4456 31.037 15.466 31.0851C15.4865 31.1332 15.4972 31.1849 15.4975 31.2371C15.4979 31.2893 15.4879 31.3411 15.4682 31.3895C15.4485 31.4379 15.4194 31.4818 15.3826 31.5189C15.3081 31.5936 15.2079 31.6369 15.1026 31.6399H15.0896ZM19.2526 32.3119C19.1726 32.3116 19.0944 32.2881 19.0275 32.2442C18.9606 32.2004 18.9078 32.1381 18.8756 32.0649C18.8446 31.9918 18.8365 31.9109 18.8524 31.8331C18.8683 31.7553 18.9074 31.6841 18.9646 31.6289C19.0219 31.5725 19.0945 31.5341 19.1735 31.5186C19.2524 31.5032 19.3342 31.5113 19.4086 31.5419C19.4836 31.5719 19.5476 31.6239 19.5926 31.6899C19.6449 31.7666 19.6685 31.8593 19.6592 31.9517C19.6499 32.0441 19.6082 32.1303 19.5416 32.1949C19.4643 32.2703 19.3605 32.3123 19.2526 32.3119ZM15.0566 33.8599C15.8056 33.9859 16.5626 34.0549 17.3226 34.0639C17.8974 34.0613 18.4719 34.0346 19.0446 33.9839C19.1266 34.2959 19.2366 34.6239 19.3626 34.9679H19.3026C19.1515 34.9619 19.0008 34.9864 18.8595 35.0398C18.7181 35.0932 18.5889 35.1745 18.4796 35.2789C18.3726 35.3824 18.2881 35.5069 18.2315 35.6445C18.1749 35.7822 18.1473 35.9301 18.1506 36.0789C18.1486 36.2274 18.1773 36.3746 18.235 36.5114C18.2926 36.6482 18.3779 36.7717 18.4856 36.8739C18.5936 36.9783 18.7215 37.0599 18.8617 37.1138C19.0018 37.1678 19.1514 37.193 19.3016 37.1879C19.3916 37.1849 19.4826 37.1739 19.5716 37.1559C19.4286 38.0959 18.3266 39.1279 16.9096 39.5959C15.4696 39.1279 14.3876 38.0799 14.2446 37.1559C14.3336 37.1759 14.4236 37.1859 14.5146 37.1879C14.6655 37.1956 14.8164 37.1724 14.9581 37.1198C15.0998 37.0672 15.2292 36.9862 15.3386 36.8819C15.446 36.7784 15.5305 36.6536 15.5868 36.5155C15.6432 36.3774 15.67 36.229 15.6656 36.0799C15.6674 35.9342 15.6397 35.7896 15.5842 35.6549C15.5287 35.5202 15.4465 35.3981 15.3426 35.2959C15.1312 35.0854 14.8449 34.9674 14.5466 34.9679C14.7456 34.6119 14.9166 34.2409 15.0566 33.8599ZM28.0116 9.94392C28.0829 10.0573 28.1817 10.1508 28.2989 10.2159C28.416 10.2809 28.5476 10.3153 28.6816 10.3159C28.9536 10.3009 29.2166 10.2159 29.4446 10.0679C29.6106 9.98492 29.7516 9.86092 29.8546 9.70892C29.9586 9.55692 30.0216 9.38192 30.0366 9.19992C30.0328 9.04603 29.989 8.89577 29.9096 8.76392C29.8379 8.65172 29.7387 8.55974 29.6214 8.49672C29.5041 8.43371 29.3727 8.40176 29.2396 8.40392C28.9786 8.41292 28.7236 8.49392 28.5056 8.63592C28.335 8.72391 28.1895 8.8536 28.0826 9.01292C27.9763 9.17111 27.9126 9.35398 27.8976 9.54392C27.9006 9.68392 27.9406 9.82192 28.0116 9.94392ZM7.18357 3.66092C10.0305 1.64132 13.436 0.558835 16.9266 0.563921C21.3276 0.570921 25.5466 2.28992 28.6566 5.34192C31.7666 8.39392 33.5126 12.5309 33.5136 16.8439C33.5236 19.3539 32.9336 21.8309 31.7926 24.0789C30.6442 26.3348 28.9832 28.2901 26.9426 29.7879C24.5025 30.6246 21.8772 30.7632 19.3626 30.1879C19.4286 29.1999 19.8446 28.1879 20.4646 27.9999C23.0089 27.2414 25.2278 25.6566 26.7706 23.4959C28.296 21.3571 29.046 18.7618 28.8966 16.1389C28.7414 13.513 27.6976 11.018 25.9366 9.06392C24.1555 7.08843 21.769 5.75998 19.1516 5.28692C16.5247 4.80713 13.813 5.20491 11.4346 6.41892C9.07601 7.61875 7.18852 9.57562 6.07457 11.9759C4.97348 14.358 4.72047 17.0451 5.35757 19.5909C6.00258 22.1484 7.49329 24.4126 9.58757 26.0159C8.90824 26.3025 8.32278 26.7736 7.89756 27.3759C7.68037 27.2384 7.47197 27.0874 7.27357 26.9239L7.16357 27.0319C7.28957 27.1719 7.49757 27.3759 7.73857 27.6079C7.3723 28.2107 7.17859 28.9026 7.17857 29.6079C7.17157 29.7179 7.17157 29.8269 7.17857 29.9359C4.36004 27.9377 2.25141 25.0935 1.15857 21.8159C0.0777885 18.5574 0.0788406 15.0368 1.16157 11.7789C2.25519 8.50145 4.36451 5.65861 7.18357 3.66092ZM2.44957 11.9279L2.04157 11.8199L1.56357 13.4159L4.45357 14.2159L4.89857 12.6159L4.49057 12.5079L4.16057 13.6639L3.26557 13.4279L3.58457 12.3639L3.20057 12.2559L2.89857 13.3199L2.08257 13.0999L2.44957 11.9279ZM3.62957 16.2439L1.17957 16.9159L1.21257 17.4159L4.24557 16.5239V16.0399L1.26957 14.8679V15.3519L3.62857 16.2439H3.62957ZM4.29057 18.4359L1.34357 18.8359L1.40457 19.3239L4.35557 18.9039L4.29057 18.4359ZM6.76857 24.5719C6.76799 24.319 6.68477 24.0732 6.53157 23.8719C6.4321 23.725 6.30224 23.601 6.15077 23.5086C5.9993 23.4161 5.82975 23.3572 5.65357 23.3359C5.30557 23.3859 4.97857 23.5319 4.71057 23.7559L3.38857 24.6319L3.65857 25.0079L5.04557 24.0839L5.08257 24.0599C5.34857 23.8869 5.50157 23.7879 5.65357 23.7879C5.75484 23.7901 5.85409 23.8167 5.94288 23.8654C6.03168 23.9142 6.10739 23.9836 6.16357 24.0679C6.24686 24.1857 6.29631 24.324 6.30657 24.4679C6.30657 24.6719 6.19657 24.8119 5.93957 24.9839C5.90657 24.9999 4.39257 26.0639 4.39257 26.0639L4.66257 26.4639L6.16357 25.4319C6.67357 25.0879 6.76857 24.8559 6.76857 24.5719ZM5.34957 22.0359L5.18657 21.6359L3.14957 22.4199L4.78257 20.4959L4.62257 20.0959L1.79857 21.0639L1.95857 21.4639L4.03157 20.7439L2.39857 22.6839L2.55857 23.0839L5.34957 22.0359ZM5.27757 10.0999L6.12257 10.1759L6.32657 9.71592L5.35057 9.63592C5.19234 9.61377 5.03179 9.61377 4.87357 9.63592C4.82267 9.65635 4.77461 9.68324 4.73057 9.71592C4.775 9.58903 4.775 9.45081 4.73057 9.32392C4.69976 9.23567 4.65122 9.15465 4.58794 9.08586C4.52465 9.01707 4.44795 8.96196 4.36257 8.92392C4.23805 8.85312 4.09778 8.81461 3.95457 8.81192C3.53857 8.81192 3.34657 9.06392 3.07757 9.53192L2.72657 10.1399L5.35457 11.5319L5.57957 11.1319L4.49357 10.5519L4.55857 10.4439C4.75057 10.0999 4.81657 10.0679 5.27757 10.0999ZM6.63257 8.95592C6.97757 8.90792 7.29357 8.74192 7.52657 8.48792H7.51357C7.69184 8.30752 7.80781 8.07487 7.84457 7.82392C7.84192 7.70434 7.81358 7.58672 7.76147 7.47906C7.70936 7.37139 7.63471 7.27619 7.54257 7.19992C7.39382 7.06579 7.19983 6.99291 6.99957 6.99592C6.77354 7.01474 6.55254 7.07295 6.34657 7.16792L6.30657 7.18792C6.08257 7.29592 5.75957 7.45292 5.56257 7.27592C5.528 7.2445 5.50036 7.20622 5.48142 7.16352C5.46248 7.12082 5.45265 7.07463 5.45257 7.02792C5.45962 6.89228 5.51661 6.76405 5.61257 6.66792C5.76842 6.50255 5.97779 6.39769 6.20357 6.37192L6.12257 5.97192C5.95694 5.97613 5.79427 6.01664 5.64601 6.09059C5.49776 6.16455 5.36755 6.27014 5.26457 6.39992C5.09585 6.57748 4.99863 6.81109 4.99157 7.05592C4.99244 7.16341 5.0171 7.26937 5.06378 7.36619C5.11047 7.46302 5.17801 7.5483 5.26157 7.61592C5.59557 7.91192 5.97957 7.78792 6.34657 7.64792C6.53557 7.55092 6.73957 7.48792 6.95057 7.45992C7.02863 7.45856 7.10547 7.47934 7.1722 7.51988C7.23892 7.56041 7.2928 7.61902 7.32757 7.68892C7.35248 7.73974 7.36613 7.79534 7.36757 7.85192C7.36253 7.99272 7.30554 8.12667 7.20757 8.22792C7.01975 8.39785 6.78792 8.51151 6.53857 8.55592L6.63257 8.95592ZM7.22457 4.69192L9.03957 7.00392L9.38657 6.73592L7.59157 4.39992L7.22457 4.69192ZM9.79556 3.51592L11.0036 5.75192L11.4286 5.53592L10.2246 3.30792L10.9746 2.93192L10.7836 2.57192L8.85357 3.55592L9.04457 3.91592L9.79556 3.51592ZM13.6356 4.71992L14.0976 4.59592L13.7716 3.48792L14.1796 1.53192L13.6656 1.67192L13.4116 3.07992L12.3916 2.03192L11.8976 2.17192L13.3146 3.62792L13.6366 4.71992H13.6356ZM16.6336 3.13492C16.7107 3.21023 16.8143 3.25239 16.9221 3.25239C17.0299 3.25239 17.1334 3.21023 17.2106 3.13492C17.2482 3.09805 17.2782 3.05402 17.2986 3.00542C17.319 2.95683 17.3296 2.90464 17.3296 2.85192C17.3296 2.7992 17.319 2.74702 17.2986 2.69842C17.2782 2.64982 17.2482 2.6058 17.2106 2.56892C17.1335 2.49337 17.03 2.45105 16.9221 2.45105C16.8142 2.45105 16.7106 2.49337 16.6336 2.56892C16.5959 2.6058 16.566 2.64982 16.5455 2.69842C16.5251 2.74702 16.5146 2.7992 16.5146 2.85192C16.5146 2.90464 16.5251 2.95683 16.5455 3.00542C16.566 3.05402 16.5959 3.09805 16.6336 3.13492ZM20.8976 4.95592C21.1146 4.95892 21.3286 4.90492 21.5176 4.79992C21.7696 4.63692 21.9776 4.41692 22.1256 4.15892C22.2726 3.90092 22.3536 3.61192 22.3626 3.31592C22.3666 3.06493 22.3063 2.81707 22.1876 2.59592C22.0702 2.39411 21.901 2.22735 21.6976 2.11292C21.4923 1.99721 21.2602 1.93755 21.0246 1.93992C20.6966 1.94992 20.3806 2.06792 20.1296 2.27492C19.8788 2.47972 19.705 2.76352 19.6366 3.07992C19.5866 3.23692 19.5596 3.39992 19.5546 3.56392C19.5446 3.81992 19.6056 4.07392 19.7306 4.29992C19.8476 4.50092 20.0176 4.66792 20.2236 4.78292C20.4286 4.89892 20.6616 4.95792 20.8976 4.95592ZM24.4896 3.71992L25.4896 4.33192L25.6816 3.99992L24.2976 3.15992L22.7836 5.67592L23.1916 5.90792L23.8776 4.76792L24.8326 5.31592L25.0406 4.97192L24.0806 4.42392L24.4896 3.71992ZM26.4336 6.94092C26.4966 6.98792 26.5736 7.01492 26.6536 7.01992V7.00392C26.7606 7.00392 26.8636 6.96392 26.9436 6.89392C27.0236 6.82192 27.0736 6.72492 27.0856 6.61992C27.0847 6.56086 27.0709 6.50271 27.0452 6.44952C27.0195 6.39633 26.9825 6.34939 26.9368 6.31197C26.8911 6.27455 26.8378 6.24756 26.7806 6.23287C26.7234 6.21818 26.6636 6.21615 26.6056 6.22692C26.5278 6.24061 26.4556 6.27636 26.3976 6.32992C26.3402 6.38302 26.2998 6.45183 26.2813 6.52777C26.2628 6.6037 26.2671 6.6834 26.2936 6.75692C26.3211 6.8307 26.3698 6.89471 26.4336 6.94092ZM28.2486 26.8559C28.6656 26.8559 28.9996 26.7479 29.5096 26.1079L29.9626 25.5279L27.6366 23.6999L27.2286 24.2159C26.9146 24.5269 26.7226 24.9359 26.6856 25.3719C26.6926 25.5949 26.7506 25.8129 26.8556 26.0109C26.9606 26.2079 27.1106 26.3799 27.2936 26.5119C27.5636 26.7279 27.9006 26.8489 28.2486 26.8559ZM30.5346 23.6399C31.0206 23.6399 31.2046 23.3559 31.4286 22.8399C31.5046 22.6279 31.5946 22.4209 31.6986 22.2199L28.9876 21.0199L28.7956 21.4439L29.9306 21.9439L29.8646 22.0679C29.7056 22.4039 29.6406 22.4679 29.1796 22.4679H28.3186L28.1096 22.9199H29.0976C29.2596 22.9319 29.4226 22.9159 29.5796 22.8719C29.6252 22.8532 29.6677 22.8275 29.7056 22.7959V22.8719C29.7023 22.981 29.7249 23.0893 29.7716 23.1879C29.8446 23.3239 29.9536 23.4379 30.0886 23.5179C30.2226 23.5979 30.3776 23.6399 30.5346 23.6399ZM31.1266 20.3519C31.4456 20.3579 31.7576 20.2649 32.0206 20.0879H31.9996C32.1696 19.9709 32.3096 19.8139 32.4026 19.6309C32.4956 19.4479 32.5406 19.2439 32.5326 19.0399C32.5326 18.1639 31.7176 17.6639 30.9006 17.6639C30.5776 17.6627 30.2613 17.7558 29.9906 17.9319C29.8246 18.0519 29.6896 18.2099 29.5976 18.3919C29.5061 18.5728 29.4601 18.7733 29.4636 18.9759C29.4636 19.9519 30.4066 20.3519 31.1256 20.3519H31.1266ZM32.2976 16.4599L32.7056 16.4279L32.5756 14.8039L29.6116 15.0399L29.6406 15.5079L30.9836 15.3959L31.0776 16.4759L31.4856 16.4439L31.3876 15.3679L32.2036 15.3039L32.2976 16.4599ZM30.8816 12.3199L31.6976 11.4119L31.5266 10.8799L30.4446 12.1439L28.6736 11.7439L28.8326 12.2279L30.1546 12.5239L29.2776 13.5239L29.4366 14.0239L30.6036 12.6519L32.2366 13.0519L32.0766 12.5839L30.8816 12.3199ZM30.5016 9.22392C30.503 8.97947 30.4321 8.74006 30.2976 8.53592H30.2776C30.1626 8.34678 29.9989 8.19204 29.8036 8.08792C29.607 7.98309 29.3862 7.93204 29.1636 7.93992C28.8336 7.94992 28.5136 8.04792 28.2366 8.22392C28.0128 8.34831 27.8237 8.52673 27.6866 8.74292C27.5506 8.95792 27.4716 9.20292 27.4566 9.45592C27.4566 9.69992 27.5286 9.93892 27.6656 10.1439C27.7816 10.3309 27.9456 10.4839 28.1406 10.5919C28.3356 10.6989 28.5556 10.7559 28.7796 10.7559C29.1156 10.7429 29.4416 10.6409 29.7226 10.4599C29.9456 10.3329 30.1346 10.1529 30.2696 9.93792C30.4066 9.72192 30.4856 9.47692 30.5016 9.22392ZM111.34 11.5999C112.838 11.5999 113.667 10.3479 113.667 8.61192C113.667 6.87592 112.679 5.76792 111.291 5.76792C109.904 5.76792 108.981 6.92392 108.981 8.67592C108.981 10.4279 109.997 11.5999 111.34 11.5999ZM3.90957 9.27192C3.99246 9.27081 4.07419 9.2915 4.14657 9.33192C4.25543 9.39249 4.34885 9.47736 4.41957 9.57992C4.42781 9.62084 4.42781 9.663 4.41957 9.70392C4.38957 9.89392 4.31957 10.0749 4.21157 10.2359L4.14657 10.3439L3.30157 9.90792L3.42857 9.67192C3.60357 9.39592 3.71857 9.27192 3.90957 9.27192ZM21.0566 2.31592C20.4036 2.31592 20.0526 3.04792 20.0526 3.56392C20.0439 3.74968 20.088 3.93409 20.1796 4.09592C20.2476 4.22092 20.3486 4.32592 20.4716 4.40092C20.5955 4.4757 20.7369 4.51673 20.8816 4.51992C21.5836 4.51992 21.8856 3.67592 21.8856 3.25192C21.8969 3.1362 21.8841 3.01939 21.8479 2.90888C21.8118 2.79837 21.7531 2.69657 21.6756 2.60992C21.5976 2.52165 21.5025 2.4501 21.3962 2.39957C21.2898 2.34904 21.1742 2.32058 21.0566 2.31592ZM15.8606 28.4519C15.7196 28.5519 15.6006 28.6779 15.5106 28.8239C15.0566 28.6239 14.5136 28.3559 14.1876 28.1519C14.7386 28.2839 15.2976 28.3839 15.8606 28.4519ZM8.39056 29.6239C8.38956 29.2179 8.48057 28.8179 8.66057 28.4519L8.55657 28.3669C8.39254 28.2383 8.23657 28.0997 8.08957 27.9519C7.80526 28.4546 7.65608 29.0224 7.65657 29.5999C7.65657 30.0539 7.74757 30.5029 7.92557 30.9219C8.10257 31.3409 8.36257 31.7219 8.68956 32.0419C9.01756 32.3619 9.40656 32.6169 9.83356 32.7899C10.2616 32.9639 10.7206 33.0529 11.1836 33.0519C11.4136 33.0559 11.6436 33.0359 11.8686 32.9919C11.2003 32.7453 10.5546 32.4415 9.93857 32.0839C9.47855 31.8522 9.09033 31.4996 8.81557 31.0639C8.54381 30.6324 8.39704 30.1339 8.39157 29.6239H8.39056ZM27.1016 25.2919C27.1151 25.4566 27.1649 25.6162 27.2473 25.7593C27.3298 25.9025 27.4429 26.0256 27.5786 26.1199C27.7686 26.2869 28.0116 26.3819 28.2656 26.3879C28.6736 26.3879 28.9016 26.1519 29.2246 25.7599L29.3506 25.6039L27.6446 24.2759L27.4526 24.5119C27.2566 24.7299 27.1346 25.0019 27.1026 25.2919H27.1016ZM31.0406 22.6959C30.8806 23.0559 30.7706 23.1679 30.5466 23.1679C30.4531 23.1678 30.3616 23.141 30.2828 23.0907C30.2039 23.0404 30.1411 22.9687 30.1016 22.8839C30.0824 22.8285 30.0713 22.7705 30.0686 22.7119C30.0865 22.5359 30.141 22.3656 30.2286 22.2119L30.2776 22.1039L31.1376 22.4799L31.0406 22.6959ZM30.8656 18.1319C30.6283 18.1253 30.3947 18.1909 30.1956 18.3199C30.0916 18.3984 30.0072 18.5 29.9491 18.6166C29.891 18.7332 29.8607 18.8616 29.8606 18.9919C29.8606 19.5719 30.5466 19.8839 31.1226 19.8839C31.3546 19.8899 31.5826 19.8239 31.7756 19.6959C31.8781 19.6198 31.9616 19.5209 32.0196 19.4071C32.0775 19.2933 32.1083 19.1676 32.1096 19.0399C32.1106 18.8829 32.0606 18.7299 31.9676 18.6039C31.831 18.4477 31.6611 18.3241 31.4703 18.2424C31.2796 18.1607 31.0729 18.1229 30.8656 18.1319ZM130.915 19.3039C132.682 19.3039 133.817 19.4639 134.694 19.9639C136.813 21.1519 137.503 23.5719 137.503 26.1199C137.503 28.6679 136.784 30.6839 135.237 31.7959C134.311 32.4519 133.005 32.7039 131.249 32.7039H129.396C128.854 32.7039 128.727 32.5759 128.727 32.0439V19.3039H130.915ZM28.3746 16.8199C28.3727 14.9012 27.8712 13.016 26.9196 11.3499C25.959 9.67058 24.5843 8.26526 22.9266 7.26792C21.2549 6.26221 19.3574 5.69242 17.4082 5.61083C15.459 5.52923 13.5205 5.93845 11.7706 6.80092C10.0325 7.65643 8.54145 8.9413 7.43857 10.5339C6.34368 12.1105 5.67936 13.9456 5.51134 15.8577C5.34332 17.7697 5.67741 19.6926 6.48057 21.4359C7.28903 23.1896 8.53451 24.706 10.0976 25.8399C10.6291 25.6978 11.1838 25.664 11.7287 25.7404C12.2736 25.8169 12.7976 26.002 13.2696 26.2849C13.9026 26.6649 14.4166 27.2089 14.7546 27.8559C15.4656 27.9859 16.1866 28.0559 16.9096 28.0599C19.9354 28.0534 22.8396 26.8678 25.0056 24.7549C26.065 23.7216 26.9086 22.4879 27.4871 21.1257C28.0656 19.7635 28.3666 18.2999 28.3746 16.8199ZM17.7646 8.70792L18.9886 9.50792V9.58792L18.7026 9.69592C18.6376 9.72792 18.6376 9.77592 18.6706 9.78792L19.3726 10.4159H19.4376L19.9996 9.65992C20.0326 9.61592 19.9996 9.56792 19.9506 9.55192L19.6006 9.48792V9.42792L20.5266 8.14392H20.6696L21.5956 9.42792V9.51992L21.2456 9.58392C21.1796 9.58392 21.1636 9.64392 21.1956 9.69192L21.7226 10.4599H21.7876L22.5346 9.83192C22.5676 9.79992 22.5676 9.75592 22.5016 9.73992L22.2166 9.61592V9.53592L23.4126 8.73592L23.5056 8.76792L22.7756 10.9399C22.0562 10.7238 21.3061 10.6278 20.5556 10.6559C19.8061 10.6306 19.0575 10.7265 18.3386 10.9399L17.6086 8.76792L17.7626 8.70792H17.7646ZM22.6626 11.5079C22.6626 11.7279 21.7396 11.9079 20.6216 11.9079C19.5026 11.9079 18.5806 11.7359 18.5806 11.5079C18.5806 11.2799 19.5066 11.1079 20.6206 11.1079C21.7356 11.1079 22.6666 11.3039 22.6666 11.5199L22.6626 11.5079ZM17.1596 14.6679C17.1326 14.3979 17.1806 14.1269 17.2996 13.8819C17.4181 13.6357 17.6013 13.4262 17.8296 13.2759C18.1916 13.1029 18.5946 13.0259 18.9966 13.0559H22.5356V20.0399H18.6746C17.8006 20.0399 17.2746 20.2279 17.2246 21.0079H17.1446L17.1596 14.6679ZM16.6666 14.6679V20.9959H16.5886C16.5396 20.1959 16.0286 20.0279 15.1356 20.0279H11.3066V13.0679H14.8336C15.2336 13.0379 15.6356 13.1149 15.9966 13.2879C16.2246 13.4409 16.4066 13.6499 16.5246 13.8949C16.6436 14.1399 16.6936 14.4099 16.6706 14.6799L16.6666 14.6679ZM11.1646 11.5079C11.1646 11.2919 12.0866 11.1079 13.2046 11.1079C14.3236 11.1079 15.2456 11.2799 15.2456 11.5079C15.2456 11.7359 14.3196 11.9079 13.2056 11.9079C12.0906 11.9079 11.1686 11.7399 11.1686 11.5199L11.1646 11.5079ZM10.3806 8.70792L11.6046 9.50792V9.58792L11.3196 9.71192C11.2536 9.74392 11.2536 9.78792 11.2866 9.80392L11.9886 10.4319H12.0496L12.5766 9.66392C12.6086 9.61592 12.5766 9.57192 12.5316 9.55592L12.1806 9.49192V9.41592L13.1026 8.13192H13.2496L14.1726 9.41592V9.50792L13.8786 9.59992C13.8176 9.59992 13.8006 9.65992 13.8336 9.70792L14.3556 10.4759H14.4216L15.1716 9.84792C15.2046 9.81592 15.2046 9.77192 15.1396 9.75592L14.8536 9.63192V9.55192L16.0496 8.75192L16.1436 8.78392L15.4086 10.9559C14.6906 10.7399 13.9418 10.644 13.1926 10.6719C12.4434 10.6467 11.6951 10.7426 10.9766 10.9559L10.2416 8.78392L10.3806 8.70792ZM16.9106 26.5119C15.7766 26.5119 14.8706 26.3399 14.8706 26.1119C14.8706 25.8839 15.7966 25.7119 16.9106 25.7119C18.0256 25.7119 18.9516 25.8839 18.9516 26.1119C18.9516 26.3399 18.0576 26.5119 16.9276 26.5119H16.9106ZM19.1106 25.5279C18.3926 25.3119 17.6438 25.216 16.8946 25.2439C16.1441 25.2185 15.3945 25.3144 14.6746 25.5279L13.9446 23.3559L14.0376 23.3239L15.2616 24.1239V24.2039L14.9766 24.3279C14.9106 24.3599 14.9106 24.4039 14.9436 24.4199L15.6456 25.0479H15.7066L16.2336 24.2799C16.2656 24.2319 16.2336 24.1879 16.1886 24.1719L15.8376 24.1079V24.0159L16.7596 22.7319H16.9026L17.8296 24.0159V24.1079L17.4786 24.1719C17.4126 24.1719 17.4006 24.2319 17.4286 24.2799L17.9556 25.0479H18.0216L18.7716 24.4199C18.8016 24.3879 18.8016 24.3439 18.7396 24.3279L18.4496 24.2039V24.1239L19.6456 23.3239L19.7436 23.3559L19.1106 25.5279ZM23.7846 21.4479H18.1496C18.0238 21.6519 17.8423 21.8157 17.6266 21.9199C17.4086 22.0249 17.1666 22.0659 16.9256 22.0399C16.6854 22.0643 16.4431 22.0217 16.2256 21.9169C16.0101 21.8129 15.8282 21.6504 15.7006 21.4479H10.0646V20.9159L9.60256 21.1039C9.58292 21.2065 9.52723 21.2988 9.44557 21.3639C9.37964 21.4161 9.30055 21.449 9.21707 21.4589C9.13359 21.4688 9.04899 21.4555 8.97265 21.4202C8.89632 21.385 8.83123 21.3294 8.78461 21.2594C8.738 21.1894 8.71167 21.1079 8.70856 21.0239C8.70856 20.9079 8.75556 20.7969 8.83856 20.7159C8.92278 20.6337 9.03587 20.5878 9.15357 20.5879C9.24057 20.5879 9.32457 20.6139 9.39457 20.6639L10.0476 20.3839V19.8079L9.60256 19.9479C9.57683 20.0405 9.52042 20.1216 9.44256 20.1779C9.35446 20.2384 9.24811 20.2665 9.14162 20.2574C9.03513 20.2483 8.9351 20.2025 8.85857 20.1279C8.77566 20.0466 8.72791 19.936 8.72556 19.8199C8.72546 19.7625 8.73691 19.7056 8.75925 19.6527C8.78158 19.5998 8.81434 19.5519 8.85557 19.5119C8.93524 19.4332 9.04169 19.3874 9.15365 19.3837C9.26561 19.38 9.37485 19.4186 9.45957 19.4919L10.0476 19.3199V18.7279L9.58657 18.7999C9.55155 18.8791 9.49443 18.9465 9.42206 18.9941C9.34969 19.0416 9.26515 19.0672 9.17857 19.0679C9.06774 19.0578 8.96451 19.0073 8.88857 18.9259C8.81385 18.8455 8.77233 18.7397 8.77233 18.6299C8.77233 18.5201 8.81385 18.4144 8.88857 18.3339C8.96445 18.2525 9.06771 18.2019 9.17857 18.1919C9.23854 18.1909 9.29802 18.2029 9.35292 18.227C9.40782 18.2512 9.45683 18.287 9.49656 18.3319L10.0396 18.2399V17.6319H9.56256C9.52215 17.6979 9.4658 17.7526 9.39869 17.791C9.33159 17.8295 9.25589 17.8504 9.17857 17.8519C9.06209 17.849 8.951 17.8022 8.86757 17.7209C8.785 17.6405 8.73695 17.5311 8.73357 17.4159C8.73312 17.3582 8.74431 17.301 8.76648 17.2478C8.78864 17.1945 8.82132 17.1463 8.86257 17.1059C8.92986 17.0389 9.01683 16.9952 9.11075 16.9812C9.20467 16.9671 9.30062 16.9835 9.38457 17.0279C9.44782 17.0605 9.50286 17.107 9.54556 17.1639H10.0396V16.5079H9.52956C9.48804 16.5665 9.43299 16.6142 9.3691 16.6469C9.3052 16.6796 9.23435 16.6964 9.16257 16.6959C9.05174 16.6858 8.94851 16.6353 8.87257 16.5539C8.79785 16.4735 8.75633 16.3677 8.75633 16.2579C8.75633 16.1481 8.79785 16.0424 8.87257 15.9619C8.94845 15.8805 9.05171 15.8299 9.16257 15.8199C9.23949 15.8227 9.31458 15.8441 9.38132 15.8825C9.44806 15.9208 9.50444 15.9749 9.54556 16.0399H10.0236V15.4279L9.46856 15.3359C9.38363 15.4211 9.26972 15.471 9.14956 15.4759C9.03218 15.4741 8.91991 15.4276 8.83557 15.3459C8.7524 15.2654 8.70396 15.1556 8.70057 15.0399C8.70057 14.9389 8.73757 14.8409 8.80257 14.7629C8.86853 14.6839 8.95961 14.6298 9.06061 14.6098C9.16162 14.5898 9.26643 14.605 9.35756 14.6529C9.44856 14.6989 9.52094 14.7748 9.56256 14.8679L10.0226 14.9439V14.3519L9.38657 14.1639C9.33635 14.2014 9.27904 14.2284 9.2181 14.2431C9.15717 14.2578 9.09388 14.26 9.03207 14.2495C8.97027 14.2391 8.91123 14.2161 8.85854 14.1822C8.80586 14.1482 8.76062 14.1039 8.72556 14.0519C8.67966 13.983 8.65402 13.9027 8.65157 13.8199C8.65157 13.7029 8.69957 13.5909 8.78357 13.5089C8.86836 13.4262 8.98212 13.3799 9.10056 13.3799C9.19643 13.3825 9.28923 13.4142 9.36656 13.4709C9.44298 13.5271 9.49996 13.6058 9.52956 13.6959L10.0066 13.8359V13.5999H10.5046V20.9799H15.9416L16.0066 21.1359C16.1006 21.3679 16.2766 21.5719 16.8686 21.5719C17.4596 21.5719 17.6316 21.3519 17.7286 21.1359L17.7946 20.9799H23.2646V13.5999H23.7576V21.4319L23.7826 21.4479H23.7846ZM44.0746 26.0119C44.0746 22.5119 45.8096 19.1039 49.4826 19.1039C52.8786 19.1039 54.8866 21.9319 54.8866 26.0119C54.8866 29.4959 53.1566 32.9039 49.4826 32.9039C46.0826 32.9039 44.0746 30.0759 44.0746 26.0119ZM15.9196 29.0279C16.8596 29.4549 17.8356 29.8009 18.8376 30.0599C18.8876 29.4119 19.0956 28.7839 19.4456 28.2319C18.6076 28.4069 17.7516 28.4959 16.8956 28.4959C16.7017 28.5021 16.512 28.5534 16.3416 28.6459C16.1716 28.7389 16.0266 28.8699 15.9196 29.0279ZM79.3096 7.11192C79.3126 7.44992 79.1806 7.77592 78.9416 8.01992C78.4466 8.50092 77.6736 8.47192 76.9226 8.44392H76.6236V5.83592H77.4396C78.0316 5.83592 78.5626 5.83592 78.9696 6.23592C79.1936 6.47492 79.3146 6.78792 79.3096 7.11192ZM97.8566 19.1039C94.1826 19.1039 92.4526 22.5119 92.4526 26.0119C92.4526 30.0759 94.4606 32.9039 97.8566 32.9039C101.53 32.9039 103.265 29.4959 103.265 26.0119C103.265 21.9319 101.257 19.1039 97.8566 19.1039ZM116.79 20.8229C117.134 21.3649 117.301 21.9979 117.269 22.6359C117.269 24.3079 116.648 26.0759 113.779 26.1159H111.893V19.3159H113.028C113.811 19.2559 114.598 19.3539 115.342 19.5999C115.941 19.8529 116.446 20.2799 116.79 20.8229Z" fill="#1D2C4F"/>
</g>
</g>
<defs>
<clipPath id="clip0_4_11830">
<rect width="140" height="40" fill="white"/>
</clipPath>
</defs>
</svg>
