<svg width="54" height="54" viewBox="0 0 54 54" fill="none" xmlns="http://www.w3.org/2000/svg">
<g clip-path="url(#clip0_2_8943)">
<path d="M54 0H0V54H54V0Z" fill="black"/>
<path d="M27.5273 26.7891C32.595 26.7891 36.7031 22.6809 36.7031 17.6133C36.7031 12.5456 32.595 8.4375 27.5273 8.4375C22.4597 8.4375 18.3516 12.5456 18.3516 17.6133C18.3516 22.6809 22.4597 26.7891 27.5273 26.7891Z" stroke="#1473E6" stroke-width="0.632812" stroke-dasharray="2.64 2.64"/>
<path d="M36.4507 15.4014L34.7588 13.9557L36.8569 13.2134L36.4507 15.4014Z" fill="#1473E6"/>
<path d="M20.6052 21.5352L18.6777 22.6479V20.4224L20.6052 21.5352Z" fill="#1473E6"/>
<path d="M26.5873 5.27344H5.98355C5.41662 5.27344 4.95703 5.73303 4.95703 6.29996V14.4647C4.95703 15.0317 5.41662 15.4913 5.98355 15.4913H26.5873C27.1542 15.4913 27.6138 15.0317 27.6138 14.4647V6.29996C27.6138 5.73303 27.1542 5.27344 26.5873 5.27344Z" fill="#FFBCCA"/>
<path d="M9.73926 11.8588V8.87256H10.7833C10.9913 8.87256 11.1629 8.90852 11.298 8.98045C11.4331 9.05142 11.5337 9.14717 11.5999 9.26771C11.6659 9.38728 11.699 9.51997 11.699 9.66578C11.699 9.79409 11.6761 9.90005 11.6304 9.98365C11.5857 10.0672 11.5265 10.1334 11.4525 10.182C11.3796 10.2306 11.3004 10.2665 11.2149 10.2899V10.319C11.3062 10.3249 11.3981 10.3569 11.4905 10.4153C11.5828 10.4736 11.6601 10.5572 11.7223 10.6661C11.7845 10.7749 11.8157 10.9081 11.8157 11.0656C11.8157 11.2152 11.7816 11.3499 11.7136 11.4695C11.6455 11.589 11.5381 11.6838 11.3914 11.7539C11.2445 11.8238 11.0535 11.8588 10.8182 11.8588H9.73926ZM10.1009 11.538H10.8182C11.0545 11.538 11.2222 11.4923 11.3213 11.401C11.4214 11.3086 11.4715 11.1968 11.4715 11.0656C11.4715 10.9644 11.4458 10.8712 11.3942 10.7857C11.3427 10.6991 11.2693 10.6301 11.1741 10.5785C11.0787 10.5261 10.966 10.4998 10.8357 10.4998H10.1009V11.538ZM10.1009 10.1849H10.7716C10.8805 10.1849 10.9787 10.1635 11.0662 10.1207C11.1546 10.0779 11.2246 10.0177 11.2761 9.9399C11.3286 9.86214 11.3549 9.77076 11.3549 9.66578C11.3549 9.53454 11.3092 9.42324 11.2178 9.33186C11.1264 9.23952 10.9816 9.19334 10.7833 9.19334H10.1009V10.1849ZM13.9457 10.9431V9.61912H14.2898V11.8588H13.9457V11.4797H13.9224C13.8699 11.5935 13.7882 11.6902 13.6774 11.7699C13.5666 11.8486 13.4266 11.8879 13.2575 11.8879C13.1175 11.8879 12.9931 11.8573 12.8842 11.7961C12.7753 11.7339 12.6898 11.6406 12.6276 11.5161C12.5653 11.3907 12.5342 11.2327 12.5342 11.0423V9.61912H12.8784V11.019C12.8784 11.1822 12.924 11.3125 13.0155 11.4097C13.1078 11.5069 13.2255 11.5555 13.3683 11.5555C13.4538 11.5555 13.5408 11.5337 13.6293 11.4899C13.7187 11.4461 13.7936 11.379 13.8538 11.2886C13.9151 11.1983 13.9457 11.0831 13.9457 10.9431ZM16.0652 9.61912V9.91074H14.9045V9.61912H16.0652ZM15.2429 9.08253H15.587V11.2172C15.587 11.3145 15.601 11.3874 15.6293 11.436C15.6584 11.4836 15.6953 11.5156 15.74 11.5322C15.7857 11.5478 15.8339 11.5555 15.8844 11.5555C15.9223 11.5555 15.9534 11.5536 15.9778 11.5497C16.002 11.5448 16.0215 11.5409 16.0361 11.538L16.106 11.8471C16.0827 11.8559 16.0501 11.8646 16.0084 11.8734C15.9666 11.8831 15.9135 11.8879 15.8494 11.8879C15.7522 11.8879 15.6569 11.867 15.5636 11.8253C15.4713 11.7835 15.3945 11.7198 15.3332 11.6343C15.273 11.5487 15.2429 11.4408 15.2429 11.3106V9.08253ZM17.728 9.61912V9.91074H16.5673V9.61912H17.728ZM16.9056 9.08253H17.2497V11.2172C17.2497 11.3145 17.2639 11.3874 17.292 11.436C17.3211 11.4836 17.3581 11.5156 17.4029 11.5322C17.4485 11.5478 17.4966 11.5555 17.5471 11.5555C17.5851 11.5555 17.6162 11.5536 17.6405 11.5497C17.6648 11.5448 17.6843 11.5409 17.6988 11.538L17.7688 11.8471C17.7455 11.8559 17.7129 11.8646 17.6712 11.8734C17.6293 11.8831 17.5764 11.8879 17.5122 11.8879C17.415 11.8879 17.3198 11.867 17.2264 11.8253C17.134 11.7835 17.0572 11.7198 16.996 11.6343C16.9357 11.5487 16.9056 11.4408 16.9056 11.3106V9.08253ZM19.3026 11.9054C19.1004 11.9054 18.9229 11.8573 18.7703 11.7611C18.6187 11.6649 18.5001 11.5303 18.4145 11.3572C18.3299 11.1841 18.2876 10.9819 18.2876 10.7507C18.2876 10.5173 18.3299 10.3137 18.4145 10.1397C18.5001 9.96567 18.6187 9.83054 18.7703 9.73431C18.9229 9.63807 19.1004 9.58996 19.3026 9.58996C19.5047 9.58996 19.6816 9.63807 19.8333 9.73431C19.9859 9.83054 20.1045 9.96567 20.189 10.1397C20.2746 10.3137 20.3174 10.5173 20.3174 10.7507C20.3174 10.9819 20.2746 11.1841 20.189 11.3572C20.1045 11.5303 19.9859 11.6649 19.8333 11.7611C19.6816 11.8573 19.5047 11.9054 19.3026 11.9054ZM19.3026 11.5963C19.4561 11.5963 19.5825 11.557 19.6816 11.4783C19.7808 11.3995 19.8542 11.2959 19.9018 11.1677C19.9494 11.0393 19.9732 10.9003 19.9732 10.7507C19.9732 10.6009 19.9494 10.4614 19.9018 10.3321C19.8542 10.2029 19.7808 10.0984 19.6816 10.0186C19.5825 9.93893 19.4561 9.89908 19.3026 9.89908C19.1489 9.89908 19.0225 9.93893 18.9234 10.0186C18.8243 10.0984 18.7509 10.2029 18.7032 10.3321C18.6556 10.4614 18.6318 10.6009 18.6318 10.7507C18.6318 10.9003 18.6556 11.0393 18.7032 11.1677C18.7509 11.2959 18.8243 11.3995 18.9234 11.4783C19.0225 11.557 19.1489 11.5963 19.3026 11.5963ZM21.3578 10.5115V11.8588H21.0138V9.61912H21.3462V9.96906H21.3753C21.4279 9.85534 21.5076 9.76396 21.6145 9.69494C21.7215 9.62495 21.8594 9.58996 22.0286 9.58996C22.1803 9.58996 22.313 9.62106 22.4267 9.68328C22.5405 9.74452 22.6288 9.83784 22.6921 9.96323C22.7553 10.0877 22.7868 10.2451 22.7868 10.4357V11.8588H22.4427V10.459C22.4427 10.2831 22.397 10.146 22.3057 10.0478C22.2142 9.94866 22.0889 9.89908 21.9295 9.89908C21.8196 9.89908 21.7215 9.92289 21.6349 9.97053C21.5494 10.0182 21.4819 10.0877 21.4323 10.179C21.3826 10.2704 21.3578 10.3812 21.3578 10.5115Z" fill="black" fill-opacity="0.87"/>
<path d="M24.6597 13.9827C24.6401 13.8129 24.82 13.6914 24.9702 13.7732L29.0397 15.9912C29.2137 16.086 29.1728 16.3468 28.978 16.3837L26.7672 16.8024C26.708 16.8136 26.6565 16.8494 26.6255 16.901L25.5804 18.6418C25.4769 18.8144 25.2133 18.7576 25.1901 18.5575L24.6597 13.9827Z" fill="#1473E6"/>
<path d="M48.0938 19.1953H28.8984C28.3159 19.1953 27.8438 19.6675 27.8438 20.25V47.6719C27.8438 48.2544 28.3159 48.7266 28.8984 48.7266H48.0938C48.6762 48.7266 49.1484 48.2544 49.1484 47.6719V20.25C49.1484 19.6675 48.6762 19.1953 48.0938 19.1953Z" fill="#2F3857"/>
<path d="M46.6963 30.4805H30.4013C29.8625 30.4805 29.4258 30.9172 29.4258 31.456V36.8877C29.4258 37.4265 29.8625 37.8633 30.4013 37.8633H46.6963C47.2351 37.8633 47.6719 37.4265 47.6719 36.8877V31.456C47.6719 30.9172 47.2351 30.4805 46.6963 30.4805Z" fill="url(#paint0_linear_2_8943)"/>
<path d="M42.7207 33.4424L44.2031 34.9247L45.6854 33.4424" stroke="#FFBCCA" stroke-width="0.494123" stroke-linecap="round" stroke-linejoin="round"/>
<path d="M46.6963 20.5664H30.4013C29.8625 20.5664 29.4258 21.0032 29.4258 21.5419V26.9737C29.4258 27.5125 29.8625 27.9492 30.4013 27.9492H46.6963C47.2351 27.9492 47.6719 27.5125 47.6719 26.9737V21.5419C47.6719 21.0032 47.2351 20.5664 46.6963 20.5664Z" fill="url(#paint1_linear_2_8943)"/>
<path d="M31.0078 21.6211V27" stroke="#FFBCCA" stroke-width="0.210938"/>
<path d="M30.4805 21.5156H31.5352" stroke="#FFBCCA" stroke-width="0.210938"/>
<path d="M30.4805 27H31.5352" stroke="#FFBCCA" stroke-width="0.210938"/>
<path d="M32.7679 22.8198V25.7346H32.415V22.8198H32.7679ZM33.9371 24.4195V25.7346H33.6012V23.5485H33.9257V23.89H33.9541C34.0054 23.7791 34.0832 23.6898 34.1875 23.6224C34.292 23.5542 34.4266 23.52 34.5918 23.52C34.7398 23.52 34.8693 23.5504 34.9804 23.6111C35.0913 23.6709 35.1777 23.762 35.2394 23.8843C35.301 24.0058 35.3319 24.1595 35.3319 24.3455V25.7346H34.996V24.3682C34.996 24.1965 34.9514 24.0628 34.8622 23.9669C34.773 23.8701 34.6506 23.8218 34.495 23.8218C34.3877 23.8218 34.292 23.845 34.2075 23.8915C34.124 23.938 34.058 24.0058 34.0096 24.095C33.9613 24.1842 33.9371 24.2924 33.9371 24.4195ZM36.1167 26.5544V23.5485H36.4412V23.8957H36.4811C36.5057 23.8577 36.5399 23.8094 36.5835 23.7506C36.6281 23.6908 36.6917 23.6376 36.7743 23.5912C36.8577 23.5438 36.9707 23.52 37.1129 23.52C37.2971 23.52 37.4593 23.566 37.5997 23.6581C37.7402 23.7501 37.8497 23.8805 37.9285 24.0495C38.0072 24.2183 38.0467 24.4176 38.0467 24.6472C38.0467 24.8787 38.0072 25.0794 37.9285 25.2492C37.8497 25.4182 37.7406 25.549 37.6012 25.6421C37.4616 25.7341 37.3009 25.7801 37.1186 25.7801C36.9783 25.7801 36.8658 25.7568 36.7813 25.7104C36.6969 25.6629 36.6319 25.6093 36.5863 25.5496C36.5409 25.4888 36.5057 25.4385 36.4811 25.3986H36.4526V26.5544H36.1167ZM36.4469 24.6415C36.4469 24.8066 36.4711 24.9523 36.5195 25.0784C36.5679 25.2037 36.6385 25.3019 36.7316 25.373C36.8245 25.4433 36.9384 25.4784 37.0731 25.4784C37.2136 25.4784 37.3307 25.4414 37.4247 25.3673C37.5195 25.2924 37.5907 25.1918 37.6382 25.0657C37.6865 24.9385 37.7107 24.7972 37.7107 24.6415C37.7107 24.4878 37.687 24.3493 37.6395 24.2259C37.593 24.1017 37.5224 24.0034 37.4275 23.9314C37.3336 23.8583 37.2154 23.8218 37.0731 23.8218C36.9365 23.8218 36.8216 23.8564 36.7287 23.9257C36.6357 23.9939 36.5654 24.0898 36.5181 24.2132C36.4706 24.3355 36.4469 24.4783 36.4469 24.6415ZM40.1077 24.8408V23.5485H40.4436V25.7346H40.1077V25.3645H40.0849C40.0337 25.4755 39.9541 25.5699 39.8458 25.6478C39.7377 25.7246 39.601 25.763 39.436 25.763C39.2993 25.763 39.1779 25.7332 39.0716 25.6734C38.9654 25.6126 38.8819 25.5215 38.8211 25.4001C38.7605 25.2777 38.7301 25.1235 38.7301 24.9375V23.5485H39.0659V24.9148C39.0659 25.0742 39.1105 25.2013 39.1997 25.2962C39.2898 25.391 39.4047 25.4385 39.5441 25.4385C39.6276 25.4385 39.7125 25.4172 39.7989 25.3745C39.8862 25.3318 39.9592 25.2663 40.0181 25.1781C40.0779 25.0898 40.1077 24.9774 40.1077 24.8408ZM42.1806 23.5485V23.8332H41.0478V23.5485H42.1806ZM41.3779 23.0248H41.7138V25.1083C41.7138 25.2032 41.7275 25.2744 41.755 25.3219C41.7835 25.3683 41.8196 25.3996 41.8632 25.4157C41.9079 25.4309 41.9548 25.4385 42.0042 25.4385C42.0412 25.4385 42.0715 25.4366 42.0952 25.4328C42.1189 25.4281 42.1379 25.4243 42.1521 25.4214L42.2205 25.7232C42.1977 25.7317 42.1659 25.7403 42.1251 25.7488C42.0843 25.7583 42.0326 25.763 41.97 25.763C41.8751 25.763 41.7821 25.7426 41.691 25.7019C41.6008 25.661 41.526 25.5989 41.4662 25.5154C41.4073 25.4319 41.3779 25.3266 41.3779 25.1994V23.0248Z" fill="white"/>
<path d="M32.9062 47.1445C34.712 47.1445 36.1758 45.6807 36.1758 43.875C36.1758 42.0693 34.712 40.6055 32.9062 40.6055C31.1005 40.6055 29.6367 42.0693 29.6367 43.875C29.6367 45.6807 31.1005 47.1445 32.9062 47.1445Z" stroke="#FFBCCA" stroke-width="0.421875"/>
<path d="M32.9062 46.1953C34.1877 46.1953 35.2266 45.1565 35.2266 43.875C35.2266 42.5935 34.1877 41.5547 32.9062 41.5547C31.6248 41.5547 30.5859 42.5935 30.5859 43.875C30.5859 45.1565 31.6248 46.1953 32.9062 46.1953Z" fill="url(#paint2_linear_2_8943)"/>
<path d="M46.6963 40.3945H41.6865C41.1477 40.3945 40.7109 40.8313 40.7109 41.3701V46.3799C40.7109 46.9187 41.1477 47.3555 41.6865 47.3555H46.6963C47.2351 47.3555 47.6719 46.9187 47.6719 46.3799V41.3701C47.6719 40.8313 47.2351 40.3945 46.6963 40.3945Z" fill="url(#paint3_linear_2_8943)"/>
<path d="M46.2304 42.3457L43.4267 45.1494L42.1523 43.875" stroke="#FFBCCA" stroke-width="0.509765" stroke-linecap="round" stroke-linejoin="round"/>
</g>
<defs>
<linearGradient id="paint0_linear_2_8943" x1="38.0742" y1="30.1113" x2="38.0215" y2="38.1797" gradientUnits="userSpaceOnUse">
<stop stop-color="#E55ADA"/>
<stop offset="1" stop-color="#FA140F"/>
</linearGradient>
<linearGradient id="paint1_linear_2_8943" x1="38.0742" y1="20.1973" x2="38.0215" y2="28.2656" gradientUnits="userSpaceOnUse">
<stop stop-color="#E55ADA"/>
<stop offset="1" stop-color="#FA140F"/>
</linearGradient>
<linearGradient id="paint2_linear_2_8943" x1="32.7855" y1="41.3227" x2="32.7036" y2="46.3931" gradientUnits="userSpaceOnUse">
<stop stop-color="#E55ADA"/>
<stop offset="1" stop-color="#FA140F"/>
</linearGradient>
<linearGradient id="paint3_linear_2_8943" x1="44.0103" y1="40.0465" x2="43.8874" y2="47.6522" gradientUnits="userSpaceOnUse">
<stop stop-color="#E55ADA"/>
<stop offset="1" stop-color="#FA140F"/>
</linearGradient>
<clipPath id="clip0_2_8943">
<rect width="54" height="54" fill="white"/>
</clipPath>
</defs>
</svg>
