<svg width="56" height="56" viewBox="0 0 56 56" fill="none" xmlns="http://www.w3.org/2000/svg">
<g clip-path="url(#clip0_4_15674)">
<g clip-path="url(#clip1_4_15674)">
<g clip-path="url(#clip2_4_15674)">
<path d="M0 11.2C0 5.01441 5.01441 0 11.2 0H44.8C50.9856 0 56 5.01441 56 11.2V44.8C56 50.9856 50.9856 56 44.8 56H11.2C5.01441 56 0 50.9856 0 44.8V11.2Z" fill="#FD430F"/>
<path d="M47.6081 28.281C47.6081 25.8915 45.6758 23.9939 43.321 23.9939C42.1617 23.9939 41.1071 24.4504 40.3341 25.1887C37.3826 23.0803 33.3413 21.7099 28.8432 21.5344L30.8109 12.3275L37.2065 13.6978C37.2772 15.3143 38.6121 16.6145 40.2641 16.6145C41.9507 16.6145 43.321 15.2443 43.321 13.5569C43.321 11.8703 41.9507 10.5 40.2641 10.5C39.0694 10.5 38.0147 11.2028 37.5229 12.222L30.3898 10.7109C30.1788 10.6755 29.968 10.7109 29.8271 10.8164C29.6516 10.9218 29.5461 11.0974 29.5114 11.3083L27.3322 21.5691C22.7641 21.7099 18.6526 23.0803 15.6657 25.2241C14.8928 24.4859 13.8382 24.0293 12.6789 24.0293C10.2894 24.0293 8.39178 25.9616 8.39178 28.3164C8.39178 30.0731 9.4457 31.5489 10.9221 32.2169C10.8514 32.6382 10.8166 33.06 10.8166 33.5171C10.8166 40.123 18.5125 45.5 28.0003 45.5C37.4882 45.5 45.1839 40.1583 45.1839 33.5171C45.1839 33.0953 45.1486 32.6382 45.0784 32.2169C46.5542 31.5489 47.6081 30.0377 47.6081 28.281ZM18.1606 31.3379C18.1606 29.6513 19.531 28.281 21.2182 28.281C22.905 28.281 24.2751 29.6513 24.2751 31.3379C24.2751 33.0246 22.905 34.3956 21.2182 34.3956C19.531 34.4302 18.1606 33.0246 18.1606 31.3379ZM35.2742 39.4555C33.1657 41.564 29.1596 41.7049 28.0003 41.7049C26.8055 41.7049 22.7994 41.5286 20.7257 39.4555C20.41 39.1391 20.41 38.6473 20.7257 38.3309C21.0421 38.0152 21.5339 38.0152 21.8503 38.3309C23.1859 39.6665 25.9973 40.123 28.0003 40.123C30.0032 40.123 32.8493 39.6665 34.1495 38.3309C34.4659 38.0152 34.9578 38.0152 35.2742 38.3309C35.5552 38.6473 35.5552 39.1391 35.2742 39.4555ZM34.7116 34.4303C33.0249 34.4303 31.6545 33.06 31.6545 31.3733C31.6545 29.6867 33.0249 28.3164 34.7116 28.3164C36.3989 28.3164 37.7692 29.6867 37.7692 31.3733C37.7692 33.0246 36.3989 34.4303 34.7116 34.4303Z" fill="white"/>
</g>
</g>
</g>
<defs>
<clipPath id="clip0_4_15674">
<rect width="56" height="56" rx="10" fill="white"/>
</clipPath>
<clipPath id="clip1_4_15674">
<rect width="56" height="56" fill="white"/>
</clipPath>
<clipPath id="clip2_4_15674">
<rect width="56" height="56" fill="white"/>
</clipPath>
</defs>
</svg>
