<svg width="88" height="41" viewBox="0 0 88 41" fill="none" xmlns="http://www.w3.org/2000/svg">
<path d="M1.46044 0.0592699C2.52177 1.7828 3.58211 3.50735 4.64344 5.23088C8.35659 10.5345 12.4669 15.5751 17.1083 20.0825C23.3402 26.1824 29.9703 31.62 37.3976 36.3925C39.3872 37.5859 41.2428 38.7793 43.2324 39.8406C43.6295 39.9726 43.8946 40.1067 44.1597 39.8406C48.9331 37.1888 53.4425 34.2719 57.6849 31.0889C64.9781 25.6522 71.4751 19.4203 77.3099 12.3921C80.3589 8.67895 83.1437 4.96581 85.5305 0.855537C85.6625 0.589455 85.7956 0.324352 85.9276 0.0592699C86.3247 -0.0727709 86.7238 0.0592699 87.121 0.0592699C82.8767 7.22049 77.8381 13.7175 72.0043 19.6834C64.8431 26.9766 56.8866 33.3426 48.0028 38.6462C46.6764 39.4425 45.351 40.2367 44.0246 40.9009C43.7595 41.033 43.4935 41.033 43.2284 40.9009C38.5869 38.3801 34.0795 35.5973 29.8352 32.4143C24.9287 28.8342 20.2873 24.8559 16.0449 20.4796C10.6083 15.0429 5.83481 9.20812 1.72453 2.84315C1.19337 1.91486 0.531164 0.986573 0 0.0572857C0.664206 -0.0727546 1.06332 0.0592699 1.46044 0.0592699Z" fill="white"/>
</svg>
