<svg width="598" height="52" viewBox="0 0 598 52" fill="none" xmlns="http://www.w3.org/2000/svg">
<g clip-path="url(#clip0_4_13084)">
<path d="M577.769 26.45L579.38 24.839C579.528 24.6668 579.605 24.4454 579.596 24.2189C579.587 23.9924 579.493 23.7775 579.333 23.6172C579.173 23.4569 578.958 23.363 578.731 23.3543C578.505 23.3455 578.283 23.4226 578.111 23.57L576.5 25.181L574.889 23.561C574.717 23.4136 574.496 23.3365 574.269 23.3453C574.043 23.354 573.828 23.4479 573.667 23.6082C573.507 23.7685 573.413 23.9834 573.405 24.2099C573.396 24.4364 573.473 24.6578 573.62 24.83L575.231 26.441L573.62 28.052C573.526 28.1327 573.45 28.232 573.395 28.3436C573.341 28.4553 573.311 28.5769 573.306 28.7009C573.302 28.8248 573.322 28.9484 573.368 29.0639C573.413 29.1794 573.482 29.2843 573.569 29.372C573.657 29.4597 573.762 29.5283 573.877 29.5736C573.993 29.6188 574.116 29.6397 574.24 29.6349C574.364 29.6301 574.486 29.5998 574.598 29.5458C574.709 29.4917 574.809 29.4152 574.889 29.321L576.5 27.719L578.111 29.33C578.283 29.4775 578.505 29.5545 578.731 29.5458C578.958 29.537 579.173 29.4431 579.333 29.2828C579.493 29.1225 579.587 28.9077 579.596 28.6812C579.605 28.4547 579.528 28.2332 579.38 28.061L577.769 26.45Z" fill="white" fill-opacity="0.95"/>
<path d="M571.73 18.3859C571.65 18.3507 571.562 18.3396 571.475 18.354C571.389 18.3684 571.309 18.4077 571.244 18.4669L566.429 22.8499H564.35C564.231 22.8499 564.117 22.8974 564.032 22.9817C563.948 23.0661 563.9 23.1806 563.9 23.2999V28.6999C563.9 28.8193 563.948 28.9338 564.032 29.0181C564.117 29.1025 564.231 29.1499 564.35 29.1499H566.429L571.253 33.5329C571.337 33.609 571.446 33.6508 571.559 33.6499C571.619 33.6623 571.68 33.6623 571.739 33.6499C571.824 33.6112 571.895 33.5471 571.942 33.4665C571.988 33.3859 572.009 33.2927 572 33.1999V18.7999C572.001 18.7121 571.975 18.6261 571.927 18.5526C571.879 18.479 571.811 18.4211 571.73 18.3859Z" fill="white" fill-opacity="0.95"/>
</g>
<defs>
<clipPath id="clip0_4_13084">
<rect width="18" height="18" fill="white" transform="translate(563 17)"/>
</clipPath>
</defs>
</svg>
