<svg width="56" height="56" viewBox="0 0 56 56" fill="none" xmlns="http://www.w3.org/2000/svg">
<g clip-path="url(#clip0_4_15688)">
<g clip-path="url(#clip1_4_15688)">
<g clip-path="url(#clip2_4_15688)">
<path d="M0 11.2C0 5.01441 5.01441 0 11.2 0H44.8C50.9856 0 56 5.01441 56 11.2V44.8C56 50.9856 50.9856 56 44.8 56H11.2C5.01441 56 0 50.9856 0 44.8V11.2Z" fill="black"/>
<path d="M35.4522 23.1342C37.7073 24.7489 40.4699 25.6989 43.4536 25.6989V19.948C42.889 19.9481 42.3258 19.889 41.7733 19.7719V24.2986C38.7898 24.2986 36.0276 23.3486 33.7718 21.7341V33.47C33.7718 39.3409 29.0203 44.0998 23.1592 44.0998C20.9723 44.0998 18.9396 43.4376 17.2512 42.3019C19.1783 44.2756 21.8659 45.4999 24.8392 45.4999C30.7006 45.4999 35.4525 40.7409 35.4525 34.8699L35.4522 23.1342ZM37.525 17.3322C36.3726 16.0711 35.616 14.4414 35.4522 12.6396V11.8999H33.8598C34.2607 14.1899 35.6278 16.1464 37.525 17.3322ZM20.9583 37.7967C20.3144 36.9511 19.9664 35.9167 19.9679 34.8531C19.9679 32.1679 22.1413 29.9907 24.8227 29.9907C25.3224 29.9906 25.8191 30.0673 26.2954 30.2187V24.3392C25.7387 24.2628 25.177 24.2304 24.6156 24.2423V28.8185C24.1391 28.6672 23.6421 28.5903 23.1423 28.5907C20.461 28.5907 18.2878 30.7677 18.2878 33.4532C18.2878 35.352 19.374 36.9959 20.9583 37.7967Z" fill="#FF004F"/>
<path d="M33.7716 21.734C36.0273 23.3484 38.7897 24.2985 41.7731 24.2985V19.7717C40.1078 19.4164 38.6334 18.5448 37.5249 17.3322C35.6275 16.1463 34.2605 14.1898 33.8597 11.8999H29.6769V34.8696C29.6674 37.5474 27.4978 39.7157 24.8223 39.7157C23.2456 39.7157 21.8449 38.9629 20.9577 37.7967C19.3736 36.9959 18.2874 35.3519 18.2874 33.4534C18.2874 30.768 20.4606 28.5909 23.1419 28.5909C23.6557 28.5909 24.1508 28.6711 24.6152 28.8187V24.2423C18.8572 24.3616 14.2262 29.074 14.2262 34.8697C14.2262 37.7628 15.3794 40.3857 17.2511 42.3021C18.9396 43.4376 20.9723 44.0999 23.1592 44.0999C29.0203 44.0999 33.7718 39.3408 33.7718 33.47L33.7716 21.734Z" fill="white"/>
<path d="M41.7735 19.7718V18.5478C40.2717 18.5501 38.7993 18.1289 37.5252 17.3321C38.6532 18.569 40.1384 19.4219 41.7735 19.7718ZM33.86 11.9C33.8218 11.6811 33.7924 11.4608 33.7719 11.2397V10.5H27.9968V33.4699C27.9875 36.1474 25.818 38.3156 23.1421 38.3156C22.3566 38.3156 21.6149 38.1289 20.958 37.7969C21.8452 38.963 23.2459 39.7156 24.8226 39.7156C27.498 39.7156 29.6678 37.5476 29.6772 34.8698V11.9H33.86ZM24.6158 24.2425V22.9394C24.1332 22.8733 23.6467 22.8402 23.1596 22.8404C17.298 22.8403 12.5463 27.5996 12.5463 33.4699C12.5463 37.1504 14.4138 40.3939 17.2515 42.3018C15.3798 40.3857 14.2267 37.7628 14.2267 34.8697C14.2267 29.0741 18.8574 24.3617 24.6158 24.2425Z" fill="#00F2EA"/>
</g>
</g>
</g>
<defs>
<clipPath id="clip0_4_15688">
<rect width="56" height="56" rx="10" fill="white"/>
</clipPath>
<clipPath id="clip1_4_15688">
<rect width="56" height="56" fill="white"/>
</clipPath>
<clipPath id="clip2_4_15688">
<rect width="56" height="56" fill="white"/>
</clipPath>
</defs>
</svg>
