<svg width="54" height="54" viewBox="0 0 54 54" fill="none" xmlns="http://www.w3.org/2000/svg">
<g clip-path="url(#clip0_2_9116)">
<path d="M54 0H0V54H54V0Z" fill="black"/>
<path d="M37.6272 13.7041L15.2912 13.7041C14.2297 13.7041 13.3691 14.5647 13.3691 15.6262L13.3691 37.9622C13.3691 39.0237 14.2296 39.8843 15.2912 39.8843L37.6272 39.8843C38.6887 39.8843 39.5493 39.0237 39.5493 37.9622L39.5493 15.6262C39.5493 14.5646 38.6888 13.7041 37.6272 13.7041Z" stroke="#EB22EF" stroke-width="0.132558"/>
<path d="M40.6347 17.0406L19.0597 11.2597C18.0344 10.9849 16.9804 11.5934 16.7056 12.6188L10.9246 34.1937C10.6498 35.2191 11.2583 36.273 12.2837 36.5478L33.8586 42.3287C34.884 42.6035 35.938 41.995 36.2127 40.9696L41.9938 19.3947C42.2685 18.3693 41.66 17.3154 40.6347 17.0406Z" stroke="#EB22EF" stroke-width="0.132558"/>
<path d="M40.6347 17.0406L19.0597 11.2597C18.0344 10.9849 16.9804 11.5934 16.7056 12.6188L10.9246 34.1937C10.6498 35.2191 11.2583 36.273 12.2837 36.5478L33.8586 42.3287C34.884 42.6035 35.938 41.995 36.2127 40.9696L41.9938 19.3947C42.2685 18.3693 41.66 17.3154 40.6347 17.0406Z" stroke="#EF6C22" stroke-width="0.132558"/>
<path d="M42.6761 21.0422L23.3325 9.87414C22.4132 9.34336 21.2377 9.65834 20.7069 10.5777L9.53889 29.9212C9.00811 30.8405 9.32309 32.0161 10.2424 32.5468L29.5859 43.7149C30.5053 44.2456 31.6808 43.9306 32.2116 43.0113L43.3796 23.6678C43.9104 22.7485 43.5954 21.5729 42.6761 21.0422Z" stroke="#EB22EF" stroke-width="0.132558"/>
<path d="M43.612 25.4353L27.8181 9.64135C27.0675 8.89073 25.8505 8.89073 25.0999 9.64135L9.30592 25.4353C8.55529 26.1859 8.55529 27.403 9.30591 28.1536L25.0998 43.9475C25.8504 44.6982 27.0674 44.6982 27.818 43.9475L43.612 28.1536C44.3626 27.403 44.3626 26.1859 43.612 25.4353Z" stroke="#2622EF" stroke-width="0.132558"/>
<path d="M43.3791 29.9212L32.2111 10.5777C31.6803 9.65834 30.5047 9.34336 29.5854 9.87413L10.2418 21.0421C9.32248 21.5728 9.0075 22.7484 9.53827 23.6677L20.7063 43.0112C21.2371 43.9305 22.4126 44.2455 23.332 43.7147L42.6756 32.5468C43.5949 32.016 43.9099 30.8405 43.3791 29.9212Z" stroke="#EF2222" stroke-width="0.132558"/>
<path d="M41.9932 34.1938L36.2123 12.6188C35.9376 11.5934 34.8836 10.9849 33.8582 11.2597L12.2833 17.0407C11.258 17.3155 10.6495 18.3694 10.9242 19.3948L16.7051 40.9698C16.9798 41.9951 18.0338 42.6036 19.0591 42.3289L40.634 36.5478C41.6594 36.2731 42.2679 35.2191 41.9932 34.1938Z" stroke="#22E3EF" stroke-width="0.132558"/>
<path d="M39.5488 37.9627L39.5488 15.6267C39.5488 14.5651 38.6883 13.7046 37.6267 13.7046L15.2907 13.7046C14.2292 13.7046 13.3686 14.5652 13.3686 15.6267L13.3686 37.9627C13.3686 39.0243 14.2291 39.8848 15.2907 39.8848L37.6267 39.8848C38.6882 39.8848 39.5488 39.0242 39.5488 37.9627Z" stroke="#EB22EF" stroke-width="0.132558"/>
<path d="M39.5488 37.9627L39.5488 15.6267C39.5488 14.5651 38.6883 13.7046 37.6267 13.7046L15.2907 13.7046C14.2292 13.7046 13.3686 14.5652 13.3686 15.6267L13.3686 37.9627C13.3686 39.0243 14.2291 39.8848 15.2907 39.8848L37.6267 39.8848C38.6882 39.8848 39.5488 39.0242 39.5488 37.9627Z" stroke="#00BF63" stroke-width="0.132558"/>
<path d="M24.3999 28.8599H25.3352L23.1639 23.106H22.2035L20.0322 28.8599H20.976L21.5271 27.4235H23.8487L24.3999 28.8599ZM22.6879 24.2166L23.5481 26.6301H21.8277L22.6879 24.2166ZM28.4373 23.9244C29.0637 23.9244 29.3225 24.4505 29.3225 24.9349C29.3225 25.4275 29.0386 25.937 28.4039 25.937H27.0344V23.9244H28.4373ZM26.1408 28.8599H27.0344V26.7471H28.454C29.69 26.7471 30.2079 25.8451 30.2079 24.9349C30.2079 24.0246 29.69 23.106 28.4541 23.106H26.1408V28.8599ZM31.2135 28.8599H32.0987V23.106H31.2135V28.8599Z" fill="white"/>
<path d="M49.1777 4.27637H43.9141C43.6282 4.27637 43.3965 4.50813 43.3965 4.79401V7.06624C43.3965 7.35213 43.6282 7.58389 43.9141 7.58389H49.1777C49.4636 7.58389 49.6954 7.35213 49.6954 7.06624V4.79401C49.6954 4.50813 49.4636 4.27637 49.1777 4.27637Z" fill="#008000"/>
<path d="M45.0776 5.34747C45.1984 5.34747 45.2484 5.44892 45.2484 5.54233C45.2484 5.63735 45.1936 5.73558 45.0712 5.73558H44.8071V5.34747H45.0776ZM44.6348 6.29924H44.8071V5.8918H45.0809C45.3193 5.8918 45.419 5.71787 45.419 5.54233C45.419 5.36679 45.3193 5.18964 45.0809 5.18964H44.6348V6.29924ZM45.7144 5.74686C45.7144 5.523 45.8852 5.34424 46.1042 5.34424C46.3248 5.34424 46.4956 5.523 46.4956 5.74686C46.4956 5.97072 46.3248 6.14786 46.1042 6.14786C45.8852 6.14786 45.7144 5.97072 45.7144 5.74686ZM45.5437 5.74686C45.5437 6.06251 45.7885 6.31535 46.1042 6.31535C46.4214 6.31535 46.6679 6.06251 46.6679 5.74686C46.6679 5.43281 46.4214 5.17676 46.1042 5.17676C45.7885 5.17676 45.5437 5.43281 45.5437 5.74686ZM46.8241 5.97715C46.8241 6.15752 46.9851 6.31535 47.2154 6.31535C47.4263 6.31535 47.5761 6.19135 47.5938 6.01742C47.6115 5.85637 47.5198 5.73237 47.2943 5.67278L47.1526 5.63574C47.0205 5.60191 47.0044 5.53428 47.0044 5.49079C47.0044 5.4006 47.093 5.3378 47.1961 5.3378C47.312 5.3378 47.3893 5.40222 47.3893 5.50529H47.56C47.56 5.30237 47.4054 5.17676 47.1992 5.17676C47.0044 5.17676 46.8337 5.30398 46.8337 5.49402C46.8337 5.59225 46.8707 5.72754 47.1091 5.79195L47.2492 5.82738C47.3523 5.85154 47.4312 5.90468 47.4247 6.00776C47.4134 6.08989 47.3458 6.15914 47.2154 6.15914C47.0817 6.15914 46.9996 6.06734 46.9947 5.97715H46.8241ZM47.7055 5.34907H48.0324V6.29924H48.2064V5.34907H48.5333V5.18964H47.7055V5.34907Z" fill="white"/>
<path d="M49.1777 4.27637H43.9141C43.6282 4.27637 43.3965 4.50813 43.3965 4.79401V7.06624C43.3965 7.35213 43.6282 7.58389 43.9141 7.58389H49.1777C49.4636 7.58389 49.6954 7.35213 49.6954 7.06624V4.79401C49.6954 4.50813 49.4636 4.27637 49.1777 4.27637Z" stroke="#008000" stroke-width="0.115033"/>
<path d="M43.7519 46.4355H39.5429C39.2253 46.4355 38.9678 46.6931 38.9678 47.0107V49.2829C38.9678 49.6006 39.2253 49.8581 39.5429 49.8581H43.7519C44.0695 49.8581 44.327 49.6006 44.327 49.2829V47.0107C44.327 46.6931 44.0695 46.4355 43.7519 46.4355Z" fill="#3F3F00"/>
<path d="M40.7065 47.5646C40.8273 47.5646 40.8773 47.6661 40.8773 47.7594C40.8773 47.8545 40.8226 47.9528 40.7001 47.9528H40.436V47.5646H40.7065ZM40.2637 48.5164H40.436V48.1089H40.7098C40.9482 48.1089 41.0479 47.935 41.0479 47.7594C41.0479 47.5839 40.9482 47.4067 40.7098 47.4067H40.2637V48.5164ZM41.6429 48.3682C41.5157 48.3682 41.4045 48.2748 41.4045 48.1315V47.4067H41.2306V48.1315C41.2306 48.3763 41.4191 48.5325 41.6429 48.5325C41.8635 48.5325 42.0536 48.3763 42.0536 48.1315V47.4067H41.8812V48.1315C41.8812 48.2748 41.7702 48.3682 41.6429 48.3682ZM42.2319 47.5662H42.5589V48.5164H42.7328V47.5662H43.0598V47.4067H42.2319V47.5662Z" fill="white"/>
<path d="M9.12696 41.8921H4.91804C4.63215 41.8921 4.40039 42.1238 4.40039 42.4097V44.682C4.40039 44.9679 4.63215 45.1996 4.91804 45.1996H9.12696C9.41284 45.1996 9.6446 44.9679 9.6446 44.682V42.4097C9.6446 42.1238 9.41284 41.8921 9.12696 41.8921Z" fill="#808080"/>
<path d="M6.5179 42.9487C6.42127 42.8521 6.286 42.7925 6.13139 42.7925C5.81574 42.7925 5.56934 43.0486 5.56934 43.3625C5.56934 43.6782 5.81574 43.9311 6.13139 43.9311C6.44865 43.9311 6.66123 43.7475 6.66123 43.3514H6.15394V43.4979H6.46475C6.4567 43.6638 6.31176 43.7701 6.13139 43.7701C5.91076 43.7701 5.74005 43.5865 5.74005 43.3625C5.74005 43.1387 5.91076 42.9551 6.13139 42.9551C6.23445 42.9551 6.32304 42.9954 6.39229 43.0598L6.5179 42.9487ZM6.85429 43.915H7.53874V43.7588H7.025V43.448H7.45983V43.2918H7.025V42.9632H7.52264V42.8053H6.85429V43.915ZM7.6682 42.9648H7.99512V43.915H8.16905V42.9648H8.49597V42.8053H7.6682V42.9648Z" fill="white"/>
<path d="M9.12696 41.8921H4.91804C4.63215 41.8921 4.40039 42.1238 4.40039 42.4097V44.682C4.40039 44.9679 4.63215 45.1996 4.91804 45.1996H9.12696C9.41284 45.1996 9.6446 44.9679 9.6446 44.682V42.4097C9.6446 42.1238 9.41284 41.8921 9.12696 41.8921Z" stroke="#808080" stroke-width="0.115033"/>
<path d="M11.5341 7.66992H4.68844C4.37079 7.66992 4.11328 7.92743 4.11328 8.24509V10.5173C4.11328 10.835 4.37079 11.0925 4.68844 11.0925H11.5341C11.8517 11.0925 12.1092 10.835 12.1092 10.5173V8.24509C12.1092 7.92743 11.8517 7.66992 11.5341 7.66992Z" fill="#7C2525"/>
<path d="M5.5789 8.80006H5.8398C6.05722 8.80006 6.16834 8.97882 6.16834 9.19785C6.16834 9.41848 6.05722 9.59241 5.8398 9.59241H5.5789V8.80006ZM5.8398 9.75023C6.15545 9.75023 6.33904 9.51349 6.33904 9.19785C6.33904 8.88219 6.15545 8.64062 5.8398 8.64062H5.4082V9.75023H5.8398ZM6.56571 9.75023H7.25016V9.59402H6.73642V9.28319H7.17125V9.12698H6.73642V8.79845H7.23406V8.64062H6.56571V9.75023ZM7.47946 9.75023H8.09465V9.59402H7.65017V8.64062H7.47946V9.75023ZM8.28311 9.75023H8.96756V9.59402H8.45382V9.28319H8.88865V9.12698H8.45382V8.79845H8.95146V8.64062H8.28311V9.75023ZM9.09701 8.80006H9.42394V9.75023H9.59787V8.80006H9.92479V8.64062H9.09701V8.80006ZM10.1153 9.75023H10.7998V9.59402H10.286V9.28319H10.7209V9.12698H10.286V8.79845H10.7836V8.64062H10.1153V9.75023Z" fill="white"/>
</g>
<defs>
<clipPath id="clip0_2_9116">
<rect width="54" height="54" fill="white"/>
</clipPath>
</defs>
</svg>
