<svg width="100" height="25" viewBox="0 0 100 25" fill="none" xmlns="http://www.w3.org/2000/svg">
<g clip-path="url(#clip0_4_14815)">
<path d="M18.7599 0V24.058H16.6218L2.40835 3.91221H2.22043V24.058H0.0234375V0H2.14946L16.4099 20.1698H16.5979V0H18.7599ZM32.0098 24.4338C30.4697 24.473 28.9516 24.0629 27.6408 23.2534C26.3996 22.4531 25.4116 21.3164 24.7921 19.9759C24.0992 18.4604 23.7575 16.808 23.7926 15.1421C23.7602 13.4725 24.1017 11.8168 24.7921 10.2963C25.4005 8.95564 26.3629 7.80626 27.5758 6.97181C28.7937 6.16145 30.2304 5.74291 31.6929 5.77236C32.6618 5.7706 33.6222 5.95203 34.5236 6.30711C35.4459 6.67286 36.2805 7.22944 36.9725 7.94037C37.7325 8.72825 38.3188 9.66667 38.6937 10.6951C39.1423 11.9554 39.3573 13.2869 39.3284 14.6243V15.6578H27.234V13.8137H37.1924C37.2092 12.7296 36.9694 11.6569 36.4927 10.6831C36.0555 9.7896 35.3861 9.03009 34.5546 8.48412C33.7026 7.93619 32.7068 7.65403 31.6939 7.67349C30.6163 7.65359 29.5599 7.97436 28.6753 8.59007C27.7996 9.20849 27.0978 10.0418 26.6373 11.01C26.1425 12.0357 25.8875 13.1606 25.8916 14.2995V15.399C25.8624 16.6895 26.117 17.9708 26.6373 19.1522C27.0894 20.1689 27.8269 21.0324 28.7603 21.6381C29.736 22.2419 30.8667 22.5479 32.0138 22.5187C32.7827 22.5341 33.5472 22.3982 34.2638 22.1189C34.8756 21.8755 35.4313 21.5099 35.897 21.0444C36.3219 20.6172 36.6612 20.1127 36.8966 19.558L38.8816 20.2038C38.5883 20.9915 38.1296 21.7073 37.5363 22.3028C36.8745 22.971 36.083 23.4965 35.2103 23.8471C34.193 24.2533 33.105 24.4527 32.0098 24.4338ZM44.744 6.01425L49.3958 13.7107L54.0477 6.01425H56.4796L50.6763 15.0361L56.4796 24.058H54.0487L49.3968 16.6104L44.744 24.058H42.3241L48.0564 15.0361L42.3241 6.01425H44.744ZM67.9793 6.01425V7.83541H59.3683V6.01425H67.9793ZM62.059 1.69123H64.1581V19.3471C64.1258 19.9607 64.2598 20.5716 64.5459 21.1153C64.7776 21.5158 65.1319 21.8311 65.5564 22.0149C65.9764 22.192 66.4281 22.2817 66.8838 22.2788C67.1198 22.2817 67.3556 22.264 67.5885 22.2258C67.7844 22.1905 67.9567 22.1532 68.1053 22.1139L68.5521 24.005C68.3071 24.0953 68.0559 24.1678 67.8004 24.2219C67.4385 24.2945 67.0699 24.328 66.7009 24.3219C65.9344 24.3222 65.1776 24.1497 64.4869 23.8171C63.782 23.4835 63.1801 22.9658 62.7447 22.3188C62.2699 21.5814 62.032 20.7164 62.063 19.8399L62.059 1.69123ZM89.1936 0H91.3926V15.9287C91.4179 17.4689 91.0196 18.9865 90.2411 20.3157C89.4741 21.604 88.3676 22.6566 87.0426 23.3583C85.5721 24.1238 83.9322 24.5058 82.2748 24.4688C80.6202 24.504 78.9835 24.1203 77.517 23.3533C76.1904 22.6509 75.0815 21.5986 74.3104 20.3107C73.5313 18.9836 73.1329 17.4674 73.159 15.9287V0H75.358V15.7758C75.3368 16.9691 75.6328 18.1467 76.2156 19.1882C76.7841 20.1835 77.6204 20.9994 78.6295 21.5431C79.7522 22.1354 81.0078 22.4307 82.2768 22.4007C83.5477 22.4302 84.8051 22.135 85.9301 21.5431C86.9397 21.0021 87.7757 20.1868 88.342 19.1912C88.9211 18.1484 89.2148 16.9714 89.1936 15.7788V0ZM99.9777 0V24.058H97.7787V0H99.9777Z" fill="black"/>
</g>
<defs>
<clipPath id="clip0_4_14815">
<rect width="100" height="24.4688" fill="white"/>
</clipPath>
</defs>
</svg>
