<svg width="200" height="40" viewBox="0 0 200 40" fill="none" xmlns="http://www.w3.org/2000/svg">
<g clip-path="url(#clip0_4_12855)">
<path d="M16.3599 27.0001C17.7357 27.0521 19.1081 26.8285 20.3962 26.3425C21.6844 25.8565 22.8624 25.118 23.8611 24.1702C24.8597 23.2224 25.6588 22.0846 26.2114 20.8235C26.764 19.5625 27.059 18.2037 27.0789 16.8271V16.4271C27.8119 15.9292 28.4605 15.3171 28.9999 14.6141C28.3213 14.9064 27.6072 15.1081 26.8759 15.2141C27.6498 14.7885 28.2573 14.1141 28.5999 13.3001C27.8611 13.6886 27.0809 13.9926 26.2739 14.2061C25.5531 13.4672 24.5755 13.0342 23.5439 12.997C22.5834 12.9818 21.6547 13.3419 20.9555 14.0008C20.2563 14.6596 19.8417 15.5653 19.7999 16.5251C19.7765 16.7978 19.8106 17.0724 19.8999 17.3311C18.4309 17.2749 16.9895 16.9147 15.6667 16.2732C14.344 15.6317 13.1686 14.7229 12.2149 13.6041C11.9755 14.0007 11.8169 14.4408 11.7483 14.899C11.6797 15.3572 11.7025 15.8245 11.8154 16.2738C11.9282 16.7232 12.1289 17.1458 12.4058 17.5172C12.6828 17.8887 13.0305 18.2016 13.429 18.4381C12.8304 18.4616 12.2366 18.3234 11.7099 18.0381V18.1381C11.7287 18.9862 12.0416 19.8015 12.595 20.4444C13.1484 21.0874 13.908 21.5182 14.7439 21.6631C14.4146 21.7512 14.0731 21.785 13.7329 21.7631C13.4925 21.7795 13.2513 21.7454 13.0249 21.6631C13.2793 22.3989 13.7571 23.0371 14.3915 23.4884C15.0259 23.9398 15.7853 24.182 16.5639 24.1811C15.2013 25.1428 13.5796 25.6695 11.9119 25.6921C11.6052 25.7086 11.2978 25.6749 11.002 25.5921C12.6304 26.5329 14.4813 27.0198 16.3619 27.0021" fill="white"/>
</g>
<g clip-path="url(#clip1_4_12855)">
<path d="M67.668 10.9991H52.328C52.1554 10.9972 51.9841 11.0292 51.8239 11.0935C51.6637 11.1578 51.5178 11.253 51.3944 11.3738C51.2711 11.4945 51.1728 11.6384 51.1051 11.7972C51.0374 11.956 51.0017 12.1265 51 12.2991V27.6991C51.0018 27.8716 51.0376 28.0422 51.1054 28.2009C51.1731 28.3596 51.2714 28.5035 51.3947 28.6242C51.5181 28.7449 51.6639 28.8401 51.8241 28.9045C51.9842 28.9688 52.1554 29.001 52.328 28.9991H67.669C68.018 29.0031 68.3542 28.8684 68.604 28.6247C68.8537 28.3809 68.9965 28.048 69.001 27.6991V12.2991C68.9989 12.1262 68.9628 11.9554 68.8946 11.7965C68.8265 11.6376 68.7277 11.4936 68.6039 11.3729C68.4801 11.2521 68.3337 11.157 68.1732 11.0928C68.0126 11.0287 67.8409 10.9969 67.668 10.9991ZM56.339 26.3391H53.667V17.7481H56.339V26.3391ZM55.003 16.5751C54.7995 16.5754 54.598 16.5355 54.4099 16.4578C54.2219 16.38 54.051 16.2659 53.9071 16.122C53.7632 15.9781 53.6491 15.8072 53.5714 15.6192C53.4936 15.4311 53.4537 15.2296 53.454 15.0261C53.4539 14.8227 53.4939 14.6213 53.5717 14.4333C53.6495 14.2454 53.7636 14.0746 53.9075 13.9308C54.0513 13.7871 54.2222 13.6731 54.4101 13.5954C54.5981 13.5177 54.7996 13.4779 55.003 13.4781C55.4136 13.4781 55.8073 13.6412 56.0976 13.9315C56.3879 14.2218 56.551 14.6156 56.551 15.0261C56.551 15.4366 56.3881 15.8303 56.098 16.1207C55.808 16.4112 55.4135 16.5746 55.003 16.5751ZM66.338 26.3391H63.668V22.1611C63.668 21.1611 63.651 19.8831 62.281 19.8831C60.892 19.8831 60.681 20.9691 60.681 22.0901V26.3391H58.014V17.7481H60.573V18.9231H60.609C60.8647 18.4845 61.2348 18.1236 61.6797 17.8791C62.1246 17.6346 62.6277 17.5157 63.135 17.5351C65.835 17.5351 66.335 19.3141 66.335 21.6271L66.338 26.3391Z" fill="white"/>
</g>
<g clip-path="url(#clip2_4_12855)">
<path d="M108.789 16.698C108.928 17.6614 108.999 18.6336 109 19.607V20.955L108.789 23.864C108.747 24.5159 108.496 25.1368 108.073 25.635C107.581 26.0733 106.959 26.3397 106.302 26.394C105.543 26.45 104.637 26.492 103.583 26.52C102.529 26.548 101.665 26.562 100.99 26.562H99.979C96.859 26.5347 94.8213 26.4787 93.866 26.394C93.416 26.3367 93.121 26.2943 92.981 26.267C92.7962 26.222 92.6188 26.1509 92.454 26.056C92.2487 25.9478 92.0634 25.8054 91.906 25.635C91.7278 25.4266 91.5855 25.1901 91.485 24.935C91.3717 24.6871 91.2936 24.4245 91.253 24.155L91.169 23.855C91.0575 22.8923 91.0011 21.9241 91 20.955V19.607L91.169 16.698C91.2118 16.0462 91.4628 15.4254 91.885 14.927C92.3777 14.4619 93.0229 14.1921 93.7 14.168C94.458 14.112 95.358 14.07 96.4 14.042C97.442 14.014 98.2993 14 98.972 14H99.979C102.508 14 104.616 14.056 106.302 14.168C106.965 14.1979 107.594 14.4676 108.073 14.927C108.191 15.0457 108.292 15.1804 108.373 15.327C108.455 15.4758 108.525 15.6306 108.583 15.79C108.637 15.9342 108.679 16.0823 108.71 16.233C108.731 16.3469 108.759 16.4595 108.794 16.57L108.789 16.698ZM102.424 20.407L103.014 20.107L98.166 17.581V22.64L102.424 20.407Z" fill="white"/>
</g>
<g clip-path="url(#clip3_4_12855)">
<path fill-rule="evenodd" clip-rule="evenodd" d="M139.501 11C134.528 11 130.501 15.0275 130.501 20C130.501 23.9825 133.077 27.3463 136.655 28.5387C137.105 28.6175 137.273 28.3475 137.273 28.1112C137.273 27.8975 137.262 27.1888 137.262 26.435C135.001 26.8513 134.416 25.8837 134.236 25.3775C134.135 25.1187 133.696 24.32 133.313 24.1062C132.998 23.9375 132.548 23.5212 133.302 23.51C134.011 23.4987 134.517 24.1625 134.686 24.4325C135.496 25.7937 136.79 25.4113 137.307 25.175C137.386 24.59 137.622 24.1962 137.881 23.9712C135.878 23.7463 133.786 22.97 133.786 19.5275C133.786 18.5487 134.135 17.7387 134.708 17.1087C134.618 16.8837 134.303 15.9613 134.798 14.7238C134.798 14.7238 135.552 14.4875 137.273 15.6462C137.993 15.4437 138.758 15.3425 139.523 15.3425C140.288 15.3425 141.053 15.4437 141.773 15.6462C143.495 14.4762 144.248 14.7238 144.248 14.7238C144.743 15.9613 144.428 16.8837 144.338 17.1087C144.912 17.7387 145.261 18.5375 145.261 19.5275C145.261 22.9812 143.157 23.7463 141.155 23.9712C141.481 24.2525 141.762 24.7925 141.762 25.6363C141.762 26.84 141.751 27.8075 141.751 28.1112C141.751 28.3475 141.92 28.6287 142.37 28.5387C145.925 27.3463 148.501 23.9712 148.501 20C148.501 15.0275 144.473 11 139.501 11Z" fill="white"/>
</g>
<defs>
<clipPath id="clip0_4_12855">
<rect width="18" height="18" fill="white" transform="translate(11 11)"/>
</clipPath>
<clipPath id="clip1_4_12855">
<rect width="18" height="18" fill="white" transform="translate(51 11)"/>
</clipPath>
<clipPath id="clip2_4_12855">
<rect width="18" height="18" fill="white" transform="translate(91 11)"/>
</clipPath>
<clipPath id="clip3_4_12855">
<rect width="19" height="18" fill="white" transform="translate(130.5 11)"/>
</clipPath>
</defs>
</svg>
