<svg width="5" height="7" viewBox="0 0 5 7" fill="none" xmlns="http://www.w3.org/2000/svg">
<path d="M4.66264 2.63034C4.66264 3.08508 4.60015 3.49779 4.47515 3.86632C4.32429 4.28873 4.08507 4.62277 3.75964 4.86954C3.43529 5.1163 3.03229 5.24023 2.55277 5.24023C2.07217 5.24023 1.71226 5.07429 1.44933 4.74563C1.4364 4.72515 1.42239 4.71868 1.40946 4.72514C1.39653 4.73268 1.39008 4.74562 1.39008 4.76501V6.88137C1.39008 6.9137 1.37822 6.94171 1.35451 6.96434C1.33188 6.98697 1.30387 6.9999 1.27154 6.9999H0.118533C0.0862063 6.9999 0.0581939 6.98912 0.035565 6.96434C0.012936 6.94063 0 6.9137 0 6.88137V0.196125C0 0.163798 0.0118584 0.135769 0.035565 0.11314C0.0592715 0.0905113 0.0862063 0.0775918 0.118533 0.0775918H1.27154C1.30387 0.0775918 1.33188 0.0894338 1.35451 0.11314C1.37714 0.135769 1.39008 0.163798 1.39008 0.196125V0.522622C1.39008 0.542019 1.39653 0.553877 1.40946 0.558187C1.42239 0.560343 1.4364 0.556032 1.44933 0.544178C1.72519 0.181037 2.10665 0 2.59156 0C3.04521 0 3.43744 0.12715 3.76826 0.380379C4.10123 0.634686 4.33829 0.989206 4.48377 1.44394C4.6023 1.78014 4.66049 2.17561 4.66049 2.63034H4.66264ZM3.2241 2.61096C3.2241 2.19502 3.15513 1.86636 3.0172 1.62175C2.86634 1.33727 2.62281 1.1961 2.28768 1.1961C1.98489 1.1961 1.7586 1.33727 1.60774 1.62175C1.46981 1.85881 1.40085 2.19286 1.40085 2.62066C1.40085 3.04845 1.47305 3.40512 1.61744 3.64866C1.7683 3.91266 1.99243 4.04413 2.28768 4.04413C2.58294 4.04413 2.81246 3.9159 2.97733 3.65836C3.1422 3.4019 3.2241 3.05276 3.2241 2.61096Z" fill="white"/>
</svg>
