<svg width="56" height="56" viewBox="0 0 56 56" fill="none" xmlns="http://www.w3.org/2000/svg">
<g clip-path="url(#clip0_4_15993)">
<g clip-path="url(#clip1_4_15993)">
<g clip-path="url(#clip2_4_15993)">
<path d="M0 11.2C0 5.01441 5.01441 0 11.2 0H44.8C50.9856 0 56 5.01441 56 11.2V44.8C56 50.9856 50.9856 56 44.8 56H11.2C5.01441 56 0 50.9856 0 44.8V11.2Z" fill="white"/>
<mask id="mask0_4_15993" style="mask-type:luminance" maskUnits="userSpaceOnUse" x="9" y="9" width="38" height="38">
<path d="M46.6668 9.33325H9.33337V46.6666H46.6668V9.33325Z" fill="white"/>
</mask>
<g mask="url(#mask0_4_15993)">
<path d="M28 46.6693C38.3093 46.6693 46.6668 38.3118 46.6668 28.0025C46.6668 17.6933 38.3093 9.33594 28 9.33594C17.6907 9.33594 9.33337 17.6933 9.33337 28.0025C9.33337 38.3118 17.6907 46.6693 28 46.6693Z" fill="#1977F3"/>
<path d="M35.2662 33.3997L36.093 28.0027H30.9164V24.5009C30.9164 23.0256 31.6383 21.5844 33.9588 21.5844H36.3135V16.9906C36.3135 16.9906 34.1767 16.6257 32.1344 16.6257C27.8714 16.6257 25.0835 19.2087 25.0835 23.8892V28.0027H20.3427V33.3997H25.0835V46.4435C26.0339 46.5932 27.0077 46.6693 28 46.6693C28.9922 46.6693 29.9662 46.5905 30.9164 46.4435V33.3997H35.2662Z" fill="white"/>
</g>
<path d="M11.2 1.16658H44.8V-1.16675H11.2V1.16658ZM54.8334 11.1999V44.7999H57.1666V11.1999H54.8334ZM44.8 54.8333H11.2V57.1665H44.8V54.8333ZM1.16668 44.7999V11.1999H-1.16666V44.7999H1.16668ZM11.2 54.8333C5.65875 54.8333 1.16668 50.3411 1.16668 44.7999H-1.16666C-1.16666 51.6298 4.37008 57.1665 11.2 57.1665V54.8333ZM54.8334 44.7999C54.8334 50.3411 50.3412 54.8333 44.8 54.8333V57.1665C51.6299 57.1665 57.1666 51.6298 57.1666 44.7999H54.8334ZM44.8 1.16658C50.3412 1.16658 54.8334 5.65866 54.8334 11.1999H57.1666C57.1666 4.36999 51.6299 -1.16675 44.8 -1.16675V1.16658ZM11.2 -1.16675C4.37008 -1.16675 -1.16666 4.36999 -1.16666 11.1999H1.16668C1.16668 5.65866 5.65875 1.16658 11.2 1.16658V-1.16675Z" fill="#EBEEF1"/>
</g>
</g>
</g>
<defs>
<clipPath id="clip0_4_15993">
<rect width="56" height="56" rx="10" fill="white"/>
</clipPath>
<clipPath id="clip1_4_15993">
<rect width="56" height="56" fill="white"/>
</clipPath>
<clipPath id="clip2_4_15993">
<rect width="56" height="56" fill="white"/>
</clipPath>
</defs>
</svg>
