<svg width="3" height="4" viewBox="0 0 3 4" fill="none" xmlns="http://www.w3.org/2000/svg">
<path d="M2.80682 3.23257H0.954288C1.00413 2.93974 1.18274 2.77774 1.54826 2.59082L1.88989 2.41637C2.50048 2.10173 2.82447 1.74869 2.82447 1.16925C2.82447 0.804773 2.68429 0.517131 2.40392 0.30945C2.12978 0.10073 1.79333 0 1.40704 0C1.09863 0 0.819304 0.0789134 0.561779 0.240905C0.309446 0.398743 0.119416 0.600206 0.00207567 0.853578L0.538931 1.39251C0.746612 0.970915 1.04878 0.764276 1.44649 0.764276C1.78294 0.764276 1.98854 0.938722 1.98854 1.17963C1.98854 1.38212 1.88886 1.54931 1.50154 1.74661L1.28346 1.85356C0.807873 2.09447 0.47663 2.37068 0.286602 2.68532C0.096573 2.99373 0 3.39248 0 3.87015V3.99995H2.80577V3.22945L2.80682 3.23257Z" fill="white"/>
</svg>
