<svg width="3" height="4" viewBox="0 0 3 4" fill="none" xmlns="http://www.w3.org/2000/svg">
<path d="M2.79461 0.782077C2.77531 0.801374 2.75147 0.810465 2.72082 0.810465H0.984126C0.958019 0.810465 0.944402 0.824081 0.944402 0.851323V1.53125C0.944402 1.55735 0.958019 1.57098 0.984126 1.57098H2.0829C2.11355 1.57098 2.13738 1.58005 2.15668 1.59935C2.17598 1.61865 2.18506 1.64248 2.18506 1.67426V2.27359C2.18506 2.30537 2.17598 2.32922 2.15668 2.34852C2.13738 2.36781 2.11355 2.37689 2.0829 2.37689H0.984126C0.958019 2.37689 0.944402 2.38938 0.944402 2.41662V3.89679C0.944402 3.92857 0.93532 3.9524 0.916023 3.9717C0.896726 3.991 0.872886 4.00009 0.842239 4.00009H0.102155C0.0703719 4.00009 0.0476672 3.991 0.0283705 3.9717C0.00907385 3.9524 0 3.92857 0 3.89679V0.102155C0 0.0726421 0.00907385 0.0476672 0.0283705 0.0283705C0.0476672 0.00907385 0.0703719 0 0.102155 0H2.72082C2.75147 0 2.77531 0.00907385 2.79461 0.0283705C2.8139 0.0476672 2.82299 0.071507 2.82299 0.102155V0.708293C2.82299 0.738941 2.8139 0.76278 2.79461 0.782077Z" fill="#252530"/>
</svg>
