<svg width="160" height="160" viewBox="0 0 160 160" fill="none" xmlns="http://www.w3.org/2000/svg">
<g clip-path="url(#clip0_4_11303)">
<path d="M75.2074 139.723C107.785 139.723 134.194 113.314 134.194 80.7372C134.194 48.16 107.785 21.751 75.2074 21.751C42.6302 21.751 16.2212 48.16 16.2212 80.7372C16.2212 113.314 42.6302 139.723 75.2074 139.723Z" fill="#F5F8FF"/>
<g filter="url(#filter0_dd_4_11303)">
<path d="M75.4485 112.422C92.6847 112.422 106.657 98.4498 106.657 81.2137C106.657 63.9775 92.6847 50.0049 75.4485 50.0049C58.2124 50.0049 44.2397 63.9775 44.2397 81.2137C44.2397 98.4498 58.2124 112.422 75.4485 112.422Z" fill="white"/>
</g>
<path d="M71.104 63.1586C71.711 64.3117 71.4075 65.2829 70.9827 66.3147C70.315 68.0142 70.4971 69.6529 71.711 71.0489C72.9249 72.5056 74.6247 72.6876 76.3847 72.3235C78.812 71.7773 80.2085 69.4708 79.8442 66.9217C79.6621 65.7077 78.9336 64.4939 79.6016 63.1586C78.9941 63.462 78.9941 63.462 78.2663 64.6759C77.5983 63.8869 76.9915 63.0372 76.263 62.1874C75.6562 61.5198 75.0494 60.9129 75.4136 59.8203C74.6851 60.1846 74.3209 60.6701 74.0783 61.2771C73.8962 61.8839 73.7746 62.4909 73.6532 63.0979C73.5318 63.7048 73.2283 64.2511 72.6214 64.6152C72.2572 63.9476 71.893 63.462 71.104 63.1586Z" fill="#3D7FFC"/>
<path d="M69.6689 100.553V97.5846L72.8851 97.1665V80.1918L69.9196 79.2303V75.9271L78.023 74.8399L79.7351 74.6707V75.8017V97.1252L82.91 97.5846V100.553H69.6689Z" fill="#3D7FFC"/>
<g filter="url(#filter1_dd_4_11303)">
<path d="M21.1969 87.7397C30.0532 87.7397 37.2327 80.5603 37.2327 71.704C37.2327 62.8477 30.0532 55.6682 21.1969 55.6682C12.3406 55.6682 5.16113 62.8477 5.16113 71.704C5.16113 80.5603 12.3406 87.7397 21.1969 87.7397Z" fill="#3D7FFC"/>
</g>
<path d="M20.7804 79.0327C19.5544 79.0327 18.3786 78.546 17.5117 77.679C16.6448 76.8119 16.1577 75.6366 16.1577 74.4102H19.2394C19.2394 74.8189 19.4018 75.2109 19.6908 75.4999C19.9798 75.7892 20.3717 75.9514 20.7804 75.9514C21.189 75.9514 21.5811 75.7892 21.87 75.4999C22.159 75.2109 22.3213 74.8189 22.3213 74.4102C22.3213 73.8648 21.3968 73.3594 20.0917 72.7153C18.4321 71.8771 16.1577 70.7399 16.1577 68.2467C16.1577 67.0207 16.6448 65.8449 17.5117 64.978C18.3786 64.1111 19.5544 63.624 20.7804 63.624C22.0063 63.624 23.1822 64.1111 24.0491 64.978C24.9161 65.8449 25.4031 67.0207 25.4031 68.2467H22.3213C22.3213 67.8381 22.159 67.4461 21.87 67.1571C21.5811 66.8682 21.189 66.7058 20.7804 66.7058C20.3717 66.7058 19.9798 66.8682 19.6908 67.1571C19.4018 67.4461 19.2394 67.8381 19.2394 68.2467C19.2394 68.7922 20.1641 69.2976 21.4692 69.9417C23.1287 70.7799 25.4031 71.9171 25.4031 74.4102C25.4031 75.6366 24.9161 76.8119 24.0491 77.679C23.1822 78.546 22.0063 79.0327 20.7804 79.0327Z" fill="white"/>
<path d="M22.321 62.0801H19.2393V65.1619H22.321V62.0801Z" fill="white"/>
<path d="M22.321 77.4893H19.2393V80.5705H22.321V77.4893Z" fill="white"/>
<g filter="url(#filter2_dd_4_11303)">
<path d="M132.533 87.7397C141.39 87.7397 148.569 80.5603 148.569 71.704C148.569 62.8477 141.39 55.6682 132.533 55.6682C123.677 55.6682 116.498 62.8477 116.498 71.704C116.498 80.5603 123.677 87.7397 132.533 87.7397Z" fill="#3D7FFC"/>
</g>
<path d="M132.533 81.3223C137.847 81.3223 142.155 77.0146 142.155 71.7008C142.155 66.387 137.847 62.0793 132.533 62.0793C127.219 62.0793 122.912 66.387 122.912 71.7008C122.912 77.0146 127.219 81.3223 132.533 81.3223Z" fill="white"/>
<path d="M133.756 64.969H131.579V71.4998H133.756V64.969Z" fill="#3D7FFC"/>
<path d="M133.755 70.4126H128.857V72.5896H133.755V70.4126Z" fill="#3D7FFC"/>
<g filter="url(#filter3_dd_4_11303)">
<path d="M77.0734 39.0762C85.9297 39.0762 93.1091 31.8967 93.1091 23.0404C93.1091 14.1841 85.9297 7.00464 77.0734 7.00464C68.217 7.00464 61.0376 14.1841 61.0376 23.0404C61.0376 31.8967 68.217 39.0762 77.0734 39.0762Z" fill="#3D7FFC"/>
</g>
<path d="M77.5313 22.5849C80.0617 22.5849 82.113 20.5336 82.113 18.0033C82.113 15.4729 80.0617 13.4216 77.5313 13.4216C75.001 13.4216 72.9497 15.4729 72.9497 18.0033C72.9497 20.5336 75.001 22.5849 77.5313 22.5849Z" fill="white"/>
<path d="M69.2837 30.8296C69.2837 27.287 72.1555 24.4153 75.6979 24.4153H79.3631C82.906 24.4153 85.7778 27.287 85.7778 30.8296H69.2837Z" fill="white"/>
<g filter="url(#filter4_dd_4_11303)">
<path d="M44.4889 146.726C53.3452 146.726 60.5247 139.546 60.5247 130.69C60.5247 121.834 53.3452 114.654 44.4889 114.654C35.6326 114.654 28.4531 121.834 28.4531 130.69C28.4531 139.546 35.6326 146.726 44.4889 146.726Z" fill="#3D7FFC"/>
</g>
<path d="M40.4771 128.947V127.72C40.4771 126.744 40.8649 125.809 41.555 125.118C42.2451 124.428 43.1811 124.04 44.1571 124.04C45.1331 124.04 46.0691 124.428 46.7592 125.118C47.4494 125.809 47.837 126.744 47.837 127.72V132.218H49.4727V127.72C49.4727 126.311 48.9127 124.958 47.9159 123.962C46.9191 122.965 45.567 122.405 44.1573 122.405C42.7475 122.405 41.3955 122.965 40.3987 123.962C39.4018 124.958 38.8418 126.311 38.8418 127.72V128.947H40.4771Z" fill="white"/>
<path d="M37.6147 128.949V138.762H50.6989V128.949H37.6147ZM44.1568 135.082C43.9142 135.082 43.6771 135.01 43.4753 134.876C43.2736 134.741 43.1164 134.549 43.0236 134.325C42.9307 134.101 42.9064 133.854 42.9537 133.616C43.0011 133.378 43.1179 133.16 43.2894 132.988C43.461 132.816 43.6796 132.7 43.9176 132.653C44.1555 132.605 44.4021 132.629 44.6263 132.722C44.8504 132.815 45.042 132.972 45.1768 133.174C45.3116 133.376 45.3835 133.613 45.3835 133.855C45.3835 134.18 45.2543 134.493 45.0242 134.723C44.7942 134.953 44.4821 135.082 44.1568 135.082Z" fill="white"/>
<g filter="url(#filter5_dd_4_11303)">
<path d="M109.659 146.726C118.515 146.726 125.695 139.546 125.695 130.69C125.695 121.834 118.515 114.654 109.659 114.654C100.803 114.654 93.623 121.834 93.623 130.69C93.623 139.546 100.803 146.726 109.659 146.726Z" fill="#3D7FFC"/>
</g>
<path d="M116.177 131.632L117.994 133.011C118.081 133.07 118.142 133.161 118.164 133.264C118.187 133.366 118.169 133.474 118.115 133.564L116.379 136.482C116.361 136.525 116.334 136.564 116.3 136.597C116.266 136.63 116.227 136.656 116.183 136.673C116.139 136.691 116.093 136.699 116.046 136.698C115.999 136.698 115.953 136.688 115.909 136.669C115.89 136.661 115.871 136.651 115.853 136.639L113.712 135.811C113.257 136.136 112.77 136.413 112.257 136.639L111.935 138.847C111.909 139.083 111.76 139.201 111.491 139.201H108.059C107.954 139.21 107.848 139.178 107.766 139.112C107.683 139.046 107.629 138.951 107.614 138.847L107.292 136.638C106.775 136.425 106.286 136.147 105.838 135.81L103.696 136.638C103.606 136.684 103.5 136.694 103.403 136.664C103.305 136.635 103.222 136.57 103.171 136.481L101.436 133.563C101.381 133.473 101.363 133.366 101.386 133.264C101.408 133.16 101.47 133.07 101.557 133.011L103.373 131.632C103.347 131.317 103.331 131.041 103.331 130.804C103.331 130.567 103.345 130.291 103.373 129.976L101.557 128.596C101.47 128.537 101.408 128.447 101.386 128.345C101.363 128.242 101.381 128.135 101.436 128.045L103.171 125.126C103.213 125.037 103.289 124.969 103.381 124.937C103.474 124.904 103.575 124.909 103.664 124.952C103.675 124.957 103.686 124.963 103.696 124.969L105.838 125.797C106.293 125.472 106.78 125.194 107.292 124.969L107.614 122.763C107.628 122.658 107.683 122.562 107.766 122.496C107.848 122.429 107.953 122.398 108.059 122.406H111.491C111.76 122.406 111.909 122.524 111.936 122.761L112.258 124.969C112.776 125.183 113.264 125.461 113.712 125.797L115.854 124.969C115.945 124.923 116.05 124.914 116.147 124.943C116.246 124.972 116.328 125.038 116.379 125.126L118.115 128.045C118.169 128.135 118.186 128.242 118.164 128.345C118.141 128.447 118.081 128.537 117.994 128.596L116.176 129.976C116.284 130.523 116.284 131.086 116.177 131.632ZM108.002 132.585C108.413 132.99 108.953 133.241 109.529 133.294C110.104 133.347 110.681 133.199 111.159 132.876C111.639 132.551 111.99 132.072 112.156 131.518C112.321 130.964 112.289 130.37 112.066 129.837C111.843 129.303 111.442 128.863 110.931 128.593C110.42 128.321 109.832 128.236 109.265 128.35C108.698 128.464 108.188 128.771 107.822 129.219C107.456 129.666 107.256 130.227 107.256 130.805C107.252 131.136 107.316 131.466 107.444 131.772C107.572 132.078 107.761 132.354 108 132.585L108.002 132.585Z" fill="white"/>
</g>
<defs>
<filter id="filter0_dd_4_11303" x="39.0785" y="44.8436" width="78.6387" height="78.6387" filterUnits="userSpaceOnUse" color-interpolation-filters="sRGB">
<feFlood flood-opacity="0" result="BackgroundImageFix"/>
<feColorMatrix in="SourceAlpha" type="matrix" values="0 0 0 0 0 0 0 0 0 0 0 0 0 0 0 0 0 0 127 0" result="hardAlpha"/>
<feOffset dx="3.68664" dy="3.68664"/>
<feGaussianBlur stdDeviation="3.68664"/>
<feColorMatrix type="matrix" values="0 0 0 0 0 0 0 0 0 0.296699 0 0 0 0 0.858629 0 0 0 0.08 0"/>
<feBlend mode="normal" in2="BackgroundImageFix" result="effect1_dropShadow_4_11303"/>
<feColorMatrix in="SourceAlpha" type="matrix" values="0 0 0 0 0 0 0 0 0 0 0 0 0 0 0 0 0 0 127 0" result="hardAlpha"/>
<feOffset/>
<feGaussianBlur stdDeviation="2.58065"/>
<feComposite in2="hardAlpha" operator="out"/>
<feColorMatrix type="matrix" values="0 0 0 0 0.0354167 0 0 0 0 0.105426 0 0 0 0 0.2125 0 0 0 0.07 0"/>
<feBlend mode="normal" in2="effect1_dropShadow_4_11303" result="effect2_dropShadow_4_11303"/>
<feBlend mode="normal" in="SourceGraphic" in2="effect2_dropShadow_4_11303" result="shape"/>
</filter>
<filter id="filter1_dd_4_11303" x="-0.000157833" y="50.5069" width="48.2925" height="48.2927" filterUnits="userSpaceOnUse" color-interpolation-filters="sRGB">
<feFlood flood-opacity="0" result="BackgroundImageFix"/>
<feColorMatrix in="SourceAlpha" type="matrix" values="0 0 0 0 0 0 0 0 0 0 0 0 0 0 0 0 0 0 127 0" result="hardAlpha"/>
<feOffset dx="3.68664" dy="3.68664"/>
<feGaussianBlur stdDeviation="3.68664"/>
<feColorMatrix type="matrix" values="0 0 0 0 0 0 0 0 0 0.296699 0 0 0 0 0.858629 0 0 0 0.08 0"/>
<feBlend mode="normal" in2="BackgroundImageFix" result="effect1_dropShadow_4_11303"/>
<feColorMatrix in="SourceAlpha" type="matrix" values="0 0 0 0 0 0 0 0 0 0 0 0 0 0 0 0 0 0 127 0" result="hardAlpha"/>
<feOffset/>
<feGaussianBlur stdDeviation="2.58065"/>
<feComposite in2="hardAlpha" operator="out"/>
<feColorMatrix type="matrix" values="0 0 0 0 0.0354167 0 0 0 0 0.105426 0 0 0 0 0.2125 0 0 0 0.07 0"/>
<feBlend mode="normal" in2="effect1_dropShadow_4_11303" result="effect2_dropShadow_4_11303"/>
<feBlend mode="normal" in="SourceGraphic" in2="effect2_dropShadow_4_11303" result="shape"/>
</filter>
<filter id="filter2_dd_4_11303" x="111.336" y="50.5069" width="48.2925" height="48.2927" filterUnits="userSpaceOnUse" color-interpolation-filters="sRGB">
<feFlood flood-opacity="0" result="BackgroundImageFix"/>
<feColorMatrix in="SourceAlpha" type="matrix" values="0 0 0 0 0 0 0 0 0 0 0 0 0 0 0 0 0 0 127 0" result="hardAlpha"/>
<feOffset dx="3.68664" dy="3.68664"/>
<feGaussianBlur stdDeviation="3.68664"/>
<feColorMatrix type="matrix" values="0 0 0 0 0 0 0 0 0 0.296699 0 0 0 0 0.858629 0 0 0 0.08 0"/>
<feBlend mode="normal" in2="BackgroundImageFix" result="effect1_dropShadow_4_11303"/>
<feColorMatrix in="SourceAlpha" type="matrix" values="0 0 0 0 0 0 0 0 0 0 0 0 0 0 0 0 0 0 127 0" result="hardAlpha"/>
<feOffset/>
<feGaussianBlur stdDeviation="2.58065"/>
<feComposite in2="hardAlpha" operator="out"/>
<feColorMatrix type="matrix" values="0 0 0 0 0.0354167 0 0 0 0 0.105426 0 0 0 0 0.2125 0 0 0 0.07 0"/>
<feBlend mode="normal" in2="effect1_dropShadow_4_11303" result="effect2_dropShadow_4_11303"/>
<feBlend mode="normal" in="SourceGraphic" in2="effect2_dropShadow_4_11303" result="shape"/>
</filter>
<filter id="filter3_dd_4_11303" x="55.8763" y="1.84335" width="48.2925" height="48.2927" filterUnits="userSpaceOnUse" color-interpolation-filters="sRGB">
<feFlood flood-opacity="0" result="BackgroundImageFix"/>
<feColorMatrix in="SourceAlpha" type="matrix" values="0 0 0 0 0 0 0 0 0 0 0 0 0 0 0 0 0 0 127 0" result="hardAlpha"/>
<feOffset dx="3.68664" dy="3.68664"/>
<feGaussianBlur stdDeviation="3.68664"/>
<feColorMatrix type="matrix" values="0 0 0 0 0 0 0 0 0 0.296699 0 0 0 0 0.858629 0 0 0 0.08 0"/>
<feBlend mode="normal" in2="BackgroundImageFix" result="effect1_dropShadow_4_11303"/>
<feColorMatrix in="SourceAlpha" type="matrix" values="0 0 0 0 0 0 0 0 0 0 0 0 0 0 0 0 0 0 127 0" result="hardAlpha"/>
<feOffset/>
<feGaussianBlur stdDeviation="2.58065"/>
<feComposite in2="hardAlpha" operator="out"/>
<feColorMatrix type="matrix" values="0 0 0 0 0.0354167 0 0 0 0 0.105426 0 0 0 0 0.2125 0 0 0 0.07 0"/>
<feBlend mode="normal" in2="effect1_dropShadow_4_11303" result="effect2_dropShadow_4_11303"/>
<feBlend mode="normal" in="SourceGraphic" in2="effect2_dropShadow_4_11303" result="shape"/>
</filter>
<filter id="filter4_dd_4_11303" x="23.2918" y="109.493" width="48.2925" height="48.2927" filterUnits="userSpaceOnUse" color-interpolation-filters="sRGB">
<feFlood flood-opacity="0" result="BackgroundImageFix"/>
<feColorMatrix in="SourceAlpha" type="matrix" values="0 0 0 0 0 0 0 0 0 0 0 0 0 0 0 0 0 0 127 0" result="hardAlpha"/>
<feOffset dx="3.68664" dy="3.68664"/>
<feGaussianBlur stdDeviation="3.68664"/>
<feColorMatrix type="matrix" values="0 0 0 0 0 0 0 0 0 0.296699 0 0 0 0 0.858629 0 0 0 0.08 0"/>
<feBlend mode="normal" in2="BackgroundImageFix" result="effect1_dropShadow_4_11303"/>
<feColorMatrix in="SourceAlpha" type="matrix" values="0 0 0 0 0 0 0 0 0 0 0 0 0 0 0 0 0 0 127 0" result="hardAlpha"/>
<feOffset/>
<feGaussianBlur stdDeviation="2.58065"/>
<feComposite in2="hardAlpha" operator="out"/>
<feColorMatrix type="matrix" values="0 0 0 0 0.0354167 0 0 0 0 0.105426 0 0 0 0 0.2125 0 0 0 0.07 0"/>
<feBlend mode="normal" in2="effect1_dropShadow_4_11303" result="effect2_dropShadow_4_11303"/>
<feBlend mode="normal" in="SourceGraphic" in2="effect2_dropShadow_4_11303" result="shape"/>
</filter>
<filter id="filter5_dd_4_11303" x="88.4618" y="109.493" width="48.2925" height="48.2927" filterUnits="userSpaceOnUse" color-interpolation-filters="sRGB">
<feFlood flood-opacity="0" result="BackgroundImageFix"/>
<feColorMatrix in="SourceAlpha" type="matrix" values="0 0 0 0 0 0 0 0 0 0 0 0 0 0 0 0 0 0 127 0" result="hardAlpha"/>
<feOffset dx="3.68664" dy="3.68664"/>
<feGaussianBlur stdDeviation="3.68664"/>
<feColorMatrix type="matrix" values="0 0 0 0 0 0 0 0 0 0.296699 0 0 0 0 0.858629 0 0 0 0.08 0"/>
<feBlend mode="normal" in2="BackgroundImageFix" result="effect1_dropShadow_4_11303"/>
<feColorMatrix in="SourceAlpha" type="matrix" values="0 0 0 0 0 0 0 0 0 0 0 0 0 0 0 0 0 0 127 0" result="hardAlpha"/>
<feOffset/>
<feGaussianBlur stdDeviation="2.58065"/>
<feComposite in2="hardAlpha" operator="out"/>
<feColorMatrix type="matrix" values="0 0 0 0 0.0354167 0 0 0 0 0.105426 0 0 0 0 0.2125 0 0 0 0.07 0"/>
<feBlend mode="normal" in2="effect1_dropShadow_4_11303" result="effect2_dropShadow_4_11303"/>
<feBlend mode="normal" in="SourceGraphic" in2="effect2_dropShadow_4_11303" result="shape"/>
</filter>
<clipPath id="clip0_4_11303">
<rect width="160" height="156.313" fill="white" transform="translate(0 1.84326)"/>
</clipPath>
</defs>
</svg>
