<svg width="48" height="179" viewBox="0 0 48 179" fill="none" xmlns="http://www.w3.org/2000/svg">
<g clip-path="url(#clip0_4_13044)">
<path d="M24.9005 147.157V162.844C24.9027 163.037 24.8495 163.228 24.7472 163.393C24.6448 163.557 24.4975 163.689 24.3227 163.773C24.1556 163.853 23.9693 163.884 23.7854 163.861C23.6016 163.839 23.428 163.765 23.285 163.647L18.434 159.451H16.8977C16.6298 159.446 16.3744 159.336 16.1874 159.144C16.0005 158.952 15.8973 158.694 15.9005 158.426V151.574C15.8973 151.306 16.0005 151.048 16.1874 150.856C16.3744 150.664 16.6298 150.554 16.8977 150.55H18.434L23.2715 146.365C23.4151 146.243 23.5905 146.166 23.7769 146.141C23.9632 146.117 24.1527 146.147 24.3227 146.227C24.4977 146.31 24.6451 146.442 24.7475 146.607C24.8498 146.772 24.9029 146.963 24.9005 147.157ZM32.6468 152.486L31.3742 151.214L29.3105 153.277L27.2468 151.214L25.9742 152.486L28.0379 154.55L25.9742 156.614L27.2468 157.886L29.3105 155.823L31.3742 157.886L32.6468 156.614L30.5831 154.55L32.6468 152.486Z" fill="white"/>
</g>
<defs>
<clipPath id="clip0_4_13044">
<rect width="18" height="18" fill="white" transform="translate(15 146)"/>
</clipPath>
</defs>
</svg>
