<svg width="56" height="56" viewBox="0 0 56 56" fill="none" xmlns="http://www.w3.org/2000/svg">
<g clip-path="url(#clip0_4_15789)">
<g clip-path="url(#clip1_4_15789)">
<g clip-path="url(#clip2_4_15789)">
<path d="M0 11.2C0 5.01441 5.01441 0 11.2 0H44.8C50.9856 0 56 5.01441 56 11.2V44.8C56 50.9856 50.9856 56 44.8 56H11.2C5.01441 56 0 50.9856 0 44.8V11.2Z" fill="white"/>
<path d="M43.2505 11.6666H36.981V28.4254H43.2505V11.6666Z" fill="#00CEC8"/>
<path d="M34.871 20.4672H28.6016V28.4255H34.871V20.4672Z" fill="#00CEC8"/>
<path d="M26.9171 20.4672H20.6476V28.4255H26.9171V20.4672Z" fill="#00CEC8"/>
<path d="M12.6894 11.6666V44.3333H36.4997H36.981H43.3107V30.6513H20.8281V36.62H36.981V38.3689H19.019V11.6666H12.6894Z" fill="#00CEC8"/>
<path d="M11.2 1.16671H44.8V-1.16663H11.2V1.16671ZM54.8334 11.2V44.8H57.1666V11.2H54.8334ZM44.8 54.8334H11.2V57.1667H44.8V54.8334ZM1.16665 44.8V11.2H-1.16669V44.8H1.16665ZM11.2 54.8334C5.65872 54.8334 1.16665 50.3412 1.16665 44.8H-1.16669C-1.16669 51.6299 4.37005 57.1667 11.2 57.1667V54.8334ZM54.8334 44.8C54.8334 50.3412 50.3412 54.8334 44.8 54.8334V57.1667C51.6299 57.1667 57.1666 51.6299 57.1666 44.8H54.8334ZM44.8 1.16671C50.3412 1.16671 54.8334 5.65878 54.8334 11.2H57.1666C57.1666 4.37011 51.6299 -1.16663 44.8 -1.16663V1.16671ZM11.2 -1.16663C4.37005 -1.16663 -1.16669 4.37011 -1.16669 11.2H1.16665C1.16665 5.65878 5.65872 1.16671 11.2 1.16671V-1.16663Z" fill="#EBEEF1"/>
</g>
</g>
</g>
<defs>
<clipPath id="clip0_4_15789">
<rect width="56" height="56" rx="10" fill="white"/>
</clipPath>
<clipPath id="clip1_4_15789">
<rect width="56" height="56" fill="white"/>
</clipPath>
<clipPath id="clip2_4_15789">
<rect width="56" height="56" fill="white"/>
</clipPath>
</defs>
</svg>
