<svg width="13" height="13" viewBox="0 0 13 13" fill="none" xmlns="http://www.w3.org/2000/svg">
<mask id="mask0_2_8875" style="mask-type:alpha" maskUnits="userSpaceOnUse" x="-4" y="-4" width="21" height="21">
<path d="M16.25 -3.25H-3.25V16.25H16.25V-3.25Z" fill="#FFBCCA"/>
</mask>
<g mask="url(#mask0_2_8875)">
<path d="M6.49997 12.9999C4.68541 12.9999 3.1484 12.3703 1.88906 11.1109C0.629618 9.85153 0 8.31453 0 6.49997C0 4.68541 0.629618 3.1484 1.88906 1.88906C3.1484 0.629618 4.68541 0 6.49997 0C7.43438 0 8.32809 0.193093 9.18121 0.579278C10.0343 0.964932 10.7656 1.51666 11.375 2.23434V0H12.9999V5.68743H7.3125V4.06247H10.725C10.2917 3.30409 9.69934 2.70827 8.94806 2.27493C8.19615 1.84158 7.38022 1.62497 6.49997 1.62497C5.14578 1.62497 3.99474 2.0989 3.04688 3.04688C2.0989 3.99474 1.62497 5.14578 1.62497 6.49997C1.62497 7.85416 2.0989 9.00519 3.04688 9.95306C3.99474 10.901 5.14578 11.375 6.49997 11.375C7.54269 11.375 8.48377 11.0771 9.32344 10.4812C10.163 9.88533 10.752 9.09993 11.0906 8.12493H12.7969C12.4177 9.56041 11.6458 10.7318 10.4812 11.6391C9.31665 12.5463 7.9896 12.9999 6.49997 12.9999Z" fill="#FFBCCA"/>
</g>
</svg>
