<svg width="140" height="24" viewBox="0 0 140 24" fill="none" xmlns="http://www.w3.org/2000/svg">
<g clip-path="url(#clip0_4_14825)">
<path d="M25.633 7.997C25.646 8.172 25.646 8.346 25.646 8.52C25.646 13.845 21.593 19.981 14.186 19.981C11.904 19.981 9.784 19.32 8 18.172C8.324 18.209 8.636 18.222 8.973 18.222C10.786 18.2264 12.5476 17.6201 13.974 16.501C13.1334 16.4858 12.3186 16.2085 11.6432 15.7077C10.9679 15.207 10.4658 14.5079 10.207 13.708C10.456 13.745 10.706 13.77 10.968 13.77C11.329 13.77 11.692 13.72 12.029 13.633C11.1168 13.4488 10.2965 12.9543 9.70762 12.2337C9.11876 11.513 8.79769 10.6106 8.799 9.68V9.63C9.336 9.929 9.959 10.116 10.619 10.141C10.0661 9.77359 9.61272 9.27502 9.29934 8.68979C8.98596 8.10456 8.82231 7.45086 8.823 6.787C8.823 6.039 9.022 5.353 9.371 4.755C10.3831 6.00002 11.6455 7.01856 13.0763 7.74466C14.5072 8.47076 16.0746 8.88822 17.677 8.97C17.615 8.67 17.577 8.359 17.577 8.047C17.5767 7.51796 17.6807 6.99406 17.8831 6.50524C18.0854 6.01642 18.3821 5.57227 18.7562 5.19819C19.1303 4.8241 19.5744 4.52741 20.0632 4.32508C20.5521 4.12275 21.076 4.01874 21.605 4.019C22.765 4.019 23.812 4.505 24.548 5.291C25.4498 5.11662 26.3145 4.78742 27.104 4.318C26.8034 5.24882 26.1738 6.0381 25.333 6.538C26.1328 6.44678 26.9144 6.23645 27.652 5.914C27.1011 6.7171 26.4185 7.42134 25.633 7.997Z" fill="#889096"/>
</g>
<g clip-path="url(#clip1_4_14825)">
<path d="M56.8204 4.26C56.6218 4.61569 56.4448 4.98302 56.2904 5.36C54.7732 5.12005 53.2276 5.12005 51.7104 5.36C51.556 4.98302 51.379 4.61569 51.1804 4.26C49.7512 4.5042 48.3618 4.94154 47.0504 5.56C44.7053 8.94429 43.6418 13.053 44.0504 17.15C45.5786 18.2989 47.2939 19.1751 49.1204 19.74C49.5363 19.1906 49.9075 18.6087 50.2304 18C49.6345 17.7803 49.0617 17.5023 48.5204 17.17C48.6689 17.0712 48.8093 16.9609 48.9404 16.84C50.5189 17.6003 52.2484 17.9951 54.0004 17.9951C55.7524 17.9951 57.4819 17.6003 59.0604 16.84C59.2004 16.96 59.3404 17.07 59.4804 17.17C58.9362 17.4996 58.364 17.7807 57.7704 18.01C58.0799 18.6325 58.4412 19.228 58.8504 19.79C60.6747 19.227 62.3869 18.3506 63.9104 17.2C64.3288 13.1022 63.2644 8.99018 60.9104 5.61C59.6137 4.97874 58.2381 4.52467 56.8204 4.26ZM50.6804 14.81C50.18 14.7741 49.7129 14.5457 49.3773 14.1728C49.0417 13.7999 48.8636 13.3114 48.8804 12.81C48.8611 12.3079 49.0383 11.8181 49.3744 11.4446C49.7105 11.0711 50.1791 10.8435 50.6804 10.81C51.1817 10.8435 51.6503 11.0711 51.9864 11.4446C52.3225 11.8181 52.4997 12.3079 52.4804 12.81C52.4997 13.3121 52.3225 13.8019 51.9864 14.1754C51.6503 14.5489 51.1817 14.7765 50.6804 14.81ZM57.3204 14.81C56.82 14.7741 56.3529 14.5457 56.0173 14.1728C55.6817 13.7999 55.5036 13.3114 55.5204 12.81C55.5011 12.3079 55.6783 11.8181 56.0144 11.4446C56.3505 11.0711 56.8191 10.8435 57.3204 10.81C57.8227 10.841 58.2927 11.0679 58.6294 11.4419C58.966 11.816 59.1423 12.3073 59.1204 12.81C59.1423 13.3127 58.966 13.804 58.6294 14.1781C58.2927 14.5521 57.8227 14.779 57.3204 14.81Z" fill="#889096"/>
</g>
<g clip-path="url(#clip2_4_14825)">
<path fill-rule="evenodd" clip-rule="evenodd" d="M90.0267 2C84.5177 2 80.0527 6.465 80.0527 11.974C80.0527 16.38 82.9097 20.119 86.8737 21.439C87.3727 21.529 87.5527 21.222 87.5527 20.958C87.5527 20.721 87.5447 20.093 87.5417 19.262C84.7667 19.864 84.1807 17.924 84.1807 17.924C83.7287 16.772 83.0737 16.465 83.0737 16.465C82.1687 15.846 83.1427 15.86 83.1427 15.86C84.1447 15.93 84.6697 16.888 84.6697 16.888C85.5597 18.412 87.0057 17.972 87.5717 17.717C87.6627 17.072 87.9227 16.632 88.2067 16.383C85.9927 16.132 83.6647 15.276 83.6647 11.453C83.6647 10.366 84.0537 9.474 84.6887 8.778C84.5877 8.525 84.2427 7.51 84.7877 6.138C84.7877 6.138 85.6247 5.869 87.5297 7.159C88.3433 6.93767 89.1826 6.8247 90.0257 6.823C90.8689 6.82437 91.7082 6.93735 92.5217 7.159C94.4277 5.868 95.2637 6.138 95.2637 6.138C95.8087 7.51 95.4667 8.525 95.3627 8.778C96.0027 9.474 96.3867 10.365 96.3867 11.453C96.3867 15.286 94.0567 16.128 91.8347 16.375C92.1897 16.683 92.5097 17.291 92.5097 18.221C92.5097 19.555 92.4977 20.631 92.4977 20.958C92.4977 21.225 92.6757 21.535 93.1847 21.437C97.1467 20.115 100.001 16.379 100.001 11.974C100.001 6.465 95.5357 2 90.0267 2Z" fill="#889096"/>
</g>
<g clip-path="url(#clip3_4_14825)">
<path d="M131.941 15.275C131.808 15.05 131.433 14.7 130.499 14.8667C129.983 14.961 129.457 14.9973 128.933 14.975C127.996 14.9326 127.078 14.7027 126.232 14.2991C125.386 13.8954 124.63 13.3262 124.008 12.625C123.132 11.6664 122.553 10.4748 122.34 9.19417C122.127 7.91356 122.29 6.59868 122.808 5.40833C123.174 4.56667 122.916 4.125 122.733 3.94167C122.549 3.75833 122.091 3.48333 121.208 3.85C119.552 4.5413 118.154 5.73335 117.209 7.25912C116.265 8.78489 115.821 10.5679 115.941 12.3583C116.089 14.0408 116.723 15.6441 117.764 16.9738C118.805 18.3036 120.21 19.3027 121.808 19.85C122.583 20.1207 123.395 20.2751 124.216 20.3083C124.349 20.3167 124.483 20.325 124.616 20.325C125.989 20.3273 127.344 20.0065 128.57 19.3883C129.796 18.7701 130.86 17.872 131.674 16.7667C132.233 15.9917 132.083 15.5008 131.941 15.275Z" fill="#889096"/>
</g>
<defs>
<clipPath id="clip0_4_14825">
<rect width="24" height="24" fill="white" transform="translate(6)"/>
</clipPath>
<clipPath id="clip1_4_14825">
<rect width="24" height="24" fill="white" transform="translate(42)"/>
</clipPath>
<clipPath id="clip2_4_14825">
<rect width="24" height="24" fill="white" transform="translate(78)"/>
</clipPath>
<clipPath id="clip3_4_14825">
<rect width="20" height="20" fill="white" transform="translate(114 2)"/>
</clipPath>
</defs>
</svg>
