<svg width="9" height="13" viewBox="0 0 9 13" fill="none" xmlns="http://www.w3.org/2000/svg">
<path d="M8.99924 4.86431C8.99924 5.72109 8.87288 6.48234 8.62016 7.14598C8.34381 7.89489 7.8959 8.501 7.27746 8.96534C6.65696 9.43071 5.96354 9.66185 5.19511 9.66185C4.2808 9.66185 3.59559 9.38448 3.13843 8.82973C3.10248 8.78145 3.0696 8.76399 3.03981 8.77529C3.01002 8.78762 2.99358 8.8246 2.99358 8.88521V12.488C2.99358 12.5846 2.96481 12.6626 2.9042 12.7232C2.84359 12.7839 2.76552 12.8136 2.66895 12.8136H0.324632C0.228065 12.8136 0.149985 12.7839 0.0904007 12.7232C0.0297894 12.6626 0 12.5846 0 12.488V0.468463C0 0.371895 0.0297894 0.293816 0.0904007 0.233205C0.149985 0.172593 0.228065 0.142804 0.324632 0.142804H2.66895C2.76552 0.142804 2.84359 0.172593 2.9042 0.233205C2.96481 0.293816 2.99358 0.371895 2.99358 0.468463V0.903019C2.99358 0.96363 3.00899 1.00061 3.03981 1.01294C3.0696 1.02424 3.10248 1.00676 3.13843 0.958479C3.59559 0.318465 4.2808 0 5.19511 0C5.97586 0 6.69806 0.259921 7.35964 0.778712C8.02123 1.29648 8.4712 1.9673 8.71159 2.78812C8.9037 3.37883 9.00026 4.07226 9.00026 4.86946L8.99924 4.86431ZM5.7889 4.81089C5.7889 4.19553 5.68719 3.69421 5.48173 3.30794C5.23003 2.86209 4.86226 2.63814 4.38148 2.63814C3.9007 2.63814 3.5699 2.86723 3.31718 3.32644C3.11377 3.71271 3.01105 4.20683 3.01105 4.81089C3.01105 5.47453 3.11994 6.00566 3.33568 6.40426C3.5884 6.81519 3.93768 7.01962 4.3825 7.01962C4.85096 7.01962 5.21257 6.808 5.46426 6.3868C5.68 5.9882 5.7889 5.46427 5.7889 4.81193V4.81089Z" fill="#252530"/>
</svg>
