<svg width="47" height="47" viewBox="0 0 47 47" fill="none" xmlns="http://www.w3.org/2000/svg">
<path d="M23.5 0C10.5437 0 0 10.5437 0 23.5C0 36.4563 10.5437 47 23.5 47C36.4563 47 47 36.4563 47 23.5C47 10.5437 36.4563 0 23.5 0ZM23.5 45.9033C11.139 45.9033 1.09667 35.861 1.09667 23.5C1.09667 11.139 11.139 1.09667 23.5 1.09667C35.861 1.09667 45.9033 11.139 45.9033 23.5C45.9033 35.861 35.861 45.9033 23.5 45.9033ZM23.5 5.85933C13.771 5.85933 5.85933 13.771 5.85933 23.5C5.85933 33.229 13.771 41.1563 23.5 41.1563C33.229 41.1563 41.1563 33.229 41.1563 23.5C41.1563 13.771 33.229 5.85933 23.5 5.85933ZM23.5 40.0597C14.3663 40.0597 6.94033 32.6493 6.94033 23.5C6.94033 14.3507 14.3663 6.94033 23.5 6.94033C32.6337 6.94033 40.0597 14.3663 40.0597 23.5C40.0597 32.6337 32.6337 40.0597 23.5 40.0597ZM12.267 11.609V26.696C12.267 30.2053 14.1783 33.5737 17.8443 36.519C20.539 38.7123 23.2023 39.8717 23.3277 39.903L23.547 39.997L23.7663 39.903C23.8917 39.8403 26.5237 38.681 29.2183 36.519C32.8217 33.605 34.7643 30.3307 34.7643 26.9467V11.609H12.267ZM33.605 12.7057V20.8367H13.3637V12.7057H33.605ZM28.858 32.6963H28.0433C27.26 32.665 26.7587 32.6337 26.2573 32.571C25.7247 32.5083 25.2547 32.477 24.5653 32.477C24.2833 32.477 24.0953 32.5397 23.9073 32.6337V24.5027C23.97 24.4713 24.064 24.4087 24.2207 24.3773C24.2207 24.3773 24.722 24.2833 25.2547 24.346L26.1947 24.44C26.7273 24.5027 27.166 24.5653 27.6047 24.5653H28.858V32.6963ZM22.9987 32.6023C22.842 32.5397 22.654 32.477 22.4347 32.477C21.7767 32.477 21.2753 32.5083 20.7427 32.571C20.2413 32.6337 19.7087 32.665 18.9567 32.6963H18.142V24.534H19.3953C19.8027 24.534 20.2727 24.4713 20.8053 24.4087L21.714 24.3147C22.278 24.252 22.7793 24.346 22.7793 24.346C22.8733 24.3773 22.9673 24.4087 23.03 24.44L22.9987 32.6023ZM13.3637 26.696V21.9333H22.9987V23.312C22.936 23.312 22.3093 23.1553 21.62 23.2493L20.68 23.3433C20.1787 23.406 19.74 23.4373 19.3327 23.4687H18.142H17.014V24.91H15.9487V26.226H17.014V27.9493H15.9487V29.2653H17.014V30.644H15.9487V31.96H17.014V33.746L17.5467 33.7773C17.578 33.7773 18.2047 33.8087 18.9567 33.8087C19.7713 33.7773 20.304 33.746 20.8367 33.6833C21.338 33.652 21.808 33.5893 22.4033 33.5893C22.5913 33.5893 22.654 33.652 22.748 33.8087C22.8107 33.8713 22.8733 33.9653 22.9987 34.0593V38.54C20.6487 37.3337 13.3637 33.135 13.3637 26.696ZM23.9073 38.587V34.0123C24.0327 33.9183 24.0953 33.8243 24.158 33.7617C24.2833 33.605 24.346 33.5423 24.5653 33.5423C25.192 33.5423 25.6307 33.5737 26.132 33.6363C26.6333 33.699 27.1973 33.7303 28.012 33.7617C28.8267 33.793 29.422 33.7303 29.422 33.7303L29.9547 33.699V32.195H30.926V30.879H29.9547V29.5003H30.9887V28.2H29.9547V26.4767H30.926V25.1607H29.9547V23.406H28.858H27.6673C27.2913 23.406 26.8527 23.3433 26.3513 23.2807L25.4113 23.1867C24.6907 23.0927 24.064 23.2493 24.0327 23.2493C24.0013 23.2493 23.97 23.2493 23.9387 23.2807V21.902H33.6363V26.978C33.605 33.1977 26.1633 37.459 23.9073 38.587ZM16.309 19.0507C17.0923 19.552 18.2203 20.2413 18.2517 20.2727L18.5337 20.4293L18.8157 20.2727C18.8783 20.2413 20.1317 19.552 20.8837 19.0507C21.5417 18.6433 21.8237 18.1733 21.855 17.6407V13.8023V13.2383H15.275V17.6563C15.3377 18.142 15.6823 18.612 16.309 19.0507ZM20.7427 17.5623C20.7427 17.813 20.4293 18.0323 20.2727 18.1263C19.74 18.471 18.9567 18.941 18.5493 19.1603C18.1733 18.9097 17.4213 18.471 16.8887 18.1263C16.5127 17.8443 16.356 17.6563 16.356 17.5623V16.3717H20.7427V16.5597C20.774 17.1237 20.774 17.4997 20.7427 17.5623ZM20.7427 14.335V15.275H16.3873V14.335H20.7427ZM26.4453 19.0193C27.2287 19.5207 28.3567 20.21 28.388 20.2413L28.67 20.398L28.952 20.2413C29.0147 20.21 30.268 19.5207 31.02 19.0193C31.678 18.612 31.96 18.142 31.9913 17.6093V13.771V13.207H25.427V17.6563C25.474 18.1107 25.8187 18.5807 26.4453 19.0193ZM30.9103 17.5937C30.9103 17.813 30.597 18.0323 30.4403 18.1263C29.9077 18.471 29.1243 18.941 28.717 19.1603C28.341 18.9097 27.589 18.471 27.0877 18.1263C26.7117 17.8443 26.555 17.6563 26.555 17.5623V17.437C26.555 17.437 28.247 16.215 28.717 15.8703C29.1243 16.1523 30.503 17.061 30.9417 17.343C30.9417 17.4683 30.9417 17.531 30.9103 17.5937ZM26.5393 14.3037H30.926V16.027L28.67 14.5543L28.388 14.805L26.5393 16.1523V15.651C26.5393 15.181 26.5393 14.711 26.5393 14.3037ZM26.4453 25.568L27.824 25.5993V26.1947L26.4453 26.1633C26.1947 26.1633 25.9753 26.132 25.662 26.1007L25.192 26.038H24.9413L24.91 25.474H25.2233L25.6933 25.5367C26.0067 25.5367 26.2573 25.568 26.4453 25.568ZM26.4453 27.354L27.824 27.3853V27.9807L26.4453 27.9493C26.1947 27.9493 25.9753 27.918 25.662 27.8867L25.192 27.824H24.9413L24.91 27.26H25.2233L25.6933 27.3227C26.0067 27.3227 26.2573 27.354 26.4453 27.354ZM24.9727 29.563L24.9413 28.9677H25.2547L25.756 29.0303C26.038 29.0617 26.2573 29.093 26.4453 29.093L27.1033 29.1243L27.8553 29.1557V29.751L27.1033 29.7197L26.4453 29.6883C26.226 29.6883 25.9753 29.657 25.6933 29.6257L25.192 29.563H24.9727ZM26.4453 30.8477L27.824 30.879V31.4743L26.4453 31.443C26.226 31.443 25.9753 31.4117 25.6933 31.3803C25.6933 31.3803 25.2233 31.3177 25.192 31.3177H24.9413L24.91 30.7223H25.2233L25.7247 30.785C26.0067 30.8163 26.2573 30.8477 26.4453 30.8477ZM19.1133 26.1633V25.568L20.492 25.5367C20.7113 25.5367 20.9307 25.5053 21.244 25.474L21.6827 25.4113H21.9647V26.0067H21.714L21.2753 26.0693C20.9933 26.1007 20.7113 26.132 20.492 26.132L19.1133 26.1633ZM21.6827 27.2287H21.9647V27.824H21.714L21.3067 27.8867C21.0247 27.918 20.7427 27.9493 20.5233 27.9493L19.1447 27.9807L19.1133 27.4167L20.492 27.3853C20.7113 27.3853 20.9307 27.354 21.244 27.3227C21.2127 27.26 21.6827 27.2287 21.6827 27.2287ZM21.6827 28.9833H21.9647V29.5787H21.714L21.244 29.6413C20.962 29.6727 20.7113 29.704 20.492 29.704H20.3353L19.082 29.7353V29.14L20.3353 29.1087H20.492C20.7113 29.1087 20.9307 29.0773 21.2127 29.046L21.6827 28.9833ZM21.6827 30.7537H21.9647V31.349H21.714L21.2753 31.4117C20.9933 31.443 20.7113 31.4743 20.492 31.4743H20.3667L19.176 31.5057V30.9103L20.3667 30.879H20.586C20.8053 30.879 21.0247 30.8477 21.338 30.8163C21.244 30.7537 21.6827 30.7537 21.6827 30.7537ZM20.68 4.23L20.492 2.22467L21.1187 2.162L21.2753 4.01067C21.338 4.54333 21.526 4.888 21.996 4.82533C22.466 4.794 22.6227 4.418 22.56 3.88533L22.4033 2.03667L23.03 1.974L23.218 3.97933C23.2807 4.82533 22.842 5.23267 22.0273 5.29533C21.244 5.38933 20.7427 5.04467 20.68 4.23ZM11.139 9.917L9.13367 7.473L10.5437 6.31367L10.857 6.68967L9.917 7.473L10.4183 8.09967L11.2643 7.379L11.5777 7.755L10.7317 8.47567L11.2957 9.165L12.2357 8.38167L12.549 8.75767L11.139 9.917ZM16.5597 6.533L15.4943 3.55633L16.0897 3.337L16.9983 5.84367L18.1577 5.43633L18.3457 5.90633L16.5597 6.533ZM25.38 5.264L24.7847 5.17L25.192 2.03667L25.9753 2.13067L26.8213 4.63733L27.1347 2.28733L27.73 2.38133L27.3227 5.51467L26.5393 5.42067L25.6933 2.914L25.38 5.264ZM8.413 12.925L6.00033 10.9197L6.50167 10.3243L9.071 10.9197L7.22233 9.41567L7.59833 8.94567L10.011 10.951L9.50967 11.5463L6.94033 10.951L8.789 12.455L8.413 12.925ZM6.909 15.463L5.74967 14.8363L5.84367 14.6483C5.969 14.3977 6.09433 14.3663 6.345 14.3977L7.379 14.5543L7.69233 13.9277L6.345 13.771C6.18833 13.771 6.00033 13.771 5.90633 13.9277C6.063 13.5517 5.875 13.1757 5.56167 13.019C4.77833 12.6117 4.43367 13.301 4.12033 13.8963L3.807 14.4917L6.59567 15.9643L6.909 15.463ZM5.42067 14.429L5.32667 14.617L4.57467 14.2097L4.66867 14.0217C4.82533 13.7397 4.982 13.4577 5.358 13.6457C5.70267 13.8023 5.546 14.147 5.42067 14.429ZM40.373 16.2777L43.3183 15.0557L43.569 15.651L40.6237 16.8417L40.373 16.2777ZM29.3593 6.063L28.764 5.875L29.704 2.867L30.2993 3.055L29.3593 6.063ZM43.804 18.2047L43.5847 17.3587L44.0547 17.2333L44.65 19.5833L44.18 19.7087L43.9607 18.8627L41.36 19.5207L41.2033 18.894L43.804 18.2047ZM43.0833 22.278L44.9633 21.0247L44.9947 21.7767L43.6787 22.5913L45.026 23.2807L45.0573 23.9387L43.0833 22.936L41.83 22.9987L41.7987 22.372L43.0833 22.278ZM40.185 14.053C40.7177 13.771 39.809 12.7057 40.6863 12.173C41.313 11.8283 41.783 12.1417 42.065 12.6117C42.2217 12.8623 42.3157 13.0817 42.347 13.3323L41.877 13.5517C41.8457 13.3323 41.783 13.1443 41.6577 12.925C41.5323 12.737 41.3443 12.549 41.031 12.7057C40.561 12.9877 41.4383 14.053 40.5297 14.5857C39.9343 14.9303 39.433 14.617 39.1197 14.053C38.9317 13.771 38.9003 13.6143 38.8377 13.301L39.3703 13.0503C39.3703 13.301 39.433 13.5517 39.5583 13.771C39.6837 13.959 39.9343 14.1783 40.185 14.053ZM36.989 11.045L37.9603 10.199L38.0857 10.3557C38.2737 10.575 38.2423 10.669 38.117 10.8883L37.6157 11.8283L38.0857 12.361L38.681 11.1703C38.7437 11.0137 38.8063 10.857 38.7123 10.7003C38.9943 10.9823 39.433 10.951 39.6837 10.7003C40.3417 10.105 39.809 9.541 39.3703 9.00833L38.9317 8.507L36.519 10.6063L36.989 11.045ZM38.963 9.259L39.1197 9.41567C39.339 9.66633 39.527 9.94833 39.245 10.199C38.963 10.481 38.681 10.2303 38.4617 9.97967L38.305 9.823L38.963 9.259ZM32.1323 7.285L31.443 6.94033L31.913 3.619L32.5083 3.901L32.101 6.47033L33.9497 4.59033L34.5137 4.87233L32.1323 7.285ZM34.075 8.47567L36.0177 6.00033L37.459 7.12833L37.177 7.50433L36.237 6.75233L35.767 7.379L36.6443 8.06833L36.3623 8.44433L35.485 7.755L34.921 8.47567L35.8923 9.259L35.6103 9.635L34.075 8.47567ZM13.8023 7.943L12.267 5.17L12.831 4.888L14.147 7.238L15.2123 6.64267L15.463 7.08133L13.8023 7.943ZM30.7223 43.2087L30.9417 43.804L30.3463 44.0233L30.127 43.428L30.7223 43.2087ZM26.8527 41.7047L26.32 45.0573L26.978 44.9007L27.1033 44.1173L28.3567 43.8353L28.764 44.4933L29.4533 44.3367L27.5733 41.4853L26.8527 41.7047ZM27.1347 43.6473L27.3227 42.3L28.0433 43.4907L27.1347 43.6473ZM40.6863 34.9837C40.4043 34.7643 40.0597 34.733 39.6523 34.9837C39.7463 34.639 39.5897 34.263 39.3703 34.1377C38.963 33.8243 38.4617 34.075 38.117 34.5137C37.7723 34.9837 37.741 35.485 38.211 35.8297C38.493 36.049 38.8063 36.0177 39.1197 35.8297C39.0257 36.237 39.1197 36.5503 39.4017 36.7383C39.903 37.1143 40.4357 36.895 40.7803 36.3937C41.1563 35.8923 41.2033 35.3597 40.6863 34.9837ZM39.2763 35.1717C39.057 35.297 38.8063 35.4537 38.587 35.297C38.3677 35.1403 38.399 34.8897 38.5557 34.7017C38.7123 34.4823 38.9003 34.4823 39.1197 34.6077C39.245 34.7643 39.3077 35.015 39.2763 35.1717ZM40.4357 36.1117C40.279 36.331 39.997 36.3937 39.7777 36.237C39.5583 36.0803 39.527 35.861 39.5897 35.6103C39.8403 35.4537 40.091 35.3283 40.373 35.5163C40.561 35.6417 40.561 35.8923 40.4357 36.1117ZM21.902 42.018L21.056 41.9553L20.868 45.12L21.714 45.1827C22.6853 45.2453 23.5627 44.932 23.6253 43.71C23.7193 42.4253 22.842 42.0493 21.902 42.018ZM22.9673 43.6473C22.936 44.3367 22.4033 44.7127 21.8707 44.6813L21.526 44.65L21.6513 42.488L21.996 42.5193C22.5287 42.5507 22.9987 42.958 22.9673 43.6473ZM3.72867 19.7087C4.66867 19.9907 5.452 19.646 5.734 18.6747C6.016 17.7347 5.48333 17.014 4.57467 16.7633C3.666 16.4813 2.85133 16.8573 2.60067 17.7973C2.28733 18.7373 2.82 19.458 3.72867 19.7087ZM3.07067 17.9227C3.25867 17.3273 3.88533 17.2333 4.418 17.39C4.982 17.5467 5.452 17.9227 5.264 18.5493C5.076 19.176 4.44933 19.2387 3.91667 19.082C3.35267 18.9253 2.88267 18.518 3.07067 17.9227ZM31.6937 40.0283L30.9103 40.4357L32.4143 43.2243L33.1977 42.817C34.0437 42.347 34.639 41.6577 34.0437 40.561C33.4483 39.4643 32.5397 39.5897 31.6937 40.0283ZM33.041 42.3313L32.7277 42.5193L31.6937 40.6393L32.007 40.4513C32.477 40.1693 33.1037 40.2947 33.417 40.89C33.793 41.4853 33.511 42.0493 33.041 42.3313ZM17.86 41.219L19.6773 41.689L19.552 42.159L18.3613 41.8457L18.142 42.629L19.2387 42.911L19.1133 43.381L18.0167 43.099L17.766 43.945L18.988 44.2583L18.8627 44.7283L17.0453 44.2583L17.86 41.219ZM35.485 40.6863L35.8297 41.219L35.297 41.5637L34.9523 41.031L35.485 40.6863ZM36.6757 36.2997L38.9003 38.5557L38.4617 38.9943L36.7383 37.2397L36.6443 37.929L36.143 37.8663L36.2997 36.6757L36.6757 36.2997ZM4.01067 28.858L2.66333 29.234L2.47533 28.6073L5.51467 27.73L5.98467 29.422L5.51467 29.5787L5.20133 28.482L4.44933 28.7013L4.73133 29.7353L4.26133 29.892L4.01067 28.858ZM44.18 29.6883C44.1173 29.939 43.992 30.1897 43.898 30.3777L43.3653 30.1897C43.4907 30.0643 43.6473 29.9077 43.6787 29.6257C43.7727 29.3123 43.7413 28.9363 43.334 28.811C42.958 28.6857 42.7073 28.999 42.582 29.3437C42.5193 29.5317 42.488 29.7197 42.488 29.9077L40.8587 29.4063L41.3913 27.6517L41.83 27.8083L41.4853 28.999L42.1433 29.2183C42.1433 29.1243 42.1747 29.0303 42.206 28.9363C42.3313 28.529 42.7073 28.0277 43.4907 28.247C44.0547 28.388 44.368 28.952 44.18 29.6883ZM3.41533 23.5627C2.31867 23.5 1.75467 22.7793 1.81733 21.7453C1.81733 21.526 1.88 21.2753 2.00533 21.0247L2.538 21.1187C2.38133 21.3693 2.31867 21.5573 2.31867 21.7767C2.28733 22.4347 2.75733 22.842 3.41533 22.9047C4.07333 22.936 4.57467 22.5913 4.606 21.9333C4.63733 21.6827 4.57467 21.4007 4.512 21.244H5.04467C5.076 21.4947 5.10733 21.714 5.10733 21.9647C5.04467 22.9673 4.48067 23.6567 3.41533 23.5627ZM7.03433 31.631C6.59567 30.7537 5.74967 30.5343 4.90367 30.9417C4.05767 31.349 3.65033 32.1637 4.089 33.041C4.52767 33.9183 5.405 34.1377 6.251 33.699C7.097 33.323 7.473 32.5397 7.03433 31.631ZM5.969 33.1663C5.46767 33.4483 4.841 33.4483 4.559 32.8843C4.277 32.3203 4.68433 31.8503 5.217 31.5683C5.71833 31.3177 6.345 31.2863 6.59567 31.8503C6.84633 32.4143 6.47033 32.9157 5.969 33.1663ZM42.2373 31.6623C41.7047 31.3803 41.2347 31.5057 40.9527 32.0383C40.8273 32.289 40.8273 32.477 40.9527 32.7277C40.5453 32.477 40.138 32.101 40.42 31.631C40.514 31.4117 40.6393 31.3177 40.7647 31.1923L40.3573 30.9103C40.1693 31.067 40.0753 31.2237 39.9813 31.443C39.5427 32.3517 40.2633 33.041 41.0153 33.3857C41.6733 33.699 42.394 33.8557 42.8327 33.1037C43.1147 32.4457 42.864 31.9443 42.2373 31.6623ZM42.3627 32.8843C42.206 33.1663 41.924 33.1663 41.642 33.041C41.36 32.8843 41.172 32.665 41.2973 32.383C41.454 32.101 41.736 32.101 42.018 32.2577C42.3 32.383 42.5193 32.6337 42.3627 32.8843ZM9.97967 36.143L8.38167 37.4277C7.72367 37.9603 7.12833 37.8037 6.627 37.1457C6.12567 36.519 6.09433 35.8923 6.78367 35.391L8.38167 34.1377L8.75767 34.639L7.34767 35.767C6.94033 36.0803 6.75233 36.4563 7.06567 36.8323C7.34767 37.2083 7.755 37.1143 8.16233 36.801L9.57233 35.6417L9.97967 36.143ZM14.9617 39.9657L14.1783 39.5897L12.7683 42.441L13.5517 42.817C14.3977 43.2557 15.3377 43.3497 15.9017 42.2217C16.4343 41.0937 15.8077 40.4357 14.9617 39.9657ZM15.275 41.924C14.9617 42.5507 14.335 42.676 13.865 42.4253L13.5517 42.2687L14.523 40.326L14.8363 40.4827C15.3063 40.7177 15.5883 41.2973 15.275 41.924ZM12.9877 38.8377L10.9823 41.2817L10.387 40.8117L10.951 38.211L9.447 40.0597L8.977 39.6837L10.9823 37.2397L11.5777 37.741L11.0137 40.3417L12.5177 38.493L12.9877 38.8377Z" fill="#C03641"/>
</svg>
