<svg width="11" height="6" viewBox="0 0 11 6" fill="none" xmlns="http://www.w3.org/2000/svg">
<path d="M0 0.136886C0.961397 -1.18996e-05 1.92383 0 2.8873 0C3.0242 0.136898 3.16214 0 3.43801 0C5.77564 0 8.11121 0 10.4488 0C10.5857 0 10.7237 0 10.9995 0C10.8626 0.274833 10.7237 0.274836 10.5878 0.411734C9.90019 0.823465 9.21157 1.0983 8.52501 1.51211C7.28774 2.19971 5.91253 2.88833 4.67527 3.43696C3.71283 3.98663 2.7504 4.39837 1.9259 4.94907C1.789 5.08493 1.51416 5.22389 1.37519 5.22389C1.51209 4.67318 1.65003 4.12352 1.9259 3.57489C2.20073 2.61246 2.61246 1.65106 2.8873 0.686551C2.8873 0.55069 2.88729 0.550706 3.02418 0.411734C3.02418 0.274836 3.0242 0.136886 2.74937 0.136886C2.4735 0.136886 2.06176 0.136886 1.78692 0.136886C1.10036 0.136886 0.549666 0.136886 0 0.136886Z" fill="#893E47"/>
</svg>
