<svg width="5" height="7" viewBox="0 0 5 7" fill="none" xmlns="http://www.w3.org/2000/svg">
<path d="M1.18438 6.62892C0.806092 6.43188 0.513159 6.15579 0.307685 5.8028C0.10221 5.44769 0 5.03885 0 4.57416V2.34029C0 1.87666 0.10221 1.46782 0.307685 1.11272C0.513159 0.757621 0.806092 0.483656 1.18438 0.290826C1.56266 0.0969428 2.00312 0 2.50469 0C3.0052 0 3.43406 0.09272 3.80918 0.276066C4.18536 0.460466 4.47724 0.721791 4.68588 1.06003C4.89557 1.39828 4.99883 1.79026 4.99883 2.23387C4.99883 2.29182 4.95984 2.32765 4.88292 2.34029L3.75544 2.40773H3.73648C3.6722 2.40773 3.64059 2.3719 3.64059 2.3013C3.64059 1.96095 3.53522 1.68593 3.32764 1.47941C3.11795 1.27393 2.84504 1.17067 2.50469 1.17067C2.16434 1.17067 1.87983 1.27393 1.67014 1.47941C1.46151 1.68593 1.35824 1.96095 1.35824 2.3013V4.63213C1.35824 4.96826 1.46256 5.23906 1.67014 5.44454C1.87983 5.65001 2.15801 5.75433 2.50469 5.75433C2.85136 5.75433 3.12005 5.65001 3.32764 5.44454C3.53733 5.23906 3.64059 4.96826 3.64059 4.63213C3.64059 4.56153 3.67852 4.5257 3.75544 4.5257L4.88292 4.57416C4.91453 4.57416 4.94193 4.58365 4.96511 4.60367C4.98724 4.62263 4.99988 4.64477 4.99988 4.67112C4.99988 5.11578 4.89556 5.50988 4.68798 5.85023C4.47829 6.19163 4.18641 6.45716 3.81129 6.64366C3.43511 6.83017 2.99993 6.92396 2.50574 6.92396C2.01155 6.92396 1.56477 6.82596 1.18649 6.62892H1.18438Z" fill="white"/>
</svg>
