<svg width="10" height="13" viewBox="0 0 10 13" fill="none" xmlns="http://www.w3.org/2000/svg">
<path d="M0.675932 2.70273C0.675932 2.56816 0.675932 2.43258 0.675932 2.43258C0.946103 1.75664 1.21629 1.07968 1.35087 0.270186C1.35087 0.13561 1.48545 0 1.75562 0C4.45835 0 7.16109 0 10.0004 0C10.0004 0.134576 10.0004 0.27017 9.86584 0.540341C9.59567 1.21628 9.46111 1.75664 9.19093 2.43258C9.19093 2.56613 9.05636 2.70273 8.78618 2.70273C8.11025 2.70273 7.43328 2.70273 6.75836 2.70273C6.35361 2.70273 6.3536 2.70274 6.21699 3.10748C5.2719 5.94683 4.32579 8.91974 3.37867 11.7571C3.24409 12.2974 3.37867 12.2974 2.70273 12.2974C1.75764 12.2974 0.946109 12.2974 0 12.2974C1.0817 9.18991 2.02782 6.0804 3.10748 2.83733C2.29799 2.70275 1.48747 2.70273 0.675932 2.70273Z" fill="#0E2E46"/>
</svg>
