<svg width="56" height="56" viewBox="0 0 56 56" fill="none" xmlns="http://www.w3.org/2000/svg">
<g clip-path="url(#clip0_4_15706)">
<g clip-path="url(#clip1_4_15706)">
<g clip-path="url(#clip2_4_15706)">
<path d="M0 9.33333C0 4.17867 4.17867 0 9.33333 0H46.6667C51.8214 0 56 4.17867 56 9.33333V46.6667C56 51.8214 51.8214 56 46.6667 56H9.33333C4.17867 56 0 51.8214 0 46.6667V9.33333Z" fill="white"/>
<path fill-rule="evenodd" clip-rule="evenodd" d="M10.4155 27.0413C10.4155 27.0413 11.2319 26.9024 11.5683 27.265C11.905 27.6273 11.6844 28.3771 11.2376 28.3895C10.7908 28.4019 10.3778 28.487 10.0846 28.166C9.79144 27.8449 9.87016 27.1997 10.4155 27.0413ZM19.2778 32.1581C19.1992 32.1666 19.116 32.1294 19.0307 32.0666C18.4454 31.2254 18.234 28.3489 17.9653 28.1775C17.6867 28 16.6778 29.7713 14.6709 29.5809C13.8317 29.5012 12.9777 28.9405 12.4747 28.5521C12.5215 27.8986 12.5297 26.3723 13.7795 26.8686C14.5389 27.1701 15.8392 27.9979 16.9811 26.5113C18.2437 24.8672 18.94 25.3449 19.3577 25.7022C19.7751 26.0596 19.497 27.9182 20.1198 27.3985C20.7425 26.879 23.2573 23.653 23.2573 23.653C23.2573 23.653 25.2042 21.6281 25.5023 23.7568C25.8006 25.8854 27.07 28.2444 27.4063 28.1772C27.743 28.1099 31.6592 19.9014 32.2202 19.3719C32.7811 18.8422 34.6694 18.9117 34.5797 20.2703C34.4898 21.6289 34.2976 30.0732 34.2976 30.0732C34.2976 30.0732 34.076 32.4528 34.4369 31.181C34.5866 30.6538 34.7472 30.1781 34.9482 29.6233C35.9147 26.4322 37.5611 20.9808 38.3815 18.1718C38.5701 17.4997 38.7325 16.9228 38.8585 16.4794L38.8589 16.4781C38.9079 16.2726 38.9565 16.1098 39.0054 15.9645C39.074 15.7264 39.1205 15.5689 39.1347 15.5274C39.1713 15.4224 39.2742 15.3422 39.4185 15.2834C39.5637 15.1891 39.7192 15.1842 39.8956 15.1796C40.3508 15.1375 40.9364 15.1987 41.463 15.3534C41.6163 15.3597 41.7831 15.4103 41.9409 15.5271C41.9409 15.5271 41.9503 15.5333 41.9636 15.5422C41.9672 15.5451 41.971 15.5471 41.9747 15.5501C42.0077 15.5738 42.0612 15.6203 42.1229 15.6971C42.1247 15.6996 42.1267 15.7026 42.1288 15.7048C42.1544 15.7371 42.1802 15.7754 42.2064 15.819C42.5004 16.2639 42.6811 17.0839 42.5001 18.5384C42.0486 22.1676 41.6989 29.6336 41.6989 29.6336C41.6989 29.6336 41.6294 29.9908 42.3548 28.4183C42.3802 28.3636 42.4126 28.3164 42.4422 28.2661C42.4815 28.2395 42.5254 28.2012 42.5799 28.1337C43.028 27.5825 44.2327 27.259 45.0681 27.2655C45.4202 27.3094 45.715 27.4008 45.8912 27.5156C46.2209 28.0331 46.0263 29.943 46.0263 29.943C45.3313 30.0093 44.0066 30.395 43.5369 30.4661C43.0672 30.5378 42.3538 33.6829 41.3621 33.3613C40.3703 33.0396 38.1604 31.61 38.1604 31.4135C38.1604 31.2422 38.3341 29.153 38.3794 28.6137C38.3827 28.5764 38.3853 28.5419 38.388 28.5075C38.3891 28.4975 38.39 28.4859 38.39 28.4859C38.422 28.0612 38.3934 27.8762 38.2032 28.3001C38.0394 28.6647 37.3275 30.9977 36.5338 33.5386C36.45 33.7606 34.9497 38.4428 34.7528 39.0136C34.5178 39.6757 34.3202 40.1826 34.1838 40.4448C33.9762 40.7351 33.6965 40.9167 33.3059 40.7948C32.3316 40.4912 31.0976 39.1027 31.0862 38.7581C31.0628 36.8152 31.1778 26.3679 30.7209 27.2385C30.2522 28.1312 26.607 34.3261 26.607 34.3261C26.546 34.3369 26.5009 34.335 26.4471 34.34C26.189 34.3109 25.7891 34.2244 25.6785 33.9696C25.6724 33.9546 25.6644 33.941 25.659 33.9252C25.6537 33.9095 25.6478 33.8916 25.6387 33.8628C25.5892 33.6922 25.5689 33.5071 25.5253 33.3554C25.3622 32.7878 25.1012 31.9746 24.8275 31.147C24.408 29.7362 23.9754 28.293 23.9042 28.1337C23.7651 27.8219 23.5624 27.9533 23.3805 28.1334C22.567 28.8451 20.8387 31.9863 19.2778 32.1581Z" fill="#FFA202"/>
<path d="M9.33331 1.16671H46.6666V-1.16663H9.33331V1.16671ZM54.8333 9.33337V46.6667H57.1666V9.33337H54.8333ZM46.6666 54.8334H9.33331V57.1667H46.6666V54.8334ZM1.16665 46.6667V9.33337H-1.16669V46.6667H1.16665ZM9.33331 54.8334C4.82299 54.8334 1.16665 51.177 1.16665 46.6667H-1.16669C-1.16669 52.4657 3.53433 57.1667 9.33331 57.1667V54.8334ZM54.8333 46.6667C54.8333 51.177 51.177 54.8334 46.6666 54.8334V57.1667C52.4657 57.1667 57.1666 52.4657 57.1666 46.6667H54.8333ZM46.6666 1.16671C51.177 1.16671 54.8333 4.82305 54.8333 9.33337H57.1666C57.1666 3.53439 52.4657 -1.16663 46.6666 -1.16663V1.16671ZM9.33331 -1.16663C3.53433 -1.16663 -1.16669 3.53439 -1.16669 9.33337H1.16665C1.16665 4.82305 4.82299 1.16671 9.33331 1.16671V-1.16663Z" fill="#EBEEF1"/>
</g>
</g>
</g>
<defs>
<clipPath id="clip0_4_15706">
<rect width="56" height="56" rx="10" fill="white"/>
</clipPath>
<clipPath id="clip1_4_15706">
<rect width="56" height="56" fill="white"/>
</clipPath>
<clipPath id="clip2_4_15706">
<rect width="56" height="56" fill="white"/>
</clipPath>
</defs>
</svg>
