<svg width="8" height="12" viewBox="0 0 8 12" fill="none" xmlns="http://www.w3.org/2000/svg">
<path d="M7.19742 0C6.13027 3.20043 5.06416 6.26608 4.13179 9.33374C5.46547 9.33374 6.66535 9.33374 7.86526 9.33374C7.86526 9.4655 7.86526 9.46551 7.86526 9.60029C7.59772 10.2661 7.33119 10.934 7.19843 11.7326C7.19843 11.8653 7.06667 12.0001 6.79913 12.0001C4.53207 12.0001 2.39981 12.0001 0.132753 12.0001C0.132753 12.0001 0.132764 12.0001 0 12.0001C0 11.8673 -1.15403e-05 11.7325 0.132753 11.6008C1.33266 7.86629 2.53258 4.26757 3.86625 0.533068C3.86625 0.401309 3.86624 0.401325 3.99901 0.266549C3.99901 0.133785 4.13179 0 4.26556 0C5.19692 0 6.13128 0 7.19742 0Z" fill="#0E2E46"/>
</svg>
