<svg width="5" height="7" viewBox="0 0 5 7" fill="none" xmlns="http://www.w3.org/2000/svg">
<path d="M4.80666 1.17139C4.78389 1.19427 4.75546 1.20734 4.72277 1.20734H1.45468C1.42199 1.20734 1.40489 1.22478 1.40489 1.25747V2.80695C1.40489 2.84073 1.42199 2.85708 1.45468 2.85708H3.59683C3.62962 2.85708 3.65807 2.86905 3.68084 2.89302C3.70361 2.91591 3.71636 2.94425 3.71636 2.97694V3.94781C3.71636 3.9805 3.70503 4.00883 3.68084 4.0328C3.65665 4.05787 3.62962 4.06877 3.59683 4.06877H1.45468C1.42199 4.06877 1.40489 4.08619 1.40489 4.11888V5.73919C1.40489 5.77188 1.42199 5.78932 1.45468 5.78932H4.72277C4.75546 5.78932 4.78389 5.80022 4.80666 5.82419C4.82944 5.84707 4.8423 5.8765 4.8423 5.91028V6.88007C4.8423 6.91276 4.83085 6.94217 4.80666 6.96505C4.78247 6.98793 4.75546 6.99993 4.72277 6.99993H0.119638C0.0868394 6.99993 0.0584049 6.98902 0.0356312 6.96505C0.0128574 6.94217 0 6.91276 0 6.88007V0.119862C0 0.0871728 0.0114409 0.0588464 0.0356312 0.0359637C0.0584049 0.013081 0.0868394 0 0.119638 0H4.72277C4.75546 0 4.78389 0.0119914 4.80666 0.0359637C4.82944 0.0588464 4.8423 0.0871728 4.8423 0.119862V1.09075C4.8423 1.12344 4.83085 1.15177 4.80666 1.17574V1.17139Z" fill="white"/>
</svg>
