<svg width="8" height="11" viewBox="0 0 8 11" fill="none" xmlns="http://www.w3.org/2000/svg">
<path d="M7.60118 5.53115C7.60118 6.52398 7.60117 7.37558 7.31765 8.36734C7.17643 8.65085 7.03307 9.07667 6.89292 9.36018C6.7517 9.64369 6.46712 10.0684 6.18361 10.2118C4.48253 11.6304 1.64422 11.0634 0.65246 9.07665C0.368948 8.36734 0.0843592 7.65697 0.0843592 6.94872C-0.056862 5.52902 -0.0568714 4.11252 0.368932 2.55267C0.368932 2.41145 0.509096 2.26807 0.509096 2.12685C1.07719 0.851581 2.06895 0.142291 3.48865 0C3.91339 0 4.4804 -1.22754e-05 4.90727 0.141209C5.9001 0.424721 6.60836 0.991735 7.03524 1.8412C7.45997 2.69281 7.60332 3.54229 7.74347 4.3939C7.60118 4.5394 7.60118 5.10641 7.60118 5.53115Z" fill="white"/>
</svg>
