<svg width="54" height="54" viewBox="0 0 54 54" fill="none" xmlns="http://www.w3.org/2000/svg">
<g clip-path="url(#clip0_2_8968)">
<path d="M54 0H0V54H54V0Z" fill="black"/>
<path d="M47.9186 3.74414H6.18684C5.76975 3.74414 5.43164 4.08225 5.43164 4.49934V34.2077C5.43164 34.6248 5.76975 34.9629 6.18684 34.9629H47.9186C48.3357 34.9629 48.6738 34.6248 48.6738 34.2077V4.49934C48.6738 4.08225 48.3357 3.74414 47.9186 3.74414Z" stroke="#1473E6" stroke-width="0.316406" stroke-dasharray="1.69 1.69"/>
<path d="M46.2311 15.3984H7.87434C7.36988 15.3984 6.96094 15.8074 6.96094 16.3118V22.6061C6.96094 23.1106 7.36988 23.5195 7.87434 23.5195H46.2311C46.7356 23.5195 47.1445 23.1106 47.1445 22.6061V16.3118C47.1445 15.8074 46.7356 15.3984 46.2311 15.3984Z" fill="#2F3857"/>
<path d="M46.2311 5.58984H7.87434C7.36988 5.58984 6.96094 5.99879 6.96094 6.50324V12.7975C6.96094 13.302 7.36988 13.7109 7.87434 13.7109H46.2311C46.7356 13.7109 47.1445 13.302 47.1445 12.7975V6.50324C47.1445 5.99879 46.7356 5.58984 46.2311 5.58984Z" fill="#2F3857"/>
<path d="M46.2311 25.207H7.87434C7.36988 25.207 6.96094 25.616 6.96094 26.1204V32.4147C6.96094 32.9192 7.36988 33.3281 7.87434 33.3281H46.2311C46.7356 33.3281 47.1445 32.9192 47.1445 32.4147V26.1204C47.1445 25.616 46.7356 25.207 46.2311 25.207Z" fill="#2F3857"/>
<path d="M19.1257 37.2305H7.87434C7.36988 37.2305 6.96094 37.6394 6.96094 38.1439V46.0202C6.96094 46.5247 7.36988 46.9336 7.87434 46.9336H19.1257C19.6301 46.9336 20.0391 46.5247 20.0391 46.0202V38.1439C20.0391 37.6394 19.6301 37.2305 19.1257 37.2305Z" fill="url(#paint0_linear_2_8968)"/>
<path d="M16.0312 40.8691H10.8633C10.6012 40.8691 10.3887 41.0816 10.3887 41.3438V44.5078C10.3887 44.7699 10.6012 44.9824 10.8633 44.9824H16.0312C16.2934 44.9824 16.5059 44.7699 16.5059 44.5078V41.3438C16.5059 41.0816 16.2934 40.8691 16.0312 40.8691Z" fill="white" fill-opacity="0.17" stroke="white" stroke-width="0.105469" stroke-dasharray="0.42 0.42"/>
<path d="M15.5039 39.2344H11.3906C11.2741 39.2344 11.1797 39.3288 11.1797 39.4453V40.2891C11.1797 40.4056 11.2741 40.5 11.3906 40.5H15.5039C15.6204 40.5 15.7148 40.4056 15.7148 40.2891V39.4453C15.7148 39.3288 15.6204 39.2344 15.5039 39.2344Z" fill="white"/>
<path d="M15.5039 41.4492H11.3906C11.2741 41.4492 11.1797 41.5437 11.1797 41.6602V42.3984C11.1797 42.5149 11.2741 42.6094 11.3906 42.6094H15.5039C15.6204 42.6094 15.7148 42.5149 15.7148 42.3984V41.6602C15.7148 41.5437 15.6204 41.4492 15.5039 41.4492Z" fill="white"/>
<path d="M15.5039 42.9258H11.3906C11.2741 42.9258 11.1797 43.0202 11.1797 43.1367V43.9805C11.1797 44.097 11.2741 44.1914 11.3906 44.1914H15.5039C15.6204 44.1914 15.7148 44.097 15.7148 43.9805V43.1367C15.7148 43.0202 15.6204 42.9258 15.5039 42.9258Z" fill="white"/>
<path d="M46.3366 37.2305H35.0853C34.5808 37.2305 34.1719 37.6394 34.1719 38.1439V46.0202C34.1719 46.5247 34.5808 46.9336 35.0853 46.9336H46.3366C46.8411 46.9336 47.25 46.5247 47.25 46.0202V38.1439C47.25 37.6394 46.8411 37.2305 46.3366 37.2305Z" fill="url(#paint1_linear_2_8968)"/>
<mask id="mask0_2_8968" style="mask-type:alpha" maskUnits="userSpaceOnUse" x="37" y="39" width="7" height="6">
<path d="M43.5586 39.2344H37.8633V44.9297H43.5586V39.2344Z" fill="#D9D9D9"/>
</mask>
<g mask="url(#mask0_2_8968)">
<path d="M39.5244 44.2178C39.3938 44.2178 39.2822 44.1714 39.1893 44.0784C39.0963 43.9854 39.0498 43.8736 39.0498 43.7432V40.6582H38.8125V40.1836H39.999V39.9463H41.4229V40.1836H42.6094V40.6582H42.3721V43.7432C42.3721 43.8736 42.3257 43.9854 42.2327 44.0784C42.1397 44.1714 42.0279 44.2178 41.8975 44.2178H39.5244ZM41.8975 40.6582H39.5244V43.7432H41.8975V40.6582ZM39.999 43.2686H40.4736V41.1328H39.999V43.2686ZM40.9482 43.2686H41.4229V41.1328H40.9482V43.2686Z" fill="white"/>
</g>
<path d="M42.273 45.3069C42.2533 45.1371 42.4333 45.0156 42.5835 45.0974L46.653 47.3154C46.827 47.4103 46.7861 47.671 46.5913 47.7079L44.3804 48.1266C44.3213 48.1378 44.2698 48.1736 44.2388 48.2252L43.1937 49.966C43.0901 50.1386 42.8266 50.0818 42.8034 49.8817L42.273 45.3069Z" fill="#1473E6"/>
<path d="M32.7311 37.2305H21.4798C20.9753 37.2305 20.5664 37.6394 20.5664 38.1439V46.0202C20.5664 46.5247 20.9753 46.9336 21.4798 46.9336H32.7311C33.2356 46.9336 33.6445 46.5247 33.6445 46.0202V38.1439C33.6445 37.6394 33.2356 37.2305 32.7311 37.2305Z" fill="url(#paint2_linear_2_8968)"/>
<path d="M29.1094 39.0762H24.9961C24.4427 39.0762 23.9941 39.5248 23.9941 40.0781V44.1914C23.9941 44.7448 24.4427 45.1934 24.9961 45.1934H29.1094C29.6627 45.1934 30.1113 44.7448 30.1113 44.1914V40.0781C30.1113 39.5248 29.6627 39.0762 29.1094 39.0762Z" fill="white" fill-opacity="0.17" stroke="white" stroke-width="0.105469" stroke-dasharray="0.42 0.42"/>
<path d="M29.1094 40.0781H24.9961C24.8796 40.0781 24.7852 40.1726 24.7852 40.2891V41.1328C24.7852 41.2493 24.8796 41.3438 24.9961 41.3438H29.1094C29.2259 41.3438 29.3203 41.2493 29.3203 41.1328V40.2891C29.3203 40.1726 29.2259 40.0781 29.1094 40.0781Z" fill="white"/>
<path d="M29.1094 41.6602H24.9961C24.8796 41.6602 24.7852 41.7546 24.7852 41.8711V42.6094C24.7852 42.7259 24.8796 42.8203 24.9961 42.8203H29.1094C29.2259 42.8203 29.3203 42.7259 29.3203 42.6094V41.8711C29.3203 41.7546 29.2259 41.6602 29.1094 41.6602Z" fill="white"/>
<path d="M29.1094 43.1367H24.9961C24.8796 43.1367 24.7852 43.2312 24.7852 43.3477V44.1914C24.7852 44.3079 24.8796 44.4023 24.9961 44.4023H29.1094C29.2259 44.4023 29.3203 44.3079 29.3203 44.1914V43.3477C29.3203 43.2312 29.2259 43.1367 29.1094 43.1367Z" fill="white"/>
</g>
<defs>
<linearGradient id="paint0_linear_2_8968" x1="13.5" y1="37.2305" x2="13.5" y2="46.9336" gradientUnits="userSpaceOnUse">
<stop stop-color="#E55ADA"/>
<stop offset="1" stop-color="#FA140F"/>
</linearGradient>
<linearGradient id="paint1_linear_2_8968" x1="40.7109" y1="37.2305" x2="40.7109" y2="46.9336" gradientUnits="userSpaceOnUse">
<stop stop-color="#E55ADA"/>
<stop offset="1" stop-color="#FA140F"/>
</linearGradient>
<linearGradient id="paint2_linear_2_8968" x1="27.1055" y1="37.2305" x2="27.1055" y2="46.9336" gradientUnits="userSpaceOnUse">
<stop stop-color="#E55ADA"/>
<stop offset="1" stop-color="#FA140F"/>
</linearGradient>
<clipPath id="clip0_2_8968">
<rect width="54" height="54" fill="white"/>
</clipPath>
</defs>
</svg>
