<svg width="8" height="11" viewBox="0 0 8 11" fill="none" xmlns="http://www.w3.org/2000/svg">
<path d="M0 1.75665C1.5446 0.213103 3.36868 -0.34906 5.47438 0.213095C6.59763 0.493643 7.29848 1.19451 7.57903 2.45751C7.71877 3.30021 7.57903 4.28158 7.01793 4.98348C6.73738 5.40377 6.45577 5.82618 6.03547 6.24647C5.47438 6.80756 4.77249 7.36972 4.21139 7.92975C4.07165 8.06844 3.93083 8.06844 3.93083 8.35005C4.06951 8.35005 4.21138 8.35005 4.49192 8.35005C5.47437 8.35005 6.59764 8.35005 7.57903 8.35005C7.86063 8.35005 7.86061 8.35005 8.00036 8.77035C8.00036 9.33144 8.00036 9.89359 8.00036 10.4536C8.00036 10.8739 7.99931 10.8739 7.71876 10.8739C5.33251 10.8739 3.08814 10.8739 0.701893 10.8739C0.281601 10.8739 0.281597 10.8739 0.281597 10.4536C0.281597 10.172 0.281597 9.89149 0.281597 9.61094C0.141853 9.04878 0.420282 8.76824 0.842692 8.34795C1.82514 7.3655 2.94838 6.3841 3.93083 5.26085C4.21138 4.97924 4.49194 4.69871 4.63169 4.27842C4.77143 4.13868 4.91222 3.85812 4.91222 3.71626C5.05196 2.87462 4.63167 2.31244 3.78896 2.45431C3.36867 2.45431 3.08812 2.593 2.66571 2.8746C2.38516 3.01329 2.24543 3.15515 1.96488 3.4357C1.82514 3.57544 1.68326 3.57544 1.54352 3.4357C0.842678 2.73803 0.420293 2.31668 0 1.75665Z" fill="white"/>
</svg>
