<svg width="190" height="95" viewBox="0 0 190 95" fill="none" xmlns="http://www.w3.org/2000/svg">
<g clip-path="url(#clip0_4_10811)">
<g filter="url(#filter0_dd_4_10811)">
<path d="M123.668 20.1951H177.499C180.022 20.1951 182.071 22.7622 182.071 25.9241V62.6611C182.071 65.823 180.022 68.3902 177.499 68.3902H123.668C121.144 68.3902 119.096 65.823 119.096 62.6611V25.9241C119.096 22.7622 121.144 20.1951 123.668 20.1951Z" fill="white"/>
</g>
<path d="M128.26 25.7411C128.26 26.6674 127.496 27.4317 126.57 27.4317C125.643 27.4317 124.879 26.6674 124.879 25.7411C124.879 24.8148 125.643 24.0505 126.57 24.0505C127.496 24.0505 128.26 24.8148 128.26 25.7411Z" fill="#F66058"/>
<path d="M135.023 25.7411C135.023 26.6674 134.259 27.4317 133.332 27.4317C132.406 27.4317 131.642 26.6674 131.642 25.7411C131.642 24.8148 132.406 24.0505 133.332 24.0505C134.282 24.0505 135.023 24.8148 135.023 25.7411Z" fill="#F9BD2E"/>
<path d="M141.785 25.7411C141.785 26.6674 141.021 27.4317 140.095 27.4317C139.168 27.4317 138.404 26.6674 138.404 25.7411C138.404 24.8148 139.168 24.0505 140.095 24.0505C141.021 24.0505 141.785 24.8148 141.785 25.7411Z" fill="#3CC840"/>
<path d="M126.165 35.8091C126.165 34.2837 127.401 33.0471 128.927 33.0471H171.598C173.123 33.0471 174.36 34.2837 174.36 35.8091V58.5902C174.36 60.1156 173.123 61.3522 171.598 61.3522H128.927C127.401 61.3522 126.165 60.1156 126.165 58.5902V35.8091Z" fill="#E7EEFF"/>
<path d="M156.919 46.8571L146.561 52.8369V40.8772L156.919 46.8571Z" fill="#C6DBFF"/>
<g filter="url(#filter1_dd_4_10811)">
<path d="M12.448 20.1951H66.2789C68.8022 20.1951 70.8509 22.7622 70.8509 25.9241V62.6611C70.8509 65.823 68.8022 68.3902 66.2789 68.3902H12.448C9.9247 68.3902 7.87598 65.823 7.87598 62.6611V25.9241C7.87598 22.7622 9.9247 20.1951 12.448 20.1951Z" fill="white"/>
</g>
<path d="M17.0408 25.7411C17.0408 26.6674 16.2766 27.4317 15.3502 27.4317C14.4239 27.4317 13.6597 26.6674 13.6597 25.7411C13.6597 24.8148 14.4239 24.0505 15.3502 24.0505C16.2766 24.0505 17.0408 24.8148 17.0408 25.7411Z" fill="#F66058"/>
<path d="M23.8031 25.7411C23.8031 26.6674 23.0388 27.4317 22.1125 27.4317C21.1861 27.4317 20.4219 26.6674 20.4219 25.7411C20.4219 24.8148 21.1861 24.0505 22.1125 24.0505C23.062 24.0505 23.8031 24.8148 23.8031 25.7411Z" fill="#F9BD2E"/>
<path d="M30.5658 25.7411C30.5658 26.6674 29.8015 27.4317 28.8752 27.4317C27.9488 27.4317 27.1846 26.6674 27.1846 25.7411C27.1846 24.8148 27.9488 24.0505 28.8752 24.0505C29.8015 24.0505 30.5658 24.8148 30.5658 25.7411Z" fill="#3CC840"/>
<path d="M14.9453 35.8091C14.9453 34.2837 16.1818 33.0471 17.7072 33.0471H60.3784C61.9038 33.0471 63.1404 34.2837 63.1404 35.8091V58.5902C63.1404 60.1156 61.9038 61.3522 60.3784 61.3522H17.7072C16.1819 61.3522 14.9453 60.1156 14.9453 58.5902V35.8091Z" fill="#E7EEFF"/>
<path d="M45.6997 46.8571L35.3423 52.8369V40.8772L45.6997 46.8571Z" fill="#9FC0FF"/>
<g filter="url(#filter2_dd_4_10811)">
<path d="M55.251 10H132.891C136.531 10 139.486 13.7027 139.486 18.2631V71.2491C139.486 75.8095 136.531 79.5122 132.891 79.5122H55.251C51.6116 79.5122 48.6567 75.8095 48.6567 71.2491V18.2631C48.6567 13.7027 51.6116 10 55.251 10Z" fill="white"/>
</g>
<path d="M61.8742 17.9994C61.8742 19.3354 60.772 20.4377 59.4359 20.4377C58.0999 20.4377 56.9976 19.3354 56.9976 17.9994C56.9976 16.6633 58.0999 15.561 59.4359 15.561C60.772 15.561 61.8742 16.6633 61.8742 17.9994Z" fill="#F66058"/>
<path d="M71.6277 17.9994C71.6277 19.3354 70.5254 20.4377 69.1893 20.4377C67.8533 20.4377 66.751 19.3354 66.751 17.9994C66.751 16.6633 67.8533 15.561 69.1893 15.561C70.5588 15.561 71.6277 16.6633 71.6277 17.9994Z" fill="#F9BD2E"/>
<path d="M81.3811 17.9994C81.3811 19.3354 80.2788 20.4377 78.9428 20.4377C77.6067 20.4377 76.5044 19.3354 76.5044 17.9994C76.5044 16.6633 77.6067 15.561 78.9428 15.561C80.2788 15.561 81.3811 16.6633 81.3811 17.9994Z" fill="#3CC840"/>
<path d="M58.8516 32.5202C58.8516 30.3201 60.6351 28.5366 62.8352 28.5366H124.38C126.58 28.5366 128.364 30.3201 128.364 32.5202V65.3776C128.364 67.5777 126.58 69.3612 124.38 69.3612H62.8352C60.6351 69.3612 58.8516 67.5777 58.8516 65.3776V32.5202Z" fill="#C6DBFF"/>
<path d="M103.209 48.4549L88.27 57.0797V39.8301L103.209 48.4549Z" fill="#76A5FF"/>
<g filter="url(#filter3_dd_4_10811)">
<path d="M45.6987 58.1951H63.8163C66.207 58.1951 68.145 60.1331 68.145 62.5238V81.6712C68.145 84.0619 66.207 86 63.8163 86H45.6987C43.308 86 41.3699 84.0619 41.3699 81.6712V62.5238C41.3699 60.1331 43.308 58.1951 45.6987 58.1951Z" fill="white"/>
</g>
<path d="M73.0184 63.8443L67.638 70.7986L59.6738 64.5134L73.0184 63.8443Z" fill="white"/>
<path d="M56.8943 78.917H52.9499C52.6446 78.917 52.397 79.1645 52.397 79.4699C52.397 79.7753 52.6446 80.0233 52.9499 80.0233H56.8943C57.1997 80.0233 57.4477 79.7758 57.4477 79.4699C57.4477 79.164 57.1997 78.917 56.8943 78.917Z" fill="#9FC0FF"/>
<path d="M53.9061 82.1412C53.9811 82.6377 54.4051 83.0201 54.9232 83.0201C55.4413 83.0201 55.8653 82.6377 55.9403 82.1412C56.6172 82.1015 57.1554 81.5446 57.1554 80.8579H52.688C52.688 81.5456 53.2277 82.1025 53.9061 82.1412Z" fill="#9FC0FF"/>
<path d="M54.9233 63.9771C55.3311 63.9771 55.661 63.6468 55.661 63.2394V61.5238C55.661 61.1165 55.3311 60.7861 54.9233 60.7861C54.5154 60.7861 54.186 61.1165 54.186 61.5238V63.2399C54.186 63.6473 54.5159 63.9771 54.9233 63.9771Z" fill="#FECE4D"/>
<path d="M50.0825 65.0525C50.2271 65.2515 50.4521 65.3569 50.6805 65.3569C50.8305 65.3569 50.982 65.3113 51.1133 65.2162C51.4427 64.977 51.5162 64.5157 51.277 64.1863L50.2688 62.7977C50.0291 62.4683 49.5688 62.3943 49.2384 62.634C48.909 62.8732 48.8355 63.3344 49.0747 63.6638L50.0825 65.0525Z" fill="#FECE4D"/>
<path d="M48.287 67.5262L46.6547 66.9953C46.2635 66.8693 45.8513 67.0816 45.7248 67.4688C45.5989 67.856 45.8106 68.2722 46.1979 68.3982L47.8301 68.929C47.9066 68.9535 47.9826 68.9653 48.0581 68.9653C48.3693 68.9653 48.658 68.7673 48.7595 68.455C48.8855 68.0678 48.6742 67.6521 48.287 67.5262Z" fill="#FECE4D"/>
<path d="M61.7885 68.9656C61.864 68.9656 61.9405 68.9538 62.016 68.9293L63.6482 68.399C64.036 68.273 64.2482 67.8568 64.1222 67.4696C63.9963 67.0824 63.5781 66.8706 63.1929 66.9961L61.5606 67.5265C61.1734 67.6524 60.9606 68.0686 61.0866 68.4558C61.1881 68.7676 61.4778 68.9656 61.7885 68.9656Z" fill="#FECE4D"/>
<path d="M59.5776 62.7969L58.5693 64.1856C58.3301 64.515 58.4036 64.9762 58.733 65.2154C58.8639 65.3105 59.0158 65.3561 59.1658 65.3561C59.3943 65.3561 59.6192 65.2507 59.7638 65.0517L60.7721 63.663C61.0113 63.3337 60.9378 62.8719 60.6084 62.6332C60.277 62.3925 59.8173 62.4665 59.5776 62.7969Z" fill="#FECE4D"/>
<path d="M54.9219 65.157C51.979 65.157 49.5933 67.5426 49.5933 70.4851C49.5933 71.7267 50.0202 72.8669 50.7339 73.7717C51.3589 74.5648 51.9505 75.4305 52.4637 76.3015V78.0715H57.3503V76.3486C57.8586 75.501 58.5154 74.5256 59.109 73.7722C59.8232 72.8674 60.2501 71.7277 60.2501 70.4851C60.2501 67.5426 57.8644 65.157 54.9219 65.157Z" fill="#FECE4D"/>
<g filter="url(#filter4_dd_4_10811)">
<path d="M144.683 12.7805H127.771C125.539 12.7805 123.73 14.5896 123.73 16.8213V34.6948C123.73 36.9264 125.539 38.7355 127.771 38.7355H144.683C146.915 38.7355 148.724 36.9264 148.724 34.6948V16.8213C148.724 14.5896 146.915 12.7805 144.683 12.7805Z" fill="white"/>
</g>
<path d="M126.175 25.756L126.297 33.9629L116.826 34.0124L126.175 25.756Z" fill="white"/>
<path d="M139.666 26.6565L138.077 27.9558L138.716 28.7362L140.304 27.4368L139.666 26.6565Z" fill="#C6DBFF"/>
<path d="M138.502 28.8862L140.481 27.2676L145.499 33.4032C145.946 33.9498 145.865 34.7552 145.318 35.2021C144.772 35.6491 143.967 35.5684 143.52 35.0218L138.502 28.8862Z" fill="#091B36"/>
<path d="M130.487 17.4923C129.492 18.3056 128.761 19.3955 128.386 20.6242C128.011 21.8529 128.009 23.1653 128.38 24.3952C128.751 25.6252 129.478 26.7176 130.469 27.5343C131.461 28.3509 132.673 28.8552 133.951 28.9833C135.229 29.1114 136.517 28.8576 137.651 28.254C138.785 27.6503 139.714 26.7239 140.322 25.592C140.929 24.4601 141.188 23.1734 141.064 21.8947C140.94 20.616 140.44 19.4028 139.627 18.4083C139.087 17.748 138.422 17.2006 137.67 16.7971C136.919 16.3937 136.095 16.1423 135.246 16.0573C134.398 15.9722 133.54 16.0552 132.724 16.3014C131.907 16.5476 131.147 16.9523 130.487 17.4923ZM137.805 26.4406C137.029 27.0752 136.083 27.4655 135.086 27.5622C134.088 27.659 133.085 27.4577 132.202 26.984C131.319 26.5103 130.596 25.7853 130.125 24.9008C129.654 24.0163 129.456 23.0121 129.556 22.015C129.656 21.018 130.049 20.073 130.686 19.2996C131.324 18.5261 132.176 17.959 133.135 17.6699C134.094 17.3809 135.118 17.3828 136.076 17.6755C137.035 17.9682 137.885 18.5385 138.519 19.3144C139.369 20.3542 139.771 21.689 139.637 23.0253C139.503 24.3616 138.844 25.59 137.805 26.4406Z" fill="#3D7FFC"/>
</g>
<defs>
<filter id="filter0_dd_4_10811" x="111.385" y="13.7691" width="78.3975" height="63.6176" filterUnits="userSpaceOnUse" color-interpolation-filters="sRGB">
<feFlood flood-opacity="0" result="BackgroundImageFix"/>
<feColorMatrix in="SourceAlpha" type="matrix" values="0 0 0 0 0 0 0 0 0 0 0 0 0 0 0 0 0 0 127 0" result="hardAlpha"/>
<feOffset dy="2.57041"/>
<feGaussianBlur stdDeviation="3.21301"/>
<feColorMatrix type="matrix" values="0 0 0 0 0.607843 0 0 0 0 0.67451 0 0 0 0 0.737255 0 0 0 0.35 0"/>
<feBlend mode="normal" in2="BackgroundImageFix" result="effect1_dropShadow_4_10811"/>
<feColorMatrix in="SourceAlpha" type="matrix" values="0 0 0 0 0 0 0 0 0 0 0 0 0 0 0 0 0 0 127 0" result="hardAlpha"/>
<feOffset dy="1.2852"/>
<feGaussianBlur stdDeviation="3.85561"/>
<feColorMatrix type="matrix" values="0 0 0 0 0.89625 0 0 0 0 0.930414 0 0 0 0 0.995833 0 0 0 0.5 0"/>
<feBlend mode="normal" in2="effect1_dropShadow_4_10811" result="effect2_dropShadow_4_10811"/>
<feBlend mode="normal" in="SourceGraphic" in2="effect2_dropShadow_4_10811" result="shape"/>
</filter>
<filter id="filter1_dd_4_10811" x="0.164757" y="13.7691" width="78.3975" height="63.6176" filterUnits="userSpaceOnUse" color-interpolation-filters="sRGB">
<feFlood flood-opacity="0" result="BackgroundImageFix"/>
<feColorMatrix in="SourceAlpha" type="matrix" values="0 0 0 0 0 0 0 0 0 0 0 0 0 0 0 0 0 0 127 0" result="hardAlpha"/>
<feOffset dy="2.57041"/>
<feGaussianBlur stdDeviation="3.21301"/>
<feColorMatrix type="matrix" values="0 0 0 0 0.607843 0 0 0 0 0.67451 0 0 0 0 0.737255 0 0 0 0.35 0"/>
<feBlend mode="normal" in2="BackgroundImageFix" result="effect1_dropShadow_4_10811"/>
<feColorMatrix in="SourceAlpha" type="matrix" values="0 0 0 0 0 0 0 0 0 0 0 0 0 0 0 0 0 0 127 0" result="hardAlpha"/>
<feOffset dy="1.2852"/>
<feGaussianBlur stdDeviation="3.85561"/>
<feColorMatrix type="matrix" values="0 0 0 0 0.89625 0 0 0 0 0.930414 0 0 0 0 0.995833 0 0 0 0.5 0"/>
<feBlend mode="normal" in2="effect1_dropShadow_4_10811" result="effect2_dropShadow_4_10811"/>
<feBlend mode="normal" in="SourceGraphic" in2="effect2_dropShadow_4_10811" result="shape"/>
</filter>
<filter id="filter2_dd_4_10811" x="37.5348" y="0.7317" width="113.074" height="91.7561" filterUnits="userSpaceOnUse" color-interpolation-filters="sRGB">
<feFlood flood-opacity="0" result="BackgroundImageFix"/>
<feColorMatrix in="SourceAlpha" type="matrix" values="0 0 0 0 0 0 0 0 0 0 0 0 0 0 0 0 0 0 127 0" result="hardAlpha"/>
<feOffset dy="3.70732"/>
<feGaussianBlur stdDeviation="4.63415"/>
<feColorMatrix type="matrix" values="0 0 0 0 0.607843 0 0 0 0 0.67451 0 0 0 0 0.737255 0 0 0 0.35 0"/>
<feBlend mode="normal" in2="BackgroundImageFix" result="effect1_dropShadow_4_10811"/>
<feColorMatrix in="SourceAlpha" type="matrix" values="0 0 0 0 0 0 0 0 0 0 0 0 0 0 0 0 0 0 127 0" result="hardAlpha"/>
<feOffset dy="1.85366"/>
<feGaussianBlur stdDeviation="5.56098"/>
<feColorMatrix type="matrix" values="0 0 0 0 0.89625 0 0 0 0 0.930414 0 0 0 0 0.995833 0 0 0 0.5 0"/>
<feBlend mode="normal" in2="effect1_dropShadow_4_10811" result="effect2_dropShadow_4_10811"/>
<feBlend mode="normal" in="SourceGraphic" in2="effect2_dropShadow_4_10811" result="shape"/>
</filter>
<filter id="filter3_dd_4_10811" x="33.9494" y="52.0111" width="41.6163" height="42.6463" filterUnits="userSpaceOnUse" color-interpolation-filters="sRGB">
<feFlood flood-opacity="0" result="BackgroundImageFix"/>
<feColorMatrix in="SourceAlpha" type="matrix" values="0 0 0 0 0 0 0 0 0 0 0 0 0 0 0 0 0 0 127 0" result="hardAlpha"/>
<feOffset dy="2.47356"/>
<feGaussianBlur stdDeviation="3.09195"/>
<feColorMatrix type="matrix" values="0 0 0 0 0.607843 0 0 0 0 0.67451 0 0 0 0 0.737255 0 0 0 0.35 0"/>
<feBlend mode="normal" in2="BackgroundImageFix" result="effect1_dropShadow_4_10811"/>
<feColorMatrix in="SourceAlpha" type="matrix" values="0 0 0 0 0 0 0 0 0 0 0 0 0 0 0 0 0 0 127 0" result="hardAlpha"/>
<feOffset dy="1.23678"/>
<feGaussianBlur stdDeviation="3.71035"/>
<feColorMatrix type="matrix" values="0 0 0 0 0.89625 0 0 0 0 0.930414 0 0 0 0 0.995833 0 0 0 0.5 0"/>
<feBlend mode="normal" in2="effect1_dropShadow_4_10811" result="effect2_dropShadow_4_10811"/>
<feBlend mode="normal" in="SourceGraphic" in2="effect2_dropShadow_4_10811" result="shape"/>
</filter>
<filter id="filter4_dd_4_10811" x="116.803" y="7.00802" width="38.8477" height="39.809" filterUnits="userSpaceOnUse" color-interpolation-filters="sRGB">
<feFlood flood-opacity="0" result="BackgroundImageFix"/>
<feColorMatrix in="SourceAlpha" type="matrix" values="0 0 0 0 0 0 0 0 0 0 0 0 0 0 0 0 0 0 127 0" result="hardAlpha"/>
<feOffset dy="2.309"/>
<feGaussianBlur stdDeviation="2.88625"/>
<feColorMatrix type="matrix" values="0 0 0 0 0.607843 0 0 0 0 0.67451 0 0 0 0 0.737255 0 0 0 0.35 0"/>
<feBlend mode="normal" in2="BackgroundImageFix" result="effect1_dropShadow_4_10811"/>
<feColorMatrix in="SourceAlpha" type="matrix" values="0 0 0 0 0 0 0 0 0 0 0 0 0 0 0 0 0 0 127 0" result="hardAlpha"/>
<feOffset dy="1.1545"/>
<feGaussianBlur stdDeviation="3.4635"/>
<feColorMatrix type="matrix" values="0 0 0 0 0.89625 0 0 0 0 0.930414 0 0 0 0 0.995833 0 0 0 0.5 0"/>
<feBlend mode="normal" in2="effect1_dropShadow_4_10811" result="effect2_dropShadow_4_10811"/>
<feBlend mode="normal" in="SourceGraphic" in2="effect2_dropShadow_4_10811" result="shape"/>
</filter>
<clipPath id="clip0_4_10811">
<rect width="190" height="95" fill="white"/>
</clipPath>
</defs>
</svg>
