<svg width="471" height="285" viewBox="0 0 471 285" fill="none" xmlns="http://www.w3.org/2000/svg">
<g filter="url(#filter0_f_4_11493)">
<path d="M396.605 123.749C427.976 123.749 453.407 98.3177 453.407 66.947C453.407 35.5763 427.976 10.1455 396.605 10.1455C365.235 10.1455 339.804 35.5763 339.804 66.947C339.804 98.3177 365.235 123.749 396.605 123.749Z" fill="#01001A" fill-opacity="0.37"/>
<path d="M117.121 168.989H14.5773L0 196.635L70.8764 275.052L132.704 192.614L117.121 168.989Z" fill="#01001A" fill-opacity="0.37"/>
<path d="M184.982 201.906L231.227 178.28L282.499 201.906V259.211L231.227 284.344L184.982 259.211V201.906Z" fill="#01001A" fill-opacity="0.37"/>
<path d="M342.318 207.192C338.296 195.932 343.993 177.031 347.344 168.989L457.932 165.972C460.746 179.645 459.774 201.494 458.936 210.71L463.964 212.218L462.958 216.742L471 217.748L463.964 238.86L447.877 237.352C438.629 256.252 411.519 273.711 399.119 280.079C372.176 266.405 355.722 243.551 350.863 233.833H347.344H335.783L337.291 228.303H328.746L335.783 207.192H342.318Z" fill="#01001A" fill-opacity="0.37"/>
<path d="M26.6413 73.4815V16.1776H109.582L108.576 72.4767H112.095L114.106 79.011L112.095 84.5405L109.582 85.5454L108.576 98.6151L68.3633 120.23L26.6413 98.1127L25.636 84.5405H23.6254L21.112 78.0062L23.6254 72.4767L26.6413 73.4815Z" fill="#01001A" fill-opacity="0.37"/>
<path fill-rule="evenodd" clip-rule="evenodd" d="M288.105 65.8862L289.564 64.8184C290.892 66.9211 292.63 68.6665 294.678 69.5492C296.683 65.2737 293.696 60.9892 290.486 58.5352H290.511C289.935 58.1359 289.336 57.7746 288.716 57.4543C288.64 56.9129 288.802 56.3414 289.204 55.9221L290.223 54.8572C291.914 56.8558 294.04 58.4041 296.384 58.9515C297.396 54.2917 294.331 51.1351 290.606 49.2005V49.2206C290.011 48.9473 289.402 48.7112 288.781 48.515C288.269 47.4561 288.318 46.1511 289.014 45.1112L289.017 45.1072C291.043 46.9577 293.507 48.2298 296.062 48.3689C296.388 42.9995 291.476 40.2192 286.919 39.6127C285.953 38.697 285.595 37.2368 286.092 35.9277C288.369 37.495 291.124 38.4698 293.785 38.1615C293.354 33.6758 289.594 31.7873 285.71 31.2278H285.695C285.189 31.1758 284.682 31.1508 284.175 31.1518C284.14 31.1408 284.105 31.1298 284.069 31.1197C282.533 30.6834 281.555 29.1832 281.688 27.5999C284.164 28.8179 287.041 29.3503 289.648 28.5897C288.572 24.3102 284.608 23.0832 280.753 23.1292C280.525 23.1422 280.297 23.1612 280.07 23.1853C279.726 23.0101 279.344 22.896 278.936 22.856C277.163 22.6828 275.852 21.0755 275.996 19.248C276.156 17.1883 274.487 15.4699 272.487 15.6351C270.711 15.7822 269.149 14.4331 268.982 12.6076C268.793 10.5499 266.86 9.15576 264.919 9.67718C263.194 10.1396 261.43 9.08971 260.957 7.32226C260.424 5.32963 258.284 4.30279 256.46 5.16249C254.84 5.92612 252.925 5.20853 252.161 3.55217C251.3 1.68564 249.021 1.05713 247.369 2.23009C245.902 3.27194 243.894 2.90664 242.862 1.41142C241.7 -0.27296 239.349 -0.485133 237.92 0.966055C236.652 2.25411 234.615 2.25411 233.347 0.967056C231.918 -0.484133 229.567 -0.271959 228.404 1.41142C227.372 2.90664 225.364 3.27094 223.898 2.22909C222.247 1.05513 219.967 1.68464 219.106 3.55117C218.341 5.20853 216.426 5.92612 214.806 5.16249C212.982 4.30279 210.842 5.32963 210.31 7.32126C209.837 9.08971 208.072 10.1386 206.349 9.67718C204.406 9.15576 202.472 10.5499 202.284 12.6066C202.116 14.4331 200.555 15.7812 198.779 15.6351C196.779 15.4689 195.109 17.1873 195.27 19.247C195.414 21.0755 194.104 22.6828 192.33 22.855C191.892 22.898 191.484 23.0271 191.121 23.2233C190.794 23.1802 190.465 23.1492 190.135 23.1292C186.266 23.0632 182.302 24.3102 181.206 28.5897C183.951 29.3913 186.996 28.7568 189.556 27.4007C189.793 29.0551 188.798 30.6654 187.198 31.1197C187.157 31.1318 187.116 31.1438 187.076 31.1568C186.442 31.1388 185.807 31.1628 185.174 31.2278C181.28 31.7873 177.51 33.6758 177.089 38.1615C179.869 38.4838 182.752 37.4049 185.084 35.7135L185.1 35.7495C185.691 37.0776 185.368 38.5989 184.4 39.5607C179.723 40.0401 174.474 42.8243 174.807 48.3689C177.471 48.2248 180.035 46.8506 182.106 44.873C182.151 44.9531 182.2 45.0331 182.252 45.1112C182.912 46.097 182.99 47.322 182.56 48.3479C181.77 48.57 180.998 48.8553 180.248 49.2005H180.263C176.533 51.1351 173.472 54.2917 174.484 58.9515C176.912 58.3731 179.108 56.7217 180.825 54.61C180.888 54.6881 180.955 54.7651 181.025 54.8382C181.743 55.5888 182.049 56.5996 181.943 57.5724C181.403 57.8627 180.879 58.1839 180.372 58.5352H180.382C177.173 60.9892 174.181 65.2737 176.191 69.5492C178.3 68.6385 180.08 66.808 181.424 64.6142L181.457 64.6382L182.664 65.5219C183.076 65.8232 183.324 66.2745 183.387 66.7529C179.631 69.9415 177.072 74.9436 179.857 79.5464C181.651 78.3774 183.036 76.554 184.014 74.4452L185.424 75.1348C185.764 75.3009 185.987 75.6182 186.054 75.9715C185.975 76.0766 185.896 76.1816 185.819 76.2877H185.81C183.423 79.8797 182.149 84.0221 184.758 87.8962C184.908 88.0964 185.074 88.2836 185.253 88.4557C186.563 87.2077 187.538 85.5713 188.205 83.7549C189.287 84.5375 189.837 85.9547 189.485 87.3468C189.399 87.6901 189.367 88.0324 189.383 88.3656C189.007 91.253 189.676 94.0513 192.238 96.185C193.092 95.0681 193.699 93.733 194.096 92.2818C194.889 92.9564 195.36 94.0063 195.27 95.1402C195.109 97.1999 196.779 98.9193 198.779 98.7531C200.555 98.605 202.116 99.9541 202.284 101.781C202.472 103.837 204.406 105.231 206.349 104.711C208.072 104.249 209.837 105.298 210.31 107.066C210.842 109.058 212.982 110.084 214.806 109.225C216.426 108.461 218.341 109.179 219.105 110.836C219.966 112.703 222.246 113.331 223.897 112.158C225.364 111.117 227.371 111.482 228.404 112.976C229.567 114.66 231.918 114.871 233.347 113.421C234.615 112.133 236.652 112.133 237.92 113.421C239.35 114.872 241.701 114.66 242.863 112.976C243.895 111.482 245.902 111.117 247.368 112.158C249.02 113.331 251.299 112.703 252.16 110.836C252.925 109.179 254.84 108.461 256.46 109.225C258.284 110.084 260.424 109.058 260.957 107.066C261.43 105.298 263.195 104.249 264.919 104.711C266.86 105.231 268.794 103.837 268.983 101.781C269.151 99.9551 270.711 98.606 272.487 98.7531C274.487 98.9193 276.156 97.2009 275.996 95.1412C275.919 94.1564 276.263 93.2346 276.874 92.5681C277.271 93.9082 277.853 95.1422 278.65 96.185C280.853 94.3515 281.653 92.0266 281.597 89.5766C281.893 88.9061 281.98 88.1274 281.782 87.3468C281.465 86.0918 281.881 84.8147 282.76 84.0031C283.424 85.7195 284.368 87.2647 285.619 88.4557C285.799 88.2826 285.965 88.0954 286.116 87.8962C288.401 84.5035 287.707 80.9055 285.894 77.6519C285.763 76.553 286.17 75.4471 286.983 74.7165C287.952 76.7101 289.294 78.4275 291.012 79.5464C293.761 75.0037 291.3 70.0717 287.626 66.878C287.615 66.4997 287.782 66.1214 288.105 65.8862ZM279.111 15.4109C280.748 18.5925 283.393 21.692 287.093 21.9953C287.896 17.9309 284.583 14.4251 281.269 12.9419C280.119 12.4304 278.902 12.0942 277.658 11.947C278.054 13.139 278.54 14.297 279.111 15.4109ZM296.26 25.1158C295.045 28.7488 294.097 33.876 296.384 37.2788C301.524 34.0151 300.963 26.1417 297.958 21.0095C297.29 22.3315 296.724 23.7037 296.26 25.1158ZM298.81 47.9996C303.845 46.2491 305.329 39.8699 304.525 34.8868C304.371 33.9591 304.149 33.0443 303.86 32.1516C300.453 36.257 297.045 42.6262 298.81 47.9996ZM304.267 47.3681C301.524 50.3195 298.523 54.7841 299.158 59.1157C303.939 58.6023 306.733 53.7012 307.461 49.2266C307.722 47.6042 307.763 45.9529 307.585 44.3196C306.405 45.2443 305.295 46.2642 304.267 47.3681ZM305.055 59.501C301.584 62.0661 297.783 65.587 297.372 70.2778C304.124 71.1555 308.399 63.129 309.015 57.1911C307.633 57.8426 306.305 58.6113 305.046 59.49L305.055 59.501ZM293.522 80.8245C299.153 82.9802 304.599 77.9761 307.001 72.8649C307.363 72.0793 307.68 71.2716 307.948 70.447C307.154 70.6221 303.98 71.5349 303.483 71.8841C299.287 73.7477 295.189 76.1696 293.532 80.8245H293.522ZM299.654 83.7038C295.318 84.4885 291.072 85.8075 288.274 89.5486C288.125 89.7648 287.986 89.985 287.857 90.2162C288.698 90.7786 289.637 91.1679 290.621 91.3601C296.27 92.443 301.534 88.1585 304.352 83.3645C302.779 83.3365 301.207 83.4496 299.654 83.7038ZM289.331 15.565C288.948 19.3111 289.107 24.4533 292.024 27.1885C296.246 22.914 294.038 15.4719 290.084 11.2795C289.732 12.6937 289.48 14.1328 289.331 15.585V15.565ZM293.735 94.4296C289.381 94.1674 283.611 94.8499 280.48 98.3658C284.186 102.302 290.134 101.224 294.272 98.6741C295.817 97.7083 297.229 96.5313 298.468 95.1732C296.915 94.7799 295.331 94.5307 293.735 94.4296ZM287.49 22.5677C287.369 22.3896 287.247 22.2134 287.123 22.0363V22.0723C287.246 22.2375 287.369 22.4016 287.49 22.5677ZM294.951 38.1365C293.261 32.5759 290.744 27.3236 287.49 22.5677C290.916 27.2336 293.599 32.4378 295.437 37.9824C298.934 49.2936 299.247 58.4391 296.592 69.9956C293.103 83.8319 284.634 95.7647 272.92 103.355L272.116 102.015C283.585 94.6838 291.945 83.1313 295.517 69.6833C298.284 58.346 298.121 49.3597 294.951 38.1365ZM191.763 15.4109C190.135 18.5925 187.476 21.692 183.78 21.9953C182.976 17.9309 186.29 14.4251 189.599 12.9419C190.752 12.4304 191.97 12.0952 193.216 11.947C192.817 13.138 192.331 14.296 191.763 15.4109ZM174.613 25.1158C175.829 28.7078 176.776 33.84 174.484 37.2528C169.349 34.0151 169.911 26.1417 172.916 21.0095C173.581 22.3325 174.148 23.7047 174.613 25.1158ZM172.073 47.9996C167.043 46.2491 165.56 39.8699 166.364 34.8668C166.515 33.9381 166.737 33.0233 167.028 32.1316C170.436 36.2369 173.844 42.6062 172.073 47.9786V47.9996ZM166.616 47.3681C169.359 50.3195 172.361 54.7841 171.726 59.1157C166.934 58.6183 164.141 53.7012 163.411 49.2366C163.15 47.6153 163.108 45.9639 163.287 44.3306C164.469 45.2553 165.579 46.2742 166.606 47.3781L166.616 47.3681ZM165.827 59.501C169.3 62.0661 173.095 65.587 173.512 70.2778C166.745 71.1706 162.47 63.144 161.859 57.2061C163.241 57.8566 164.568 58.6233 165.827 59.501ZM177.361 80.8245C171.721 82.9852 166.274 77.9761 163.873 72.8699C163.508 72.0843 163.19 71.2776 162.921 70.452C163.72 70.6271 166.889 71.5409 167.386 71.8891C171.587 73.7527 175.684 76.1747 177.342 80.8295L177.361 80.8245ZM171.23 83.7038C175.565 84.4885 179.807 85.8075 182.61 89.5486C182.758 89.7648 182.892 89.985 183.026 90.2162C182.186 90.7786 181.247 91.1679 180.263 91.3601C174.613 92.443 169.349 88.1585 166.532 83.3645C168.104 83.3365 169.677 83.4496 171.23 83.7038ZM181.538 15.565C181.926 19.3111 181.766 24.4533 178.849 27.1885C174.623 22.914 176.835 15.4719 180.789 11.2795C181.14 12.6937 181.391 14.1328 181.538 15.585V15.565ZM177.138 94.4296C181.493 94.1674 187.258 94.8499 190.393 98.3658C186.687 102.302 180.74 101.224 176.602 98.6741C175.057 97.7083 173.645 96.5313 172.406 95.1732C173.958 94.7799 175.542 94.5307 177.138 94.4296ZM175.919 38.1365C177.675 32.3698 180.318 26.9333 183.746 22.0363C180.145 26.8422 177.336 32.2297 175.432 37.9824C171.939 49.2936 171.627 58.4381 174.281 69.9956C177.767 83.8339 186.236 95.7687 197.954 103.355L198.757 102.015C187.289 94.6828 178.929 83.1313 175.358 69.6833C172.59 58.346 172.773 49.3597 175.919 38.1365Z" fill="#01001A" fill-opacity="0.37"/>
</g>
<defs>
<filter id="filter0_f_4_11493" x="-17.6548" y="-17.6548" width="506.31" height="319.654" filterUnits="userSpaceOnUse" color-interpolation-filters="sRGB">
<feFlood flood-opacity="0" result="BackgroundImageFix"/>
<feBlend mode="normal" in="SourceGraphic" in2="BackgroundImageFix" result="shape"/>
<feGaussianBlur stdDeviation="8.82018" result="effect1_foregroundBlur_4_11493"/>
</filter>
</defs>
</svg>
