<svg width="5" height="4" viewBox="0 0 5 4" fill="none" xmlns="http://www.w3.org/2000/svg">
<path d="M1.04741 3.915L0.0056708 0.114611C0.00113167 0.107802 0 0.0953208 0 0.0805686C0 0.0272338 0.0295071 0 0.0896506 0H0.887398C0.918037 0 0.944138 0.00907259 0.964564 0.0260943C0.98499 0.0419813 0.997478 0.0646847 1.00202 0.0907847L1.47976 2.10843C1.4877 2.12318 1.49678 2.13111 1.50586 2.13111C1.51494 2.13111 1.52175 2.12318 1.52515 2.10843L1.98587 0.0907847C1.99722 0.0306412 2.03466 0 2.09935 0H2.77681C2.83809 0 2.87668 0.031776 2.89143 0.0907847L3.393 2.10843C3.39981 2.12318 3.40889 2.13111 3.41797 2.13111C3.42705 2.13111 3.43385 2.12318 3.43726 2.10843L3.88209 0.0907847C3.88663 0.0646847 3.89798 0.0419813 3.91841 0.0260943C3.93997 0.0079378 3.96494 0 3.99558 0H4.7695C4.80354 0 4.82851 0.00907134 4.84666 0.0283627C4.86482 0.047654 4.86936 0.0760281 4.86142 0.114611L3.91614 3.90932C3.90139 3.96946 3.8628 4.0001 3.80152 4.0001H3.04462C3.01285 4.0001 2.98788 3.99103 2.96746 3.97401C2.94589 3.95812 2.93455 3.93542 2.93001 3.90932L2.45114 1.76685C2.4466 1.74756 2.43978 1.73849 2.42844 1.73849C2.41822 1.73849 2.41028 1.74756 2.40688 1.76685L1.97339 3.90932C1.96204 3.96946 1.92687 4.0001 1.86559 4.0001H1.15975C1.09961 4.0001 1.06103 3.97173 1.04628 3.91386L1.04741 3.915Z" fill="#252530"/>
</svg>
