<svg width="5" height="5" viewBox="0 0 5 5" fill="none" xmlns="http://www.w3.org/2000/svg">
<path d="M3.79226 0.469722C4.10436 0.782871 4.25989 1.20667 4.25989 1.7432V4.88515C4.25989 4.91646 4.24945 4.94463 4.22753 4.96655C4.20561 4.98847 4.17847 4.99995 4.14507 4.99995H3.02816C2.99685 4.99995 2.96972 4.98952 2.94675 4.96655C2.92483 4.94463 2.91439 4.91646 2.91439 4.88515V2.02087C2.91439 1.76513 2.84236 1.55844 2.69831 1.39873C2.55531 1.23798 2.36637 1.15866 2.13046 1.15866C1.89456 1.15866 1.70458 1.23798 1.56158 1.39873C1.41857 1.55844 1.34655 1.76513 1.34655 2.02087V4.88515C1.34655 4.91646 1.33507 4.94463 1.31315 4.96655C1.29123 4.98847 1.26409 4.99995 1.23173 4.99995H0.114822C0.0835073 4.99995 0.0563805 4.98952 0.0334162 4.96655C0.0114957 4.94463 0 4.91646 0 4.88515V0.19102C0 0.159705 0.0114957 0.13257 0.0334162 0.110649C0.0553366 0.0887287 0.0824634 0.0761978 0.114822 0.0761978H1.23173C1.26305 0.0761978 1.29019 0.0876849 1.31315 0.110649C1.33507 0.13257 1.34655 0.159705 1.34655 0.19102V0.527141C1.34655 0.54593 1.35282 0.558451 1.36535 0.564714C1.37787 0.572021 1.38726 0.567843 1.39352 0.555317C1.65448 0.184756 2.04279 0 2.55844 0C3.07409 0 3.47701 0.155528 3.78912 0.469722H3.79226Z" fill="white"/>
</svg>
