<svg width="3" height="4" viewBox="0 0 3 4" fill="none" xmlns="http://www.w3.org/2000/svg">
<path d="M2.02182 3.87422L1.36771 2.40667C1.36098 2.38759 1.34639 2.37861 1.32282 2.37861H0.97388C0.946953 2.37861 0.933494 2.39207 0.933494 2.41788V3.85178C0.933494 3.8832 0.925638 3.90675 0.906564 3.92582C0.88749 3.9449 0.863935 3.95388 0.832519 3.95388H0.102105C0.070689 3.95388 0.0471337 3.9449 0.0280599 3.92582C0.00898617 3.90675 0 3.8832 0 3.85178V0.100975C0 0.071803 0.00898617 0.0471166 0.0280599 0.0280428C0.0471337 0.00896905 0.070689 0 0.102105 0H1.73908C1.98592 0 2.20358 0.0516132 2.39095 0.152592C2.57832 0.254693 2.72307 0.398309 2.82741 0.585681C2.93063 0.771931 2.98336 0.985107 2.98336 1.22633C2.98336 1.46756 2.92165 1.69196 2.79935 1.87709C2.67818 2.06109 2.50764 2.1946 2.28998 2.27874C2.26305 2.28996 2.25631 2.30905 2.26753 2.33373L2.98897 3.83606L3.00019 3.88206C3.00019 3.93031 2.9699 3.955 2.91156 3.955H2.14076C2.08466 3.955 2.04538 3.92808 2.02182 3.87422ZM0.935737 0.84149V1.62126C0.935737 1.64707 0.949205 1.66054 0.97501 1.66054H1.58873C1.72786 1.66054 1.84005 1.62238 1.92645 1.54384C2.01284 1.46755 2.05548 1.36432 2.05548 1.23642C2.05548 1.10851 2.01284 0.999689 1.92645 0.92115C1.84005 0.841489 1.72674 0.801104 1.58873 0.801104H0.97501C0.949205 0.801104 0.935737 0.814562 0.935737 0.84149Z" fill="#252530"/>
</svg>
