<svg width="56" height="56" viewBox="0 0 56 56" fill="none" xmlns="http://www.w3.org/2000/svg">
<g clip-path="url(#clip0_4_15838)">
<g clip-path="url(#clip1_4_15838)">
<g clip-path="url(#clip2_4_15838)">
<path d="M0 9.33333C0 4.17867 4.17867 0 9.33333 0H46.6667C51.8214 0 56 4.17867 56 9.33333V46.6667C56 51.8214 51.8214 56 46.6667 56H9.33333C4.17867 56 0 51.8214 0 46.6667V9.33333Z" fill="black"/>
<path d="M23.4889 43.1666C21.075 43.1666 17.669 42.462 14.2652 39.3991L16.9357 36.4308C21.7077 40.7262 26.6811 39.0294 28.2156 37.5954C28.3225 37.4949 28.4211 37.3901 28.5258 37.2935C23.5094 36.8046 19.8261 33.2363 19.5734 32.9919C15.7238 29.2017 14.8486 24.0538 17.589 21.2826C20.3294 18.5115 25.4794 19.2673 29.3312 23.0534C29.6721 23.3759 33.4211 27.0551 34.1607 31.7223C35.269 30.8962 36.1697 29.8231 36.7912 28.5883C37.4127 27.3535 37.7379 25.9908 37.7412 24.6085C37.7507 23.4379 37.5236 22.2776 37.0735 21.197C36.6234 20.1166 35.9597 19.1381 35.122 18.3204C33.3698 16.5968 30.8882 15.6601 28.154 15.6601V11.6666C31.9318 11.6666 35.3974 13.0102 37.9056 15.4485C39.1287 16.6381 40.0985 18.0629 40.7565 19.6371C41.4146 21.2112 41.7473 22.9023 41.7347 24.6085C41.7291 27.1665 40.9631 29.665 39.534 31.7866C38.1048 33.9081 36.0772 35.5568 33.7087 36.5232C33.1094 38.0496 32.1628 39.4156 30.9437 40.5126C29.6721 41.702 27.1824 43.0187 24.0127 43.1523C23.8442 43.1618 23.6696 43.1666 23.4889 43.1666ZM21.8084 23.5813C21.557 23.5648 21.3048 23.5998 21.0674 23.6842C20.8301 23.7687 20.6124 23.9008 20.428 24.0723C19.4543 25.0727 20.0746 27.8829 22.3775 30.1549C22.4103 30.1857 26.0155 33.6821 30.2822 33.3246C30.3007 29.553 26.5969 25.9786 26.5579 25.9437L26.5333 25.917C25.1774 24.5715 23.234 23.5813 21.8084 23.5813Z" fill="white"/>
</g>
</g>
</g>
<defs>
<clipPath id="clip0_4_15838">
<rect width="56" height="56" rx="10" fill="white"/>
</clipPath>
<clipPath id="clip1_4_15838">
<rect width="56" height="56" fill="white"/>
</clipPath>
<clipPath id="clip2_4_15838">
<rect width="56" height="56" fill="white"/>
</clipPath>
</defs>
</svg>
