<svg width="56" height="56" viewBox="0 0 56 56" fill="none" xmlns="http://www.w3.org/2000/svg">
<g clip-path="url(#clip0_4_15910)">
<g clip-path="url(#clip1_4_15910)">
<g clip-path="url(#clip2_4_15910)">
<path d="M0 9.33333C0 4.17867 4.17867 0 9.33333 0H46.6667C51.8214 0 56 4.17867 56 9.33333V46.6667C56 51.8214 51.8214 56 46.6667 56H9.33333C4.17867 56 0 51.8214 0 46.6667V9.33333Z" fill="#992C87"/>
<path fill-rule="evenodd" clip-rule="evenodd" d="M23.3333 27.9999C24.622 27.9999 25.6667 26.9553 25.6667 25.6666C25.6667 24.3779 24.622 23.3333 23.3333 23.3333C22.0446 23.3333 21 24.3779 21 25.6666C21 26.9553 22.0446 27.9999 23.3333 27.9999ZM23.3333 29.1666C18.6667 29.1666 18.6667 32.6666 18.6667 32.6666H28C28 32.6666 28 29.1666 23.3333 29.1666Z" fill="white"/>
<path fill-rule="evenodd" clip-rule="evenodd" d="M30.3333 25.6667C30.3333 25.0223 30.8557 24.5 31.5 24.5H36.1667C36.811 24.5 37.3333 25.0223 37.3333 25.6667C37.3333 26.311 36.811 26.8333 36.1667 26.8333H31.5C30.8557 26.8333 30.3333 26.311 30.3333 25.6667Z" fill="white"/>
<path fill-rule="evenodd" clip-rule="evenodd" d="M30.3333 30.3334C30.3333 29.6891 30.8557 29.1667 31.5 29.1667H36.1667C36.811 29.1667 37.3333 29.6891 37.3333 30.3334C37.3333 30.9778 36.811 31.5001 36.1667 31.5001H31.5C30.8557 31.5001 30.3333 30.9778 30.3333 30.3334Z" fill="white"/>
<path fill-rule="evenodd" clip-rule="evenodd" d="M37.3333 18.0833H18.6667C17.0558 18.0833 15.75 19.3891 15.75 20.9999V34.9999C15.75 36.6107 17.0558 37.9166 18.6667 37.9166H37.3333C38.9441 37.9166 40.25 36.6107 40.25 34.9999V20.9999C40.25 19.3891 38.9441 18.0833 37.3333 18.0833ZM18.6667 16.3333C16.0894 16.3333 14 18.4226 14 20.9999V34.9999C14 37.5772 16.0894 39.6666 18.6667 39.6666H37.3333C39.9106 39.6666 42 37.5772 42 34.9999V20.9999C42 18.4226 39.9106 16.3333 37.3333 16.3333H18.6667Z" fill="white"/>
</g>
</g>
</g>
<defs>
<clipPath id="clip0_4_15910">
<rect width="56" height="56" rx="10" fill="white"/>
</clipPath>
<clipPath id="clip1_4_15910">
<rect width="56" height="56" fill="white"/>
</clipPath>
<clipPath id="clip2_4_15910">
<rect width="56" height="56" fill="white"/>
</clipPath>
</defs>
</svg>
