<svg width="180" height="34" viewBox="0 0 180 34" fill="none" xmlns="http://www.w3.org/2000/svg">
<g clip-path="url(#clip0_5_16956)">
<path d="M60.9776 18.4126H67.7601C68.2091 18.4289 68.6342 18.6188 68.9461 18.9422C69.258 19.2656 69.4322 19.6974 69.4322 20.1466C69.4322 20.5959 69.258 21.0277 68.9461 21.3511C68.6342 21.6745 68.2091 21.8644 67.7601 21.8807H59.5821C59.4543 21.8797 59.3308 21.9264 59.2355 22.0115L56.7704 24.1415C56.6868 24.2122 56.6268 24.3069 56.5987 24.4127C56.5705 24.5186 56.5756 24.6305 56.6131 24.7334C56.6507 24.8363 56.7189 24.9252 56.8086 24.9881C56.8983 25.0509 57.0052 25.0847 57.1147 25.0849H67.3492C67.4801 25.0849 67.604 25.1009 67.744 25.1009C69.0258 25.1099 70.2609 24.6205 71.1887 23.736C72.1164 22.8515 72.6641 21.6411 72.7163 20.3603C72.7684 19.0796 72.3208 17.8287 71.468 16.8717C70.6152 15.9147 69.424 15.3266 68.1457 15.2314H60.8468C60.3978 15.215 59.9727 15.0252 59.6608 14.7018C59.349 14.3783 59.1747 13.9466 59.1747 13.4973C59.1747 13.048 59.349 12.6162 59.6608 12.2928C59.9727 11.9694 60.3978 11.7796 60.8468 11.7632H69.0087C69.1426 11.7624 69.2716 11.7126 69.3714 11.6232L71.6666 9.49323C71.7453 9.41937 71.8001 9.32371 71.824 9.21852C71.8479 9.11332 71.8399 9.00337 71.8009 8.90277C71.762 8.80216 71.6938 8.71549 71.6053 8.65384C71.5168 8.5922 71.4118 8.55839 71.304 8.55676H60.8606C59.5687 8.58461 58.3391 9.11736 57.4353 10.0409C56.5315 10.9644 56.0254 12.2051 56.0254 13.4973C56.0254 14.7895 56.5315 16.0302 57.4353 16.9537C58.3391 17.8772 59.5687 18.41 60.8606 18.4378L60.9776 18.4126Z" fill="#0A1E25"/>
<path d="M100.457 8.52454C100.386 8.52453 100.316 8.53859 100.25 8.56589C100.185 8.5932 100.126 8.63321 100.076 8.6836C100.026 8.73399 99.9871 8.79376 99.9606 8.85944C99.9342 8.92513 99.921 8.99541 99.9219 9.06622V24.5592C99.9213 24.7018 99.9772 24.8389 100.077 24.9404C100.178 25.042 100.314 25.0996 100.457 25.1008H112.869C113.018 25.0971 113.16 25.0354 113.264 24.9287L114.816 23.2601C114.888 23.1834 114.935 23.0875 114.953 22.984C114.971 22.8806 114.958 22.7741 114.916 22.6779C114.874 22.5817 114.805 22.4999 114.717 22.4426C114.629 22.3854 114.526 22.3552 114.421 22.3557H103.59C103.518 22.3558 103.447 22.3414 103.381 22.3135C103.315 22.2857 103.256 22.2448 103.206 22.1935C103.156 22.1421 103.117 22.0812 103.091 22.0145C103.065 21.9477 103.053 21.8764 103.055 21.8049V9.06622C103.056 8.92356 103 8.78647 102.899 8.68495C102.799 8.58343 102.663 8.52575 102.52 8.52454H100.457Z" fill="#0A1E25"/>
<path fill-rule="evenodd" clip-rule="evenodd" d="M80.5818 8.52454C79.8155 8.56081 79.0903 8.8815 78.5478 9.42394C78.0054 9.96638 77.6847 10.6916 77.6484 11.4579V21.8714V22.0046C77.6472 22.7952 77.9518 23.5557 78.4985 24.1269C79.0453 24.698 79.7918 25.0355 80.5818 25.0687H91.8469C92.6359 25.0322 93.3807 24.6937 93.9271 24.1234C94.4736 23.553 94.7798 22.7944 94.7825 22.0046V21.8714V11.4762C94.7526 10.7063 94.434 9.97591 93.89 9.43026C93.3461 8.88461 92.6167 8.56371 91.8469 8.53142H80.5772L80.5818 8.52454ZM82.6773 11.4762C82.197 11.497 81.742 11.6972 81.402 12.0371C81.0621 12.3771 80.8619 12.8321 80.8411 13.3124V19.8654V19.948C80.8394 20.4446 81.0293 20.9228 81.3714 21.2828C81.7135 21.6428 82.1813 21.857 82.6773 21.8806H89.7398C90.2359 21.857 90.7037 21.6428 91.0457 21.2828C91.3878 20.9228 91.5778 20.4446 91.576 19.948V19.8654V13.3124C91.5542 12.8325 91.3537 12.378 91.014 12.0383C90.6743 11.6985 90.2198 11.4981 89.7398 11.4762H82.6773Z" fill="#0A1E25"/>
<path fill-rule="evenodd" clip-rule="evenodd" d="M132.858 24.5592C132.858 24.7019 132.914 24.839 133.014 24.9405C133.114 25.042 133.25 25.0997 133.393 25.1009H135.496C135.566 25.1009 135.636 25.0868 135.702 25.0595C135.767 25.0322 135.826 24.9922 135.876 24.9418C135.926 24.8914 135.965 24.8317 135.992 24.766C136.018 24.7003 136.031 24.63 136.03 24.5592V11.7379V11.6048C136.035 10.8186 135.736 10.0611 135.195 9.49015C134.655 8.91924 133.914 8.57909 133.129 8.54065H122.19C121.789 8.54335 121.393 8.62501 121.024 8.78095C120.654 8.9369 120.32 9.16407 120.038 9.44949C119.757 9.7349 119.535 10.073 119.384 10.4444C119.233 10.8158 119.157 11.2132 119.16 11.614V11.7448V24.5592C119.16 24.7021 119.215 24.8394 119.316 24.9413C119.416 25.0432 119.552 25.1014 119.695 25.1032H121.8C121.87 25.1023 121.94 25.0875 122.004 25.0596C122.069 25.0318 122.128 24.9914 122.177 24.9409C122.226 24.8903 122.264 24.8306 122.29 24.7651C122.316 24.6996 122.329 24.6296 122.328 24.5592V19.225C122.327 19.0824 122.383 18.9453 122.483 18.8438C122.583 18.7423 122.72 18.6846 122.862 18.6834H132.349C132.42 18.6834 132.49 18.6974 132.555 18.7247C132.62 18.752 132.68 18.792 132.729 18.8424C132.779 18.8928 132.818 18.9526 132.845 19.0183C132.871 19.084 132.884 19.1542 132.884 19.225V24.5592H132.858ZM122.3 15.7386V13.0692C122.297 12.5776 122.488 12.1048 122.832 11.7536C123.176 11.4023 123.645 11.2012 124.136 11.194H130.992C131.486 11.1976 131.958 11.3971 132.305 11.7488C132.652 12.1004 132.845 12.5753 132.842 13.0692V15.7317C132.843 15.8745 132.787 16.0119 132.687 16.1138C132.587 16.2156 132.45 16.2738 132.307 16.2757H122.833C122.762 16.2748 122.693 16.26 122.628 16.2321C122.563 16.2042 122.505 16.1639 122.456 16.1133C122.407 16.0628 122.368 16.0031 122.342 15.9376C122.316 15.8721 122.304 15.8021 122.305 15.7317L122.3 15.7386Z" fill="#0A1E25"/>
<path fill-rule="evenodd" clip-rule="evenodd" d="M177.285 25.094C177.214 25.094 177.144 25.08 177.079 25.0527C177.013 25.0254 176.954 24.9854 176.904 24.935C176.854 24.8846 176.815 24.8248 176.789 24.7591C176.762 24.6934 176.749 24.6232 176.75 24.5524V19.2182C176.751 19.0753 176.695 18.938 176.595 18.8361C176.494 18.7342 176.358 18.676 176.215 18.6742H166.623C166.552 18.6742 166.482 18.6883 166.417 18.7158C166.351 18.7432 166.292 18.7834 166.242 18.8341C166.192 18.8847 166.153 18.9448 166.127 19.0107C166.1 19.0767 166.087 19.1472 166.089 19.2182V24.5592C166.089 24.7019 166.033 24.839 165.933 24.9405C165.833 25.042 165.696 25.0997 165.554 25.1009H163.433C163.362 25.1006 163.292 25.0863 163.227 25.0589C163.162 25.0315 163.103 24.9914 163.054 24.941C163.004 24.8907 162.965 24.831 162.939 24.7655C162.913 24.6999 162.9 24.6299 162.9 24.5592V11.738V11.6048C162.9 10.7913 163.223 10.011 163.797 9.4349C164.372 8.85879 165.151 8.53392 165.965 8.53149H177.03C177.819 8.5686 178.564 8.90763 179.11 9.47842C179.656 10.0492 179.961 10.8081 179.963 11.598V11.7288V24.5432C179.964 24.6858 179.908 24.8229 179.808 24.9244C179.708 25.026 179.571 25.0836 179.429 25.0849H177.285V25.094ZM166.082 13.0692V15.7317C166.08 15.8744 166.136 16.0117 166.236 16.1137C166.335 16.2156 166.471 16.2739 166.614 16.2757H176.206C176.277 16.2757 176.347 16.2616 176.413 16.2341C176.478 16.2067 176.538 16.1664 176.587 16.1158C176.637 16.0652 176.676 16.0051 176.703 15.9392C176.729 15.8732 176.742 15.8027 176.741 15.7317V13.0692C176.741 12.5733 176.545 12.0973 176.195 11.7458C175.846 11.3943 175.371 11.1958 174.875 11.194H167.945C167.45 11.1964 166.975 11.3951 166.626 11.7466C166.277 12.0981 166.081 12.5737 166.082 13.0692Z" fill="#0A1E25"/>
<path d="M143.949 8.52461C144.026 8.52333 144.102 8.53963 144.172 8.57224C144.241 8.60486 144.303 8.65294 144.351 8.71282L153.787 19.9595C153.858 20.0425 153.953 20.1015 154.059 20.1286C154.165 20.1556 154.276 20.1495 154.379 20.1108C154.481 20.0722 154.569 20.0031 154.631 19.9128C154.692 19.8225 154.725 19.7154 154.723 19.6061V9.06628C154.723 8.92363 154.778 8.78653 154.879 8.68502C154.979 8.5835 155.115 8.52582 155.258 8.52461H157.363C157.434 8.5246 157.504 8.53866 157.569 8.56596C157.634 8.59327 157.694 8.63328 157.743 8.68367C157.793 8.73406 157.832 8.79383 157.859 8.85951C157.885 8.92519 157.898 8.99548 157.897 9.06628V24.5592C157.898 24.7019 157.842 24.839 157.742 24.9405C157.642 25.042 157.505 25.0997 157.363 25.1009H154.737C154.733 25.1004 154.729 25.0986 154.726 25.0957C154.723 25.0928 154.721 25.0889 154.721 25.0848C154.721 25.0848 154.721 25.0848 154.721 25.0688L145.122 13.8909C145.052 13.8052 144.956 13.7438 144.849 13.715C144.742 13.6863 144.628 13.6918 144.524 13.7308C144.42 13.7697 144.331 13.8401 144.269 13.9322C144.207 14.0243 144.176 14.1334 144.179 14.2444V24.5592C144.179 24.7021 144.124 24.8394 144.023 24.9413C143.923 25.0432 143.787 25.1014 143.644 25.1032H141.523C141.452 25.1032 141.382 25.0891 141.316 25.0616C141.251 25.0342 141.191 24.994 141.142 24.9433C141.092 24.8927 141.053 24.8327 141.026 24.7667C141 24.7008 140.987 24.6302 140.988 24.5592V9.06628C140.988 8.92363 141.044 8.78653 141.144 8.68502C141.244 8.5835 141.381 8.52582 141.523 8.52461H143.949Z" fill="#0A1E25"/>
<path d="M7.00066 25.661C7.2625 25.3991 7.61729 25.2514 7.98762 25.2502H42.2213C42.3614 25.2454 42.4996 25.2835 42.6174 25.3594C42.7352 25.4353 42.8271 25.5453 42.8807 25.6748C42.9344 25.8043 42.9472 25.9471 42.9176 26.084C42.8879 26.221 42.8172 26.3457 42.7148 26.4414L35.9507 33.1986C35.8213 33.3287 35.6675 33.432 35.4982 33.5025C35.3288 33.573 35.1472 33.6093 34.9637 33.6095H0.739215C0.599141 33.6142 0.460956 33.5761 0.343119 33.5002C0.225283 33.4243 0.133408 33.3143 0.0797688 33.1848C0.0261292 33.0553 0.0132793 32.9126 0.0429359 32.7756C0.0725924 32.6386 0.143343 32.5139 0.245736 32.4182L7.00066 25.661Z" fill="#0A1E25"/>
<path d="M7.00066 0.410878C7.13002 0.280788 7.2838 0.177526 7.45317 0.107021C7.62254 0.0365165 7.80416 0.000156364 7.98762 2.81075e-05H42.2213C42.3614 -0.00471352 42.4996 0.033402 42.6174 0.109283C42.7352 0.185163 42.8271 0.295195 42.8807 0.424679C42.9344 0.554162 42.9472 0.696931 42.9176 0.833912C42.8879 0.970893 42.8172 1.09556 42.7148 1.19126L35.9507 7.94849C35.6888 8.21038 35.334 8.35807 34.9637 8.35934H0.739215C0.599141 8.36408 0.460956 8.32596 0.343119 8.25008C0.225283 8.1742 0.133408 8.06417 0.0797688 7.93469C0.0261292 7.8052 0.0132793 7.66243 0.0429359 7.52545C0.0725924 7.38847 0.143343 7.2638 0.245736 7.1681L7.00066 0.410878Z" fill="#0A1E25"/>
<path d="M35.9507 12.9545C35.8213 12.8244 35.6675 12.7211 35.4982 12.6506C35.3288 12.5801 35.1472 12.5437 34.9637 12.5436H0.739215C0.599141 12.5389 0.460956 12.577 0.34312 12.6529C0.225283 12.7287 0.133408 12.8388 0.0797688 12.9683C0.0261292 13.0977 0.0132793 13.2405 0.0429359 13.3775C0.0725924 13.5145 0.143343 13.6391 0.245736 13.7348L7.00984 20.4921C7.27168 20.754 7.62647 20.9016 7.9968 20.9029H42.2305C42.3711 20.9082 42.5099 20.8703 42.6283 20.7943C42.7467 20.7183 42.8389 20.6079 42.8927 20.4779C42.9464 20.3479 42.9591 20.2046 42.9289 20.0672C42.8987 19.9298 42.8272 19.8049 42.724 19.7094L35.9507 12.9545Z" fill="#0A1E25"/>
</g>
<defs>
<clipPath id="clip0_5_16956">
<rect width="179.927" height="33.6094" fill="white" transform="translate(0.0371094)"/>
</clipPath>
</defs>
</svg>
