<svg width="3" height="4" viewBox="0 0 3 4" fill="none" xmlns="http://www.w3.org/2000/svg">
<path d="M0.0281456 3.94021C0.00900192 3.92107 0 3.89743 0 3.8659V0.101345C0 0.0720663 0.00900192 0.0472893 0.0281456 0.0281456C0.0472893 0.00900192 0.0709402 0 0.101345 0H1.50784C1.80175 0 2.06075 0.0518024 2.2871 0.153151C2.51344 0.255626 2.68911 0.400894 2.81298 0.590079C2.93573 0.779263 2.99991 0.996603 2.99991 1.24322V2.72854C2.99991 2.97291 2.93798 3.19137 2.81298 3.38055C2.68911 3.56973 2.51232 3.71613 2.2871 3.81748C2.06188 3.91995 1.80175 3.97175 1.50784 3.97175H0.101345C0.0709402 3.97175 0.0472893 3.96274 0.0281456 3.9436V3.94021ZM0.976316 3.1632H1.54725C1.69815 3.1632 1.82089 3.11029 1.91548 3.00218C2.00895 2.8952 2.0585 2.74992 2.06188 2.56862V1.40087C2.06188 1.21957 2.01345 1.07429 1.91773 0.967312C1.82314 0.859207 1.69815 0.806291 1.54275 0.806291H0.978567C0.951541 0.806291 0.939167 0.818665 0.939167 0.845692V3.12492C0.939167 3.15195 0.951541 3.16547 0.978567 3.16547L0.976316 3.1632Z" fill="#252530"/>
</svg>
